<?xml version="1.0" standalone="yes"?>
<!DOCTYPE svg PUBLIC "-//W3C//DTD SVG 1.1//EN"
 "http://www.w3.org/Graphics/SVG/1.1/DTD/svg11.dtd">
<svg xmlns="http://www.w3.org/2000/svg" version="1.1"
  width="100%" height="100%" viewBox="0 0 1024 768"
  style="fill: none; font-family: Helvetica;
 font: Helvetica;
">

<!-- Creator: NGspice -->

<rect x="0" y="0" width="1024" height="768" fill="black" stroke="none"/>
<text stroke="none" fill="white" font-size="16" x="358" y="752">
time (s)
</text>
<text transform="rotate(-90, 20, 456)"  stroke="none" fill="white" font-size="16" x="20" y="456">
voltage (v)
</text>
<text stroke="none" fill="white" font-size="16" x="10" y="16">
tran5: r5 drive sweep
</text>
<path stroke="white" d="M75 704l0 -639"/>
<text stroke="none" fill="white" font-size="16" x="60" y="728">
0.0
</text>
<path stroke="white" stroke-dasharray="1,2" d="M164 704l0 -639"/>
<text stroke="none" fill="white" font-size="16" x="144" y="728">
10.0
</text>
<path stroke="white" stroke-dasharray="1,2" d="M253 704l0 -639"/>
<text stroke="none" fill="white" font-size="16" x="233" y="728">
20.0
</text>
<path stroke="white" stroke-dasharray="1,2" d="M342 704l0 -639"/>
<text stroke="none" fill="white" font-size="16" x="322" y="728">
30.0
</text>
<path stroke="white" stroke-dasharray="1,2" d="M431 704l0 -639"/>
<text stroke="none" fill="white" font-size="16" x="411" y="728">
40.0
</text>
<path stroke="white" stroke-dasharray="1,2" d="M520 704l0 -639"/>
<text stroke="none" fill="white" font-size="16" x="500" y="728">
50.0
</text>
<path stroke="white" stroke-dasharray="1,2" d="M609 704l0 -639"/>
<text stroke="none" fill="white" font-size="16" x="589" y="728">
60.0
</text>
<path stroke="white" stroke-dasharray="1,2" d="M698 704l0 -639"/>
<text stroke="none" fill="white" font-size="16" x="678" y="728">
70.0
</text>
<path stroke="white" stroke-dasharray="1,2" d="M787 704l0 -639"/>
<text stroke="none" fill="white" font-size="16" x="767" y="728">
80.0
</text>
<path stroke="white" stroke-dasharray="1,2" d="M876 704l0 -639"/>
<text stroke="none" fill="white" font-size="16" x="856" y="728">
90.0
</text>
<path stroke="white" stroke-dasharray="1,2" d="M965 704l0 -639"/>
<text stroke="none" fill="white" font-size="16" x="940" y="728">
100.0
</text>
<text stroke="none" fill="white" font-size="16" x="614" y="752">
ms
</text>
<path stroke="white" d="M75 704l890 0"/>
<text stroke="none" fill="white" font-size="16" x="43" y="712">
0.0
</text>
<path stroke="white" stroke-dasharray="1,2" d="M75 633l890 0"/>
<text stroke="none" fill="white" font-size="16" x="43" y="641">
1.0
</text>
<path stroke="white" stroke-dasharray="1,2" d="M75 562l890 0"/>
<text stroke="none" fill="white" font-size="16" x="43" y="570">
2.0
</text>
<path stroke="white" stroke-dasharray="1,2" d="M75 491l890 0"/>
<text stroke="none" fill="white" font-size="16" x="43" y="499">
3.0
</text>
<path stroke="white" stroke-dasharray="1,2" d="M75 420l890 0"/>
<text stroke="none" fill="white" font-size="16" x="43" y="428">
4.0
</text>
<path stroke="white" stroke-dasharray="1,2" d="M75 349l890 0"/>
<text stroke="none" fill="white" font-size="16" x="43" y="357">
5.0
</text>
<path stroke="white" stroke-dasharray="1,2" d="M75 278l890 0"/>
<text stroke="none" fill="white" font-size="16" x="43" y="286">
6.0
</text>
<path stroke="white" stroke-dasharray="1,2" d="M75 207l890 0"/>
<text stroke="none" fill="white" font-size="16" x="43" y="215">
7.0
</text>
<path stroke="white" stroke-dasharray="1,2" d="M75 136l890 0"/>
<text stroke="none" fill="white" font-size="16" x="43" y="144">
8.0
</text>
<path stroke="white" stroke-dasharray="1,2" d="M75 65l890 0"/>
<text stroke="none" fill="white" font-size="16" x="43" y="73">
9.0
</text>
<text stroke="none" fill="white" font-size="16" x="10" y="32">
V
</text>
<path stroke="red" d="M445 23l44 0"/>
<text stroke="none" fill="white" font-size="16" x="499" y="32">
tran1.v(/out_sim0)
</text>
<path stroke="red" d="M75 73l0 -1 3 0 0 -1 56 0 0 -1 64 0 1 -1 9 0M208 70l0 -1M208 70l5 0 0 -1 7 0M220 70l0 -1M220 70l4 0 0 -1 15 0M239 71l0 -2M239 71l1 0M240 72l0 -1M240 72l1 0M241 73l0 -1M241 73l1 1 1 0 0 -1 1 0 0 -2 1 0 0 -1 1 0 0 -1 12 0"/>
<path stroke="red" d="M258 71l0 -2M258 71l1 0M259 74l0 -3M259 74l1 1M260 78l0 -3M260 78l1 0M261 80l0 -2M261 80l1 0M262 81l0 -1M262 81l1 0 0 -1 1 0 0 -3 1 0 0 -3 1 -1 0 -2 1 0 0 -2 10 0M277 72l0 -3M277 72l1 0M278 76l0 -4M278 76l1 0M279 81l0 -5"/>
<path stroke="red" d="M279 81l1 0M280 85l0 -4M280 85l1 1M281 88l0 -2M281 88l1 0M282 90l0 -2M282 90l1 0 0 -1 1 -1 0 -2 1 0 0 -4 1 0 0 -5 1 0 0 -4 1 -1 0 -2 1 0 0 -1 7 0M296 71l0 -2M296 71l1 1M297 76l0 -4M297 76l1 0M298 82l0 -6M298 82l1 0M299 88l0 -6"/>
<path stroke="red" d="M299 88l1 0M300 93l0 -5M300 93l1 0M301 97l0 -4M301 97l1 0M302 98l0 -1M302 98l2 0 0 -3 1 0 0 -4 1 0 0 -5 1 -1 0 -5 1 -1 0 -4 1 0 0 -3 1 -1 0 -1 1 0 0 -1 3 0M314 70l0 -1M314 70l1 0M315 72l0 -2M315 72l1 0M316 76l0 -4M316 76l1 0"/>
<path stroke="red" d="M317 81l0 -5M317 81l1 1M318 88l0 -6M318 88l1 1M319 94l0 -5M319 94l1 1M320 100l0 -5M320 100l1 1M321 105l0 -4M321 105l1 0M322 107l0 -2M322 107l2 0 0 -2 1 -1 0 -4 1 0 0 -5 1 0 0 -6 1 0 0 -6 1 0 0 -5 1 -1 0 -3 1 0 0 -2 1 0 0 -1"/>
<path stroke="red" d="M332 71l1 0M333 72l0 -1M333 72l1 0M334 73l0 -1M334 73l1 0M335 76l0 -3M335 76l1 0M336 81l0 -5M336 81l1 1M337 87l0 -5M337 87l1 1M338 94l0 -6M338 94l1 1M339 102l0 -7M339 102l1 0M340 108l0 -6M340 108l1 0M341 112l0 -4M341 112l1 1"/>
<path stroke="red" d="M342 115l0 -2M342 115l1 0M343 116l0 -1 1 0 0 -1 1 -1 0 -3 1 -1 0 -4 1 -1 0 -6 1 -1 0 -5 1 -1 0 -5 1 -1 0 -4 1 0 0 -3 1 -1 0 -1 2 0M354 78l0 -2M354 78l1 0M355 81l0 -3M355 81l1 1M356 86l0 -4M356 86l1 1M357 93l0 -6M357 93l1 0"/>
<path stroke="red" d="M358 100l0 -7M358 100l1 1M359 108l0 -7M359 108l1 0M360 114l0 -6M360 114l1 1M361 119l0 -4M361 119l1 1M362 123l0 -3M362 123l1 0M363 124l0 -1M363 124l1 0 0 -2 1 0 0 -3 1 0 0 -6 1 0 0 -6 1 0 0 -6 1 -1 0 -6 1 0 0 -6 1 0 0 -3"/>
<path stroke="red" d="M371 85l1 -1 0 -2 2 0M374 83l0 -1M374 83l1 1M375 87l0 -3M375 87l1 0M376 92l0 -5M376 92l1 0M377 98l0 -6M377 98l1 1M378 106l0 -7M378 106l1 0M379 114l0 -8M379 114l1 0M380 120l0 -6M380 120l1 1M381 126l0 -5M381 126l1 0M382 130l0 -4"/>
<path stroke="red" d="M382 130l1 0M383 131l0 -1M383 131l1 0 0 -1 1 0 0 -3 1 0 0 -5 1 0 0 -6 1 0 0 -7 1 0 0 -7 1 0 0 -6 1 0 0 -4 1 0 0 -3 1 0 0 -1 1 0M394 89l0 -1M394 89l1 0M395 92l0 -3M395 92l1 1M396 97l0 -4M396 97l1 0M397 104l0 -7M397 104l1 0"/>
<path stroke="red" d="M398 111l0 -7M398 111l1 1M399 118l0 -6M399 118l1 1M400 126l0 -7M400 126l1 1M401 132l0 -5M401 132l1 0M402 136l0 -4M402 136l1 0M403 138l0 -2M403 138l2 0 0 -3 1 0 0 -4 1 -1 0 -5 1 -1 0 -7 1 0 0 -6 1 -1 0 -6 1 0 0 -5 1 0 0 -3"/>
<path stroke="red" d="M412 96l1 0 0 -2 1 0M414 95l0 -1M414 95l1 0M415 98l0 -3M415 98l1 0M416 102l0 -4M416 102l1 1M417 109l0 -6M417 109l1 0M418 116l0 -7M418 116l1 0M419 124l0 -8M419 124l1 1M420 131l0 -6M420 131l1 1M421 137l0 -5M421 137l1 1M422 142l0 -4"/>
<path stroke="red" d="M422 142l1 0M423 145l0 -3M423 145l2 0 0 -2 1 -1 0 -3 1 -1 0 -6 1 0 0 -6 1 -1 0 -6 1 -1 0 -6 1 -1 0 -5 1 0 0 -4 1 0 0 -2 1 0 1 1M435 103l0 -2M435 103l1 0M436 107l0 -4M436 107l1 1M437 113l0 -5M437 113l1 1M438 120l0 -6M438 120l1 1"/>
<path stroke="red" d="M439 128l0 -7M439 128l1 1M440 136l0 -7M440 136l1 1M441 142l0 -5M441 142l1 1M442 147l0 -4M442 147l1 1M443 151l0 -3M443 151l2 0 0 -1 1 -1 0 -3 1 -1 0 -5 1 -1 0 -6 1 0 0 -7 1 0 0 -7 1 0 0 -6 1 0 0 -4 1 -1 0 -2 2 0M455 108l0 -2"/>
<path stroke="red" d="M455 108l1 0M456 112l0 -4M456 112l1 0M457 117l0 -5M457 117l1 1M458 125l0 -7M458 125l1 1M459 132l0 -6M459 132l1 1M460 140l0 -7M460 140l1 1M461 147l0 -6M461 147l1 0M462 152l0 -5M462 152l1 1M463 156l0 -3M463 156l1 0M464 157l0 -1"/>
<path stroke="red" d="M464 157l1 0 0 -1 1 0 0 -3 1 -1 0 -5 1 0 0 -6 1 -1 0 -7 1 0 0 -7 1 0 0 -6 1 0 0 -5 1 0 0 -3 1 0 0 -1 1 0M475 113l0 -2M475 113l1 0M476 116l0 -3M476 116l1 0M477 121l0 -5M477 121l1 1M478 128l0 -6M478 128l1 1M479 136l0 -7M479 136l1 1"/>
<path stroke="red" d="M480 144l0 -7M480 144l1 1M481 151l0 -6M481 151l1 1M482 157l0 -5M482 157l1 0M483 161l0 -4M483 161l1 0M484 163l0 -2M484 163l1 0 0 -1 1 0 0 -3 1 0 0 -5 1 0 0 -6 1 -1 0 -7 1 0 0 -7 1 0 0 -6 1 -1 0 -5 1 0 0 -3 1 0 0 -2 1 0M495 117l0 -1"/>
<path stroke="red" d="M495 117l1 0M496 120l0 -3M496 120l1 0M497 125l0 -5M497 125l1 1M498 132l0 -6M498 132l1 0M499 139l0 -7M499 139l1 1M500 147l0 -7M500 147l1 1M501 155l0 -7M501 155l1 0M502 161l0 -6M502 161l1 0M503 165l0 -4M503 165l1 1M504 168l0 -2"/>
<path stroke="red" d="M504 168l1 0 1 -1 0 -2 1 0 0 -5 1 0 0 -6 1 0 0 -7 1 0 0 -7 1 -1 0 -6 1 -1 0 -5 1 0 0 -4 1 0 0 -2 1 0M515 122l0 -1M515 122l1 0M516 124l0 -2M516 124l1 0M517 129l0 -5M517 129l1 0M518 135l0 -6M518 135l1 1M519 143l0 -7M519 143l1 0"/>
<path stroke="red" d="M520 150l0 -7M520 150l1 1M521 158l0 -7M521 158l1 0M522 165l0 -7M522 165l1 0M523 169l0 -4M523 169l1 1M524 172l0 -2M524 172l1 0M525 173l0 -1M525 173l1 0 0 -2 1 -1 0 -3 1 -1 0 -6 1 0 0 -6 1 -1 0 -7 1 0 0 -7 1 0 0 -6 1 0 0 -5"/>
<path stroke="red" d="M533 128l1 0 0 -2 1 0 0 -1M535 126l1 0M536 128l0 -2M536 128l1 0M537 132l0 -4M537 132l1 1M538 138l0 -5M538 138l1 1M539 145l0 -6M539 145l1 1M540 153l0 -7M540 153l1 1M541 161l0 -7M541 161l1 0M542 167l0 -6M542 167l1 1M543 173l0 -5"/>
<path stroke="red" d="M543 173l1 1M544 176l0 -2M544 176l1 1 1 0 0 -1 1 0 0 -4 1 0 0 -5 1 -1 0 -6 1 -1 0 -7 1 0 0 -7 1 -1 0 -5 1 -1 0 -5 1 0 0 -3 2 0M556 131l0 -1M556 131l1 0M557 135l0 -4M557 135l1 1M558 141l0 -5M558 141l1 0M559 148l0 -7M559 148l1 0"/>
<path stroke="red" d="M560 155l0 -7M560 155l1 1M561 164l0 -8M561 164l1 0M562 171l0 -7M562 171l1 0M563 176l0 -5M563 176l1 1M564 180l0 -3M564 180l1 0M565 181l0 -1M565 181l1 0 1 -1 0 -3 1 0 0 -5 1 -1 0 -6 1 0 0 -7 1 -1 0 -6 1 -1 0 -6 1 -1 0 -5 1 0"/>
<path stroke="red" d="M574 138l0 -3 1 0 0 -1 1 0M576 135l0 -1M576 135l1 0M577 138l0 -3M577 138l1 0M578 143l0 -5M578 143l1 1M579 150l0 -6M579 150l1 0M580 158l0 -8M580 158l1 0M581 165l0 -7M581 165l1 1M582 173l0 -7M582 173l1 1M583 179l0 -5M583 179l1 1"/>
<path stroke="red" d="M584 183l0 -3M584 183l1 0M585 185l0 -2M585 185l2 0 0 -3 1 0 0 -5 1 0 0 -6 1 -1 0 -6 1 -1 0 -7 1 -1 0 -6 1 -1 0 -5 1 0 0 -4 1 0 0 -2 1 0M596 138l0 -1M596 138l1 0M597 141l0 -3M597 141l1 0M598 145l0 -4M598 145l1 1M599 152l0 -6"/>
<path stroke="red" d="M599 152l1 0M600 160l0 -8M600 160l1 0M601 168l0 -8M601 168l1 0M602 175l0 -7M602 175l1 1M603 181l0 -5M603 181l1 1M604 186l0 -4M604 186l1 1M605 189l0 -2M605 189l2 0 0 -2 1 -1 0 -4 1 0 0 -6 1 0 0 -7 1 0 0 -8 1 -1 0 -6 1 -1"/>
<path stroke="red" d="M613 153l0 -5 1 0 0 -4 1 -1 0 -2 2 0M617 143l0 -2M617 143l1 1M618 147l0 -3M618 147l1 1M619 154l0 -6M619 154l1 1M620 162l0 -7M620 162l1 0M621 169l0 -7M621 169l1 1M622 177l0 -7M622 177l1 1M623 183l0 -5M623 183l1 1M624 189l0 -5"/>
<path stroke="red" d="M624 189l1 0M625 192l0 -3M625 192l2 0 0 -1 1 -1 0 -3 1 -1 0 -5 1 -1 0 -6 1 -1 0 -6 1 -1 0 -7 1 -1 0 -6 1 0 0 -4 1 -1 0 -2 1 0 0 -1 1 0M637 146l0 -2M637 146l1 0M638 150l0 -4M638 150l1 0M639 155l0 -5M639 155l1 1M640 162l0 -6"/>
<path stroke="red" d="M640 162l1 1M641 171l0 -8M641 171l1 1M642 178l0 -6M642 178l1 1M643 185l0 -6M643 185l1 1M644 191l0 -5M644 191l1 0M645 195l0 -4M645 195l1 0M646 196l0 -1M646 196l1 0 0 -2 1 0 0 -3 1 -1 0 -5 1 0 0 -6 1 -1 0 -7 1 0 0 -8 1 0 0 -6"/>
<path stroke="red" d="M653 157l1 -1 0 -4 1 -1 0 -3 1 0 0 -1 1 0M657 148l0 -1M657 148l1 0M658 152l0 -4M658 152l1 0M659 157l0 -5M659 157l1 0M660 164l0 -7M660 164l1 0M661 171l0 -7M661 171l1 1M662 180l0 -8M662 180l1 1M663 187l0 -6M663 187l1 1M664 193l0 -5"/>
<path stroke="red" d="M664 193l1 0M665 197l0 -4M665 197l1 0M666 199l0 -2M666 199l1 0 0 -1 1 0 0 -3 1 0 0 -5 1 -1 0 -6 1 -1 0 -6 1 -1 0 -7 1 0 0 -7 1 -1 0 -5 1 0 0 -4 1 0 0 -1 2 0M678 153l0 -3M678 153l1 1M679 158l0 -4M679 158l1 1M680 165l0 -6"/>
<path stroke="red" d="M680 165l1 1M681 173l0 -7M681 173l1 0M682 180l0 -7M682 180l1 1M683 188l0 -7M683 188l1 1M684 194l0 -5M684 194l1 1M685 199l0 -4M685 199l1 0M686 201l0 -2M686 201l2 0 0 -3 1 0 0 -4 1 0 0 -7 1 0 0 -7 1 -1 0 -6 1 -1 0 -6 1 -1"/>
<path stroke="red" d="M694 165l0 -6 1 0 0 -4 1 -1 0 -1 1 -1M697 153l0 -1M697 153l1 0M698 155l0 -2M698 155l1 1M699 160l0 -4M699 160l1 0M700 166l0 -6M700 166l1 1M701 174l0 -7M701 174l1 0M702 181l0 -7M702 181l1 1M703 189l0 -7M703 189l1 1M704 195l0 -5"/>
<path stroke="red" d="M704 195l1 1M705 201l0 -5M705 201l1 0M706 203l0 -2M706 203l1 1 1 0 0 -2 1 0 0 -4 1 -1 0 -5 1 -1 0 -6 1 -1 0 -7 1 -1 0 -7 1 0 0 -6 1 -1 0 -4 1 0 0 -3 2 0M718 157l0 -2M718 157l1 0M719 161l0 -4M719 161l1 0M720 167l0 -6M720 167l1 1"/>
<path stroke="red" d="M721 174l0 -6M721 174l1 1M722 182l0 -7M722 182l1 1M723 190l0 -7M723 190l1 0M724 196l0 -6M724 196l1 1M725 202l0 -5M725 202l1 0M726 205l0 -3M726 205l1 1 1 0 0 -1 1 0 0 -4 1 0 0 -6 1 0 0 -6 1 -1 0 -7 1 -1 0 -7 1 -1 0 -5 1 -1"/>
<path stroke="red" d="M735 166l0 -5 1 0 0 -3 1 0 0 -1 1 0M738 158l0 -1M738 158l1 1M739 162l0 -3M739 162l1 0M740 167l0 -5M740 167l1 1M741 175l0 -7M741 175l1 0M742 183l0 -8M742 183l1 0M743 190l0 -7M743 190l1 1M744 197l0 -6M744 197l1 1M745 203l0 -5"/>
<path stroke="red" d="M745 203l1 0M746 207l0 -4M746 207l1 0M747 208l0 -1M747 208l1 1 0 -1 1 -1 0 -3 1 0 0 -5 1 0 0 -6 1 -1 0 -8 1 0 0 -7 1 -1 0 -6 1 0 0 -5 1 -1 0 -3 1 -1 0 -1 1 0M758 160l0 -1M758 160l1 0M759 163l0 -3M759 163l1 0M760 168l0 -5"/>
<path stroke="red" d="M760 168l1 1M761 175l0 -6M761 175l1 1M762 183l0 -7M762 183l1 0M763 190l0 -7M763 190l1 1M764 198l0 -7M764 198l1 0M765 204l0 -6M765 204l1 1M766 208l0 -3M766 208l1 1M767 210l0 -1M767 210l1 0M768 211l0 -1 1 0 0 -3 1 0 0 -4 1 -1"/>
<path stroke="red" d="M771 202l0 -6 1 0 0 -8 1 0 0 -7 1 -1 0 -6 1 -1 0 -5 1 -1 0 -4 1 0 0 -2 1 0 1 1M779 164l0 -2M779 164l1 0M780 169l0 -5M780 169l1 0M781 175l0 -6M781 175l1 1M782 183l0 -7M782 183l1 0M783 191l0 -8M783 191l1 1M784 198l0 -6M784 198l1 1"/>
<path stroke="red" d="M785 205l0 -6M785 205l1 0M786 210l0 -5M786 210l1 0M787 212l0 -2M787 212l2 0 0 -2 1 0 0 -4 1 -1 0 -5 1 -1 0 -7 1 0 0 -8 1 -1 0 -6 1 -1 0 -5 1 -1 0 -4 1 0 0 -3 2 0M799 165l0 -2M799 165l1 0M800 169l0 -4M800 169l1 1M801 176l0 -6"/>
<path stroke="red" d="M801 176l1 0M802 183l0 -7M802 183l1 1M803 191l0 -7M803 191l1 0M804 198l0 -7M804 198l1 1M805 205l0 -6M805 205l1 1M806 210l0 -4M806 210l1 1M807 213l0 -2M807 213l1 1 1 0 0 -2 1 0 0 -3 1 -1 0 -5 1 -1 0 -7 1 0 0 -7 1 -1 0 -7"/>
<path stroke="red" d="M814 180l1 0 0 -6 1 -1 0 -4 1 -1 0 -3 2 0M819 166l0 -1M819 166l1 0M820 170l0 -4M820 170l1 0M821 176l0 -6M821 176l1 0M822 183l0 -7M822 183l1 1M823 191l0 -7M823 191l1 0M824 198l0 -7M824 198l1 1M825 205l0 -6M825 205l1 1M826 211l0 -5"/>
<path stroke="red" d="M826 211l1 1M827 215l0 -3M827 215l1 0M828 216l0 -1M828 216l1 0 0 -1 1 0 0 -4 1 0 0 -5 1 -1 0 -6 1 0 0 -8 1 -1 0 -6 1 -1 0 -6 1 -1 0 -5 1 0 0 -4 1 0 0 -1 1 0M839 167l0 -1M839 167l1 0M840 170l0 -3M840 170l1 1M841 176l0 -5"/>
<path stroke="red" d="M841 176l1 1M842 183l0 -6M842 183l1 0M843 190l0 -7M843 190l1 1M844 199l0 -8M844 199l1 0M845 206l0 -7M845 206l1 0M846 211l0 -5M846 211l1 1M847 216l0 -4M847 216l1 0M848 217l0 -1M848 217l2 0 0 -3 1 0 0 -6 1 0 0 -6 1 -1 0 -6"/>
<path stroke="red" d="M853 195l1 -1 0 -7 1 -1 0 -6 1 -1 0 -5 1 -1 0 -3 1 -1 0 -1 2 0M860 171l0 -3M860 171l1 0M861 176l0 -5M861 176l1 0M862 182l0 -6M862 182l1 1M863 190l0 -7M863 190l1 1M864 198l0 -7M864 198l1 1M865 205l0 -6M865 205l1 1M866 212l0 -6"/>
<path stroke="red" d="M866 212l1 0M867 216l0 -4M867 216l1 1M868 219l0 -2M868 219l1 0 1 -1 0 -2 1 0 0 -5 1 0 0 -6 1 0 0 -7 1 -1 0 -7 1 -1 0 -6 1 -1 0 -6 1 0 0 -4 1 0 0 -3 2 0M880 171l0 -2M880 171l1 1M881 176l0 -4M881 176l1 0M882 182l0 -6M882 182l1 1"/>
<path stroke="red" d="M883 190l0 -7M883 190l1 0M884 198l0 -8M884 198l1 1M885 205l0 -6M885 205l1 1M886 212l0 -6M886 212l1 0M887 217l0 -5M887 217l1 0M888 220l0 -3M888 220l2 0 0 -2 1 0 0 -4 1 -1 0 -5 1 -1 0 -6 1 -1 0 -7 1 0 0 -8 1 0 0 -6 1 -1 0 -4"/>
<path stroke="red" d="M897 174l1 0 0 -3 1 0 0 -1 1 0M900 172l0 -2M900 172l1 0M901 176l0 -4M901 176l1 0M902 182l0 -6M902 182l1 0M903 189l0 -7M903 189l1 0M904 197l0 -8M904 197l1 1M905 205l0 -7M905 205l1 0M906 212l0 -7M906 212l1 0M907 217l0 -5M907 217l1 0"/>
<path stroke="red" d="M908 221l0 -4M908 221l1 0M909 222l0 -1 1 0 0 -1 1 0 0 -4 1 0 0 -5 1 -1 0 -6 1 -1 0 -7 1 0 0 -8 1 -1 0 -6 1 0 0 -5 1 0 0 -3 1 -1 0 -1 1 0M920 173l0 -2M920 173l1 0M921 176l0 -3M921 176l1 1M922 181l0 -4M922 181l1 1M923 189l0 -7"/>
<path stroke="red" d="M923 189l1 1M924 197l0 -7M924 197l1 0M925 204l0 -7M925 204l1 1M926 211l0 -6M926 211l1 1M927 217l0 -5M927 217l1 0M928 221l0 -4M928 221l1 0M929 223l0 -2M929 223l1 0 0 -1 1 0 0 -4 1 0 0 -5 1 0 0 -6 1 -1 0 -7 1 0 0 -8 1 -1 0 -6"/>
<path stroke="red" d="M936 184l1 -1 0 -5 1 0 0 -4 1 0 0 -1 1 -1M940 173l0 -1M940 173l1 0M941 176l0 -3M941 176l1 1M942 181l0 -4M942 181l1 1M943 188l0 -6M943 188l1 1M944 195l0 -6M944 195l1 1M945 204l0 -8M945 204l1 0M946 211l0 -7M946 211l1 1M947 217l0 -5"/>
<path stroke="red" d="M947 217l1 1M948 221l0 -3M948 221l1 1M949 224l0 -2M949 224l1 0 0 -1 1 0 0 -2 1 -1 0 -4 1 -1 0 -6 1 0 0 -7 1 -1 0 -7 1 0 0 -8 1 0 0 -6 1 0 0 -4 1 0 0 -2 1 0 0 -1M960 174l1 0M961 176l0 -2M961 176l1 1M962 181l0 -4M962 181l1 0"/>
<path stroke="red" d="M963 187l0 -6M963 187l1 1M964 195l0 -7M964 195l1 1M965 199l0 -3"/>
<path stroke="blue" d="M75 23l44 0"/>
<text stroke="none" fill="white" font-size="16" x="129" y="32">
tran2.v(/out_sim0)
</text>
<path stroke="blue" d="M75 73l0 -1 3 0 0 -1 56 0 0 -1 64 0 1 -1 9 0M208 70l0 -1M208 70l5 0 0 -1 7 0M220 70l0 -1M220 70l4 0 0 -1 15 0M239 71l0 -2M239 71l1 0M240 73l0 -2M240 73l1 0M241 74l0 -1M241 74l2 0 0 -1 1 0 0 -2 1 0 0 -1 1 0 0 -1 12 0M258 71l0 -2"/>
<path stroke="blue" d="M258 71l1 1M259 75l0 -3M259 75l1 1M260 80l0 -4M260 80l1 0M261 83l0 -3M261 83l1 0M262 84l0 -1M262 84l1 0 0 -2 1 0 0 -3 1 -1 0 -3 1 -1 0 -3 1 0 0 -2 10 0M277 72l0 -3M277 72l1 0M278 77l0 -5M278 77l1 1M279 84l0 -6M279 84l1 0"/>
<path stroke="blue" d="M280 89l0 -5M280 89l1 1M281 94l0 -4M281 94l1 0M282 95l0 -1M282 95l1 0 0 -1 1 0 0 -4 1 0 0 -5 1 0 0 -6 1 -1 0 -5 1 0 0 -3 1 0 0 -1 7 0M296 72l0 -3M296 72l1 0M297 77l0 -5M297 77l1 1M298 85l0 -7M298 85l1 0M299 92l0 -7M299 92l1 1"/>
<path stroke="blue" d="M300 100l0 -7M300 100l1 0M301 104l0 -4M301 104l1 1M302 106l0 -1M302 106l1 1 0 -1 1 0 0 -4 1 0 0 -5 1 -1 0 -6 1 -1 0 -6 1 -1 0 -6 1 0 0 -4 1 0 0 -2 1 0 0 -1 3 0M314 70l0 -1M314 70l1 0M315 72l0 -2M315 72l1 1M316 77l0 -4M316 77l1 0"/>
<path stroke="blue" d="M317 84l0 -7M317 84l1 1M318 93l0 -8M318 93l1 1M319 102l0 -8M319 102l1 0M320 109l0 -7M320 109l1 1M321 115l0 -5M321 115l1 0M322 118l0 -3M322 118l1 0 1 -1 0 -2 1 -1 0 -5 1 0 0 -7 1 0 0 -8 1 0 0 -8 1 -1 0 -5 1 -1 0 -4 1 0 0 -2"/>
<path stroke="blue" d="M331 73l1 -1 2 0M334 74l0 -2M334 74l1 0M335 77l0 -3M335 77l1 1M336 83l0 -5M336 83l1 1M337 91l0 -7M337 91l1 1M338 101l0 -9M338 101l1 1M339 110l0 -8M339 110l1 1M340 118l0 -7M340 118l1 1M341 125l0 -6M341 125l1 0M342 128l0 -3"/>
<path stroke="blue" d="M342 128l1 0M343 129l0 -1M343 129l1 0 0 -2 1 -1 0 -4 1 -1 0 -6 1 -1 0 -8 1 -1 0 -7 1 -1 0 -8 1 0 0 -6 1 0 0 -4 1 0 0 -2 1 0 1 1M354 80l0 -2M354 80l1 0M355 84l0 -4M355 84l1 0M356 91l0 -7M356 91l1 0M357 99l0 -8M357 99l1 1"/>
<path stroke="blue" d="M358 108l0 -8M358 108l1 1M359 119l0 -10M359 119l1 1M360 127l0 -7M360 127l1 1M361 134l0 -6M361 134l1 0M362 138l0 -4M362 138l1 0M363 139l0 -1M363 139l1 0 0 -1 1 -1 0 -4 1 0 0 -7 1 0 0 -8 1 -1 0 -8 1 -1 0 -7 1 -1 0 -7 1 0"/>
<path stroke="blue" d="M371 93l0 -5 1 0 0 -3 1 0 0 -1M373 85l1 0M374 87l0 -2M374 87l1 0M375 91l0 -4M375 91l1 0M376 97l0 -6M376 97l1 1M377 106l0 -8M377 106l1 1M378 116l0 -9M378 116l1 1M379 126l0 -9M379 126l1 1M380 135l0 -8M380 135l1 1M381 142l0 -6"/>
<path stroke="blue" d="M381 142l1 1M382 147l0 -4M382 147l1 1M383 149l0 -1M383 149l1 0 0 -1 1 0 0 -4 1 0 0 -7 1 0 0 -8 1 -1 0 -8 1 -1 0 -8 1 0 0 -7 1 -1 0 -6 1 0 0 -4 1 0 0 -1 1 0M394 94l0 -2M394 94l1 0M395 98l0 -4M395 98l1 0M396 104l0 -6M396 104l1 1"/>
<path stroke="blue" d="M397 112l0 -7M397 112l1 1M398 123l0 -10M398 123l1 1M399 133l0 -9M399 133l1 1M400 142l0 -8M400 142l1 1M401 150l0 -7M401 150l1 0M402 156l0 -6M402 156l1 0M403 158l0 -2M403 158l2 0 0 -4 1 0 0 -6 1 -1 0 -7 1 0 0 -9 1 -1 0 -8"/>
<path stroke="blue" d="M409 122l1 -1 0 -8 1 0 0 -6 1 -1 0 -4 1 -1 0 -1 1 0M414 101l0 -1M414 101l1 0M415 104l0 -3M415 104l1 1M416 110l0 -5M416 110l1 1M417 119l0 -8M417 119l1 1M418 128l0 -8M418 128l1 1M419 138l0 -9M419 138l1 1M420 149l0 -10M420 149l1 1"/>
<path stroke="blue" d="M421 157l0 -7M421 157l1 1M422 163l0 -5M422 163l1 0M423 166l0 -3M423 166l1 1 1 -1 0 -2 1 -1 0 -5 1 0 0 -7 1 -1 0 -9 1 -1 0 -8 1 -1 0 -8 1 -1 0 -6 1 -1 0 -5 1 0 0 -2 1 -1M434 108l0 -1M434 108l1 0M435 111l0 -3M435 111l1 0"/>
<path stroke="blue" d="M436 117l0 -6M436 117l1 1M437 125l0 -7M437 125l1 1M438 134l0 -8M438 134l1 1M439 144l0 -9M439 144l1 1M440 155l0 -10M440 155l1 1M441 163l0 -7M441 163l1 1M442 170l0 -6M442 170l1 0M443 174l0 -4M443 174l1 0M444 175l0 -1M444 175l1 0"/>
<path stroke="blue" d="M445 175l0 -2 1 -1 0 -5 1 0 0 -7 1 -1 0 -8 1 -1 0 -8 1 -1 0 -9 1 -1 0 -7 1 0 0 -6 1 0 0 -3 1 0 0 -1M454 115l1 0M455 117l0 -2M455 117l1 0M456 122l0 -5M456 122l1 1M457 130l0 -7M457 130l1 0M458 139l0 -9M458 139l1 1M459 149l0 -9"/>
<path stroke="blue" d="M459 149l1 1M460 159l0 -9M460 159l1 1M461 169l0 -9M461 169l1 0M462 176l0 -7M462 176l1 1M463 181l0 -4M463 181l1 0M464 182l0 -1M464 182l1 0 0 -1 1 0 0 -5 1 -1 0 -6 1 -1 0 -8 1 0 0 -9 1 -1 0 -8 1 -1 0 -8 1 -1 0 -6 1 0 0 -4"/>
<path stroke="blue" d="M473 122l1 0 0 -1 1 0M475 123l0 -2M475 123l1 0M476 128l0 -5M476 128l1 0M477 135l0 -7M477 135l1 0M478 143l0 -8M478 143l1 1M479 154l0 -10M479 154l1 1M480 164l0 -9M480 164l1 1M481 174l0 -9M481 174l1 0M482 181l0 -7M482 181l1 1"/>
<path stroke="blue" d="M483 187l0 -5M483 187l1 0M484 189l0 -2M484 189l1 0 0 -1 1 0 0 -4 1 0 0 -6 1 -1 0 -7 1 -1 0 -10 1 -1 0 -8 1 -1 0 -8 1 -1 0 -6 1 0 0 -5 1 0 0 -2 1 0M495 128l0 -1M495 128l1 1M496 132l0 -3M496 132l1 1M497 139l0 -6M497 139l1 1"/>
<path stroke="blue" d="M498 148l0 -8M498 148l1 1M499 158l0 -9M499 158l1 1M500 168l0 -9M500 168l1 1M501 178l0 -9M501 178l1 1M502 187l0 -8M502 187l1 0M503 192l0 -5M503 192l1 1M504 195l0 -2M504 195l1 0M505 196l0 -1 1 0 0 -3 1 0 0 -7 1 0 0 -8 1 0"/>
<path stroke="blue" d="M509 177l0 -9 1 -1 0 -9 1 0 0 -9 1 -1 0 -7 1 0 0 -5 1 0 0 -3 1 0M515 134l0 -1M515 134l1 0M516 137l0 -3M516 137l1 1M517 143l0 -5M517 143l1 1M518 151l0 -7M518 151l1 1M519 162l0 -10M519 162l1 0M520 172l0 -10M520 172l1 1M521 182l0 -9"/>
<path stroke="blue" d="M521 182l1 0M522 191l0 -9M522 191l1 0M523 197l0 -6M523 197l1 1M524 201l0 -3M524 201l2 0 0 -3 1 0 0 -5 1 0 0 -8 1 -1 0 -8 1 -1 0 -9 1 -1 0 -9 1 -1 0 -7 1 0 0 -6 1 0 0 -3 1 0 0 -1M535 139l1 0M536 141l0 -2M536 141l1 1M537 147l0 -5"/>
<path stroke="blue" d="M537 147l1 1M538 155l0 -7M538 155l1 1M539 164l0 -8M539 164l1 1M540 175l0 -10M540 175l1 1M541 185l0 -9M541 185l1 1M542 194l0 -8M542 194l1 1M543 201l0 -6M543 201l1 1M544 206l0 -4M544 206l1 0M545 207l0 -1M545 207l1 0 0 -2"/>
<path stroke="blue" d="M546 205l1 0 0 -5 1 0 0 -7 1 -1 0 -9 1 -1 0 -9 1 -1 0 -8 1 -1 0 -8 1 0 0 -7 1 0 0 -3 1 -1 0 -1M555 144l1 0M556 145l0 -1M556 145l1 1M557 150l0 -4M557 150l1 1M558 158l0 -7M558 158l1 1M559 168l0 -9M559 168l1 0M560 177l0 -9"/>
<path stroke="blue" d="M560 177l1 1M561 188l0 -10M561 188l1 0M562 198l0 -10M562 198l1 0M563 205l0 -7M563 205l1 1M564 210l0 -4M564 210l1 0M565 212l0 -2M565 212l1 0 0 -2 1 0 0 -4 1 0 0 -7 1 0 0 -8 1 -1 0 -9 1 -1 0 -10 1 0 0 -8 1 -1 0 -6 1 -1 0 -4"/>
<path stroke="blue" d="M574 150l1 0 0 -2 1 0M576 150l0 -2M576 150l1 0M577 154l0 -4M577 154l1 0M578 161l0 -7M578 161l1 0M579 169l0 -8M579 169l1 1M580 180l0 -10M580 180l1 1M581 190l0 -9M581 190l1 1M582 200l0 -9M582 200l1 1M583 208l0 -7M583 208l1 1"/>
<path stroke="blue" d="M584 214l0 -5M584 214l1 0M585 216l0 -2M585 216l1 0M586 217l0 -1 1 0 0 -4 1 0 0 -6 1 -1 0 -8 1 -1 0 -9 1 -1 0 -9 1 0 0 -9 1 0 0 -8 1 0 0 -5 1 0 0 -2 1 0 0 -1M596 153l1 0M597 157l0 -4M597 157l1 0M598 163l0 -6M598 163l1 1"/>
<path stroke="blue" d="M599 172l0 -8M599 172l1 1M600 182l0 -9M600 182l1 1M601 192l0 -9M601 192l1 1M602 203l0 -10M602 203l1 0M603 211l0 -8M603 211l1 1M604 217l0 -5M604 217l1 0M605 220l0 -3M605 220l1 0M606 221l0 -1 1 0 0 -3 1 0 0 -5 1 -1 0 -7 1 -1"/>
<path stroke="blue" d="M610 203l0 -9 1 -1 0 -9 1 -1 0 -9 1 0 0 -8 1 0 0 -6 1 0 0 -3 1 0 0 -1M616 157l1 0M617 160l0 -3M617 160l1 0M618 166l0 -6M618 166l1 0M619 174l0 -8M619 174l1 1M620 183l0 -8M620 183l1 1M621 194l0 -10M621 194l1 1M622 204l0 -9"/>
<path stroke="blue" d="M622 204l1 1M623 213l0 -8M623 213l1 1M624 220l0 -6M624 220l1 0M625 224l0 -4M625 224l1 0M626 225l0 -1M626 225l1 0 0 -3 1 0 0 -5 1 -1 0 -7 1 0 0 -9 1 -1 0 -9 1 -1 0 -9 1 -1 0 -7 1 -1 0 -6 1 0 0 -4 1 0 0 -1 1 0M637 162l0 -2"/>
<path stroke="blue" d="M637 162l1 1M638 168l0 -5M638 168l1 0M639 175l0 -7M639 175l1 1M640 185l0 -9M640 185l1 1M641 195l0 -9M641 195l1 1M642 205l0 -9M642 205l1 1M643 214l0 -8M643 214l1 1M644 222l0 -7M644 222l1 1M645 227l0 -4M645 227l1 0M646 228l0 -1"/>
<path stroke="blue" d="M646 228l1 0 0 -1 1 0 0 -5 1 0 0 -7 1 -1 0 -8 1 -1 0 -10 1 0 0 -9 1 -1 0 -8 1 -1 0 -6 1 -1 0 -4 1 0 0 -1 1 0M657 165l0 -1M657 165l1 0M658 170l0 -5M658 170l1 0M659 177l0 -7M659 177l1 1M660 186l0 -8M660 186l1 1M661 196l0 -9"/>
<path stroke="blue" d="M661 196l1 1M662 207l0 -10M662 207l1 1M663 216l0 -8M663 216l1 1M664 224l0 -7M664 224l1 1M665 229l0 -4M665 229l1 1M666 232l0 -2M666 232l1 0 0 -1 1 0 0 -4 1 -1 0 -6 1 -1 0 -7 1 -1 0 -10 1 -1 0 -9 1 -1 0 -8 1 -1 0 -6 1 -1"/>
<path stroke="blue" d="M675 174l0 -5 1 0 0 -2 1 0M677 168l0 -1M677 168l1 0M678 171l0 -3M678 171l1 1M679 179l0 -7M679 179l1 0M680 187l0 -8M680 187l1 1M681 197l0 -9M681 197l1 1M682 208l0 -10M682 208l1 1M683 217l0 -8M683 217l1 1M684 226l0 -8M684 226l1 0"/>
<path stroke="blue" d="M685 231l0 -5M685 231l1 1M686 235l0 -3M686 235l1 0 0 -1 1 0 0 -3 1 0 0 -6 1 -1 0 -7 1 -1 0 -10 1 0 0 -10 1 0 0 -9 1 -1 0 -7 1 -1 0 -5 1 -1 0 -2 2 0M698 173l0 -3M698 173l1 1M699 180l0 -6M699 180l1 0M700 188l0 -8M700 188l1 1"/>
<path stroke="blue" d="M701 198l0 -9M701 198l1 1M702 208l0 -9M702 208l1 1M703 218l0 -9M703 218l1 1M704 227l0 -8M704 227l1 0M705 233l0 -6M705 233l1 1M706 237l0 -3M706 237l1 0M707 238l0 -1M707 238l1 0 0 -3 1 0 0 -6 1 0 0 -7 1 -1 0 -9 1 -1 0 -9"/>
<path stroke="blue" d="M712 202l1 -1 0 -9 1 -1 0 -7 1 -1 0 -6 1 -1 0 -3 1 0 0 -1 1 1M718 175l0 -2M718 175l1 0M719 181l0 -6M719 181l1 0M720 189l0 -8M720 189l1 0M721 198l0 -9M721 198l1 1M722 208l0 -9M722 208l1 1M723 218l0 -9M723 218l1 1M724 228l0 -9"/>
<path stroke="blue" d="M724 228l1 1M725 235l0 -6M725 235l1 0M726 239l0 -4M726 239l1 0M727 240l0 -1M727 240l1 0 0 -2 1 0 0 -5 1 0 0 -7 1 -1 0 -8 1 -1 0 -9 1 -1 0 -10 1 -1 0 -8 1 0 0 -6 1 -1 0 -4 1 0 0 -1 1 0M738 177l0 -2M738 177l1 0M739 181l0 -4"/>
<path stroke="blue" d="M739 181l1 1M740 189l0 -7M740 189l1 0M741 199l0 -10M741 199l1 0M742 209l0 -10M742 209l1 1M743 219l0 -9M743 219l1 1M744 228l0 -8M744 228l1 1M745 236l0 -7M745 236l1 0M746 241l0 -5M746 241l1 0M747 243l0 -2M747 243l1 0 0 -1"/>
<path stroke="blue" d="M748 242l1 -1 0 -4 1 0 0 -6 1 -1 0 -9 1 -1 0 -9 1 -1 0 -9 1 -1 0 -8 1 -1 0 -6 1 -1 0 -5 1 0 0 -2 1 0M758 178l0 -1M758 178l1 0M759 182l0 -4M759 182l1 1M760 190l0 -7M760 190l1 0M761 198l0 -8M761 198l1 1M762 208l0 -9M762 208l1 1"/>
<path stroke="blue" d="M763 219l0 -10M763 219l1 0M764 229l0 -10M764 229l1 1M765 237l0 -7M765 237l1 0M766 242l0 -5M766 242l1 1M767 245l0 -2M767 245l1 0 0 -1 1 0 0 -3 1 -1 0 -6 1 0 0 -8 1 -1 0 -9 1 -1 0 -10 1 -1 0 -8 1 -1 0 -7 1 -1 0 -5 1 0 0 -2"/>
<path stroke="blue" d="M777 180l1 -1M778 180l0 -1M778 180l1 0M779 183l0 -3M779 183l1 1M780 190l0 -6M780 190l1 0M781 198l0 -8M781 198l1 1M782 208l0 -9M782 208l1 1M783 219l0 -10M783 219l1 1M784 228l0 -8M784 228l1 1M785 237l0 -8M785 237l1 1M786 244l0 -6"/>
<path stroke="blue" d="M786 244l1 0M787 247l0 -3M787 247l2 0 0 -3 1 0 0 -6 1 0 0 -8 1 -1 0 -9 1 -1 0 -9 1 -1 0 -9 1 0 0 -9 1 0 0 -6 1 0 0 -3 1 0 0 -1 1 1M799 184l0 -2M799 184l1 1M800 190l0 -5M800 190l1 1M801 198l0 -7M801 198l1 1M802 208l0 -9"/>
<path stroke="blue" d="M802 208l1 0M803 219l0 -11M803 219l1 1M804 229l0 -9M804 229l1 0M805 237l0 -8M805 237l1 1M806 244l0 -6M806 244l1 0M807 248l0 -4M807 248l1 0M808 249l0 -1M808 249l1 0 0 -2 1 -1 0 -4 1 -1 0 -7 1 -1 0 -9 1 -1 0 -9 1 -1 0 -9"/>
<path stroke="blue" d="M814 204l1 0 0 -9 1 -1 0 -6 1 0 0 -4 1 0 0 -1 1 0M819 185l0 -2M819 185l1 1M820 190l0 -4M820 190l1 1M821 198l0 -7M821 198l1 1M822 208l0 -9M822 208l1 0M823 218l0 -10M823 218l1 1M824 228l0 -9M824 228l1 1M825 237l0 -8M825 237l1 1"/>
<path stroke="blue" d="M826 245l0 -7M826 245l1 0M827 249l0 -4M827 249l1 1M828 251l0 -1M828 251l1 0 0 -1 1 -1 0 -4 1 -1 0 -6 1 -1 0 -9 1 -1 0 -9 1 -1 0 -9 1 -1 0 -8 1 -1 0 -6 1 -1 0 -5 1 0 0 -1 1 0M839 186l0 -1M839 186l1 0M840 190l0 -4M840 190l1 1"/>
<path stroke="blue" d="M841 198l0 -7M841 198l1 1M842 207l0 -8M842 207l1 1M843 216l0 -8M843 216l1 1M844 228l0 -11M844 228l1 0M845 237l0 -9M845 237l1 1M846 245l0 -7M846 245l1 0M847 250l0 -5M847 250l1 0M848 253l0 -3M848 253l1 0 0 -1 1 -1 0 -3 1 -1"/>
<path stroke="blue" d="M851 247l0 -6 1 -1 0 -8 1 -1 0 -9 1 -1 0 -9 1 -1 0 -9 1 -1 0 -7 1 0 0 -5 1 0 0 -3 1 0M859 187l0 -1M859 187l1 0M860 191l0 -4M860 191l1 0M861 197l0 -6M861 197l1 1M862 206l0 -8M862 206l1 1M863 216l0 -9M863 216l1 1M864 226l0 -9"/>
<path stroke="blue" d="M864 226l1 1M865 236l0 -9M865 236l1 1M866 245l0 -8M866 245l1 0M867 251l0 -6M867 251l1 0M868 254l0 -3M868 254l2 0 0 -4 1 0 0 -6 1 -1 0 -7 1 -1 0 -9 1 -1 0 -9 1 -1 0 -10 1 0 0 -8 1 0 0 -6 1 0 0 -3 2 0M880 191l0 -3M880 191l1 1"/>
<path stroke="blue" d="M881 197l0 -5M881 197l1 1M882 205l0 -7M882 205l1 1M883 215l0 -9M883 215l1 0M884 226l0 -11M884 226l1 1M885 236l0 -9M885 236l1 0M886 244l0 -8M886 244l1 1M887 251l0 -6M887 251l1 0M888 255l0 -4M888 255l1 0M889 256l0 -1 1 0"/>
<path stroke="blue" d="M890 255l0 -2 1 -1 0 -5 1 -1 0 -7 1 -1 0 -8 1 -1 0 -9 1 -1 0 -10 1 -1 0 -8 1 0 0 -6 1 -1 0 -3 1 0 0 -1 1 0M900 191l0 -2M900 191l1 1M901 197l0 -5M901 197l1 0M902 204l0 -7M902 204l1 1M903 214l0 -9M903 214l1 1M904 224l0 -9"/>
<path stroke="blue" d="M904 224l1 1M905 235l0 -10M905 235l1 1M906 244l0 -8M906 244l1 1M907 251l0 -6M907 251l1 0M908 255l0 -4M908 255l1 1M909 257l0 -1M909 257l1 0 0 -2 1 0 0 -5 1 -1 0 -7 1 0 0 -9 1 -1 0 -9 1 -1 0 -10 1 -1 0 -8 1 0 0 -7 1 0 0 -4"/>
<path stroke="blue" d="M918 192l1 0 0 -2 1 0M920 192l0 -2M920 192l1 0M921 196l0 -4M921 196l1 1M922 204l0 -7M922 204l1 0M923 213l0 -9M923 213l1 0M924 223l0 -10M924 223l1 1M925 233l0 -9M925 233l1 1M926 243l0 -9M926 243l1 1M927 251l0 -7M927 251l1 1"/>
<path stroke="blue" d="M928 256l0 -4M928 256l1 0M929 258l0 -2M929 258l1 0 0 -1 1 0 0 -5 1 0 0 -6 1 -1 0 -9 1 -1 0 -9 1 -1 0 -9 1 -1 0 -8 1 -1 0 -7 1 -1 0 -4 1 -1 0 -2 1 0M940 192l0 -1M940 192l1 0M941 196l0 -4M941 196l1 1M942 203l0 -6M942 203l1 1"/>
<path stroke="blue" d="M943 212l0 -8M943 212l1 1M944 222l0 -9M944 222l1 1M945 233l0 -10M945 233l1 1M946 242l0 -8M946 242l1 1M947 250l0 -7M947 250l1 1M948 256l0 -5M948 256l1 0M949 259l0 -3M949 259l1 0 0 -1 1 0 0 -3 1 -1 0 -6 1 0 0 -8 1 -1 0 -9"/>
<path stroke="blue" d="M954 230l1 -1 0 -9 1 -1 0 -10 1 0 0 -8 1 0 0 -5 1 -1 0 -2 1 0 0 -1M960 193l1 0M961 196l0 -3M961 196l1 1M962 202l0 -5M962 202l1 1M963 210l0 -7M963 210l1 1M964 221l0 -10M964 221l1 0M965 226l0 -5"/>
<path stroke="#FFA500" d="M445 39l44 0"/>
<text stroke="none" fill="white" font-size="16" x="499" y="48">
tran3.v(/out_sim0)
</text>
<path stroke="#FFA500" d="M75 73l0 -1 3 0 0 -1 56 0 0 -1 64 0 1 -1 9 0M208 70l0 -1M208 70l5 0 0 -1 7 0M220 70l0 -1M220 70l4 0 0 -1 15 0M239 71l0 -2M239 71l1 0M240 73l0 -2M240 73l1 0M241 75l0 -2M241 75l2 0 0 -1 1 -1 0 -2 1 0 0 -1 1 0 0 -1 11 0"/>
<path stroke="#FFA500" d="M257 69l1 1M258 72l0 -2M258 72l1 0M259 77l0 -5M259 77l1 0M260 83l0 -6M260 83l1 1M261 87l0 -3M261 87l1 1 1 0 0 -2 1 0 0 -5 1 0 0 -5 1 -1 0 -4 1 0 0 -2 10 0M277 72l0 -3M277 72l1 1M278 79l0 -6M278 79l1 1M279 88l0 -8M279 88l1 1"/>
<path stroke="#FFA500" d="M280 96l0 -7M280 96l1 1M281 103l0 -6M281 103l1 0M282 105l0 -2M282 105l1 0 0 -2 1 0 0 -5 1 -1 0 -7 1 -1 0 -8 1 0 0 -7 1 0 0 -4 1 0 0 -1 7 0M296 72l0 -3M296 72l1 1M297 79l0 -6M297 79l1 1M298 90l0 -10M298 90l1 1M299 101l0 -10"/>
<path stroke="#FFA500" d="M299 101l1 1M300 112l0 -10M300 112l1 0M301 118l0 -6M301 118l1 1M302 122l0 -3M302 122l1 0 0 -1 1 -1 0 -4 1 -1 0 -8 1 -1 0 -9 1 0 0 -10 1 -1 0 -8 1 -1 0 -4 1 -1 0 -2 1 0 0 -1 3 0M314 70l0 -1M314 70l1 0M315 73l0 -3M315 73l1 0"/>
<path stroke="#FFA500" d="M316 79l0 -6M316 79l1 1M317 89l0 -9M317 89l1 1M318 101l0 -11M318 101l1 1M319 114l0 -12M319 114l1 1M320 126l0 -11M320 126l1 0M321 134l0 -8M321 134l1 0M322 138l0 -4M322 138l2 0 0 -5 1 0 0 -8 1 -1 0 -9 1 -1 0 -10 1 -2 0 -11"/>
<path stroke="#FFA500" d="M328 91l1 -1 0 -8 1 0 0 -6 1 0 0 -3 1 0 0 -1 2 0M334 74l0 -2M334 74l1 1M335 79l0 -4M335 79l1 1M336 88l0 -8M336 88l1 1M337 100l0 -11M337 100l1 1M338 113l0 -12M338 113l1 1M339 126l0 -12M339 126l1 1M340 138l0 -11M340 138l1 1"/>
<path stroke="#FFA500" d="M341 148l0 -9M341 148l1 1M342 153l0 -4M342 153l1 0M343 154l0 -1M343 154l1 0 0 -3 1 -1 0 -7 1 -1 0 -10 1 -1 0 -11 1 -1 0 -12 1 -1 0 -10 1 -1 0 -8 1 0 0 -5 1 -1 0 -2 2 0M354 82l0 -3M354 82l1 0M355 88l0 -6M355 88l1 1M356 97l0 -8"/>
<path stroke="#FFA500" d="M356 97l1 1M357 110l0 -12M357 110l1 1M358 125l0 -14M358 125l1 1M359 138l0 -12M359 138l1 2M360 151l0 -11M360 151l1 1M361 161l0 -9M361 161l1 1M362 167l0 -5M362 167l1 0M363 169l0 -2M363 169l1 0 0 -3 1 0 0 -6 1 -1 0 -9 1 -1"/>
<path stroke="#FFA500" d="M367 149l0 -13 1 0 0 -12 1 -1 0 -12 1 -1 0 -9 1 -1 0 -7 1 0 0 -4 1 0 0 -1 1 0M374 91l0 -3M374 91l1 1M375 98l0 -6M375 98l1 0M376 107l0 -9M376 107l1 1M377 120l0 -12M377 120l1 1M378 134l0 -13M378 134l1 1M379 148l0 -13M379 148l1 2"/>
<path stroke="#FFA500" d="M380 162l0 -12M380 162l1 1M381 173l0 -10M381 173l1 1M382 180l0 -6M382 180l1 1M383 183l0 -2M383 183l1 0 0 -2 1 0 0 -6 1 -1 0 -9 1 -1 0 -12 1 0 0 -12 1 -1 0 -13 1 -1 0 -10 1 -1 0 -8 1 -1 0 -5 1 0 0 -1 1 0M394 101l0 -2"/>
<path stroke="#FFA500" d="M394 101l1 0M395 106l0 -5M395 106l1 1M396 116l0 -9M396 116l1 1M397 128l0 -11M397 128l1 1M398 142l0 -13M398 142l1 2M399 158l0 -14M399 158l1 2M400 172l0 -12M400 172l1 1M401 183l0 -10M401 183l1 1M402 191l0 -7M402 191l1 1"/>
<path stroke="#FFA500" d="M403 195l0 -3M403 195l1 1 0 -1 1 -1 0 -5 1 0 0 -9 1 0 0 -12 1 -1 0 -12 1 -1 0 -13 1 -1 0 -12 1 -1 0 -9 1 0 0 -6 1 -1 0 -2 1 0M414 110l0 -1M414 110l1 1M415 115l0 -4M415 115l1 1M416 125l0 -9M416 125l1 1M417 137l0 -11M417 137l1 1"/>
<path stroke="#FFA500" d="M418 151l0 -13M418 151l1 1M419 165l0 -13M419 165l1 2M420 181l0 -14M420 181l1 1M421 193l0 -11M421 193l1 1M422 202l0 -8M422 202l1 0M423 207l0 -5M423 207l2 0 0 -5 1 0 0 -8 1 -1 0 -10 1 -1 0 -13 1 -1 0 -14 1 -1 0 -11 1 -2"/>
<path stroke="#FFA500" d="M431 140l0 -9 1 -1 0 -7 1 0 0 -4 1 0 1 1M435 124l0 -4M435 124l1 0M436 132l0 -8M436 132l1 1M437 144l0 -11M437 144l1 1M438 158l0 -13M438 158l1 1M439 173l0 -14M439 173l1 1M440 187l0 -13M440 187l1 2M441 201l0 -12M441 201l1 1"/>
<path stroke="#FFA500" d="M442 211l0 -9M442 211l1 1M443 217l0 -5M443 217l1 0M444 218l0 -1M444 218l1 0 0 -4 1 0 0 -7 1 -1 0 -10 1 -1 0 -13 1 -1 0 -13 1 -1 0 -13 1 -1 0 -10 1 -1 0 -8 1 -1 0 -4 1 0 0 -1 1 0M455 132l0 -4M455 132l1 0M456 140l0 -8"/>
<path stroke="#FFA500" d="M456 140l1 1M457 150l0 -9M457 150l1 1M458 165l0 -14M458 165l1 1M459 180l0 -14M459 180l1 1M460 194l0 -13M460 194l1 2M461 208l0 -12M461 208l1 1M462 219l0 -10M462 219l1 1M463 226l0 -6M463 226l1 0M464 228l0 -2M464 228l1 0"/>
<path stroke="#FFA500" d="M465 228l0 -2 1 -1 0 -7 1 -1 0 -9 1 -1 0 -12 1 -1 0 -14 1 -1 0 -13 1 -1 0 -11 1 -1 0 -8 1 -1 0 -6 1 0 0 -1 1 0M475 139l0 -2M475 139l1 1M476 146l0 -6M476 146l1 0M477 157l0 -11M477 157l1 0M478 170l0 -13M478 170l1 2M479 185l0 -13"/>
<path stroke="#FFA500" d="M479 185l1 2M480 200l0 -13M480 200l1 1M481 214l0 -13M481 214l1 1M482 225l0 -10M482 225l1 1M483 233l0 -7M483 233l1 1M484 237l0 -3M484 237l1 0 0 -2 1 0 0 -5 1 -1 0 -10 1 -1 0 -11 1 -1 0 -13 1 -2 0 -14 1 -1 0 -11 1 -1 0 -10"/>
<path stroke="#FFA500" d="M492 154l1 0 0 -7 1 0 0 -2 1 -1M495 146l0 -2M495 146l1 1M496 152l0 -5M496 152l1 1M497 162l0 -9M497 162l1 1M498 175l0 -12M498 175l1 1M499 190l0 -14M499 190l1 1M500 205l0 -14M500 205l1 1M501 219l0 -13M501 219l1 1M502 231l0 -11"/>
<path stroke="#FFA500" d="M502 231l1 1M503 240l0 -8M503 240l1 1M504 244l0 -3M504 244l1 1 0 -1 1 0 0 -5 1 0 0 -9 1 -1 0 -12 1 -1 0 -13 1 -1 0 -13 1 -1 0 -12 1 -1 0 -11 1 -1 0 -7 1 -1 0 -3 1 0 1 1M516 158l0 -5M516 158l1 0M517 167l0 -9M517 167l1 1"/>
<path stroke="#FFA500" d="M518 179l0 -11M518 179l1 1M519 193l0 -13M519 193l1 1M520 209l0 -15M520 209l1 2M521 224l0 -13M521 224l1 1M522 236l0 -11M522 236l1 1M523 246l0 -9M523 246l1 0M524 251l0 -5M524 251l1 1 1 0 0 -4 1 -1 0 -7 1 -1 0 -11 1 -1"/>
<path stroke="#FFA500" d="M529 227l0 -13 1 -2 0 -13 1 -1 0 -13 1 -1 0 -11 1 -1 0 -8 1 -1 0 -4 1 0 0 -1M535 159l1 0M536 163l0 -4M536 163l1 0M537 171l0 -8M537 171l1 1M538 183l0 -11M538 183l1 1M539 197l0 -13M539 197l1 1M540 212l0 -14M540 212l1 1"/>
<path stroke="#FFA500" d="M541 228l0 -15M541 228l1 1M542 241l0 -12M542 241l1 1M543 251l0 -9M543 251l1 1M544 257l0 -5M544 257l1 0M545 259l0 -2M545 259l1 0 0 -3 1 -1 0 -7 1 0 0 -11 1 -1 0 -12 1 -2 0 -13 1 -1 0 -13 1 -1 0 -13 1 -1 0 -8 1 -1 0 -5"/>
<path stroke="#FFA500" d="M554 166l1 0 0 -2M555 165l1 0M556 168l0 -3M556 168l1 0M557 175l0 -7M557 175l1 1M558 186l0 -10M558 186l1 1M559 199l0 -12M559 199l1 1M560 215l0 -15M560 215l1 2M561 230l0 -13M561 230l1 2M562 244l0 -12M562 244l1 1M563 255l0 -10"/>
<path stroke="#FFA500" d="M563 255l1 1M564 262l0 -6M564 262l1 1M565 265l0 -2M565 265l1 0 0 -2 1 0 0 -6 1 -1 0 -10 1 -1 0 -12 1 -1 0 -13 1 -2 0 -14 1 -1 0 -12 1 -1 0 -9 1 -1 0 -6 1 -1 0 -2 1 0M576 172l0 -2M576 172l1 0M577 178l0 -6M577 178l1 1"/>
<path stroke="#FFA500" d="M578 188l0 -9M578 188l1 1M579 202l0 -13M579 202l1 1M580 217l0 -14M580 217l1 1M581 232l0 -14M581 232l1 1M582 247l0 -14M582 247l1 1M583 258l0 -10M583 258l1 1M584 267l0 -8M584 267l1 0M585 270l0 -3M585 270l1 1 0 -2 1 0 0 -5"/>
<path stroke="#FFA500" d="M587 264l1 -1 0 -8 1 -1 0 -13 1 -1 0 -13 1 -1 0 -14 1 -1 0 -12 1 -1 0 -11 1 -1 0 -7 1 -1 0 -3 1 0M596 176l0 -1M596 176l1 0M597 182l0 -6M597 182l1 0M598 191l0 -9M598 191l1 1M599 203l0 -11M599 203l1 2M600 218l0 -13M600 218l1 1"/>
<path stroke="#FFA500" d="M601 233l0 -14M601 233l1 2M602 249l0 -14M602 249l1 1M603 261l0 -11M603 261l1 1M604 270l0 -8M604 270l1 1M605 275l0 -4M605 275l1 0M606 276l0 -1 1 0 0 -4 1 -1 0 -8 1 -1 0 -11 1 -1 0 -14 1 -1 0 -14 1 -1 0 -13 1 -1 0 -11"/>
<path stroke="#FFA500" d="M613 194l1 -1 0 -8 1 -1 0 -4 2 0M617 184l0 -4M617 184l1 1M618 193l0 -8M618 193l1 1M619 205l0 -11M619 205l1 2M620 219l0 -12M620 219l1 2M621 234l0 -13M621 234l1 2M622 250l0 -14M622 250l1 2M623 263l0 -11M623 263l1 1M624 273l0 -9"/>
<path stroke="#FFA500" d="M624 273l1 1M625 279l0 -5M625 279l1 0M626 280l0 -1M626 280l1 0 0 -3 1 -1 0 -7 1 -1 0 -11 1 -1 0 -13 1 -1 0 -14 1 -1 0 -13 1 -1 0 -13 1 -1 0 -8 1 -1 0 -5 1 0 0 -1 1 0M637 188l0 -4M637 188l1 0M638 195l0 -7M638 195l1 1"/>
<path stroke="#FFA500" d="M639 206l0 -10M639 206l1 1M640 220l0 -13M640 220l1 2M641 236l0 -14M641 236l1 1M642 250l0 -13M642 250l1 2M643 265l0 -13M643 265l1 1M644 275l0 -9M644 275l1 1M645 282l0 -6M645 282l1 1M646 284l0 -1M646 284l1 0 0 -2 1 -1"/>
<path stroke="#FFA500" d="M648 281l0 -6 1 -1 0 -9 1 -2 0 -13 1 -1 0 -14 1 -1 0 -13 1 -1 0 -12 1 -1 0 -10 1 -1 0 -6 1 0 0 -2 1 0M657 190l0 -2M657 190l1 0M658 197l0 -7M658 197l1 1M659 208l0 -10M659 208l1 1M660 221l0 -12M660 221l1 1M661 236l0 -14"/>
<path stroke="#FFA500" d="M661 236l1 1M662 252l0 -15M662 252l1 1M663 266l0 -13M663 266l1 1M664 277l0 -10M664 277l1 1M665 285l0 -7M665 285l1 0M666 288l0 -3M666 288l1 0 0 -1 1 -1 0 -5 1 -1 0 -10 1 -1 0 -12 1 -1 0 -13 1 -2 0 -13 1 -1 0 -13 1 -1"/>
<path stroke="#FFA500" d="M674 213l0 -11 1 -1 0 -6 1 -1 0 -3 1 0M677 192l0 -1M677 192l1 1M678 199l0 -6M678 199l1 0M679 208l0 -9M679 208l1 1M680 221l0 -12M680 221l1 1M681 236l0 -14M681 236l1 1M682 251l0 -14M682 251l1 2M683 266l0 -13M683 266l1 1"/>
<path stroke="#FFA500" d="M684 279l0 -12M684 279l1 0M685 287l0 -8M685 287l1 1M686 291l0 -3M686 291l1 0M687 292l0 -1 1 0 0 -5 1 -1 0 -9 1 -1 0 -11 1 -1 0 -13 1 -2 0 -14 1 -2 0 -12 1 -2 0 -10 1 -1 0 -8 1 0 0 -4 1 0 0 -1M697 195l1 0M698 200l0 -5"/>
<path stroke="#FFA500" d="M698 200l1 0M699 208l0 -8M699 208l1 1M700 220l0 -11M700 220l1 2M701 235l0 -13M701 235l1 2M702 250l0 -13M702 250l1 2M703 266l0 -14M703 266l1 2M704 279l0 -11M704 279l1 1M705 288l0 -8M705 288l1 1M706 294l0 -5M706 294l1 0"/>
<path stroke="#FFA500" d="M707 295l0 -1 1 0 0 -4 1 0 0 -8 1 -1 0 -11 1 -1 0 -14 1 -1 0 -14 1 -1 0 -13 1 -1 0 -11 1 -1 0 -9 1 -1 0 -5 1 0 0 -1 1 1M718 201l0 -3M718 201l1 1M719 209l0 -7M719 209l1 1M720 221l0 -11M720 221l1 1M721 235l0 -13M721 235l1 1"/>
<path stroke="#FFA500" d="M722 250l0 -14M722 250l1 1M723 265l0 -14M723 265l1 1M724 279l0 -13M724 279l1 1M725 289l0 -9M725 289l1 1M726 296l0 -6M726 296l1 0M727 298l0 -2M727 298l1 0 0 -4 1 0 0 -7 1 -1 0 -11 1 -1 0 -12 1 -2 0 -13 1 -2 0 -13 1 -1"/>
<path stroke="#FFA500" d="M734 231l0 -12 1 -1 0 -10 1 -1 0 -5 1 -1 0 -1 1 0M738 202l0 -2M738 202l1 1M739 210l0 -7M739 210l1 1M740 221l0 -10M740 221l1 1M741 234l0 -12M741 234l1 1M742 250l0 -15M742 250l1 1M743 265l0 -14M743 265l1 1M744 278l0 -12"/>
<path stroke="#FFA500" d="M744 278l1 2M745 289l0 -9M745 289l1 1M746 297l0 -7M746 297l1 1M747 300l0 -2M747 300l1 0 0 -2 1 0 0 -6 1 -1 0 -10 1 -1 0 -12 1 -1 0 -14 1 -1 0 -15 1 -1 0 -12 1 -1 0 -10 1 -1 0 -7 1 0 0 -3 1 0M758 204l0 -2M758 204l1 0"/>
<path stroke="#FFA500" d="M759 210l0 -6M759 210l1 1M760 220l0 -9M760 220l1 1M761 234l0 -13M761 234l1 0M762 248l0 -14M762 248l1 1M763 264l0 -15M763 264l1 2M764 278l0 -12M764 278l1 1M765 290l0 -11M765 290l1 1M766 298l0 -7M766 298l1 1M767 302l0 -3"/>
<path stroke="#FFA500" d="M767 302l1 0 0 -1 1 0 0 -5 1 -1 0 -9 1 -1 0 -12 1 -1 0 -13 1 -1 0 -15 1 -2 0 -12 1 -1 0 -11 1 -1 0 -7 1 -1 0 -3 1 -1M778 205l0 -1M778 205l1 0M779 210l0 -5M779 210l1 1M780 219l0 -8M780 219l1 1M781 233l0 -13M781 233l1 1"/>
<path stroke="#FFA500" d="M782 247l0 -13M782 247l1 2M783 262l0 -13M783 262l1 2M784 277l0 -13M784 277l1 1M785 289l0 -11M785 289l1 1M786 299l0 -9M786 299l1 1M787 304l0 -4M787 304l1 0M788 305l0 -1 1 0 0 -4 1 -1 0 -8 1 -1 0 -11 1 -1 0 -15 1 -1 0 -14"/>
<path stroke="#FFA500" d="M793 248l1 -1 0 -13 1 -1 0 -11 1 -1 0 -9 1 -1 0 -4 1 0 0 -1M798 207l1 0M799 210l0 -3M799 210l1 1M800 219l0 -8M800 219l1 1M801 231l0 -11M801 231l1 1M802 245l0 -13M802 245l1 1M803 260l0 -14M803 260l1 2M804 276l0 -14M804 276l1 1"/>
<path stroke="#FFA500" d="M805 289l0 -12M805 289l1 1M806 299l0 -9M806 299l1 1M807 305l0 -5M807 305l1 0M808 306l0 -1M808 306l1 0 0 -3 1 -1 0 -7 1 -1 0 -11 1 -1 0 -13 1 -1 0 -14 1 -1 0 -14 1 -1 0 -13 1 -1 0 -8 1 -1 0 -5 1 -1 0 -1 1 0M819 211l0 -3"/>
<path stroke="#FFA500" d="M819 211l1 0M820 219l0 -8M820 219l1 1M821 230l0 -10M821 230l1 1M822 243l0 -12M822 243l1 2M823 260l0 -15M823 260l1 1M824 274l0 -13M824 274l1 2M825 288l0 -12M825 288l1 1M826 299l0 -10M826 299l1 0M827 306l0 -7M827 306l1 0"/>
<path stroke="#FFA500" d="M828 308l0 -2M828 308l1 0 0 -2 1 -1 0 -6 1 -1 0 -11 1 -1 0 -12 1 -1 0 -14 1 -1 0 -14 1 -1 0 -13 1 -1 0 -10 1 -1 0 -6 1 0 0 -2 1 0M839 212l0 -2M839 212l1 0M840 218l0 -6M840 218l1 1M841 228l0 -9M841 228l1 2M842 242l0 -12"/>
<path stroke="#FFA500" d="M842 242l1 1M843 257l0 -14M843 257l1 2M844 272l0 -13M844 272l1 2M845 286l0 -12M845 286l1 2M846 298l0 -10M846 298l1 1M847 306l0 -7M847 306l1 1M848 310l0 -3M848 310l1 0 0 -2 1 0 0 -5 1 -1 0 -10 1 -1 0 -12 1 -1 0 -13 1 -2"/>
<path stroke="#FFA500" d="M854 263l0 -15 1 -1 0 -13 1 -1 0 -10 1 -1 0 -7 1 0 0 -4 1 0M859 212l0 -1M859 212l1 1M860 218l0 -5M860 218l1 0M861 227l0 -9M861 227l1 1M862 239l0 -11M862 239l1 2M863 254l0 -13M863 254l1 2M864 271l0 -15M864 271l1 1M865 285l0 -13"/>
<path stroke="#FFA500" d="M865 285l1 1M866 297l0 -11M866 297l1 1M867 306l0 -8M867 306l1 0M868 311l0 -5M868 311l1 0 0 -1 1 0 0 -5 1 0 0 -9 1 -1 0 -11 1 -2 0 -13 1 -1 0 -15 1 -1 0 -13 1 -1 0 -11 1 -1 0 -8 1 -1 0 -4 1 0 0 -1M879 213l1 0M880 217l0 -4"/>
<path stroke="#FFA500" d="M880 217l1 1M881 226l0 -8M881 226l1 1M882 238l0 -11M882 238l1 1M883 252l0 -13M883 252l1 2M884 268l0 -14M884 268l1 1M885 283l0 -14M885 283l1 2M886 296l0 -11M886 296l1 1M887 306l0 -9M887 306l1 0M888 311l0 -5M888 311l1 0"/>
<path stroke="#FFA500" d="M889 312l0 -1M889 312l1 0 0 -4 1 0 0 -8 1 -1 0 -11 1 -1 0 -14 1 -1 0 -14 1 -1 0 -13 1 -2 0 -11 1 -1 0 -10 1 0 0 -5 1 0 0 -2M899 214l1 0M900 217l0 -3M900 217l1 0M901 225l0 -8M901 225l1 1M902 237l0 -11M902 237l1 1M903 250l0 -12"/>
<path stroke="#FFA500" d="M903 250l1 1M904 265l0 -14M904 265l1 2M905 281l0 -14M905 281l1 2M906 295l0 -12M906 295l1 1M907 305l0 -9M907 305l1 1M908 311l0 -5M908 311l1 1M909 314l0 -2M909 314l1 -1 0 -2 1 -1 0 -7 1 -1 0 -10 1 -1 0 -12 1 -2 0 -15 1 -1"/>
<path stroke="#FFA500" d="M915 261l0 -13 1 -2 0 -12 1 -1 0 -9 1 -1 0 -6 1 -1 0 -1 1 0M920 217l0 -2M920 217l1 0M921 224l0 -7M921 224l1 0M922 235l0 -11M922 235l1 1M923 249l0 -13M923 249l1 1M924 264l0 -14M924 264l1 1M925 279l0 -14M925 279l1 1M926 292l0 -12"/>
<path stroke="#FFA500" d="M926 292l1 2M927 304l0 -10M927 304l1 0M928 312l0 -8M928 312l1 0M929 315l0 -3M929 315l1 0 0 -2 1 -1 0 -5 1 -1 0 -10 1 -1 0 -12 1 -2 0 -13 1 -1 0 -15 1 -2 0 -12 1 -1 0 -10 1 -1 0 -7 1 0 0 -3 1 0M940 217l0 -1M940 217l1 0"/>
<path stroke="#FFA500" d="M941 223l0 -6M941 223l1 0M942 232l0 -9M942 232l1 1M943 246l0 -13M943 246l1 1M944 260l0 -13M944 260l1 2M945 277l0 -15M945 277l1 1M946 291l0 -13M946 291l1 1M947 303l0 -11M947 303l1 1M948 311l0 -7M948 311l1 1M949 315l0 -3"/>
<path stroke="#FFA500" d="M949 315l1 0M950 316l0 -2 1 0 0 -5 1 -1 0 -9 1 -1 0 -11 1 -2 0 -13 1 -1 0 -14 1 -1 0 -14 1 -2 0 -10 1 -1 0 -8 1 0 0 -4 1 0 0 -1M960 217l1 0M961 222l0 -5M961 222l1 1M962 231l0 -8M962 231l1 1M963 243l0 -11M963 243l1 1"/>
<path stroke="#FFA500" d="M964 259l0 -15M964 259l1 1M965 267l0 -7"/>
<path stroke="green" d="M75 39l44 0"/>
<text stroke="none" fill="white" font-size="16" x="129" y="48">
tran4.v(/out_sim0)
</text>
<path stroke="green" d="M75 73l1 -1 2 0 0 -1 56 0 0 -1 64 0 1 -1 9 0M208 70l0 -1M208 70l5 0 0 -1 7 0M220 70l0 -1M220 70l4 0 0 -1 15 0M239 71l0 -2M239 71l1 0M240 74l0 -3M240 74l1 0M241 77l0 -3M241 77l2 0 0 -2 1 0 0 -3 1 0 0 -2 1 0 0 -1 12 0M258 72l0 -3"/>
<path stroke="green" d="M258 72l1 1M259 80l0 -7M259 80l1 1M260 90l0 -9M260 90l1 0M261 97l0 -7M261 97l1 0M262 99l0 -2M262 99l1 0 0 -4 1 0 0 -8 1 -1 0 -8 1 -1 0 -5 1 -1 0 -2 9 0 1 1M277 73l0 -3M277 73l1 1M278 83l0 -9M278 83l1 1M279 98l0 -14M279 98l1 2"/>
<path stroke="green" d="M280 115l0 -15M280 115l1 1M281 125l0 -9M281 125l1 1M282 129l0 -3M282 129l1 0 0 -3 1 -1 0 -9 1 -1 0 -14 1 -1 0 -14 1 -1 0 -10 1 0 0 -5 1 0 0 -1 6 0 1 1M296 73l0 -3M296 73l1 0M297 84l0 -11M297 84l1 1M298 102l0 -17M298 102l1 1"/>
<path stroke="green" d="M299 122l0 -19M299 122l1 2M300 140l0 -16M300 140l1 2M301 155l0 -13M301 155l1 0M302 160l0 -5M302 160l1 0M303 161l0 -3 1 0 0 -9 1 -1 0 -14 1 -2 0 -18 1 -1 0 -19 1 -1 0 -13 1 -1 0 -6 1 -1 0 -2 1 0 0 -1 3 0M314 70l0 -1M314 70l1 0"/>
<path stroke="green" d="M315 73l0 -3M315 73l1 0M316 82l0 -9M316 82l1 1M317 99l0 -16M317 99l1 1M318 123l0 -23M318 123l1 2M319 146l0 -21M319 146l1 2M320 167l0 -19M320 167l1 1M321 182l0 -14M321 182l1 1M322 190l0 -7M322 190l1 1 0 -1 1 -1 0 -8 1 -1"/>
<path stroke="green" d="M325 180l0 -14 1 -1 0 -19 1 -2 0 -20 1 -2 0 -20 1 -2 0 -14 1 -1 0 -8 1 0 0 -4 1 0 0 -1 2 0M334 75l0 -3M334 75l1 0M335 82l0 -7M335 82l1 1M336 95l0 -12M336 95l1 2M337 116l0 -19M337 116l1 2M338 143l0 -25M338 143l1 2M339 168l0 -23"/>
<path stroke="green" d="M339 168l1 2M340 190l0 -20M340 190l1 2M341 208l0 -16M341 208l1 1M342 218l0 -9M342 218l1 1M343 220l0 -1 1 0 0 -7 1 -1 0 -13 1 -2 0 -20 1 -2 0 -22 1 -1 0 -22 1 -2 0 -19 1 -1 0 -14 1 -1 0 -8 1 0 0 -4 1 0 1 1M354 85l0 -4M354 85l1 0"/>
<path stroke="green" d="M355 94l0 -9M355 94l1 1M356 112l0 -17M356 112l1 2M357 134l0 -20M357 134l1 2M358 160l0 -24M358 160l1 2M359 187l0 -25M359 187l1 2M360 213l0 -24M360 213l1 2M361 231l0 -16M361 231l1 2M362 243l0 -10M362 243l1 0M363 246l0 -3"/>
<path stroke="green" d="M363 246l1 0 0 -5 1 -1 0 -14 1 -1 0 -18 1 -2 0 -22 1 -2 0 -24 1 -2 0 -21 1 -2 0 -17 1 -2 0 -11 1 -1 0 -7 1 0 0 -1 1 0M374 97l0 -4M374 97l1 1M375 108l0 -10M375 108l1 1M376 125l0 -16M376 125l1 2M377 150l0 -23M377 150l1 2"/>
<path stroke="green" d="M378 176l0 -24M378 176l1 3M379 204l0 -25M379 204l1 2M380 229l0 -23M380 229l1 2M381 251l0 -20M381 251l1 2M382 264l0 -11M382 264l1 1M383 269l0 -4M383 269l1 1 0 -4 1 -1 0 -12 1 -2 0 -17 1 -2 0 -22 1 -2 0 -24 1 -2 0 -23 1 -2"/>
<path stroke="green" d="M390 157l0 -19 1 -2 0 -16 1 -1 0 -8 1 -1 0 -2 1 0M394 111l0 -3M394 111l1 1M395 122l0 -10M395 122l1 1M396 140l0 -17M396 140l1 2M397 163l0 -21M397 163l1 2M398 190l0 -25M398 190l1 2M399 217l0 -25M399 217l1 3M400 244l0 -24"/>
<path stroke="green" d="M400 244l1 2M401 268l0 -22M401 268l1 1M402 283l0 -14M402 283l1 1M403 290l0 -6M403 290l1 0 0 -2 1 0 0 -11 1 -2 0 -16 1 -2 0 -21 1 -3 0 -24 1 -2 0 -24 1 -2 0 -21 1 -2 0 -18 1 -2 0 -10 1 -1 0 -4 1 0M414 125l0 -2M414 125l1 0"/>
<path stroke="green" d="M415 135l0 -10M415 135l1 1M416 151l0 -15M416 151l1 2M417 173l0 -20M417 173l1 2M418 202l0 -27M418 202l1 3M419 230l0 -25M419 230l1 3M420 257l0 -24M420 257l1 3M421 281l0 -21M421 281l1 1M422 298l0 -16M422 298l1 1M423 307l0 -8"/>
<path stroke="green" d="M423 307l1 1 0 -1 1 0 0 -9 1 -1 0 -15 1 -2 0 -22 1 -3 0 -22 1 -3 0 -26 1 -3 0 -22 1 -2 0 -18 1 -2 0 -12 1 -1 0 -7 1 0M434 138l0 -2M434 138l1 0M435 146l0 -8M435 146l1 1M436 162l0 -15M436 162l1 0M437 183l0 -21M437 183l1 3"/>
<path stroke="green" d="M438 209l0 -23M438 209l1 3M439 238l0 -26M439 238l1 2M440 268l0 -28M440 268l1 2M441 292l0 -22M441 292l1 2M442 311l0 -17M442 311l1 1M443 322l0 -10M443 322l1 0M444 324l0 -2M444 324l1 -1 0 -6 1 -1 0 -15 1 -1 0 -20 1 -2 0 -24"/>
<path stroke="green" d="M448 254l1 -3 0 -25 1 -2 0 -26 1 -2 0 -20 1 -1 0 -15 1 -1 0 -8 1 0 0 -2 1 1M455 156l0 -6M455 156l1 1M456 170l0 -13M456 170l1 2M457 190l0 -18M457 190l1 3M458 218l0 -25M458 218l1 3M459 247l0 -26M459 247l1 2M460 275l0 -26"/>
<path stroke="green" d="M460 275l1 2M461 300l0 -23M461 300l1 3M462 321l0 -18M462 321l1 1M463 334l0 -12M463 334l1 1M464 338l0 -3M464 338l1 0 0 -5 1 -1 0 -12 1 -2 0 -21 1 -2 0 -22 1 -3 0 -25 1 -2 0 -27 1 -2 0 -21 1 -2 0 -16 1 -1 0 -10 1 -1 0 -3"/>
<path stroke="green" d="M474 160l1 0M475 165l0 -5M475 165l1 1M476 178l0 -12M476 178l1 1M477 197l0 -18M477 197l1 2M478 222l0 -23M478 222l1 3M479 251l0 -26M479 251l1 2M480 282l0 -29M480 282l1 2M481 308l0 -24M481 308l1 2M482 329l0 -19M482 329l1 2"/>
<path stroke="green" d="M483 344l0 -13M483 344l1 1M484 350l0 -5M484 350l1 0 0 -3 1 -1 0 -11 1 -2 0 -17 1 -2 0 -25 1 -2 0 -25 1 -3 0 -24 1 -3 0 -22 1 -2 0 -20 1 -1 0 -11 1 -1 0 -5 1 0M495 173l0 -3M495 173l1 1M496 185l0 -11M496 185l1 1M497 203l0 -17"/>
<path stroke="green" d="M497 203l1 2M498 228l0 -23M498 228l1 2M499 256l0 -26M499 256l1 2M500 285l0 -27M500 285l1 2M501 312l0 -25M501 312l1 2M502 337l0 -23M502 337l1 1M503 352l0 -14M503 352l1 1M504 360l0 -7M504 360l1 0M505 361l0 -2 1 -1 0 -9 1 -1"/>
<path stroke="green" d="M507 348l0 -18 1 -2 0 -22 1 -3 0 -25 1 -2 0 -25 1 -3 0 -25 1 -3 0 -18 1 -2 0 -13 1 -1 0 -6 1 -1M515 180l0 -1M515 180l1 1M516 190l0 -9M516 190l1 1M517 207l0 -16M517 207l1 2M518 229l0 -20M518 229l1 2M519 259l0 -28M519 259l1 2"/>
<path stroke="green" d="M520 288l0 -27M520 288l1 2M521 315l0 -25M521 315l1 3M522 339l0 -21M522 339l1 2M523 359l0 -18M523 359l1 1M524 368l0 -8M524 368l1 1M525 370l0 -1 1 0 0 -8 1 -1 0 -17 1 -2 0 -21 1 -2 0 -25 1 -3 0 -25 1 -3 0 -24 1 -2 0 -21"/>
<path stroke="green" d="M532 215l1 -2 0 -16 1 -1 0 -8 1 0 0 -1 1 1M536 194l0 -6M536 194l1 1M537 211l0 -16M537 211l1 1M538 233l0 -21M538 233l1 0M539 260l0 -27M539 260l1 3M540 289l0 -26M540 289l1 3M541 317l0 -25M541 317l1 3M542 343l0 -23M542 343l1 2"/>
<path stroke="green" d="M543 362l0 -17M543 362l1 2M544 375l0 -11M544 375l1 0M545 378l0 -3M545 378l1 -1 0 -6 1 -1 0 -13 1 -2 0 -22 1 -1 0 -26 1 -2 0 -26 1 -2 0 -25 1 -3 0 -21 1 -2 0 -17 1 -1 0 -11 1 0 0 -3 1 1M556 199l0 -5M556 199l1 1M557 212l0 -12"/>
<path stroke="green" d="M557 212l1 1M558 234l0 -21M558 234l1 2M559 259l0 -23M559 259l1 3M560 288l0 -26M560 288l1 2M561 319l0 -29M561 319l1 2M562 345l0 -24M562 345l1 2M563 366l0 -19M563 366l1 1M564 379l0 -12M564 379l1 1M565 385l0 -5M565 385l1 0"/>
<path stroke="green" d="M566 385l0 -5 1 -1 0 -12 1 -1 0 -20 1 -1 0 -25 1 -2 0 -26 1 -2 0 -26 1 -2 0 -25 1 -2 0 -18 1 -1 0 -12 1 0 0 -5 1 0M576 203l0 -4M576 203l1 1M577 215l0 -11M577 215l1 1M578 234l0 -18M578 234l1 2M579 259l0 -23M579 259l1 2"/>
<path stroke="green" d="M580 287l0 -26M580 287l1 2M581 318l0 -29M581 318l1 3M582 345l0 -24M582 345l1 2M583 367l0 -20M583 367l1 2M584 383l0 -14M584 383l1 1M585 390l0 -6M585 390l1 0 0 -2 1 -1 0 -10 1 -2 0 -17 1 -2 0 -23 1 -3 0 -25 1 -3 0 -28 1 -2"/>
<path stroke="green" d="M592 272l0 -24 1 -2 0 -19 1 -2 0 -13 1 -1 0 -6 1 -1M596 206l0 -2M596 206l1 1M597 216l0 -9M597 216l1 2M598 234l0 -16M598 234l1 1M599 259l0 -24M599 259l1 1M600 285l0 -25M600 285l1 3M601 317l0 -29M601 317l1 2M602 344l0 -25"/>
<path stroke="green" d="M602 344l1 3M603 368l0 -21M603 368l1 2M604 385l0 -15M604 385l1 1M605 395l0 -9M605 395l1 0M606 396l0 -2 1 0 0 -9 1 -1 0 -16 1 -2 0 -22 1 -3 0 -25 1 -2 0 -29 1 -2 0 -25 1 -2 0 -20 1 -2 0 -15 1 -1 0 -8 1 -1M616 210l0 -1M616 210l1 0"/>
<path stroke="green" d="M617 218l0 -8M617 218l1 1M618 233l0 -14M618 233l1 2M619 258l0 -23M619 258l1 2M620 285l0 -25M620 285l1 3M621 314l0 -26M621 314l1 3M622 342l0 -25M622 342l1 3M623 367l0 -22M623 367l1 2M624 386l0 -17M624 386l1 1M625 398l0 -11"/>
<path stroke="green" d="M625 398l1 0M626 400l0 -2M626 400l1 -1 0 -7 1 -1 0 -14 1 -2 0 -22 1 -2 0 -24 1 -3 0 -26 1 -3 0 -27 1 -2 0 -22 1 -2 0 -16 1 -1 0 -10 1 0 0 -3M636 213l1 0M637 219l0 -6M637 219l1 1M638 233l0 -13M638 233l1 2M639 254l0 -19"/>
<path stroke="green" d="M639 254l1 2M640 282l0 -26M640 282l1 3M641 311l0 -26M641 311l1 3M642 340l0 -26M642 340l1 2M643 365l0 -23M643 365l1 2M644 387l0 -20M644 387l1 2M645 400l0 -11M645 400l1 1M646 404l0 -3M646 404l1 0 0 -5 1 -1 0 -14 1 -2 0 -19"/>
<path stroke="green" d="M649 363l1 -1 0 -26 1 -2 0 -26 1 -3 0 -26 1 -2 0 -25 1 -2 0 -17 1 -2 0 -11 1 -1 0 -3 1 0M657 220l0 -4M657 220l1 1M658 233l0 -12M658 233l1 1M659 253l0 -19M659 253l1 2M660 279l0 -24M660 279l1 3M661 308l0 -26M661 308l1 2"/>
<path stroke="green" d="M662 337l0 -27M662 337l1 2M663 363l0 -24M663 363l1 3M664 387l0 -21M664 387l1 1M665 401l0 -13M665 401l1 1M666 407l0 -5M666 407l1 0 0 -3 1 -1 0 -12 1 -2 0 -18 1 -1 0 -24 1 -2 0 -28 1 -3 0 -26 1 -2 0 -24 1 -2 0 -19 1 -2 0 -12"/>
<path stroke="green" d="M675 226l1 -1 0 -6 1 0M677 221l0 -2M677 221l1 1M678 232l0 -10M678 232l1 1M679 250l0 -17M679 250l1 2M680 276l0 -24M680 276l1 1M681 304l0 -27M681 304l1 3M682 333l0 -26M682 333l1 3M683 361l0 -25M683 361l1 2M684 384l0 -21"/>
<path stroke="green" d="M684 384l1 2M685 402l0 -16M685 402l1 1M686 409l0 -6M686 409l1 1 0 -2 1 0 0 -10 1 -1 0 -18 1 -2 0 -21 1 -3 0 -27 1 -3 0 -26 1 -3 0 -24 1 -2 0 -21 1 -1 0 -16 1 -1 0 -7 1 0 0 -1M697 222l1 1M698 231l0 -8M698 231l1 1M699 249l0 -17"/>
<path stroke="green" d="M699 249l1 2M700 272l0 -21M700 272l1 1M701 300l0 -27M701 300l1 2M702 329l0 -27M702 329l1 2M703 357l0 -26M703 357l1 2M704 383l0 -24M704 383l1 2M705 401l0 -16M705 401l1 1M706 411l0 -9M706 411l1 0M707 412l0 -1M707 412l1 -1"/>
<path stroke="green" d="M708 411l0 -8 1 -1 0 -16 1 -2 0 -21 1 -2 0 -25 1 -2 0 -29 1 -3 0 -25 1 -2 0 -21 1 -2 0 -16 1 -1 0 -10 1 0 0 -2M717 224l1 0M718 231l0 -7M718 231l1 1M719 245l0 -13M719 245l1 2M720 267l0 -20M720 267l1 2M721 295l0 -26M721 295l1 3"/>
<path stroke="green" d="M722 324l0 -26M722 324l1 3M723 353l0 -26M723 353l1 2M724 380l0 -25M724 380l1 2M725 400l0 -18M725 400l1 1M726 411l0 -10M726 411l1 1M727 415l0 -3M727 414l1 0 0 -6 1 -1 0 -14 1 -2 0 -21 1 -1 0 -26 1 -2 0 -27 1 -2 0 -26 1 -2"/>
<path stroke="green" d="M734 284l0 -23 1 -2 0 -19 1 -1 0 -10 1 -1 0 -3 1 0M738 230l0 -5M738 230l1 1M739 244l0 -13M739 244l1 2M740 264l0 -18M740 264l1 3M741 290l0 -23M741 290l1 2M742 321l0 -29M742 321l1 2M743 350l0 -27M743 350l1 2M744 376l0 -24"/>
<path stroke="green" d="M744 376l1 2M745 397l0 -19M745 397l1 1M746 411l0 -13M746 411l1 1M747 416l0 -4M747 416l1 0 0 -4 1 -1 0 -12 1 -1 0 -21 1 -1 0 -25 1 -3 0 -26 1 -2 0 -26 1 -3 0 -23 1 -2 0 -19 1 -2 0 -13 1 -1 0 -4 1 0M758 230l0 -3M758 230l1 0"/>
<path stroke="green" d="M759 241l0 -11M759 241l1 1M760 261l0 -19M760 261l1 2M761 286l0 -23M761 286l1 1M762 315l0 -28M762 315l1 3M763 344l0 -26M763 344l1 3M764 371l0 -24M764 371l1 2M765 394l0 -21M765 394l1 2M766 411l0 -15M766 411l1 1M767 418l0 -6"/>
<path stroke="green" d="M767 418l1 0 0 -2 1 -1 0 -10 1 -2 0 -19 1 -1 0 -22 1 -3 0 -26 1 -2 0 -29 1 -3 0 -24 1 -2 0 -20 1 -1 0 -14 1 -1 0 -8 1 0M778 230l0 -2M778 230l1 0M779 239l0 -9M779 239l1 1M780 256l0 -16M780 256l1 2M781 281l0 -23M781 281l1 1"/>
<path stroke="green" d="M782 308l0 -26M782 308l1 3M783 340l0 -29M783 340l1 2M784 368l0 -26M784 368l1 2M785 391l0 -21M785 391l1 2M786 409l0 -16M786 409l1 1M787 418l0 -8M787 418l1 0M788 419l0 -1 1 0 0 -9 1 -1 0 -16 1 -2 0 -22 1 -3 0 -25 1 -2 0 -29"/>
<path stroke="green" d="M793 309l1 -3 0 -25 1 -2 0 -21 1 -2 0 -15 1 -1 0 -9 1 -1 0 -1M798 230l1 0M799 238l0 -8M799 238l1 1M800 253l0 -14M800 253l1 2M801 277l0 -22M801 277l1 2M802 303l0 -24M802 303l1 3M803 332l0 -26M803 332l1 3M804 363l0 -28M804 363l1 3"/>
<path stroke="green" d="M805 388l0 -22M805 388l1 2M806 407l0 -17M806 407l1 1M807 418l0 -10M807 418l1 0M808 420l0 -2M808 420l1 0 0 -7 1 -1 0 -15 1 -2 0 -21 1 -2 0 -24 1 -3 0 -29 1 -2 0 -26 1 -2 0 -22 1 -2 0 -17 1 -1 0 -10 1 -1 0 -3 1 1M819 236l0 -5"/>
<path stroke="green" d="M819 236l1 1M820 250l0 -13M820 250l1 2M821 271l0 -19M821 271l1 2M822 299l0 -26M822 299l1 3M823 328l0 -26M823 328l1 3M824 357l0 -26M824 357l1 2M825 383l0 -24M825 383l1 2M826 405l0 -20M826 405l1 1M827 417l0 -11M827 417l1 1"/>
<path stroke="green" d="M828 421l0 -3M828 421l1 0 0 -4 1 -1 0 -13 1 -1 0 -22 1 -1 0 -24 1 -3 0 -26 1 -3 0 -28 1 -2 0 -23 1 -2 0 -19 1 -1 0 -12 1 -1 0 -4 1 0M839 235l0 -4M839 235l1 1M840 247l0 -11M840 247l1 2M841 266l0 -17M841 266l1 3M842 293l0 -24"/>
<path stroke="green" d="M842 293l1 3M843 322l0 -26M843 322l1 2M844 351l0 -27M844 351l1 2M845 377l0 -24M845 377l1 3M846 401l0 -21M846 401l1 2M847 416l0 -13M847 416l1 1M848 422l0 -5M848 422l1 0 0 -3 1 0 0 -12 1 -2 0 -18 1 -1 0 -25 1 -2 0 -26 1 -3"/>
<path stroke="green" d="M854 330l0 -26 1 -3 0 -26 1 -2 0 -19 1 -2 0 -13 1 -1 0 -6 1 0M859 234l0 -2M859 234l1 0M860 245l0 -11M860 245l1 1M861 263l0 -17M861 263l1 2M862 287l0 -22M862 287l1 2M863 315l0 -26M863 315l1 2M864 346l0 -29M864 346l1 3M865 374l0 -25"/>
<path stroke="green" d="M865 374l1 2M866 397l0 -21M866 397l1 2M867 413l0 -14M867 413l1 2M868 422l0 -7M868 422l1 1 0 -2 1 0 0 -10 1 -1 0 -16 1 -2 0 -25 1 -2 0 -26 1 -2 0 -26 1 -3 0 -25 1 -2 0 -21 1 -2 0 -16 1 -1 0 -7 1 -1 0 -1M879 233l1 1M880 242l0 -8"/>
<path stroke="green" d="M880 242l1 1M881 259l0 -16M881 259l1 2M882 283l0 -22M882 283l1 0M883 310l0 -27M883 310l1 3M884 339l0 -26M884 339l1 3M885 367l0 -25M885 367l1 3M886 394l0 -24M886 394l1 2M887 412l0 -16M887 412l1 1M888 422l0 -9M888 422l1 0"/>
<path stroke="green" d="M889 424l0 -2M889 423l1 0 0 -7 1 -1 0 -17 1 -2 0 -22 1 -2 0 -25 1 -3 0 -26 1 -3 0 -25 1 -2 0 -24 1 -2 0 -16 1 -1 0 -10 1 0 0 -2 1 0M900 239l0 -6M900 239l1 1M901 255l0 -15M901 255l1 2M902 277l0 -20M902 277l1 2M903 304l0 -25"/>
<path stroke="green" d="M903 304l1 2M904 333l0 -27M904 333l1 2M905 361l0 -26M905 361l1 3M906 389l0 -25M906 389l1 2M907 409l0 -18M907 409l1 1M908 421l0 -11M908 421l1 0M909 424l0 -3M909 424l1 0 0 -6 1 -1 0 -14 1 -1 0 -21 1 -2 0 -25 1 -3 0 -26 1 -3"/>
<path stroke="green" d="M915 322l0 -25 1 -3 0 -23 1 -2 0 -19 1 -2 0 -10 1 -1 0 -4 1 1M920 238l0 -4M920 238l1 1M921 252l0 -13M921 252l1 1M922 272l0 -19M922 272l1 2M923 299l0 -25M923 299l1 2M924 327l0 -26M924 327l1 3M925 356l0 -26M925 356l1 3M926 382l0 -23"/>
<path stroke="green" d="M926 382l1 3M927 406l0 -21M927 406l1 1M928 419l0 -12M928 419l1 1M929 425l0 -5M929 425l1 0 0 -4 1 -1 0 -11 1 -2 0 -20 1 -1 0 -24 1 -2 0 -29 1 -2 0 -26 1 -3 0 -24 1 -2 0 -19 1 -1 0 -14 1 -1 0 -5 1 0M940 237l0 -3M940 237l1 0"/>
<path stroke="green" d="M941 248l0 -11M941 248l1 1M942 268l0 -19M942 268l1 2M943 293l0 -23M943 293l1 2M944 321l0 -26M944 321l1 2M945 350l0 -27M945 350l1 2M946 377l0 -25M946 377l1 2M947 402l0 -23M947 402l1 1M948 417l0 -14M948 417l1 1M949 425l0 -7"/>
<path stroke="green" d="M949 425l1 0 0 -2 1 0 0 -11 1 -2 0 -17 1 -2 0 -23 1 -3 0 -25 1 -3 0 -26 1 -3 0 -27 1 -2 0 -20 1 -2 0 -14 1 -1 0 -7 1 0M960 236l0 -2M960 236l1 0M961 245l0 -9M961 245l1 2M962 262l0 -15M962 262l1 2M963 287l0 -23M963 287l1 2"/>
<path stroke="green" d="M964 314l0 -25M964 314l1 2M965 330l0 -14"/>
<path stroke="#FFC0C5" d="M445 55l44 0"/>
<text stroke="none" fill="white" font-size="16" x="499" y="64">
tran5.v(/out_sim0)
</text>
<path stroke="#FFC0C5" d="M75 73l0 -1 3 0 0 -1 56 0 0 -1 64 0 1 -1 9 0M208 70l0 -1M208 70l5 0 0 -1 7 0M220 70l0 -1M220 70l4 0 0 -1 15 0M239 71l0 -2M239 71l1 0M240 75l0 -4M240 75l1 1M241 80l0 -4M241 80l1 1M242 82l0 -1 1 0 0 -4 1 -1 0 -4 1 0 0 -2"/>
<path stroke="#FFC0C5" d="M245 70l1 0 0 -1 11 0 1 1M258 73l0 -3M258 73l1 1M259 88l0 -14M259 88l1 2M260 123l0 -33M260 123l1 4M261 164l0 -37M261 164l1 3M262 179l0 -12M262 178l1 -1 0 -26 1 -4 0 -38 1 -3 0 -24 1 -1 0 -9 1 -1 0 -2 10 0M277 74l0 -5"/>
<path stroke="#FFC0C5" d="M277 74l1 1M278 96l0 -21M278 96l1 5M279 172l0 -71M279 172l1 11M280 315l0 -132M280 315l1 14M281 467l0 -138M281 467l1 8M282 509l0 -34M282 507l1 -3 0 -75 1 -12 0 -134 1 -13 0 -112 1 -8 0 -55 1 -3 0 -17 1 -1 0 -4 1 0 0 -1"/>
<path stroke="#FFC0C5" d="M289 69l7 0M296 72l0 -3M296 72l1 0M297 88l0 -16M297 88l1 4M298 159l0 -67M298 159l1 12M299 350l0 -179M299 350l1 24M300 643l0 -269M300 643l1 25M301 697l0 -29M301 697l2 0 0 -1 1 0 0 -75 1 -26 0 -249 1 -20 0 -154 1 -10 0 -65"/>
<path stroke="#FFC0C5" d="M307 97l1 -3 0 -19 1 -1 0 -4 1 0 0 -1 5 0M315 70l0 -1M315 70l1 0M316 76l0 -6M316 76l1 1M317 106l0 -29M317 106l1 6M318 224l0 -112M318 224l1 18M319 525l0 -283M319 525l1 33M320 697l0 -139M320 697l1 0M321 699l0 -2M321 699l3 0"/>
<path stroke="#FFC0C5" d="M324 699l0 -1 1 0 0 -68 1 -35 0 -278 1 -21 0 -147 1 -9 0 -51 1 -2 0 -14 1 0 0 -3 1 0 0 -1 3 0M334 70l0 -1M334 70l1 0M335 72l0 -2M335 72l1 0M336 81l0 -9M336 81l1 1M337 128l0 -46M337 128l1 8M338 293l0 -157M338 293l1 25"/>
<path stroke="#FFC0C5" d="M339 653l0 -335M339 653l1 39M340 698l0 -6M340 698l1 0M341 699l0 -1M341 699l1 0M342 700l0 -1M342 700l2 0 0 -1 1 0 0 -2 1 0 0 -163 1 -15 0 -273 1 -17 0 -109 1 -6 0 -34 1 -1 0 -7 1 0 0 -2 4 0M355 73l0 -3M355 73l1 0M356 84l0 -11"/>
<path stroke="#FFC0C5" d="M356 84l1 2M357 139l0 -53M357 139l1 10M358 325l0 -176M358 325l1 27M359 694l0 -342M359 694l1 1M360 699l0 -4M360 699l1 0M361 700l0 -1M361 700l4 0 0 -1 1 0 0 -3 1 -1 0 -313 1 -21 0 -188 1 -11 0 -68 1 -3 0 -15 1 -1 0 -3"/>
<path stroke="#FFC0C5" d="M371 72l1 0 0 -1 1 0 0 -1 1 0M374 71l0 -1M374 71l1 0M375 74l0 -3M375 74l1 0M376 86l0 -12M376 86l1 2M377 145l0 -57M377 145l1 10M378 339l0 -184M378 339l1 28M379 695l0 -328M379 695l1 1M380 699l0 -3M380 699l1 0M381 700l0 -1"/>
<path stroke="#FFC0C5" d="M381 700l2 0M383 701l0 -1 3 0 0 -2 1 0 0 -143 1 -13 0 -289 1 -18 0 -118 1 -5 0 -29 1 -2 0 -7 1 -1 0 -2 2 0M394 72l0 -1M394 72l1 0M395 75l0 -3M395 75l1 0M396 87l0 -12M396 87l1 2M397 144l0 -55M397 144l1 9M398 331l0 -178"/>
<path stroke="#FFC0C5" d="M398 331l1 27M399 695l0 -337M399 695l1 1M400 699l0 -3M400 699l1 0M401 700l0 -1M401 700l1 0M402 701l0 -1M402 701l3 0 0 -1 1 0 0 -1 1 0 0 -4 1 -1 0 -342 1 -26 0 -168 1 -9 0 -57 1 -2 0 -13 1 -1 0 -3 1 0 0 -1 2 0M415 75l0 -3"/>
<path stroke="#FFC0C5" d="M415 75l1 1M416 87l0 -11M416 87l1 2M417 138l0 -49M417 138l1 9M418 310l0 -163M418 310l1 26M419 694l0 -358M419 694l1 1M420 699l0 -4M420 699l1 0M421 700l0 -1M421 700l1 0M422 701l0 -1M422 701l3 0 0 -1 2 0 0 -2 1 -1 0 -233"/>
<path stroke="#FFC0C5" d="M428 464l1 -8 0 -257 1 -13 0 -79 1 -4 0 -22 1 -1 0 -6 1 0 0 -2 1 0M434 73l0 -1M434 73l1 0M435 75l0 -2M435 75l1 1M436 86l0 -10M436 86l1 1M437 133l0 -46M437 133l1 0M438 294l0 -161M438 294l1 25M439 655l0 -336M439 655l1 38"/>
<path stroke="#FFC0C5" d="M440 699l0 -6M440 699l1 0M441 700l0 -1M441 700l1 0M442 701l0 -1M442 701l4 0 0 -1 1 0 0 -1 1 -1 0 -61 1 -36 0 -334 1 -20 0 -118 1 -6 0 -35 1 -2 0 -10 1 0 0 -3 2 0M455 75l0 -2M455 75l1 1M456 84l0 -8M456 84l1 1M457 122l0 -37"/>
<path stroke="#FFC0C5" d="M457 122l1 2M458 248l0 -124M458 248l1 20M459 581l0 -313M459 581l1 32M460 698l0 -85M460 698l1 0M461 700l0 -2M461 700l1 0M462 701l0 -1M462 701l4 0 0 -1 1 0 0 -1 1 0 0 -3 1 -1 0 -338 1 -27 0 -169 1 -9 0 -57 1 -3 0 -13 1 -1"/>
<path stroke="#FFC0C5" d="M473 78l0 -4 2 0M475 75l0 -1M475 75l1 0M476 83l0 -8M476 83l1 1M477 113l0 -29M477 113l1 5M478 216l0 -98M478 216l1 16M479 537l0 -305M479 537l1 10M480 698l0 -151M480 698l1 0M481 700l0 -2M481 700l1 0M482 701l0 -1M482 701l4 0"/>
<path stroke="#FFC0C5" d="M486 701l0 -1 2 0 0 -3 1 0 0 -252 1 -18 0 -235 1 -13 0 -72 1 -4 0 -21 1 -1 0 -5 1 -1 0 -1 1 0M495 75l0 -1M495 75l1 0M496 81l0 -6M496 81l1 1M497 103l0 -21M497 103l1 4M498 199l0 -92M498 199l1 15M499 464l0 -250M499 464l1 36"/>
<path stroke="#FFC0C5" d="M500 697l0 -197M500 697l1 1M501 700l0 -2M501 700l1 0 1 1 4 0 0 -1 1 0 0 -2 1 0 0 -142 1 -5 0 -307 1 -17 0 -104 1 -5 0 -31 1 -1 0 -9 1 -1 0 -1 1 -1M515 75l0 -1M515 75l1 0M516 79l0 -4M516 79l1 1M517 99l0 -19M517 99l1 4"/>
<path stroke="#FFC0C5" d="M518 173l0 -70M518 173l1 1M519 374l0 -200M519 374l1 30M520 697l0 -293M520 697l1 0M521 699l0 -2M521 699l1 0M522 700l0 -1M522 700l1 0M523 701l0 -1M523 701l4 0 0 -1 1 0 0 -1 1 0 0 -10 1 -8 0 -379 1 -22 0 -137 1 -7 0 -43"/>
<path stroke="#FFC0C5" d="M532 93l1 -2 0 -13 1 0 0 -3 2 0M536 78l0 -3M536 78l1 1M537 92l0 -13M537 92l1 2M538 152l0 -58M538 152l1 2M539 334l0 -180M539 334l1 27M540 695l0 -334M540 695l1 0M541 699l0 -4M541 699l1 0M542 700l0 -1M542 700l1 0M543 701l0 -1"/>
<path stroke="#FFC0C5" d="M543 701l4 0 0 -1 1 0 0 -1 1 0 0 -3 1 0 0 -309 1 -29 0 -184 1 -11 0 -64 1 -3 0 -15 1 -1 0 -4 1 0 0 -1 1 0M556 78l0 -3M556 78l1 0M557 89l0 -11M557 89l1 1M558 129l0 -39M558 129l1 8M559 278l0 -141M559 278l1 23M560 647l0 -346"/>
<path stroke="#FFC0C5" d="M560 647l1 30M561 698l0 -21M561 698l1 1M562 700l0 -1M562 700l1 0M563 701l0 -1M563 701l5 0 0 -1 1 0 0 -2 1 -1 0 -218 1 -28 0 -253 1 -13 0 -75 1 -4 0 -22 1 -1 0 -6 1 0 0 -2 1 0M576 77l0 -2M576 77l1 0M577 85l0 -8M577 85l1 1"/>
<path stroke="#FFC0C5" d="M578 115l0 -29M578 115l1 5M579 232l0 -112M579 232l1 18M580 537l0 -287M580 537l1 24M581 698l0 -137M581 698l1 0M582 700l0 -2M582 700l1 0M583 701l0 -1M583 701l5 0 0 -1 1 0 0 -2 1 0 0 -138 1 -3 0 -304 1 -18 0 -114 1 -5 0 -29"/>
<path stroke="#FFC0C5" d="M593 87l1 -1 0 -8 1 -1 0 -2 1 0M596 77l0 -2M596 77l1 0M597 83l0 -6M597 83l1 1M598 106l0 -22M598 106l1 4M599 200l0 -90M599 200l1 1M600 466l0 -265M600 466l1 36M601 697l0 -195M601 697l1 0M602 700l0 -3M602 700l1 0 1 1 4 0"/>
<path stroke="#FFC0C5" d="M608 701l0 -1 1 0 0 -1 1 0 0 -17 1 -10 0 -363 1 -23 0 -148 1 -6 0 -40 1 -2 0 -11 1 0 0 -3 2 0M617 81l0 -5M617 81l1 1M618 98l0 -16M618 98l1 3M619 163l0 -62M619 163l1 8M620 363l0 -192M620 363l1 29M621 696l0 -304M621 696l1 0"/>
<path stroke="#FFC0C5" d="M622 699l0 -3M622 699l1 0M623 700l0 -1M623 700l1 0M624 701l0 -1M624 701l4 0 0 -1 1 0 0 -1 1 0 0 -3 1 0 0 -315 1 -28 0 -191 1 -9 0 -54 1 -2 0 -16 1 0 0 -5 2 0M637 79l0 -3M637 79l1 1M638 92l0 -12M638 92l1 2M639 140l0 -46"/>
<path stroke="#FFC0C5" d="M639 140l1 8M640 311l0 -163M640 311l1 25M641 694l0 -358M641 694l1 0M642 699l0 -5M642 699l1 0M643 700l0 -1M643 700l1 0M644 701l0 -1M644 701l5 0 0 -1 1 0 0 -3 1 0 0 -245 1 -23 0 -238 1 -12 0 -71 1 -3 0 -21 1 -1 0 -6 1 0"/>
<path stroke="#FFC0C5" d="M656 77l0 -1 1 0M657 78l0 -2M657 78l1 0M658 88l0 -10M658 88l1 1M659 124l0 -35M659 124l1 6M660 250l0 -120M660 250l1 20M661 610l0 -340M661 610l1 11M662 698l0 -77M662 698l1 1M663 700l0 -1M663 700l1 0M664 701l0 -1M664 701l5 0"/>
<path stroke="#FFC0C5" d="M669 701l0 -1 1 0 0 -2 1 0 0 -167 1 -12 0 -287 1 -16 0 -95 1 -5 0 -28 1 -2 0 -8 1 0 0 -2 1 0M677 77l0 -1M677 77l1 0M678 84l0 -7M678 84l1 1M679 110l0 -25M679 110l1 5M680 221l0 -106M680 221l1 0M681 489l0 -268M681 489l1 37"/>
<path stroke="#FFC0C5" d="M682 698l0 -172M682 698l1 0M683 700l0 -2M683 700l1 0M684 701l0 -1M684 701l5 0 0 -1 1 0 0 -1 1 -1 0 -51 1 -12 0 -350 1 -21 0 -126 1 -7 0 -38 1 -2 0 -12 1 0 0 -3 1 0M697 77l0 -1M697 77l1 0M698 82l0 -5M698 82l1 0M699 104l0 -22"/>
<path stroke="#FFC0C5" d="M699 104l1 3M700 181l0 -74M700 181l1 7M701 423l0 -235M701 423l1 33M702 697l0 -241M702 697l1 0M703 699l0 -2M703 699l1 1 1 0M705 701l0 -1M705 701l4 0 0 -1 1 0 0 -1 1 0 0 -3 1 -1 0 -344 1 -26 0 -164 1 -9 0 -55 1 -3 0 -13"/>
<path stroke="#FFC0C5" d="M715 81l1 -1 0 -4 2 0M718 80l0 -4M718 80l1 1M719 96l0 -15M719 96l1 2M720 153l0 -55M720 153l1 10M721 347l0 -184M721 347l1 28M722 695l0 -320M722 695l1 1M723 699l0 -3M723 699l1 0M724 700l0 -1M724 700l1 0M725 701l0 -1M725 701l4 0"/>
<path stroke="#FFC0C5" d="M729 701l2 -2 0 -2 1 -1 0 -260 1 -30 0 -224 1 -12 0 -65 1 -3 0 -19 1 -1 0 -5 1 0 0 -1 1 0M738 79l0 -3M738 79l1 0M739 90l0 -11M739 90l1 2M740 131l0 -39M740 131l1 7M741 283l0 -145M741 283l1 23M742 661l0 -355M742 661l1 19"/>
<path stroke="#FFC0C5" d="M743 699l0 -19M743 699l1 0M744 700l0 -1M744 700l1 0M745 701l0 -1M745 701l5 0 0 -1 1 0 0 -2 1 0 0 -179 1 -29 0 -273 1 -15 0 -86 1 -4 0 -26 1 -1 0 -7 1 0 0 -2 1 0M758 78l0 -2M758 78l1 0M759 86l0 -8M759 86l1 1M760 116l0 -29"/>
<path stroke="#FFC0C5" d="M760 116l1 5M761 239l0 -118M761 239l1 4M762 559l0 -316M762 559l1 39M763 698l0 -100M763 698l1 0M764 700l0 -2M764 700l1 0M765 701l0 -1M765 701l5 0 0 -1 1 0 0 -1 1 -1 0 -96 1 -3 0 -342 1 -18 0 -110 1 -6 0 -33 1 -2 0 -9"/>
<path stroke="#FFC0C5" d="M776 79l1 0 0 -3 1 0M778 77l0 -1M778 77l1 0M779 83l0 -6M779 83l1 1M780 106l0 -22M780 106l1 4M781 197l0 -87M781 197l1 5M782 445l0 -243M782 445l1 34M783 697l0 -218M783 697l1 1M784 700l0 -2M784 700l1 0 1 1 4 0 0 -1 1 0"/>
<path stroke="#FFC0C5" d="M791 700l0 -1 1 0 0 -5 1 -1 0 -359 1 -25 0 -162 1 -8 0 -44 1 -2 0 -13 1 0 0 -4 1 0M798 77l0 -1M798 77l1 0M799 81l0 -4M799 81l1 1M800 98l0 -16M800 98l1 3M801 160l0 -59M801 160l1 11M802 379l0 -208M802 379l1 30M803 696l0 -287"/>
<path stroke="#FFC0C5" d="M803 696l1 0M804 699l0 -3M804 699l1 0M805 700l0 -1M805 700l1 0M806 701l0 -1M806 701l4 0 0 -1 1 0 1 -1 0 -3 1 0 0 -293 1 -30 0 -204 1 -9 0 -58 1 -3 0 -17 1 0 0 -5 1 0 0 -1 1 0M819 79l0 -3M819 79l1 1M820 92l0 -12M820 92l1 2"/>
<path stroke="#FFC0C5" d="M821 139l0 -45M821 139l1 8M822 303l0 -156M822 303l1 24M823 694l0 -367M823 694l1 0M824 699l0 -5M824 699l1 0M825 700l0 -1M825 700l1 0M826 701l0 -1M826 701l5 0 0 -1 1 0 0 -2 1 -1 0 -220 1 -28 0 -237 1 -14 0 -87 1 -4 0 -22"/>
<path stroke="#FFC0C5" d="M836 85l1 -1 0 -6 1 -1 0 -1 1 0M839 78l0 -2M839 78l1 1M840 88l0 -9M840 88l1 1M841 123l0 -34M841 123l1 6M842 257l0 -128M842 257l1 10M843 592l0 -325M843 592l1 15M844 698l0 -91M844 698l1 0M845 700l0 -2M845 700l1 0M846 701l0 -1"/>
<path stroke="#FFC0C5" d="M846 701l5 0 0 -1 1 0 0 -2 1 0 0 -132 1 -9 0 -302 1 -18 0 -114 1 -6 0 -29 1 -1 0 -8 1 -1 0 -2 1 0M859 77l0 -1M859 77l1 1M860 84l0 -6M860 84l1 2M861 111l0 -25M861 111l1 4M862 216l0 -101M862 216l1 1M863 501l0 -284M863 501l1 38"/>
<path stroke="#FFC0C5" d="M864 698l0 -159M864 698l1 0M865 700l0 -2M865 700l1 0M866 701l0 -1M866 701l5 0 0 -1 1 0 0 -1 1 0 0 -26 1 -8 0 -370 1 -22 0 -131 1 -7 0 -41 1 -2 0 -12 1 -1 0 -3 1 0M879 77l0 -1M879 77l1 0M880 82l0 -5M880 82l1 0M881 100l0 -18"/>
<path stroke="#FFC0C5" d="M881 100l1 3M882 179l0 -76M882 179l1 12M883 386l0 -195M883 386l1 30M884 697l0 -281M884 697l1 0M885 699l0 -2M885 699l1 1 1 0M887 701l0 -1M887 701l4 0 0 -1 1 0 0 -1 1 0 0 -3 1 -1 0 -337 1 -26 0 -168 1 -9 0 -55 1 -3 0 -16"/>
<path stroke="#FFC0C5" d="M897 81l1 -1 0 -3 1 0 0 -1 1 0M900 80l0 -4M900 80l1 0M901 93l0 -13M901 93l1 3M902 152l0 -56M902 152l1 10M903 330l0 -168M903 330l1 26M904 695l0 -339M904 695l1 0M905 699l0 -4M905 699l1 0M906 700l0 -1M906 700l1 0M907 701l0 -1"/>
<path stroke="#FFC0C5" d="M907 701l5 0 0 -1 1 -1 0 -2 1 0 0 -271 1 -32 0 -205 1 -12 0 -69 1 -4 0 -20 1 -1 0 -6 1 0 0 -1 1 0M920 79l0 -3M920 79l1 0M921 89l0 -10M921 89l1 2M922 128l0 -37M922 128l1 6M923 273l0 -139M923 273l1 12M924 641l0 -356M924 641l1 13"/>
<path stroke="#FFC0C5" d="M925 699l0 -45M925 699l1 0M926 700l0 -1M926 700l1 0M927 701l0 -1M927 701l5 0 0 -1 1 0 0 -2 1 0 0 -175 1 -24 0 -264 1 -16 0 -102 1 -5 0 -25 1 -2 0 -7 1 0 0 -2 1 0M940 77l0 -1M940 77l1 1M941 86l0 -8M941 86l1 1M942 116l0 -29"/>
<path stroke="#FFC0C5" d="M942 116l1 5M943 230l0 -109M943 230l1 3M944 533l0 -300M944 533l1 39M945 698l0 -126M945 698l1 0M946 700l0 -2M946 700l1 0M947 701l0 -1M947 701l5 0 0 -1 1 0 0 -1 1 0 0 -72 1 -4 0 -349 1 -19 0 -120 1 -7 0 -36 1 -2 0 -11"/>
<path stroke="#FFC0C5" d="M958 79l1 0 0 -3 1 0M960 77l0 -1M960 77l1 0M961 82l0 -5M961 82l1 1M962 107l0 -24M962 107l1 4M963 191l0 -80M963 191l1 13M964 431l0 -227M964 431l1 33M965 663l0 -199"/>
</svg>
