<?xml version="1.0" standalone="yes"?>
<!DOCTYPE svg PUBLIC "-//W3C//DTD SVG 1.1//EN"
 "http://www.w3.org/Graphics/SVG/1.1/DTD/svg11.dtd">
<svg xmlns="http://www.w3.org/2000/svg" version="1.1"
  width="100%" height="100%" viewBox="0 0 1024 768"
  style="fill: none; font-family: Helvetica;
 font: Helvetica;
">

<!-- Creator: NGspice -->

<rect x="0" y="0" width="1024" height="768" fill="black" stroke="none"/>
<text stroke="none" fill="white" font-size="16" x="358" y="752">
time (s)
</text>
<text transform="rotate(-90, 20, 456)"  stroke="none" fill="white" font-size="16" x="20" y="456">
voltage (v)
</text>
<text stroke="none" fill="white" font-size="16" x="10" y="16">
tran5: r5 drive sweep
</text>
<path stroke="white" d="M75 704l0 -639"/>
<text stroke="none" fill="white" font-size="16" x="60" y="728">
0.0
</text>
<path stroke="white" stroke-dasharray="1,2" d="M164 704l0 -639"/>
<text stroke="none" fill="white" font-size="16" x="144" y="728">
10.0
</text>
<path stroke="white" stroke-dasharray="1,2" d="M253 704l0 -639"/>
<text stroke="none" fill="white" font-size="16" x="233" y="728">
20.0
</text>
<path stroke="white" stroke-dasharray="1,2" d="M342 704l0 -639"/>
<text stroke="none" fill="white" font-size="16" x="322" y="728">
30.0
</text>
<path stroke="white" stroke-dasharray="1,2" d="M431 704l0 -639"/>
<text stroke="none" fill="white" font-size="16" x="411" y="728">
40.0
</text>
<path stroke="white" stroke-dasharray="1,2" d="M520 704l0 -639"/>
<text stroke="none" fill="white" font-size="16" x="500" y="728">
50.0
</text>
<path stroke="white" stroke-dasharray="1,2" d="M609 704l0 -639"/>
<text stroke="none" fill="white" font-size="16" x="589" y="728">
60.0
</text>
<path stroke="white" stroke-dasharray="1,2" d="M698 704l0 -639"/>
<text stroke="none" fill="white" font-size="16" x="678" y="728">
70.0
</text>
<path stroke="white" stroke-dasharray="1,2" d="M787 704l0 -639"/>
<text stroke="none" fill="white" font-size="16" x="767" y="728">
80.0
</text>
<path stroke="white" stroke-dasharray="1,2" d="M876 704l0 -639"/>
<text stroke="none" fill="white" font-size="16" x="856" y="728">
90.0
</text>
<path stroke="white" stroke-dasharray="1,2" d="M965 704l0 -639"/>
<text stroke="none" fill="white" font-size="16" x="940" y="728">
100.0
</text>
<text stroke="none" fill="white" font-size="16" x="614" y="752">
ms
</text>
<path stroke="white" stroke-dasharray="1,2" d="M75 704l890 0"/>
<text stroke="none" fill="white" font-size="16" x="33" y="712">
-1.0
</text>
<path stroke="white" d="M75 633l890 0"/>
<text stroke="none" fill="white" font-size="16" x="43" y="641">
0.0
</text>
<path stroke="white" stroke-dasharray="1,2" d="M75 562l890 0"/>
<text stroke="none" fill="white" font-size="16" x="43" y="570">
1.0
</text>
<path stroke="white" stroke-dasharray="1,2" d="M75 491l890 0"/>
<text stroke="none" fill="white" font-size="16" x="43" y="499">
2.0
</text>
<path stroke="white" stroke-dasharray="1,2" d="M75 420l890 0"/>
<text stroke="none" fill="white" font-size="16" x="43" y="428">
3.0
</text>
<path stroke="white" stroke-dasharray="1,2" d="M75 349l890 0"/>
<text stroke="none" fill="white" font-size="16" x="43" y="357">
4.0
</text>
<path stroke="white" stroke-dasharray="1,2" d="M75 278l890 0"/>
<text stroke="none" fill="white" font-size="16" x="43" y="286">
5.0
</text>
<path stroke="white" stroke-dasharray="1,2" d="M75 207l890 0"/>
<text stroke="none" fill="white" font-size="16" x="43" y="215">
6.0
</text>
<path stroke="white" stroke-dasharray="1,2" d="M75 136l890 0"/>
<text stroke="none" fill="white" font-size="16" x="43" y="144">
7.0
</text>
<path stroke="white" stroke-dasharray="1,2" d="M75 65l890 0"/>
<text stroke="none" fill="white" font-size="16" x="43" y="73">
8.0
</text>
<text stroke="none" fill="white" font-size="16" x="10" y="32">
V
</text>
<path stroke="red" d="M445 23l44 0"/>
<text stroke="none" fill="white" font-size="16" x="499" y="32">
tran1.v(/out_sim1)
</text>
<path stroke="red" d="M75 169l0 -70M75 169l1 10M76 248l0 -69M76 248l1 5M77 284l0 -31M77 284l1 2M78 300l0 -14M78 300l1 1M79 308l0 -7M79 308l1 0M80 312l0 -4M80 312l1 0M81 314l0 -2M81 314l1 1M82 316l0 -1M82 316l1 1M83 318l0 -1M83 318l1 0M84 320l0 -2"/>
<path stroke="red" d="M84 320l1 0M85 322l0 -2M85 322l1 0M86 323l0 -1M86 323l1 0M87 325l0 -2M87 325l1 0M88 326l0 -1M88 326l1 0M89 328l0 -2M89 328l1 0M90 329l0 -1M90 329l1 0M91 331l0 -2M91 331l1 0M92 332l0 -1M92 332l1 0M93 334l0 -2M93 334l1 0M94 335l0 -1"/>
<path stroke="red" d="M94 335l1 0M95 337l0 -2M95 337l1 0M96 338l0 -1M96 338l1 0M97 340l0 -2M97 340l1 0M98 341l0 -1M98 341l1 0M99 343l0 -2M99 343l1 0M100 344l0 -1M100 344l1 0M101 345l0 -1M101 345l1 1M102 347l0 -1M102 347l1 0M103 348l0 -1M103 348l1 0"/>
<path stroke="red" d="M104 350l0 -2M104 350l1 0M105 351l0 -1M105 351l1 0M106 353l0 -2M106 353l1 0M107 354l0 -1M107 354l1 0M108 355l0 -1M108 355l1 1M109 357l0 -1M109 357l1 0M110 358l0 -1M110 358l1 0M111 360l0 -2M111 360l1 0M112 361l0 -1M112 361l1 0"/>
<path stroke="red" d="M113 362l0 -1M113 362l1 0M114 364l0 -2M114 364l1 0M115 365l0 -1M115 365l1 0M116 366l0 -1M116 366l1 0M117 368l0 -2M117 368l1 0M118 369l0 -1M118 369l1 0M119 370l0 -1M119 370l1 0M120 371l0 -1M120 371l1 0M121 373l0 -2M121 373l1 0"/>
<path stroke="red" d="M122 374l0 -1M122 374l1 0M123 375l0 -1M123 375l1 0M124 377l0 -2M124 377l1 0M125 378l0 -1M125 378l1 0M126 379l0 -1M126 379l1 0M127 380l0 -1M127 380l1 1M128 382l0 -1M128 382l1 0M129 383l0 -1M129 383l1 0M130 384l0 -1M130 384l1 0"/>
<path stroke="red" d="M131 385l0 -1M131 385l1 1M132 387l0 -1M132 387l1 0M133 388l0 -1M133 388l1 0M134 389l0 -1M134 389l1 0M135 390l0 -1M135 390l1 0M136 391l0 -1M136 391l1 0M137 393l0 -2M137 393l1 0M138 394l0 -1M138 394l1 0M139 395l0 -1M139 395l1 0"/>
<path stroke="red" d="M140 396l0 -1M140 396l1 0M141 397l0 -1M141 397l1 0M142 398l0 -1M142 398l1 1M143 400l0 -1M143 400l1 0M144 401l0 -1M144 401l1 0M145 402l0 -1M145 402l1 0M146 403l0 -1M146 403l1 0M147 404l0 -1M147 404l1 0M148 405l0 -1M148 405l1 0"/>
<path stroke="red" d="M149 406l0 -1M149 406l1 1M150 408l0 -1M150 408l1 0M151 409l0 -1M151 409l1 0M152 410l0 -1M152 410l1 0M153 411l0 -1M153 411l1 0M154 412l0 -1M154 412l1 0M155 413l0 -1M155 413l1 0M156 414l0 -1M156 414l1 0M157 415l0 -1M157 415l1 0"/>
<path stroke="red" d="M158 416l0 -1M158 416l1 0M159 417l0 -1M159 417l1 0M160 418l0 -1M160 418l1 0M161 419l0 -1M161 419l1 0M162 420l0 -1M162 420l1 0M163 421l0 -1M163 421l1 1M164 423l0 -1M164 423l1 0M165 424l0 -1M165 424l1 0M166 425l0 -1M166 425l1 0"/>
<path stroke="red" d="M167 426l0 -1M167 426l1 0M168 427l0 -1M168 427l1 0M169 428l0 -1M169 428l1 0M170 429l0 -1M170 429l1 0M171 430l0 -1M171 430l1 0M172 431l0 -1M172 431l1 0M173 432l0 -1M173 432l1 0M174 433l0 -1M174 433l1 0 2 2 1 0M178 436l0 -1"/>
<path stroke="red" d="M178 436l1 0M179 437l0 -1M179 437l1 0M180 438l0 -1M180 438l1 0M181 439l0 -1M181 439l1 0M182 440l0 -1M182 440l1 0M183 441l0 -1M183 441l1 0M184 442l0 -1M184 442l1 0M185 443l0 -1M185 443l1 0M186 444l0 -1M186 444l1 0M187 445l0 -1"/>
<path stroke="red" d="M187 445l1 0M188 446l0 -1M188 446l1 0M189 447l0 -1M189 447l1 0 1 1 1 0M192 449l0 -1M192 449l1 0M193 450l0 -1M193 450l1 0M194 451l0 -1M194 451l1 0M195 452l0 -1M195 452l1 0M196 453l0 -1M196 453l1 0M197 454l0 -1M197 454l2 0"/>
<path stroke="red" d="M199 455l0 -1M199 455l1 0M200 456l0 -1M200 456l1 0M201 457l0 -1M201 457l1 0M202 458l0 -1M202 458l1 0 1 1 1 0M205 460l0 -1M205 460l1 0M206 461l0 -1M206 461l1 0M207 462l0 -1M207 462l1 0M208 463l0 -1M208 463l2 0M210 464l0 -1"/>
<path stroke="red" d="M210 464l1 0M211 465l0 -1M211 465l1 0M212 466l0 -1M212 466l2 0M214 467l0 -1M214 467l1 0M215 468l0 -1M215 468l2 0M217 469l0 -1M217 469l1 0M218 470l0 -1M218 470l1 0 1 1 1 0M221 472l0 -1M221 472l7 0M228 473l0 -1M228 473l9 0"/>
<path stroke="red" d="M237 474l0 -1M237 474l4 0M241 475l0 -1M241 475l1 0 0 -1 5 0M247 475l0 -1M247 475l10 0M257 476l0 -1M257 476l2 0M259 477l0 -1M259 477l5 0 0 -1 6 0M270 477l0 -1M270 477l7 0M277 478l0 -1M277 478l1 0 1 1 5 0 1 -1 2 0 0 -1 1 0"/>
<path stroke="red" d="M288 478l0 -1M288 478l8 0M296 479l0 -1M296 479l1 0M297 480l0 -1M297 480l1 0 1 1 5 0 0 -1 2 0 0 -1 9 0M315 480l0 -1M315 480l1 0M316 481l0 -1M316 481l2 0M318 482l0 -1M318 482l1 0M319 483l0 -1M319 483l5 0 0 -1 2 0 0 -1 1 0"/>
<path stroke="red" d="M327 481l0 -1 7 0M334 481l0 -1M334 481l2 0M336 482l0 -1M336 482l1 0M337 483l0 -1M337 483l2 0M339 484l0 -1M339 484l2 0M341 485l0 -1M341 485l2 0 0 -1 2 0 0 -1 1 0 0 -1 2 0 0 -1 6 0 1 1 1 0M356 483l0 -1M356 483l1 0M357 484l0 -1"/>
<path stroke="red" d="M357 484l1 0 1 1 1 0M360 486l0 -1M360 486l3 0 0 -1 2 0 0 -1 2 0 0 -1 1 0 0 -1 2 0 0 -1 3 0M373 482l0 -1M373 482l2 0M375 483l0 -1M375 483l1 0M376 484l0 -1M376 484l1 0 1 1 1 0M379 486l0 -1M379 486l1 0 1 1 2 0 0 -1 2 0 0 -1"/>
<path stroke="red" d="M385 485l2 0 0 -1 1 0 0 -1 2 0 0 -1 4 0M394 483l0 -1M394 483l1 0 1 1 1 0M397 485l0 -1M397 485l1 0M398 486l0 -1M398 486l1 0M399 487l0 -1M399 487l2 0 1 1 1 0 0 -1 2 0 0 -1 1 0 1 -1 1 0 0 -1 1 0 0 -1 6 0M415 484l0 -1M415 484l1 0"/>
<path stroke="red" d="M416 485l0 -1M416 485l1 0 1 1 1 0M419 487l0 -1M419 487l1 0M420 488l0 -1M420 488l5 0 0 -1 1 0 0 -1 1 0 0 -1 2 0 0 -1 1 0 0 -1 4 0M434 484l0 -1M434 484l2 0M436 485l0 -1M436 485l1 0M437 486l0 -1M437 486l1 0M438 487l0 -1M438 487l2 0"/>
<path stroke="red" d="M440 488l0 -1M440 488l2 0M442 489l0 -1M442 489l2 0 0 -1 2 0 0 -1 1 0 0 -1 1 0 0 -1 1 0 0 -1 2 0 0 -1 3 0M454 484l0 -1M454 484l2 0M456 485l0 -1M456 485l1 0M457 486l0 -1M457 486l1 0M458 487l0 -1M458 487l1 0M459 488l0 -1M459 488l2 0"/>
<path stroke="red" d="M461 489l0 -1M461 489l4 0 0 -1 1 0 0 -1 1 0 1 -1 1 0 0 -1 1 0 0 -1 5 0 1 1 1 0M477 486l0 -1M477 486l1 0M478 487l0 -1M478 487l1 0M479 488l0 -1M479 488l2 0M481 489l0 -1M481 489l4 0 0 -1 2 0 0 -1 1 0 0 -1 1 0 0 -1 2 0 0 -1"/>
<path stroke="red" d="M491 484l4 0M495 485l0 -1M495 485l2 0M497 486l0 -1M497 486l1 0M498 487l0 -1M498 487l1 0M499 488l0 -1M499 488l2 0M501 489l0 -1M501 489l5 0 0 -1 1 0 0 -1 1 0 0 -1 2 0 0 -1 1 0 0 -1 4 0M515 485l0 -1M515 485l2 0M517 486l0 -1"/>
<path stroke="red" d="M517 486l1 0M518 487l0 -1M518 487l1 0M519 488l0 -1M519 488l2 0M521 489l0 -1M521 489l2 0M523 490l0 -1M523 490l1 0 0 -1 2 0 0 -1 2 0 0 -1 1 0 0 -1 1 0 0 -1 1 0 0 -1 5 0M536 485l0 -1M536 485l1 0M537 486l0 -1M537 486l1 0M538 487l0 -1"/>
<path stroke="red" d="M538 487l1 0M539 488l0 -1M539 488l2 0M541 489l0 -1M541 489l2 0M543 490l0 -1M543 490l2 0 0 -1 2 0 0 -1 1 0 0 -1 1 0 0 -1 1 0 0 -1 2 0 0 -1 4 0M556 485l0 -1M556 485l1 0M557 486l0 -1M557 486l1 0M558 487l0 -1M558 487l2 0M560 488l0 -1"/>
<path stroke="red" d="M560 488l1 0M561 489l0 -1M561 489l2 0M563 490l0 -1M563 490l2 0 0 -1 2 0 0 -1 1 0 0 -1 1 0 0 -1 1 0 0 -1 2 0 0 -1 4 0M576 485l0 -1M576 485l1 0 1 1 1 0M579 487l0 -1M579 487l1 0M580 488l0 -1M580 488l1 0M581 489l0 -1M581 489l2 0"/>
<path stroke="red" d="M583 490l0 -1M583 490l2 0 0 -1 2 0 0 -1 1 0 0 -1 1 0 0 -1 2 0 0 -1 1 0 0 -1 4 0M596 485l0 -1M596 485l2 0M598 486l0 -1M598 486l1 0M599 487l0 -1M599 487l1 0M600 488l0 -1M600 488l1 0M601 489l0 -1M601 489l2 0M603 490l0 -1M603 490l2 0"/>
<path stroke="red" d="M605 490l1 -1 1 0 0 -1 1 0 1 -1 1 0 0 -1 1 0 0 -1 1 0 0 -1 4 0 1 1 1 0M618 486l0 -1M618 486l1 0M619 487l0 -1M619 487l1 0M620 488l0 -1M620 488l1 0 1 1 1 0 1 1 1 0 1 -1 1 0 1 -1 1 0 0 -1 1 0 0 -1 1 0 0 -1 1 0 0 -1 5 0M637 485l0 -1"/>
<path stroke="red" d="M637 485l1 0M638 486l0 -1M638 486l1 0 1 1 1 0M641 488l0 -1M641 488l1 0M642 489l0 -1M642 489l2 0M644 490l0 -1M644 490l2 0 0 -1 2 0 0 -1 1 0 0 -1 1 0 0 -1 1 0 0 -1 2 0 0 -1 4 0M657 485l0 -1M657 485l2 0M659 486l0 -1M659 486l1 0"/>
<path stroke="red" d="M660 487l0 -1M660 487l1 0M661 488l0 -1M661 488l1 0M662 489l0 -1M662 489l2 0M664 490l0 -1M664 490l2 0 0 -1 2 0 0 -1 1 0 0 -1 1 0 0 -1 1 0 0 -1 2 0 0 -1 5 0M678 485l0 -1M678 485l1 0M679 486l0 -1M679 486l1 0M680 487l0 -1M680 487l1 0"/>
<path stroke="red" d="M681 488l0 -1M681 488l1 0 1 1 5 0 0 -1 1 0 0 -1 1 0 0 -1 1 0 0 -1 2 0 0 -1 5 0M698 485l0 -1M698 485l1 0M699 486l0 -1M699 486l1 0M700 487l0 -1M700 487l1 0 1 1 1 0M703 489l0 -1M703 489l5 0 0 -1 1 0 0 -1 1 0 1 -1 1 0 0 -1 1 0"/>
<path stroke="red" d="M713 485l0 -1 5 0M718 485l0 -1M718 485l2 0M720 486l0 -1M720 486l1 0M721 487l0 -1M721 487l1 0M722 488l0 -1M722 488l1 0M723 489l0 -1M723 489l5 0 0 -1 1 0 1 -1 1 0 0 -1 1 0 0 -1 1 0 0 -1 5 0 1 1 1 0M740 486l0 -1M740 486l1 0"/>
<path stroke="red" d="M741 487l0 -1M741 487l1 0M742 488l0 -1M742 488l1 0 1 1 4 0 0 -1 2 0 0 -1 1 0 0 -1 1 0 0 -1 1 0 0 -1 3 0 0 -1M756 484l3 0M759 485l0 -1M759 485l1 0M760 486l0 -1M760 486l1 0M761 487l0 -1M761 487l1 0M762 488l0 -1M762 488l2 0"/>
<path stroke="red" d="M764 489l0 -1M764 489l4 0 0 -1 2 0 0 -1 1 0 0 -1 1 0 0 -1 1 0 0 -1 2 0 1 -1 1 0M777 484l0 -1M777 484l2 0M779 485l0 -1M779 485l1 0 1 1 1 0M782 487l0 -1M782 487l1 0M783 488l0 -1M783 488l1 0M784 489l0 -1M784 489l4 0 1 -1 1 0"/>
<path stroke="red" d="M790 488l0 -1 1 0 0 -1 1 0 0 -1 1 0 0 -1 2 0 0 -1 2 0 1 1 2 0M800 485l0 -1M800 485l1 0M801 486l0 -1M801 486l1 0M802 487l0 -1M802 487l1 0M803 488l0 -1M803 488l2 0M805 489l0 -1M805 489l4 0 0 -1 1 0 0 -1 1 0 0 -1 1 0 0 -1 1 0"/>
<path stroke="red" d="M813 485l1 -1 1 0 0 -1 3 0M818 484l0 -1M818 484l2 0M820 485l0 -1M820 485l1 0M821 486l0 -1M821 486l1 0M822 487l0 -1M822 487l1 0M823 488l0 -1M823 488l2 0M825 489l0 -1M825 489l4 0 0 -1 1 0 0 -1 1 0 0 -1 1 0 1 -1 1 0 0 -1 1 0"/>
<path stroke="red" d="M835 484l0 -1 3 0M838 484l0 -1M838 484l2 0M840 485l0 -1M840 485l1 0M841 486l0 -1M841 486l1 0 1 1 1 0M844 488l0 -1M844 488l1 0M845 489l0 -1M845 489l4 0 0 -1 1 0 0 -1 1 0 0 -1 2 0 0 -1 1 0 0 -1 1 0 1 -1 3 0M859 484l0 -1M859 484l1 0"/>
<path stroke="red" d="M860 484l1 1 1 0M862 486l0 -1M862 486l1 0M863 487l0 -1M863 487l1 0M864 488l0 -1M864 488l2 0M866 489l0 -1M866 489l3 0 0 -1 1 0 0 -1 2 0 0 -1 1 0 0 -1 1 0 0 -1 2 0 0 -1 3 0M879 484l0 -1M879 484l2 0M881 485l0 -1M881 485l1 0"/>
<path stroke="red" d="M882 486l0 -1M882 486l1 0M883 487l0 -1M883 487l1 0M884 488l0 -1M884 488l2 0M886 489l0 -1M886 489l3 0 0 -1 2 0 0 -1 1 0 0 -1 1 0 0 -1 1 0 0 -1 2 0 0 -1 3 0 1 1 1 0M901 485l0 -1M901 485l1 0M902 486l0 -1M902 486l1 0M903 487l0 -1"/>
<path stroke="red" d="M903 487l2 0M905 488l0 -1M905 488l1 0 1 1 2 0 0 -1 2 0 0 -1 1 0 0 -1 1 0 0 -1 1 0 0 -1 2 0 0 -1 4 0M920 484l0 -1M920 484l1 0M921 485l0 -1M921 485l2 0M923 486l0 -1M923 486l1 0M924 487l0 -1M924 487l1 0M925 488l0 -1M925 488l2 0"/>
<path stroke="red" d="M927 489l0 -1M927 489l2 0 0 -1 2 0 0 -1 1 0 0 -1 1 0 0 -1 1 0 1 -1 1 0 0 -1 4 0M940 484l0 -1M940 484l2 0M942 485l0 -1M942 485l1 0M943 486l0 -1M943 486l1 0M944 487l0 -1M944 487l1 0M945 488l0 -1M945 488l2 0M947 489l0 -1M947 489l2 0"/>
<path stroke="red" d="M949 489l0 -1 2 0 0 -1 1 0 0 -1 1 0 0 -1 2 0 0 -1 1 0 0 -1 4 0 1 1 1 0M962 485l0 -1M962 485l1 0M963 486l0 -1M963 486l1 0M964 487l0 -1M964 487l1 0"/>
<path stroke="blue" d="M75 23l44 0"/>
<text stroke="none" fill="white" font-size="16" x="129" y="32">
tran2.v(/out_sim1)
</text>
<path stroke="blue" d="M75 168l0 -69M75 168l1 10M76 248l0 -70M76 248l1 5M77 283l0 -30M77 283l1 2M78 300l0 -15M78 300l1 1M79 308l0 -7M79 308l1 0M80 312l0 -4M80 312l1 0M81 314l0 -2M81 314l1 1M82 317l0 -2M82 317l1 0M83 318l0 -1M83 318l1 0M84 320l0 -2"/>
<path stroke="blue" d="M84 320l1 0M85 322l0 -2M85 322l1 0M86 323l0 -1M86 323l1 0M87 325l0 -2M87 325l1 0M88 326l0 -1M88 326l1 0M89 328l0 -2M89 328l1 0M90 329l0 -1M90 329l1 0M91 331l0 -2M91 331l1 0M92 332l0 -1M92 332l1 0M93 334l0 -2M93 334l1 0"/>
<path stroke="blue" d="M94 335l0 -1M94 335l1 0M95 337l0 -2M95 337l1 0M96 338l0 -1M96 338l1 0M97 340l0 -2M97 340l1 0M98 341l0 -1M98 341l1 0M99 343l0 -2M99 343l1 0M100 344l0 -1M100 344l1 0M101 345l0 -1M101 345l1 1M102 347l0 -1M102 347l1 0M103 348l0 -1"/>
<path stroke="blue" d="M103 348l1 1M104 350l0 -1M104 350l1 0M105 351l0 -1M105 351l1 0M106 353l0 -2M106 353l1 0M107 354l0 -1M107 354l1 0M108 355l0 -1M108 355l1 1M109 357l0 -1M109 357l1 0M110 358l0 -1M110 358l1 0M111 360l0 -2M111 360l1 0M112 361l0 -1"/>
<path stroke="blue" d="M112 361l1 0M113 362l0 -1M113 362l1 0M114 364l0 -2M114 364l1 0M115 365l0 -1M115 365l1 0M116 366l0 -1M116 366l1 0M117 368l0 -2M117 368l1 0M118 369l0 -1M118 369l1 0M119 370l0 -1M119 370l1 0M120 371l0 -1M120 371l1 1M121 373l0 -1"/>
<path stroke="blue" d="M121 373l1 0M122 374l0 -1M122 374l1 0M123 375l0 -1M123 375l1 0M124 377l0 -2M124 377l1 0M125 378l0 -1M125 378l1 0M126 379l0 -1M126 379l1 0M127 380l0 -1M127 380l1 1M128 382l0 -1M128 382l1 0M129 383l0 -1M129 383l1 0M130 384l0 -1"/>
<path stroke="blue" d="M130 384l1 0M131 385l0 -1M131 385l1 1M132 387l0 -1M132 387l1 0M133 388l0 -1M133 388l1 0M134 389l0 -1M134 389l1 0M135 390l0 -1M135 390l1 0M136 391l0 -1M136 391l1 0M137 393l0 -2M137 393l1 0M138 394l0 -1M138 394l1 0M139 395l0 -1"/>
<path stroke="blue" d="M139 395l1 0M140 396l0 -1M140 396l1 0M141 397l0 -1M141 397l1 0M142 398l0 -1M142 398l1 1M143 400l0 -1M143 400l1 0M144 401l0 -1M144 401l1 0M145 402l0 -1M145 402l1 0M146 403l0 -1M146 403l1 0M147 404l0 -1M147 404l1 0M148 405l0 -1"/>
<path stroke="blue" d="M148 405l1 0M149 406l0 -1M149 406l1 1M150 408l0 -1M150 408l1 0M151 409l0 -1M151 409l1 0M152 410l0 -1M152 410l1 0M153 411l0 -1M153 411l1 0M154 412l0 -1M154 412l1 0M155 413l0 -1M155 413l1 0M156 414l0 -1M156 414l1 0M157 415l0 -1"/>
<path stroke="blue" d="M157 415l1 0M158 416l0 -1M158 416l1 0M159 417l0 -1M159 417l1 0M160 418l0 -1M160 418l1 0M161 419l0 -1M161 419l1 0M162 420l0 -1M162 420l1 0M163 421l0 -1M163 421l1 1M164 423l0 -1M164 423l1 0M165 424l0 -1M165 424l1 0M166 425l0 -1"/>
<path stroke="blue" d="M166 425l1 0M167 426l0 -1M167 426l1 0M168 427l0 -1M168 427l1 0M169 428l0 -1M169 428l1 0M170 429l0 -1M170 429l1 0M171 430l0 -1M171 430l1 0M172 431l0 -1M172 431l1 0M173 432l0 -1M173 432l1 0M174 433l0 -1M174 433l1 0M175 434l0 -1"/>
<path stroke="blue" d="M175 434l1 0 1 1 1 0M178 436l0 -1M178 436l1 0M179 437l0 -1M179 437l1 0M180 438l0 -1M180 438l1 0M181 439l0 -1M181 439l1 0M182 440l0 -1M182 440l1 0M183 441l0 -1M183 441l1 0M184 442l0 -1M184 442l1 0M185 443l0 -1M185 443l1 0"/>
<path stroke="blue" d="M186 444l0 -1M186 444l1 0M187 445l0 -1M187 445l1 0M188 446l0 -1M188 446l1 0M189 447l0 -1M189 447l1 0 1 1 1 0M192 449l0 -1M192 449l1 0M193 450l0 -1M193 450l1 0M194 451l0 -1M194 451l1 0M195 452l0 -1M195 452l1 0M196 453l0 -1"/>
<path stroke="blue" d="M196 453l1 0M197 454l0 -1M197 454l2 0M199 455l0 -1M199 455l1 0M200 456l0 -1M200 456l1 0M201 457l0 -1M201 457l1 0M202 458l0 -1M202 458l1 0 1 1 1 0M205 460l0 -1M205 460l1 0M206 461l0 -1M206 461l1 0M207 462l0 -1M207 462l1 0"/>
<path stroke="blue" d="M208 463l0 -1M208 463l2 0M210 464l0 -1M210 464l1 0M211 465l0 -1M211 465l1 0M212 466l0 -1M212 466l2 0M214 467l0 -1M214 467l1 0M215 468l0 -1M215 468l2 0M217 469l0 -1M217 469l1 0M218 470l0 -1M218 470l1 0 1 1 1 0M221 472l0 -1"/>
<path stroke="blue" d="M221 472l7 0M228 473l0 -1M228 473l9 0M237 474l0 -1M237 474l4 0M241 475l0 -1M241 475l2 0 0 -1 4 0M247 475l0 -1M247 475l10 0M257 476l0 -1M257 476l2 0M259 477l0 -1M259 477l5 0 0 -1 6 0M270 477l0 -1M270 477l7 0M277 478l0 -1"/>
<path stroke="blue" d="M277 478l1 0M278 479l0 -1M278 479l1 0 1 1 3 0 0 -1 2 0 0 -1 2 0 0 -1 2 0M289 478l0 -1M289 478l7 0M296 479l0 -1M296 479l1 0M297 480l0 -1M297 480l1 0M298 481l0 -1M298 481l1 0M299 482l0 -1M299 482l5 0 0 -1 1 0 0 -1 1 0 0 -1"/>
<path stroke="blue" d="M306 479l2 0 0 -1 2 0M310 479l0 -1M310 479l5 0M315 480l0 -1M315 480l1 0M316 481l0 -1M316 481l1 0M317 482l0 -1M317 482l1 0M318 483l0 -1M318 483l1 0M319 484l0 -1M319 484l4 0 1 -1 1 0 0 -1 1 0 0 -1 1 0 0 -1 2 0 0 -1 2 0M331 480l0 -1"/>
<path stroke="blue" d="M331 480l3 0 1 1 1 0M336 482l0 -1M336 482l1 0M337 483l0 -1M337 483l1 0M338 484l0 -1M338 484l1 0M339 485l0 -1M339 485l1 0M340 486l0 -1M340 486l3 0 0 -1 1 0 1 -1 1 0 0 -1 1 0 0 -1 1 0 0 -1 2 0 0 -1 2 0M352 481l0 -1M352 481l2 0"/>
<path stroke="blue" d="M354 482l0 -1M354 482l2 0M356 483l0 -1M356 483l1 0M357 484l0 -1M357 484l1 0M358 485l0 -1M358 485l1 0M359 486l0 -1M359 486l1 0M360 487l0 -1M360 487l4 0 0 -1 1 0 0 -1 1 0 0 -1 1 0 0 -1 1 0 0 -1 2 0 0 -1 3 0M373 482l0 -1M373 482l2 0"/>
<path stroke="blue" d="M375 483l0 -1M375 483l1 0M376 484l0 -1M376 484l1 0M377 485l0 -1M377 485l1 0M378 486l0 -1M378 486l1 0M379 487l0 -1M379 487l1 0M380 488l0 -1M380 488l4 0 0 -1 1 0 0 -1 1 0 0 -1 1 0 0 -1 1 0 0 -1 2 0 0 -1 4 0M394 483l0 -1M394 483l1 0"/>
<path stroke="blue" d="M395 484l0 -1M395 484l1 0M396 485l0 -1M396 485l1 0M397 486l0 -1M397 486l1 0M398 487l0 -1M398 487l1 0M399 488l0 -1M399 488l1 0M400 489l0 -1M400 489l4 0 0 -1 1 0 0 -1 1 0 0 -1 1 0 0 -1 1 0 0 -1 1 0 0 -1 2 0 0 -1 2 0M413 483l0 -1"/>
<path stroke="blue" d="M413 483l2 0M415 484l0 -1M415 484l1 0M416 485l0 -1M416 485l1 0M417 486l0 -1M417 486l1 0M418 487l0 -1M418 487l1 0M419 488l0 -1M419 488l1 0M420 489l0 -1M420 489l1 0M421 490l0 -1M421 490l3 0 0 -1 1 0 0 -1 1 0 0 -1 1 0 0 -1"/>
<path stroke="blue" d="M427 486l1 0 0 -1 1 0 0 -1 1 0 0 -1 4 0M434 484l0 -1M434 484l2 0M436 485l0 -1M436 485l1 0M437 486l0 -1M437 486l1 1M438 488l0 -1M438 488l1 0M439 489l0 -1M439 489l1 0M440 490l0 -1M440 490l5 0 0 -1 1 0 0 -1 1 0 0 -1 1 0 0 -1"/>
<path stroke="blue" d="M448 486l1 0 0 -1 1 0 0 -1 1 0 0 -1 3 0M454 484l0 -1M454 484l1 0M455 485l0 -1M455 485l1 0 1 1M457 487l0 -1M457 487l1 0M458 488l0 -1M458 488l1 0M459 489l0 -1M459 489l1 0M460 490l0 -1M460 490l2 0M462 491l0 -1M462 491l2 0"/>
<path stroke="blue" d="M464 491l0 -1 1 0 0 -1 1 0 0 -1 1 0 0 -1 1 0 0 -1 1 0 0 -1 1 0 0 -1 2 0 0 -1 1 0M473 484l0 -1M473 484l2 0M475 485l0 -1M475 485l1 0 1 1M477 487l0 -1M477 487l1 0M478 488l0 -1M478 488l1 0M479 489l0 -1M479 489l1 0M480 490l0 -1"/>
<path stroke="blue" d="M480 490l1 0 1 1 2 0 1 -1 1 0 0 -1 1 0 0 -1 1 0 0 -1 1 0 0 -2 2 0 0 -1 4 0M495 485l0 -1M495 485l2 0M497 487l0 -2M497 487l1 0M498 488l0 -1M498 488l1 0M499 489l0 -1M499 489l1 0M500 490l0 -1M500 490l1 0M501 491l0 -1M501 491l4 0"/>
<path stroke="blue" d="M505 491l0 -1 1 0 0 -1 1 0 0 -1 1 0 0 -1 1 0 0 -1 1 0 0 -1 1 0 0 -1 5 0M516 485l0 -1M516 485l1 0M517 486l0 -1M517 486l1 0M518 487l0 -1M518 487l1 1M519 489l0 -1M519 489l1 0M520 490l0 -1M520 490l1 0 1 1 3 0 0 -1 1 0 1 -1"/>
<path stroke="blue" d="M527 489l0 -1 1 0 0 -1 1 0 0 -1 1 0 0 -1 1 0 0 -1 5 0M536 485l0 -1M536 485l1 0M537 486l0 -1M537 486l1 0M538 487l0 -1M538 487l1 0M539 488l0 -1M539 488l1 0M540 490l0 -2M540 490l2 0M542 491l0 -1M542 491l4 0 0 -1 1 0 0 -1 1 0"/>
<path stroke="blue" d="M548 489l0 -1 1 0 0 -2 1 0 0 -1 1 0 1 -1 4 0M556 485l0 -1M556 485l1 0M557 486l0 -1M557 486l1 0M558 487l0 -1M558 487l1 0M559 488l0 -1M559 488l1 0M560 489l0 -1M560 489l1 0M561 490l0 -1M561 490l1 0M562 491l0 -1M562 491l4 0"/>
<path stroke="blue" d="M566 491l0 -1 1 0 0 -1 1 0 0 -1 1 0 0 -1 1 0 0 -1 1 0 0 -1 1 0 0 -1 4 0M576 485l0 -1M576 485l1 0M577 486l0 -1M577 486l1 0M578 487l0 -1M578 487l1 0M579 488l0 -1M579 488l1 0M580 489l0 -1M580 489l1 0M581 490l0 -1M581 490l1 0"/>
<path stroke="blue" d="M582 491l0 -1M582 491l4 0 0 -1 1 0 0 -1 1 0 0 -1 1 0 0 -1 1 0 0 -1 1 0 0 -1 1 0 0 -1 5 0M597 485l0 -1M597 485l1 0M598 486l0 -1M598 486l1 0M599 488l0 -2M599 488l1 0M600 489l0 -1M600 489l1 0M601 490l0 -1M601 490l1 0M602 491l0 -1"/>
<path stroke="blue" d="M602 491l4 0 0 -1 1 0 0 -1 1 0 0 -1 1 0 0 -1 1 0 0 -1 1 0 0 -1 1 0 0 -1 5 0M617 485l0 -1M617 485l1 0M618 486l0 -1M618 486l1 0M619 487l0 -1M619 487l1 0M620 488l0 -1M620 488l1 0M621 489l0 -1M621 489l1 0M622 490l0 -1M622 490l1 0"/>
<path stroke="blue" d="M623 491l0 -1M623 491l3 0 0 -1 1 0 1 -1 0 -1 1 0 0 -1 1 0 0 -1 1 0 0 -1 1 0 0 -1 2 0 0 -1 1 0M635 484l0 -1M635 484l2 0M637 485l0 -1M637 485l1 0M638 486l0 -1M638 486l1 0M639 487l0 -1M639 487l1 0M640 488l0 -1M640 488l1 0"/>
<path stroke="blue" d="M641 489l0 -1M641 489l1 0M642 490l0 -1M642 490l1 0M643 491l0 -1M643 491l3 0 0 -1 2 0 0 -1 1 0 0 -1 1 -1 0 -1 1 0 0 -1 1 0 0 -1 2 0 0 -1 2 0M656 484l0 -1M656 484l2 0M658 485l0 -1M658 485l1 0M659 486l0 -1M659 486l1 1M660 488l0 -1"/>
<path stroke="blue" d="M660 488l1 0M661 489l0 -1M661 489l1 0M662 490l0 -1M662 490l1 0 1 1 2 0 0 -1 2 0 0 -1 1 0 0 -1 1 0 0 -2 1 0 0 -1 1 0 0 -1 2 0 0 -1 2 0M676 484l0 -1M676 484l2 0M678 485l0 -1M678 485l1 0M679 486l0 -1M679 486l1 0M680 487l0 -1"/>
<path stroke="blue" d="M680 487l1 0M681 488l0 -1M681 488l1 0M682 489l0 -1M682 489l1 1 1 0M684 491l0 -1M684 491l2 0 0 -1 2 0 0 -1 1 0 0 -1 1 0 0 -1 1 0 0 -2 1 0 0 -1 2 0 0 -1 3 0M697 484l0 -1M697 484l1 0M698 485l0 -1M698 485l1 0M699 486l0 -1M699 486l1 0"/>
<path stroke="blue" d="M700 487l0 -1M700 487l1 0M701 488l0 -1M701 488l1 0M702 489l0 -1M702 489l1 0M703 490l0 -1M703 490l1 0 1 1 1 0 0 -1 2 0 0 -1 1 0 0 -1 1 0 0 -1 1 0 0 -1 2 -2 1 0 0 -1 3 0M717 484l0 -1M717 484l2 0M719 485l0 -1M719 485l1 1M720 487l0 -1"/>
<path stroke="blue" d="M720 487l1 0M721 488l0 -1M721 488l1 0M722 489l0 -1M722 489l1 0M723 490l0 -1M723 490l2 0M725 491l0 -1M725 491l1 0 0 -1 2 0 0 -1 1 0 0 -1 1 0 0 -1 1 0 0 -1 1 0 0 -1 1 0 0 -1 1 0 0 -1 4 0M738 484l0 -1M738 484l1 0M739 485l0 -1"/>
<path stroke="blue" d="M739 485l1 0M740 486l0 -1M740 486l1 0M741 487l0 -1M741 487l1 0M742 488l0 -1M742 488l1 1 1 0M744 490l0 -1M744 490l4 0 0 -1 1 0 0 -1 1 0 0 -1 1 0 0 -1 1 0 0 -1 1 0 0 -1 1 0 0 -1 4 0M758 484l0 -1M758 484l1 0M759 485l0 -1M759 485l1 0"/>
<path stroke="blue" d="M760 486l0 -1M760 486l1 0M761 487l0 -1M761 487l1 0M762 488l0 -1M762 488l1 0M763 489l0 -1M763 489l1 0M764 490l0 -1M764 490l4 0 0 -1 1 0 0 -1 1 0 0 -1 1 0 0 -1 1 0 0 -1 1 0 0 -1 1 0 0 -1 4 0M778 484l0 -1M778 484l2 0M780 485l0 -1"/>
<path stroke="blue" d="M780 485l1 1M781 487l0 -1M781 487l1 0M782 488l0 -1M782 488l1 0M783 489l0 -1M783 489l1 0M784 490l0 -1M784 490l4 0 0 -1 2 0 0 -1 1 -1 0 -1 1 0 0 -1 1 0 0 -1 1 0 0 -1 5 0M799 484l0 -1M799 484l1 0M800 485l0 -1M800 485l1 0M801 486l0 -1"/>
<path stroke="blue" d="M801 486l1 0M802 487l0 -1M802 487l1 0M803 489l0 -2M803 489l2 0M805 490l0 -1M805 490l3 0 1 -1 1 0 0 -1 1 0 0 -2 1 0 0 -1 1 0 0 -1 1 0 0 -1 5 0M819 484l0 -1M819 484l1 0M820 485l0 -1M820 485l1 0M821 486l0 -1M821 486l1 0M822 487l0 -1"/>
<path stroke="blue" d="M822 487l1 0M823 488l0 -1M823 488l1 0M824 489l0 -1M824 489l1 0M825 490l0 -1M825 490l4 0 0 -1 1 0 0 -1 1 0 0 -1 1 0 0 -2 1 0 0 -1 1 0 0 -1 3 0 0 -1M837 483l2 0 1 1 1 0M841 486l0 -2M841 486l1 0M842 487l0 -1M842 487l1 0M843 488l0 -1"/>
<path stroke="blue" d="M843 488l1 0M844 489l0 -1M844 489l1 0M845 490l0 -1M845 490l4 0 0 -1 1 0 0 -1 1 0 0 -1 1 0 0 -1 1 0 0 -1 1 -1 1 0 0 -1 1 0 0 -1 2 0M858 483l0 -1M858 483l2 0M860 484l0 -1M860 484l1 0M861 485l0 -1M861 485l1 0M862 486l0 -1"/>
<path stroke="blue" d="M862 486l1 0M863 488l0 -2M863 488l1 0M864 489l0 -1M864 489l2 0M866 490l0 -1M866 490l3 0 0 -1 1 0 0 -1 1 0 0 -1 1 0 0 -1 1 0 0 -1 1 0 0 -1 1 0 0 -1 1 0 0 -1 2 0M878 483l0 -1M878 483l2 0M880 484l0 -1M880 484l1 0M881 485l0 -1"/>
<path stroke="blue" d="M881 485l1 0M882 486l0 -1M882 486l1 0M883 487l0 -1M883 487l1 0M884 488l0 -1M884 488l1 0M885 489l0 -1M885 489l1 0M886 490l0 -1M886 490l3 0 0 -1 1 0 0 -1 1 0 0 -1 1 0 0 -1 1 0 0 -1 1 0 0 -1 1 0 0 -1 1 0 0 -1 3 0M899 483l0 -1"/>
<path stroke="blue" d="M899 483l1 0M900 484l0 -1M900 484l1 0M901 485l0 -1M901 485l1 0M902 486l0 -1M902 486l1 0M903 487l0 -1M903 487l1 0M904 488l0 -1M904 488l1 0M905 489l0 -1M905 489l1 0 1 1 2 0 0 -1 1 0 0 -1 1 0 0 -1 1 0 0 -1 1 0 0 -1 1 0 0 -1"/>
<path stroke="blue" d="M914 484l1 0 0 -1 1 0 0 -1 3 0M919 483l0 -1M919 483l2 0M921 484l0 -1M921 484l1 0M922 485l0 -1M922 485l1 0M923 486l0 -1M923 486l1 1M924 488l0 -1M924 488l1 0M925 489l0 -1M925 489l2 0M927 490l0 -1M927 490l2 0 0 -1 2 0 0 -1"/>
<path stroke="blue" d="M931 488l1 0 0 -2 1 0 0 -1 1 0 0 -1 1 0 0 -1 2 0 0 -1 3 0M940 483l0 -1M940 483l1 0M941 484l0 -1M941 484l1 0M942 485l0 -1M942 485l1 0M943 486l0 -1M943 486l1 0M944 487l0 -1M944 487l1 0M945 488l0 -1M945 488l1 0M946 489l0 -1"/>
<path stroke="blue" d="M946 489l1 0M947 490l0 -1M947 490l2 0 0 -1 2 0 0 -1 1 0 0 -1 1 0 0 -2 1 0 0 -1 1 0 0 -1 2 0 0 -1 3 0M960 483l0 -1M960 483l1 0M961 484l0 -1M961 484l1 0M962 485l0 -1M962 485l1 0M963 486l0 -1M963 486l1 0M964 487l0 -1M964 487l1 0"/>
<path stroke="blue" d="M965 488l0 -1"/>
<path stroke="#FFA500" d="M445 39l44 0"/>
<text stroke="none" fill="white" font-size="16" x="499" y="48">
tran3.v(/out_sim1)
</text>
<path stroke="#FFA500" d="M75 168l0 -69M75 168l1 10M76 248l0 -70M76 248l1 5M77 283l0 -30M77 283l1 2M78 300l0 -15M78 300l1 1M79 308l0 -7M79 308l1 0M80 312l0 -4M80 312l1 0M81 314l0 -2M81 314l1 1M82 317l0 -2M82 317l1 0M83 318l0 -1M83 318l1 0M84 320l0 -2"/>
<path stroke="#FFA500" d="M84 320l1 0M85 322l0 -2M85 322l1 0M86 323l0 -1M86 323l1 0M87 325l0 -2M87 325l1 0M88 326l0 -1M88 326l1 0M89 328l0 -2M89 328l1 0M90 329l0 -1M90 329l1 0M91 331l0 -2M91 331l1 0M92 332l0 -1M92 332l1 0M93 334l0 -2M93 334l1 0"/>
<path stroke="#FFA500" d="M94 335l0 -1M94 335l1 0M95 337l0 -2M95 337l1 0M96 338l0 -1M96 338l1 0M97 340l0 -2M97 340l1 0M98 341l0 -1M98 341l1 0M99 343l0 -2M99 343l1 0M100 344l0 -1M100 344l1 0M101 345l0 -1M101 345l1 1M102 347l0 -1M102 347l1 0M103 348l0 -1"/>
<path stroke="#FFA500" d="M103 348l1 1M104 350l0 -1M104 350l1 0M105 351l0 -1M105 351l1 0M106 353l0 -2M106 353l1 0M107 354l0 -1M107 354l1 0M108 355l0 -1M108 355l1 1M109 357l0 -1M109 357l1 0M110 358l0 -1M110 358l1 0M111 360l0 -2M111 360l1 0M112 361l0 -1"/>
<path stroke="#FFA500" d="M112 361l1 0M113 362l0 -1M113 362l1 0M114 364l0 -2M114 364l1 0M115 365l0 -1M115 365l1 0M116 366l0 -1M116 366l1 0M117 368l0 -2M117 368l1 0M118 369l0 -1M118 369l1 0M119 370l0 -1M119 370l1 0M120 371l0 -1M120 371l1 1M121 373l0 -1"/>
<path stroke="#FFA500" d="M121 373l1 0M122 374l0 -1M122 374l1 0M123 375l0 -1M123 375l1 0M124 377l0 -2M124 377l1 0M125 378l0 -1M125 378l1 0M126 379l0 -1M126 379l1 0M127 380l0 -1M127 380l1 1M128 382l0 -1M128 382l1 0M129 383l0 -1M129 383l1 0M130 384l0 -1"/>
<path stroke="#FFA500" d="M130 384l1 0M131 385l0 -1M131 385l1 1M132 387l0 -1M132 387l1 0M133 388l0 -1M133 388l1 0M134 389l0 -1M134 389l1 0M135 390l0 -1M135 390l1 0M136 391l0 -1M136 391l1 0M137 393l0 -2M137 393l1 0M138 394l0 -1M138 394l1 0M139 395l0 -1"/>
<path stroke="#FFA500" d="M139 395l1 0M140 396l0 -1M140 396l1 0M141 397l0 -1M141 397l1 0M142 398l0 -1M142 398l1 1M143 400l0 -1M143 400l1 0M144 401l0 -1M144 401l1 0M145 402l0 -1M145 402l1 0M146 403l0 -1M146 403l1 0M147 404l0 -1M147 404l1 0M148 405l0 -1"/>
<path stroke="#FFA500" d="M148 405l1 0M149 406l0 -1M149 406l1 1M150 408l0 -1M150 408l1 0M151 409l0 -1M151 409l1 0M152 410l0 -1M152 410l1 0M153 411l0 -1M153 411l1 0M154 412l0 -1M154 412l1 0M155 413l0 -1M155 413l1 0M156 414l0 -1M156 414l1 0M157 415l0 -1"/>
<path stroke="#FFA500" d="M157 415l1 0M158 416l0 -1M158 416l1 0M159 417l0 -1M159 417l1 0M160 418l0 -1M160 418l1 0M161 419l0 -1M161 419l1 0M162 420l0 -1M162 420l1 0M163 421l0 -1M163 421l1 1M164 423l0 -1M164 423l1 0M165 424l0 -1M165 424l1 0M166 425l0 -1"/>
<path stroke="#FFA500" d="M166 425l1 0M167 426l0 -1M167 426l1 0M168 427l0 -1M168 427l1 0M169 428l0 -1M169 428l1 0M170 429l0 -1M170 429l1 0M171 430l0 -1M171 430l1 0M172 431l0 -1M172 431l1 0M173 432l0 -1M173 432l1 0M174 433l0 -1M174 433l1 0M175 434l0 -1"/>
<path stroke="#FFA500" d="M175 434l1 0 1 1 1 0M178 436l0 -1M178 436l1 0M179 437l0 -1M179 437l1 0M180 438l0 -1M180 438l1 0M181 439l0 -1M181 439l1 0M182 440l0 -1M182 440l1 0M183 441l0 -1M183 441l1 0M184 442l0 -1M184 442l1 0M185 443l0 -1M185 443l1 0"/>
<path stroke="#FFA500" d="M186 444l0 -1M186 444l1 0M187 445l0 -1M187 445l1 0M188 446l0 -1M188 446l1 0M189 447l0 -1M189 447l1 0 1 1 1 0M192 449l0 -1M192 449l1 0M193 450l0 -1M193 450l1 0M194 451l0 -1M194 451l1 0M195 452l0 -1M195 452l1 0M196 453l0 -1"/>
<path stroke="#FFA500" d="M196 453l1 0M197 454l0 -1M197 454l2 0M199 455l0 -1M199 455l1 0M200 456l0 -1M200 456l1 0M201 457l0 -1M201 457l1 0M202 458l0 -1M202 458l1 0 1 1 1 0M205 460l0 -1M205 460l1 0M206 461l0 -1M206 461l1 0M207 462l0 -1M207 462l1 0"/>
<path stroke="#FFA500" d="M208 463l0 -1M208 463l2 0M210 464l0 -1M210 464l1 0M211 465l0 -1M211 465l1 0M212 466l0 -1M212 466l2 0M214 467l0 -1M214 467l1 0M215 468l0 -1M215 468l2 0M217 469l0 -1M217 469l1 0M218 470l0 -1M218 470l1 0 1 1 1 0M221 472l0 -1"/>
<path stroke="#FFA500" d="M221 472l7 0M228 473l0 -1M228 473l9 0M237 474l0 -1M237 474l3 0M240 475l0 -1M240 475l3 0 0 -1 4 0M247 475l0 -1M247 475l10 0M257 476l0 -1M257 476l2 0M259 477l0 -1M259 477l1 0M260 478l0 -1M260 478l3 0 0 -1 1 0 0 -1 6 0"/>
<path stroke="#FFA500" d="M270 477l0 -1M270 477l7 0M277 478l0 -1M277 478l1 0M278 479l0 -1M278 479l1 0M279 480l0 -1M279 480l1 0M280 481l0 -1M280 481l3 0 0 -1 1 0 0 -1 1 0 0 -1 1 0 0 -1 3 0M289 478l0 -1M289 478l7 0M296 479l0 -1M296 479l1 0M297 480l0 -1"/>
<path stroke="#FFA500" d="M297 480l1 1M298 482l0 -1M298 482l1 0M299 483l0 -1M299 483l1 0M300 484l0 -1M300 484l2 0 0 -1 2 0 0 -1 1 0 0 -2 1 0 0 -1 1 0 1 -1 2 0 1 1 4 0M315 480l0 -1M315 480l1 0M316 481l0 -1M316 481l1 0M317 483l0 -2M317 483l1 0"/>
<path stroke="#FFA500" d="M318 484l0 -1M318 484l1 0M319 485l0 -1M319 485l1 0M320 486l0 -1M320 486l3 0 0 -1 1 0 0 -1 1 0 0 -1 1 0 0 -1 1 -1 0 -1 1 0 0 -1 4 0M332 480l0 -1M332 480l3 0M335 481l0 -1M335 481l1 0M336 483l0 -2M336 483l1 0M337 484l0 -1"/>
<path stroke="#FFA500" d="M337 484l1 0M338 486l0 -2M338 486l1 0M339 487l0 -1M339 487l1 0M340 488l0 -1M340 488l3 0 0 -1 1 0 0 -1 1 0 0 -1 1 0 0 -2 1 0 0 -1 1 0 0 -1 1 0 0 -1 4 0M353 481l0 -1M353 481l1 0 1 1M355 483l0 -1M355 483l1 0M356 484l0 -1"/>
<path stroke="#FFA500" d="M356 484l1 0M357 486l0 -2M357 486l1 0M358 487l0 -1M358 487l1 0M359 488l0 -1M359 488l1 1 1 0M361 490l0 -1M361 490l2 0 0 -1 1 0 0 -1 1 0 0 -1 1 0 0 -2 1 0 0 -1 1 0 0 -2 1 0 0 -1 4 0 1 1 1 0M375 484l0 -2M375 484l1 0M376 485l0 -1"/>
<path stroke="#FFA500" d="M376 485l1 0M377 487l0 -2M377 487l1 0M378 488l0 -1M378 488l1 0M379 489l0 -1M379 489l2 2 2 0 0 -1 1 0 1 -1 0 -1 1 0 0 -1 1 -1 0 -1 1 0 0 -1 1 0 0 -2 2 0 0 -1 1 0M392 482l0 -1M392 482l2 0M394 483l0 -1M394 483l1 0M395 484l0 -1"/>
<path stroke="#FFA500" d="M395 484l1 0M396 486l0 -2M396 486l1 0M397 487l0 -1M397 487l1 0M398 489l0 -2M398 489l1 0M399 490l0 -1M399 490l1 0M400 491l0 -1M400 491l1 0M401 492l0 -1M401 492l3 0 0 -1 1 0 0 -2 1 0 0 -1 1 0 0 -2 1 0 0 -1 1 0 0 -2 1 0"/>
<path stroke="#FFA500" d="M410 483l1 -1 3 0M414 483l0 -1M414 483l1 0M415 484l0 -1M415 484l1 1M416 486l0 -1M416 486l1 0M417 488l0 -2M417 488l1 0M418 489l0 -1M418 489l1 0M419 491l0 -2M419 491l1 0M420 492l0 -1M420 492l1 0M421 493l0 -1M421 493l3 0"/>
<path stroke="#FFA500" d="M424 493l0 -1 1 0 0 -2 1 0 0 -1 1 0 0 -2 1 0 0 -1 1 -1 0 -1 1 0 0 -1 2 0 0 -1 1 0M433 483l0 -1M433 483l1 0 1 1M435 485l0 -1M435 485l1 0M436 486l0 -1M436 486l1 0M437 488l0 -2M437 488l1 0M438 489l0 -1M438 489l1 1M439 491l0 -1"/>
<path stroke="#FFA500" d="M439 491l1 0M440 492l0 -1M440 492l1 0M441 493l0 -1M441 493l3 0 0 -1 1 0 0 -1 1 0 0 -1 1 -1 0 -1 1 0 0 -2 1 0 0 -1 1 0 0 -1 1 0 0 -1 3 0M454 484l0 -1M454 484l1 0M455 485l0 -1M455 485l1 0M456 486l0 -1M456 486l1 0M457 488l0 -2"/>
<path stroke="#FFA500" d="M457 488l1 0M458 489l0 -1M458 489l1 1M459 491l0 -1M459 491l1 0M460 492l0 -1M460 492l1 0M461 493l0 -1M461 493l1 0M462 494l0 -1M462 494l2 0 0 -1 1 0 0 -1 1 0 0 -2 1 0 0 -1 1 -1 0 -1 1 0 0 -2 1 0 0 -1 1 0 0 -1 3 0M474 484l0 -1"/>
<path stroke="#FFA500" d="M474 484l1 0M475 485l0 -1M475 485l1 0M476 486l0 -1M476 486l1 0M477 488l0 -2M477 488l1 0M478 489l0 -1M478 489l1 0M479 491l0 -2M479 491l1 0M480 492l0 -1M480 492l1 0M481 493l0 -1M481 493l1 0M482 494l0 -1M482 494l2 0 0 -1"/>
<path stroke="#FFA500" d="M484 493l1 0 0 -1 1 0 0 -1 1 0 0 -2 1 0 0 -2 1 0 0 -1 1 0 0 -2 2 0 0 -1 2 0 1 1 1 0M496 486l0 -2M496 486l1 0M497 487l0 -1M497 487l1 0M498 489l0 -2M498 489l1 0M499 491l0 -2M499 491l1 0M500 492l0 -1M500 492l1 0M501 493l0 -1"/>
<path stroke="#FFA500" d="M501 493l1 0M502 494l0 -1M502 494l3 0 0 -1 1 0 0 -2 1 0 0 -1 1 0 0 -2 1 0 0 -2 1 0 0 -1 1 0 0 -1 1 0 0 -1 3 0M515 484l0 -1M515 484l1 0M516 485l0 -1M516 485l1 0M517 487l0 -2M517 487l1 0M518 489l0 -2M518 489l1 0M519 490l0 -1"/>
<path stroke="#FFA500" d="M519 490l1 0M520 492l0 -2M520 492l1 0M521 493l0 -1M521 493l1 0M522 494l0 -1M522 494l3 0 0 -1 1 0 0 -1 1 0 0 -2 1 0 0 -2 1 0 0 -1 1 -1 0 -1 1 0 0 -1 1 0 0 -1 3 0M535 484l0 -1M535 484l1 0M536 485l0 -1M536 485l1 0M537 487l0 -2"/>
<path stroke="#FFA500" d="M537 487l1 0M538 488l0 -1M538 488l1 0M539 490l0 -2M539 490l1 0M540 491l0 -1M540 491l1 1M541 493l0 -1M541 493l1 0M542 494l0 -1M542 494l3 0 0 -1 1 0 0 -1 1 0 0 -2 1 0 0 -1 1 -1 0 -1 1 0 0 -2 1 0 0 -1 1 0 0 -1 3 0M555 484l0 -1"/>
<path stroke="#FFA500" d="M555 484l1 0M556 485l0 -1M556 485l1 0M557 486l0 -1M557 486l1 0M558 488l0 -2M558 488l1 0M559 489l0 -1M559 489l1 1M560 491l0 -1M560 491l1 0M561 493l0 -2M561 493l1 0M562 494l0 -1M562 494l3 0 0 -1 1 0 0 -1 1 0 0 -1 1 0 0 -2"/>
<path stroke="#FFA500" d="M568 489l1 0 0 -2 1 0 0 -1 1 -1 0 -1 1 0 0 -1 4 0M576 484l0 -1M576 484l1 0M577 486l0 -2M577 486l1 0M578 487l0 -1M578 487l1 0M579 489l0 -2M579 489l1 0M580 491l0 -2M580 491l1 0M581 492l0 -1M581 492l1 0M582 493l0 -1M582 493l1 0"/>
<path stroke="#FFA500" d="M583 494l0 -1M583 494l2 0 1 -1 0 -1 1 0 0 -1 1 0 0 -2 1 0 0 -2 1 0 0 -1 1 0 0 -2 1 0 0 -1 4 0M596 484l0 -1M596 484l1 0M597 485l0 -1M597 485l1 0M598 487l0 -2M598 487l1 0M599 488l0 -1M599 488l1 1M600 490l0 -1M600 490l1 0"/>
<path stroke="#FFA500" d="M601 492l0 -2M601 492l1 0M602 493l0 -1M602 493l1 0M603 494l0 -1M603 494l2 0 2 -2 0 -1 1 0 0 -1 1 -1 0 -1 1 0 0 -2 1 0 0 -1 1 -1 0 -1 4 0 1 1M617 485l0 -1M617 485l1 0M618 486l0 -1M618 486l1 0M619 488l0 -2M619 488l1 0"/>
<path stroke="#FFA500" d="M620 490l0 -2M620 490l1 0M621 491l0 -1M621 491l1 0M622 493l0 -2M622 493l2 0M624 494l0 -1M624 494l1 0 1 -1 1 0 0 -2 1 0 0 -1 1 0 0 -2 1 0 0 -2 1 0 0 -1 1 0 0 -1 1 -1 1 0 0 -1 1 0M635 483l0 -1M635 483l2 0M637 484l0 -1"/>
<path stroke="#FFA500" d="M637 484l1 0M638 486l0 -2M638 486l1 0M639 487l0 -1M639 487l1 0M640 489l0 -2M640 489l1 0M641 491l0 -2M641 491l1 0M642 492l0 -1M642 492l1 0M643 493l0 -1M643 493l1 0M644 494l0 -1M644 494l1 0 0 -1 2 0 0 -2 1 0 0 -1 1 0 0 -2"/>
<path stroke="#FFA500" d="M649 488l1 0 0 -2 1 0 0 -1 1 0 0 -1 1 -1 1 0 0 -1 2 0M656 483l0 -1M656 483l1 0M657 484l0 -1M657 484l1 0M658 485l0 -1M658 485l1 0M659 487l0 -2M659 487l1 0M660 489l0 -2M660 489l1 0M661 490l0 -1M661 490l1 0M662 492l0 -2"/>
<path stroke="#FFA500" d="M662 492l1 0M663 493l0 -1M663 493l4 0 0 -1 1 0 0 -2 1 0 0 -2 1 0 0 -1 1 -1 0 -1 1 0 0 -1 1 0 0 -1 1 0 0 -1 2 0 1 1 1 0M678 485l0 -2M678 485l1 0M679 486l0 -1M679 486l1 0M680 488l0 -2M680 488l1 0M681 490l0 -2M681 490l1 0"/>
<path stroke="#FFA500" d="M682 491l0 -1M682 491l1 0M683 492l0 -1M683 492l1 0M684 493l0 -1M684 493l3 0 0 -1 1 0 0 -2 1 0 0 -1 1 0 0 -2 1 0 0 -2 1 0 0 -1 1 0 0 -1 1 0 0 -1 3 0M697 483l0 -1M697 483l1 0M698 484l0 -1M698 484l1 0M699 486l0 -2M699 486l1 0"/>
<path stroke="#FFA500" d="M700 487l0 -1M700 487l1 0M701 489l0 -2M701 489l1 0M702 491l0 -2M702 491l1 0M703 492l0 -1M703 492l1 0M704 493l0 -1M704 493l3 0 0 -1 1 0 0 -1 1 -1 0 -1 1 0 0 -2 1 0 0 -2 1 0 0 -1 1 0 0 -1 1 0 0 -1 3 0M717 483l0 -1M717 483l1 0"/>
<path stroke="#FFA500" d="M718 484l0 -1M718 484l1 0M719 485l0 -1M719 485l1 0M720 487l0 -2M720 487l1 0M721 489l0 -2M721 489l1 0M722 490l0 -1M722 490l1 0M723 491l0 -1M723 491l2 2 2 0 0 -1 1 0 0 -1 1 0 0 -2 1 0 0 -2 1 0 0 -1 1 -1 0 -1 1 0 0 -1 1 0"/>
<path stroke="#FFA500" d="M734 483l0 -1 4 0M738 483l0 -1M738 483l1 0M739 485l0 -2M739 485l1 0M740 486l0 -1M740 486l1 0M741 488l0 -2M741 488l1 0M742 490l0 -2M742 490l1 0M743 491l0 -1M743 491l1 0M744 492l0 -1M744 492l1 0M745 493l0 -1M745 493l2 0"/>
<path stroke="#FFA500" d="M747 493l0 -1 1 0 0 -1 1 0 0 -2 1 0 0 -1 1 0 0 -2 1 0 0 -2 1 0 0 -1 1 0 0 -1 1 0 0 -1 2 0M757 482l0 -1M757 482l1 0M758 483l0 -1M758 483l1 0M759 484l0 -1M759 484l1 0M760 486l0 -2M760 486l1 0M761 488l0 -2M761 488l1 0M762 489l0 -1"/>
<path stroke="#FFA500" d="M762 489l1 0M763 491l0 -2M763 491l1 0M764 492l0 -1M764 492l2 0M766 493l0 -1M766 493l1 0 0 -1 1 0 0 -1 1 0 0 -1 1 -1 0 -1 1 0 0 -2 1 0 0 -1 1 -1 0 -1 1 0 0 -1 1 0 0 -1 2 0M777 482l0 -1M777 482l1 0 1 1M779 484l0 -1M779 484l1 0"/>
<path stroke="#FFA500" d="M780 485l0 -1M780 485l1 0M781 487l0 -2M781 487l1 0M782 489l0 -2M782 489l1 0M783 490l0 -1M783 490l1 0M784 491l0 -1M784 491l1 0M785 492l0 -1M785 492l3 0 0 -1 1 0 0 -1 1 0 0 -2 1 0 0 -2 1 0 0 -1 1 0 0 -2 1 0 0 -1 1 0 0 -1"/>
<path stroke="#FFA500" d="M795 481l3 0M798 482l0 -1M798 482l1 0M799 483l0 -1M799 483l1 0M800 485l0 -2M800 485l1 0M801 486l0 -1M801 486l1 1M802 488l0 -1M802 488l1 0M803 490l0 -2M803 490l1 0M804 491l0 -1M804 491l1 0M805 492l0 -1M805 492l3 0 0 -1"/>
<path stroke="#FFA500" d="M808 491l1 0 0 -1 1 0 0 -2 1 0 0 -1 1 -1 0 -1 1 0 0 -2 1 0 0 -1 1 0 0 -1 3 0M818 482l0 -1M818 482l1 0M819 483l0 -1M819 483l1 0M820 484l0 -1M820 484l1 0M821 486l0 -2M821 486l1 0M822 488l0 -2M822 488l1 0M823 489l0 -1M823 489l1 0"/>
<path stroke="#FFA500" d="M824 491l0 -2M824 491l1 0M825 492l0 -1M825 492l3 0 0 -1 1 0 0 -1 1 0 0 -1 1 0 0 -2 1 0 0 -2 1 0 0 -1 1 0 0 -2 1 0 0 -1 3 0 2 2M840 484l0 -1M840 484l1 0M841 485l0 -1M841 485l1 0M842 487l0 -2M842 487l1 0M843 489l0 -2M843 489l1 0"/>
<path stroke="#FFA500" d="M844 490l0 -1M844 490l1 0M845 491l0 -1M845 491l1 0M846 492l0 -1M846 492l2 0 0 -1 1 0 0 -1 1 0 0 -1 1 0 0 -2 1 0 0 -1 1 -1 0 -1 1 0 0 -2 1 0 0 -1 4 0M859 482l0 -1M859 482l1 0M860 483l0 -1M860 483l1 0M861 485l0 -2M861 485l1 0"/>
<path stroke="#FFA500" d="M862 487l0 -2M862 487l1 0M863 488l0 -1M863 488l1 0M864 490l0 -2M864 490l1 0M865 491l0 -1M865 491l1 0M866 492l0 -1M866 492l2 0 0 -1 1 0 1 -1 0 -1 1 0 0 -1 1 -1 0 -1 1 0 0 -2 1 0 0 -1 1 0 0 -1 1 -1 3 0M879 482l0 -1M879 482l1 0"/>
<path stroke="#FFA500" d="M880 483l0 -1M880 483l1 0M881 484l0 -1M881 484l1 0M882 486l0 -2M882 486l1 0M883 488l0 -2M883 488l1 0M884 489l0 -1M884 489l1 0M885 491l0 -2M885 491l1 0M886 492l0 -1M886 492l3 0 0 -1 1 0 0 -2 1 0 0 -1 1 0 0 -2 1 0 0 -2"/>
<path stroke="#FFA500" d="M893 484l1 0 0 -1 1 0 0 -1 1 0 0 -1 4 0M900 482l0 -1M900 482l1 1M901 484l0 -1M901 484l1 0M902 486l0 -2M902 486l1 0M903 487l0 -1M903 487l1 0M904 489l0 -2M904 489l1 0M905 490l0 -1M905 490l1 0M906 491l0 -1M906 491l1 0M907 492l0 -1"/>
<path stroke="#FFA500" d="M907 492l2 0 0 -1 1 0 0 -1 1 0 0 -2 1 0 0 -2 1 0 0 -1 1 0 0 -2 1 0 0 -1 1 0 0 -1 4 0M920 482l0 -1M920 482l1 0M921 483l0 -1M921 483l1 1M922 485l0 -1M922 485l1 0M923 487l0 -2M923 487l1 0M924 489l0 -2M924 489l1 0M925 490l0 -1"/>
<path stroke="#FFA500" d="M925 490l1 0M926 491l0 -1M926 491l1 0M927 492l0 -1M927 492l2 0 0 -1 1 0 0 -1 1 0 0 -1 1 -1 0 -1 1 0 0 -2 1 0 0 -2 1 0 0 -1 1 0 0 -1 2 0 0 -1 1 0M939 481l0 -1M939 481l1 0M940 482l0 -1M940 482l1 0M941 483l0 -1M941 483l1 0"/>
<path stroke="#FFA500" d="M942 485l0 -2M942 485l1 0M943 486l0 -1M943 486l1 1M944 488l0 -1M944 488l1 0M945 490l0 -2M945 490l1 0M946 491l0 -1M946 491l2 0M948 492l0 -1M948 492l1 0 0 -1 1 0 0 -1 1 0 0 -1 1 0 0 -2 1 0 0 -2 1 0 0 -1 1 0 0 -2 1 0 0 -1"/>
<path stroke="#FFA500" d="M956 481l2 0 0 -1 1 0M959 481l0 -1M959 481l1 0M960 482l0 -1M960 482l1 0M961 483l0 -1M961 483l1 0M962 484l0 -1M962 484l1 0M963 486l0 -2M963 486l1 0M964 488l0 -2M964 488l1 0"/>
<path stroke="green" d="M75 39l44 0"/>
<text stroke="none" fill="white" font-size="16" x="129" y="48">
tran4.v(/out_sim1)
</text>
<path stroke="green" d="M75 162l0 -63M75 162l1 11M76 250l0 -77M76 250l1 5M77 284l0 -29M77 284l1 2M78 300l0 -14M78 300l1 1M79 307l0 -6M79 307l1 1M80 312l0 -4M80 312l1 0M81 314l0 -2M81 314l1 1M82 316l0 -1M82 316l1 1M83 318l0 -1M83 318l1 0M84 320l0 -2"/>
<path stroke="green" d="M84 320l1 0M85 322l0 -2M85 322l1 0M86 323l0 -1M86 323l1 0M87 325l0 -2M87 325l1 0M88 326l0 -1M88 326l1 0M89 328l0 -2M89 328l1 0M90 329l0 -1M90 329l1 0M91 331l0 -2M91 331l1 0M92 332l0 -1M92 332l1 0M93 334l0 -2M93 334l1 0"/>
<path stroke="green" d="M94 335l0 -1M94 335l1 0M95 337l0 -2M95 337l1 0M96 338l0 -1M96 338l1 0M97 340l0 -2M97 340l1 0M98 341l0 -1M98 341l1 0M99 343l0 -2M99 343l1 0M100 344l0 -1M100 344l1 0M101 346l0 -2M101 346l1 0M102 347l0 -1M102 347l1 0M103 348l0 -1"/>
<path stroke="green" d="M103 348l1 0M104 350l0 -2M104 350l1 0M105 351l0 -1M105 351l1 0M106 353l0 -2M106 353l1 0M107 354l0 -1M107 354l1 0M108 355l0 -1M108 355l1 1M109 357l0 -1M109 357l1 0M110 358l0 -1M110 358l1 0M111 360l0 -2M111 360l1 0M112 361l0 -1"/>
<path stroke="green" d="M112 361l1 0M113 362l0 -1M113 362l1 0M114 364l0 -2M114 364l1 0M115 365l0 -1M115 365l1 0M116 366l0 -1M116 366l1 0M117 367l0 -1M117 367l1 1M118 369l0 -1M118 369l1 0M119 370l0 -1M119 370l1 0M120 371l0 -1M120 371l1 1M121 373l0 -1"/>
<path stroke="green" d="M121 373l1 0M122 374l0 -1M122 374l1 0M123 375l0 -1M123 375l1 0M124 377l0 -2M124 377l1 0M125 378l0 -1M125 378l1 0M126 379l0 -1M126 379l1 0M127 380l0 -1M127 380l1 1M128 382l0 -1M128 382l1 0M129 383l0 -1M129 383l1 0M130 384l0 -1"/>
<path stroke="green" d="M130 384l1 0M131 385l0 -1M131 385l1 1M132 387l0 -1M132 387l1 0M133 388l0 -1M133 388l1 0M134 389l0 -1M134 389l1 0M135 390l0 -1M135 390l1 0M136 391l0 -1M136 391l1 1M137 393l0 -1M137 393l1 0M138 394l0 -1M138 394l1 0M139 395l0 -1"/>
<path stroke="green" d="M139 395l1 0M140 396l0 -1M140 396l1 0M141 397l0 -1M141 397l1 0M142 398l0 -1M142 398l1 1M143 400l0 -1M143 400l1 0M144 401l0 -1M144 401l1 0M145 402l0 -1M145 402l1 0M146 403l0 -1M146 403l1 0M147 404l0 -1M147 404l1 0M148 405l0 -1"/>
<path stroke="green" d="M148 405l1 1M149 407l0 -1M149 407l1 0M150 408l0 -1M150 408l1 0M151 409l0 -1M151 409l1 0M152 410l0 -1M152 410l1 0M153 411l0 -1M153 411l1 0M154 412l0 -1M154 412l1 0M155 413l0 -1M155 413l1 0M156 414l0 -1M156 414l1 0M157 415l0 -1"/>
<path stroke="green" d="M157 415l1 0M158 416l0 -1M158 416l1 0M159 417l0 -1M159 417l1 0M160 418l0 -1M160 418l1 0M161 419l0 -1M161 419l1 0M162 420l0 -1M162 420l1 0M163 421l0 -1M163 421l2 2M165 424l0 -1M165 424l1 0M166 425l0 -1M166 425l1 0M167 426l0 -1"/>
<path stroke="green" d="M167 426l1 0M168 427l0 -1M168 427l1 0M169 428l0 -1M169 428l1 0M170 429l0 -1M170 429l1 0M171 430l0 -1M171 430l1 0M172 431l0 -1M172 431l1 0M173 432l0 -1M173 432l1 0M174 433l0 -1M174 433l1 0 3 3 1 0M179 437l0 -1M179 437l1 0"/>
<path stroke="green" d="M180 438l0 -1M180 438l1 0M181 439l0 -1M181 439l1 0M182 440l0 -1M182 440l1 0M183 441l0 -1M183 441l1 0M184 442l0 -1M184 442l1 0M185 443l0 -1M185 443l1 0M186 444l0 -1M186 444l1 0M187 445l0 -1M187 445l1 0M188 446l0 -1M188 446l1 0"/>
<path stroke="green" d="M189 447l0 -1M189 447l1 0M190 448l0 -1M190 448l2 0M192 449l0 -1M192 449l1 0M193 450l0 -1M193 450l1 0M194 451l0 -1M194 451l1 0M195 452l0 -1M195 452l1 0M196 453l0 -1M196 453l1 0 1 1 1 0M199 455l0 -1M199 455l1 0M200 456l0 -1"/>
<path stroke="green" d="M200 456l1 0M201 457l0 -1M201 457l1 0M202 458l0 -1M202 458l1 0M203 459l0 -1M203 459l2 0M205 460l0 -1M205 460l1 0M206 461l0 -1M206 461l1 0M207 462l0 -1M207 462l1 0M208 463l0 -1M208 463l2 0M210 464l0 -1M210 464l1 0M211 465l0 -1"/>
<path stroke="green" d="M211 465l1 0M212 466l0 -1M212 466l2 0M214 467l0 -1M214 467l1 0M215 468l0 -1M215 468l1 0 1 1 1 0M218 470l0 -1M218 470l1 0 1 1 1 0M221 472l0 -1M221 472l7 0M228 473l0 -1M228 473l9 0M237 474l0 -1M237 474l3 0M240 475l0 -1M240 475l3 0"/>
<path stroke="green" d="M243 475l0 -1 4 0M247 475l0 -1M247 475l10 0M257 476l0 -1M257 476l1 0 1 1M259 478l0 -1M259 478l1 0M260 479l0 -1M260 479l2 0 1 -1 0 -1 1 0 0 -1 2 0 0 -1M266 476l5 0M271 477l0 -1M271 477l6 0M277 478l0 -1M277 478l1 0M278 480l0 -2"/>
<path stroke="green" d="M278 480l1 0M279 482l0 -2M279 482l1 0M280 483l0 -1M280 483l1 0M281 484l0 -1M281 484l1 0 0 -1 1 0 0 -2 1 0 0 -1 1 0 0 -2 1 0 0 -1 1 0 0 -1M287 477l3 0M290 478l0 -1M290 478l6 0M296 479l0 -1M296 479l1 0M297 481l0 -2M297 481l1 1"/>
<path stroke="green" d="M298 484l0 -2M298 484l1 0M299 486l0 -2M299 486l1 0M300 487l0 -1M300 487l1 1 1 0 0 -1 1 0 0 -2 1 0 0 -2 1 0 0 -2 1 0 0 -2 1 0 0 -1 1 0 0 -1 1 0M309 478l0 -1M309 478l4 0M313 479l0 -1M313 479l2 0M315 480l0 -1M315 480l1 0"/>
<path stroke="green" d="M316 482l0 -2M316 482l1 0M317 484l0 -2M317 484l1 1M318 487l0 -2M318 487l1 1M319 490l0 -2M319 490l1 0M320 491l0 -1M320 491l3 0 0 -2 1 0 0 -2 1 0 0 -2 1 -1 0 -2 1 0 0 -2 1 0 0 -2 3 0M331 479l0 -1M331 479l3 0M334 480l0 -1"/>
<path stroke="green" d="M334 480l1 0M335 481l0 -1M335 481l1 1M336 484l0 -2M336 484l1 0M337 487l0 -3M337 487l1 0M338 490l0 -3M338 490l1 0M339 492l0 -2M339 492l1 1M340 494l0 -1M340 494l1 0M341 495l0 -1M341 495l1 0 0 -1 1 0 0 -1 1 0 0 -3 1 0 0 -2"/>
<path stroke="green" d="M345 488l1 -1 0 -2 1 0 0 -3 1 0 0 -2 1 0 0 -1 4 0M353 480l0 -1M353 480l1 0M354 481l0 -1M354 481l1 0M355 483l0 -2M355 483l1 0M356 486l0 -3M356 486l1 0M357 489l0 -3M357 489l1 0M358 492l0 -3M358 492l1 0M359 494l0 -2M359 494l1 1"/>
<path stroke="green" d="M360 497l0 -2M360 497l3 0 0 -1 1 0 0 -3 1 0 0 -3 1 0 0 -3 1 0 0 -2 1 -1 0 -2 1 0 0 -2 1 0 1 -1 1 0M372 480l0 -1M372 480l1 0 1 1M374 482l0 -1M374 482l1 0M375 484l0 -2M375 484l1 0M376 487l0 -3M376 487l1 0M377 490l0 -3M377 490l1 0"/>
<path stroke="green" d="M378 493l0 -3M378 493l1 0M379 496l0 -3M379 496l1 0M380 498l0 -2M380 498l1 0M381 500l0 -2M381 500l1 0 1 -1 0 -1 1 0 0 -2 1 0 0 -3 1 -1 0 -2 1 -1 0 -2 1 -1 0 -2 1 0 0 -2 1 0 0 -2 3 0M393 481l0 -1M393 481l1 0M394 482l0 -1"/>
<path stroke="green" d="M394 482l1 0M395 485l0 -3M395 485l1 0M396 487l0 -2M396 487l1 1M397 490l0 -2M397 490l1 1M398 494l0 -3M398 494l1 0M399 497l0 -3M399 497l1 0M400 499l0 -2M400 499l1 1M401 501l0 -1M401 501l2 0 0 -1 1 0 0 -2 1 0 0 -3 1 -1 0 -3"/>
<path stroke="green" d="M406 491l1 0 0 -3 1 0 0 -3 1 0 0 -2 1 0 0 -2 1 0 0 -1 2 0M413 481l0 -1M413 481l1 0M414 482l0 -1M414 482l1 1M415 485l0 -2M415 485l1 0M416 487l0 -2M416 487l1 1M417 490l0 -2M417 490l1 1M418 494l0 -3M418 494l1 0M419 497l0 -3"/>
<path stroke="green" d="M419 497l1 1M420 500l0 -2M420 500l1 0M421 502l0 -2M421 502l1 0M422 503l0 -1M422 503l1 0 0 -1 1 0 0 -3 1 0 0 -3 1 0 0 -3 1 0 0 -4 1 0 0 -3 1 0 0 -2 1 -1 0 -1 1 0 0 -1 3 0M434 482l0 -1M434 482l1 1M435 484l0 -1M435 484l1 1"/>
<path stroke="green" d="M436 487l0 -2M436 487l1 0M437 490l0 -3M437 490l1 1M438 494l0 -3M438 494l1 0M439 497l0 -3M439 497l1 0M440 500l0 -3M440 500l1 0M441 502l0 -2M441 502l1 1 2 0 0 -2 1 -1 0 -2 1 -1 0 -3 1 0 0 -3 1 -1 0 -3 1 0 0 -2 1 -1 0 -2"/>
<path stroke="green" d="M450 482l1 0 0 -1 3 0M454 482l0 -1M454 482l1 0M455 484l0 -2M455 484l1 0M456 487l0 -3M456 487l1 0M457 490l0 -3M457 490l1 0M458 493l0 -3M458 493l1 1M459 497l0 -3M459 497l1 0M460 500l0 -3M460 500l1 0M461 502l0 -2M461 502l1 0"/>
<path stroke="green" d="M462 504l0 -2M462 504l1 0 0 -1 1 0 0 -1 1 -1 0 -2 1 -1 0 -3 1 0 0 -4 1 0 0 -3 1 0 0 -3 1 0 0 -2 1 0 0 -2 3 0M474 482l0 -1M474 482l1 0M475 484l0 -2M475 484l1 0M476 486l0 -2M476 486l1 0M477 489l0 -3M477 489l1 0M478 493l0 -4"/>
<path stroke="green" d="M478 493l1 0M479 496l0 -3M479 496l1 0M480 499l0 -3M480 499l1 1M481 502l0 -2M481 502l1 0M482 504l0 -2M482 504l2 0 0 -2 1 0 0 -3 1 0 0 -3 1 0 0 -4 1 0 0 -3 1 -1 0 -2 1 -1 0 -2 1 0 0 -1 1 -1 2 0 1 1M495 483l0 -1M495 483l1 0"/>
<path stroke="green" d="M496 485l0 -2M496 485l1 1M497 488l0 -2M497 488l1 1M498 492l0 -3M498 492l1 0M499 495l0 -3M499 495l1 1M500 498l0 -2M500 498l1 1M501 501l0 -2M501 501l1 0M502 503l0 -2M502 503l1 0M503 504l0 -1M503 504l1 0 0 -1 1 -1 0 -2 1 0"/>
<path stroke="green" d="M506 500l0 -3 1 0 0 -4 1 0 0 -4 1 0 0 -3 1 0 0 -2 1 -1 0 -1 1 -1 1 0 0 -1 1 0M514 481l0 -1M514 481l1 0M515 482l0 -1M515 482l1 0M516 485l0 -3M516 485l1 0M517 487l0 -2M517 487l1 1M518 491l0 -3M518 491l1 0M519 494l0 -3M519 494l1 1"/>
<path stroke="green" d="M520 498l0 -3M520 498l1 0M521 500l0 -2M521 500l1 1M522 503l0 -2M522 503l3 0 0 -3 1 0 0 -3 1 0 0 -3 1 -1 0 -3 1 0 0 -3 1 -1 0 -2 1 0 0 -2 1 0 0 -2 2 0 1 1M535 482l0 -1M535 482l1 0M536 484l0 -2M536 484l1 0M537 486l0 -2M537 486l1 1"/>
<path stroke="green" d="M538 490l0 -3M538 490l1 0M539 493l0 -3M539 493l1 1M540 497l0 -3M540 497l1 0M541 500l0 -3M541 500l1 0M542 502l0 -2M542 502l1 0M543 503l0 -1M543 503l1 0 1 -1 0 -1 1 -1 0 -2 1 -1 0 -3 1 0 0 -4 1 0 0 -3 1 0 0 -3 1 0 0 -2 1 0"/>
<path stroke="green" d="M552 482l0 -2 3 0M555 481l0 -1M555 481l1 0M556 483l0 -2M556 483l1 0M557 485l0 -2M557 485l1 1M558 489l0 -3M558 489l1 0M559 492l0 -3M559 492l1 0M560 495l0 -3M560 495l1 1M561 499l0 -3M561 499l1 0M562 501l0 -2M562 501l1 0"/>
<path stroke="green" d="M563 502l0 -1M563 502l1 1 0 -1 1 0 0 -1 1 0 0 -3 1 0 0 -3 1 -1 0 -3 1 0 0 -4 1 0 0 -3 1 0 0 -2 1 0 0 -2 1 0 0 -1 1 0 1 1 1 0M576 482l0 -2M576 482l1 0M577 484l0 -2M577 484l1 1M578 487l0 -2M578 487l1 1M579 491l0 -3M579 491l1 0"/>
<path stroke="green" d="M580 494l0 -3M580 494l1 0M581 498l0 -4M581 498l1 0M582 500l0 -2M582 500l1 0M583 502l0 -2M583 502l2 0 0 -1 1 0 0 -3 1 0 0 -3 1 0 0 -3 1 -1 0 -3 1 0 0 -3 1 0 0 -3 1 0 0 -2 1 0 0 -1 2 0M595 480l0 -1M595 480l1 0M596 481l0 -1"/>
<path stroke="green" d="M596 481l1 0M597 484l0 -3M597 484l1 0M598 486l0 -2M598 486l1 1M599 490l0 -3M599 490l1 0M600 493l0 -3M600 493l1 0M601 497l0 -4M601 497l1 0M602 499l0 -2M602 499l1 0M603 501l0 -2M603 501l1 0M604 502l0 -1M604 502l1 0 0 -1"/>
<path stroke="green" d="M605 501l1 0 0 -3 1 0 0 -3 1 0 0 -3 1 0 0 -4 1 0 0 -3 1 0 0 -3 1 0 0 -2 1 0 0 -1 3 0M616 481l0 -2M616 481l1 0M617 483l0 -2M617 483l1 0M618 485l0 -2M618 485l1 1M619 489l0 -3M619 489l1 0M620 492l0 -3M620 492l1 0M621 495l0 -3"/>
<path stroke="green" d="M621 495l1 1M622 498l0 -2M622 498l1 0M623 500l0 -2M623 500l1 0M624 501l0 -1M624 501l1 0 1 -1 0 -1 1 -1 0 -2 1 0 0 -3 1 -1 0 -3 1 -1 0 -3 1 0 0 -2 1 -1 0 -2 1 0 0 -1 1 0 0 -1 1 0M635 479l0 -1M635 479l1 0M636 480l0 -1M636 480l1 0"/>
<path stroke="green" d="M637 482l0 -2M637 482l1 0M638 484l0 -2M638 484l1 1M639 487l0 -2M639 487l1 1M640 491l0 -3M640 491l1 0M641 494l0 -3M641 494l1 1M642 497l0 -2M642 497l1 0M643 499l0 -2M643 499l1 1M644 501l0 -1M644 501l1 0 0 -1 1 0 0 -1 1 0"/>
<path stroke="green" d="M647 499l0 -3 1 0 0 -3 1 -1 0 -3 1 0 0 -3 1 0 0 -3 1 0 0 -2 1 -1 0 -1 1 0 0 -1 2 0M656 479l0 -1M656 479l1 0M657 481l0 -2M657 481l1 0M658 483l0 -2M658 483l1 1M659 486l0 -2M659 486l1 1M660 490l0 -3M660 490l1 0M661 493l0 -3"/>
<path stroke="green" d="M661 493l1 1M662 496l0 -2M662 496l1 0M663 499l0 -3M663 499l1 0M664 500l0 -1M664 500l2 0 0 -1 1 0 0 -3 1 0 0 -3 1 0 0 -3 1 0 0 -4 1 0 0 -3 1 0 0 -2 1 -1 0 -1 1 0 0 -1 2 0M676 479l0 -1M676 479l1 0M677 480l0 -1M677 480l1 0"/>
<path stroke="green" d="M678 482l0 -2M678 482l1 1M679 485l0 -2M679 485l1 1M680 489l0 -3M680 489l1 0M681 492l0 -3M681 492l1 1M682 495l0 -2M682 495l1 1M683 498l0 -2M683 498l1 0M684 499l0 -1M684 499l1 1 1 0 0 -1 1 0 0 -2 1 -1 0 -2 1 -1 0 -3 1 0"/>
<path stroke="green" d="M690 490l0 -3 1 0 0 -3 1 -1 0 -2 1 0 0 -2 1 0 0 -1 1 0 0 -1 1 0M696 478l0 -1M696 478l1 0M697 479l0 -1M697 479l1 1M698 482l0 -2M698 482l1 0M699 485l0 -3M699 485l1 0M700 488l0 -3M700 488l1 0M701 491l0 -3M701 491l1 0M702 494l0 -3"/>
<path stroke="green" d="M702 494l1 0M703 497l0 -3M703 497l1 0M704 499l0 -2M704 499l1 0M705 500l0 -1M705 500l1 0 0 -1 1 0 0 -2 1 0 0 -3 1 0 0 -3 1 -1 0 -3 1 0 0 -3 1 0 0 -3 1 0 0 -2 1 0 0 -1 1 0 0 -1 1 0M716 478l0 -1M716 478l1 0M717 479l0 -1M717 479l1 0"/>
<path stroke="green" d="M718 481l0 -2M718 481l1 0M719 483l0 -2M719 483l1 1M720 487l0 -3M720 487l1 0M721 490l0 -3M721 490l1 0M722 493l0 -3M722 493l1 1M723 496l0 -2M723 496l1 0M724 498l0 -2M724 498l1 0M725 499l0 -1M725 499l2 0 0 -2 1 0 0 -3 1 0"/>
<path stroke="green" d="M729 494l0 -3 1 0 0 -3 1 -1 0 -3 1 0 0 -2 1 -1 0 -2 1 0 0 -1 1 0 0 -1 2 0M737 478l0 -1M737 478l1 0M738 480l0 -2M738 480l1 0M739 483l0 -3M739 483l1 0M740 486l0 -3M740 486l1 0M741 489l0 -3M741 489l1 0M742 492l0 -3M742 492l1 1"/>
<path stroke="green" d="M743 495l0 -2M743 495l1 1M744 498l0 -2M744 498l1 0M745 499l0 -1M745 499l2 0 0 -2 1 0 0 -2 1 0 0 -3 1 0 0 -4 1 0 0 -3 1 0 0 -3 1 0 0 -2 1 -1 0 -1 1 0 0 -1 2 0M757 478l0 -1M757 478l1 0M758 479l0 -1M758 479l1 1M759 482l0 -2"/>
<path stroke="green" d="M759 482l1 0M760 485l0 -3M760 485l1 0M761 488l0 -3M761 488l1 0M762 491l0 -3M762 491l1 1M763 494l0 -2M763 494l1 1M764 497l0 -2M764 497l1 0M765 498l0 -1M765 498l1 0M766 499l0 -1M766 499l1 0 0 -1 1 -1 0 -2 1 0 0 -3 1 0 0 -3"/>
<path stroke="green" d="M770 489l1 0 0 -3 1 -1 0 -2 1 -1 0 -2 1 0 0 -2 1 0 0 -1 3 0M778 479l0 -2M778 479l1 0M779 481l0 -2M779 481l1 0M780 484l0 -3M780 484l1 0M781 487l0 -3M781 487l1 0M782 490l0 -3M782 490l1 1M783 494l0 -3M783 494l1 0M784 496l0 -2"/>
<path stroke="green" d="M784 496l1 0M785 498l0 -2M785 498l3 0 0 -2 1 -1 0 -2 1 0 0 -3 1 -1 0 -3 1 0 0 -3 1 0 0 -3 1 0 0 -2 1 0 0 -1 1 0 0 -1 1 0M797 477l0 -1M797 477l1 0M798 478l0 -1M798 478l1 0M799 480l0 -2M799 480l1 0M800 483l0 -3M800 483l1 0"/>
<path stroke="green" d="M801 486l0 -3M801 486l1 1M802 489l0 -2M802 489l1 1M803 493l0 -3M803 493l1 0M804 496l0 -3M804 496l1 0M805 497l0 -1M805 497l1 1 2 0 0 -2 1 0 0 -3 1 0 0 -3 1 0 0 -3 1 -1 0 -3 1 0 0 -3 1 0 0 -2 1 0 0 -1 1 0 0 -1 1 0M817 477l0 -1"/>
<path stroke="green" d="M817 477l1 0M818 478l0 -1M818 478l1 0M819 480l0 -2M819 480l1 0M820 482l0 -2M820 482l1 0M821 485l0 -3M821 485l1 0M822 489l0 -4M822 489l1 0M823 492l0 -3M823 492l1 0M824 495l0 -3M824 495l1 0M825 497l0 -2M825 497l1 0M826 498l0 -1"/>
<path stroke="green" d="M826 498l2 0 0 -2 1 0 0 -2 1 0 0 -3 1 0 0 -4 1 0 0 -3 1 0 0 -3 1 0 0 -2 1 -1 0 -1 1 0 0 -1 2 0M838 477l0 -1M838 477l1 0M839 479l0 -2M839 479l1 0M840 481l0 -2M840 481l1 1M841 484l0 -2M841 484l1 1M842 488l0 -3M842 488l1 0"/>
<path stroke="green" d="M843 491l0 -3M843 491l1 0M844 494l0 -3M844 494l1 0M845 496l0 -2M845 496l1 0M846 498l0 -2M846 498l2 0 0 -1 1 -1 0 -2 1 0 0 -3 1 0 0 -3 1 0 0 -3 1 -1 0 -2 1 -1 0 -2 1 0 0 -2 1 0 0 -1 2 0M858 477l0 -1M858 477l1 0M859 478l0 -1"/>
<path stroke="green" d="M859 478l1 0M860 481l0 -3M860 481l1 0M861 484l0 -3M861 484l1 0M862 487l0 -3M862 487l1 0M863 490l0 -3M863 490l1 0M864 493l0 -3M864 493l1 0M865 496l0 -3M865 496l1 0M866 497l0 -1M866 497l1 0M867 498l0 -1M867 498l1 0 0 -1"/>
<path stroke="green" d="M868 497l1 0 0 -2 1 -1 0 -2 1 0 0 -3 1 -1 0 -3 1 0 0 -3 1 0 0 -3 1 0 0 -1 1 -1 0 -1 2 0 1 1M879 478l0 -1M879 478l1 0M880 480l0 -2M880 480l1 0M881 483l0 -3M881 483l1 0M882 486l0 -3M882 486l1 0M883 489l0 -3M883 489l1 1M884 492l0 -2"/>
<path stroke="green" d="M884 492l1 1M885 495l0 -2M885 495l1 0M886 497l0 -2M886 497l1 0M887 498l0 -1M887 498l1 0 0 -1 1 0 0 -2 1 0 0 -2 1 -1 0 -3 1 0 0 -3 1 -1 0 -2 1 -1 0 -2 1 0 0 -2 1 0 0 -2 3 0M899 477l0 -1M899 477l1 0M900 479l0 -2M900 479l1 0"/>
<path stroke="green" d="M901 482l0 -3M901 482l1 0M902 485l0 -3M902 485l1 0M903 488l0 -3M903 488l1 1M904 492l0 -3M904 492l1 0M905 494l0 -2M905 494l1 0M906 496l0 -2M906 496l1 1 2 0 0 -1 1 -1 0 -2 1 0 0 -3 1 0 0 -4 1 0 0 -3 1 0 0 -3 1 0 0 -2 1 0"/>
<path stroke="green" d="M916 478l0 -1 1 -1 2 0M919 477l0 -1M919 477l1 0M920 479l0 -2M920 479l1 0M921 481l0 -2M921 481l1 1M922 484l0 -2M922 484l1 1M923 488l0 -3M923 488l1 0M924 491l0 -3M924 491l1 0M925 494l0 -3M925 494l1 0M926 496l0 -2M926 496l1 0"/>
<path stroke="green" d="M927 497l0 -1M927 497l2 0 0 -1 1 0 0 -2 1 -1 0 -2 1 -1 0 -3 1 0 0 -3 1 0 0 -3 1 0 0 -3 1 0 0 -1 1 0 0 -1 2 0M939 477l0 -1M939 477l1 0M940 478l0 -1M940 478l1 0M941 480l0 -2M941 480l1 1M942 484l0 -3M942 484l1 0M943 487l0 -3"/>
<path stroke="green" d="M943 487l1 0M944 490l0 -3M944 490l1 0M945 493l0 -3M945 493l1 0M946 495l0 -2M946 495l1 0M947 497l0 -2M947 497l2 0 0 -1 1 0 0 -2 1 0 0 -3 1 0 0 -3 1 0 0 -3 1 -1 0 -3 1 0 0 -2 1 0 0 -2 1 0 0 -1 3 0M960 478l0 -2M960 478l1 0"/>
<path stroke="green" d="M961 480l0 -2M961 480l1 0M962 483l0 -3M962 483l1 0M963 486l0 -3M963 486l1 0M964 489l0 -3M964 489l1 0M965 491l0 -2"/>
<path stroke="#FFC0C5" d="M445 55l44 0"/>
<text stroke="none" fill="white" font-size="16" x="499" y="64">
tran5.v(/out_sim1)
</text>
<path stroke="#FFC0C5" d="M75 168l0 -69M75 168l1 10M76 248l0 -70M76 248l1 5M77 283l0 -30M77 283l1 2M78 300l0 -15M78 300l1 1M79 308l0 -7M79 308l1 0M80 312l0 -4M80 312l1 0M81 314l0 -2M81 314l1 1M82 317l0 -2M82 317l1 0M83 318l0 -1M83 318l1 0M84 320l0 -2"/>
<path stroke="#FFC0C5" d="M84 320l1 0M85 322l0 -2M85 322l1 0M86 323l0 -1M86 323l1 0M87 325l0 -2M87 325l1 0M88 326l0 -1M88 326l1 0M89 328l0 -2M89 328l1 0M90 329l0 -1M90 329l1 0M91 331l0 -2M91 331l1 0M92 332l0 -1M92 332l1 0M93 334l0 -2M93 334l1 0"/>
<path stroke="#FFC0C5" d="M94 335l0 -1M94 335l1 0M95 337l0 -2M95 337l1 0M96 338l0 -1M96 338l1 0M97 340l0 -2M97 340l1 0M98 341l0 -1M98 341l1 0M99 343l0 -2M99 343l1 0M100 344l0 -1M100 344l1 0M101 345l0 -1M101 345l1 1M102 347l0 -1M102 347l1 0M103 348l0 -1"/>
<path stroke="#FFC0C5" d="M103 348l1 1M104 350l0 -1M104 350l1 0M105 351l0 -1M105 351l1 0M106 353l0 -2M106 353l1 0M107 354l0 -1M107 354l1 0M108 355l0 -1M108 355l1 1M109 357l0 -1M109 357l1 0M110 358l0 -1M110 358l1 0M111 360l0 -2M111 360l1 0M112 361l0 -1"/>
<path stroke="#FFC0C5" d="M112 361l1 0M113 362l0 -1M113 362l1 0M114 364l0 -2M114 364l1 0M115 365l0 -1M115 365l1 0M116 366l0 -1M116 366l1 0M117 368l0 -2M117 368l1 0M118 369l0 -1M118 369l1 0M119 370l0 -1M119 370l1 0M120 371l0 -1M120 371l1 1M121 373l0 -1"/>
<path stroke="#FFC0C5" d="M121 373l1 0M122 374l0 -1M122 374l1 0M123 375l0 -1M123 375l1 0M124 377l0 -2M124 377l1 0M125 378l0 -1M125 378l1 0M126 379l0 -1M126 379l1 0M127 380l0 -1M127 380l1 1M128 382l0 -1M128 382l1 0M129 383l0 -1M129 383l1 0M130 384l0 -1"/>
<path stroke="#FFC0C5" d="M130 384l1 0M131 385l0 -1M131 385l1 1M132 387l0 -1M132 387l1 0M133 388l0 -1M133 388l1 0M134 389l0 -1M134 389l1 0M135 390l0 -1M135 390l1 0M136 391l0 -1M136 391l1 0M137 393l0 -2M137 393l1 0M138 394l0 -1M138 394l1 0M139 395l0 -1"/>
<path stroke="#FFC0C5" d="M139 395l1 0M140 396l0 -1M140 396l1 0M141 397l0 -1M141 397l1 0M142 398l0 -1M142 398l1 1M143 400l0 -1M143 400l1 0M144 401l0 -1M144 401l1 0M145 402l0 -1M145 402l1 0M146 403l0 -1M146 403l1 0M147 404l0 -1M147 404l1 0M148 405l0 -1"/>
<path stroke="#FFC0C5" d="M148 405l1 0M149 406l0 -1M149 406l1 1M150 408l0 -1M150 408l1 0M151 409l0 -1M151 409l1 0M152 410l0 -1M152 410l1 0M153 411l0 -1M153 411l1 0M154 412l0 -1M154 412l1 0M155 413l0 -1M155 413l1 0M156 414l0 -1M156 414l1 0M157 415l0 -1"/>
<path stroke="#FFC0C5" d="M157 415l1 0M158 416l0 -1M158 416l1 0M159 417l0 -1M159 417l1 0M160 418l0 -1M160 418l1 0M161 419l0 -1M161 419l1 0M162 420l0 -1M162 420l1 0M163 421l0 -1M163 421l1 1M164 423l0 -1M164 423l1 0M165 424l0 -1M165 424l1 0M166 425l0 -1"/>
<path stroke="#FFC0C5" d="M166 425l1 0M167 426l0 -1M167 426l1 0M168 427l0 -1M168 427l1 0M169 428l0 -1M169 428l1 0M170 429l0 -1M170 429l1 0M171 430l0 -1M171 430l1 0M172 431l0 -1M172 431l1 0M173 432l0 -1M173 432l1 0M174 433l0 -1M174 433l1 0M175 434l0 -1"/>
<path stroke="#FFC0C5" d="M175 434l1 0 1 1 1 0M178 436l0 -1M178 436l1 0M179 437l0 -1M179 437l1 0M180 438l0 -1M180 438l1 0M181 439l0 -1M181 439l1 0M182 440l0 -1M182 440l1 0M183 441l0 -1M183 441l1 0M184 442l0 -1M184 442l1 0M185 443l0 -1M185 443l1 0"/>
<path stroke="#FFC0C5" d="M186 444l0 -1M186 444l1 0M187 445l0 -1M187 445l1 0M188 446l0 -1M188 446l1 0M189 447l0 -1M189 447l1 0 1 1 1 0M192 449l0 -1M192 449l1 0M193 450l0 -1M193 450l1 0M194 451l0 -1M194 451l1 0M195 452l0 -1M195 452l1 0M196 453l0 -1"/>
<path stroke="#FFC0C5" d="M196 453l1 0M197 454l0 -1M197 454l2 0M199 455l0 -1M199 455l1 0M200 456l0 -1M200 456l1 0M201 457l0 -1M201 457l1 0M202 458l0 -1M202 458l1 0 1 1 1 0M205 460l0 -1M205 460l1 0M206 461l0 -1M206 461l1 0M207 462l0 -1M207 462l1 0"/>
<path stroke="#FFC0C5" d="M208 463l0 -1M208 463l2 0M210 464l0 -1M210 464l1 0M211 465l0 -1M211 465l1 0M212 466l0 -1M212 466l2 0M214 467l0 -1M214 467l1 0M215 468l0 -1M215 468l2 0M217 469l0 -1M217 469l1 0M218 470l0 -1M218 470l1 0 1 1 1 0M221 472l0 -1"/>
<path stroke="#FFC0C5" d="M221 472l7 0M228 473l0 -1M228 473l9 0M237 474l0 -1M237 474l3 0M240 475l0 -1M240 475l1 0M241 476l0 -1M241 476l1 0 0 -1 1 0 0 -1 4 0M247 475l0 -1M247 475l10 0M257 476l0 -1M257 476l1 0M258 477l0 -1M258 477l1 0M259 480l0 -3"/>
<path stroke="#FFC0C5" d="M259 480l1 1M260 487l0 -6M260 487l1 0M261 490l0 -3M261 490l1 0 0 -5 1 0 0 -7 1 -1 0 -4 1 0M265 474l0 -1M265 474l1 0M266 475l0 -1M266 475l1 0M267 476l0 -1M267 476l6 0M273 477l0 -1M273 477l4 0M277 478l0 -1M277 478l1 0"/>
<path stroke="#FFC0C5" d="M278 484l0 -6M278 484l1 1M279 504l0 -19M279 504l1 3M280 560l0 -53M280 560l1 7M281 624l0 -57M281 624l1 3M282 630l0 -17 1 -5 0 -78 1 -10 0 -46 1 -1 0 -14 1 -1M286 462l0 -4M286 462l1 1M287 473l0 -10M287 473l1 1M288 476l0 -2"/>
<path stroke="#FFC0C5" d="M288 476l4 0M292 477l0 -1M292 477l4 0M296 478l0 -1M296 478l1 0M297 482l0 -4M297 482l1 1M298 503l0 -20M298 503l1 3M299 593l0 -87M299 593l1 13M300 660l0 -54M300 660l1 0 0 -5 1 0 0 -1 2 0 0 -60 1 -20 0 -114 1 -5 0 -24 1 -1"/>
<path stroke="#FFC0C5" d="M307 442l0 -12M307 442l1 2M308 466l0 -22M308 466l1 2M309 474l0 -6M309 474l1 1 2 0M312 476l0 -1M312 476l4 0M316 478l0 -2M316 478l1 0M317 486l0 -8M317 486l1 2M318 526l0 -38M318 526l1 9M319 660l0 -125M319 660l1 1 0 -7 2 0"/>
<path stroke="#FFC0C5" d="M322 654l1 -1 1 0 0 -1 1 0 0 -55 1 -29 0 -130 1 -6 0 -19 1 1M328 435l0 -21M328 435l1 2M329 461l0 -24M329 461l1 2M330 473l0 -10M330 473l1 0M331 474l0 -1M331 474l3 0M334 475l0 -1M334 475l2 0M336 477l0 -2M336 477l1 1M337 491l0 -13"/>
<path stroke="#FFC0C5" d="M337 491l1 2M338 558l0 -65M338 558l1 14M339 661l0 -89M339 661l1 0 0 -8 1 0 0 -1 2 0 0 -1 1 0 0 -1 1 0 0 -2 1 0 0 -134 1 -11 0 -94 1 -3M348 407l0 -6M348 407l1 2M349 437l0 -28M349 437l1 2M350 458l0 -19M350 458l1 2M351 469l0 -9"/>
<path stroke="#FFC0C5" d="M351 469l1 1M352 473l0 -3M352 473l3 0M355 474l0 -1M355 474l1 0M356 477l0 -3M356 477l1 0M357 492l0 -15M357 492l1 3M358 571l0 -76M358 571l1 16M359 662l0 -75M359 656l1 0 0 -5 1 0 0 -2 1 0 0 -1 1 0 0 -1 1 -1 0 -1 1 0 0 -3"/>
<path stroke="#FFC0C5" d="M365 642l1 0 0 -3 1 -1 0 -199 1 -7 0 -42 1 0M369 412l0 -22M369 412l1 3M370 439l0 -24M370 439l1 2M371 455l0 -14M371 455l1 1M372 464l0 -8M372 464l1 0M373 468l0 -4M373 468l1 1M374 471l0 -2M374 471l1 0M375 472l0 -1M375 472l1 0"/>
<path stroke="#FFC0C5" d="M376 475l0 -3M376 475l1 1M377 491l0 -15M377 491l1 3M378 574l0 -80M378 574l1 16M379 662l0 -72M379 655l1 -1 0 -7 1 0 0 -3 1 -1 0 -2 1 0 0 -2 1 -1 0 -1 1 -1 0 -2 1 0 0 -2 1 -1 0 -120 1 -10 0 -109 1 -4M389 390l0 -9M389 390l1 3"/>
<path stroke="#FFC0C5" d="M390 419l0 -26M390 419l1 2M391 440l0 -19M391 440l1 1M392 452l0 -11M392 452l1 0M393 458l0 -6M393 458l1 1M394 462l0 -3M394 462l1 0M395 466l0 -4M395 466l1 0M396 473l0 -7M396 473l1 1M397 489l0 -15M397 489l1 2M398 564l0 -73"/>
<path stroke="#FFC0C5" d="M398 564l1 15M399 662l0 -83M399 654l1 -1 0 -10 1 -1 0 -5 1 -1 0 -3 1 0 0 -3 1 0 0 -2 1 0 0 -2 1 0 0 -2 1 -1 0 -4 1 -1 0 -205 1 -9 0 -31 1 1M410 399l0 -25M410 399l1 3M411 424l0 -22M411 424l1 2M412 439l0 -13M412 439l1 1"/>
<path stroke="#FFC0C5" d="M413 447l0 -7M413 447l1 1M414 452l0 -4M414 452l1 0M415 457l0 -5M415 457l1 0M416 467l0 -10M416 467l1 1M417 485l0 -17M417 485l1 2M418 548l0 -61M418 548l1 14M419 662l0 -100M419 656l1 -1 0 -17 1 -1 0 -7 1 -1 0 -4 1 0 0 -3"/>
<path stroke="#FFC0C5" d="M423 622l1 0 0 -2 1 0 0 -2 1 -1 0 -2 1 0 0 -3 1 0 0 -161 1 -3 0 -81 1 -2M430 379l0 -14M430 379l1 3M431 407l0 -25M431 407l1 2M432 426l0 -17M432 426l1 1M433 437l0 -10M433 437l1 0M434 442l0 -5M434 442l1 1M435 447l0 -4M435 447l1 1"/>
<path stroke="#FFC0C5" d="M436 456l0 -8M436 456l1 2M437 481l0 -23M437 481l1 0M438 536l0 -55M438 536l1 12M439 661l0 -113M439 661l1 0 0 -25 1 -1 0 -11 1 0 0 -6 1 -1 0 -3 1 0 0 -2 1 0 0 -2 1 0 0 -2 1 -1 0 -2 1 0 0 -54 1 -30 0 -149 1 -5 0 -9M450 363l1 2"/>
<path stroke="#FFC0C5" d="M451 390l0 -25M451 390l1 3M452 412l0 -19M452 412l1 2M453 426l0 -12M453 426l1 1M454 433l0 -6M454 433l1 0M455 438l0 -5M455 438l1 1M456 446l0 -7M456 446l1 2M457 473l0 -25M457 473l1 1M458 513l0 -39M458 513l1 8M459 661l0 -140"/>
<path stroke="#FFC0C5" d="M459 661l1 0 0 -26 1 -2 0 -15 1 0 0 -7 1 0 0 -4 1 0 0 -3 1 0 0 -2 1 0 0 -2 1 0 0 -2 1 0 0 -4 1 -1 0 -199 1 -9 0 -34 1 1M471 376l0 -24M471 376l1 2M472 400l0 -22M472 400l1 2M473 415l0 -13M473 415l1 1M474 424l0 -8M474 424l1 0"/>
<path stroke="#FFC0C5" d="M475 429l0 -5M475 429l1 1M476 438l0 -8M476 438l1 1M477 461l0 -22M477 461l1 3M478 500l0 -36M478 500l1 5M479 658l0 -153M479 658l1 2M480 661l0 -26 1 -2 0 -18 1 -1 0 -9 1 0 0 -4 1 -1 0 -2 1 -1 0 -2 1 0 0 -2 1 0 0 -2 1 0"/>
<path stroke="#FFC0C5" d="M488 591l0 -3 1 0 0 -163 1 -8 0 -72 1 0M491 360l0 -15M491 360l1 2M492 386l0 -24M492 386l1 3M493 404l0 -15M493 404l1 2M494 415l0 -9M494 415l1 1M495 421l0 -5M495 421l1 1M496 428l0 -6M496 428l1 1M497 446l0 -17M497 446l1 3"/>
<path stroke="#FFC0C5" d="M498 493l0 -44M498 493l1 5M499 614l0 -116M499 614l1 20M500 661l0 -27M500 638l1 -3 0 -22 1 -1 0 -12 1 0 0 -5 1 -1 0 -3 1 0 0 -2 1 0 0 -2 1 0 0 -2 1 0 0 -3 1 0 0 -108 1 -2 0 -124 1 -4M511 346l0 -7M511 346l1 2M512 373l0 -25"/>
<path stroke="#FFC0C5" d="M512 373l1 2M513 395l0 -20M513 395l1 1M514 406l0 -10M514 406l1 1M515 413l0 -6M515 413l1 1M516 420l0 -6M516 420l1 1M517 436l0 -15M517 436l1 3M518 482l0 -43M518 482l1 0M519 560l0 -78M519 560l1 16M520 661l0 -85M520 643l1 -4"/>
<path stroke="#FFC0C5" d="M521 639l0 -27 1 -2 0 -13 1 -1 0 -6 1 -1 0 -3 1 -1 0 -2 1 0 0 -2 1 0 0 -2 1 0 0 -2 1 0 0 -10 1 -7 0 -202 1 -6 0 -19M531 335l1 2M532 360l0 -23M532 360l1 3M533 385l0 -22M533 385l1 1M534 398l0 -12M534 398l1 1M535 406l0 -7"/>
<path stroke="#FFC0C5" d="M535 406l1 0M536 412l0 -6M536 412l1 1M537 424l0 -11M537 424l1 2M538 469l0 -43M538 469l1 2M539 538l0 -67M539 538l1 13M540 661l0 -110M540 652l1 -2 0 -37 1 -2 0 -16 1 -1 0 -9 1 0 0 -4 1 -1 0 -2 1 0 0 -2 1 0 0 -2 1 0 0 -2"/>
<path stroke="#FFC0C5" d="M548 572l1 -1 0 -3 1 0 0 -182 1 -12 0 -46 1 0M552 349l0 -21M552 349l1 3M553 374l0 -22M553 374l1 2M554 390l0 -14M554 390l1 1M555 399l0 -8M555 399l1 0M556 406l0 -7M556 406l1 0M557 416l0 -10M557 416l1 2M558 448l0 -30M558 448l1 5"/>
<path stroke="#FFC0C5" d="M559 512l0 -59M559 512l1 9M560 661l0 -140M560 661l1 0 0 -44 1 -3 0 -22 1 -1 0 -9 1 -1 0 -5 1 0 0 -3 1 0 0 -2 1 0 0 -2 1 0 0 -2 1 0 0 -3 1 0 0 -140 1 -14 0 -85 1 -1M572 337l0 -13M572 337l1 3M573 363l0 -23M573 363l1 2"/>
<path stroke="#FFC0C5" d="M574 381l0 -16M574 381l1 1M575 392l0 -10M575 392l1 1M576 399l0 -6M576 399l1 1M577 408l0 -8M577 408l1 1M578 432l0 -23M578 432l1 4M579 495l0 -59M579 495l1 6M580 640l0 -139M580 640l1 13M581 661l0 -37 1 -4 0 -28 1 -2 0 -11"/>
<path stroke="#FFC0C5" d="M583 579l1 -1 0 -5 1 -1 0 -3 1 0 0 -2 1 0 0 -2 1 0 0 -2 1 0 0 -3 1 0 0 -98 1 -2 0 -129 1 -4M592 328l0 -8M592 328l1 2M593 354l0 -24M593 354l1 2M594 374l0 -18M594 374l1 1M595 385l0 -10M595 385l1 1M596 393l0 -7M596 393l1 1"/>
<path stroke="#FFC0C5" d="M597 401l0 -7M597 401l1 1M598 421l0 -19M598 421l1 3M599 482l0 -58M599 482l1 0M600 597l0 -115M600 597l1 20M601 661l0 -44M601 632l1 -5 0 -34 1 -2 0 -14 1 -1 0 -6 1 -1 0 -3 1 -1 0 -2 1 0 0 -2 1 0 0 -2 1 0 0 -2 1 0 0 -16"/>
<path stroke="#FFC0C5" d="M610 541l1 -8 0 -189 1 -7 0 -21M612 319l1 1M613 344l0 -24M613 344l1 2M614 366l0 -20M614 366l1 1M615 379l0 -12M615 379l1 1M616 388l0 -8M616 388l1 0M617 395l0 -7M617 395l1 1M618 410l0 -14M618 410l1 3M619 459l0 -46M619 459l1 5"/>
<path stroke="#FFC0C5" d="M620 542l0 -78M620 542l1 14M621 661l0 -105M621 643l1 -4 0 -43 1 -2 0 -18 1 -1 0 -8 1 0 0 -4 1 -1 0 -2 1 -1 0 -1 1 -1 0 -1 1 0 0 -2 1 -1 0 -3 1 0 0 -181 1 -12 0 -44 1 0M633 333l0 -20M633 333l1 3M634 358l0 -22M634 358l1 1"/>
<path stroke="#FFC0C5" d="M635 373l0 -14M635 373l1 1M636 383l0 -9M636 383l1 0M637 390l0 -7M637 390l1 0M638 402l0 -12M638 402l1 1M639 438l0 -35M639 438l1 6M640 518l0 -74M640 518l1 10M641 661l0 -133M641 655l1 -1 0 -52 1 -3 0 -22 1 -1 0 -10 1 -1"/>
<path stroke="#FFC0C5" d="M645 565l0 -5 1 0 0 -3 1 0 0 -2 1 -1 0 -1 1 0 0 -2 1 0 0 -3 1 -1 0 -149 1 -11 0 -77 1 0M653 324l0 -15M653 324l1 2M654 349l0 -23M654 349l1 2M655 367l0 -16M655 367l1 1M656 378l0 -10M656 378l1 0M657 385l0 -7M657 385l1 0"/>
<path stroke="#FFC0C5" d="M658 395l0 -10M658 395l1 1M659 423l0 -27M659 423l1 4M660 495l0 -68M660 495l1 7M661 660l0 -158M661 660l1 1 0 -53 1 -4 0 -26 1 -2 0 -11 1 -1 0 -6 1 0 0 -4 1 0 0 -2 1 0 0 -2 1 0 0 -2 1 0 0 -2 1 0 0 -110 1 -6 0 -116 1 -3"/>
<path stroke="#FFC0C5" d="M673 315l0 -8M673 315l1 2M674 341l0 -24M674 341l1 2M675 360l0 -17M675 360l1 2M676 373l0 -11M676 373l1 0M677 380l0 -7M677 380l1 1M678 389l0 -8M678 389l1 1M679 410l0 -20M679 410l1 3M680 482l0 -69M680 482l1 1M681 601l0 -118"/>
<path stroke="#FFC0C5" d="M681 601l1 21M682 661l0 -43 1 -4 0 -33 1 -2 0 -14 1 -1 0 -7 1 -1 0 -4 1 0 0 -2 1 0 0 -2 1 0 0 -2 1 0 0 -2 1 -1 0 -44 1 -9 0 -165 1 -6 0 -15M693 307l1 2M694 332l0 -23M694 332l1 2M695 355l0 -21M695 355l1 2M696 368l0 -11"/>
<path stroke="#FFC0C5" d="M696 368l1 1M697 376l0 -7M697 376l1 0M698 383l0 -7M698 383l1 1M699 402l0 -18M699 402l1 3M700 459l0 -54M700 459l1 6M701 565l0 -100M701 565l1 17M702 661l0 -79M702 632l1 -3 0 -43 1 -2 0 -19 1 -1 0 -9 1 0 0 -4 1 -1 0 -2"/>
<path stroke="#FFC0C5" d="M707 548l1 0 0 -2 1 0 0 -2 1 0 0 -2 1 0 0 -4 1 -1 0 -190 1 -10 0 -35 1 1M714 325l0 -22M714 325l1 3M715 348l0 -20M715 348l1 2M716 363l0 -13M716 363l1 1M717 372l0 -8M717 372l1 0M718 380l0 -8M718 380l1 0M719 393l0 -13M719 393l1 3"/>
<path stroke="#FFC0C5" d="M720 437l0 -41M720 437l1 7M721 527l0 -83M721 527l1 13M722 661l0 -121M722 647l1 -3 0 -53 1 -3 0 -22 1 -1 0 -10 1 -1 0 -5 1 0 0 -3 1 0 0 -2 1 0 0 -2 1 0 0 -2 1 0 0 -3 1 0 0 -155 1 -14 0 -68 1 0M734 316l0 -16M734 316l1 3"/>
<path stroke="#FFC0C5" d="M735 341l0 -22M735 341l1 2M736 358l0 -15M736 358l1 1M737 368l0 -9M737 368l1 1M738 375l0 -6M738 375l1 1M739 386l0 -10M739 386l1 2M740 418l0 -30M740 418l1 5M741 502l0 -79M741 502l1 8M742 661l0 -151M742 661l1 0 0 -61 1 -4"/>
<path stroke="#FFC0C5" d="M744 596l0 -27 1 -2 0 -12 1 -1 0 -6 1 0 0 -3 1 -1 0 -2 1 0 0 -1 1 -1 0 -1 1 -1 0 -2 1 0 0 -113 1 -15 0 -105 1 -2M754 308l0 -10M754 308l1 2M755 334l0 -24M755 334l1 2M756 353l0 -17M756 353l1 1M757 364l0 -10M757 364l1 1"/>
<path stroke="#FFC0C5" d="M758 372l0 -7M758 372l1 0M759 381l0 -9M759 381l1 1M760 405l0 -23M760 405l1 4M761 485l0 -76M761 485l1 2M762 634l0 -147M762 634l1 21M763 661l0 -52 1 -4 0 -33 1 -2 0 -14 1 -1 0 -7 1 -1 0 -3 1 -1 0 -2 1 0 0 -2 1 0 0 -2 1 0"/>
<path stroke="#FFC0C5" d="M771 537l0 -2 1 0 0 -68 1 -1 0 -156 1 -4 0 -9M774 302l1 2M775 327l0 -23M775 327l1 2M776 348l0 -19M776 348l1 1M777 361l0 -12M777 361l1 1M778 369l0 -7M778 369l1 0M779 377l0 -8M779 377l1 1M780 396l0 -18M780 396l1 3M781 463l0 -64"/>
<path stroke="#FFC0C5" d="M781 463l1 4M782 571l0 -104M782 571l1 19M783 661l0 -71M783 621l1 -5 0 -39 1 -3 0 -17 1 -1 0 -8 1 -1 0 -4 1 -1 0 -2 1 0 0 -2 1 0 0 -2 1 0 0 -2 1 0 0 -5 1 -1 0 -194 1 -9 0 -30M794 297l1 1M795 320l0 -22M795 320l1 2M796 342l0 -20"/>
<path stroke="#FFC0C5" d="M796 342l1 2M797 356l0 -12M797 356l1 1M798 366l0 -9M798 366l1 0M799 373l0 -7M799 373l1 1M800 388l0 -14M800 388l1 2M801 435l0 -45M801 435l1 8M802 538l0 -95M802 538l1 15M803 661l0 -108M803 642l1 -6 0 -53 1 -3 0 -21 1 -2"/>
<path stroke="#FFC0C5" d="M806 557l0 -9 1 -1 0 -5 1 0 0 -3 1 0 0 -2 1 0 0 -2 1 0 0 -2 1 0 0 -3 1 -1 0 -167 1 -13 0 -55 1 0M815 313l0 -19M815 313l1 2M816 337l0 -22M816 337l1 2M817 353l0 -14M817 353l1 1M818 363l0 -9M818 363l1 0M819 370l0 -7M819 370l1 1"/>
<path stroke="#FFC0C5" d="M820 382l0 -11M820 382l1 2M821 418l0 -34M821 418l1 6M822 506l0 -82M822 506l1 9M823 661l0 -146M823 656l1 -1 0 -62 1 -3 0 -27 1 -2 0 -13 1 -1 0 -5 1 0 0 -3 1 -1 0 -2 1 0 0 -2 1 0 0 -1 1 -1 0 -2 1 0 0 -134 1 -13 0 -86 1 -2"/>
<path stroke="#FFC0C5" d="M835 306l0 -13M835 306l1 2M836 331l0 -23M836 331l1 2M837 349l0 -16M837 349l1 1M838 359l0 -9M838 359l1 1M839 367l0 -7M839 367l1 1M840 377l0 -9M840 377l1 2M841 405l0 -26M841 405l1 5M842 490l0 -80M842 490l1 3M843 649l0 -156"/>
<path stroke="#FFC0C5" d="M843 649l1 8M844 661l0 -58 1 -4 0 -32 1 -2 0 -16 1 -1 0 -6 1 -1 0 -3 1 0 0 -2 1 0 0 -2 1 0 0 -2 1 0 0 -2 1 -1 0 -86 1 -5 0 -133 1 -4 0 -9M855 299l1 2M856 325l0 -24M856 325l1 2M857 344l0 -17M857 344l1 2M858 356l0 -10"/>
<path stroke="#FFC0C5" d="M858 356l1 1M859 364l0 -7M859 364l1 1M860 373l0 -8M860 373l1 1M861 394l0 -20M861 394l1 4M862 471l0 -73M862 471l1 1M863 598l0 -126M863 598l1 21M864 661l0 -46 1 -5 0 -38 1 -3 0 -17 1 -1 0 -9 1 0 0 -4 1 -1 0 -2 1 0 0 -2"/>
<path stroke="#FFC0C5" d="M870 533l1 0 0 -2 1 0 0 -2 1 0 0 -23 1 -6 0 -184 1 -7 0 -18M875 293l1 2M876 317l0 -22M876 317l1 2M877 341l0 -22M877 341l1 1M878 353l0 -11M878 353l1 1M879 362l0 -8M879 362l1 0M880 369l0 -7M880 369l1 1M881 385l0 -15M881 385l1 3"/>
<path stroke="#FFC0C5" d="M882 444l0 -56M882 444l1 9M883 539l0 -86M883 539l1 15M884 661l0 -107M884 632l1 -4 0 -51 1 -3 0 -20 1 -1 0 -10 1 0 0 -5 1 0 0 -3 1 0 0 -2 1 0 0 -2 1 0 0 -2 1 0 0 -4 1 -1 0 -185 1 -10 0 -39 1 1M896 310l0 -19M896 310l1 2"/>
<path stroke="#FFC0C5" d="M897 336l0 -24M897 336l1 1M898 350l0 -13M898 350l1 1M899 359l0 -8M899 359l1 1M900 366l0 -6M900 366l1 1M901 379l0 -12M901 379l1 2M902 424l0 -43M902 424l1 7M903 515l0 -84M903 515l1 11M904 661l0 -135M904 649l1 -4 0 -59"/>
<path stroke="#FFC0C5" d="M905 586l1 -4 0 -25 1 -1 0 -12 1 0 0 -6 1 -1 0 -2 1 -1 0 -2 1 0 0 -1 1 -1 0 -1 1 -1 0 -2 1 -1 0 -157 1 -14 0 -63 1 -1M916 304l0 -14M916 304l1 2M917 329l0 -23M917 329l1 2M918 346l0 -15M918 346l1 1M919 357l0 -10M919 357l1 0"/>
<path stroke="#FFC0C5" d="M920 364l0 -7M920 364l1 1M921 375l0 -10M921 375l1 1M922 405l0 -29M922 405l1 5M923 494l0 -84M923 494l1 4M924 661l0 -163M924 661l1 0 0 -66 1 -4 0 -30 1 -2 0 -13 1 -1 0 -7 1 0 0 -4 1 0 0 -2 1 0 0 -2 1 0 0 -1 1 -1 0 -2 1 0"/>
<path stroke="#FFC0C5" d="M934 526l0 -109 1 -12 0 -108 1 -3M936 298l0 -9M936 298l1 3M937 324l0 -23M937 324l1 2M938 343l0 -17M938 343l1 1M939 354l0 -10M939 354l1 1M940 361l0 -6M940 361l1 1M941 371l0 -9M941 371l1 1M942 395l0 -23M942 395l1 4M943 475l0 -76"/>
<path stroke="#FFC0C5" d="M943 475l1 2M944 614l0 -137M944 614l1 21M945 661l0 -51 1 -5 0 -38 1 -2 0 -18 1 -1 0 -7 1 -1 0 -3 1 -1 0 -2 1 0 0 -2 1 0 0 -2 1 0 0 -2 1 0 0 -52 1 -1 0 -166 1 -5 0 -14M956 292l1 2M957 316l0 -22M957 316l1 3M958 339l0 -20"/>
<path stroke="#FFC0C5" d="M958 339l1 2M959 352l0 -11M959 352l1 0M960 359l0 -7M960 359l1 1M961 367l0 -7M961 367l1 1M962 388l0 -20M962 388l1 3M963 450l0 -59M963 450l1 10M964 559l0 -99M964 559l1 17M965 661l0 -85"/>
</svg>
