<?xml version="1.0" standalone="yes"?>
<!DOCTYPE svg PUBLIC "-//W3C//DTD SVG 1.1//EN"
 "http://www.w3.org/Graphics/SVG/1.1/DTD/svg11.dtd">
<svg xmlns="http://www.w3.org/2000/svg" version="1.1"
  width="100%" height="100%" viewBox="0 0 1024 768"
  style="fill: none; font-family: Helvetica;
 font: Helvetica;
">

<!-- Creator: NGspice -->

<rect x="0" y="0" width="1024" height="768" fill="black" stroke="none"/>
<text stroke="none" fill="white" font-size="16" x="358" y="752">
time (s)
</text>
<text transform="rotate(-90, 20, 456)"  stroke="none" fill="white" font-size="16" x="20" y="456">
voltage (v)
</text>
<text stroke="none" fill="white" font-size="16" x="10" y="16">
tran5: r5 drive sweep
</text>
<path stroke="white" d="M75 704l0 -639"/>
<text stroke="none" fill="white" font-size="16" x="60" y="728">
0.0
</text>
<path stroke="white" stroke-dasharray="1,2" d="M164 704l0 -639"/>
<text stroke="none" fill="white" font-size="16" x="144" y="728">
10.0
</text>
<path stroke="white" stroke-dasharray="1,2" d="M253 704l0 -639"/>
<text stroke="none" fill="white" font-size="16" x="233" y="728">
20.0
</text>
<path stroke="white" stroke-dasharray="1,2" d="M342 704l0 -639"/>
<text stroke="none" fill="white" font-size="16" x="322" y="728">
30.0
</text>
<path stroke="white" stroke-dasharray="1,2" d="M431 704l0 -639"/>
<text stroke="none" fill="white" font-size="16" x="411" y="728">
40.0
</text>
<path stroke="white" stroke-dasharray="1,2" d="M520 704l0 -639"/>
<text stroke="none" fill="white" font-size="16" x="500" y="728">
50.0
</text>
<path stroke="white" stroke-dasharray="1,2" d="M609 704l0 -639"/>
<text stroke="none" fill="white" font-size="16" x="589" y="728">
60.0
</text>
<path stroke="white" stroke-dasharray="1,2" d="M698 704l0 -639"/>
<text stroke="none" fill="white" font-size="16" x="678" y="728">
70.0
</text>
<path stroke="white" stroke-dasharray="1,2" d="M787 704l0 -639"/>
<text stroke="none" fill="white" font-size="16" x="767" y="728">
80.0
</text>
<path stroke="white" stroke-dasharray="1,2" d="M876 704l0 -639"/>
<text stroke="none" fill="white" font-size="16" x="856" y="728">
90.0
</text>
<path stroke="white" stroke-dasharray="1,2" d="M965 704l0 -639"/>
<text stroke="none" fill="white" font-size="16" x="940" y="728">
100.0
</text>
<text stroke="none" fill="white" font-size="16" x="614" y="752">
ms
</text>
<path stroke="white" d="M75 704l890 0"/>
<text stroke="none" fill="white" font-size="16" x="43" y="712">
0.0
</text>
<path stroke="white" stroke-dasharray="1,2" d="M75 633l890 0"/>
<text stroke="none" fill="white" font-size="16" x="43" y="641">
1.0
</text>
<path stroke="white" stroke-dasharray="1,2" d="M75 562l890 0"/>
<text stroke="none" fill="white" font-size="16" x="43" y="570">
2.0
</text>
<path stroke="white" stroke-dasharray="1,2" d="M75 491l890 0"/>
<text stroke="none" fill="white" font-size="16" x="43" y="499">
3.0
</text>
<path stroke="white" stroke-dasharray="1,2" d="M75 420l890 0"/>
<text stroke="none" fill="white" font-size="16" x="43" y="428">
4.0
</text>
<path stroke="white" stroke-dasharray="1,2" d="M75 349l890 0"/>
<text stroke="none" fill="white" font-size="16" x="43" y="357">
5.0
</text>
<path stroke="white" stroke-dasharray="1,2" d="M75 278l890 0"/>
<text stroke="none" fill="white" font-size="16" x="43" y="286">
6.0
</text>
<path stroke="white" stroke-dasharray="1,2" d="M75 207l890 0"/>
<text stroke="none" fill="white" font-size="16" x="43" y="215">
7.0
</text>
<path stroke="white" stroke-dasharray="1,2" d="M75 136l890 0"/>
<text stroke="none" fill="white" font-size="16" x="43" y="144">
8.0
</text>
<path stroke="white" stroke-dasharray="1,2" d="M75 65l890 0"/>
<text stroke="none" fill="white" font-size="16" x="43" y="73">
9.0
</text>
<text stroke="none" fill="white" font-size="16" x="10" y="32">
V
</text>
<path stroke="red" d="M445 23l44 0"/>
<text stroke="none" fill="white" font-size="16" x="499" y="32">
tran1.v(/out_sim3)
</text>
<path stroke="red" d="M75 68l34 0M109 69l0 -1M109 69l2 0M111 70l0 -1M111 70l1 1M112 72l0 -1M112 72l1 1M113 75l0 -2M113 75l1 1M114 79l0 -3M114 79l1 1M115 85l0 -5M115 85l1 0M116 92l0 -7M116 92l1 1M117 101l0 -8M117 101l1 1M118 110l0 -8M118 110l1 1"/>
<path stroke="red" d="M119 121l0 -10M119 121l1 1M120 132l0 -10M120 132l1 1M121 144l0 -11M121 144l1 1M122 156l0 -11M122 156l1 1M123 168l0 -11M123 168l1 1M124 179l0 -10M124 179l1 1M125 192l0 -12M125 192l1 1M126 203l0 -10M126 203l1 0M127 213l0 -10"/>
<path stroke="red" d="M127 213l1 1M128 223l0 -9M128 223l1 1M129 234l0 -10M129 234l1 1M130 243l0 -8M130 243l1 1M131 252l0 -8M131 252l1 1M132 261l0 -8M132 261l1 0M133 269l0 -8M133 269l1 1M134 277l0 -7M134 277l1 1M135 284l0 -6M135 284l1 1M136 291l0 -6"/>
<path stroke="red" d="M136 291l1 0M137 297l0 -6M137 297l1 1M138 304l0 -6M138 304l1 0M139 309l0 -5M139 309l1 1M140 315l0 -5M140 315l1 0M141 319l0 -4M141 319l1 1M142 325l0 -5M142 325l1 0M143 329l0 -4M143 329l1 0M144 333l0 -4M144 333l1 0M145 337l0 -4"/>
<path stroke="red" d="M145 337l1 0M146 341l0 -4M146 341l1 0M147 344l0 -3M147 344l1 0M148 347l0 -3M148 347l1 1M149 350l0 -2M149 350l1 1M150 353l0 -2M150 353l1 1M151 356l0 -2M151 356l1 0M152 358l0 -2M152 358l1 1M153 361l0 -2M153 361l1 0M154 363l0 -2"/>
<path stroke="red" d="M154 363l1 0M155 365l0 -2M155 365l1 0M156 367l0 -2M156 367l1 0M157 369l0 -2M157 369l1 0M158 370l0 -1M158 370l1 0M159 372l0 -2M159 372l1 0M160 373l0 -1M160 373l1 0M161 375l0 -2M161 375l1 0M162 376l0 -1M162 376l1 0M163 377l0 -1"/>
<path stroke="red" d="M163 377l1 0M164 378l0 -1M164 378l1 0M165 379l0 -1M165 379l1 0M166 380l0 -1M166 380l1 0M167 381l0 -1M167 381l1 0M168 382l0 -1M168 382l1 0M169 383l0 -1M169 383l1 0M170 384l0 -1M170 384l1 0M171 385l0 -1M171 385l2 0M173 386l0 -1"/>
<path stroke="red" d="M173 386l1 0M174 387l0 -1M174 387l2 0M176 388l0 -1M176 388l2 0M178 389l0 -1M178 389l2 0M180 390l0 -1M180 390l2 0M182 391l0 -1M182 391l2 0M184 392l0 -1M184 392l2 0 1 1 2 0M189 394l0 -1M189 394l2 0M191 395l0 -1M191 395l3 0"/>
<path stroke="red" d="M194 396l0 -1M194 396l2 0M196 397l0 -1M196 397l2 0M198 398l0 -1M198 398l2 0M200 399l0 -1M200 399l2 0M202 400l0 -1M202 400l1 0M203 401l0 -1M203 401l2 0M205 402l0 -1M205 402l1 0M206 403l0 -1M206 403l1 0M207 404l0 -1M207 404l1 0"/>
<path stroke="red" d="M208 405l0 -1M208 405l1 0M209 406l0 -1M209 406l1 0M210 407l0 -1M210 407l1 1M211 409l0 -1M211 409l1 0M212 410l0 -1M212 410l1 0M213 412l0 -2M213 412l1 0M214 414l0 -2M214 414l1 0M215 416l0 -2M215 416l1 0M216 419l0 -3M216 419l1 0"/>
<path stroke="red" d="M217 422l0 -3M217 422l1 0M218 426l0 -4M218 426l1 1M219 433l0 -6M219 433l1 1M220 444l0 -10M220 444l1 1M221 467l0 -22M221 467l1 5M222 492l0 -20M222 492l1 1M223 503l0 -10M223 503l1 1M224 521l0 -17M224 521l1 2M225 544l0 -21"/>
<path stroke="red" d="M225 544l1 2M226 565l0 -19M226 565l1 1M227 584l0 -18M227 584l1 1M228 599l0 -14M228 599l1 1M229 613l0 -13M229 613l1 1M230 625l0 -11M230 625l1 1M231 637l0 -11M231 637l1 1M232 647l0 -9M232 647l1 0M233 655l0 -8M233 655l1 0M234 656l0 -1"/>
<path stroke="red" d="M234 656l1 1 1 0M236 658l0 -1M236 658l1 0M237 659l0 -1M237 659l1 0M238 660l0 -1M238 660l1 0M239 661l0 -1M239 661l1 0M240 662l0 -1M240 662l3 0 0 -1 1 0 0 -2 2 0M246 660l0 -1M246 660l3 0M249 661l0 -1M249 661l8 0M257 662l0 -1"/>
<path stroke="red" d="M257 662l1 0 1 1 5 0 0 -1 1 0 0 -2 1 0 0 -2 1 0M267 659l0 -1M267 659l1 0M268 660l0 -1M268 660l8 0M276 661l0 -1M276 661l1 0M277 662l0 -1M277 662l1 1 2 0M280 664l0 -1M280 664l2 0 0 -1 3 0 0 -2 1 0 0 -11 1 -4 0 -58 1 -3M288 592l0 -10"/>
<path stroke="red" d="M288 592l1 3M289 624l0 -29M289 624l1 2M290 641l0 -15M290 641l1 0M291 643l0 -2M291 643l1 0 0 -1 2 0M294 648l0 -6M294 648l1 2M295 658l0 -8M295 658l1 1M296 661l0 -2M296 661l1 1M297 663l0 -1M297 663l2 0M299 664l0 -1M299 664l4 0"/>
<path stroke="red" d="M303 664l0 -1 2 0 0 -1 1 0 0 -7 1 -2 0 -121 1 -8 0 -57 1 -3 0 -8M309 460l1 1M310 486l0 -25M310 486l1 3M311 512l0 -23M311 512l1 2M312 530l0 -16M312 530l1 1M313 548l0 -17M313 548l1 2M314 586l0 -36M314 586l1 6M315 658l0 -66"/>
<path stroke="red" d="M315 658l1 1M316 662l0 -3M316 662l1 0M317 663l0 -1M317 663l2 0M319 664l0 -1M319 664l5 0 0 -1 1 0 0 -1 1 0 0 -3 1 -1 0 -120 1 -12 0 -97 1 -7 0 -53 1 -2 0 -6M330 363l1 1M331 386l0 -22M331 386l1 3M332 422l0 -33M332 422l1 3"/>
<path stroke="red" d="M333 469l0 -44M333 469l1 6M334 553l0 -78M334 553l1 9M335 657l0 -95M335 657l1 1M336 662l0 -4M336 662l1 0M337 663l0 -1M337 663l2 0M339 664l0 -1M339 664l5 0 0 -1 1 0 0 -1 1 0 0 -2 1 -1 0 -122 1 -13 0 -117 1 -9 0 -72 1 -5 0 -30"/>
<path stroke="red" d="M350 291l1 -1M351 298l0 -9M351 298l1 3M352 336l0 -35M352 336l1 5M353 400l0 -59M353 400l1 7M354 494l0 -87M354 494l1 10M355 635l0 -131M355 635l1 14M356 661l0 -12M356 661l1 1M357 663l0 -1M357 663l2 0M359 664l0 -1M359 664l5 0"/>
<path stroke="red" d="M364 664l0 -1 1 0 1 -1 0 -2 1 -1 0 -123 1 -15 0 -130 1 -11 0 -88 1 -7 0 -47 1 -2 0 -6M371 232l1 1M372 261l0 -28M372 261l1 5M373 325l0 -59M373 325l1 7M374 433l0 -101M374 433l1 11M375 567l0 -123M375 567l1 13M376 660l0 -80"/>
<path stroke="red" d="M376 660l1 1M377 662l0 -1M377 662l1 1 1 0M379 664l0 -1M379 664l5 0 0 -1 1 0 1 -1 0 -2 1 -1 0 -132 1 -16 0 -139 1 -12 0 -106 1 -7 0 -51 1 -3 0 -13 1 0M392 199l0 -19M392 199l1 4M393 262l0 -59M393 262l1 7M394 359l0 -90M394 359l1 10"/>
<path stroke="red" d="M395 491l0 -122M395 491l1 13M396 654l0 -150M396 654l1 2M397 662l0 -6M397 662l1 0M398 663l0 -1M398 663l2 0M400 664l0 -1M400 664l4 0 0 -1 1 0 0 -1 1 0 0 -2 1 -1 0 -139 1 -17 0 -159 1 -12 0 -102 1 -8 0 -57 1 -4 0 -20 1 0M412 150l0 -10"/>
<path stroke="red" d="M412 150l1 3M413 199l0 -46M413 199l1 6M414 286l0 -81M414 286l1 10M415 413l0 -117M415 413l1 13M416 568l0 -142M416 568l1 15M417 661l0 -78M417 661l1 0M418 663l0 -2M418 663l2 0 1 1 2 0 0 -1 2 0 0 -1 1 0 0 -2 1 -1 0 -157 1 -17"/>
<path stroke="red" d="M428 485l0 -149 1 -13 0 -109 1 -8 0 -63 1 -4 0 -24 1 -2M432 117l0 -5M432 117l1 1M433 149l0 -31M433 149l1 5M434 222l0 -68M434 222l1 8M435 338l0 -108M435 338l1 13M436 504l0 -153M436 504l1 15M437 658l0 -139M437 658l1 1M438 662l0 -3"/>
<path stroke="red" d="M438 662l1 0M439 663l0 -1M439 663l2 0M441 664l0 -1M441 664l2 0 0 -1 2 0 0 -1 1 0 0 -3 1 0 0 -156 1 -17 0 -153 1 -14 0 -115 1 -9 0 -66 1 -5 0 -27 1 -1 0 -3M452 94l1 1M453 113l0 -18M453 113l1 4M454 169l0 -52M454 169l1 7M455 284l0 -108"/>
<path stroke="red" d="M455 284l1 12M456 431l0 -135M456 431l1 15M457 598l0 -152M457 598l1 16M458 661l0 -47M458 661l1 0M459 663l0 -2M459 663l6 0 0 -1 1 0 0 -2 1 -1 0 -142 1 -17 0 -159 1 -14 0 -132 1 -9 0 -69 1 -4 0 -25 1 -2 0 -4 1 0M473 90l0 -8"/>
<path stroke="red" d="M473 90l1 2M474 132l0 -40M474 132l1 6M475 222l0 -84M475 222l1 11M476 359l0 -126M476 359l1 14M477 523l0 -150M477 523l1 16M478 659l0 -120M478 659l1 1M479 662l0 -2M479 662l1 0M480 663l0 -1M480 663l5 0 0 -1 1 0 0 -2 1 0 0 -131"/>
<path stroke="red" d="M487 529l1 -17 0 -162 1 -15 0 -138 1 -10 0 -74 1 -4 0 -27 1 -1 0 -5 1 0M493 79l0 -3M493 79l1 1M494 103l0 -23M494 103l1 5M495 174l0 -66M495 174l1 9M496 298l0 -115M496 298l1 14M497 458l0 -146M497 458l1 16M498 645l0 -171M498 645l1 9"/>
<path stroke="red" d="M499 662l0 -8M499 662l1 0M500 663l0 -1M500 663l5 0 0 -1 1 0 0 -2 1 0 0 -122 1 -17 0 -163 1 -16 0 -132 1 -11 0 -82 1 -6 0 -32 1 -1 0 -5 1 0M513 74l0 -2M513 74l1 0M514 85l0 -11M514 85l1 2M515 139l0 -52M515 139l1 7M516 249l0 -103"/>
<path stroke="red" d="M516 249l1 13M517 404l0 -142M517 404l1 15M518 575l0 -156M518 575l1 16M519 661l0 -70M519 661l1 0M520 662l0 -1M520 662l1 1 5 0 0 -2 1 -1 0 -89 1 -17 0 -183 1 -16 0 -137 1 -12 0 -88 1 -6 0 -33 1 -1 0 -7 2 0M534 76l0 -5M534 76l1 1"/>
<path stroke="red" d="M535 106l0 -29M535 106l1 6M536 195l0 -83M536 195l1 11M537 352l0 -146M537 352l1 15M538 522l0 -155M538 522l1 16M539 659l0 -121M539 659l1 1M540 662l0 -2M540 662l1 0M541 663l0 -1M541 663l5 0 0 -2 1 0 0 -68 1 -17 0 -168 1 -16"/>
<path stroke="red" d="M549 392l0 -159 1 -13 0 -96 1 -7 0 -37 1 -2 0 -7 1 0 0 -1 1 0M554 72l0 -2M554 72l1 1M555 89l0 -16M555 89l1 3M556 157l0 -65M556 157l1 10M557 301l0 -134M557 301l1 14M558 469l0 -154M558 469l1 15M559 641l0 -157M559 641l1 14"/>
<path stroke="red" d="M560 662l0 -7M560 662l1 0M561 663l0 -1M561 663l5 0 0 -2 1 0 0 -36 1 -17 0 -185 1 -17 0 -150 1 -13 0 -107 1 -8 0 -46 1 -2 0 -10 1 0 0 -1 1 0M574 70l0 -1M574 70l1 0M575 78l0 -8M575 78l1 2M576 132l0 -52M576 132l1 8M577 251l0 -111"/>
<path stroke="red" d="M577 251l1 13M578 412l0 -148M578 412l1 16M579 586l0 -158M579 586l1 15M580 661l0 -60M580 661l1 0M581 662l0 -1M581 662l1 1 4 0 0 -1 1 0 0 -22 1 -6 0 -178 1 -17 0 -155 1 -14 0 -118 1 -9 0 -60 1 -2 0 -11 1 0 0 -1 2 0M595 73l0 -4"/>
<path stroke="red" d="M595 73l1 1M596 107l0 -33M596 107l1 6M597 207l0 -94M597 207l1 12M598 360l0 -141M598 360l1 15M599 533l0 -158M599 533l1 16M600 660l0 -111M600 660l1 0M601 662l0 -2M601 662l1 0M602 663l0 -1M602 663l4 0 0 -1 1 0 0 -4 1 -1 0 -166"/>
<path stroke="red" d="M608 491l1 -16 0 -160 1 -15 0 -128 1 -10 0 -74 1 -3 0 -14 1 -1 0 -1 1 0 0 -1M614 69l1 0M615 71l0 -2M615 71l1 0M616 90l0 -19M616 90l1 4M617 169l0 -75M617 169l1 11M618 311l0 -131M618 311l1 15M619 498l0 -172M619 498l1 16M620 658l0 -144"/>
<path stroke="red" d="M620 658l1 0M621 662l0 -4M621 662l1 0M622 663l0 -1M622 663l4 0 0 -1 1 0 0 -2 1 -1 0 -137 1 -17 0 -163 1 -16 0 -135 1 -11 0 -81 1 -4 0 -23 1 -1 0 -2 1 0 0 -1 1 0M635 69l0 -1M635 69l1 1M636 81l0 -11M636 81l1 2M637 142l0 -59"/>
<path stroke="red" d="M637 142l1 9M638 272l0 -121M638 272l1 14M639 440l0 -154M639 440l1 16M640 614l0 -158M640 614l1 15M641 661l0 -32M641 661l1 1M642 663l0 -1M642 663l4 0 0 -1 1 0 0 -1 1 -1 0 -103 1 -17 0 -165 1 -16 0 -143 1 -12 0 -93 1 -6 0 -32"/>
<path stroke="red" d="M652 73l1 -1 0 -3 1 0 0 -1 1 0M655 69l0 -1M655 69l1 0M656 74l0 -5M656 74l1 1M657 118l0 -43M657 118l1 7M658 233l0 -108M658 233l1 14M659 396l0 -149M659 396l1 16M660 571l0 -159M660 571l1 15M661 661l0 -75M661 661l1 0M662 662l0 -1"/>
<path stroke="red" d="M662 662l1 0M663 663l0 -1M663 663l4 0 0 -2 1 0 0 -53 1 -16 0 -184 1 -16 0 -149 1 -14 0 -105 1 -7 0 -40 1 -2 0 -6 1 0 0 -1 1 0M675 69l0 -1M675 69l1 0M676 71l0 -2M676 71l1 1M677 96l0 -24M677 96l1 5M678 200l0 -99M678 200l1 13"/>
<path stroke="red" d="M679 356l0 -143M679 356l1 15M680 531l0 -160M680 531l1 16M681 659l0 -112M681 659l1 1M682 662l0 -2M682 662l1 0M683 663l0 -1M683 663l4 0 0 -1 1 -1 0 -24 1 -8 0 -167 1 -17 0 -171 1 -14 0 -117 1 -9 0 -53 1 -2 0 -9 1 -1 0 -1 2 0"/>
<path stroke="red" d="M696 70l0 -2M696 70l1 0M697 85l0 -15M697 85l1 3M698 169l0 -81M698 169l1 12M699 316l0 -135M699 316l1 15M700 489l0 -158M700 489l1 16M701 657l0 -152M701 657l1 1M702 662l0 -4M702 662l1 0M703 663l0 -1M703 663l4 0 0 -1 1 0 0 -4"/>
<path stroke="red" d="M708 658l1 -1 0 -164 1 -17 0 -160 1 -15 0 -130 1 -10 0 -75 1 -3 0 -13 1 0 0 -2 2 0M716 69l0 -1M716 69l1 0M717 79l0 -10M717 79l1 2M718 138l0 -57M718 138l1 9M719 270l0 -123M719 270l1 14M720 455l0 -171M720 455l1 17M721 629l0 -157"/>
<path stroke="red" d="M721 629l1 15M722 661l0 -17M722 661l1 1M723 663l0 -1M723 663l4 0 0 -1 1 0 0 -2 1 -1 0 -126 1 -17 0 -164 1 -16 0 -139 1 -11 0 -91 1 -4 0 -20 1 0 0 -3 2 0M736 69l0 -1M736 69l1 0M737 74l0 -5M737 74l1 2M738 117l0 -41M738 117l1 7"/>
<path stroke="red" d="M739 234l0 -110M739 234l1 14M740 399l0 -151M740 399l1 16M741 590l0 -175M741 590l1 16M742 661l0 -55M742 661l1 0M743 662l0 -1M743 662l1 0M744 663l0 -1M744 663l3 0 0 -1 1 0 0 -1 1 0 0 -85 1 -17 0 -166 1 -16 0 -148 1 -13 0 -107"/>
<path stroke="red" d="M752 109l1 -6 0 -30 1 -1 0 -3 1 0 0 -1 1 0 1 1M757 71l0 -2M757 71l1 1M758 100l0 -28M758 100l1 5M759 200l0 -95M759 200l1 13M760 357l0 -144M760 357l1 16M761 549l0 -176M761 549l1 16M762 660l0 -95M762 660l1 0M763 662l0 -2M763 662l1 0"/>
<path stroke="red" d="M764 663l0 -1M764 663l4 0 0 -1 1 -1 0 -43 1 -16 0 -168 1 -16 0 -154 1 -14 0 -122 1 -8 0 -43 1 -2 0 -6 1 0 0 -1 2 0M777 70l0 -2M777 70l1 0M778 88l0 -18M778 88l1 4M779 170l0 -78M779 170l1 11M780 317l0 -136M780 317l1 16M781 508l0 -175"/>
<path stroke="red" d="M781 508l1 16M782 658l0 -134M782 658l1 1M783 662l0 -3M783 662l1 0M784 663l0 -1M784 663l4 0 0 -1 1 0 0 -7 1 -3 0 -178 1 -17 0 -159 1 -14 0 -126 1 -10 0 -66 1 -2 0 -10 1 -1 0 -1 2 0M797 69l0 -1M797 69l1 1M798 80l0 -10M798 80l1 3"/>
<path stroke="red" d="M799 145l0 -62M799 145l1 10M800 282l0 -127M800 282l1 14M801 470l0 -174M801 470l1 16M802 643l0 -157M802 643l1 13M803 662l0 -6M803 662l1 0M804 663l0 -1M804 663l4 0 0 -1 1 0 0 -3 1 -1 0 -139 1 -17 0 -163 1 -15 0 -148 1 -11"/>
<path stroke="red" d="M813 165l0 -74 1 -4 0 -16 1 -1 0 -2 2 0M817 69l0 -1M817 69l1 0M818 75l0 -6M818 75l1 2M819 122l0 -45M819 122l1 8M820 244l0 -114M820 244l1 14M821 427l0 -169M821 427l1 17M822 603l0 -159M822 603l1 15M823 661l0 -43M823 661l1 0"/>
<path stroke="red" d="M824 662l0 -1M824 662l1 1 3 0 0 -1 1 0 0 -1 1 -1 0 -99 1 -17 0 -166 1 -16 0 -145 1 -12 0 -102 1 -5 0 -26 1 -1 0 -3 2 0M837 69l0 -1M837 69l1 0M838 72l0 -3M838 72l1 1M839 105l0 -32M839 105l1 6M840 212l0 -101M840 212l1 13M841 389l0 -164"/>
<path stroke="red" d="M841 389l1 16M842 566l0 -161M842 566l1 16M843 660l0 -78M843 660l1 1M844 662l0 -1M844 662l1 0M845 663l0 -1M845 663l3 0 1 -1 0 -1 1 0 0 -51 1 -17 0 -184 1 -16 0 -151 1 -13 0 -106 1 -7 0 -40 1 -2 0 -5 1 0 0 -1 2 0M858 70l0 -2"/>
<path stroke="red" d="M858 70l1 1M859 90l0 -19M859 90l1 5M860 189l0 -94M860 189l1 13M861 344l0 -142M861 344l1 16M862 521l0 -161M862 521l1 16M863 659l0 -122M863 659l1 1M864 662l0 -2M864 662l1 0M865 663l0 -1M865 663l4 0 0 -1 1 0 0 -20 1 -6 0 -177"/>
<path stroke="red" d="M871 459l1 -16 0 -158 1 -15 0 -121 1 -9 0 -60 1 -2 0 -9 1 0 0 -1 2 0M878 70l0 -2M878 70l1 0M879 83l0 -13M879 83l1 4M880 156l0 -69M880 156l1 11M881 299l0 -132M881 299l1 15M882 490l0 -176M882 490l1 16M883 657l0 -151M883 657l1 0"/>
<path stroke="red" d="M884 662l0 -5M884 662l1 0M885 663l0 -1M885 663l4 0 0 -1 1 0 0 -3 1 -1 0 -160 1 -17 0 -162 1 -15 0 -131 1 -11 0 -72 1 -4 0 -16 1 0 0 -2 2 0M898 69l0 -1M898 69l1 0M899 78l0 -9M899 78l1 2M900 135l0 -55M900 135l1 9M901 267l0 -123"/>
<path stroke="red" d="M901 267l1 14M902 438l0 -157M902 438l1 16M903 614l0 -160M903 614l1 15M904 661l0 -32M904 661l1 1M905 663l0 -1M905 663l4 0 0 -1 1 0 0 -2 1 0 0 -116 1 -17 0 -166 1 -15 0 -142 1 -12 0 -89 1 -5 0 -27 1 0 0 -3M916 69l1 -1 1 0"/>
<path stroke="red" d="M918 69l0 -1M918 69l1 0M919 74l0 -5M919 74l1 1M920 114l0 -39M920 114l1 8M921 231l0 -109M921 231l1 14M922 396l0 -151M922 396l1 16M923 589l0 -177M923 589l1 16M924 661l0 -56M924 661l1 0M925 662l0 -1M925 662l1 0M926 663l0 -1"/>
<path stroke="red" d="M926 663l3 0 1 -1 0 -1 1 0 0 -72 1 -17 0 -168 1 -16 0 -150 1 -14 0 -104 1 -7 0 -39 1 -1 0 -4 1 0 0 -1 2 0M939 71l0 -3M939 71l1 1M940 99l0 -27M940 99l1 5M941 199l0 -95M941 199l1 12M942 356l0 -145M942 356l1 16M943 550l0 -178"/>
<path stroke="red" d="M943 550l1 15M944 660l0 -95M944 660l1 0M945 662l0 -2M945 662l1 0M946 663l0 -1M946 663l4 0 0 -1 1 -1 0 -25 1 -8 0 -185 1 -17 0 -156 1 -14 0 -116 1 -9 0 -51 1 -2 0 -9 1 0 0 -1 2 0M959 70l0 -2M959 70l1 0M960 88l0 -18M960 88l1 5"/>
<path stroke="red" d="M961 172l0 -79M961 172l1 12M962 322l0 -138M962 322l1 15M963 498l0 -161M963 498l1 16M964 658l0 -144M964 658l1 1M965 661l0 -2"/>
<path stroke="blue" d="M75 23l44 0"/>
<text stroke="none" fill="white" font-size="16" x="129" y="32">
tran2.v(/out_sim3)
</text>
<path stroke="blue" d="M75 68l34 0M109 69l0 -1M109 69l2 0M111 70l0 -1M111 70l1 1M112 72l0 -1M112 72l1 1M113 75l0 -2M113 75l1 1M114 79l0 -3M114 79l1 1M115 85l0 -5M115 85l1 0M116 92l0 -7M116 92l1 1M117 101l0 -8M117 101l1 1M118 110l0 -8M118 110l1 1"/>
<path stroke="blue" d="M119 121l0 -10M119 121l1 1M120 133l0 -11M120 133l1 1M121 144l0 -10M121 144l1 1M122 156l0 -11M122 156l1 1M123 168l0 -11M123 168l1 1M124 179l0 -10M124 179l1 1M125 191l0 -11M125 191l1 1M126 202l0 -10M126 202l1 1M127 213l0 -10"/>
<path stroke="blue" d="M127 213l1 1M128 223l0 -9M128 223l1 1M129 234l0 -10M129 234l1 1M130 243l0 -8M130 243l1 1M131 252l0 -8M131 252l1 1M132 261l0 -8M132 261l1 0M133 269l0 -8M133 269l1 1M134 277l0 -7M134 277l1 0M135 284l0 -7M135 284l1 1M136 291l0 -6"/>
<path stroke="blue" d="M136 291l1 0M137 298l0 -7M137 298l1 0M138 304l0 -6M138 304l1 0M139 309l0 -5M139 309l1 1M140 314l0 -4M140 314l1 1M141 319l0 -4M141 319l1 1M142 325l0 -5M142 325l1 0M143 329l0 -4M143 329l1 0M144 333l0 -4M144 333l1 0M145 337l0 -4"/>
<path stroke="blue" d="M145 337l1 0M146 341l0 -4M146 341l1 0M147 344l0 -3M147 344l1 0M148 347l0 -3M148 347l1 1M149 350l0 -2M149 350l1 1M150 353l0 -2M150 353l1 1M151 356l0 -2M151 356l1 0M152 358l0 -2M152 358l1 1M153 361l0 -2M153 361l1 0M154 363l0 -2"/>
<path stroke="blue" d="M154 363l1 0M155 365l0 -2M155 365l1 0M156 367l0 -2M156 367l1 0M157 369l0 -2M157 369l1 0M158 370l0 -1M158 370l1 0M159 372l0 -2M159 372l1 0M160 373l0 -1M160 373l1 0M161 375l0 -2M161 375l1 0M162 376l0 -1M162 376l1 0M163 377l0 -1"/>
<path stroke="blue" d="M163 377l1 0M164 378l0 -1M164 378l1 0M165 379l0 -1M165 379l1 0M166 380l0 -1M166 380l1 0M167 381l0 -1M167 381l1 0M168 382l0 -1M168 382l1 0M169 383l0 -1M169 383l1 0M170 384l0 -1M170 384l1 0M171 385l0 -1M171 385l2 0M173 386l0 -1"/>
<path stroke="blue" d="M173 386l1 0M174 387l0 -1M174 387l2 0M176 388l0 -1M176 388l2 0M178 389l0 -1M178 389l2 0M180 390l0 -1M180 390l2 0M182 391l0 -1M182 391l2 0M184 392l0 -1M184 392l2 0 1 1 2 0M189 394l0 -1M189 394l2 0M191 395l0 -1M191 395l3 0"/>
<path stroke="blue" d="M194 396l0 -1M194 396l2 0M196 397l0 -1M196 397l2 0M198 398l0 -1M198 398l2 0M200 399l0 -1M200 399l2 0M202 400l0 -1M202 400l1 0M203 401l0 -1M203 401l2 0M205 402l0 -1M205 402l1 0M206 403l0 -1M206 403l1 0M207 404l0 -1M207 404l1 0"/>
<path stroke="blue" d="M208 405l0 -1M208 405l1 0M209 406l0 -1M209 406l1 0M210 407l0 -1M210 407l1 1M211 409l0 -1M211 409l1 0M212 410l0 -1M212 410l1 0M213 412l0 -2M213 412l1 0M214 414l0 -2M214 414l1 0M215 416l0 -2M215 416l1 0M216 419l0 -3M216 419l1 0"/>
<path stroke="blue" d="M217 422l0 -3M217 422l1 0M218 426l0 -4M218 426l1 1M219 433l0 -6M219 433l1 1M220 444l0 -10M220 444l1 2M221 468l0 -22M221 468l1 5M222 492l0 -19M222 492l1 1M223 502l0 -9M223 502l1 2M224 521l0 -17M224 521l1 2M225 544l0 -21"/>
<path stroke="blue" d="M225 544l1 2M226 566l0 -20M226 566l1 2M227 584l0 -16M227 584l1 1M228 599l0 -14M228 599l1 1M229 613l0 -13M229 613l1 1M230 625l0 -11M230 625l1 1M231 637l0 -11M231 637l1 1M232 646l0 -8M232 646l1 1M233 655l0 -8M233 655l1 0"/>
<path stroke="blue" d="M234 656l0 -1M234 656l1 1 1 0M236 658l0 -1M236 658l1 0M237 659l0 -1M237 659l1 0M238 660l0 -1M238 660l1 0M239 661l0 -1M239 661l1 0M240 662l0 -1M240 662l3 0 0 -1 1 0 0 -2 2 0M246 660l0 -1M246 660l3 0M249 661l0 -1M249 661l8 0"/>
<path stroke="blue" d="M257 662l0 -1M257 662l1 0M258 663l0 -1M258 663l6 0 0 -1 1 0 0 -3 1 0 0 -3 1 0M267 659l0 -3M267 659l1 0M268 660l0 -1M268 660l8 0M276 661l0 -1M276 661l1 0M277 663l0 -2M277 663l2 0M279 664l0 -1M279 664l4 0 0 -1 2 0 0 -2 1 0"/>
<path stroke="blue" d="M286 661l0 -33 1 -11 0 -67 1 -2M288 569l0 -21M288 569l1 4M289 611l0 -38M289 611l1 3M290 630l0 -16M290 630l1 0M291 634l0 -4M291 634l1 0 1 -1M293 634l0 -1M293 634l1 0M294 640l0 -6M294 640l1 1M295 658l0 -17M295 658l1 0M296 662l0 -4"/>
<path stroke="blue" d="M296 662l1 0M297 663l0 -1M297 663l1 0M298 664l0 -1M298 664l6 0 0 -1 1 0 0 -1 1 0 0 -11 1 -7 0 -145 1 -10 0 -67 1 -3M309 422l0 -8M309 422l1 3M310 461l0 -36M310 461l1 4M311 495l0 -30M311 495l1 2M312 514l0 -17M312 514l1 1"/>
<path stroke="blue" d="M313 533l0 -18M313 533l1 3M314 576l0 -40M314 576l1 6M315 659l0 -77M315 659l1 0M316 662l0 -3M316 662l1 1 1 0M318 664l0 -1M318 664l6 0 1 -1 1 0 0 -3 1 0 0 -127 1 -15 0 -133 1 -9 0 -55 1 -2 0 -6M330 317l1 2M331 349l0 -30M331 349l1 3"/>
<path stroke="blue" d="M332 392l0 -40M332 392l1 5M333 454l0 -57M333 454l1 6M334 548l0 -88M334 548l1 11M335 659l0 -100M335 659l1 1M336 663l0 -3M336 663l2 0M338 664l0 -1M338 664l7 0 0 -1 1 0 0 -1 1 -1 0 -97 1 -18 0 -154 1 -13 0 -100 1 -6 0 -33"/>
<path stroke="blue" d="M350 240l1 -1M351 250l0 -11M351 250l1 3M352 295l0 -42M352 295l1 5M353 380l0 -80M353 380l1 10M354 501l0 -111M354 501l1 14M355 658l0 -143M355 658l1 1M356 662l0 -3M356 662l1 1 1 0M358 664l0 -1M358 664l7 0 0 -1 1 0 0 -1 1 0"/>
<path stroke="blue" d="M367 662l0 -84 1 -20 0 -174 1 -14 0 -114 1 -9 0 -58 1 -2 0 -8M371 182l1 1M372 216l0 -33M372 216l1 5M373 293l0 -72M373 293l1 10M374 431l0 -128M374 431l1 14M375 604l0 -159M375 604l1 18M376 662l0 -40M376 662l1 0M377 663l0 -1"/>
<path stroke="blue" d="M377 663l1 0M378 664l0 -1M378 664l7 0 0 -1 1 0 0 -1 1 0 0 -86 1 -21 0 -186 1 -16 0 -126 1 -10 0 -64 1 -4 0 -18 1 1M392 153l0 -21M392 153l1 3M393 218l0 -62M393 218l1 8M394 337l0 -111M394 337l1 13M395 523l0 -173M395 523l1 18"/>
<path stroke="blue" d="M396 660l0 -119M396 660l1 1M397 663l0 -2M397 663l1 0M398 664l0 -1M398 664l7 0 0 -1 1 0 0 -1 1 0 0 -73 1 -22 0 -216 1 -17 0 -134 1 -10 0 -68 1 -4 0 -20 1 0M412 107l0 -10M412 107l1 2M413 153l0 -44M413 153l1 7M414 257l0 -97"/>
<path stroke="blue" d="M414 257l1 13M415 420l0 -150M415 420l1 17M416 623l0 -186M416 623l1 20M417 662l0 -19M417 662l1 0M418 663l0 -1M418 663l1 0M419 664l0 -1M419 664l6 0 0 -1 1 0 0 -1 1 0 0 -72 1 -23 0 -224 1 -18 0 -142 1 -11 0 -69 1 -4 0 -18"/>
<path stroke="blue" d="M431 81l1 -1M432 81l0 -2M432 81l1 1M433 104l0 -22M433 104l1 4M434 181l0 -73M434 181l1 11M435 328l0 -136M435 328l1 17M436 546l0 -201M436 546l1 20M437 661l0 -95M437 661l1 0M438 663l0 -2M438 663l1 0M439 664l0 -1M439 664l6 0"/>
<path stroke="blue" d="M445 664l0 -1 1 0 0 -1 1 0 0 -82 1 -23 0 -210 1 -19 0 -151 1 -12 0 -76 1 -3 0 -13 1 0 0 -2M452 72l1 0M453 78l0 -6M453 78l1 2M454 120l0 -40M454 120l1 7M455 253l0 -126M455 253l1 15M456 444l0 -176M456 444l1 19M457 658l0 -195"/>
<path stroke="blue" d="M457 658l1 0M458 663l0 -5M458 663l2 0M460 664l0 -1M460 664l5 0 0 -1 1 0 0 -1 1 0 0 -74 1 -23 0 -215 1 -19 0 -159 1 -12 0 -73 1 -4 0 -13 1 0 0 -1 1 0M473 70l0 -1M473 70l1 1M474 86l0 -15M474 86l1 3M475 180l0 -91M475 180l1 13"/>
<path stroke="blue" d="M476 354l0 -161M476 354l1 18M477 571l0 -199M477 571l1 21M478 662l0 -70M478 662l1 0M479 663l0 -1M479 663l1 0M480 664l0 -1M480 664l5 0 0 -1 1 0 0 -1 1 0 0 -51 1 -23 0 -220 1 -20 0 -182 1 -13 0 -71 1 -3 0 -10 1 0 0 -1 1 0"/>
<path stroke="blue" d="M493 68l1 1M494 73l0 -4M494 73l1 1M495 120l0 -46M495 120l1 9M496 265l0 -136M496 265l1 17M497 495l0 -213M497 495l1 20M498 660l0 -145M498 660l1 1M499 663l0 -2M499 663l2 0M501 664l0 -1M501 664l4 0 0 -1 1 0 0 -1 1 0 0 -44 1 -23"/>
<path stroke="blue" d="M508 595l0 -223 1 -20 0 -174 1 -13 0 -83 1 -3 0 -10 1 0 0 -1 2 0M514 69l0 -1M514 69l1 0M515 85l0 -16M515 85l1 5M516 203l0 -113M516 203l1 16M517 401l0 -182M517 401l1 21M518 629l0 -207M518 629l1 21M519 662l0 -12M519 662l1 0"/>
<path stroke="blue" d="M520 663l0 -1M520 663l1 0M521 664l0 -1M521 664l4 0 0 -1 1 0 0 -1 1 0 0 -16 1 -6 0 -243 1 -21 0 -183 1 -15 0 -93 1 -4 0 -13 4 0M535 74l0 -6M535 74l1 2M536 145l0 -69M536 145l1 12M537 322l0 -165M537 322l1 20M538 547l0 -205"/>
<path stroke="blue" d="M538 547l1 21M539 661l0 -93M539 661l1 1M540 663l0 -1M540 663l1 0 1 1 3 0 0 -1 2 0 0 -4 1 -2 0 -221 1 -22 0 -211 1 -15 0 -102 1 -4 0 -13 1 -1 3 0M555 69l0 -1M555 69l1 1M556 101l0 -31M556 101l1 8M557 245l0 -136M557 245l1 17"/>
<path stroke="blue" d="M558 482l0 -220M558 482l1 21M559 660l0 -157M559 660l1 0M560 663l0 -3M560 663l2 0M562 664l0 -1M562 664l3 0 0 -1 2 0 0 -3 1 -1 0 -199 1 -22 0 -201 1 -17 0 -123 1 -6 0 -22 1 -1 4 0M576 81l0 -13M576 81l1 5M577 193l0 -107M577 193l1 16"/>
<path stroke="blue" d="M578 398l0 -189M578 398l1 21M579 629l0 -210M579 629l1 21M580 662l0 -12M580 662l1 0M581 663l0 -1M581 663l1 0M582 664l0 -1M582 664l3 0 0 -1 2 0 0 -2 1 -1 0 -150 1 -23 0 -228 1 -18 0 -136 1 -8 0 -28 1 0 0 -1 4 0M596 71l0 -3"/>
<path stroke="blue" d="M596 71l1 2M597 138l0 -65M597 138l1 13M598 342l0 -191M598 342l1 20M599 572l0 -210M599 572l1 21M600 662l0 -69M600 662l1 0M601 663l0 -1M601 663l2 0M603 664l0 -1M603 664l2 0 0 -1 2 0 0 -2 1 0 0 -110 1 -23 0 -216 1 -19 0 -172"/>
<path stroke="blue" d="M610 121l1 -10 0 -41 1 0 0 -2 4 0M616 69l0 -1M616 69l1 0M617 104l0 -35M617 104l1 10M618 282l0 -168M618 282l1 19M619 508l0 -207M619 508l1 22M620 660l0 -130M620 660l1 1M621 663l0 -2M621 663l2 0M623 664l0 -1M623 664l2 0 0 -1"/>
<path stroke="blue" d="M625 663l2 0 0 -1 1 0 0 -73 1 -22 0 -220 1 -21 0 -173 1 -13 0 -68 1 -2 0 -2 5 0M637 85l0 -17M637 85l1 6M638 215l0 -124M638 215l1 18M639 432l0 -199M639 432l1 21M640 659l0 -206M640 659l1 0M641 662l0 -3M641 662l1 1 1 0M643 664l0 -1"/>
<path stroke="blue" d="M643 664l3 0 0 -1 1 0 0 -1 1 0 0 -31 1 -14 0 -223 1 -22 0 -187 1 -15 0 -94 1 -3 0 -5 5 0M657 74l0 -6M657 74l1 3M658 167l0 -90M658 167l1 15M659 391l0 -209M659 391l1 21M660 624l0 -212M660 624l1 21M661 662l0 -17M661 662l1 0"/>
<path stroke="blue" d="M662 663l0 -1M662 663l2 0M664 664l0 -1M664 664l2 0 0 -1 1 0 1 -1 0 -3 1 -2 0 -215 1 -22 0 -199 1 -17 0 -121 1 -4 0 -11 5 0M677 70l0 -2M677 70l1 1M678 129l0 -58M678 129l1 13M679 334l0 -192M679 334l1 20M680 566l0 -212M680 566l1 21"/>
<path stroke="blue" d="M681 661l0 -74M681 661l1 1M682 663l0 -1M682 663l2 0M684 664l0 -1M684 664l2 0 0 -1 2 0 0 -2 1 -1 0 -164 1 -22 0 -209 1 -19 0 -149 1 -7 0 -21 1 -1 4 0M697 69l0 -1M697 69l1 0M698 100l0 -31M698 100l1 9M699 278l0 -169M699 278l1 20"/>
<path stroke="blue" d="M700 507l0 -209M700 507l1 22M701 661l0 -132M701 661l1 0M702 663l0 -2M702 663l2 0M704 664l0 -1M704 664l2 0 0 -1 2 0 0 -1 1 -1 0 -110 1 -23 0 -216 1 -20 0 -173 1 -10 0 -39 1 -1 0 -1 5 0M718 83l0 -15M718 83l1 5M719 228l0 -140"/>
<path stroke="blue" d="M719 228l1 19M720 451l0 -204M720 451l1 21M721 659l0 -187M721 659l1 1M722 662l0 -2M722 662l1 1 1 0M724 664l0 -1M724 664l2 0 0 -1 2 0 0 -1 1 0 0 -66 1 -23 0 -221 1 -21 0 -176 1 -14 0 -68 1 -2 0 -3 5 0M738 75l0 -7M738 75l1 3"/>
<path stroke="blue" d="M739 176l0 -98M739 176l1 16M740 385l0 -193M740 385l1 21M741 640l0 -234M741 640l1 14M742 662l0 -8M742 662l1 0M743 663l0 -1M743 663l2 0M745 664l0 -1M745 664l1 0 1 -1 1 0 0 -1 1 0 0 -12 1 -6 0 -231 1 -21 0 -210 1 -15 0 -89"/>
<path stroke="blue" d="M752 78l1 -3 0 -7 5 0M758 70l0 -2M758 70l1 1M759 134l0 -63M759 134l1 13M760 345l0 -198M760 345l1 20M761 579l0 -214M761 579l1 21M762 662l0 -62M762 662l1 0M763 663l0 -1M763 663l2 0M765 664l0 -1M765 664l2 0 0 -1 2 0 0 -3 1 -1"/>
<path stroke="blue" d="M770 659l0 -199 1 -22 0 -204 1 -17 0 -125 1 -6 0 -18 5 0M778 69l0 -1M778 69l1 0M779 110l0 -41M779 110l1 11M780 282l0 -161M780 282l1 20M781 513l0 -211M781 513l1 22M782 661l0 -126M782 661l1 0M783 663l0 -2M783 663l2 0M785 664l0 -1"/>
<path stroke="blue" d="M785 664l2 0 0 -1 2 0 0 -2 1 0 0 -130 1 -22 0 -234 1 -19 0 -147 1 -8 0 -32 1 0 0 -1 5 0M799 92l0 -24M799 92l1 8M800 242l0 -142M800 242l1 19M801 468l0 -207M801 468l1 21M802 659l0 -170M802 659l1 1M803 663l0 -3M803 663l2 0"/>
<path stroke="blue" d="M805 664l0 -1M805 664l2 0 0 -1 2 0 0 -1 1 0 0 -71 1 -22 0 -242 1 -20 0 -169 1 -12 0 -55 1 -1 0 -2 5 0M819 79l0 -11M819 79l1 4M820 197l0 -114M820 197l1 17M821 413l0 -199M821 413l1 22M822 657l0 -222M822 657l1 0M823 662l0 -5"/>
<path stroke="blue" d="M823 662l1 0M824 663l0 -1M824 663l1 0 1 1 1 0 1 -1 1 0 0 -1 1 0 0 -30 1 -13 0 -225 1 -22 0 -204 1 -14 0 -79 1 -2 0 -5 5 0M839 72l0 -4M839 72l1 1M840 149l0 -76M840 149l1 15M841 369l0 -205M841 369l1 21M842 605l0 -215M842 605l1 21"/>
<path stroke="blue" d="M843 662l0 -36M843 662l1 0M844 663l0 -1M844 663l2 0M846 664l0 -1M846 664l2 0 0 -1 2 0 0 -4 1 -1 0 -219 1 -22 0 -200 1 -16 0 -115 1 -5 0 -13 5 0M859 70l0 -2M859 70l1 0M860 124l0 -54M860 124l1 13M861 309l0 -172M861 309l1 20"/>
<path stroke="blue" d="M862 543l0 -214M862 543l1 21M863 661l0 -97M863 661l1 1M864 663l0 -1M864 663l2 0M866 664l0 -1M866 664l2 0 0 -1 2 0 0 -2 1 -1 0 -163 1 -23 0 -210 1 -18 0 -142 1 -8 0 -27 1 -1 4 0 1 1M880 100l0 -31M880 100l1 9M881 261l0 -152"/>
<path stroke="blue" d="M881 261l1 19M882 490l0 -210M882 490l1 22M883 660l0 -148M883 660l1 1M884 663l0 -2M884 663l2 0M886 664l0 -1M886 664l2 0 0 -1 2 0 0 -1 1 0 0 -104 1 -23 0 -219 1 -20 0 -164 1 -12 0 -49 1 -1 0 -2 5 0M900 84l0 -16M900 84l1 5"/>
<path stroke="blue" d="M901 215l0 -126M901 215l1 18M902 436l0 -203M902 436l1 22M903 659l0 -201M903 659l1 1M904 662l0 -2M904 662l1 1 1 0M906 664l0 -1M906 664l3 0 0 -1 1 0 0 -1 1 0 0 -46 1 -22 0 -224 1 -21 0 -183 1 -14 0 -78 1 -1 0 -5 5 0M920 75l0 -7"/>
<path stroke="blue" d="M920 75l1 3M921 175l0 -97M921 175l1 16M922 385l0 -194M922 385l1 21M923 622l0 -216M923 622l1 21M924 662l0 -19M924 662l1 0M925 663l0 -1M925 663l1 0 1 1 2 0 0 -1 2 0 0 -5 1 -2 0 -217 1 -22 0 -217 1 -16 0 -103 1 -3 0 -10 5 0"/>
<path stroke="blue" d="M940 70l0 -2M940 70l1 1M941 145l0 -74M941 145l1 14M942 343l0 -184M942 343l1 20M943 579l0 -216M943 579l1 21M944 662l0 -62M944 662l1 0M945 663l0 -1M945 663l2 0M947 664l0 -1M947 664l2 0 0 -1 2 0 0 -2 1 -1 0 -176 1 -23 0 -208"/>
<path stroke="blue" d="M953 253l1 -18 0 -136 1 -7 0 -23 1 -1 4 0M960 69l0 -1M960 69l1 1M961 111l0 -41M961 111l1 11M962 285l0 -163M962 285l1 20M963 518l0 -213M963 518l1 21M964 661l0 -122M964 661l1 0M965 662l0 -1"/>
<path stroke="#FFA500" d="M445 39l44 0"/>
<text stroke="none" fill="white" font-size="16" x="499" y="48">
tran3.v(/out_sim3)
</text>
<path stroke="#FFA500" d="M75 68l34 0M109 69l0 -1M109 69l2 0M111 70l0 -1M111 70l1 1M112 72l0 -1M112 72l1 1M113 75l0 -2M113 75l1 1M114 79l0 -3M114 79l1 1M115 85l0 -5M115 85l1 0M116 92l0 -7M116 92l1 1M117 101l0 -8M117 101l1 1M118 110l0 -8M118 110l1 1"/>
<path stroke="#FFA500" d="M119 121l0 -10M119 121l1 1M120 133l0 -11M120 133l1 1M121 144l0 -10M121 144l1 1M122 156l0 -11M122 156l1 1M123 168l0 -11M123 168l1 1M124 179l0 -10M124 179l1 1M125 191l0 -11M125 191l1 1M126 202l0 -10M126 202l1 1M127 213l0 -10"/>
<path stroke="#FFA500" d="M127 213l1 1M128 223l0 -9M128 223l1 1M129 234l0 -10M129 234l1 1M130 243l0 -8M130 243l1 1M131 252l0 -8M131 252l1 1M132 261l0 -8M132 261l1 0M133 269l0 -8M133 269l1 1M134 277l0 -7M134 277l1 0M135 284l0 -7M135 284l1 1M136 291l0 -6"/>
<path stroke="#FFA500" d="M136 291l1 0M137 298l0 -7M137 298l1 0M138 304l0 -6M138 304l1 0M139 309l0 -5M139 309l1 1M140 314l0 -4M140 314l1 1M141 319l0 -4M141 319l1 1M142 325l0 -5M142 325l1 0M143 329l0 -4M143 329l1 0M144 333l0 -4M144 333l1 0M145 337l0 -4"/>
<path stroke="#FFA500" d="M145 337l1 0M146 341l0 -4M146 341l1 0M147 344l0 -3M147 344l1 0M148 347l0 -3M148 347l1 1M149 350l0 -2M149 350l1 1M150 353l0 -2M150 353l1 1M151 356l0 -2M151 356l1 0M152 358l0 -2M152 358l1 1M153 361l0 -2M153 361l1 0M154 363l0 -2"/>
<path stroke="#FFA500" d="M154 363l1 0M155 365l0 -2M155 365l1 0M156 367l0 -2M156 367l1 0M157 369l0 -2M157 369l1 0M158 370l0 -1M158 370l1 0M159 372l0 -2M159 372l1 0M160 373l0 -1M160 373l1 0M161 375l0 -2M161 375l1 0M162 376l0 -1M162 376l1 0M163 377l0 -1"/>
<path stroke="#FFA500" d="M163 377l1 0M164 378l0 -1M164 378l1 0M165 379l0 -1M165 379l1 0M166 380l0 -1M166 380l1 0M167 381l0 -1M167 381l1 0M168 382l0 -1M168 382l1 0M169 383l0 -1M169 383l1 0M170 384l0 -1M170 384l1 0M171 385l0 -1M171 385l2 0M173 386l0 -1"/>
<path stroke="#FFA500" d="M173 386l1 0M174 387l0 -1M174 387l2 0M176 388l0 -1M176 388l2 0M178 389l0 -1M178 389l2 0M180 390l0 -1M180 390l2 0M182 391l0 -1M182 391l2 0M184 392l0 -1M184 392l2 0 1 1 2 0M189 394l0 -1M189 394l2 0M191 395l0 -1M191 395l3 0"/>
<path stroke="#FFA500" d="M194 396l0 -1M194 396l2 0M196 397l0 -1M196 397l2 0M198 398l0 -1M198 398l2 0M200 399l0 -1M200 399l2 0M202 400l0 -1M202 400l1 0M203 401l0 -1M203 401l2 0M205 402l0 -1M205 402l1 0M206 403l0 -1M206 403l1 0M207 404l0 -1M207 404l1 0"/>
<path stroke="#FFA500" d="M208 405l0 -1M208 405l1 0M209 406l0 -1M209 406l1 0M210 407l0 -1M210 407l1 1M211 409l0 -1M211 409l1 0M212 410l0 -1M212 410l1 0M213 412l0 -2M213 412l1 0M214 414l0 -2M214 414l1 0M215 416l0 -2M215 416l1 0M216 419l0 -3M216 419l1 0"/>
<path stroke="#FFA500" d="M217 422l0 -3M217 422l1 0M218 426l0 -4M218 426l1 1M219 433l0 -6M219 433l1 1M220 444l0 -10M220 444l1 2M221 470l0 -24M221 470l1 4M222 493l0 -19M222 493l1 0M223 502l0 -9M223 502l1 1M224 521l0 -18M224 521l1 2M225 544l0 -21"/>
<path stroke="#FFA500" d="M225 544l1 2M226 566l0 -20M226 566l1 2M227 583l0 -15M227 583l1 2M228 599l0 -14M228 599l1 1M229 613l0 -13M229 613l1 1M230 625l0 -11M230 625l1 1M231 637l0 -11M231 637l1 1M232 646l0 -8M232 646l1 1M233 655l0 -8M233 655l1 0"/>
<path stroke="#FFA500" d="M234 656l0 -1M234 656l1 1 1 0M236 658l0 -1M236 658l1 0M237 659l0 -1M237 659l1 0M238 660l0 -1M238 660l1 0M239 661l0 -1M239 661l1 1 1 0M241 663l0 -1M241 663l1 -1 1 0 0 -1 1 -1 0 -2 1 0 1 1M246 660l0 -1M246 660l3 0M249 661l0 -1"/>
<path stroke="#FFA500" d="M249 661l8 0M257 662l0 -1M257 662l1 0M258 663l0 -1M258 663l2 0M260 664l0 -1M260 664l2 0 1 -1 1 0 0 -1 1 -1 0 -5 1 -2 0 -27M266 630l1 2M267 658l0 -26M267 658l1 0M268 660l0 -2M268 660l8 0M276 661l0 -1M276 661l1 0M277 663l0 -2"/>
<path stroke="#FFA500" d="M277 663l1 0M278 664l0 -1M278 664l6 0 0 -1 1 0 0 -2 1 -1 0 -99 1 -12 0 -62 1 0M288 531l0 -44M288 531l1 7M289 594l0 -56M289 594l1 3M290 614l0 -17M290 614l1 1M291 619l0 -4M291 619l1 0M292 620l0 -1M292 620l1 0M293 622l0 -2"/>
<path stroke="#FFA500" d="M293 622l1 0M294 629l0 -7M294 629l1 2M295 657l0 -26M295 657l1 1M296 662l0 -4M296 662l1 0M297 663l0 -1M297 663l1 0M298 664l0 -1M298 664l7 0 0 -1 1 -1 0 -26 1 -7 0 -198 1 -13 0 -77 1 -2M309 360l0 -23M309 360l1 5M310 426l0 -61"/>
<path stroke="#FFA500" d="M310 426l1 5M311 465l0 -34M311 465l1 2M312 486l0 -19M312 486l1 2M313 508l0 -20M313 508l1 3M314 561l0 -50M314 561l1 8M315 659l0 -90M315 659l1 0M316 663l0 -4M316 663l1 0M317 664l0 -1M317 664l8 0 0 -1 1 0 0 -2 1 0 0 -152"/>
<path stroke="#FFA500" d="M327 509l1 -22 0 -180 1 -11 0 -64 1 -2M330 238l0 -11M330 238l1 4M331 286l0 -44M331 286l1 5M332 347l0 -56M332 347l1 5M333 415l0 -63M333 415l1 8M334 533l0 -110M334 533l1 14M335 661l0 -114M335 661l1 0M336 663l0 -2M336 663l1 0"/>
<path stroke="#FFA500" d="M337 664l0 -1M337 664l9 0 0 -1 1 -1 0 -66 1 -27 0 -240 1 -17 0 -116 1 -7 0 -36 1 -1M351 167l0 -15M351 167l1 4M352 223l0 -52M352 223l1 7M353 332l0 -102M353 332l1 11M354 494l0 -151M354 494l1 19M355 661l0 -148M355 661l1 0"/>
<path stroke="#FFA500" d="M356 663l0 -2M356 663l1 0M357 664l0 -1M357 664l9 0 0 -1 1 0 0 -25 1 -8 0 -262 1 -21 0 -170 1 -10 0 -55 1 -3 0 -6M371 105l1 1M372 138l0 -32M372 138l1 6M373 242l0 -98M373 242l1 12M374 416l0 -162M374 416l1 20M375 658l0 -222"/>
<path stroke="#FFA500" d="M375 658l1 1M376 663l0 -4M376 663l1 0M377 664l0 -1M377 664l9 0 0 -1 1 0 0 -6 1 -1 0 -278 1 -23 0 -195 1 -11 0 -62 1 -2 0 -8 1 0M392 86l0 -9M392 86l1 2M393 151l0 -63M393 151l1 10M394 309l0 -148M394 309l1 19M395 555l0 -227"/>
<path stroke="#FFA500" d="M395 555l1 25M396 662l0 -82M396 662l1 1M397 664l0 -1M397 664l9 0 0 -1 1 0 0 -5 1 -2 0 -285 1 -26 0 -195 1 -12 0 -64 1 0 0 -5 1 0M412 70l0 -1M412 70l1 0M413 85l0 -15M413 85l1 4M414 202l0 -113M414 202l1 17M415 433l0 -214"/>
<path stroke="#FFA500" d="M415 433l1 26M416 661l0 -202M416 661l1 0M417 663l0 -2M417 663l1 0M418 664l0 -1M418 664l8 0 0 -1 1 0 0 -3 1 -1 0 -286 1 -27 0 -221 1 -11 0 -44 1 0 0 -2 2 0M433 70l0 -2M433 70l1 0M434 109l0 -39M434 109l1 11M435 295l0 -175"/>
<path stroke="#FFA500" d="M435 295l1 23M436 585l0 -267M436 585l1 29M437 663l0 -49M437 663l1 0M438 664l0 -1M438 664l8 0 0 -1 1 0 0 -3 1 -2 0 -310 1 -27 0 -205 1 -11 0 -36 1 0 0 -1 3 0M454 72l0 -4M454 72l1 2M455 173l0 -99M455 173l1 18M456 464l0 -273"/>
<path stroke="#FFA500" d="M456 464l1 28M457 661l0 -169M457 661l1 1M458 663l0 -1M458 663l1 1 7 0 0 -1 1 0 0 -3 1 -1 0 -284 1 -29 0 -238 1 -11 0 -29 5 0M475 96l0 -28M475 96l1 10M476 305l0 -199M476 305l1 26M477 654l0 -323M477 654l1 3M478 663l0 -6"/>
<path stroke="#FFA500" d="M478 663l1 0M479 664l0 -1M479 664l7 0 0 -1 1 0 0 -3 1 -1 0 -284 1 -30 0 -229 1 -13 0 -35 5 0M495 71l0 -3M495 71l1 2M496 196l0 -123M496 196l1 23M497 496l0 -277M497 496l1 31M498 662l0 -135M498 662l1 1M499 664l0 -1M499 664l7 0"/>
<path stroke="#FFA500" d="M506 664l0 -1 1 0 0 -2 1 -1 0 -273 1 -31 0 -239 1 -13 0 -36 6 0M516 115l0 -47M516 115l1 16M517 375l0 -244M517 375l1 30M518 660l0 -255M518 660l1 1M519 663l0 -2M519 663l1 0M520 664l0 -1M520 664l6 0 0 -1 1 0 0 -1 1 -1 0 -222"/>
<path stroke="#FFA500" d="M528 439l1 -33 0 -282 1 -15 0 -41 6 0M536 73l0 -5M536 73l1 4M537 269l0 -192M537 269l1 27M538 598l0 -302M538 598l1 32M539 663l0 -33M539 663l1 0M540 664l0 -1M540 664l6 0 1 -1 0 -1 1 0 0 -207 1 -32 0 -273 1 -19 0 -63 6 0"/>
<path stroke="#FFA500" d="M556 68l1 1M557 166l0 -97M557 166l1 22M558 472l0 -284M558 472l1 31M559 662l0 -159M559 662l1 0M560 663l0 -1M560 663l1 1 6 0 0 -1 1 -1 0 -152 1 -34 0 -292 1 -23 0 -92 1 0 0 -1 6 0M577 99l0 -31M577 99l1 14M578 358l0 -245"/>
<path stroke="#FFA500" d="M578 358l1 30M579 660l0 -272M579 660l1 1M580 663l0 -2M580 663l1 0M581 664l0 -1M581 664l6 0 0 -1 1 0 0 -74 1 -34 0 -339 1 -25 0 -121 1 -1 0 -1 6 0M597 75l0 -7M597 75l1 5M598 271l0 -191M598 271l1 28M599 608l0 -309M599 608l1 32"/>
<path stroke="#FFA500" d="M600 663l0 -23M600 663l1 0M601 664l0 -1M601 664l6 0 0 -1 1 0 0 -36 1 -17 0 -324 1 -28 0 -185 1 -2 0 -3 6 0 1 1M618 193l0 -124M618 193l1 25M619 517l0 -299M619 517l1 32M620 662l0 -113M620 662l1 0M621 663l0 -1M621 663l1 1"/>
<path stroke="#FFA500" d="M622 664l5 0 0 -1 1 0 0 -4 1 -1 0 -335 1 -29 0 -209 1 -7 0 -10 7 0M638 123l0 -55M638 123l1 19M639 416l0 -274M639 416l1 31M640 661l0 -214M640 661l1 1M641 663l0 -1M641 663l1 0M642 664l0 -1M642 664l5 0 0 -1 1 0 0 -2 1 -1"/>
<path stroke="#FFA500" d="M649 660l0 -246 1 -32 0 -276 1 -13 0 -25 7 0M658 87l0 -19M658 87l1 11M659 335l0 -237M659 335l1 30M660 659l0 -294M660 659l1 1M661 663l0 -3M661 663l1 0M662 664l0 -1M662 664l5 0 1 -1 0 -1 1 0 0 -204 1 -33 0 -278 1 -20 0 -59"/>
<path stroke="#FFA500" d="M671 68l7 0M678 72l0 -4M678 72l1 3M679 252l0 -177M679 252l1 28M680 591l0 -311M680 591l1 32M681 663l0 -40M681 663l1 0M682 664l0 -1M682 664l6 0 0 -1 1 0 0 -114 1 -34 0 -305 1 -25 0 -116 1 0 0 -1 6 0 1 1M699 173l0 -104"/>
<path stroke="#FFA500" d="M699 173l1 24M700 496l0 -299M700 496l1 31M701 662l0 -135M701 662l1 0M702 663l0 -1M702 663l1 1 5 0 0 -1 1 0 0 -33 1 -10 0 -337 1 -28 0 -183 1 -2 0 -2 7 0M719 115l0 -47M719 115l1 17M720 436l0 -304M720 436l1 32M721 661l0 -193"/>
<path stroke="#FFA500" d="M721 661l1 1M722 663l0 -1M722 663l1 0M723 664l0 -1M723 664l5 0 0 -1 1 0 0 -3 1 -2 0 -323 1 -30 0 -217 1 -8 0 -12 7 0M739 90l0 -22M739 90l1 12M740 349l0 -247M740 349l1 31M741 659l0 -279M741 659l1 1M742 663l0 -3M742 663l1 0"/>
<path stroke="#FFA500" d="M743 664l0 -1M743 664l5 0 0 -1 1 0 0 -1 1 -1 0 -231 1 -32 0 -269 1 -17 0 -44 7 0M759 72l0 -4M759 72l1 4M760 261l0 -185M760 261l1 29M761 636l0 -346M761 636l1 16M762 663l0 -11M762 663l1 0M763 664l0 -1M763 664l6 0 0 -2"/>
<path stroke="#FFA500" d="M769 662l1 0 0 -147 1 -34 0 -298 1 -23 0 -91 1 -1 6 0M779 69l0 -1M779 69l1 0M780 195l0 -126M780 195l1 26M781 558l0 -337M781 558l1 32M782 663l0 -73M782 663l1 0M783 664l0 -1M783 664l6 0 0 -1 1 0 0 -57 1 -28 0 -320 1 -27"/>
<path stroke="#FFA500" d="M792 231l0 -161 1 -1 0 -1 7 0M800 154l0 -86M800 154l1 23M801 472l0 -295M801 472l1 32M802 662l0 -158M802 662l1 0M803 663l0 -1M803 663l1 0M804 664l0 -1M804 664l5 0 0 -1 1 0 0 -4 1 -2 0 -346 1 -29 0 -201 1 -5 0 -8 7 0M820 105l0 -37"/>
<path stroke="#FFA500" d="M820 105l1 16M821 388l0 -267M821 388l1 31M822 660l0 -241M822 660l1 1M823 663l0 -2M823 663l1 0M824 664l0 -1M824 664l5 0 0 -1 1 0 0 -2 1 0 0 -265 1 -32 0 -253 1 -14 0 -29 7 0M840 79l0 -11M840 79l1 8M841 310l0 -223M841 310l1 30"/>
<path stroke="#FFA500" d="M842 658l0 -318M842 658l1 1M843 663l0 -4M843 663l1 0M844 664l0 -1M844 664l6 0 0 -2 1 0 0 -171 1 -33 0 -292 1 -21 0 -77M853 69l1 -1 6 0M860 70l0 -2M860 70l1 2M861 233l0 -161M861 233l1 28M862 573l0 -312M862 573l1 33M863 663l0 -57"/>
<path stroke="#FFA500" d="M863 663l1 0M864 664l0 -1M864 664l6 0 0 -1 1 0 0 -82 1 -34 0 -315 1 -26 0 -136 1 -1 0 -1 6 0 1 1M881 171l0 -102M881 171l1 25M882 497l0 -301M882 497l1 32M883 662l0 -133M883 662l1 0M884 664l0 -2M884 664l6 0 0 -1 1 0 0 -6"/>
<path stroke="#FFA500" d="M891 657l1 -2 0 -333 1 -30 0 -215 1 -4 0 -5 7 0M901 131l0 -63M901 131l1 21M902 437l0 -285M902 437l1 32M903 661l0 -192M903 661l1 1M904 663l0 -1M904 663l1 0M905 664l0 -1M905 664l5 0 0 -1 1 0 0 -2 1 -1 0 -263 1 -31 0 -254"/>
<path stroke="#FFA500" d="M913 112l1 -14 0 -30 7 0M921 86l0 -18M921 86l1 10M922 367l0 -271M922 367l1 32M923 660l0 -261M923 660l1 1M924 663l0 -2M924 663l1 0M925 664l0 -1M925 664l6 0 0 -2 1 0 0 -186 1 -33 0 -287 1 -20 0 -68 7 0M941 73l0 -5M941 73l1 5"/>
<path stroke="#FFA500" d="M942 272l0 -194M942 272l1 29M943 652l0 -351M943 652l1 4M944 663l0 -7M944 663l1 0M945 664l0 -1M945 664l6 0 0 -1 1 0 0 -104 1 -35 0 -310 1 -25 0 -119 1 -1 0 -1 6 0M961 69l0 -1M961 69l1 1M962 211l0 -141M962 211l1 27M963 549l0 -311"/>
<path stroke="#FFA500" d="M963 549l1 32M964 663l0 -82M964 663l1 0"/>
<path stroke="green" d="M75 39l44 0"/>
<text stroke="none" fill="white" font-size="16" x="129" y="48">
tran4.v(/out_sim3)
</text>
<path stroke="green" d="M75 68l34 0M109 69l0 -1M109 69l2 0M111 71l0 -2M111 71l1 0M112 72l0 -1M112 72l1 1M113 75l0 -2M113 75l1 0M114 80l0 -5M114 80l1 0M115 85l0 -5M115 85l1 1M116 92l0 -6M116 92l1 1M117 100l0 -7M117 100l1 1M118 111l0 -10M118 111l1 1"/>
<path stroke="green" d="M119 121l0 -9M119 121l1 1M120 132l0 -10M120 132l1 1M121 144l0 -11M121 144l1 1M122 156l0 -11M122 156l1 2M123 168l0 -10M123 168l1 1M124 180l0 -11M124 180l1 1M125 191l0 -10M125 191l1 1M126 202l0 -10M126 202l1 1M127 213l0 -10"/>
<path stroke="green" d="M127 213l1 1M128 224l0 -10M128 224l1 1M129 233l0 -8M129 233l1 1M130 243l0 -9M130 243l1 1M131 252l0 -8M131 252l1 1M132 261l0 -8M132 261l1 1M133 269l0 -7M133 269l1 1M134 276l0 -6M134 276l1 1M135 284l0 -7M135 284l1 1M136 291l0 -6"/>
<path stroke="green" d="M136 291l1 1M137 297l0 -5M137 297l1 1M138 303l0 -5M138 303l1 1M139 309l0 -5M139 309l1 1M140 315l0 -5M140 315l1 0M141 320l0 -5M141 320l1 0M142 324l0 -4M142 324l1 1M143 329l0 -4M143 329l1 0M144 333l0 -4M144 333l1 1M145 337l0 -3"/>
<path stroke="green" d="M145 337l1 0M146 341l0 -4M146 341l1 0M147 344l0 -3M147 344l1 0M148 347l0 -3M148 347l1 1M149 350l0 -2M149 350l1 1M150 353l0 -2M150 353l1 0M151 356l0 -3M151 356l1 0M152 358l0 -2M152 358l1 1M153 361l0 -2M153 361l1 0M154 363l0 -2"/>
<path stroke="green" d="M154 363l1 0M155 365l0 -2M155 365l1 0M156 367l0 -2M156 367l1 0M157 369l0 -2M157 369l1 0M158 370l0 -1M158 370l1 0M159 372l0 -2M159 372l1 0M160 373l0 -1M160 373l1 0M161 375l0 -2M161 375l1 0M162 376l0 -1M162 376l1 0M163 377l0 -1"/>
<path stroke="green" d="M163 377l1 0M164 378l0 -1M164 378l1 0M165 379l0 -1M165 379l1 0M166 380l0 -1M166 380l1 0M167 381l0 -1M167 381l1 0M168 382l0 -1M168 382l1 0M169 383l0 -1M169 383l1 0M170 384l0 -1M170 384l1 0M171 385l0 -1M171 385l2 0M173 386l0 -1"/>
<path stroke="green" d="M173 386l1 0M174 387l0 -1M174 387l2 0M176 388l0 -1M176 388l2 0M178 389l0 -1M178 389l2 0M180 390l0 -1M180 390l2 0M182 391l0 -1M182 391l2 0M184 392l0 -1M184 392l2 0 1 1 2 0M189 394l0 -1M189 394l2 0M191 395l0 -1M191 395l3 0"/>
<path stroke="green" d="M194 396l0 -1M194 396l2 0M196 397l0 -1M196 397l2 0M198 398l0 -1M198 398l2 0M200 399l0 -1M200 399l2 0M202 400l0 -1M202 400l1 0M203 401l0 -1M203 401l2 0M205 402l0 -1M205 402l1 0M206 403l0 -1M206 403l1 0M207 404l0 -1M207 404l1 0"/>
<path stroke="green" d="M208 405l0 -1M208 405l1 0M209 406l0 -1M209 406l1 0M210 407l0 -1M210 407l1 0M211 409l0 -2M211 409l1 0M212 410l0 -1M212 410l1 0M213 412l0 -2M213 412l1 0M214 414l0 -2M214 414l1 0M215 416l0 -2M215 416l1 0M216 419l0 -3M216 419l1 0"/>
<path stroke="green" d="M217 422l0 -3M217 422l1 0M218 426l0 -4M218 426l1 1M219 432l0 -5M219 432l1 1M220 445l0 -12M220 445l1 2M221 474l0 -27M221 474l1 4M222 492l0 -14M222 492l1 1M223 501l0 -8M223 501l1 1M224 521l0 -19M224 521l1 2M225 545l0 -22"/>
<path stroke="green" d="M225 545l1 2M226 565l0 -18M226 565l1 2M227 583l0 -16M227 583l1 1M228 599l0 -15M228 599l1 2M229 613l0 -12M229 613l1 1M230 625l0 -11M230 625l1 1M231 636l0 -10M231 636l1 1M232 646l0 -9M232 646l1 1M233 655l0 -8M233 655l1 0"/>
<path stroke="green" d="M234 656l0 -1M234 656l1 1 1 0M236 658l0 -1M236 658l1 0M237 659l0 -1M237 659l1 0M238 660l0 -1M238 660l1 0M239 662l0 -2M239 662l1 0M240 663l0 -1M240 663l2 0 0 -1 1 0 0 -1 1 -1 0 -3 1 -1M245 658l0 -2M245 658l1 0M246 660l0 -2"/>
<path stroke="green" d="M246 660l4 0M250 661l0 -1M250 661l7 0M257 662l0 -1M257 662l1 0M258 663l0 -1M258 663l1 0M259 664l0 -1M259 664l4 0 0 -1 1 0 0 -2 1 0 0 -90 1 -8M266 574l0 -24M266 574l1 8M267 656l0 -74M267 656l1 1M268 659l0 -2M268 659l1 0"/>
<path stroke="green" d="M269 660l0 -1M269 660l7 0M276 661l0 -1M276 661l1 0M277 663l0 -2M277 663l1 0M278 664l0 -1M278 664l6 0 0 -1 1 0 0 -4 1 -2 0 -263 1 -13 0 -39M287 355l1 7M288 471l0 -109M288 471l1 11M289 555l0 -73M289 555l1 4M290 583l0 -24"/>
<path stroke="green" d="M290 583l1 1M291 590l0 -6M291 590l1 1M292 594l0 -3M292 594l1 0M293 597l0 -3M293 597l1 0M294 606l0 -9M294 606l1 1M295 650l0 -43M295 650l1 5M296 662l0 -7M296 662l1 0M297 664l0 -2M297 664l8 0 0 -1 1 0 0 -103 1 -39 0 -295"/>
<path stroke="green" d="M307 226l1 -15 0 -51M308 161l1 3M309 243l0 -79M309 243l1 11M310 345l0 -91M310 345l1 7M311 398l0 -46M311 398l1 3M312 427l0 -26M312 427l1 2M313 452l0 -23M313 452l1 3M314 505l0 -50M314 505l1 9M315 658l0 -144M315 658l1 1M316 663l0 -4"/>
<path stroke="green" d="M316 663l1 0M317 664l0 -1M317 664l9 0 0 -2 1 0 0 -290 1 -35 0 -230 1 -8 0 -22 1 0M330 96l0 -19M330 96l1 4M331 157l0 -57M331 157l1 7M332 224l0 -60M332 224l1 6M333 308l0 -78M333 308l1 10M334 459l0 -141M334 459l1 21M335 662l0 -182"/>
<path stroke="green" d="M335 662l1 0M336 664l0 -2M336 664l10 0 0 -1 1 0 0 -113 1 -38 0 -366 1 -19 0 -58 1 0 0 -1 1 0M351 69l0 -1M351 69l1 0M352 82l0 -13M352 82l1 3M353 176l0 -91M353 176l1 15M354 407l0 -216M354 407l1 30M355 662l0 -225M355 662l1 0"/>
<path stroke="green" d="M356 664l0 -2M356 664l11 0 0 -3 1 -2 0 -448 1 -31 0 -111 1 -1 3 0M373 80l0 -12M373 80l1 6M374 281l0 -195M374 281l1 31M375 660l0 -348M375 660l1 1M376 664l0 -3M376 664l11 0 0 -2 1 0 0 -401 1 -39 0 -153 1 -1 0 -1M390 68l4 0"/>
<path stroke="green" d="M394 124l0 -56M394 124l1 23M395 563l0 -416M395 563l1 42M396 664l0 -59M396 664l11 0 0 -1 1 -1 0 -382 1 -44 0 -168 5 0M414 69l0 -1M414 69l1 1M415 338l0 -268M415 338l1 46M416 663l0 -279M416 663l1 0M417 664l0 -1M417 664l10 0"/>
<path stroke="green" d="M427 664l0 -1 1 -1 0 -360 1 -48 0 -186 6 0M435 119l0 -51M435 119l1 28M436 656l0 -509M436 656l1 1M437 664l0 -7M437 664l10 0 0 -1 1 0 0 -365 1 -50 0 -180 6 0 1 1M456 355l0 -286M456 355l1 52M457 663l0 -256M457 663l1 0M458 664l0 -1"/>
<path stroke="green" d="M458 664l9 0 0 -1 1 0 0 -355 1 -53 0 -187 7 0M476 133l0 -65M476 133l1 36M477 660l0 -491M477 660l1 1M478 664l0 -3M478 664l9 0 0 -1 1 0 0 -359 1 -53 0 -184M489 68l1 -1M490 68l0 -1M490 68l6 0M496 69l0 -1M496 69l1 3M497 463l0 -391"/>
<path stroke="green" d="M497 463l1 47M498 663l0 -153M498 663l1 1 8 0 0 -1 1 0 0 -315 1 -56 0 -225 1 1 0 -1M510 68l7 0M517 222l0 -154M517 222l1 51M518 662l0 -389M518 662l1 1M519 664l0 -1M519 664l8 0 0 -1 1 0 0 -270 1 -36 0 -289 8 0M537 87l0 -19"/>
<path stroke="green" d="M537 87l1 23M538 646l0 -536M538 646l1 10M539 664l0 -8M539 664l9 0 0 -195 1 -38 0 -363 9 0M558 420l0 -352M558 420l1 59M559 663l0 -184M559 663l1 0M560 664l0 -1M560 664l8 0 0 -87 1 -31 0 -474 1 -3 0 -1 8 0M578 207l0 -139"/>
<path stroke="green" d="M578 207l1 50M579 662l0 -405M579 662l1 1M580 664l0 -1M580 664l8 0 0 -4 1 -3 0 -560 1 -18 0 -11 8 0M598 91l0 -23M598 91l1 27M599 660l0 -542M599 660l1 1M600 664l0 -3M600 664l8 0 0 -2 1 0 0 -485 1 -43 0 -66 8 0M618 69l0 -1"/>
<path stroke="green" d="M618 69l1 3M619 563l0 -491M619 563l1 57M620 664l0 -44M620 664l8 0 0 -1 1 0 0 -364 1 -55 0 -176 9 0M639 372l0 -304M639 372l1 60M640 663l0 -231M640 663l1 0M641 664l0 -1M641 664l7 0 1 -1 0 -198 1 -41 0 -356 9 0M659 246l0 -178"/>
<path stroke="green" d="M659 246l1 55M660 663l0 -362M660 663l1 0M661 664l0 -1M661 664l8 0 0 -55 1 -27 0 -505 1 -6 0 -3 8 0M679 122l0 -54M679 122l1 39M680 662l0 -501M680 662l1 0M681 664l0 -2M681 664l8 0 0 -3 1 -1 0 -505 1 -37 0 -50 8 0M699 81l0 -13"/>
<path stroke="green" d="M699 81l1 20M700 636l0 -535M700 636l1 21M701 664l0 -7M701 664l8 0 0 -1 1 0 0 -392 1 -54 0 -150 1 1 0 -1M712 68l2 0M714 69l0 -1 1 1 0 -1M715 69l1 -1M716 69l0 -1 3 0 1 1M720 445l0 -376M720 445l1 61M721 664l0 -158M721 664l8 0"/>
<path stroke="green" d="M729 664l0 -1 1 0 0 -272 1 -35 0 -288 9 0M740 334l0 -266M740 334l1 59M741 663l0 -270M741 663l1 0M742 664l0 -1M742 664l8 0 0 -97 1 -38 0 -459 1 -2 0 -1M752 68l2 0M754 69l0 -1 1 1 0 -1M755 69l1 -1M756 69l0 -1 4 0M760 211l0 -143"/>
<path stroke="green" d="M760 211l1 52M761 662l0 -399M761 662l1 1M762 664l0 -1M762 664l8 0 0 -3 1 -2 0 -537 1 -29 0 -25 8 0M780 89l0 -21M780 89l1 27M781 660l0 -544M781 660l1 1M782 664l0 -3M782 664l8 0 0 -1 1 -1 0 -422 1 -52 0 -120 8 0M800 69l0 -1"/>
<path stroke="green" d="M800 69l1 3M801 577l0 -505M801 577l1 63M802 664l0 -24M802 664l8 0 0 -1 1 0 0 -285 1 -55 0 -255 9 0M821 378l0 -310M821 378l1 60M822 663l0 -225M822 663l1 1 8 0 0 -138 1 -36 0 -420 1 -2 8 0M841 243l0 -175M841 243l1 55M842 663l0 -365"/>
<path stroke="green" d="M842 663l1 0M843 664l0 -1M843 664l8 0 0 -4 1 -2 0 -568 1 -14 0 -8 8 0M861 141l0 -73M861 141l1 44M862 661l0 -476M862 661l1 1M863 664l0 -2M863 664l8 0 0 -1 1 -1 0 -492 1 -41 0 -61 8 0M881 80l0 -12M881 80l1 20M882 657l0 -557"/>
<path stroke="green" d="M882 657l1 0M883 664l0 -7M883 664l8 0 0 -1 1 0 0 -354 1 -55 0 -186 8 0 1 2M902 483l0 -413M902 483l1 51M903 664l0 -130M903 664l9 0 0 -184 1 -45 0 -367 1 0 0 -1M914 68l3 0M917 69l0 -1M917 69l1 -1 4 0M922 336l0 -268M922 336l1 60"/>
<path stroke="green" d="M923 663l0 -267M923 663l1 0M924 664l0 -1M924 664l8 0 0 -19 1 -7 0 -551 1 -13 0 -6 8 0M942 215l0 -147M942 215l1 54M943 663l0 -394M943 663l1 0M944 664l0 -1M944 664l8 0 0 -2 1 -1 0 -512 1 -36 0 -45 8 0M962 96l0 -28M962 96l1 31"/>
<path stroke="green" d="M963 661l0 -534M963 661l1 0M964 664l0 -3M964 664l1 0"/>
<path stroke="#FFC0C5" d="M445 55l44 0"/>
<text stroke="none" fill="white" font-size="16" x="499" y="64">
tran5.v(/out_sim3)
</text>
<path stroke="#FFC0C5" d="M75 68l34 0M109 69l0 -1M109 69l2 0M111 70l0 -1M111 70l1 1M112 72l0 -1M112 72l1 1M113 75l0 -2M113 75l1 1M114 79l0 -3M114 79l1 1M115 85l0 -5M115 85l1 0M116 92l0 -7M116 92l1 1M117 101l0 -8M117 101l1 1M118 110l0 -8M118 110l1 1"/>
<path stroke="#FFC0C5" d="M119 121l0 -10M119 121l1 1M120 133l0 -11M120 133l1 1M121 144l0 -10M121 144l1 1M122 156l0 -11M122 156l1 1M123 168l0 -11M123 168l1 1M124 179l0 -10M124 179l1 1M125 191l0 -11M125 191l1 1M126 202l0 -10M126 202l1 1M127 213l0 -10"/>
<path stroke="#FFC0C5" d="M127 213l1 1M128 223l0 -9M128 223l1 1M129 234l0 -10M129 234l1 1M130 243l0 -8M130 243l1 1M131 252l0 -8M131 252l1 1M132 261l0 -8M132 261l1 0M133 269l0 -8M133 269l1 1M134 277l0 -7M134 277l1 0M135 284l0 -7M135 284l1 1M136 291l0 -6"/>
<path stroke="#FFC0C5" d="M136 291l1 0M137 298l0 -7M137 298l1 0M138 304l0 -6M138 304l1 0M139 309l0 -5M139 309l1 1M140 314l0 -4M140 314l1 1M141 319l0 -4M141 319l1 1M142 325l0 -5M142 325l1 0M143 329l0 -4M143 329l1 0M144 333l0 -4M144 333l1 0M145 337l0 -4"/>
<path stroke="#FFC0C5" d="M145 337l1 0M146 341l0 -4M146 341l1 0M147 344l0 -3M147 344l1 0M148 347l0 -3M148 347l1 1M149 350l0 -2M149 350l1 1M150 353l0 -2M150 353l1 1M151 356l0 -2M151 356l1 0M152 358l0 -2M152 358l1 1M153 361l0 -2M153 361l1 0M154 363l0 -2"/>
<path stroke="#FFC0C5" d="M154 363l1 0M155 365l0 -2M155 365l1 0M156 367l0 -2M156 367l1 0M157 369l0 -2M157 369l1 0M158 370l0 -1M158 370l1 0M159 372l0 -2M159 372l1 0M160 373l0 -1M160 373l1 0M161 375l0 -2M161 375l1 0M162 376l0 -1M162 376l1 0M163 377l0 -1"/>
<path stroke="#FFC0C5" d="M163 377l1 0M164 378l0 -1M164 378l1 0M165 379l0 -1M165 379l1 0M166 380l0 -1M166 380l1 0M167 381l0 -1M167 381l1 0M168 382l0 -1M168 382l1 0M169 383l0 -1M169 383l1 0M170 384l0 -1M170 384l1 0M171 385l0 -1M171 385l2 0M173 386l0 -1"/>
<path stroke="#FFC0C5" d="M173 386l1 0M174 387l0 -1M174 387l2 0M176 388l0 -1M176 388l2 0M178 389l0 -1M178 389l2 0M180 390l0 -1M180 390l2 0M182 391l0 -1M182 391l2 0M184 392l0 -1M184 392l2 0 1 1 2 0M189 394l0 -1M189 394l2 0M191 395l0 -1M191 395l3 0"/>
<path stroke="#FFC0C5" d="M194 396l0 -1M194 396l2 0M196 397l0 -1M196 397l2 0M198 398l0 -1M198 398l2 0M200 399l0 -1M200 399l2 0M202 400l0 -1M202 400l1 0M203 401l0 -1M203 401l2 0M205 402l0 -1M205 402l1 0M206 403l0 -1M206 403l1 0M207 404l0 -1M207 404l1 0"/>
<path stroke="#FFC0C5" d="M208 405l0 -1M208 405l1 0M209 406l0 -1M209 406l1 0M210 407l0 -1M210 407l1 1M211 409l0 -1M211 409l1 0M212 410l0 -1M212 410l1 0M213 412l0 -2M213 412l1 0M214 414l0 -2M214 414l1 0M215 416l0 -2M215 416l1 0M216 419l0 -3M216 419l1 0"/>
<path stroke="#FFC0C5" d="M217 422l0 -3M217 422l1 0M218 426l0 -4M218 426l1 1M219 433l0 -6M219 433l1 1M220 445l0 -11M220 445l1 1M221 474l0 -28M221 474l1 4M222 493l0 -15M222 493l1 0M223 500l0 -7M223 500l1 2M224 520l0 -18M224 520l1 2M225 544l0 -22"/>
<path stroke="#FFC0C5" d="M225 544l1 2M226 566l0 -20M226 566l1 2M227 583l0 -15M227 583l1 2M228 599l0 -14M228 599l1 1M229 612l0 -12M229 612l1 2M230 625l0 -11M230 625l1 1M231 637l0 -11M231 637l1 1M232 646l0 -8M232 646l1 1M233 655l0 -8M233 655l1 0"/>
<path stroke="#FFC0C5" d="M234 656l0 -1M234 656l1 1 1 0M236 658l0 -1M236 658l1 0M237 659l0 -1M237 659l1 0M238 660l0 -1M238 660l1 0M239 662l0 -2M239 662l1 0M240 663l0 -1M240 663l3 0 0 -4 1 -1 0 -39M244 620l1 1M245 657l0 -36M245 657l1 0M246 659l0 -2"/>
<path stroke="#FFC0C5" d="M246 659l1 1 3 0M250 661l0 -1M250 661l7 0 1 1M258 663l0 -1M258 663l1 0M259 664l0 -1M259 664l4 0 0 -1 1 0 0 -555 1 -13M265 136l0 -54M265 136l1 20M266 432l0 -276M266 432l1 24M267 614l0 -158M267 614l1 8M268 657l0 -35M268 657l1 0"/>
<path stroke="#FFC0C5" d="M269 658l0 -1M269 658l6 0M275 659l0 -1M275 659l1 0M276 660l0 -1M276 660l1 0M277 663l0 -3M277 663l1 0M278 664l0 -1M278 664l5 0 1 1 0 -597 4 0M288 81l0 -13M288 81l1 4M289 133l0 -48M289 133l1 4M290 168l0 -31M290 168l1 3"/>
<path stroke="#FFC0C5" d="M291 196l0 -25M291 196l1 2M292 224l0 -26M292 224l1 2M293 250l0 -24M293 250l1 2M294 277l0 -25M294 277l1 3M295 321l0 -41M295 321l1 7M296 511l0 -183M296 511l1 29M297 664l0 -124M297 664l3 0M300 665l0 -1M300 665l1 -1M301 665l0 -1"/>
<path stroke="#FFC0C5" d="M301 665l4 0 0 -598M305 68l10 0M315 74l0 -6M315 74l1 2M316 297l0 -221M316 297l1 68M317 664l0 -299M317 664l1 0M318 665l0 -1M318 665l1 -1M319 665l0 -1 1 1 0 -1M320 665l1 -1M321 665l0 -1M321 665l1 -1M322 665l0 -1 1 1 0 -1"/>
<path stroke="#FFC0C5" d="M323 665l1 -1M324 665l0 -1 1 1 0 -1M325 665l1 0 0 -597 10 0M336 128l0 -60M336 128l1 80M337 664l0 -456M337 664l1 0M338 665l0 -1M338 665l9 0 0 -597 9 0M356 69l0 -1M356 69l1 18M357 664l0 -577M357 664l1 0M358 665l0 -1M358 665l9 0"/>
<path stroke="#FFC0C5" d="M367 665l0 -597 10 0M377 664l0 -596M377 664l1 0M378 665l0 -1M378 665l8 0 0 -1 1 1 0 -1M387 665l1 0 0 -597 9 0M397 664l0 -596M397 664l1 0M398 665l0 -1M398 665l10 0 0 -597 9 0M417 664l0 -596M417 664l1 0M418 665l0 -1M418 665l10 0"/>
<path stroke="#FFC0C5" d="M428 665l0 -597 9 0M437 661l0 -593M437 661l1 1M438 665l0 -3M438 665l11 0 0 -597 9 0M458 664l0 -596M458 664l1 1 10 0 0 -597 9 0M478 664l0 -596M478 664l1 0M479 665l0 -1M479 665l10 0 0 -597 9 0M498 664l0 -596M498 664l1 0"/>
<path stroke="#FFC0C5" d="M499 665l0 -1M499 665l10 0 0 -597M509 69l1 0 0 -1 8 0M518 663l0 -595M518 663l1 0M519 665l0 -2M519 665l11 0 0 -597 9 0M539 665l0 -597M539 665l11 0 0 -597 9 0M559 664l0 -596M559 664l1 1 10 0 0 -597 9 0M579 664l0 -596M579 664l1 0"/>
<path stroke="#FFC0C5" d="M580 665l0 -1M580 665l9 0 0 -1M589 665l1 -1M590 665l0 -597 9 0M599 663l0 -595M599 663l1 0M600 665l0 -2M600 665l11 0 0 -597 9 0M620 665l0 -597M620 665l11 0 0 -597 9 0M640 664l0 -596M640 664l1 1 10 0 0 -597 9 0M660 664l0 -596"/>
<path stroke="#FFC0C5" d="M660 664l1 0M661 665l0 -1M661 665l10 0 0 -597 9 0M680 663l0 -595M680 663l1 0M681 665l0 -2M681 665l11 0 0 -597 9 0M701 665l0 -597M701 665l11 0 0 -597 9 0M721 665l0 -597M721 665l11 0 0 -597 9 0M741 664l0 -596M741 664l1 0"/>
<path stroke="#FFC0C5" d="M742 665l0 -1M742 665l10 0 0 -597 9 0M761 664l0 -596M761 664l1 0M762 665l0 -1M762 665l10 0 0 -596 1 0 0 -1 9 0M782 665l0 -597M782 665l11 0 0 -597 9 0M802 665l0 -597M802 665l11 0 0 -597 9 0M822 664l0 -596M822 664l1 0"/>
<path stroke="#FFC0C5" d="M823 665l0 -1M823 665l10 0 0 -597 9 0M842 664l0 -596M842 664l1 0M843 665l0 -1M843 665l10 0M853 666l0 -598 10 0M863 665l0 -597M863 665l11 0 0 -597 9 0M883 665l0 -597M883 665l11 0 0 -597 9 0M903 664l0 -596M903 664l1 1"/>
<path stroke="#FFC0C5" d="M904 665l10 0M914 666l0 -598 9 0M923 664l0 -596M923 664l1 0M924 665l0 -1M924 665l10 0 0 -597 9 0 1 2M944 665l0 -595M944 665l10 0 0 -596 1 0 0 -1 9 0M964 665l0 -597M964 665l1 0"/>
</svg>
