M48
; DRILL file {KiCad 9.0.7} date 2026-02-01T22:22:47+0100
; FORMAT={-:-/ absolute / metric / decimal}
; #@! TF.CreationDate,2026-02-01T22:22:47+01:00
; #@! TF.GenerationSoftware,Kicad,Pcbnew,9.0.7
; #@! TF.FileFunction,Plated,1,2,PTH
FMAT,2
METRIC
; #@! TA.AperFunction,Plated,PTH,ViaDrill
T1C0.300
; #@! TA.AperFunction,Plated,PTH,ComponentDrill
T2C0.700
; #@! TA.AperFunction,Plated,PTH,ComponentDrill
T3C0.800
; #@! TA.AperFunction,Plated,PTH,ComponentDrill
T4C0.900
; #@! TA.AperFunction,Plated,PTH,ComponentDrill
T5C1.000
; #@! TA.AperFunction,Plated,PTH,ComponentDrill
T6C1.100
%
G90
G05
T1
X3.81Y39.37
X3.81Y29.21
X3.81Y19.05
X8.89Y73.66
X8.89Y63.5
X8.89Y39.37
X12.192Y9.144
X12.192Y2.54
X17.272Y50.038
X17.78Y39.37
X17.78Y29.21
X17.78Y21.59
X19.05Y67.31
X19.05Y59.69
X22.86Y7.62
X25.4Y73.66
X26.67Y35.56
X30.48Y50.8
X30.48Y25.4
X30.48Y16.51
X34.29Y67.31
X35.052Y44.196
X37.592Y44.196
X37.592Y38.862
X40.386Y8.89
X44.45Y73.66
X44.45Y63.5
X44.45Y53.34
X44.45Y35.56
X44.45Y25.4
T2
X3.268Y16.002
X3.268Y10.922
X6.268Y15.962
X6.268Y10.882
X8.382Y57.658
X8.382Y52.578
X11.403Y57.658
X11.403Y52.578
X12.268Y15.992
X12.268Y10.912
X14.986Y15.992
X14.986Y10.912
X18.034Y57.658
X18.034Y52.578
X20.868Y57.658
X20.868Y52.578
X22.205Y21.844
X23.889Y57.658
X23.889Y52.578
X27.285Y21.844
X30.48Y57.658
X30.48Y52.578
X33.354Y57.658
X33.354Y52.578
X34.29Y15.748
X34.29Y10.668
X36.375Y57.658
X36.375Y52.578
X37.338Y15.748
X37.338Y10.668
X39.397Y57.658
X39.397Y52.578
X40.386Y15.748
X40.386Y10.668
X42.418Y57.658
X42.418Y52.578
X46.482Y15.748
X46.482Y10.668
T3
X5.588Y47.966
X5.588Y45.466
X6.35Y35.052
X6.43Y21.844
X8.89Y35.052
X9.144Y17.77
X9.144Y10.15
X11.43Y35.052
X11.43Y21.844
X11.978Y47.244
X12.086Y64.516
X16.978Y47.244
X17.086Y64.516
X18.288Y15.962
X18.288Y10.962
X22.138Y28.448
X23.408Y47.244
X24.384Y64.156
X26.924Y64.156
X27.138Y28.448
X27.178Y58.928
X27.178Y51.308
X28.408Y47.244
X29.464Y64.156
X34.37Y64.516
X34.37Y47.244
X35.052Y35.052
X37.592Y35.052
X39.37Y64.516
X39.37Y47.244
X40.132Y35.052
X43.434Y17.018
X43.434Y9.398
X45.466Y47.966
X45.466Y45.466
T4
X23.622Y11.972
X26.162Y11.972
T5
X4.772Y76.972
X9.852Y76.972
X14.932Y76.972
X19.558Y76.997
X19.812Y41.972
X20.712Y3.302
X22.098Y76.997
X23.252Y3.302
X24.892Y41.972
X25.792Y3.302
X27.482Y76.997
X28.332Y3.302
X29.972Y41.972
X30.022Y76.997
X34.772Y76.972
X39.852Y76.972
X44.932Y76.972
T6
X14.625Y61.468
X14.625Y51.308
M30
