M48
; DRILL file {KiCad 9.0.7} date 2026-03-08T23:38:22+0100
; FORMAT={-:-/ absolute / metric / decimal}
; #@! TF.CreationDate,2026-03-08T23:38:22+01:00
; #@! TF.GenerationSoftware,Kicad,Pcbnew,9.0.7
; #@! TF.FileFunction,Plated,1,2,PTH
FMAT,2
METRIC
; #@! TA.AperFunction,Plated,PTH,ViaDrill
T1C0.300
; #@! TA.AperFunction,Plated,PTH,ComponentDrill
T2C0.700
; #@! TA.AperFunction,Plated,PTH,ComponentDrill
T3C0.800
; #@! TA.AperFunction,Plated,PTH,ComponentDrill
T4C0.900
; #@! TA.AperFunction,Plated,PTH,ComponentDrill
T5C1.000
; #@! TA.AperFunction,Plated,PTH,ComponentDrill
T6C1.100
%
G90
G05
T1
X2.54Y68.58
X2.54Y63.5
X5.08Y35.56
X5.08Y30.48
X5.08Y5.08
X7.62Y73.66
X7.62Y68.58
X10.16Y35.56
X10.16Y30.48
X10.16Y5.08
X12.192Y49.276
X12.7Y73.66
X12.7Y68.58
X12.7Y43.18
X14.986Y21.844
X15.24Y5.08
X17.526Y28.448
X17.78Y73.66
X17.78Y55.88
X17.78Y20.32
X20.32Y63.5
X20.32Y46.482
X22.86Y55.88
X22.86Y20.32
X22.86Y15.24
X22.86Y10.16
X25.4Y73.66
X25.4Y53.34
X27.94Y63.5
X27.94Y55.88
X27.94Y15.24
X27.94Y10.16
X30.48Y73.66
X30.48Y48.26
X30.48Y27.94
X30.48Y22.86
X33.02Y58.42
X34.798Y39.116
X35.56Y27.94
X35.56Y22.86
X38.1Y38.1
X40.64Y63.5
X40.64Y7.62
X43.18Y73.66
X45.72Y63.5
X45.72Y27.94
X45.72Y22.86
T2
X2.54Y59.944
X2.54Y52.324
X3.268Y18.532
X3.268Y10.912
X5.561Y59.944
X5.561Y52.324
X6.268Y18.532
X6.268Y10.912
X12.192Y59.944
X12.192Y52.324
X12.268Y18.532
X12.268Y10.912
X14.986Y18.532
X14.986Y10.912
X15.24Y59.944
X15.24Y52.324
X21.042Y28.956
X28.662Y28.956
X32.512Y70.866
X32.512Y63.246
X34.29Y18.532
X34.29Y10.912
X35.814Y60.198
X35.814Y52.578
X37.338Y18.532
X37.338Y10.912
X38.688Y60.198
X38.688Y52.578
X40.386Y18.532
X40.386Y10.912
X41.709Y60.198
X41.709Y52.578
X44.731Y60.198
X44.731Y52.578
X46.482Y18.532
X46.482Y10.912
X47.752Y60.198
X47.752Y52.578
T3
X5.882Y46.482
X6.35Y25.908
X6.35Y21.844
X8.636Y41.337
X8.636Y38.837
X8.89Y25.908
X9.144Y18.542
X9.144Y10.922
X10.882Y46.482
X11.35Y21.844
X11.43Y25.908
X12.086Y64.516
X17.086Y64.516
X18.288Y17.232
X18.288Y12.232
X22.392Y37.592
X22.432Y33.02
X22.86Y68.072
X25.4Y68.072
X27.392Y37.592
X27.432Y33.02
X27.94Y68.072
X35.801Y70.866
X35.801Y63.246
X37.418Y46.482
X37.846Y25.908
X39.664Y66.802
X40.386Y25.908
X42.418Y46.482
X42.418Y41.337
X42.418Y38.837
X42.926Y25.908
X43.434Y18.542
X43.434Y10.922
X44.664Y66.802
T4
X23.622Y25.472
X26.162Y25.472
T5
X4.772Y76.972
X9.852Y76.972
X14.932Y76.972
X19.558Y76.997
X19.812Y41.972
X20.712Y3.302
X22.098Y76.997
X23.252Y3.302
X24.892Y41.972
X25.792Y3.302
X27.482Y76.997
X28.332Y3.302
X29.972Y41.972
X30.022Y76.997
X34.772Y76.972
X39.852Y76.972
X44.932Y76.972
T6
X8.783Y61.214
X8.783Y51.054
M30
