%TF.GenerationSoftware,KiCad,Pcbnew,10.0.1*%
%TF.CreationDate,2026-05-11T07:37:28+02:00*%
%TF.ProjectId,basstortr-bass-distortion,62617373-746f-4727-9472-2d626173732d,C*%
%TF.SameCoordinates,PX1c9c380PY4c4b400*%
%TF.FileFunction,Copper,L2,Bot*%
%TF.FilePolarity,Positive*%
%FSLAX46Y46*%
G04 Gerber Fmt 4.6, Leading zero omitted, Abs format (unit mm)*
G04 Created by KiCad (PCBNEW 10.0.1) date 2026-05-11 07:37:28*
%MOMM*%
%LPD*%
G01*
G04 APERTURE LIST*
G04 Aperture macros list*
%AMRoundRect*
0 Rectangle with rounded corners*
0 $1 Rounding radius*
0 $2 $3 $4 $5 $6 $7 $8 $9 X,Y pos of 4 corners*
0 Add a 4 corners polygon primitive as box body*
4,1,4,$2,$3,$4,$5,$6,$7,$8,$9,$2,$3,0*
0 Add four circle primitives for the rounded corners*
1,1,$1+$1,$2,$3*
1,1,$1+$1,$4,$5*
1,1,$1+$1,$6,$7*
1,1,$1+$1,$8,$9*
0 Add four rect primitives between the rounded corners*
20,1,$1+$1,$2,$3,$4,$5,0*
20,1,$1+$1,$4,$5,$6,$7,0*
20,1,$1+$1,$6,$7,$8,$9,0*
20,1,$1+$1,$8,$9,$2,$3,0*%
G04 Aperture macros list end*
%TA.AperFunction,ComponentPad*%
%ADD10R,1.700000X1.700000*%
%TD*%
%TA.AperFunction,ComponentPad*%
%ADD11C,1.700000*%
%TD*%
%TA.AperFunction,ComponentPad*%
%ADD12R,1.500000X1.500000*%
%TD*%
%TA.AperFunction,ComponentPad*%
%ADD13C,1.500000*%
%TD*%
%TA.AperFunction,ComponentPad*%
%ADD14C,1.400000*%
%TD*%
%TA.AperFunction,ComponentPad*%
%ADD15RoundRect,0.250000X-0.550000X-0.550000X0.550000X-0.550000X0.550000X0.550000X-0.550000X0.550000X0*%
%TD*%
%TA.AperFunction,ComponentPad*%
%ADD16C,1.600000*%
%TD*%
%TA.AperFunction,ComponentPad*%
%ADD17RoundRect,0.250000X0.550000X-0.550000X0.550000X0.550000X-0.550000X0.550000X-0.550000X-0.550000X0*%
%TD*%
%TA.AperFunction,ComponentPad*%
%ADD18RoundRect,0.250000X0.550000X0.550000X-0.550000X0.550000X-0.550000X-0.550000X0.550000X-0.550000X0*%
%TD*%
%TA.AperFunction,ComponentPad*%
%ADD19RoundRect,0.250000X-0.550000X0.550000X-0.550000X-0.550000X0.550000X-0.550000X0.550000X0.550000X0*%
%TD*%
%TA.AperFunction,ComponentPad*%
%ADD20RoundRect,0.249999X0.850001X-0.850001X0.850001X0.850001X-0.850001X0.850001X-0.850001X-0.850001X0*%
%TD*%
%TA.AperFunction,ComponentPad*%
%ADD21C,2.200000*%
%TD*%
%TA.AperFunction,ViaPad*%
%ADD22C,0.700000*%
%TD*%
%TA.AperFunction,Conductor*%
%ADD23C,1.000000*%
%TD*%
G04 APERTURE END LIST*
D10*
%TO.P,POT2,1,Pin_1_1*%
%TO.N,Net-(POT2-Pin_1)*%
X45040000Y29000000D03*
D11*
%TO.P,POT2,2,Pin_2_2*%
%TO.N,Net-(POT2-Pin_2)*%
X42500000Y29000000D03*
%TO.P,POT2,3,Pin_3_3*%
%TO.N,Net-(POT2-Pin_3)*%
X39960000Y29000000D03*
%TD*%
D12*
%TO.P,Q2,1,D_1*%
%TO.N,Net-(Q2-D)*%
X23690000Y28000000D03*
D13*
%TO.P,Q2,2,G_2*%
%TO.N,Net-(D2-K)*%
X23690000Y25460000D03*
%TO.P,Q2,3,S_3*%
%TO.N,Net-(D2-A)*%
X23690000Y22920000D03*
%TD*%
D14*
%TO.P,R9,1*%
%TO.N,Net-(D2-A)*%
X24000000Y17500000D03*
%TO.P,R9,2*%
%TO.N,GND*%
X24000000Y9880000D03*
%TD*%
D15*
%TO.P,C5,1*%
%TO.N,Net-(Q3-D)*%
X38500000Y39500000D03*
D16*
%TO.P,C5,2*%
%TO.N,Net-(C5-Pad2)*%
X41000000Y39500000D03*
%TD*%
%TO.P,C1,1*%
%TO.N,IN*%
X6500000Y8000000D03*
%TO.P,C1,2*%
%TO.N,Net-(D1-K)*%
X6500000Y13000000D03*
%TD*%
%TO.P,C9,1*%
%TO.N,Net-(POT3-Pin_3)*%
X37500000Y18000000D03*
%TO.P,C9,2*%
%TO.N,GND*%
X37500000Y23000000D03*
%TD*%
D14*
%TO.P,R3,1*%
%TO.N,Net-(D1-K)*%
X5750000Y15500000D03*
%TO.P,R3,2*%
%TO.N,Net-(Q1-D)*%
X13370000Y15500000D03*
%TD*%
%TO.P,R13,1*%
%TO.N,Net-(D3-A)*%
X29500000Y25000000D03*
%TO.P,R13,2*%
%TO.N,GND*%
X29500000Y17380000D03*
%TD*%
D10*
%TO.P,POT1,1,Pin_1_1*%
%TO.N,GND*%
X19500000Y13080000D03*
D11*
%TO.P,POT1,2,Pin_2_2*%
X19500000Y10540000D03*
%TO.P,POT1,3,Pin_3_3*%
%TO.N,Net-(D1-A)*%
X19500000Y8000000D03*
%TD*%
D14*
%TO.P,R16,1*%
%TO.N,Net-(POT2-Pin_2)*%
X43000000Y26000000D03*
%TO.P,R16,2*%
%TO.N,Net-(C8-Pad1)*%
X43000000Y18380000D03*
%TD*%
%TO.P,R6,1*%
%TO.N,Net-(D2-K)*%
X26500000Y17500000D03*
%TO.P,R6,2*%
%TO.N,GND*%
X26500000Y9880000D03*
%TD*%
%TO.P,R11,1*%
%TO.N,Net-(D3-K)*%
X27690000Y38000000D03*
%TO.P,R11,2*%
%TO.N,Net-(Q3-D)*%
X35310000Y38000000D03*
%TD*%
D17*
%TO.P,C100,1*%
%TO.N,VCC_F*%
X11000000Y38000000D03*
D16*
%TO.P,C100,2*%
%TO.N,GND*%
X11000000Y40500000D03*
%TD*%
D10*
%TO.P,J3,1,Pin_1_1*%
%TO.N,GND*%
X30000000Y48000000D03*
D11*
%TO.P,J3,2,Pin_2_2*%
X27460000Y48000000D03*
%TD*%
D14*
%TO.P,CLR1,1*%
%TO.N,VCC_F*%
X24000000Y6500000D03*
%TO.P,CLR1,2*%
%TO.N,SW*%
X31620000Y6500000D03*
%TD*%
D18*
%TO.P,D3,1,K_1*%
%TO.N,Net-(D3-K)*%
X36810000Y27500000D03*
D16*
%TO.P,D3,2,A_2*%
%TO.N,Net-(D3-A)*%
X29190000Y27500000D03*
%TD*%
D19*
%TO.P,D1,1,K_1*%
%TO.N,Net-(D1-K)*%
X16000000Y15120000D03*
D16*
%TO.P,D1,2,A_2*%
%TO.N,Net-(D1-A)*%
X16000000Y7500000D03*
%TD*%
%TO.P,C7,1*%
%TO.N,GND*%
X47000000Y37500000D03*
%TO.P,C7,2*%
%TO.N,Net-(POT2-Pin_1)*%
X47000000Y32500000D03*
%TD*%
D12*
%TO.P,Q1,1,D_1*%
%TO.N,Net-(Q1-D)*%
X10500000Y12580000D03*
D13*
%TO.P,Q1,2,G_2*%
%TO.N,Net-(D1-K)*%
X10500000Y10040000D03*
%TO.P,Q1,3,S_3*%
%TO.N,Net-(D1-A)*%
X10500000Y7500000D03*
%TD*%
D14*
%TO.P,R8,1*%
%TO.N,VCC_F*%
X18000000Y33000000D03*
%TO.P,R8,2*%
%TO.N,Net-(Q2-D)*%
X25620000Y33000000D03*
%TD*%
%TO.P,R15,1*%
%TO.N,Net-(POT2-Pin_3)*%
X34500000Y25000000D03*
%TO.P,R15,2*%
%TO.N,GND*%
X34500000Y17380000D03*
%TD*%
D16*
%TO.P,C4,1*%
%TO.N,Net-(Q2-D)*%
X28500000Y35500000D03*
%TO.P,C4,2*%
%TO.N,Net-(D3-K)*%
X28500000Y30500000D03*
%TD*%
D18*
%TO.P,D2,1,K_1*%
%TO.N,Net-(D2-K)*%
X26810000Y20000000D03*
D16*
%TO.P,D2,2,A_2*%
%TO.N,Net-(D2-A)*%
X19190000Y20000000D03*
%TD*%
D14*
%TO.P,R10,1*%
%TO.N,Net-(D3-K)*%
X32000000Y25000000D03*
%TO.P,R10,2*%
%TO.N,GND*%
X32000000Y17380000D03*
%TD*%
D16*
%TO.P,C8,1*%
%TO.N,Net-(C8-Pad1)*%
X46000000Y20500000D03*
%TO.P,C8,2*%
%TO.N,GND*%
X46000000Y25500000D03*
%TD*%
D14*
%TO.P,R4,1*%
%TO.N,VCC_F*%
X5750000Y18000000D03*
%TO.P,R4,2*%
%TO.N,Net-(Q1-D)*%
X13370000Y18000000D03*
%TD*%
%TO.P,R17,1*%
%TO.N,Net-(C8-Pad1)*%
X40500000Y23000000D03*
%TO.P,R17,2*%
%TO.N,Net-(POT3-Pin_3)*%
X40500000Y15380000D03*
%TD*%
D16*
%TO.P,C6,1*%
%TO.N,Net-(POT2-Pin_3)*%
X42000000Y32500000D03*
%TO.P,C6,2*%
%TO.N,Net-(C5-Pad2)*%
X37000000Y32500000D03*
%TD*%
D10*
%TO.P,J1,1,Pin_1_1*%
%TO.N,IN*%
X21190000Y2000000D03*
D11*
%TO.P,J1,2,Pin_2_2*%
%TO.N,GND*%
X23730000Y2000000D03*
%TO.P,J1,3,Pin_3_3*%
%TO.N,SW*%
X26270000Y2000000D03*
%TO.P,J1,4,Pin_4_4*%
%TO.N,OUT*%
X28810000Y2000000D03*
%TD*%
D14*
%TO.P,R2,1*%
%TO.N,Net-(D1-K)*%
X10690000Y5000000D03*
%TO.P,R2,2*%
%TO.N,GND*%
X18310000Y5000000D03*
%TD*%
%TO.P,R14,1*%
%TO.N,Net-(C5-Pad2)*%
X36380000Y35500000D03*
%TO.P,R14,2*%
%TO.N,Net-(POT2-Pin_1)*%
X44000000Y35500000D03*
%TD*%
D16*
%TO.P,C3,1*%
%TO.N,Net-(C2-Pad2)*%
X12500000Y26000000D03*
%TO.P,C3,2*%
%TO.N,Net-(D2-K)*%
X17500000Y26000000D03*
%TD*%
%TO.P,C2,1*%
%TO.N,Net-(Q1-D)*%
X9000000Y21000000D03*
%TO.P,C2,2*%
%TO.N,Net-(C2-Pad2)*%
X9000000Y26000000D03*
%TD*%
D14*
%TO.P,R100,1*%
%TO.N,Net-(D100-K)*%
X6500000Y45000000D03*
%TO.P,R100,2*%
%TO.N,VCC_F*%
X6500000Y37380000D03*
%TD*%
D10*
%TO.P,POT3,1,Pin_1_1*%
%TO.N,GND*%
X31960000Y14000000D03*
D11*
%TO.P,POT3,2,Pin_2_2*%
%TO.N,OUT*%
X34500000Y14000000D03*
%TO.P,POT3,3,Pin_3_3*%
%TO.N,Net-(POT3-Pin_3)*%
X37040000Y14000000D03*
%TD*%
D14*
%TO.P,R5,1*%
%TO.N,Net-(C2-Pad2)*%
X12500000Y23000000D03*
%TO.P,R5,2*%
%TO.N,Net-(D2-K)*%
X20120000Y23000000D03*
%TD*%
D12*
%TO.P,Q3,1,D_1*%
%TO.N,Net-(Q3-D)*%
X32500000Y35500000D03*
D13*
%TO.P,Q3,2,G_2*%
%TO.N,Net-(D3-K)*%
X32500000Y32960000D03*
%TO.P,Q3,3,S_3*%
%TO.N,Net-(D3-A)*%
X32500000Y30420000D03*
%TD*%
D10*
%TO.P,J2,1,Pin_1_1*%
%TO.N,GND*%
X20000000Y48000000D03*
D11*
%TO.P,J2,2,Pin_2_2*%
%TO.N,VCC+*%
X22540000Y48000000D03*
%TD*%
D20*
%TO.P,D100,1,K_1*%
%TO.N,Net-(D100-K)*%
X3500000Y37840000D03*
D21*
%TO.P,D100,2,A_2*%
%TO.N,VCC+*%
X3500000Y48000000D03*
%TD*%
D14*
%TO.P,R1,1*%
%TO.N,IN*%
X3500000Y7380000D03*
%TO.P,R1,2*%
%TO.N,GND*%
X3500000Y15000000D03*
%TD*%
%TO.P,R12,1*%
%TO.N,VCC_F*%
X27690000Y40500000D03*
%TO.P,R12,2*%
%TO.N,Net-(Q3-D)*%
X35310000Y40500000D03*
%TD*%
%TO.P,R7,1*%
%TO.N,Net-(D2-K)*%
X18000000Y30500000D03*
%TO.P,R7,2*%
%TO.N,Net-(Q2-D)*%
X25620000Y30500000D03*
%TD*%
D22*
%TO.N,GND*%
X25000000Y37500000D03*
X27500000Y15000000D03*
X15000000Y35000000D03*
X20000000Y35000000D03*
X10000000Y42500000D03*
X7500000Y30000000D03*
X2500000Y30000000D03*
X32500000Y20000000D03*
X45000000Y15000000D03*
X47500000Y15000000D03*
X40000000Y7500000D03*
X40000000Y5000000D03*
X47500000Y45000000D03*
X2500000Y25000000D03*
X22500000Y42500000D03*
X37500000Y5000000D03*
X17500000Y20000000D03*
X12500000Y45000000D03*
X42500000Y10000000D03*
X37500000Y42500000D03*
X17500000Y35000000D03*
X30000000Y40000000D03*
X25000000Y12500000D03*
X30000000Y10000000D03*
X45000000Y45000000D03*
X42500000Y47500000D03*
X42500000Y12500000D03*
X45000000Y12500000D03*
X27500000Y7500000D03*
X45000000Y40000000D03*
X42500000Y5000000D03*
X35000000Y42500000D03*
X45000000Y2500000D03*
X2500000Y17500000D03*
X17500000Y40000000D03*
X7500000Y10000000D03*
X2500000Y22500000D03*
X32500000Y10000000D03*
X35000000Y20000000D03*
X22500000Y30000000D03*
X45000000Y17500000D03*
X10000000Y22500000D03*
X37500000Y30000000D03*
X12500000Y35000000D03*
X32500000Y42500000D03*
X42500000Y2500000D03*
X2500000Y20000000D03*
X42500000Y45000000D03*
X27500000Y27500000D03*
X47500000Y12500000D03*
X45000000Y32500000D03*
X2500000Y12500000D03*
X15000000Y40000000D03*
X40000000Y10000000D03*
X15000000Y5000000D03*
X15000000Y42500000D03*
X47500000Y42500000D03*
X45000000Y42500000D03*
X37500000Y20000000D03*
X30000000Y15000000D03*
X40000000Y47500000D03*
X42500000Y42500000D03*
X7500000Y15000000D03*
X37500000Y45000000D03*
X5000000Y30000000D03*
X45000000Y22500000D03*
X30000000Y42500000D03*
X40000000Y12500000D03*
X37500000Y2500000D03*
X47500000Y5000000D03*
X42500000Y37500000D03*
X15000000Y30000000D03*
X2500000Y27500000D03*
X30000000Y20000000D03*
X2500000Y10000000D03*
X45000000Y5000000D03*
X40000000Y2500000D03*
X30000000Y45000000D03*
X20000000Y42500000D03*
X5000000Y10000000D03*
X45000000Y47500000D03*
X47500000Y22500000D03*
X30000000Y12500000D03*
X12500000Y30000000D03*
X37500000Y10000000D03*
X20000000Y40000000D03*
X7500000Y25000000D03*
X20000000Y37500000D03*
X40000000Y45000000D03*
X45000000Y37500000D03*
X17500000Y42500000D03*
X35000000Y47500000D03*
X40000000Y20000000D03*
X27500000Y42500000D03*
X25000000Y42500000D03*
X47500000Y7500000D03*
X32500000Y45000000D03*
X32500000Y22500000D03*
X22500000Y5000000D03*
X35000000Y45000000D03*
X42500000Y7500000D03*
X5000000Y35000000D03*
X30000000Y22500000D03*
X2500000Y35000000D03*
X2500000Y32500000D03*
X17500000Y22500000D03*
X32500000Y47500000D03*
X27500000Y12500000D03*
X45000000Y7500000D03*
X7500000Y22500000D03*
X12500000Y5000000D03*
X25000000Y5000000D03*
X35000000Y22500000D03*
X2500000Y42500000D03*
X17500000Y37500000D03*
X30000000Y7500000D03*
X25000000Y45000000D03*
X7500000Y17500000D03*
X10000000Y17500000D03*
X47500000Y40000000D03*
X10000000Y15000000D03*
X27500000Y32500000D03*
X32500000Y40000000D03*
X42500000Y15000000D03*
X2500000Y45000000D03*
X12500000Y42500000D03*
X37500000Y47500000D03*
X40000000Y42500000D03*
X20000000Y5000000D03*
X20000000Y30000000D03*
X7500000Y35000000D03*
X45000000Y10000000D03*
X15000000Y45000000D03*
X47500000Y17500000D03*
X25000000Y15000000D03*
X47500000Y10000000D03*
X15000000Y37500000D03*
X5000000Y32500000D03*
X47500000Y27500000D03*
%TO.N,VCC_F*%
X14000000Y31500000D03*
%TD*%
%TO.N,VCC_F*%
D23*
X22500000Y6500000D02*
X24000000Y6500000D01*
X16500000Y17000000D02*
X17500000Y17000000D01*
X15000000Y24500000D02*
X16050000Y23450000D01*
X17500000Y17000000D02*
X19000000Y15500000D01*
X13950000Y31450000D02*
X13950000Y28550000D01*
X21500000Y15500000D02*
X22000000Y15000000D01*
X19000000Y15500000D02*
X21500000Y15500000D01*
X14000000Y31500000D02*
X13950000Y31450000D01*
X22000000Y15000000D02*
X22000000Y7000000D01*
X22000000Y7000000D02*
X22500000Y6500000D01*
X16050000Y17450000D02*
X16500000Y17000000D01*
X13950000Y28550000D02*
X15000000Y27500000D01*
X15000000Y27500000D02*
X15000000Y24500000D01*
X16050000Y23450000D02*
X16050000Y17450000D01*
%TD*%
%TA.AperFunction,Conductor*%
%TO.N,GND*%
G36*
X47002992Y49499319D02*
G01*
X47295309Y49481638D01*
X47307164Y49480198D01*
X47592280Y49427949D01*
X47603882Y49425089D01*
X47880623Y49338853D01*
X47891786Y49334620D01*
X48147102Y49219711D01*
X48156118Y49215653D01*
X48166690Y49210105D01*
X48414770Y49060136D01*
X48424583Y49053362D01*
X48652755Y48874600D01*
X48661704Y48866673D01*
X48866672Y48661705D01*
X48874599Y48652756D01*
X49040154Y48441441D01*
X49053356Y48424591D01*
X49060138Y48414767D01*
X49210100Y48166697D01*
X49215652Y48156119D01*
X49334616Y47891794D01*
X49338855Y47880616D01*
X49425087Y47603886D01*
X49427948Y47592278D01*
X49480196Y47307172D01*
X49481637Y47295305D01*
X49488288Y47185356D01*
X49498139Y47022492D01*
X49499319Y47002994D01*
X49499500Y46997016D01*
X49499500Y3002985D01*
X49499319Y2997007D01*
X49481637Y2704696D01*
X49480196Y2692829D01*
X49427948Y2407723D01*
X49425087Y2396115D01*
X49338855Y2119385D01*
X49334616Y2108207D01*
X49215652Y1843882D01*
X49210096Y1833297D01*
X49060142Y1585242D01*
X49053356Y1575410D01*
X48874599Y1347245D01*
X48866672Y1338296D01*
X48661704Y1133328D01*
X48652755Y1125401D01*
X48424590Y946644D01*
X48414758Y939858D01*
X48177212Y796256D01*
X48166703Y789903D01*
X48156118Y784348D01*
X47891793Y665384D01*
X47880615Y661145D01*
X47603885Y574913D01*
X47592277Y572052D01*
X47307171Y519804D01*
X47295304Y518363D01*
X47023993Y501952D01*
X47002991Y500681D01*
X46997015Y500500D01*
X3002985Y500500D01*
X2997008Y500681D01*
X2973564Y502100D01*
X2704695Y518363D01*
X2692828Y519804D01*
X2407722Y572052D01*
X2396114Y574913D01*
X2119384Y661145D01*
X2108206Y665384D01*
X1843881Y784348D01*
X1833303Y789900D01*
X1585233Y939862D01*
X1575413Y946641D01*
X1356082Y1118477D01*
X1347244Y1125401D01*
X1338295Y1133328D01*
X1133327Y1338296D01*
X1125400Y1347245D01*
X1086208Y1397270D01*
X946638Y1575417D01*
X939864Y1585230D01*
X789895Y1833310D01*
X784347Y1843882D01*
X743710Y1934174D01*
X665380Y2108214D01*
X661147Y2119377D01*
X574911Y2396118D01*
X572051Y2407723D01*
X557752Y2485750D01*
X519802Y2692836D01*
X518362Y2704697D01*
X507793Y2879432D01*
X507667Y2881522D01*
X19939500Y2881522D01*
X19939500Y1118479D01*
X19939501Y1118477D01*
X19954352Y1024701D01*
X19954354Y1024696D01*
X20011950Y911658D01*
X20101658Y821950D01*
X20214696Y764354D01*
X20308481Y749500D01*
X22071518Y749501D01*
X22071521Y749501D01*
X22071522Y749502D01*
X22118411Y756928D01*
X22165299Y764353D01*
X22165299Y764354D01*
X22165304Y764354D01*
X22278342Y821950D01*
X22368050Y911658D01*
X22425646Y1024696D01*
X22440500Y1118481D01*
X22440499Y1622137D01*
X22459406Y1680325D01*
X22508906Y1716289D01*
X22570091Y1716289D01*
X22619592Y1680325D01*
X22633654Y1652727D01*
X22664251Y1558558D01*
X22746432Y1397270D01*
X22757911Y1381469D01*
X23247036Y1870594D01*
X23264075Y1807007D01*
X23329901Y1692993D01*
X23422993Y1599901D01*
X23537007Y1534075D01*
X23600591Y1517038D01*
X23111466Y1027913D01*
X23127266Y1016434D01*
X23288559Y934251D01*
X23460710Y878317D01*
X23639490Y850000D01*
X23820510Y850000D01*
X23999289Y878317D01*
X24171440Y934251D01*
X24332730Y1016432D01*
X24332735Y1016436D01*
X24348532Y1027913D01*
X24348532Y1027914D01*
X23859408Y1517038D01*
X23922993Y1534075D01*
X24037007Y1599901D01*
X24130099Y1692993D01*
X24195925Y1807007D01*
X24212962Y1870592D01*
X24702086Y1381468D01*
X24702087Y1381468D01*
X24713564Y1397265D01*
X24713568Y1397270D01*
X24795749Y1558560D01*
X24851685Y1730716D01*
X24852592Y1734491D01*
X24854178Y1734111D01*
X24879105Y1783056D01*
X24933616Y1810845D01*
X24994050Y1801286D01*
X25037323Y1758030D01*
X25046904Y1728555D01*
X25050290Y1707178D01*
X25111116Y1519975D01*
X25199125Y1347245D01*
X25200476Y1344595D01*
X25316172Y1185354D01*
X25455354Y1046172D01*
X25614595Y930476D01*
X25789975Y841116D01*
X25977174Y780291D01*
X25977175Y780291D01*
X25977178Y780290D01*
X26171580Y749500D01*
X26171583Y749500D01*
X26368420Y749500D01*
X26562821Y780290D01*
X26562822Y780291D01*
X26562826Y780291D01*
X26750025Y841116D01*
X26925405Y930476D01*
X27084646Y1046172D01*
X27223828Y1185354D01*
X27339524Y1344595D01*
X27428884Y1519975D01*
X27445845Y1572177D01*
X27481809Y1621676D01*
X27540000Y1640583D01*
X27598191Y1621676D01*
X27634155Y1572176D01*
X27651116Y1519975D01*
X27739125Y1347245D01*
X27740476Y1344595D01*
X27856172Y1185354D01*
X27995354Y1046172D01*
X28154595Y930476D01*
X28329975Y841116D01*
X28517174Y780291D01*
X28517175Y780291D01*
X28517178Y780290D01*
X28711580Y749500D01*
X28711583Y749500D01*
X28908420Y749500D01*
X29102821Y780290D01*
X29102822Y780291D01*
X29102826Y780291D01*
X29290025Y841116D01*
X29465405Y930476D01*
X29624646Y1046172D01*
X29763828Y1185354D01*
X29879524Y1344595D01*
X29968884Y1519975D01*
X30029709Y1707174D01*
X30031153Y1716289D01*
X30060500Y1901580D01*
X30060500Y2098421D01*
X30029710Y2292822D01*
X30029709Y2292826D01*
X29968884Y2480025D01*
X29879524Y2655405D01*
X29763828Y2814646D01*
X29624646Y2953828D01*
X29465405Y3069524D01*
X29465404Y3069525D01*
X29465402Y3069526D01*
X29290025Y3158884D01*
X29102821Y3219711D01*
X28908420Y3250500D01*
X28908417Y3250500D01*
X28711583Y3250500D01*
X28711580Y3250500D01*
X28517178Y3219711D01*
X28329974Y3158884D01*
X28154597Y3069526D01*
X27995355Y2953829D01*
X27856171Y2814645D01*
X27740474Y2655403D01*
X27651114Y2480022D01*
X27651112Y2480019D01*
X27634154Y2427825D01*
X27598190Y2378325D01*
X27539999Y2359418D01*
X27481809Y2378326D01*
X27445846Y2427825D01*
X27428887Y2480019D01*
X27428885Y2480022D01*
X27428884Y2480023D01*
X27428884Y2480025D01*
X27339524Y2655405D01*
X27223828Y2814646D01*
X27084646Y2953828D01*
X26925405Y3069524D01*
X26925404Y3069525D01*
X26925402Y3069526D01*
X26750025Y3158884D01*
X26562821Y3219711D01*
X26368420Y3250500D01*
X26368417Y3250500D01*
X26171583Y3250500D01*
X26171580Y3250500D01*
X25977178Y3219711D01*
X25789974Y3158884D01*
X25614597Y3069526D01*
X25455355Y2953829D01*
X25316171Y2814645D01*
X25200474Y2655403D01*
X25111116Y2480026D01*
X25050289Y2292823D01*
X25046904Y2271446D01*
X25019126Y2216929D01*
X24964609Y2189153D01*
X24904177Y2198725D01*
X24860913Y2241990D01*
X24853223Y2265661D01*
X24852592Y2265509D01*
X24851685Y2269285D01*
X24795749Y2441441D01*
X24713566Y2602734D01*
X24702087Y2618534D01*
X24212962Y2129409D01*
X24195925Y2192993D01*
X24130099Y2307007D01*
X24037007Y2400099D01*
X23922993Y2465925D01*
X23859406Y2482964D01*
X24348532Y2972089D01*
X24332730Y2983568D01*
X24171440Y3065750D01*
X23999289Y3121684D01*
X23820510Y3150000D01*
X23639490Y3150000D01*
X23460710Y3121684D01*
X23288559Y3065750D01*
X23127264Y2983566D01*
X23111466Y2972089D01*
X23600592Y2482963D01*
X23537007Y2465925D01*
X23422993Y2400099D01*
X23329901Y2307007D01*
X23264075Y2192993D01*
X23247037Y2129408D01*
X22757911Y2618534D01*
X22746434Y2602736D01*
X22664251Y2441443D01*
X22633654Y2347273D01*
X22597690Y2297773D01*
X22539499Y2278866D01*
X22481308Y2297773D01*
X22445344Y2347273D01*
X22440499Y2377866D01*
X22440499Y2881522D01*
X22440498Y2881524D01*
X22434584Y2918873D01*
X22425647Y2975301D01*
X22425646Y2975303D01*
X22425646Y2975304D01*
X22368050Y3088342D01*
X22278342Y3178050D01*
X22165304Y3235646D01*
X22165305Y3235646D01*
X22071521Y3250500D01*
X20308478Y3250500D01*
X20308476Y3250499D01*
X20214700Y3235648D01*
X20214695Y3235646D01*
X20101659Y3178051D01*
X20011949Y3088341D01*
X19954354Y2975305D01*
X19939500Y2881522D01*
X507667Y2881522D01*
X500681Y2997008D01*
X500500Y3002985D01*
X500500Y5086615D01*
X9589500Y5086615D01*
X9589500Y4913386D01*
X9616597Y4742298D01*
X9616598Y4742294D01*
X9670123Y4577562D01*
X9670125Y4577559D01*
X9670126Y4577556D01*
X9670127Y4577555D01*
X9748768Y4423212D01*
X9850586Y4283072D01*
X9973072Y4160586D01*
X10113212Y4058768D01*
X10267555Y3980127D01*
X10267557Y3980127D01*
X10267558Y3980126D01*
X10267561Y3980124D01*
X10432293Y3926599D01*
X10432297Y3926598D01*
X10603386Y3899500D01*
X10603389Y3899500D01*
X10776614Y3899500D01*
X10947702Y3926598D01*
X10947706Y3926599D01*
X11112438Y3980124D01*
X11112440Y3980126D01*
X11112445Y3980127D01*
X11266788Y4058768D01*
X11375051Y4137426D01*
X17800979Y4137426D01*
X17836324Y4113810D01*
X18018310Y4038430D01*
X18211506Y4000001D01*
X18211510Y4000000D01*
X18408490Y4000000D01*
X18408493Y4000001D01*
X18601688Y4038430D01*
X18601690Y4038430D01*
X18783675Y4113810D01*
X18819019Y4137426D01*
X18309999Y4646446D01*
X17800979Y4137426D01*
X11375051Y4137426D01*
X11406928Y4160586D01*
X11529414Y4283072D01*
X11631232Y4423212D01*
X11709873Y4577555D01*
X11709874Y4577560D01*
X11709876Y4577562D01*
X11763401Y4742294D01*
X11763402Y4742298D01*
X11790500Y4913386D01*
X11790500Y5086616D01*
X11790499Y5086621D01*
X11790301Y5087875D01*
X11788619Y5098494D01*
X17310000Y5098494D01*
X17310000Y4901507D01*
X17348429Y4708312D01*
X17348429Y4708310D01*
X17423810Y4526322D01*
X17447424Y4490981D01*
X17956444Y5000001D01*
X17910367Y5046078D01*
X17960000Y5046078D01*
X17960000Y4953922D01*
X17983852Y4864905D01*
X18029930Y4785095D01*
X18095095Y4719930D01*
X18174905Y4673852D01*
X18263922Y4650000D01*
X18356078Y4650000D01*
X18445095Y4673852D01*
X18524905Y4719930D01*
X18590070Y4785095D01*
X18636148Y4864905D01*
X18660000Y4953922D01*
X18660000Y5000001D01*
X18663554Y5000001D01*
X19172574Y4490981D01*
X19196190Y4526325D01*
X19271570Y4708310D01*
X19271570Y4708312D01*
X19309999Y4901507D01*
X19310000Y4901510D01*
X19310000Y5098491D01*
X19309999Y5098494D01*
X19271570Y5291689D01*
X19271570Y5291691D01*
X19196190Y5473676D01*
X19172574Y5509021D01*
X18663554Y5000001D01*
X18660000Y5000001D01*
X18660000Y5046078D01*
X18636148Y5135095D01*
X18590070Y5214905D01*
X18524905Y5280070D01*
X18445095Y5326148D01*
X18356078Y5350000D01*
X18263922Y5350000D01*
X18174905Y5326148D01*
X18095095Y5280070D01*
X18029930Y5214905D01*
X17983852Y5135095D01*
X17960000Y5046078D01*
X17910367Y5046078D01*
X17447424Y5509021D01*
X17423815Y5473686D01*
X17423809Y5473676D01*
X17348429Y5291691D01*
X17348429Y5291689D01*
X17310000Y5098494D01*
X11788619Y5098494D01*
X11763402Y5257702D01*
X11763401Y5257707D01*
X11709876Y5422439D01*
X11709874Y5422442D01*
X11709873Y5422443D01*
X11709873Y5422445D01*
X11631232Y5576788D01*
X11529414Y5716928D01*
X11406928Y5839414D01*
X11375048Y5862576D01*
X17800979Y5862576D01*
X18309999Y5353556D01*
X18819019Y5862576D01*
X18783678Y5886189D01*
X18783678Y5886190D01*
X18601689Y5961571D01*
X18408493Y6000000D01*
X18211506Y6000000D01*
X18018311Y5961571D01*
X18018309Y5961571D01*
X17836324Y5886191D01*
X17836314Y5886185D01*
X17800979Y5862576D01*
X11375048Y5862576D01*
X11266788Y5941232D01*
X11266787Y5941233D01*
X11266785Y5941234D01*
X11112441Y6019875D01*
X11112438Y6019877D01*
X10947706Y6073402D01*
X10947702Y6073403D01*
X10776614Y6100500D01*
X10776611Y6100500D01*
X10603389Y6100500D01*
X10603386Y6100500D01*
X10432297Y6073403D01*
X10432293Y6073402D01*
X10267561Y6019877D01*
X10267558Y6019875D01*
X10113214Y5941234D01*
X9973073Y5839415D01*
X9850585Y5716927D01*
X9748766Y5576786D01*
X9670125Y5422442D01*
X9670123Y5422439D01*
X9616598Y5257707D01*
X9616597Y5257703D01*
X9589500Y5086615D01*
X500500Y5086615D01*
X500500Y7466615D01*
X2399500Y7466615D01*
X2399500Y7293386D01*
X2426597Y7122298D01*
X2426598Y7122294D01*
X2480123Y6957562D01*
X2480125Y6957559D01*
X2539454Y6841117D01*
X2558768Y6803212D01*
X2660586Y6663072D01*
X2783072Y6540586D01*
X2923212Y6438768D01*
X3077555Y6360127D01*
X3077557Y6360127D01*
X3077558Y6360126D01*
X3077561Y6360124D01*
X3242293Y6306599D01*
X3242297Y6306598D01*
X3413386Y6279500D01*
X3413389Y6279500D01*
X3586614Y6279500D01*
X3757702Y6306598D01*
X3757706Y6306599D01*
X3922438Y6360124D01*
X3922440Y6360126D01*
X3922445Y6360127D01*
X4076788Y6438768D01*
X4216928Y6540586D01*
X4339414Y6663072D01*
X4441232Y6803212D01*
X4519873Y6957555D01*
X4519874Y6957560D01*
X4519876Y6957562D01*
X4573401Y7122294D01*
X4573402Y7122298D01*
X4600500Y7293386D01*
X4600500Y7466615D01*
X4573402Y7637703D01*
X4573401Y7637707D01*
X4519876Y7802439D01*
X4519874Y7802442D01*
X4519873Y7802443D01*
X4519873Y7802445D01*
X4441232Y7956788D01*
X4341189Y8094485D01*
X5299500Y8094485D01*
X5299500Y7905516D01*
X5329058Y7718887D01*
X5387453Y7539168D01*
X5458107Y7400500D01*
X5473240Y7370801D01*
X5584310Y7217927D01*
X5717927Y7084310D01*
X5870801Y6973240D01*
X6039168Y6887453D01*
X6218882Y6829060D01*
X6218883Y6829060D01*
X6218886Y6829059D01*
X6405516Y6799500D01*
X6405519Y6799500D01*
X6594484Y6799500D01*
X6781113Y6829059D01*
X6781114Y6829060D01*
X6781118Y6829060D01*
X6960832Y6887453D01*
X7129199Y6973240D01*
X7282073Y7084310D01*
X7415690Y7217927D01*
X7526760Y7370801D01*
X7612547Y7539168D01*
X7629242Y7590550D01*
X9349500Y7590550D01*
X9349500Y7409451D01*
X9377828Y7230594D01*
X9433788Y7058363D01*
X9508717Y6911306D01*
X9516004Y6897006D01*
X9622447Y6750499D01*
X9750499Y6622447D01*
X9897006Y6516004D01*
X10058361Y6433789D01*
X10230591Y6377829D01*
X10302136Y6366498D01*
X10409451Y6349500D01*
X10409454Y6349500D01*
X10590549Y6349500D01*
X10679977Y6363665D01*
X10769409Y6377829D01*
X10941639Y6433789D01*
X11102994Y6516004D01*
X11249501Y6622447D01*
X11377553Y6750499D01*
X11483996Y6897006D01*
X11566211Y7058361D01*
X11622171Y7230591D01*
X11639407Y7339415D01*
X11650500Y7409451D01*
X11650500Y7590546D01*
X11650499Y7590553D01*
X11649876Y7594485D01*
X14799500Y7594485D01*
X14799500Y7405516D01*
X14829058Y7218887D01*
X14887453Y7039168D01*
X14964754Y6887454D01*
X14973240Y6870801D01*
X15084310Y6717927D01*
X15217927Y6584310D01*
X15370801Y6473240D01*
X15539168Y6387453D01*
X15718882Y6329060D01*
X15718883Y6329060D01*
X15718886Y6329059D01*
X15905516Y6299500D01*
X15905519Y6299500D01*
X16094484Y6299500D01*
X16281113Y6329059D01*
X16281114Y6329060D01*
X16281118Y6329060D01*
X16460832Y6387453D01*
X16629199Y6473240D01*
X16782073Y6584310D01*
X16915690Y6717927D01*
X17026760Y6870801D01*
X17112547Y7039168D01*
X17170940Y7218882D01*
X17170941Y7218887D01*
X17200500Y7405516D01*
X17200500Y7594485D01*
X17170941Y7781114D01*
X17130519Y7905519D01*
X17112547Y7960832D01*
X17042442Y8098421D01*
X18249500Y8098421D01*
X18249500Y7901580D01*
X18280289Y7707179D01*
X18341116Y7519975D01*
X18392357Y7419407D01*
X18430476Y7344595D01*
X18546172Y7185354D01*
X18685354Y7046172D01*
X18844595Y6930476D01*
X19019975Y6841116D01*
X19207174Y6780291D01*
X19207175Y6780291D01*
X19207178Y6780290D01*
X19401580Y6749500D01*
X19401583Y6749500D01*
X19598420Y6749500D01*
X19792821Y6780290D01*
X19792822Y6780291D01*
X19792826Y6780291D01*
X19980025Y6841116D01*
X20155405Y6930476D01*
X20314646Y7046172D01*
X20453828Y7185354D01*
X20569524Y7344595D01*
X20658884Y7519975D01*
X20719709Y7707174D01*
X20719710Y7707179D01*
X20750500Y7901580D01*
X20750500Y8098421D01*
X20719710Y8292822D01*
X20710479Y8321232D01*
X20658884Y8480025D01*
X20569524Y8655405D01*
X20453828Y8814646D01*
X20314646Y8953828D01*
X20155405Y9069524D01*
X20155404Y9069525D01*
X20155402Y9069526D01*
X19980025Y9158884D01*
X19969050Y9162450D01*
X19792826Y9219709D01*
X19792824Y9219710D01*
X19792822Y9219710D01*
X19771445Y9223096D01*
X19716929Y9250874D01*
X19689152Y9305391D01*
X19698724Y9365823D01*
X19741989Y9409087D01*
X19765660Y9416776D01*
X19765509Y9417408D01*
X19769284Y9418315D01*
X19941440Y9474251D01*
X20102730Y9556432D01*
X20102735Y9556436D01*
X20118532Y9567913D01*
X20118532Y9567914D01*
X19629408Y10057038D01*
X19692993Y10074075D01*
X19807007Y10139901D01*
X19900099Y10232993D01*
X19965925Y10347007D01*
X19982962Y10410592D01*
X20472086Y9921468D01*
X20472087Y9921468D01*
X20483564Y9937265D01*
X20483568Y9937270D01*
X20565749Y10098560D01*
X20621683Y10270711D01*
X20650000Y10449490D01*
X20650000Y10630511D01*
X20621683Y10809290D01*
X20565749Y10981441D01*
X20483566Y11142734D01*
X20472087Y11158534D01*
X19982962Y10669409D01*
X19965925Y10732993D01*
X19900099Y10847007D01*
X19807007Y10940099D01*
X19692993Y11005925D01*
X19629406Y11022964D01*
X20118532Y11512089D01*
X20102730Y11523568D01*
X19941440Y11605750D01*
X19769289Y11661684D01*
X19590510Y11690000D01*
X19409490Y11690000D01*
X19230710Y11661684D01*
X19058559Y11605750D01*
X18897264Y11523566D01*
X18881466Y11512089D01*
X19370592Y11022963D01*
X19307007Y11005925D01*
X19192993Y10940099D01*
X19099901Y10847007D01*
X19034075Y10732993D01*
X19017037Y10669408D01*
X18527911Y11158534D01*
X18516434Y11142736D01*
X18434250Y10981441D01*
X18378316Y10809290D01*
X18350000Y10630511D01*
X18350000Y10449490D01*
X18378316Y10270711D01*
X18434250Y10098560D01*
X18516432Y9937270D01*
X18527911Y9921469D01*
X19017036Y10410594D01*
X19034075Y10347007D01*
X19099901Y10232993D01*
X19192993Y10139901D01*
X19307007Y10074075D01*
X19370591Y10057038D01*
X18881466Y9567913D01*
X18897266Y9556434D01*
X19058559Y9474251D01*
X19230715Y9418315D01*
X19234491Y9417408D01*
X19234110Y9415824D01*
X19283062Y9390888D01*
X19310845Y9336375D01*
X19301281Y9275942D01*
X19258021Y9232672D01*
X19228554Y9223096D01*
X19207177Y9219711D01*
X19019974Y9158884D01*
X18844597Y9069526D01*
X18685355Y8953829D01*
X18546171Y8814645D01*
X18430474Y8655403D01*
X18341116Y8480026D01*
X18280289Y8292822D01*
X18249500Y8098421D01*
X17042442Y8098421D01*
X17026760Y8129199D01*
X16915690Y8282073D01*
X16782073Y8415690D01*
X16629199Y8526760D01*
X16629198Y8526761D01*
X16629196Y8526762D01*
X16460832Y8612547D01*
X16281113Y8670942D01*
X16094484Y8700500D01*
X16094481Y8700500D01*
X15905519Y8700500D01*
X15905516Y8700500D01*
X15718886Y8670942D01*
X15539167Y8612547D01*
X15370803Y8526762D01*
X15217928Y8415691D01*
X15084309Y8282072D01*
X14973238Y8129197D01*
X14887453Y7960833D01*
X14829058Y7781114D01*
X14799500Y7594485D01*
X11649876Y7594485D01*
X11632027Y7707179D01*
X11622171Y7769409D01*
X11566211Y7941639D01*
X11483996Y8102994D01*
X11377553Y8249501D01*
X11249501Y8377553D01*
X11102994Y8483996D01*
X11102993Y8483997D01*
X11102991Y8483998D01*
X10941637Y8566212D01*
X10769406Y8622172D01*
X10590549Y8650500D01*
X10590546Y8650500D01*
X10409454Y8650500D01*
X10409451Y8650500D01*
X10230593Y8622172D01*
X10058362Y8566212D01*
X9897008Y8483998D01*
X9823752Y8430775D01*
X9750499Y8377553D01*
X9622447Y8249501D01*
X9600588Y8219414D01*
X9516002Y8102992D01*
X9433788Y7941638D01*
X9377828Y7769407D01*
X9349500Y7590550D01*
X7629242Y7590550D01*
X7670940Y7718882D01*
X7670941Y7718887D01*
X7700500Y7905516D01*
X7700500Y8094485D01*
X7670941Y8281114D01*
X7670630Y8282072D01*
X7612547Y8460832D01*
X7526760Y8629199D01*
X7415690Y8782073D01*
X7282073Y8915690D01*
X7129199Y9026760D01*
X7129198Y9026761D01*
X7129196Y9026762D01*
X6960832Y9112547D01*
X6781113Y9170942D01*
X6594484Y9200500D01*
X6594481Y9200500D01*
X6405519Y9200500D01*
X6405516Y9200500D01*
X6218886Y9170942D01*
X6039167Y9112547D01*
X5870803Y9026762D01*
X5717928Y8915691D01*
X5584309Y8782072D01*
X5473238Y8629197D01*
X5387453Y8460833D01*
X5329058Y8281114D01*
X5299500Y8094485D01*
X4341189Y8094485D01*
X4339414Y8096928D01*
X4216928Y8219414D01*
X4076788Y8321232D01*
X4076787Y8321233D01*
X4076785Y8321234D01*
X3922441Y8399875D01*
X3922438Y8399877D01*
X3757706Y8453402D01*
X3757702Y8453403D01*
X3586614Y8480500D01*
X3586611Y8480500D01*
X3413389Y8480500D01*
X3413386Y8480500D01*
X3242297Y8453403D01*
X3242293Y8453402D01*
X3077561Y8399877D01*
X3077558Y8399875D01*
X2923214Y8321234D01*
X2783073Y8219415D01*
X2660585Y8096927D01*
X2558766Y7956786D01*
X2480125Y7802442D01*
X2480123Y7802439D01*
X2426598Y7637707D01*
X2426597Y7637703D01*
X2399500Y7466615D01*
X500500Y7466615D01*
X500500Y10130550D01*
X9349500Y10130550D01*
X9349500Y9949451D01*
X9377828Y9770594D01*
X9433788Y9598363D01*
X9503533Y9461480D01*
X9516004Y9437006D01*
X9622447Y9290499D01*
X9750499Y9162447D01*
X9897006Y9056004D01*
X10058361Y8973789D01*
X10230591Y8917829D01*
X10302136Y8906498D01*
X10409451Y8889500D01*
X10409454Y8889500D01*
X10590549Y8889500D01*
X10679977Y8903665D01*
X10769409Y8917829D01*
X10941639Y8973789D01*
X11102994Y9056004D01*
X11249501Y9162447D01*
X11377553Y9290499D01*
X11483996Y9437006D01*
X11566211Y9598361D01*
X11622171Y9770591D01*
X11639500Y9880001D01*
X11650500Y9949451D01*
X11650500Y10130550D01*
X11628300Y10270711D01*
X11622171Y10309409D01*
X11566211Y10481639D01*
X11566210Y10481641D01*
X11566208Y10481647D01*
X11511279Y10589450D01*
X11511277Y10589452D01*
X11483997Y10642992D01*
X11483996Y10642994D01*
X11377553Y10789501D01*
X11249501Y10917553D01*
X11102994Y11023996D01*
X11102993Y11023997D01*
X11102991Y11023998D01*
X10941637Y11106212D01*
X10769406Y11162172D01*
X10590549Y11190500D01*
X10590546Y11190500D01*
X10409454Y11190500D01*
X10409451Y11190500D01*
X10230593Y11162172D01*
X10058362Y11106212D01*
X9897008Y11023998D01*
X9872133Y11005925D01*
X9750499Y10917553D01*
X9622447Y10789501D01*
X9605511Y10766190D01*
X9516002Y10642992D01*
X9433788Y10481638D01*
X9377828Y10309407D01*
X9349500Y10130550D01*
X500500Y10130550D01*
X500500Y13094485D01*
X5299500Y13094485D01*
X5299500Y12905516D01*
X5329058Y12718887D01*
X5363114Y12614075D01*
X5387453Y12539168D01*
X5473240Y12370801D01*
X5584310Y12217927D01*
X5717927Y12084310D01*
X5870801Y11973240D01*
X6039168Y11887453D01*
X6218882Y11829060D01*
X6218883Y11829060D01*
X6218886Y11829059D01*
X6405516Y11799500D01*
X6405519Y11799500D01*
X6594484Y11799500D01*
X6781113Y11829059D01*
X6781114Y11829060D01*
X6781118Y11829060D01*
X6960832Y11887453D01*
X7129199Y11973240D01*
X7282073Y12084310D01*
X7415690Y12217927D01*
X7526760Y12370801D01*
X7612547Y12539168D01*
X7670940Y12718882D01*
X7670941Y12718887D01*
X7700500Y12905516D01*
X7700500Y13094485D01*
X7670940Y13281120D01*
X7653493Y13334814D01*
X7653492Y13334816D01*
X7644815Y13361522D01*
X9349500Y13361522D01*
X9349500Y11798479D01*
X9349501Y11798477D01*
X9364352Y11704701D01*
X9364354Y11704696D01*
X9421950Y11591658D01*
X9511658Y11501950D01*
X9624696Y11444354D01*
X9718481Y11429500D01*
X11281518Y11429501D01*
X11281521Y11429501D01*
X11281522Y11429502D01*
X11328411Y11436928D01*
X11375299Y11444353D01*
X11375299Y11444354D01*
X11375304Y11444354D01*
X11488342Y11501950D01*
X11578050Y11591658D01*
X11635646Y11704696D01*
X11650500Y11798481D01*
X11650499Y13361518D01*
X11650499Y13361519D01*
X11650499Y13361522D01*
X11650498Y13361524D01*
X11635647Y13455300D01*
X11635646Y13455302D01*
X11635646Y13455304D01*
X11578050Y13568342D01*
X11488342Y13658050D01*
X11375304Y13715646D01*
X11375305Y13715646D01*
X11281521Y13730500D01*
X9718478Y13730500D01*
X9718476Y13730499D01*
X9624700Y13715648D01*
X9624695Y13715646D01*
X9511659Y13658051D01*
X9421949Y13568341D01*
X9364354Y13455305D01*
X9349500Y13361522D01*
X7644815Y13361522D01*
X7614343Y13455304D01*
X7612547Y13460832D01*
X7526760Y13629199D01*
X7415690Y13782073D01*
X7282073Y13915690D01*
X7129199Y14026760D01*
X7129198Y14026761D01*
X7129196Y14026762D01*
X6960832Y14112547D01*
X6781113Y14170942D01*
X6594484Y14200500D01*
X6594481Y14200500D01*
X6405519Y14200500D01*
X6405516Y14200500D01*
X6218886Y14170942D01*
X6039167Y14112547D01*
X5870803Y14026762D01*
X5717928Y13915691D01*
X5584309Y13782072D01*
X5473238Y13629197D01*
X5387453Y13460833D01*
X5329058Y13281114D01*
X5299500Y13094485D01*
X500500Y13094485D01*
X500500Y14137426D01*
X2990979Y14137426D01*
X3026324Y14113810D01*
X3208310Y14038430D01*
X3401506Y14000001D01*
X3401510Y14000000D01*
X3598490Y14000000D01*
X3598493Y14000001D01*
X3791688Y14038430D01*
X3791690Y14038430D01*
X3973675Y14113810D01*
X4009019Y14137426D01*
X3499999Y14646446D01*
X2990979Y14137426D01*
X500500Y14137426D01*
X500500Y15098494D01*
X2500000Y15098494D01*
X2500000Y14901507D01*
X2538429Y14708312D01*
X2538429Y14708310D01*
X2613810Y14526322D01*
X2637424Y14490981D01*
X3146444Y15000001D01*
X3100367Y15046078D01*
X3150000Y15046078D01*
X3150000Y14953922D01*
X3173852Y14864905D01*
X3219930Y14785095D01*
X3285095Y14719930D01*
X3364905Y14673852D01*
X3453922Y14650000D01*
X3546078Y14650000D01*
X3635095Y14673852D01*
X3714905Y14719930D01*
X3780070Y14785095D01*
X3826148Y14864905D01*
X3850000Y14953922D01*
X3850000Y15000001D01*
X3853554Y15000001D01*
X4362574Y14490981D01*
X4386190Y14526325D01*
X4461570Y14708310D01*
X4461570Y14708312D01*
X4499999Y14901507D01*
X4500000Y14901510D01*
X4500000Y15098491D01*
X4499999Y15098494D01*
X4461570Y15291689D01*
X4461570Y15291691D01*
X4386190Y15473676D01*
X4362574Y15509021D01*
X3853554Y15000001D01*
X3850000Y15000001D01*
X3850000Y15046078D01*
X3826148Y15135095D01*
X3780070Y15214905D01*
X3714905Y15280070D01*
X3635095Y15326148D01*
X3546078Y15350000D01*
X3453922Y15350000D01*
X3364905Y15326148D01*
X3285095Y15280070D01*
X3219930Y15214905D01*
X3173852Y15135095D01*
X3150000Y15046078D01*
X3100367Y15046078D01*
X2637424Y15509021D01*
X2613815Y15473686D01*
X2613809Y15473676D01*
X2538429Y15291691D01*
X2538429Y15291689D01*
X2500000Y15098494D01*
X500500Y15098494D01*
X500500Y15862576D01*
X2990979Y15862576D01*
X3499999Y15353556D01*
X3733058Y15586615D01*
X4649500Y15586615D01*
X4649500Y15413386D01*
X4676597Y15242298D01*
X4676598Y15242294D01*
X4730123Y15077562D01*
X4730125Y15077559D01*
X4793168Y14953828D01*
X4808768Y14923212D01*
X4910586Y14783072D01*
X5033072Y14660586D01*
X5173212Y14558768D01*
X5327555Y14480127D01*
X5327557Y14480127D01*
X5327558Y14480126D01*
X5327561Y14480124D01*
X5492293Y14426599D01*
X5492297Y14426598D01*
X5663386Y14399500D01*
X5663389Y14399500D01*
X5836614Y14399500D01*
X6007702Y14426598D01*
X6007706Y14426599D01*
X6172438Y14480124D01*
X6172440Y14480126D01*
X6172445Y14480127D01*
X6326788Y14558768D01*
X6466928Y14660586D01*
X6589414Y14783072D01*
X6691232Y14923212D01*
X6769873Y15077555D01*
X6769874Y15077560D01*
X6769876Y15077562D01*
X6823401Y15242294D01*
X6823402Y15242298D01*
X6850500Y15413386D01*
X6850500Y15586615D01*
X12269500Y15586615D01*
X12269500Y15413386D01*
X12296597Y15242298D01*
X12296598Y15242294D01*
X12350123Y15077562D01*
X12350125Y15077559D01*
X12413168Y14953828D01*
X12428768Y14923212D01*
X12530586Y14783072D01*
X12653072Y14660586D01*
X12793212Y14558768D01*
X12947555Y14480127D01*
X12947557Y14480127D01*
X12947558Y14480126D01*
X12947561Y14480124D01*
X13112293Y14426599D01*
X13112297Y14426598D01*
X13283386Y14399500D01*
X13283389Y14399500D01*
X13456614Y14399500D01*
X13627702Y14426598D01*
X13627706Y14426599D01*
X13792438Y14480124D01*
X13792440Y14480126D01*
X13792445Y14480127D01*
X13946788Y14558768D01*
X14086928Y14660586D01*
X14209414Y14783072D01*
X14311232Y14923212D01*
X14389873Y15077555D01*
X14389874Y15077560D01*
X14389876Y15077562D01*
X14443401Y15242294D01*
X14443402Y15242298D01*
X14470500Y15413386D01*
X14470500Y15586615D01*
X14443402Y15757703D01*
X14443401Y15757707D01*
X14389876Y15922439D01*
X14389874Y15922442D01*
X14389873Y15922443D01*
X14389873Y15922445D01*
X14311232Y16076788D01*
X14209414Y16216928D01*
X14086928Y16339414D01*
X13946788Y16441232D01*
X13946787Y16441233D01*
X13946785Y16441234D01*
X13792441Y16519875D01*
X13792438Y16519877D01*
X13627706Y16573402D01*
X13627702Y16573403D01*
X13456614Y16600500D01*
X13456611Y16600500D01*
X13283389Y16600500D01*
X13283386Y16600500D01*
X13112297Y16573403D01*
X13112293Y16573402D01*
X12947561Y16519877D01*
X12947558Y16519875D01*
X12793214Y16441234D01*
X12653073Y16339415D01*
X12530585Y16216927D01*
X12428766Y16076786D01*
X12350125Y15922442D01*
X12350123Y15922439D01*
X12296598Y15757707D01*
X12296597Y15757703D01*
X12269500Y15586615D01*
X6850500Y15586615D01*
X6823402Y15757703D01*
X6823401Y15757707D01*
X6769876Y15922439D01*
X6769874Y15922442D01*
X6769873Y15922443D01*
X6769873Y15922445D01*
X6691232Y16076788D01*
X6589414Y16216928D01*
X6466928Y16339414D01*
X6326788Y16441232D01*
X6326787Y16441233D01*
X6326785Y16441234D01*
X6172441Y16519875D01*
X6172438Y16519877D01*
X6007706Y16573402D01*
X6007702Y16573403D01*
X5836614Y16600500D01*
X5836611Y16600500D01*
X5663389Y16600500D01*
X5663386Y16600500D01*
X5492297Y16573403D01*
X5492293Y16573402D01*
X5327561Y16519877D01*
X5327558Y16519875D01*
X5173214Y16441234D01*
X5033073Y16339415D01*
X4910585Y16216927D01*
X4808766Y16076786D01*
X4730125Y15922442D01*
X4730123Y15922439D01*
X4676598Y15757707D01*
X4676597Y15757703D01*
X4649500Y15586615D01*
X3733058Y15586615D01*
X4009019Y15862576D01*
X3973678Y15886189D01*
X3973678Y15886190D01*
X3791689Y15961571D01*
X3598493Y16000000D01*
X3401506Y16000000D01*
X3208311Y15961571D01*
X3208309Y15961571D01*
X3026324Y15886191D01*
X3026314Y15886185D01*
X2990979Y15862576D01*
X500500Y15862576D01*
X500500Y18086615D01*
X4649500Y18086615D01*
X4649500Y17913386D01*
X4676597Y17742300D01*
X4730123Y17577562D01*
X4730125Y17577559D01*
X4807307Y17426078D01*
X4808768Y17423212D01*
X4910586Y17283072D01*
X5033072Y17160586D01*
X5173212Y17058768D01*
X5327555Y16980127D01*
X5327557Y16980127D01*
X5327558Y16980126D01*
X5327561Y16980124D01*
X5492293Y16926599D01*
X5492297Y16926598D01*
X5663386Y16899500D01*
X5663389Y16899500D01*
X5836614Y16899500D01*
X6007702Y16926598D01*
X6007706Y16926599D01*
X6172438Y16980124D01*
X6172440Y16980126D01*
X6172445Y16980127D01*
X6326788Y17058768D01*
X6466928Y17160586D01*
X6589414Y17283072D01*
X6691232Y17423212D01*
X6769873Y17577555D01*
X6769874Y17577560D01*
X6769876Y17577562D01*
X6823403Y17742300D01*
X6850500Y17913386D01*
X6850500Y18086615D01*
X12269500Y18086615D01*
X12269500Y17913386D01*
X12296597Y17742300D01*
X12350123Y17577562D01*
X12350125Y17577559D01*
X12427307Y17426078D01*
X12428768Y17423212D01*
X12530586Y17283072D01*
X12653072Y17160586D01*
X12793212Y17058768D01*
X12947555Y16980127D01*
X12947557Y16980127D01*
X12947558Y16980126D01*
X12947561Y16980124D01*
X13112293Y16926599D01*
X13112297Y16926598D01*
X13283386Y16899500D01*
X13283389Y16899500D01*
X13456614Y16899500D01*
X13627702Y16926598D01*
X13627706Y16926599D01*
X13792438Y16980124D01*
X13792440Y16980126D01*
X13792445Y16980127D01*
X13946788Y17058768D01*
X14086928Y17160586D01*
X14209414Y17283072D01*
X14311232Y17423212D01*
X14389873Y17577555D01*
X14389874Y17577560D01*
X14389876Y17577562D01*
X14443403Y17742300D01*
X14470500Y17913386D01*
X14470500Y18086615D01*
X14443402Y18257703D01*
X14443401Y18257707D01*
X14389876Y18422439D01*
X14389874Y18422442D01*
X14389873Y18422443D01*
X14389873Y18422445D01*
X14311232Y18576788D01*
X14209414Y18716928D01*
X14086928Y18839414D01*
X13946788Y18941232D01*
X13946787Y18941233D01*
X13946785Y18941234D01*
X13792441Y19019875D01*
X13792438Y19019877D01*
X13627706Y19073402D01*
X13627702Y19073403D01*
X13456614Y19100500D01*
X13456611Y19100500D01*
X13283389Y19100500D01*
X13283386Y19100500D01*
X13112297Y19073403D01*
X13112293Y19073402D01*
X12947561Y19019877D01*
X12947558Y19019875D01*
X12793214Y18941234D01*
X12653073Y18839415D01*
X12530585Y18716927D01*
X12428766Y18576786D01*
X12350125Y18422442D01*
X12350123Y18422439D01*
X12296598Y18257707D01*
X12296597Y18257703D01*
X12269500Y18086615D01*
X6850500Y18086615D01*
X6823402Y18257703D01*
X6823401Y18257707D01*
X6769876Y18422439D01*
X6769874Y18422442D01*
X6769873Y18422443D01*
X6769873Y18422445D01*
X6691232Y18576788D01*
X6589414Y18716928D01*
X6466928Y18839414D01*
X6326788Y18941232D01*
X6326787Y18941233D01*
X6326785Y18941234D01*
X6172441Y19019875D01*
X6172438Y19019877D01*
X6007706Y19073402D01*
X6007702Y19073403D01*
X5836614Y19100500D01*
X5836611Y19100500D01*
X5663389Y19100500D01*
X5663386Y19100500D01*
X5492297Y19073403D01*
X5492293Y19073402D01*
X5327561Y19019877D01*
X5327558Y19019875D01*
X5173214Y18941234D01*
X5033073Y18839415D01*
X4910585Y18716927D01*
X4808766Y18576786D01*
X4730125Y18422442D01*
X4730123Y18422439D01*
X4676598Y18257707D01*
X4676597Y18257703D01*
X4649500Y18086615D01*
X500500Y18086615D01*
X500500Y21094485D01*
X7799500Y21094485D01*
X7799500Y20905516D01*
X7829058Y20718887D01*
X7887453Y20539168D01*
X7927366Y20460833D01*
X7973240Y20370801D01*
X8084310Y20217927D01*
X8217927Y20084310D01*
X8370801Y19973240D01*
X8539168Y19887453D01*
X8718882Y19829060D01*
X8718883Y19829060D01*
X8718886Y19829059D01*
X8905516Y19799500D01*
X8905519Y19799500D01*
X9094484Y19799500D01*
X9281113Y19829059D01*
X9281114Y19829060D01*
X9281118Y19829060D01*
X9460832Y19887453D01*
X9629199Y19973240D01*
X9782073Y20084310D01*
X9915690Y20217927D01*
X10026760Y20370801D01*
X10112547Y20539168D01*
X10170940Y20718882D01*
X10170941Y20718887D01*
X10200500Y20905516D01*
X10200500Y21094485D01*
X10170941Y21281114D01*
X10170630Y21282072D01*
X10112547Y21460832D01*
X10026760Y21629199D01*
X9915690Y21782073D01*
X9782073Y21915690D01*
X9629199Y22026760D01*
X9629198Y22026761D01*
X9629196Y22026762D01*
X9460832Y22112547D01*
X9281113Y22170942D01*
X9094484Y22200500D01*
X9094481Y22200500D01*
X8905519Y22200500D01*
X8905516Y22200500D01*
X8718886Y22170942D01*
X8539167Y22112547D01*
X8370803Y22026762D01*
X8217928Y21915691D01*
X8084309Y21782072D01*
X7973238Y21629197D01*
X7887453Y21460833D01*
X7829058Y21281114D01*
X7799500Y21094485D01*
X500500Y21094485D01*
X500500Y23086615D01*
X11399500Y23086615D01*
X11399500Y22913386D01*
X11426597Y22742298D01*
X11426598Y22742294D01*
X11480123Y22577562D01*
X11480125Y22577559D01*
X11558636Y22423470D01*
X11558768Y22423212D01*
X11660586Y22283072D01*
X11783072Y22160586D01*
X11923212Y22058768D01*
X12077555Y21980127D01*
X12077557Y21980127D01*
X12077558Y21980126D01*
X12077561Y21980124D01*
X12242293Y21926599D01*
X12242297Y21926598D01*
X12413386Y21899500D01*
X12413389Y21899500D01*
X12586614Y21899500D01*
X12757702Y21926598D01*
X12757706Y21926599D01*
X12922438Y21980124D01*
X12922440Y21980126D01*
X12922445Y21980127D01*
X13076788Y22058768D01*
X13216928Y22160586D01*
X13339414Y22283072D01*
X13441232Y22423212D01*
X13519873Y22577555D01*
X13519874Y22577560D01*
X13519876Y22577562D01*
X13573401Y22742294D01*
X13573402Y22742298D01*
X13600500Y22913386D01*
X13600500Y23086615D01*
X13573402Y23257703D01*
X13573401Y23257707D01*
X13519876Y23422439D01*
X13519874Y23422442D01*
X13519873Y23422443D01*
X13519873Y23422445D01*
X13441232Y23576788D01*
X13339414Y23716928D01*
X13216928Y23839414D01*
X13076788Y23941232D01*
X13076787Y23941233D01*
X13076785Y23941234D01*
X12922441Y24019875D01*
X12922438Y24019877D01*
X12757706Y24073402D01*
X12757702Y24073403D01*
X12586614Y24100500D01*
X12586611Y24100500D01*
X12413389Y24100500D01*
X12413386Y24100500D01*
X12242297Y24073403D01*
X12242293Y24073402D01*
X12077561Y24019877D01*
X12077558Y24019875D01*
X11923214Y23941234D01*
X11783073Y23839415D01*
X11660585Y23716927D01*
X11558766Y23576786D01*
X11480125Y23422442D01*
X11480123Y23422439D01*
X11426598Y23257707D01*
X11426597Y23257703D01*
X11399500Y23086615D01*
X500500Y23086615D01*
X500500Y26094485D01*
X7799500Y26094485D01*
X7799500Y25905516D01*
X7829058Y25718887D01*
X7887453Y25539168D01*
X7946927Y25422442D01*
X7973240Y25370801D01*
X8084310Y25217927D01*
X8217927Y25084310D01*
X8370801Y24973240D01*
X8539168Y24887453D01*
X8718882Y24829060D01*
X8718883Y24829060D01*
X8718886Y24829059D01*
X8905516Y24799500D01*
X8905519Y24799500D01*
X9094484Y24799500D01*
X9281113Y24829059D01*
X9281114Y24829060D01*
X9281118Y24829060D01*
X9460832Y24887453D01*
X9629199Y24973240D01*
X9782073Y25084310D01*
X9915690Y25217927D01*
X10026760Y25370801D01*
X10112547Y25539168D01*
X10170940Y25718882D01*
X10172607Y25729407D01*
X10200500Y25905516D01*
X10200500Y26094485D01*
X11299500Y26094485D01*
X11299500Y25905516D01*
X11329058Y25718887D01*
X11387453Y25539168D01*
X11446927Y25422442D01*
X11473240Y25370801D01*
X11584310Y25217927D01*
X11717927Y25084310D01*
X11870801Y24973240D01*
X12039168Y24887453D01*
X12218882Y24829060D01*
X12218883Y24829060D01*
X12218886Y24829059D01*
X12405516Y24799500D01*
X12405519Y24799500D01*
X12594484Y24799500D01*
X12781113Y24829059D01*
X12781114Y24829060D01*
X12781118Y24829060D01*
X12960832Y24887453D01*
X13129199Y24973240D01*
X13282073Y25084310D01*
X13415690Y25217927D01*
X13526760Y25370801D01*
X13612547Y25539168D01*
X13670940Y25718882D01*
X13672607Y25729407D01*
X13700500Y25905516D01*
X13700500Y26094485D01*
X13670941Y26281114D01*
X13664024Y26302402D01*
X13612547Y26460832D01*
X13526760Y26629199D01*
X13415690Y26782073D01*
X13282073Y26915690D01*
X13129199Y27026760D01*
X13129198Y27026761D01*
X13129196Y27026762D01*
X12960832Y27112547D01*
X12781113Y27170942D01*
X12594484Y27200500D01*
X12594481Y27200500D01*
X12405519Y27200500D01*
X12405516Y27200500D01*
X12218886Y27170942D01*
X12039167Y27112547D01*
X11870803Y27026762D01*
X11717928Y26915691D01*
X11584309Y26782072D01*
X11473238Y26629197D01*
X11387453Y26460833D01*
X11329058Y26281114D01*
X11299500Y26094485D01*
X10200500Y26094485D01*
X10170941Y26281114D01*
X10164024Y26302402D01*
X10112547Y26460832D01*
X10026760Y26629199D01*
X9915690Y26782073D01*
X9782073Y26915690D01*
X9629199Y27026760D01*
X9629198Y27026761D01*
X9629196Y27026762D01*
X9460832Y27112547D01*
X9281113Y27170942D01*
X9094484Y27200500D01*
X9094481Y27200500D01*
X8905519Y27200500D01*
X8905516Y27200500D01*
X8718886Y27170942D01*
X8539167Y27112547D01*
X8370803Y27026762D01*
X8217928Y26915691D01*
X8084309Y26782072D01*
X7973238Y26629197D01*
X7887453Y26460833D01*
X7829058Y26281114D01*
X7799500Y26094485D01*
X500500Y26094485D01*
X500500Y31538691D01*
X13049500Y31538691D01*
X13049500Y31534582D01*
X13049500Y28461306D01*
X13084105Y28287335D01*
X13084105Y28287333D01*
X13116389Y28209394D01*
X13151986Y28123454D01*
X13155312Y28118477D01*
X13203625Y28046172D01*
X13250536Y27975964D01*
X13820982Y27405519D01*
X14070504Y27155997D01*
X14098281Y27101480D01*
X14099500Y27085993D01*
X14099500Y24411306D01*
X14134104Y24237337D01*
X14134106Y24237331D01*
X14165896Y24160585D01*
X14201985Y24073456D01*
X14201986Y24073454D01*
X14201987Y24073453D01*
X14260281Y23986211D01*
X14300111Y23926599D01*
X14300536Y23925964D01*
X14804056Y23422445D01*
X15120504Y23105997D01*
X15148281Y23051480D01*
X15149500Y23035993D01*
X15149500Y17361306D01*
X15184104Y17187336D01*
X15184107Y17187327D01*
X15195183Y17160592D01*
X15195184Y17160586D01*
X15195185Y17160586D01*
X15251985Y17023456D01*
X15311063Y16935041D01*
X15311064Y16935039D01*
X15350533Y16875967D01*
X15736996Y16489503D01*
X15764773Y16434987D01*
X15755202Y16374555D01*
X15711937Y16331290D01*
X15666992Y16320500D01*
X15384306Y16320500D01*
X15371773Y16319514D01*
X15347434Y16317599D01*
X15347427Y16317597D01*
X15189602Y16271744D01*
X15048136Y16188082D01*
X14931918Y16071864D01*
X14848256Y15930398D01*
X14802403Y15772573D01*
X14802401Y15772566D01*
X14799500Y15735689D01*
X14799500Y14504312D01*
X14802401Y14467435D01*
X14802401Y14467432D01*
X14802402Y14467431D01*
X14848256Y14309602D01*
X14931919Y14168135D01*
X15048135Y14051919D01*
X15189602Y13968256D01*
X15347431Y13922402D01*
X15384306Y13919500D01*
X15384311Y13919500D01*
X16615689Y13919500D01*
X16615694Y13919500D01*
X16652569Y13922402D01*
X16810398Y13968256D01*
X16821460Y13974798D01*
X18350000Y13974798D01*
X18350000Y13330001D01*
X18350001Y13330000D01*
X19066988Y13330000D01*
X19034075Y13272993D01*
X19000000Y13145826D01*
X19000000Y13014174D01*
X19034075Y12887007D01*
X19066988Y12830000D01*
X18350002Y12830000D01*
X18350001Y12829999D01*
X18350001Y12185209D01*
X18352909Y12160126D01*
X18398213Y12057523D01*
X18477522Y11978214D01*
X18580127Y11932910D01*
X18605203Y11930001D01*
X19249998Y11930001D01*
X19250000Y11930002D01*
X19250000Y12646988D01*
X19307007Y12614075D01*
X19434174Y12580000D01*
X19565826Y12580000D01*
X19692993Y12614075D01*
X19750000Y12646988D01*
X19750000Y11930002D01*
X19750001Y11930001D01*
X20394790Y11930001D01*
X20394791Y11930002D01*
X20419874Y11932910D01*
X20522477Y11978214D01*
X20601786Y12057523D01*
X20647090Y12160128D01*
X20649999Y12185203D01*
X20650000Y12185205D01*
X20650000Y12829999D01*
X20649999Y12830000D01*
X19933012Y12830000D01*
X19965925Y12887007D01*
X20000000Y13014174D01*
X20000000Y13145826D01*
X19965925Y13272993D01*
X19933012Y13330000D01*
X20649998Y13330000D01*
X20649999Y13330001D01*
X20649999Y13974790D01*
X20649998Y13974792D01*
X20647090Y13999875D01*
X20601786Y14102478D01*
X20522477Y14181787D01*
X20419872Y14227091D01*
X20394797Y14230000D01*
X19750001Y14230000D01*
X19750000Y14229999D01*
X19750000Y13513012D01*
X19692993Y13545925D01*
X19565826Y13580000D01*
X19434174Y13580000D01*
X19307007Y13545925D01*
X19250000Y13513012D01*
X19250000Y14229999D01*
X19249999Y14230000D01*
X18605210Y14230000D01*
X18605207Y14229999D01*
X18580125Y14227091D01*
X18477522Y14181787D01*
X18398213Y14102478D01*
X18352909Y13999873D01*
X18350000Y13974798D01*
X16821460Y13974798D01*
X16951865Y14051919D01*
X17068081Y14168135D01*
X17151744Y14309602D01*
X17197598Y14467431D01*
X17200500Y14504306D01*
X17200500Y15735694D01*
X17197598Y15772569D01*
X17197594Y15772580D01*
X17197341Y15773975D01*
X17197433Y15774662D01*
X17197201Y15777613D01*
X17197836Y15777663D01*
X17205485Y15834616D01*
X17247718Y15878889D01*
X17307908Y15889882D01*
X17363064Y15863397D01*
X17364700Y15861800D01*
X18300536Y14925965D01*
X18425965Y14800536D01*
X18573453Y14701987D01*
X18737334Y14634106D01*
X18911308Y14599500D01*
X18911309Y14599500D01*
X21000500Y14599500D01*
X21058691Y14580593D01*
X21094655Y14531093D01*
X21099500Y14500500D01*
X21099500Y6911306D01*
X21134104Y6737337D01*
X21134106Y6737331D01*
X21149777Y6699499D01*
X21201985Y6573456D01*
X21261063Y6485041D01*
X21261064Y6485039D01*
X21300531Y6425970D01*
X21300533Y6425968D01*
X21300536Y6425964D01*
X21626001Y6100500D01*
X21925965Y5800536D01*
X22073453Y5701987D01*
X22121452Y5682105D01*
X22121451Y5682105D01*
X22169451Y5662224D01*
X22237334Y5634105D01*
X22411308Y5599500D01*
X22411309Y5599500D01*
X23334982Y5599500D01*
X23393171Y5580594D01*
X23423212Y5558768D01*
X23577555Y5480127D01*
X23577557Y5480127D01*
X23577558Y5480126D01*
X23577561Y5480124D01*
X23742293Y5426599D01*
X23742297Y5426598D01*
X23913386Y5399500D01*
X23913389Y5399500D01*
X24086614Y5399500D01*
X24257702Y5426598D01*
X24257706Y5426599D01*
X24422438Y5480124D01*
X24422440Y5480126D01*
X24422445Y5480127D01*
X24576788Y5558768D01*
X24716928Y5660586D01*
X24839414Y5783072D01*
X24941232Y5923212D01*
X25019873Y6077555D01*
X25019874Y6077560D01*
X25019876Y6077562D01*
X25073401Y6242294D01*
X25073402Y6242298D01*
X25100500Y6413386D01*
X25100500Y6586615D01*
X30519500Y6586615D01*
X30519500Y6413386D01*
X30546597Y6242298D01*
X30546598Y6242294D01*
X30600123Y6077562D01*
X30600125Y6077559D01*
X30600126Y6077556D01*
X30600127Y6077555D01*
X30678768Y5923212D01*
X30780586Y5783072D01*
X30903072Y5660586D01*
X31043212Y5558768D01*
X31197555Y5480127D01*
X31197557Y5480127D01*
X31197558Y5480126D01*
X31197561Y5480124D01*
X31362293Y5426599D01*
X31362297Y5426598D01*
X31533386Y5399500D01*
X31533389Y5399500D01*
X31706614Y5399500D01*
X31877702Y5426598D01*
X31877706Y5426599D01*
X32042438Y5480124D01*
X32042440Y5480126D01*
X32042445Y5480127D01*
X32196788Y5558768D01*
X32336928Y5660586D01*
X32459414Y5783072D01*
X32561232Y5923212D01*
X32639873Y6077555D01*
X32639874Y6077560D01*
X32639876Y6077562D01*
X32693401Y6242294D01*
X32693402Y6242298D01*
X32720500Y6413386D01*
X32720500Y6586615D01*
X32693402Y6757703D01*
X32693401Y6757707D01*
X32639876Y6922439D01*
X32639874Y6922442D01*
X32639873Y6922443D01*
X32639873Y6922445D01*
X32561232Y7076788D01*
X32459414Y7216928D01*
X32336928Y7339414D01*
X32196788Y7441232D01*
X32196787Y7441233D01*
X32196785Y7441234D01*
X32042441Y7519875D01*
X32042438Y7519877D01*
X31877706Y7573402D01*
X31877702Y7573403D01*
X31706614Y7600500D01*
X31706611Y7600500D01*
X31533389Y7600500D01*
X31533386Y7600500D01*
X31362297Y7573403D01*
X31362293Y7573402D01*
X31197561Y7519877D01*
X31197558Y7519875D01*
X31043214Y7441234D01*
X30903073Y7339415D01*
X30780585Y7216927D01*
X30678766Y7076786D01*
X30600125Y6922442D01*
X30600123Y6922439D01*
X30546598Y6757707D01*
X30546597Y6757703D01*
X30519500Y6586615D01*
X25100500Y6586615D01*
X25073402Y6757703D01*
X25073401Y6757707D01*
X25019876Y6922439D01*
X25019874Y6922442D01*
X25019873Y6922443D01*
X25019873Y6922445D01*
X24941232Y7076788D01*
X24839414Y7216928D01*
X24716928Y7339414D01*
X24576788Y7441232D01*
X24576787Y7441233D01*
X24576785Y7441234D01*
X24422441Y7519875D01*
X24422438Y7519877D01*
X24257706Y7573402D01*
X24257702Y7573403D01*
X24086614Y7600500D01*
X24086611Y7600500D01*
X23913389Y7600500D01*
X23913386Y7600500D01*
X23742297Y7573403D01*
X23742293Y7573402D01*
X23577561Y7519877D01*
X23577558Y7519875D01*
X23423213Y7441233D01*
X23423212Y7441232D01*
X23393171Y7419407D01*
X23334982Y7400500D01*
X22999500Y7400500D01*
X22941309Y7419407D01*
X22905345Y7468907D01*
X22900500Y7499500D01*
X22900500Y9017426D01*
X23490979Y9017426D01*
X23526324Y8993810D01*
X23708310Y8918430D01*
X23901506Y8880001D01*
X23901510Y8880000D01*
X24098490Y8880000D01*
X24098493Y8880001D01*
X24291688Y8918430D01*
X24291690Y8918430D01*
X24473675Y8993810D01*
X24509019Y9017426D01*
X25990979Y9017426D01*
X26026324Y8993810D01*
X26208310Y8918430D01*
X26401506Y8880001D01*
X26401510Y8880000D01*
X26598490Y8880000D01*
X26598493Y8880001D01*
X26791688Y8918430D01*
X26791690Y8918430D01*
X26973675Y8993810D01*
X27009019Y9017426D01*
X26499999Y9526446D01*
X25990979Y9017426D01*
X24509019Y9017426D01*
X23999999Y9526446D01*
X23490979Y9017426D01*
X22900500Y9017426D01*
X22900500Y9423595D01*
X22919407Y9481786D01*
X22968907Y9517750D01*
X23030093Y9517750D01*
X23079593Y9481786D01*
X23090964Y9461480D01*
X23113810Y9406322D01*
X23137424Y9370981D01*
X23646444Y9880001D01*
X23600367Y9926078D01*
X23650000Y9926078D01*
X23650000Y9833922D01*
X23673852Y9744905D01*
X23719930Y9665095D01*
X23785095Y9599930D01*
X23864905Y9553852D01*
X23953922Y9530000D01*
X24046078Y9530000D01*
X24135095Y9553852D01*
X24214905Y9599930D01*
X24280070Y9665095D01*
X24326148Y9744905D01*
X24350000Y9833922D01*
X24350000Y9880001D01*
X24353554Y9880001D01*
X24862574Y9370981D01*
X24886190Y9406325D01*
X24961570Y9588310D01*
X24961570Y9588312D01*
X24999999Y9781507D01*
X25000000Y9781510D01*
X25000000Y9978491D01*
X24999999Y9978494D01*
X25500000Y9978494D01*
X25500000Y9781507D01*
X25538429Y9588312D01*
X25538429Y9588310D01*
X25613810Y9406322D01*
X25637424Y9370981D01*
X26146444Y9880001D01*
X26100367Y9926078D01*
X26150000Y9926078D01*
X26150000Y9833922D01*
X26173852Y9744905D01*
X26219930Y9665095D01*
X26285095Y9599930D01*
X26364905Y9553852D01*
X26453922Y9530000D01*
X26546078Y9530000D01*
X26635095Y9553852D01*
X26714905Y9599930D01*
X26780070Y9665095D01*
X26826148Y9744905D01*
X26850000Y9833922D01*
X26850000Y9880001D01*
X26853554Y9880001D01*
X27362574Y9370981D01*
X27386190Y9406325D01*
X27461570Y9588310D01*
X27461570Y9588312D01*
X27499999Y9781507D01*
X27500000Y9781510D01*
X27500000Y9978491D01*
X27499999Y9978494D01*
X27461570Y10171689D01*
X27461570Y10171691D01*
X27386190Y10353676D01*
X27362574Y10389021D01*
X26853554Y9880001D01*
X26850000Y9880001D01*
X26850000Y9926078D01*
X26826148Y10015095D01*
X26780070Y10094905D01*
X26714905Y10160070D01*
X26635095Y10206148D01*
X26546078Y10230000D01*
X26453922Y10230000D01*
X26364905Y10206148D01*
X26285095Y10160070D01*
X26219930Y10094905D01*
X26173852Y10015095D01*
X26150000Y9926078D01*
X26100367Y9926078D01*
X25637424Y10389021D01*
X25613815Y10353686D01*
X25613809Y10353676D01*
X25538429Y10171691D01*
X25538429Y10171689D01*
X25500000Y9978494D01*
X24999999Y9978494D01*
X24961570Y10171689D01*
X24961570Y10171691D01*
X24886190Y10353676D01*
X24862574Y10389021D01*
X24353554Y9880001D01*
X24350000Y9880001D01*
X24350000Y9926078D01*
X24326148Y10015095D01*
X24280070Y10094905D01*
X24214905Y10160070D01*
X24135095Y10206148D01*
X24046078Y10230000D01*
X23953922Y10230000D01*
X23864905Y10206148D01*
X23785095Y10160070D01*
X23719930Y10094905D01*
X23673852Y10015095D01*
X23650000Y9926078D01*
X23600367Y9926078D01*
X23137424Y10389021D01*
X23113815Y10353686D01*
X23113811Y10353679D01*
X23090964Y10298520D01*
X23051227Y10251995D01*
X22991732Y10237711D01*
X22935204Y10261126D01*
X22903235Y10313295D01*
X22900500Y10336406D01*
X22900500Y10742576D01*
X23490979Y10742576D01*
X23999999Y10233556D01*
X24509019Y10742576D01*
X25990979Y10742576D01*
X26499999Y10233556D01*
X27009019Y10742576D01*
X26973678Y10766189D01*
X26973678Y10766190D01*
X26791689Y10841571D01*
X26598493Y10880000D01*
X26401506Y10880000D01*
X26208311Y10841571D01*
X26208309Y10841571D01*
X26026324Y10766191D01*
X26026314Y10766185D01*
X25990979Y10742576D01*
X24509019Y10742576D01*
X24473678Y10766189D01*
X24473678Y10766190D01*
X24291689Y10841571D01*
X24098493Y10880000D01*
X23901506Y10880000D01*
X23708311Y10841571D01*
X23708309Y10841571D01*
X23526324Y10766191D01*
X23526314Y10766185D01*
X23490979Y10742576D01*
X22900500Y10742576D01*
X22900500Y14894798D01*
X30810000Y14894798D01*
X30810000Y14250001D01*
X30810001Y14250000D01*
X31526988Y14250000D01*
X31494075Y14192993D01*
X31460000Y14065826D01*
X31460000Y13934174D01*
X31494075Y13807007D01*
X31526988Y13750000D01*
X30810002Y13750000D01*
X30810001Y13749999D01*
X30810001Y13105209D01*
X30812909Y13080126D01*
X30858213Y12977523D01*
X30937522Y12898214D01*
X31040127Y12852910D01*
X31065203Y12850001D01*
X31709998Y12850001D01*
X31710000Y12850002D01*
X31710000Y13566988D01*
X31767007Y13534075D01*
X31894174Y13500000D01*
X32025826Y13500000D01*
X32152993Y13534075D01*
X32210000Y13566988D01*
X32210000Y12850002D01*
X32210001Y12850001D01*
X32854790Y12850001D01*
X32854791Y12850002D01*
X32879874Y12852910D01*
X32982477Y12898214D01*
X33061786Y12977523D01*
X33107090Y13080128D01*
X33109999Y13105203D01*
X33109999Y13606215D01*
X33128906Y13664406D01*
X33178406Y13700370D01*
X33239591Y13700370D01*
X33289092Y13664406D01*
X33303153Y13636808D01*
X33341112Y13519982D01*
X33341114Y13519979D01*
X33421852Y13361519D01*
X33430476Y13344595D01*
X33546172Y13185354D01*
X33685354Y13046172D01*
X33844595Y12930476D01*
X34019975Y12841116D01*
X34207174Y12780291D01*
X34207175Y12780291D01*
X34207178Y12780290D01*
X34401580Y12749500D01*
X34401583Y12749500D01*
X34598420Y12749500D01*
X34792821Y12780290D01*
X34792822Y12780291D01*
X34792826Y12780291D01*
X34980025Y12841116D01*
X35155405Y12930476D01*
X35314646Y13046172D01*
X35453828Y13185354D01*
X35569524Y13344595D01*
X35658884Y13519975D01*
X35675845Y13572177D01*
X35711809Y13621676D01*
X35770000Y13640583D01*
X35828191Y13621676D01*
X35864155Y13572176D01*
X35881116Y13519975D01*
X35961852Y13361519D01*
X35970476Y13344595D01*
X36086172Y13185354D01*
X36225354Y13046172D01*
X36384595Y12930476D01*
X36559975Y12841116D01*
X36747174Y12780291D01*
X36747175Y12780291D01*
X36747178Y12780290D01*
X36941580Y12749500D01*
X36941583Y12749500D01*
X37138420Y12749500D01*
X37332821Y12780290D01*
X37332822Y12780291D01*
X37332826Y12780291D01*
X37520025Y12841116D01*
X37695405Y12930476D01*
X37854646Y13046172D01*
X37993828Y13185354D01*
X38109524Y13344595D01*
X38198884Y13519975D01*
X38259709Y13707174D01*
X38261051Y13715648D01*
X38290500Y13901580D01*
X38290500Y14098421D01*
X38259710Y14292822D01*
X38259709Y14292826D01*
X38198884Y14480025D01*
X38109524Y14655405D01*
X37993828Y14814646D01*
X37854646Y14953828D01*
X37695405Y15069524D01*
X37695404Y15069525D01*
X37695402Y15069526D01*
X37520025Y15158884D01*
X37332821Y15219711D01*
X37138420Y15250500D01*
X37138417Y15250500D01*
X36941583Y15250500D01*
X36941580Y15250500D01*
X36747178Y15219711D01*
X36559974Y15158884D01*
X36384597Y15069526D01*
X36225355Y14953829D01*
X36086171Y14814645D01*
X35970474Y14655403D01*
X35881114Y14480022D01*
X35881112Y14480019D01*
X35864154Y14427825D01*
X35828190Y14378325D01*
X35769999Y14359418D01*
X35711809Y14378326D01*
X35675846Y14427825D01*
X35658887Y14480019D01*
X35658885Y14480022D01*
X35658884Y14480023D01*
X35658884Y14480025D01*
X35569524Y14655405D01*
X35453828Y14814646D01*
X35314646Y14953828D01*
X35155405Y15069524D01*
X35155404Y15069525D01*
X35155402Y15069526D01*
X34980025Y15158884D01*
X34792821Y15219711D01*
X34598420Y15250500D01*
X34598417Y15250500D01*
X34401583Y15250500D01*
X34401580Y15250500D01*
X34207178Y15219711D01*
X34019974Y15158884D01*
X33844597Y15069526D01*
X33685355Y14953829D01*
X33546171Y14814645D01*
X33430474Y14655403D01*
X33341114Y14480022D01*
X33341112Y14480019D01*
X33303153Y14363191D01*
X33267189Y14313691D01*
X33208999Y14294784D01*
X33150808Y14313692D01*
X33114844Y14363192D01*
X33109999Y14393784D01*
X33109999Y14894790D01*
X33109998Y14894792D01*
X33107090Y14919875D01*
X33061786Y15022478D01*
X32982477Y15101787D01*
X32879872Y15147091D01*
X32854797Y15150000D01*
X32210001Y15150000D01*
X32210000Y15149999D01*
X32210000Y14433012D01*
X32152993Y14465925D01*
X32025826Y14500000D01*
X31894174Y14500000D01*
X31767007Y14465925D01*
X31710000Y14433012D01*
X31710000Y15149999D01*
X31709999Y15150000D01*
X31065210Y15150000D01*
X31065207Y15149999D01*
X31040125Y15147091D01*
X30937522Y15101787D01*
X30858213Y15022478D01*
X30812909Y14919873D01*
X30810000Y14894798D01*
X22900500Y14894798D01*
X22900500Y15088691D01*
X22900499Y15088694D01*
X22898550Y15098491D01*
X22886538Y15158884D01*
X22865895Y15262666D01*
X22804325Y15411308D01*
X22798013Y15426547D01*
X22771240Y15466615D01*
X39399500Y15466615D01*
X39399500Y15293386D01*
X39426597Y15122298D01*
X39426598Y15122294D01*
X39480123Y14957562D01*
X39480125Y14957559D01*
X39480126Y14957556D01*
X39480127Y14957555D01*
X39482026Y14953828D01*
X39552942Y14814645D01*
X39558768Y14803212D01*
X39660586Y14663072D01*
X39783072Y14540586D01*
X39923212Y14438768D01*
X40077555Y14360127D01*
X40077557Y14360127D01*
X40077558Y14360126D01*
X40077561Y14360124D01*
X40242293Y14306599D01*
X40242297Y14306598D01*
X40413386Y14279500D01*
X40413389Y14279500D01*
X40586614Y14279500D01*
X40757702Y14306598D01*
X40757706Y14306599D01*
X40922438Y14360124D01*
X40922440Y14360126D01*
X40922445Y14360127D01*
X41076788Y14438768D01*
X41216928Y14540586D01*
X41339414Y14663072D01*
X41441232Y14803212D01*
X41519873Y14957555D01*
X41519874Y14957560D01*
X41519876Y14957562D01*
X41573401Y15122294D01*
X41573402Y15122298D01*
X41600500Y15293386D01*
X41600500Y15466615D01*
X41573402Y15637703D01*
X41573401Y15637707D01*
X41519876Y15802439D01*
X41519874Y15802442D01*
X41519873Y15802443D01*
X41519873Y15802445D01*
X41441232Y15956788D01*
X41339414Y16096928D01*
X41216928Y16219414D01*
X41076788Y16321232D01*
X41076787Y16321233D01*
X41076785Y16321234D01*
X40922441Y16399875D01*
X40922438Y16399877D01*
X40757706Y16453402D01*
X40757702Y16453403D01*
X40586614Y16480500D01*
X40586611Y16480500D01*
X40413389Y16480500D01*
X40413386Y16480500D01*
X40242297Y16453403D01*
X40242293Y16453402D01*
X40077561Y16399877D01*
X40077558Y16399875D01*
X39923214Y16321234D01*
X39783073Y16219415D01*
X39660585Y16096927D01*
X39558766Y15956786D01*
X39480125Y15802442D01*
X39480123Y15802439D01*
X39426598Y15637707D01*
X39426597Y15637703D01*
X39399500Y15466615D01*
X22771240Y15466615D01*
X22699464Y15574035D01*
X22574035Y15699464D01*
X22074036Y16199464D01*
X22014959Y16238937D01*
X21926547Y16298013D01*
X21926548Y16298013D01*
X21926546Y16298014D01*
X21762664Y16365896D01*
X21588694Y16400500D01*
X21588692Y16400500D01*
X21588691Y16400500D01*
X19414007Y16400500D01*
X19355816Y16419407D01*
X19344003Y16429496D01*
X18743499Y17030000D01*
X18186885Y17586615D01*
X22899500Y17586615D01*
X22899500Y17413386D01*
X22926597Y17242298D01*
X22926598Y17242294D01*
X22980123Y17077562D01*
X22980125Y17077559D01*
X23057042Y16926598D01*
X23058768Y16923212D01*
X23160586Y16783072D01*
X23283072Y16660586D01*
X23423212Y16558768D01*
X23577555Y16480127D01*
X23577557Y16480127D01*
X23577558Y16480126D01*
X23577561Y16480124D01*
X23742293Y16426599D01*
X23742297Y16426598D01*
X23913386Y16399500D01*
X23913389Y16399500D01*
X24086614Y16399500D01*
X24257702Y16426598D01*
X24257706Y16426599D01*
X24422438Y16480124D01*
X24422440Y16480126D01*
X24422445Y16480127D01*
X24576788Y16558768D01*
X24716928Y16660586D01*
X24839414Y16783072D01*
X24941232Y16923212D01*
X25019873Y17077555D01*
X25019874Y17077560D01*
X25019876Y17077562D01*
X25073401Y17242294D01*
X25073402Y17242298D01*
X25100500Y17413386D01*
X25100500Y17586615D01*
X25399500Y17586615D01*
X25399500Y17413386D01*
X25426597Y17242298D01*
X25426598Y17242294D01*
X25480123Y17077562D01*
X25480125Y17077559D01*
X25557042Y16926598D01*
X25558768Y16923212D01*
X25660586Y16783072D01*
X25783072Y16660586D01*
X25923212Y16558768D01*
X26077555Y16480127D01*
X26077557Y16480127D01*
X26077558Y16480126D01*
X26077561Y16480124D01*
X26242293Y16426599D01*
X26242297Y16426598D01*
X26413386Y16399500D01*
X26413389Y16399500D01*
X26586614Y16399500D01*
X26757702Y16426598D01*
X26757706Y16426599D01*
X26922438Y16480124D01*
X26922440Y16480126D01*
X26922445Y16480127D01*
X26995649Y16517426D01*
X28990979Y16517426D01*
X29026324Y16493810D01*
X29208310Y16418430D01*
X29401506Y16380001D01*
X29401510Y16380000D01*
X29598490Y16380000D01*
X29598493Y16380001D01*
X29791688Y16418430D01*
X29791690Y16418430D01*
X29973675Y16493810D01*
X30009019Y16517426D01*
X31490979Y16517426D01*
X31526324Y16493810D01*
X31708310Y16418430D01*
X31901506Y16380001D01*
X31901510Y16380000D01*
X32098490Y16380000D01*
X32098493Y16380001D01*
X32291688Y16418430D01*
X32291690Y16418430D01*
X32473675Y16493810D01*
X32509019Y16517426D01*
X33990979Y16517426D01*
X34026324Y16493810D01*
X34208310Y16418430D01*
X34401506Y16380001D01*
X34401510Y16380000D01*
X34598490Y16380000D01*
X34598493Y16380001D01*
X34791688Y16418430D01*
X34791690Y16418430D01*
X34973675Y16493810D01*
X35009019Y16517426D01*
X34499999Y17026446D01*
X33990979Y16517426D01*
X32509019Y16517426D01*
X31999999Y17026446D01*
X31490979Y16517426D01*
X30009019Y16517426D01*
X29499999Y17026446D01*
X28990979Y16517426D01*
X26995649Y16517426D01*
X27076788Y16558768D01*
X27216928Y16660586D01*
X27339414Y16783072D01*
X27441232Y16923212D01*
X27519873Y17077555D01*
X27519874Y17077560D01*
X27519876Y17077562D01*
X27573401Y17242294D01*
X27573402Y17242298D01*
X27600500Y17413386D01*
X27600500Y17478494D01*
X28500000Y17478494D01*
X28500000Y17281507D01*
X28538429Y17088312D01*
X28538429Y17088310D01*
X28613810Y16906322D01*
X28637424Y16870981D01*
X29146444Y17380001D01*
X29100367Y17426078D01*
X29150000Y17426078D01*
X29150000Y17333922D01*
X29173852Y17244905D01*
X29219930Y17165095D01*
X29285095Y17099930D01*
X29364905Y17053852D01*
X29453922Y17030000D01*
X29546078Y17030000D01*
X29635095Y17053852D01*
X29714905Y17099930D01*
X29780070Y17165095D01*
X29826148Y17244905D01*
X29850000Y17333922D01*
X29850000Y17380001D01*
X29853554Y17380001D01*
X30362574Y16870981D01*
X30386190Y16906325D01*
X30461570Y17088310D01*
X30461570Y17088312D01*
X30499999Y17281507D01*
X30500000Y17281510D01*
X30500000Y17478491D01*
X30499999Y17478494D01*
X31000000Y17478494D01*
X31000000Y17281507D01*
X31038429Y17088312D01*
X31038429Y17088310D01*
X31113810Y16906322D01*
X31137424Y16870981D01*
X31646444Y17380001D01*
X31600367Y17426078D01*
X31650000Y17426078D01*
X31650000Y17333922D01*
X31673852Y17244905D01*
X31719930Y17165095D01*
X31785095Y17099930D01*
X31864905Y17053852D01*
X31953922Y17030000D01*
X32046078Y17030000D01*
X32135095Y17053852D01*
X32214905Y17099930D01*
X32280070Y17165095D01*
X32326148Y17244905D01*
X32350000Y17333922D01*
X32350000Y17380001D01*
X32353554Y17380001D01*
X32862574Y16870981D01*
X32886190Y16906325D01*
X32961570Y17088310D01*
X32961570Y17088312D01*
X32999999Y17281507D01*
X33000000Y17281510D01*
X33000000Y17478491D01*
X32999999Y17478494D01*
X33500000Y17478494D01*
X33500000Y17281507D01*
X33538429Y17088312D01*
X33538429Y17088310D01*
X33613810Y16906322D01*
X33637424Y16870981D01*
X34146444Y17380001D01*
X34100367Y17426078D01*
X34150000Y17426078D01*
X34150000Y17333922D01*
X34173852Y17244905D01*
X34219930Y17165095D01*
X34285095Y17099930D01*
X34364905Y17053852D01*
X34453922Y17030000D01*
X34546078Y17030000D01*
X34635095Y17053852D01*
X34714905Y17099930D01*
X34780070Y17165095D01*
X34826148Y17244905D01*
X34850000Y17333922D01*
X34850000Y17380001D01*
X34853554Y17380001D01*
X35362574Y16870981D01*
X35386190Y16906325D01*
X35461570Y17088310D01*
X35461570Y17088312D01*
X35499999Y17281507D01*
X35500000Y17281510D01*
X35500000Y17478491D01*
X35499999Y17478494D01*
X35461570Y17671689D01*
X35461570Y17671691D01*
X35386190Y17853676D01*
X35362574Y17889021D01*
X34853554Y17380001D01*
X34850000Y17380001D01*
X34850000Y17426078D01*
X34826148Y17515095D01*
X34780070Y17594905D01*
X34714905Y17660070D01*
X34635095Y17706148D01*
X34546078Y17730000D01*
X34453922Y17730000D01*
X34364905Y17706148D01*
X34285095Y17660070D01*
X34219930Y17594905D01*
X34173852Y17515095D01*
X34150000Y17426078D01*
X34100367Y17426078D01*
X33637424Y17889021D01*
X33613815Y17853686D01*
X33613809Y17853676D01*
X33538429Y17671691D01*
X33538429Y17671689D01*
X33500000Y17478494D01*
X32999999Y17478494D01*
X32961570Y17671689D01*
X32961570Y17671691D01*
X32886190Y17853676D01*
X32862574Y17889021D01*
X32353554Y17380001D01*
X32350000Y17380001D01*
X32350000Y17426078D01*
X32326148Y17515095D01*
X32280070Y17594905D01*
X32214905Y17660070D01*
X32135095Y17706148D01*
X32046078Y17730000D01*
X31953922Y17730000D01*
X31864905Y17706148D01*
X31785095Y17660070D01*
X31719930Y17594905D01*
X31673852Y17515095D01*
X31650000Y17426078D01*
X31600367Y17426078D01*
X31137424Y17889021D01*
X31113815Y17853686D01*
X31113809Y17853676D01*
X31038429Y17671691D01*
X31038429Y17671689D01*
X31000000Y17478494D01*
X30499999Y17478494D01*
X30461570Y17671689D01*
X30461570Y17671691D01*
X30386190Y17853676D01*
X30362574Y17889021D01*
X29853554Y17380001D01*
X29850000Y17380001D01*
X29850000Y17426078D01*
X29826148Y17515095D01*
X29780070Y17594905D01*
X29714905Y17660070D01*
X29635095Y17706148D01*
X29546078Y17730000D01*
X29453922Y17730000D01*
X29364905Y17706148D01*
X29285095Y17660070D01*
X29219930Y17594905D01*
X29173852Y17515095D01*
X29150000Y17426078D01*
X29100367Y17426078D01*
X28637424Y17889021D01*
X28613815Y17853686D01*
X28613809Y17853676D01*
X28538429Y17671691D01*
X28538429Y17671689D01*
X28500000Y17478494D01*
X27600500Y17478494D01*
X27600500Y17586615D01*
X27573402Y17757703D01*
X27573401Y17757707D01*
X27519876Y17922439D01*
X27519874Y17922442D01*
X27519873Y17922443D01*
X27519873Y17922445D01*
X27441232Y18076788D01*
X27434092Y18086615D01*
X27389866Y18147487D01*
X27339414Y18216928D01*
X27313766Y18242576D01*
X28990979Y18242576D01*
X29499999Y17733556D01*
X30009019Y18242576D01*
X31490979Y18242576D01*
X31999999Y17733556D01*
X32509019Y18242576D01*
X33990979Y18242576D01*
X34500000Y17733555D01*
X34860929Y18094485D01*
X36299500Y18094485D01*
X36299500Y17905516D01*
X36329058Y17718887D01*
X36387453Y17539168D01*
X36446533Y17423215D01*
X36473240Y17370801D01*
X36584310Y17217927D01*
X36717927Y17084310D01*
X36870801Y16973240D01*
X37039168Y16887453D01*
X37218882Y16829060D01*
X37218883Y16829060D01*
X37218886Y16829059D01*
X37405516Y16799500D01*
X37405519Y16799500D01*
X37594484Y16799500D01*
X37781113Y16829059D01*
X37781114Y16829060D01*
X37781118Y16829060D01*
X37960832Y16887453D01*
X38129199Y16973240D01*
X38282073Y17084310D01*
X38415690Y17217927D01*
X38526760Y17370801D01*
X38612547Y17539168D01*
X38670940Y17718882D01*
X38674649Y17742300D01*
X38700500Y17905516D01*
X38700500Y18094485D01*
X38670941Y18281114D01*
X38651297Y18341571D01*
X38619346Y18439908D01*
X38619346Y18439911D01*
X38612548Y18460829D01*
X38612547Y18460830D01*
X38612547Y18460832D01*
X38609600Y18466615D01*
X41899500Y18466615D01*
X41899500Y18293386D01*
X41926597Y18122298D01*
X41926598Y18122294D01*
X41980123Y17957562D01*
X41980125Y17957559D01*
X42033055Y17853676D01*
X42058768Y17803212D01*
X42160586Y17663072D01*
X42283072Y17540586D01*
X42423212Y17438768D01*
X42577555Y17360127D01*
X42577557Y17360127D01*
X42577558Y17360126D01*
X42577561Y17360124D01*
X42742293Y17306599D01*
X42742297Y17306598D01*
X42913386Y17279500D01*
X42913389Y17279500D01*
X43086614Y17279500D01*
X43257702Y17306598D01*
X43257706Y17306599D01*
X43422438Y17360124D01*
X43422440Y17360126D01*
X43422445Y17360127D01*
X43576788Y17438768D01*
X43716928Y17540586D01*
X43839414Y17663072D01*
X43941232Y17803212D01*
X44019873Y17957555D01*
X44019874Y17957560D01*
X44019876Y17957562D01*
X44073401Y18122294D01*
X44073402Y18122298D01*
X44100500Y18293386D01*
X44100500Y18466615D01*
X44073402Y18637703D01*
X44073401Y18637707D01*
X44019876Y18802439D01*
X44019874Y18802442D01*
X44019873Y18802443D01*
X44019873Y18802445D01*
X43941232Y18956788D01*
X43839414Y19096928D01*
X43716928Y19219414D01*
X43576788Y19321232D01*
X43576787Y19321233D01*
X43576785Y19321234D01*
X43422441Y19399875D01*
X43422438Y19399877D01*
X43257706Y19453402D01*
X43257702Y19453403D01*
X43086614Y19480500D01*
X43086611Y19480500D01*
X42913389Y19480500D01*
X42913386Y19480500D01*
X42742297Y19453403D01*
X42742293Y19453402D01*
X42577561Y19399877D01*
X42577558Y19399875D01*
X42423214Y19321234D01*
X42283073Y19219415D01*
X42160585Y19096927D01*
X42058766Y18956786D01*
X41980125Y18802442D01*
X41980123Y18802439D01*
X41926598Y18637707D01*
X41926597Y18637703D01*
X41899500Y18466615D01*
X38609600Y18466615D01*
X38526760Y18629199D01*
X38415690Y18782073D01*
X38282073Y18915690D01*
X38129199Y19026760D01*
X38129198Y19026761D01*
X38129196Y19026762D01*
X37960832Y19112547D01*
X37781113Y19170942D01*
X37594484Y19200500D01*
X37594481Y19200500D01*
X37405519Y19200500D01*
X37405516Y19200500D01*
X37218886Y19170942D01*
X37039167Y19112547D01*
X36870803Y19026762D01*
X36717928Y18915691D01*
X36584309Y18782072D01*
X36473238Y18629197D01*
X36387453Y18460833D01*
X36329058Y18281114D01*
X36299500Y18094485D01*
X34860929Y18094485D01*
X34934817Y18168373D01*
X34934819Y18168375D01*
X35009019Y18242576D01*
X34973678Y18266189D01*
X34973678Y18266190D01*
X34791689Y18341571D01*
X34598493Y18380000D01*
X34401506Y18380000D01*
X34208311Y18341571D01*
X34208309Y18341571D01*
X34026324Y18266191D01*
X34026314Y18266185D01*
X33990979Y18242576D01*
X32509019Y18242576D01*
X32473678Y18266189D01*
X32473678Y18266190D01*
X32291689Y18341571D01*
X32098493Y18380000D01*
X31901506Y18380000D01*
X31708311Y18341571D01*
X31708309Y18341571D01*
X31526324Y18266191D01*
X31526314Y18266185D01*
X31490979Y18242576D01*
X30009019Y18242576D01*
X29973678Y18266189D01*
X29973678Y18266190D01*
X29791689Y18341571D01*
X29598493Y18380000D01*
X29401506Y18380000D01*
X29208311Y18341571D01*
X29208309Y18341571D01*
X29026324Y18266191D01*
X29026314Y18266185D01*
X28990979Y18242576D01*
X27313766Y18242576D01*
X27216928Y18339414D01*
X27076788Y18441232D01*
X27076787Y18441233D01*
X27076785Y18441234D01*
X26922441Y18519875D01*
X26922438Y18519877D01*
X26757706Y18573402D01*
X26757702Y18573403D01*
X26586614Y18600500D01*
X26586611Y18600500D01*
X26413389Y18600500D01*
X26413386Y18600500D01*
X26242297Y18573403D01*
X26242293Y18573402D01*
X26077561Y18519877D01*
X26077558Y18519875D01*
X25923214Y18441234D01*
X25783073Y18339415D01*
X25660585Y18216927D01*
X25558766Y18076786D01*
X25480125Y17922442D01*
X25480123Y17922439D01*
X25426598Y17757707D01*
X25426597Y17757703D01*
X25399500Y17586615D01*
X25100500Y17586615D01*
X25073402Y17757703D01*
X25073401Y17757707D01*
X25019876Y17922439D01*
X25019874Y17922442D01*
X25019873Y17922443D01*
X25019873Y17922445D01*
X24941232Y18076788D01*
X24839414Y18216928D01*
X24716928Y18339414D01*
X24576788Y18441232D01*
X24576787Y18441233D01*
X24576785Y18441234D01*
X24422441Y18519875D01*
X24422438Y18519877D01*
X24257706Y18573402D01*
X24257702Y18573403D01*
X24086614Y18600500D01*
X24086611Y18600500D01*
X23913389Y18600500D01*
X23913386Y18600500D01*
X23742297Y18573403D01*
X23742293Y18573402D01*
X23577561Y18519877D01*
X23577558Y18519875D01*
X23423214Y18441234D01*
X23283073Y18339415D01*
X23160585Y18216927D01*
X23058766Y18076786D01*
X22980125Y17922442D01*
X22980123Y17922439D01*
X22926598Y17757707D01*
X22926597Y17757703D01*
X22899500Y17586615D01*
X18186885Y17586615D01*
X18074036Y17699464D01*
X18009928Y17742299D01*
X17926547Y17798013D01*
X17926548Y17798013D01*
X17926546Y17798014D01*
X17762664Y17865896D01*
X17588694Y17900500D01*
X17588692Y17900500D01*
X17588691Y17900500D01*
X17049500Y17900500D01*
X16991309Y17919407D01*
X16955345Y17968907D01*
X16950500Y17999500D01*
X16950500Y20094485D01*
X17989500Y20094485D01*
X17989500Y19905516D01*
X18019058Y19718887D01*
X18077453Y19539168D01*
X18156358Y19384306D01*
X18163240Y19370801D01*
X18274310Y19217927D01*
X18407927Y19084310D01*
X18560801Y18973240D01*
X18729168Y18887453D01*
X18908882Y18829060D01*
X18908883Y18829060D01*
X18908886Y18829059D01*
X19095516Y18799500D01*
X19095519Y18799500D01*
X19284484Y18799500D01*
X19471113Y18829059D01*
X19471114Y18829060D01*
X19471118Y18829060D01*
X19650832Y18887453D01*
X19819199Y18973240D01*
X19972073Y19084310D01*
X20105690Y19217927D01*
X20216760Y19370801D01*
X20302547Y19539168D01*
X20360940Y19718882D01*
X20360941Y19718887D01*
X20390500Y19905516D01*
X20390500Y20094485D01*
X20360941Y20281114D01*
X20320519Y20405519D01*
X20302547Y20460832D01*
X20223644Y20615689D01*
X25609500Y20615689D01*
X25609500Y19384312D01*
X25612401Y19347435D01*
X25612401Y19347432D01*
X25612402Y19347431D01*
X25658256Y19189602D01*
X25741919Y19048135D01*
X25858135Y18931919D01*
X25999602Y18848256D01*
X26157431Y18802402D01*
X26194306Y18799500D01*
X26194311Y18799500D01*
X27425689Y18799500D01*
X27425694Y18799500D01*
X27462569Y18802402D01*
X27620398Y18848256D01*
X27761865Y18931919D01*
X27878081Y19048135D01*
X27961744Y19189602D01*
X28007598Y19347431D01*
X28010500Y19384306D01*
X28010500Y20594485D01*
X44799500Y20594485D01*
X44799500Y20405516D01*
X44829058Y20218887D01*
X44887453Y20039168D01*
X44964754Y19887454D01*
X44973240Y19870801D01*
X45084310Y19717927D01*
X45217927Y19584310D01*
X45370801Y19473240D01*
X45539168Y19387453D01*
X45718882Y19329060D01*
X45718883Y19329060D01*
X45718886Y19329059D01*
X45905516Y19299500D01*
X45905519Y19299500D01*
X46094484Y19299500D01*
X46281113Y19329059D01*
X46281114Y19329060D01*
X46281118Y19329060D01*
X46460832Y19387453D01*
X46629199Y19473240D01*
X46782073Y19584310D01*
X46915690Y19717927D01*
X47026760Y19870801D01*
X47112547Y20039168D01*
X47170940Y20218882D01*
X47170941Y20218887D01*
X47200500Y20405516D01*
X47200500Y20594485D01*
X47170941Y20781114D01*
X47170630Y20782072D01*
X47112547Y20960832D01*
X47026760Y21129199D01*
X46915690Y21282073D01*
X46782073Y21415690D01*
X46629199Y21526760D01*
X46629198Y21526761D01*
X46629196Y21526762D01*
X46460832Y21612547D01*
X46281113Y21670942D01*
X46094484Y21700500D01*
X46094481Y21700500D01*
X45905519Y21700500D01*
X45905516Y21700500D01*
X45718886Y21670942D01*
X45539167Y21612547D01*
X45370803Y21526762D01*
X45217928Y21415691D01*
X45084309Y21282072D01*
X44973238Y21129197D01*
X44887453Y20960833D01*
X44829058Y20781114D01*
X44799500Y20594485D01*
X28010500Y20594485D01*
X28010500Y20615694D01*
X28007598Y20652569D01*
X27961744Y20810398D01*
X27878081Y20951865D01*
X27761865Y21068081D01*
X27620398Y21151744D01*
X27462569Y21197598D01*
X27462568Y21197599D01*
X27462565Y21197599D01*
X27439140Y21199442D01*
X27425694Y21200500D01*
X26194306Y21200500D01*
X26181773Y21199514D01*
X26157434Y21197599D01*
X26157427Y21197597D01*
X25999602Y21151744D01*
X25858136Y21068082D01*
X25741918Y20951864D01*
X25658256Y20810398D01*
X25612403Y20652573D01*
X25612401Y20652566D01*
X25609500Y20615689D01*
X20223644Y20615689D01*
X20216760Y20629199D01*
X20105690Y20782073D01*
X19972073Y20915690D01*
X19819199Y21026760D01*
X19819198Y21026761D01*
X19819196Y21026762D01*
X19650832Y21112547D01*
X19471113Y21170942D01*
X19284484Y21200500D01*
X19284481Y21200500D01*
X19095519Y21200500D01*
X19095516Y21200500D01*
X18908886Y21170942D01*
X18729167Y21112547D01*
X18560803Y21026762D01*
X18407928Y20915691D01*
X18274309Y20782072D01*
X18163238Y20629197D01*
X18077453Y20460833D01*
X18019058Y20281114D01*
X17989500Y20094485D01*
X16950500Y20094485D01*
X16950500Y23086615D01*
X19019500Y23086615D01*
X19019500Y22913386D01*
X19046597Y22742298D01*
X19046598Y22742294D01*
X19100123Y22577562D01*
X19100125Y22577559D01*
X19178636Y22423470D01*
X19178768Y22423212D01*
X19280586Y22283072D01*
X19403072Y22160586D01*
X19543212Y22058768D01*
X19697555Y21980127D01*
X19697557Y21980127D01*
X19697558Y21980126D01*
X19697561Y21980124D01*
X19862293Y21926599D01*
X19862297Y21926598D01*
X20033386Y21899500D01*
X20033389Y21899500D01*
X20206614Y21899500D01*
X20377702Y21926598D01*
X20377706Y21926599D01*
X20542438Y21980124D01*
X20542440Y21980126D01*
X20542445Y21980127D01*
X20696788Y22058768D01*
X20836928Y22160586D01*
X20959414Y22283072D01*
X21061232Y22423212D01*
X21139873Y22577555D01*
X21139874Y22577560D01*
X21139876Y22577562D01*
X21193401Y22742294D01*
X21193402Y22742298D01*
X21220500Y22913386D01*
X21220500Y23010550D01*
X22539500Y23010550D01*
X22539500Y22829451D01*
X22567828Y22650594D01*
X22623788Y22478363D01*
X22651757Y22423470D01*
X22706004Y22317006D01*
X22812447Y22170499D01*
X22940499Y22042447D01*
X23087006Y21936004D01*
X23248361Y21853789D01*
X23420591Y21797829D01*
X23492136Y21786498D01*
X23599451Y21769500D01*
X23599454Y21769500D01*
X23780549Y21769500D01*
X23869977Y21783665D01*
X23959409Y21797829D01*
X24131639Y21853789D01*
X24292994Y21936004D01*
X24439501Y22042447D01*
X24567553Y22170499D01*
X24673996Y22317006D01*
X24756211Y22478361D01*
X24812171Y22650591D01*
X24840500Y22829454D01*
X24840500Y23010546D01*
X24840500Y23010550D01*
X24830296Y23074975D01*
X24828459Y23086576D01*
X36400000Y23086576D01*
X36400000Y22913425D01*
X36427084Y22742421D01*
X36480588Y22577752D01*
X36559196Y22423476D01*
X36563708Y22417265D01*
X37100000Y22953557D01*
X37100000Y22947339D01*
X37127259Y22845606D01*
X37179920Y22754394D01*
X37254394Y22679920D01*
X37345606Y22627259D01*
X37447339Y22600000D01*
X37453552Y22600000D01*
X36917262Y22063711D01*
X36917262Y22063710D01*
X36923469Y22059200D01*
X36923475Y22059196D01*
X37077751Y21980589D01*
X37242420Y21927085D01*
X37413425Y21900000D01*
X37586575Y21900000D01*
X37757579Y21927085D01*
X37922248Y21980589D01*
X38076523Y22059196D01*
X38076530Y22059200D01*
X38082736Y22063710D01*
X37546446Y22600000D01*
X37552661Y22600000D01*
X37654394Y22627259D01*
X37745606Y22679920D01*
X37820080Y22754394D01*
X37872741Y22845606D01*
X37900000Y22947339D01*
X37900000Y22953554D01*
X38436290Y22417264D01*
X38440800Y22423470D01*
X38440804Y22423477D01*
X38519411Y22577752D01*
X38572915Y22742421D01*
X38600000Y22913425D01*
X38600000Y23086576D01*
X38599994Y23086615D01*
X39399500Y23086615D01*
X39399500Y22913386D01*
X39426597Y22742298D01*
X39426598Y22742294D01*
X39480123Y22577562D01*
X39480125Y22577559D01*
X39558636Y22423470D01*
X39558768Y22423212D01*
X39660586Y22283072D01*
X39783072Y22160586D01*
X39923212Y22058768D01*
X40077555Y21980127D01*
X40077557Y21980127D01*
X40077558Y21980126D01*
X40077561Y21980124D01*
X40242293Y21926599D01*
X40242297Y21926598D01*
X40413386Y21899500D01*
X40413389Y21899500D01*
X40586614Y21899500D01*
X40757702Y21926598D01*
X40757706Y21926599D01*
X40922438Y21980124D01*
X40922440Y21980126D01*
X40922445Y21980127D01*
X41076788Y22058768D01*
X41216928Y22160586D01*
X41339414Y22283072D01*
X41441232Y22423212D01*
X41519873Y22577555D01*
X41519874Y22577560D01*
X41519876Y22577562D01*
X41573401Y22742294D01*
X41573402Y22742298D01*
X41600500Y22913386D01*
X41600500Y23086615D01*
X41573402Y23257703D01*
X41573401Y23257707D01*
X41519876Y23422439D01*
X41519874Y23422442D01*
X41519873Y23422443D01*
X41519873Y23422445D01*
X41441232Y23576788D01*
X41339414Y23716928D01*
X41216928Y23839414D01*
X41076788Y23941232D01*
X41076787Y23941233D01*
X41076785Y23941234D01*
X40922441Y24019875D01*
X40922438Y24019877D01*
X40757706Y24073402D01*
X40757702Y24073403D01*
X40586614Y24100500D01*
X40586611Y24100500D01*
X40413389Y24100500D01*
X40413386Y24100500D01*
X40242297Y24073403D01*
X40242293Y24073402D01*
X40077561Y24019877D01*
X40077558Y24019875D01*
X39923214Y23941234D01*
X39783073Y23839415D01*
X39660585Y23716927D01*
X39558766Y23576786D01*
X39480125Y23422442D01*
X39480123Y23422439D01*
X39426598Y23257707D01*
X39426597Y23257703D01*
X39399500Y23086615D01*
X38599994Y23086615D01*
X38572915Y23257580D01*
X38519411Y23422249D01*
X38440804Y23576525D01*
X38440800Y23576531D01*
X38436290Y23582738D01*
X38436289Y23582738D01*
X37900000Y23046449D01*
X37900000Y23052661D01*
X37872741Y23154394D01*
X37820080Y23245606D01*
X37745606Y23320080D01*
X37654394Y23372741D01*
X37552661Y23400000D01*
X37546444Y23400000D01*
X38082736Y23936292D01*
X38076524Y23940804D01*
X37922248Y24019412D01*
X37757579Y24072916D01*
X37586575Y24100000D01*
X37413425Y24100000D01*
X37242420Y24072916D01*
X37077751Y24019412D01*
X36923478Y23940806D01*
X36917262Y23936292D01*
X37453554Y23400000D01*
X37447339Y23400000D01*
X37345606Y23372741D01*
X37254394Y23320080D01*
X37179920Y23245606D01*
X37127259Y23154394D01*
X37100000Y23052661D01*
X37100000Y23046446D01*
X36563708Y23582738D01*
X36559194Y23576522D01*
X36480588Y23422249D01*
X36427084Y23257580D01*
X36400000Y23086576D01*
X24828459Y23086576D01*
X24812171Y23189407D01*
X24812171Y23189409D01*
X24756211Y23361639D01*
X24673996Y23522994D01*
X24567553Y23669501D01*
X24439501Y23797553D01*
X24292994Y23903996D01*
X24292993Y23903997D01*
X24292991Y23903998D01*
X24131637Y23986212D01*
X23959406Y24042172D01*
X23780549Y24070500D01*
X23780546Y24070500D01*
X23599454Y24070500D01*
X23599451Y24070500D01*
X23420593Y24042172D01*
X23248362Y23986212D01*
X23087008Y23903998D01*
X23049238Y23876556D01*
X22940499Y23797553D01*
X22812447Y23669501D01*
X22759225Y23596248D01*
X22706002Y23522992D01*
X22623788Y23361638D01*
X22567828Y23189407D01*
X22539500Y23010550D01*
X21220500Y23010550D01*
X21220500Y23086615D01*
X21193402Y23257703D01*
X21193401Y23257707D01*
X21139876Y23422439D01*
X21139874Y23422442D01*
X21139873Y23422443D01*
X21139873Y23422445D01*
X21061232Y23576788D01*
X20959414Y23716928D01*
X20836928Y23839414D01*
X20696788Y23941232D01*
X20696787Y23941233D01*
X20696785Y23941234D01*
X20542441Y24019875D01*
X20542438Y24019877D01*
X20377706Y24073402D01*
X20377702Y24073403D01*
X20206614Y24100500D01*
X20206611Y24100500D01*
X20033389Y24100500D01*
X20033386Y24100500D01*
X19862297Y24073403D01*
X19862293Y24073402D01*
X19697561Y24019877D01*
X19697558Y24019875D01*
X19543214Y23941234D01*
X19403073Y23839415D01*
X19280585Y23716927D01*
X19178766Y23576786D01*
X19100125Y23422442D01*
X19100123Y23422439D01*
X19046598Y23257707D01*
X19046597Y23257703D01*
X19019500Y23086615D01*
X16950500Y23086615D01*
X16950500Y23538690D01*
X16950500Y23538691D01*
X16941696Y23582951D01*
X16915895Y23712666D01*
X16899404Y23752478D01*
X16879497Y23800537D01*
X16879496Y23800538D01*
X16848013Y23876547D01*
X16848011Y23876550D01*
X16848008Y23876556D01*
X16749464Y24024035D01*
X16624035Y24149464D01*
X15929496Y24844004D01*
X15901719Y24898521D01*
X15900500Y24914008D01*
X15900500Y26094485D01*
X16299500Y26094485D01*
X16299500Y25905516D01*
X16329058Y25718887D01*
X16387453Y25539168D01*
X16446927Y25422442D01*
X16473240Y25370801D01*
X16584310Y25217927D01*
X16717927Y25084310D01*
X16870801Y24973240D01*
X17039168Y24887453D01*
X17218882Y24829060D01*
X17218883Y24829060D01*
X17218886Y24829059D01*
X17405516Y24799500D01*
X17405519Y24799500D01*
X17594484Y24799500D01*
X17781113Y24829059D01*
X17781114Y24829060D01*
X17781118Y24829060D01*
X17960832Y24887453D01*
X18129199Y24973240D01*
X18282073Y25084310D01*
X18415690Y25217927D01*
X18526760Y25370801D01*
X18612547Y25539168D01*
X18616245Y25550550D01*
X22539500Y25550550D01*
X22539500Y25369451D01*
X22567828Y25190594D01*
X22623788Y25018363D01*
X22697854Y24873000D01*
X22706004Y24857006D01*
X22812447Y24710499D01*
X22940499Y24582447D01*
X23087006Y24476004D01*
X23248361Y24393789D01*
X23420591Y24337829D01*
X23492136Y24326498D01*
X23599451Y24309500D01*
X23599454Y24309500D01*
X23780549Y24309500D01*
X23869977Y24323665D01*
X23959409Y24337829D01*
X24131639Y24393789D01*
X24292994Y24476004D01*
X24439501Y24582447D01*
X24567553Y24710499D01*
X24673996Y24857006D01*
X24756211Y25018361D01*
X24778388Y25086615D01*
X28399500Y25086615D01*
X28399500Y24913386D01*
X28426597Y24742298D01*
X28426598Y24742294D01*
X28480123Y24577562D01*
X28480125Y24577559D01*
X28556794Y24427085D01*
X28558768Y24423212D01*
X28660586Y24283072D01*
X28783072Y24160586D01*
X28923212Y24058768D01*
X29077555Y23980127D01*
X29077557Y23980127D01*
X29077558Y23980126D01*
X29077561Y23980124D01*
X29242293Y23926599D01*
X29242297Y23926598D01*
X29413386Y23899500D01*
X29413389Y23899500D01*
X29586614Y23899500D01*
X29757702Y23926598D01*
X29757706Y23926599D01*
X29922438Y23980124D01*
X29922440Y23980126D01*
X29922445Y23980127D01*
X30076788Y24058768D01*
X30216928Y24160586D01*
X30339414Y24283072D01*
X30441232Y24423212D01*
X30519873Y24577555D01*
X30519874Y24577560D01*
X30519876Y24577562D01*
X30573401Y24742294D01*
X30573402Y24742298D01*
X30600500Y24913386D01*
X30600500Y25086615D01*
X30899500Y25086615D01*
X30899500Y24913386D01*
X30926597Y24742298D01*
X30926598Y24742294D01*
X30980123Y24577562D01*
X30980125Y24577559D01*
X31056794Y24427085D01*
X31058768Y24423212D01*
X31160586Y24283072D01*
X31283072Y24160586D01*
X31423212Y24058768D01*
X31577555Y23980127D01*
X31577557Y23980127D01*
X31577558Y23980126D01*
X31577561Y23980124D01*
X31742293Y23926599D01*
X31742297Y23926598D01*
X31913386Y23899500D01*
X31913389Y23899500D01*
X32086614Y23899500D01*
X32257702Y23926598D01*
X32257706Y23926599D01*
X32422438Y23980124D01*
X32422440Y23980126D01*
X32422445Y23980127D01*
X32576788Y24058768D01*
X32716928Y24160586D01*
X32839414Y24283072D01*
X32941232Y24423212D01*
X33019873Y24577555D01*
X33019874Y24577560D01*
X33019876Y24577562D01*
X33073401Y24742294D01*
X33073402Y24742298D01*
X33100500Y24913386D01*
X33100500Y25086615D01*
X33399500Y25086615D01*
X33399500Y24913386D01*
X33426597Y24742298D01*
X33426598Y24742294D01*
X33480123Y24577562D01*
X33480125Y24577559D01*
X33556794Y24427085D01*
X33558768Y24423212D01*
X33660586Y24283072D01*
X33783072Y24160586D01*
X33923212Y24058768D01*
X34077555Y23980127D01*
X34077557Y23980127D01*
X34077558Y23980126D01*
X34077561Y23980124D01*
X34242293Y23926599D01*
X34242297Y23926598D01*
X34413386Y23899500D01*
X34413389Y23899500D01*
X34586614Y23899500D01*
X34757702Y23926598D01*
X34757706Y23926599D01*
X34922438Y23980124D01*
X34922447Y23980128D01*
X34935482Y23986769D01*
X34935487Y23986772D01*
X34999547Y24019412D01*
X35076788Y24058768D01*
X35216928Y24160586D01*
X35339414Y24283072D01*
X35441232Y24423212D01*
X35519873Y24577555D01*
X35519874Y24577560D01*
X35519876Y24577562D01*
X35537575Y24632032D01*
X35537575Y24632035D01*
X35563069Y24710499D01*
X35573402Y24742299D01*
X35587144Y24829060D01*
X35600500Y24913386D01*
X35600500Y25086615D01*
X35573402Y25257703D01*
X35573401Y25257707D01*
X35519876Y25422439D01*
X35519874Y25422442D01*
X35519873Y25422443D01*
X35519873Y25422445D01*
X35441232Y25576788D01*
X35339414Y25716928D01*
X35216928Y25839414D01*
X35076788Y25941232D01*
X35076787Y25941233D01*
X35076785Y25941234D01*
X34956952Y26002291D01*
X34922441Y26019875D01*
X34922438Y26019877D01*
X34757706Y26073402D01*
X34757702Y26073403D01*
X34674283Y26086615D01*
X41899500Y26086615D01*
X41899500Y25913386D01*
X41926597Y25742298D01*
X41926598Y25742294D01*
X41980123Y25577562D01*
X41980125Y25577559D01*
X42046474Y25447339D01*
X42058768Y25423212D01*
X42160586Y25283072D01*
X42283072Y25160586D01*
X42423212Y25058768D01*
X42577555Y24980127D01*
X42577557Y24980127D01*
X42577558Y24980126D01*
X42577561Y24980124D01*
X42742293Y24926599D01*
X42742297Y24926598D01*
X42913386Y24899500D01*
X42913389Y24899500D01*
X43086614Y24899500D01*
X43257702Y24926598D01*
X43257706Y24926599D01*
X43422438Y24980124D01*
X43422440Y24980126D01*
X43422445Y24980127D01*
X43576788Y25058768D01*
X43716928Y25160586D01*
X43839414Y25283072D01*
X43941232Y25423212D01*
X44019873Y25577555D01*
X44022804Y25586576D01*
X44900000Y25586576D01*
X44900000Y25413425D01*
X44927084Y25242421D01*
X44980588Y25077752D01*
X45059196Y24923476D01*
X45063708Y24917265D01*
X45600000Y25453557D01*
X45600000Y25447339D01*
X45627259Y25345606D01*
X45679920Y25254394D01*
X45754394Y25179920D01*
X45845606Y25127259D01*
X45947339Y25100000D01*
X45953552Y25100000D01*
X45417262Y24563711D01*
X45417262Y24563710D01*
X45423469Y24559200D01*
X45423475Y24559196D01*
X45577751Y24480589D01*
X45742420Y24427085D01*
X45913425Y24400000D01*
X46086575Y24400000D01*
X46257579Y24427085D01*
X46422248Y24480589D01*
X46576523Y24559196D01*
X46576530Y24559200D01*
X46582736Y24563710D01*
X46046446Y25100000D01*
X46052661Y25100000D01*
X46154394Y25127259D01*
X46245606Y25179920D01*
X46320080Y25254394D01*
X46372741Y25345606D01*
X46400000Y25447339D01*
X46400000Y25453554D01*
X46936290Y24917264D01*
X46940800Y24923470D01*
X46940804Y24923477D01*
X47019411Y25077752D01*
X47072915Y25242421D01*
X47100000Y25413425D01*
X47100000Y25586576D01*
X47072915Y25757580D01*
X47019411Y25922249D01*
X46940804Y26076525D01*
X46940800Y26076531D01*
X46936290Y26082738D01*
X46936289Y26082738D01*
X46400000Y25546449D01*
X46400000Y25552661D01*
X46372741Y25654394D01*
X46320080Y25745606D01*
X46245606Y25820080D01*
X46154394Y25872741D01*
X46052661Y25900000D01*
X46046444Y25900000D01*
X46582736Y26436292D01*
X46576524Y26440804D01*
X46422248Y26519412D01*
X46257579Y26572916D01*
X46086575Y26600000D01*
X45913425Y26600000D01*
X45742420Y26572916D01*
X45577751Y26519412D01*
X45423478Y26440806D01*
X45417262Y26436292D01*
X45953554Y25900000D01*
X45947339Y25900000D01*
X45845606Y25872741D01*
X45754394Y25820080D01*
X45679920Y25745606D01*
X45627259Y25654394D01*
X45600000Y25552661D01*
X45600000Y25546446D01*
X45063708Y26082738D01*
X45059194Y26076522D01*
X44980588Y25922249D01*
X44927084Y25757580D01*
X44900000Y25586576D01*
X44022804Y25586576D01*
X44044840Y25654394D01*
X44073401Y25742294D01*
X44073402Y25742298D01*
X44100500Y25913386D01*
X44100500Y26086615D01*
X44073402Y26257703D01*
X44073401Y26257707D01*
X44037574Y26367967D01*
X44037573Y26367969D01*
X44037573Y26367970D01*
X44019873Y26422445D01*
X43941232Y26576788D01*
X43839414Y26716928D01*
X43716928Y26839414D01*
X43576788Y26941232D01*
X43576787Y26941233D01*
X43576785Y26941234D01*
X43422441Y27019875D01*
X43422438Y27019877D01*
X43257706Y27073402D01*
X43257702Y27073403D01*
X43086614Y27100500D01*
X43086611Y27100500D01*
X42913389Y27100500D01*
X42913386Y27100500D01*
X42742297Y27073403D01*
X42742293Y27073402D01*
X42577561Y27019877D01*
X42577558Y27019875D01*
X42423214Y26941234D01*
X42283073Y26839415D01*
X42160585Y26716927D01*
X42058766Y26576786D01*
X41980125Y26422442D01*
X41980123Y26422439D01*
X41926598Y26257707D01*
X41926597Y26257703D01*
X41899500Y26086615D01*
X34674283Y26086615D01*
X34586614Y26100500D01*
X34586611Y26100500D01*
X34413389Y26100500D01*
X34413386Y26100500D01*
X34242297Y26073403D01*
X34242293Y26073402D01*
X34077561Y26019877D01*
X34077558Y26019875D01*
X33923214Y25941234D01*
X33783073Y25839415D01*
X33660585Y25716927D01*
X33558766Y25576786D01*
X33480125Y25422442D01*
X33480123Y25422439D01*
X33426598Y25257707D01*
X33426597Y25257703D01*
X33399500Y25086615D01*
X33100500Y25086615D01*
X33073402Y25257703D01*
X33073401Y25257707D01*
X33019876Y25422439D01*
X33019874Y25422442D01*
X33019873Y25422443D01*
X33019873Y25422445D01*
X32941232Y25576788D01*
X32839414Y25716928D01*
X32716928Y25839414D01*
X32576788Y25941232D01*
X32576787Y25941233D01*
X32576785Y25941234D01*
X32422441Y26019875D01*
X32422438Y26019877D01*
X32257706Y26073402D01*
X32257702Y26073403D01*
X32086614Y26100500D01*
X32086611Y26100500D01*
X31913389Y26100500D01*
X31913386Y26100500D01*
X31742297Y26073403D01*
X31742293Y26073402D01*
X31577561Y26019877D01*
X31577558Y26019875D01*
X31423214Y25941234D01*
X31283073Y25839415D01*
X31160585Y25716927D01*
X31058766Y25576786D01*
X30980125Y25422442D01*
X30980123Y25422439D01*
X30926598Y25257707D01*
X30926597Y25257703D01*
X30899500Y25086615D01*
X30600500Y25086615D01*
X30573402Y25257703D01*
X30573401Y25257707D01*
X30519876Y25422439D01*
X30519874Y25422442D01*
X30519873Y25422443D01*
X30519873Y25422445D01*
X30441232Y25576788D01*
X30339414Y25716928D01*
X30216928Y25839414D01*
X30076788Y25941232D01*
X30076787Y25941233D01*
X30076785Y25941234D01*
X29922441Y26019875D01*
X29922438Y26019877D01*
X29757706Y26073402D01*
X29757702Y26073403D01*
X29586614Y26100500D01*
X29586611Y26100500D01*
X29413389Y26100500D01*
X29413386Y26100500D01*
X29242297Y26073403D01*
X29242293Y26073402D01*
X29077561Y26019877D01*
X29077558Y26019875D01*
X28923214Y25941234D01*
X28783073Y25839415D01*
X28660585Y25716927D01*
X28558766Y25576786D01*
X28480125Y25422442D01*
X28480123Y25422439D01*
X28426598Y25257707D01*
X28426597Y25257703D01*
X28399500Y25086615D01*
X24778388Y25086615D01*
X24812171Y25190591D01*
X24820380Y25242421D01*
X24840500Y25369451D01*
X24840500Y25550550D01*
X24813838Y25718882D01*
X24812171Y25729409D01*
X24756211Y25901639D01*
X24673996Y26062994D01*
X24567553Y26209501D01*
X24439501Y26337553D01*
X24292994Y26443996D01*
X24292993Y26443997D01*
X24292991Y26443998D01*
X24131637Y26526212D01*
X23959406Y26582172D01*
X23780549Y26610500D01*
X23780546Y26610500D01*
X23599454Y26610500D01*
X23599451Y26610500D01*
X23420593Y26582172D01*
X23248362Y26526212D01*
X23087008Y26443998D01*
X23076402Y26436292D01*
X22940499Y26337553D01*
X22812447Y26209501D01*
X22759225Y26136248D01*
X22706002Y26062992D01*
X22623788Y25901638D01*
X22567828Y25729407D01*
X22539500Y25550550D01*
X18616245Y25550550D01*
X18670940Y25718882D01*
X18672607Y25729407D01*
X18700500Y25905516D01*
X18700500Y26094485D01*
X18670941Y26281114D01*
X18664024Y26302402D01*
X18612547Y26460832D01*
X18526760Y26629199D01*
X18415690Y26782073D01*
X18282073Y26915690D01*
X18129199Y27026760D01*
X18129198Y27026761D01*
X18129196Y27026762D01*
X17960832Y27112547D01*
X17781113Y27170942D01*
X17594484Y27200500D01*
X17594481Y27200500D01*
X17405519Y27200500D01*
X17405516Y27200500D01*
X17218886Y27170942D01*
X17039167Y27112547D01*
X16870803Y27026762D01*
X16717928Y26915691D01*
X16584309Y26782072D01*
X16473238Y26629197D01*
X16387453Y26460833D01*
X16329058Y26281114D01*
X16299500Y26094485D01*
X15900500Y26094485D01*
X15900500Y27588692D01*
X15900499Y27588695D01*
X15899348Y27594481D01*
X15865895Y27762666D01*
X15817633Y27879179D01*
X15804179Y27911660D01*
X15798015Y27926543D01*
X15798009Y27926555D01*
X15699464Y28074035D01*
X15574035Y28199464D01*
X15058095Y28715405D01*
X14991978Y28781522D01*
X22539500Y28781522D01*
X22539500Y27218479D01*
X22539501Y27218477D01*
X22554352Y27124701D01*
X22554354Y27124696D01*
X22611950Y27011658D01*
X22701658Y26921950D01*
X22814696Y26864354D01*
X22908481Y26849500D01*
X24471518Y26849501D01*
X24471521Y26849501D01*
X24471522Y26849502D01*
X24518411Y26856928D01*
X24565299Y26864353D01*
X24565299Y26864354D01*
X24565304Y26864354D01*
X24678342Y26921950D01*
X24768050Y27011658D01*
X24825646Y27124696D01*
X24837652Y27200500D01*
X24840500Y27218479D01*
X24840500Y27594485D01*
X27989500Y27594485D01*
X27989500Y27405516D01*
X28019058Y27218887D01*
X28077453Y27039168D01*
X28156358Y26884306D01*
X28163240Y26870801D01*
X28274310Y26717927D01*
X28407927Y26584310D01*
X28560801Y26473240D01*
X28729168Y26387453D01*
X28908882Y26329060D01*
X28908883Y26329060D01*
X28908886Y26329059D01*
X29095516Y26299500D01*
X29095519Y26299500D01*
X29284484Y26299500D01*
X29471113Y26329059D01*
X29471114Y26329060D01*
X29471118Y26329060D01*
X29650832Y26387453D01*
X29819199Y26473240D01*
X29972073Y26584310D01*
X30105690Y26717927D01*
X30216760Y26870801D01*
X30302547Y27039168D01*
X30360940Y27218882D01*
X30390500Y27405519D01*
X30390500Y27594481D01*
X30390500Y27594485D01*
X30360941Y27781114D01*
X30360940Y27781118D01*
X30302547Y27960832D01*
X30223644Y28115689D01*
X35609500Y28115689D01*
X35609500Y26884312D01*
X35612401Y26847435D01*
X35612401Y26847432D01*
X35612402Y26847431D01*
X35658256Y26689602D01*
X35741919Y26548135D01*
X35858135Y26431919D01*
X35999602Y26348256D01*
X36157431Y26302402D01*
X36194306Y26299500D01*
X36194311Y26299500D01*
X37425689Y26299500D01*
X37425694Y26299500D01*
X37462569Y26302402D01*
X37620398Y26348256D01*
X37761865Y26431919D01*
X37878081Y26548135D01*
X37961744Y26689602D01*
X38007598Y26847431D01*
X38010500Y26884306D01*
X38010500Y28115694D01*
X38007598Y28152569D01*
X37961744Y28310398D01*
X37878081Y28451865D01*
X37761865Y28568081D01*
X37620398Y28651744D01*
X37462569Y28697598D01*
X37462568Y28697599D01*
X37462565Y28697599D01*
X37439140Y28699442D01*
X37425694Y28700500D01*
X36194306Y28700500D01*
X36181773Y28699514D01*
X36157434Y28697599D01*
X36157427Y28697597D01*
X35999602Y28651744D01*
X35858136Y28568082D01*
X35741918Y28451864D01*
X35658256Y28310398D01*
X35612403Y28152573D01*
X35612401Y28152566D01*
X35610563Y28129199D01*
X35609720Y28118481D01*
X35609500Y28115689D01*
X30223644Y28115689D01*
X30216760Y28129199D01*
X30105690Y28282073D01*
X29972073Y28415690D01*
X29819199Y28526760D01*
X29819198Y28526761D01*
X29819196Y28526762D01*
X29650832Y28612547D01*
X29471113Y28670942D01*
X29284484Y28700500D01*
X29284481Y28700500D01*
X29095519Y28700500D01*
X29095516Y28700500D01*
X28908886Y28670942D01*
X28729167Y28612547D01*
X28560803Y28526762D01*
X28407928Y28415691D01*
X28274309Y28282072D01*
X28163238Y28129197D01*
X28077453Y27960833D01*
X28019058Y27781114D01*
X27989500Y27594485D01*
X24840500Y27594485D01*
X24840500Y27598371D01*
X24840499Y28781522D01*
X24840498Y28781524D01*
X24825647Y28875300D01*
X24825646Y28875302D01*
X24825646Y28875304D01*
X24768050Y28988342D01*
X24678342Y29078050D01*
X24638362Y29098421D01*
X38709500Y29098421D01*
X38709500Y28901580D01*
X38740289Y28707179D01*
X38801116Y28519975D01*
X38890473Y28344599D01*
X38890476Y28344595D01*
X39006172Y28185354D01*
X39145354Y28046172D01*
X39304595Y27930476D01*
X39479975Y27841116D01*
X39667174Y27780291D01*
X39667175Y27780291D01*
X39667178Y27780290D01*
X39861580Y27749500D01*
X39861583Y27749500D01*
X40058420Y27749500D01*
X40252821Y27780290D01*
X40252822Y27780291D01*
X40252826Y27780291D01*
X40440025Y27841116D01*
X40615405Y27930476D01*
X40774646Y28046172D01*
X40913828Y28185354D01*
X41029524Y28344595D01*
X41118884Y28519975D01*
X41135845Y28572177D01*
X41171809Y28621676D01*
X41230000Y28640583D01*
X41288191Y28621676D01*
X41324154Y28572177D01*
X41338911Y28526762D01*
X41341116Y28519975D01*
X41430473Y28344599D01*
X41430476Y28344595D01*
X41546172Y28185354D01*
X41685354Y28046172D01*
X41844595Y27930476D01*
X42019975Y27841116D01*
X42207174Y27780291D01*
X42207175Y27780291D01*
X42207178Y27780290D01*
X42401580Y27749500D01*
X42401583Y27749500D01*
X42598420Y27749500D01*
X42792821Y27780290D01*
X42792822Y27780291D01*
X42792826Y27780291D01*
X42980025Y27841116D01*
X43155405Y27930476D01*
X43314646Y28046172D01*
X43453828Y28185354D01*
X43569524Y28344595D01*
X43602290Y28408904D01*
X43645554Y28452168D01*
X43705986Y28461740D01*
X43760503Y28433963D01*
X43788281Y28379447D01*
X43789500Y28363959D01*
X43789500Y28118479D01*
X43789501Y28118477D01*
X43804352Y28024701D01*
X43804354Y28024696D01*
X43861950Y27911658D01*
X43951658Y27821950D01*
X44064696Y27764354D01*
X44158481Y27749500D01*
X45921518Y27749501D01*
X45921521Y27749501D01*
X45921522Y27749502D01*
X45968411Y27756928D01*
X46015299Y27764353D01*
X46015299Y27764354D01*
X46015304Y27764354D01*
X46128342Y27821950D01*
X46218050Y27911658D01*
X46275646Y28024696D01*
X46290500Y28118481D01*
X46290499Y29881518D01*
X46290499Y29881519D01*
X46290499Y29881522D01*
X46290498Y29881524D01*
X46275647Y29975300D01*
X46275646Y29975302D01*
X46275646Y29975304D01*
X46218050Y30088342D01*
X46128342Y30178050D01*
X46015304Y30235646D01*
X46015305Y30235646D01*
X45921521Y30250500D01*
X44158478Y30250500D01*
X44158476Y30250499D01*
X44064700Y30235648D01*
X44064695Y30235646D01*
X43951659Y30178051D01*
X43861949Y30088341D01*
X43804354Y29975305D01*
X43789500Y29881522D01*
X43789500Y29636043D01*
X43770593Y29577852D01*
X43721093Y29541888D01*
X43659907Y29541888D01*
X43610407Y29577852D01*
X43602290Y29591098D01*
X43569525Y29655403D01*
X43569524Y29655405D01*
X43453828Y29814646D01*
X43314646Y29953828D01*
X43155405Y30069524D01*
X43155404Y30069525D01*
X43155402Y30069526D01*
X42980025Y30158884D01*
X42792821Y30219711D01*
X42598420Y30250500D01*
X42598417Y30250500D01*
X42401583Y30250500D01*
X42401580Y30250500D01*
X42207178Y30219711D01*
X42019974Y30158884D01*
X41844597Y30069526D01*
X41685355Y29953829D01*
X41546171Y29814645D01*
X41430474Y29655403D01*
X41341114Y29480022D01*
X41341112Y29480019D01*
X41324154Y29427825D01*
X41288190Y29378325D01*
X41229999Y29359418D01*
X41171809Y29378326D01*
X41135846Y29427825D01*
X41118887Y29480019D01*
X41118885Y29480022D01*
X41118884Y29480023D01*
X41118884Y29480025D01*
X41029524Y29655405D01*
X40913828Y29814646D01*
X40774646Y29953828D01*
X40615405Y30069524D01*
X40615404Y30069525D01*
X40615402Y30069526D01*
X40440025Y30158884D01*
X40252821Y30219711D01*
X40058420Y30250500D01*
X40058417Y30250500D01*
X39861583Y30250500D01*
X39861580Y30250500D01*
X39667178Y30219711D01*
X39479974Y30158884D01*
X39304597Y30069526D01*
X39145355Y29953829D01*
X39006171Y29814645D01*
X38890474Y29655403D01*
X38801116Y29480026D01*
X38740289Y29292822D01*
X38709500Y29098421D01*
X24638362Y29098421D01*
X24565304Y29135646D01*
X24565305Y29135646D01*
X24471521Y29150500D01*
X22908478Y29150500D01*
X22908476Y29150499D01*
X22814700Y29135648D01*
X22814695Y29135646D01*
X22701659Y29078051D01*
X22611949Y28988341D01*
X22554354Y28875305D01*
X22539500Y28781522D01*
X14991978Y28781522D01*
X14879496Y28894004D01*
X14851719Y28948521D01*
X14850500Y28964008D01*
X14850500Y30586615D01*
X16899500Y30586615D01*
X16899500Y30413386D01*
X16926597Y30242298D01*
X16926598Y30242294D01*
X16980123Y30077562D01*
X16980125Y30077559D01*
X17043168Y29953828D01*
X17058768Y29923212D01*
X17160586Y29783072D01*
X17283072Y29660586D01*
X17423212Y29558768D01*
X17577555Y29480127D01*
X17577557Y29480127D01*
X17577558Y29480126D01*
X17577561Y29480124D01*
X17742293Y29426599D01*
X17742297Y29426598D01*
X17913386Y29399500D01*
X17913389Y29399500D01*
X18086614Y29399500D01*
X18257702Y29426598D01*
X18257706Y29426599D01*
X18422438Y29480124D01*
X18422440Y29480126D01*
X18422445Y29480127D01*
X18576788Y29558768D01*
X18716928Y29660586D01*
X18839414Y29783072D01*
X18941232Y29923212D01*
X19019873Y30077555D01*
X19019874Y30077560D01*
X19019876Y30077562D01*
X19073401Y30242294D01*
X19073402Y30242298D01*
X19100500Y30413386D01*
X19100500Y30586615D01*
X24519500Y30586615D01*
X24519500Y30413386D01*
X24546597Y30242298D01*
X24546598Y30242294D01*
X24600123Y30077562D01*
X24600125Y30077559D01*
X24663168Y29953828D01*
X24678768Y29923212D01*
X24780586Y29783072D01*
X24903072Y29660586D01*
X25043212Y29558768D01*
X25197555Y29480127D01*
X25197557Y29480127D01*
X25197558Y29480126D01*
X25197561Y29480124D01*
X25362293Y29426599D01*
X25362297Y29426598D01*
X25533386Y29399500D01*
X25533389Y29399500D01*
X25706614Y29399500D01*
X25877702Y29426598D01*
X25877706Y29426599D01*
X26042438Y29480124D01*
X26042440Y29480126D01*
X26042445Y29480127D01*
X26196788Y29558768D01*
X26336928Y29660586D01*
X26459414Y29783072D01*
X26561232Y29923212D01*
X26639873Y30077555D01*
X26639874Y30077560D01*
X26639876Y30077562D01*
X26693401Y30242294D01*
X26693402Y30242298D01*
X26720500Y30413386D01*
X26720500Y30586616D01*
X26719254Y30594485D01*
X27299500Y30594485D01*
X27299500Y30405516D01*
X27329058Y30218887D01*
X27387453Y30039168D01*
X27467778Y29881519D01*
X27473240Y29870801D01*
X27584310Y29717927D01*
X27717927Y29584310D01*
X27870801Y29473240D01*
X28039168Y29387453D01*
X28218882Y29329060D01*
X28218883Y29329060D01*
X28218886Y29329059D01*
X28405516Y29299500D01*
X28405519Y29299500D01*
X28594484Y29299500D01*
X28781113Y29329059D01*
X28781114Y29329060D01*
X28781118Y29329060D01*
X28960832Y29387453D01*
X29129199Y29473240D01*
X29282073Y29584310D01*
X29415690Y29717927D01*
X29526760Y29870801D01*
X29612547Y30039168D01*
X29670940Y30218882D01*
X29671071Y30219709D01*
X29700500Y30405516D01*
X29700500Y30510550D01*
X31349500Y30510550D01*
X31349500Y30329451D01*
X31377828Y30150594D01*
X31398054Y30088342D01*
X31433789Y29978361D01*
X31516004Y29817006D01*
X31622447Y29670499D01*
X31750499Y29542447D01*
X31897006Y29436004D01*
X32058361Y29353789D01*
X32230591Y29297829D01*
X32302136Y29286498D01*
X32409451Y29269500D01*
X32409454Y29269500D01*
X32590549Y29269500D01*
X32679977Y29283665D01*
X32769409Y29297829D01*
X32941639Y29353789D01*
X33102994Y29436004D01*
X33249501Y29542447D01*
X33377553Y29670499D01*
X33483996Y29817006D01*
X33566211Y29978361D01*
X33622171Y30150591D01*
X33650500Y30329454D01*
X33650500Y30510546D01*
X33650500Y30510550D01*
X33622171Y30689407D01*
X33622171Y30689409D01*
X33566211Y30861639D01*
X33483996Y31022994D01*
X33377553Y31169501D01*
X33249501Y31297553D01*
X33102994Y31403996D01*
X33102993Y31403997D01*
X33102991Y31403998D01*
X32941637Y31486212D01*
X32769406Y31542172D01*
X32590549Y31570500D01*
X32590546Y31570500D01*
X32409454Y31570500D01*
X32409451Y31570500D01*
X32230593Y31542172D01*
X32058362Y31486212D01*
X31897008Y31403998D01*
X31874236Y31387453D01*
X31750499Y31297553D01*
X31622447Y31169501D01*
X31593166Y31129199D01*
X31516002Y31022992D01*
X31433788Y30861638D01*
X31377828Y30689407D01*
X31349500Y30510550D01*
X29700500Y30510550D01*
X29700500Y30594485D01*
X29670941Y30781114D01*
X29644777Y30861639D01*
X29612547Y30960832D01*
X29526760Y31129199D01*
X29415690Y31282073D01*
X29282073Y31415690D01*
X29129199Y31526760D01*
X29129198Y31526761D01*
X29129196Y31526762D01*
X28960832Y31612547D01*
X28781113Y31670942D01*
X28594484Y31700500D01*
X28594481Y31700500D01*
X28405519Y31700500D01*
X28405516Y31700500D01*
X28218886Y31670942D01*
X28039167Y31612547D01*
X27870803Y31526762D01*
X27717928Y31415691D01*
X27584309Y31282072D01*
X27473238Y31129197D01*
X27387453Y30960833D01*
X27329058Y30781114D01*
X27299500Y30594485D01*
X26719254Y30594485D01*
X26693402Y30757703D01*
X26693401Y30757707D01*
X26639876Y30922439D01*
X26639874Y30922442D01*
X26639873Y30922443D01*
X26639873Y30922445D01*
X26561232Y31076788D01*
X26459414Y31216928D01*
X26336928Y31339414D01*
X26196788Y31441232D01*
X26196787Y31441233D01*
X26196785Y31441234D01*
X26042441Y31519875D01*
X26042438Y31519877D01*
X25877706Y31573402D01*
X25877702Y31573403D01*
X25706614Y31600500D01*
X25706611Y31600500D01*
X25533389Y31600500D01*
X25533386Y31600500D01*
X25362297Y31573403D01*
X25362293Y31573402D01*
X25197561Y31519877D01*
X25197558Y31519875D01*
X25043214Y31441234D01*
X24903073Y31339415D01*
X24780585Y31216927D01*
X24678766Y31076786D01*
X24600125Y30922442D01*
X24600123Y30922439D01*
X24546598Y30757707D01*
X24546597Y30757703D01*
X24519500Y30586615D01*
X19100500Y30586615D01*
X19073402Y30757703D01*
X19073401Y30757707D01*
X19019876Y30922439D01*
X19019874Y30922442D01*
X19019873Y30922443D01*
X19019873Y30922445D01*
X18941232Y31076788D01*
X18839414Y31216928D01*
X18716928Y31339414D01*
X18576788Y31441232D01*
X18576787Y31441233D01*
X18576785Y31441234D01*
X18422441Y31519875D01*
X18422438Y31519877D01*
X18257706Y31573402D01*
X18257702Y31573403D01*
X18086614Y31600500D01*
X18086611Y31600500D01*
X17913389Y31600500D01*
X17913386Y31600500D01*
X17742297Y31573403D01*
X17742293Y31573402D01*
X17577561Y31519877D01*
X17577558Y31519875D01*
X17423214Y31441234D01*
X17283073Y31339415D01*
X17160585Y31216927D01*
X17058766Y31076786D01*
X16980125Y30922442D01*
X16980123Y30922439D01*
X16926598Y30757707D01*
X16926597Y30757703D01*
X16899500Y30586615D01*
X14850500Y30586615D01*
X14850500Y31180476D01*
X14858037Y31218363D01*
X14865892Y31237326D01*
X14865892Y31237329D01*
X14865895Y31237334D01*
X14900500Y31411309D01*
X14900500Y31588692D01*
X14865895Y31762666D01*
X14798013Y31926547D01*
X14798011Y31926549D01*
X14798009Y31926555D01*
X14741479Y32011156D01*
X14699464Y32074036D01*
X14574036Y32199464D01*
X14532019Y32227539D01*
X14426554Y32298010D01*
X14426545Y32298014D01*
X14262664Y32365896D01*
X14088694Y32400500D01*
X14088692Y32400500D01*
X13911309Y32400500D01*
X13911306Y32400500D01*
X13737335Y32365896D01*
X13573454Y32298014D01*
X13425963Y32199463D01*
X13250540Y32024042D01*
X13250532Y32024032D01*
X13229011Y31991824D01*
X13228995Y31991799D01*
X13227601Y31989711D01*
X13151987Y31876547D01*
X13136027Y31838015D01*
X13133272Y31831366D01*
X13133270Y31831361D01*
X13084106Y31712670D01*
X13084104Y31712664D01*
X13058726Y31585079D01*
X13058715Y31585020D01*
X13058574Y31584310D01*
X13049500Y31538691D01*
X500500Y31538691D01*
X500500Y33086615D01*
X16899500Y33086615D01*
X16899500Y32913386D01*
X16926597Y32742298D01*
X16926598Y32742294D01*
X16980123Y32577562D01*
X16980125Y32577559D01*
X17010287Y32518361D01*
X17058768Y32423212D01*
X17160586Y32283072D01*
X17283072Y32160586D01*
X17423212Y32058768D01*
X17577555Y31980127D01*
X17577557Y31980127D01*
X17577558Y31980126D01*
X17577561Y31980124D01*
X17742293Y31926599D01*
X17742297Y31926598D01*
X17913386Y31899500D01*
X17913389Y31899500D01*
X18086614Y31899500D01*
X18257702Y31926598D01*
X18257706Y31926599D01*
X18422438Y31980124D01*
X18422440Y31980126D01*
X18422445Y31980127D01*
X18576788Y32058768D01*
X18716928Y32160586D01*
X18839414Y32283072D01*
X18941232Y32423212D01*
X19019873Y32577555D01*
X19019874Y32577560D01*
X19019876Y32577562D01*
X19073401Y32742294D01*
X19073402Y32742298D01*
X19100500Y32913386D01*
X19100500Y33086615D01*
X24519500Y33086615D01*
X24519500Y32913386D01*
X24546597Y32742298D01*
X24546598Y32742294D01*
X24600123Y32577562D01*
X24600125Y32577559D01*
X24630287Y32518361D01*
X24678768Y32423212D01*
X24780586Y32283072D01*
X24903072Y32160586D01*
X25043212Y32058768D01*
X25197555Y31980127D01*
X25197557Y31980127D01*
X25197558Y31980126D01*
X25197561Y31980124D01*
X25362293Y31926599D01*
X25362297Y31926598D01*
X25533386Y31899500D01*
X25533389Y31899500D01*
X25706614Y31899500D01*
X25877702Y31926598D01*
X25877706Y31926599D01*
X26042438Y31980124D01*
X26042440Y31980126D01*
X26042445Y31980127D01*
X26196788Y32058768D01*
X26336928Y32160586D01*
X26459414Y32283072D01*
X26561232Y32423212D01*
X26639873Y32577555D01*
X26639874Y32577560D01*
X26639876Y32577562D01*
X26693401Y32742294D01*
X26693402Y32742298D01*
X26720500Y32913386D01*
X26720500Y33050550D01*
X31349500Y33050550D01*
X31349500Y32869451D01*
X31377828Y32690594D01*
X31433788Y32518363D01*
X31511474Y32365895D01*
X31516004Y32357006D01*
X31622447Y32210499D01*
X31750499Y32082447D01*
X31897006Y31976004D01*
X32058361Y31893789D01*
X32230591Y31837829D01*
X32271429Y31831361D01*
X32409451Y31809500D01*
X32409454Y31809500D01*
X32590549Y31809500D01*
X32679977Y31823665D01*
X32769409Y31837829D01*
X32941639Y31893789D01*
X33102994Y31976004D01*
X33249501Y32082447D01*
X33377553Y32210499D01*
X33483996Y32357006D01*
X33566211Y32518361D01*
X33590945Y32594485D01*
X35799500Y32594485D01*
X35799500Y32405516D01*
X35829058Y32218887D01*
X35887453Y32039168D01*
X35944836Y31926546D01*
X35973240Y31870801D01*
X36084310Y31717927D01*
X36217927Y31584310D01*
X36370801Y31473240D01*
X36539168Y31387453D01*
X36718882Y31329060D01*
X36718883Y31329060D01*
X36718886Y31329059D01*
X36905516Y31299500D01*
X36905519Y31299500D01*
X37094484Y31299500D01*
X37281113Y31329059D01*
X37281114Y31329060D01*
X37281118Y31329060D01*
X37460832Y31387453D01*
X37629199Y31473240D01*
X37782073Y31584310D01*
X37915690Y31717927D01*
X38026760Y31870801D01*
X38112547Y32039168D01*
X38170940Y32218882D01*
X38181107Y32283074D01*
X38200500Y32405516D01*
X38200500Y32594485D01*
X40799500Y32594485D01*
X40799500Y32405516D01*
X40829058Y32218887D01*
X40887453Y32039168D01*
X40944836Y31926546D01*
X40973240Y31870801D01*
X41084310Y31717927D01*
X41217927Y31584310D01*
X41370801Y31473240D01*
X41539168Y31387453D01*
X41718882Y31329060D01*
X41718883Y31329060D01*
X41718886Y31329059D01*
X41905516Y31299500D01*
X41905519Y31299500D01*
X42094484Y31299500D01*
X42281113Y31329059D01*
X42281114Y31329060D01*
X42281118Y31329060D01*
X42460832Y31387453D01*
X42629199Y31473240D01*
X42782073Y31584310D01*
X42915690Y31717927D01*
X43026760Y31870801D01*
X43112547Y32039168D01*
X43170940Y32218882D01*
X43181107Y32283074D01*
X43200500Y32405516D01*
X43200500Y32594485D01*
X45799500Y32594485D01*
X45799500Y32405516D01*
X45829058Y32218887D01*
X45887453Y32039168D01*
X45944836Y31926546D01*
X45973240Y31870801D01*
X46084310Y31717927D01*
X46217927Y31584310D01*
X46370801Y31473240D01*
X46539168Y31387453D01*
X46718882Y31329060D01*
X46718883Y31329060D01*
X46718886Y31329059D01*
X46905516Y31299500D01*
X46905519Y31299500D01*
X47094484Y31299500D01*
X47281113Y31329059D01*
X47281114Y31329060D01*
X47281118Y31329060D01*
X47460832Y31387453D01*
X47629199Y31473240D01*
X47782073Y31584310D01*
X47915690Y31717927D01*
X48026760Y31870801D01*
X48112547Y32039168D01*
X48170940Y32218882D01*
X48181107Y32283074D01*
X48200500Y32405516D01*
X48200500Y32594485D01*
X48170941Y32781114D01*
X48170940Y32781118D01*
X48112547Y32960832D01*
X48026760Y33129199D01*
X47915690Y33282073D01*
X47782073Y33415690D01*
X47629199Y33526760D01*
X47629198Y33526761D01*
X47629196Y33526762D01*
X47460832Y33612547D01*
X47281113Y33670942D01*
X47094484Y33700500D01*
X47094481Y33700500D01*
X46905519Y33700500D01*
X46905516Y33700500D01*
X46718886Y33670942D01*
X46539167Y33612547D01*
X46370803Y33526762D01*
X46217928Y33415691D01*
X46084309Y33282072D01*
X45973238Y33129197D01*
X45887453Y32960833D01*
X45829058Y32781114D01*
X45799500Y32594485D01*
X43200500Y32594485D01*
X43170941Y32781114D01*
X43170940Y32781118D01*
X43112547Y32960832D01*
X43026760Y33129199D01*
X42915690Y33282073D01*
X42782073Y33415690D01*
X42629199Y33526760D01*
X42629198Y33526761D01*
X42629196Y33526762D01*
X42460832Y33612547D01*
X42281113Y33670942D01*
X42094484Y33700500D01*
X42094481Y33700500D01*
X41905519Y33700500D01*
X41905516Y33700500D01*
X41718886Y33670942D01*
X41539167Y33612547D01*
X41370803Y33526762D01*
X41217928Y33415691D01*
X41084309Y33282072D01*
X40973238Y33129197D01*
X40887453Y32960833D01*
X40829058Y32781114D01*
X40799500Y32594485D01*
X38200500Y32594485D01*
X38170941Y32781114D01*
X38170940Y32781118D01*
X38112547Y32960832D01*
X38026760Y33129199D01*
X37915690Y33282073D01*
X37782073Y33415690D01*
X37629199Y33526760D01*
X37629198Y33526761D01*
X37629196Y33526762D01*
X37460832Y33612547D01*
X37281113Y33670942D01*
X37094484Y33700500D01*
X37094481Y33700500D01*
X36905519Y33700500D01*
X36905516Y33700500D01*
X36718886Y33670942D01*
X36539167Y33612547D01*
X36370803Y33526762D01*
X36217928Y33415691D01*
X36084309Y33282072D01*
X35973238Y33129197D01*
X35887453Y32960833D01*
X35829058Y32781114D01*
X35799500Y32594485D01*
X33590945Y32594485D01*
X33622171Y32690591D01*
X33630361Y32742299D01*
X33650500Y32869451D01*
X33650500Y33050550D01*
X33622171Y33229407D01*
X33622171Y33229409D01*
X33566211Y33401639D01*
X33483996Y33562994D01*
X33377553Y33709501D01*
X33249501Y33837553D01*
X33102994Y33943996D01*
X33102993Y33943997D01*
X33102991Y33943998D01*
X32941637Y34026212D01*
X32769406Y34082172D01*
X32590549Y34110500D01*
X32590546Y34110500D01*
X32409454Y34110500D01*
X32409451Y34110500D01*
X32230593Y34082172D01*
X32058362Y34026212D01*
X31897008Y33943998D01*
X31823752Y33890775D01*
X31750499Y33837553D01*
X31622447Y33709501D01*
X31594431Y33670940D01*
X31516002Y33562992D01*
X31433788Y33401638D01*
X31377828Y33229407D01*
X31349500Y33050550D01*
X26720500Y33050550D01*
X26720500Y33086615D01*
X26693402Y33257703D01*
X26693401Y33257707D01*
X26639876Y33422439D01*
X26639874Y33422442D01*
X26639873Y33422443D01*
X26639873Y33422445D01*
X26561232Y33576788D01*
X26459414Y33716928D01*
X26336928Y33839414D01*
X26196788Y33941232D01*
X26196787Y33941233D01*
X26196785Y33941234D01*
X26042441Y34019875D01*
X26042438Y34019877D01*
X25877706Y34073402D01*
X25877702Y34073403D01*
X25706614Y34100500D01*
X25706611Y34100500D01*
X25533389Y34100500D01*
X25533386Y34100500D01*
X25362297Y34073403D01*
X25362293Y34073402D01*
X25197561Y34019877D01*
X25197558Y34019875D01*
X25043214Y33941234D01*
X24903073Y33839415D01*
X24780585Y33716927D01*
X24678766Y33576786D01*
X24600125Y33422442D01*
X24600123Y33422439D01*
X24546598Y33257707D01*
X24546597Y33257703D01*
X24519500Y33086615D01*
X19100500Y33086615D01*
X19073402Y33257703D01*
X19073401Y33257707D01*
X19019876Y33422439D01*
X19019874Y33422442D01*
X19019873Y33422443D01*
X19019873Y33422445D01*
X18941232Y33576788D01*
X18839414Y33716928D01*
X18716928Y33839414D01*
X18576788Y33941232D01*
X18576787Y33941233D01*
X18576785Y33941234D01*
X18422441Y34019875D01*
X18422438Y34019877D01*
X18257706Y34073402D01*
X18257702Y34073403D01*
X18086614Y34100500D01*
X18086611Y34100500D01*
X17913389Y34100500D01*
X17913386Y34100500D01*
X17742297Y34073403D01*
X17742293Y34073402D01*
X17577561Y34019877D01*
X17577558Y34019875D01*
X17423214Y33941234D01*
X17283073Y33839415D01*
X17160585Y33716927D01*
X17058766Y33576786D01*
X16980125Y33422442D01*
X16980123Y33422439D01*
X16926598Y33257707D01*
X16926597Y33257703D01*
X16899500Y33086615D01*
X500500Y33086615D01*
X500500Y35594485D01*
X27299500Y35594485D01*
X27299500Y35405516D01*
X27329058Y35218887D01*
X27387453Y35039168D01*
X27446533Y34923215D01*
X27473240Y34870801D01*
X27584310Y34717927D01*
X27717927Y34584310D01*
X27870801Y34473240D01*
X28039168Y34387453D01*
X28218882Y34329060D01*
X28218883Y34329060D01*
X28218886Y34329059D01*
X28405516Y34299500D01*
X28405519Y34299500D01*
X28594484Y34299500D01*
X28781113Y34329059D01*
X28781114Y34329060D01*
X28781118Y34329060D01*
X28960832Y34387453D01*
X29129199Y34473240D01*
X29282073Y34584310D01*
X29415690Y34717927D01*
X29526760Y34870801D01*
X29612547Y35039168D01*
X29670940Y35218882D01*
X29700500Y35405519D01*
X29700500Y35594481D01*
X29700500Y35594485D01*
X29670941Y35781114D01*
X29670940Y35781118D01*
X29612547Y35960832D01*
X29526760Y36129199D01*
X29416090Y36281522D01*
X31349500Y36281522D01*
X31349500Y34718479D01*
X31349501Y34718477D01*
X31364352Y34624701D01*
X31364354Y34624696D01*
X31421950Y34511658D01*
X31511658Y34421950D01*
X31624696Y34364354D01*
X31718481Y34349500D01*
X33281518Y34349501D01*
X33281521Y34349501D01*
X33281522Y34349502D01*
X33328411Y34356928D01*
X33375299Y34364353D01*
X33375299Y34364354D01*
X33375304Y34364354D01*
X33488342Y34421950D01*
X33578050Y34511658D01*
X33635646Y34624696D01*
X33650500Y34718481D01*
X33650499Y35586615D01*
X35279500Y35586615D01*
X35279500Y35413386D01*
X35306597Y35242298D01*
X35306598Y35242294D01*
X35360123Y35077562D01*
X35360125Y35077559D01*
X35360126Y35077556D01*
X35360127Y35077555D01*
X35438768Y34923212D01*
X35540586Y34783072D01*
X35663072Y34660586D01*
X35803212Y34558768D01*
X35957555Y34480127D01*
X35957557Y34480127D01*
X35957558Y34480126D01*
X35957561Y34480124D01*
X36122293Y34426599D01*
X36122297Y34426598D01*
X36293386Y34399500D01*
X36293389Y34399500D01*
X36466614Y34399500D01*
X36637702Y34426598D01*
X36637706Y34426599D01*
X36802438Y34480124D01*
X36802440Y34480126D01*
X36802445Y34480127D01*
X36956788Y34558768D01*
X37096928Y34660586D01*
X37219414Y34783072D01*
X37321232Y34923212D01*
X37399873Y35077555D01*
X37399874Y35077560D01*
X37399876Y35077562D01*
X37453401Y35242294D01*
X37453402Y35242298D01*
X37480500Y35413386D01*
X37480500Y35586615D01*
X42899500Y35586615D01*
X42899500Y35413386D01*
X42926597Y35242298D01*
X42926598Y35242294D01*
X42980123Y35077562D01*
X42980125Y35077559D01*
X42980126Y35077556D01*
X42980127Y35077555D01*
X43058768Y34923212D01*
X43160586Y34783072D01*
X43283072Y34660586D01*
X43423212Y34558768D01*
X43577555Y34480127D01*
X43577557Y34480127D01*
X43577558Y34480126D01*
X43577561Y34480124D01*
X43742293Y34426599D01*
X43742297Y34426598D01*
X43913386Y34399500D01*
X43913389Y34399500D01*
X44086614Y34399500D01*
X44257702Y34426598D01*
X44257706Y34426599D01*
X44422438Y34480124D01*
X44422440Y34480126D01*
X44422445Y34480127D01*
X44576788Y34558768D01*
X44716928Y34660586D01*
X44839414Y34783072D01*
X44941232Y34923212D01*
X45019873Y35077555D01*
X45019874Y35077560D01*
X45019876Y35077562D01*
X45073401Y35242294D01*
X45073402Y35242298D01*
X45100500Y35413386D01*
X45100500Y35586615D01*
X45073402Y35757703D01*
X45073401Y35757707D01*
X45019876Y35922439D01*
X45019874Y35922442D01*
X45019873Y35922443D01*
X45019873Y35922445D01*
X44941232Y36076788D01*
X44839414Y36216928D01*
X44716928Y36339414D01*
X44576788Y36441232D01*
X44576787Y36441233D01*
X44576785Y36441234D01*
X44435479Y36513232D01*
X44435477Y36513234D01*
X44422447Y36519873D01*
X44422438Y36519877D01*
X44257706Y36573402D01*
X44257702Y36573403D01*
X44086614Y36600500D01*
X44086611Y36600500D01*
X43913389Y36600500D01*
X43913386Y36600500D01*
X43742297Y36573403D01*
X43742293Y36573402D01*
X43577561Y36519877D01*
X43577558Y36519875D01*
X43423214Y36441234D01*
X43283073Y36339415D01*
X43160585Y36216927D01*
X43058766Y36076786D01*
X42980125Y35922442D01*
X42980123Y35922439D01*
X42926598Y35757707D01*
X42926597Y35757703D01*
X42899500Y35586615D01*
X37480500Y35586615D01*
X37453402Y35757703D01*
X37453401Y35757707D01*
X37399876Y35922439D01*
X37399874Y35922442D01*
X37399873Y35922443D01*
X37399873Y35922445D01*
X37321232Y36076788D01*
X37219414Y36216928D01*
X37096928Y36339414D01*
X36956788Y36441232D01*
X36956787Y36441233D01*
X36956785Y36441234D01*
X36802441Y36519875D01*
X36802438Y36519877D01*
X36637706Y36573402D01*
X36637702Y36573403D01*
X36466614Y36600500D01*
X36466611Y36600500D01*
X36293389Y36600500D01*
X36293386Y36600500D01*
X36122297Y36573403D01*
X36122293Y36573402D01*
X35957561Y36519877D01*
X35957558Y36519875D01*
X35803214Y36441234D01*
X35663073Y36339415D01*
X35540585Y36216927D01*
X35438766Y36076786D01*
X35360125Y35922442D01*
X35360123Y35922439D01*
X35306598Y35757707D01*
X35306597Y35757703D01*
X35279500Y35586615D01*
X33650499Y35586615D01*
X33650499Y36281518D01*
X33650499Y36281519D01*
X33650499Y36281522D01*
X33650498Y36281524D01*
X33635647Y36375300D01*
X33635646Y36375302D01*
X33635646Y36375304D01*
X33578050Y36488342D01*
X33488342Y36578050D01*
X33375304Y36635646D01*
X33375305Y36635646D01*
X33281521Y36650500D01*
X31718478Y36650500D01*
X31718476Y36650499D01*
X31624700Y36635648D01*
X31624695Y36635646D01*
X31511659Y36578051D01*
X31421949Y36488341D01*
X31364354Y36375305D01*
X31349500Y36281522D01*
X29416090Y36281522D01*
X29415690Y36282073D01*
X29282073Y36415690D01*
X29129199Y36526760D01*
X29129198Y36526761D01*
X29129196Y36526762D01*
X28960832Y36612547D01*
X28781113Y36670942D01*
X28594484Y36700500D01*
X28594481Y36700500D01*
X28405519Y36700500D01*
X28405516Y36700500D01*
X28218886Y36670942D01*
X28039167Y36612547D01*
X27870803Y36526762D01*
X27717928Y36415691D01*
X27584309Y36282072D01*
X27473238Y36129197D01*
X27387453Y35960833D01*
X27329058Y35781114D01*
X27299500Y35594485D01*
X500500Y35594485D01*
X500500Y38755690D01*
X1999500Y38755690D01*
X1999500Y36924311D01*
X2002402Y36887431D01*
X2002403Y36887426D01*
X2048256Y36729600D01*
X2048257Y36729598D01*
X2131916Y36588139D01*
X2131917Y36588138D01*
X2131919Y36588135D01*
X2248135Y36471919D01*
X2248137Y36471918D01*
X2248138Y36471917D01*
X2389597Y36388258D01*
X2389598Y36388258D01*
X2389601Y36388256D01*
X2547430Y36342402D01*
X2584305Y36339500D01*
X4415694Y36339501D01*
X4452570Y36342402D01*
X4610399Y36388256D01*
X4751865Y36471919D01*
X4868081Y36588135D01*
X4951744Y36729601D01*
X4997598Y36887430D01*
X5000500Y36924305D01*
X5000499Y37466615D01*
X5399500Y37466615D01*
X5399500Y37293386D01*
X5426597Y37122298D01*
X5426598Y37122294D01*
X5480123Y36957562D01*
X5480125Y36957559D01*
X5535816Y36848257D01*
X5558768Y36803212D01*
X5660586Y36663072D01*
X5783072Y36540586D01*
X5923212Y36438768D01*
X6077555Y36360127D01*
X6077557Y36360127D01*
X6077558Y36360126D01*
X6077561Y36360124D01*
X6242293Y36306599D01*
X6242297Y36306598D01*
X6413386Y36279500D01*
X6413389Y36279500D01*
X6586614Y36279500D01*
X6757702Y36306598D01*
X6757706Y36306599D01*
X6922438Y36360124D01*
X6922440Y36360126D01*
X6922445Y36360127D01*
X7076788Y36438768D01*
X7216928Y36540586D01*
X7339414Y36663072D01*
X7441232Y36803212D01*
X7519873Y36957555D01*
X7519874Y36957560D01*
X7519876Y36957562D01*
X7573401Y37122294D01*
X7573402Y37122298D01*
X7600500Y37293386D01*
X7600500Y37466615D01*
X7573402Y37637703D01*
X7573401Y37637707D01*
X7519876Y37802439D01*
X7519874Y37802442D01*
X7519873Y37802443D01*
X7519873Y37802445D01*
X7441232Y37956788D01*
X7339414Y38096928D01*
X7216928Y38219414D01*
X7076788Y38321232D01*
X7076787Y38321233D01*
X7076785Y38321234D01*
X6922441Y38399875D01*
X6922438Y38399877D01*
X6757706Y38453402D01*
X6757702Y38453403D01*
X6586614Y38480500D01*
X6586611Y38480500D01*
X6413389Y38480500D01*
X6413386Y38480500D01*
X6242297Y38453403D01*
X6242293Y38453402D01*
X6077561Y38399877D01*
X6077558Y38399875D01*
X5923214Y38321234D01*
X5783073Y38219415D01*
X5660585Y38096927D01*
X5558766Y37956786D01*
X5480125Y37802442D01*
X5480123Y37802439D01*
X5426598Y37637707D01*
X5426597Y37637703D01*
X5399500Y37466615D01*
X5000499Y37466615D01*
X5000499Y37853555D01*
X5000499Y38615689D01*
X9799500Y38615689D01*
X9799500Y37384312D01*
X9802401Y37347435D01*
X9802401Y37347432D01*
X9802402Y37347431D01*
X9848256Y37189602D01*
X9931919Y37048135D01*
X10048135Y36931919D01*
X10189602Y36848256D01*
X10347431Y36802402D01*
X10384306Y36799500D01*
X10384311Y36799500D01*
X11615689Y36799500D01*
X11615694Y36799500D01*
X11652569Y36802402D01*
X11810398Y36848256D01*
X11951865Y36931919D01*
X12068081Y37048135D01*
X12151744Y37189602D01*
X12197598Y37347431D01*
X12200500Y37384306D01*
X12200500Y38086615D01*
X26589500Y38086615D01*
X26589500Y37913386D01*
X26616597Y37742298D01*
X26616598Y37742294D01*
X26670123Y37577562D01*
X26670125Y37577559D01*
X26736474Y37447339D01*
X26748768Y37423212D01*
X26850586Y37283072D01*
X26973072Y37160586D01*
X27113212Y37058768D01*
X27267555Y36980127D01*
X27267557Y36980127D01*
X27267558Y36980126D01*
X27267561Y36980124D01*
X27432293Y36926599D01*
X27432297Y36926598D01*
X27603386Y36899500D01*
X27603389Y36899500D01*
X27776614Y36899500D01*
X27947702Y36926598D01*
X27947706Y36926599D01*
X28112438Y36980124D01*
X28112440Y36980126D01*
X28112445Y36980127D01*
X28266788Y37058768D01*
X28406928Y37160586D01*
X28529414Y37283072D01*
X28631232Y37423212D01*
X28709873Y37577555D01*
X28709874Y37577560D01*
X28709876Y37577562D01*
X28763401Y37742294D01*
X28763402Y37742298D01*
X28790500Y37913386D01*
X28790500Y38086615D01*
X34209500Y38086615D01*
X34209500Y37913386D01*
X34236597Y37742298D01*
X34236598Y37742294D01*
X34290123Y37577562D01*
X34290125Y37577559D01*
X34356474Y37447339D01*
X34368768Y37423212D01*
X34470586Y37283072D01*
X34593072Y37160586D01*
X34733212Y37058768D01*
X34887555Y36980127D01*
X34887557Y36980127D01*
X34887558Y36980126D01*
X34887561Y36980124D01*
X35052293Y36926599D01*
X35052297Y36926598D01*
X35223386Y36899500D01*
X35223389Y36899500D01*
X35396614Y36899500D01*
X35567702Y36926598D01*
X35567706Y36926599D01*
X35732438Y36980124D01*
X35732440Y36980126D01*
X35732445Y36980127D01*
X35886788Y37058768D01*
X36026928Y37160586D01*
X36149414Y37283072D01*
X36251232Y37423212D01*
X36329873Y37577555D01*
X36332804Y37586576D01*
X45900000Y37586576D01*
X45900000Y37413425D01*
X45927084Y37242421D01*
X45980588Y37077752D01*
X46059196Y36923476D01*
X46063708Y36917265D01*
X46600000Y37453557D01*
X46600000Y37447339D01*
X46627259Y37345606D01*
X46679920Y37254394D01*
X46754394Y37179920D01*
X46845606Y37127259D01*
X46947339Y37100000D01*
X46953552Y37100000D01*
X46417262Y36563711D01*
X46417262Y36563710D01*
X46423469Y36559200D01*
X46423475Y36559196D01*
X46577751Y36480589D01*
X46742420Y36427085D01*
X46913425Y36400000D01*
X47086575Y36400000D01*
X47257579Y36427085D01*
X47422248Y36480589D01*
X47576523Y36559196D01*
X47576530Y36559200D01*
X47582736Y36563710D01*
X47046446Y37100000D01*
X47052661Y37100000D01*
X47154394Y37127259D01*
X47245606Y37179920D01*
X47320080Y37254394D01*
X47372741Y37345606D01*
X47400000Y37447339D01*
X47400000Y37453554D01*
X47936290Y36917264D01*
X47940800Y36923470D01*
X47940804Y36923477D01*
X48019411Y37077752D01*
X48072915Y37242421D01*
X48100000Y37413425D01*
X48100000Y37586576D01*
X48072915Y37757580D01*
X48019411Y37922249D01*
X47940804Y38076525D01*
X47940800Y38076531D01*
X47936290Y38082738D01*
X47936289Y38082738D01*
X47400000Y37546449D01*
X47400000Y37552661D01*
X47372741Y37654394D01*
X47320080Y37745606D01*
X47245606Y37820080D01*
X47154394Y37872741D01*
X47052661Y37900000D01*
X47046444Y37900000D01*
X47582736Y38436292D01*
X47576524Y38440804D01*
X47422248Y38519412D01*
X47257579Y38572916D01*
X47086575Y38600000D01*
X46913425Y38600000D01*
X46742420Y38572916D01*
X46577751Y38519412D01*
X46423478Y38440806D01*
X46417262Y38436292D01*
X46953554Y37900000D01*
X46947339Y37900000D01*
X46845606Y37872741D01*
X46754394Y37820080D01*
X46679920Y37745606D01*
X46627259Y37654394D01*
X46600000Y37552661D01*
X46600000Y37546446D01*
X46063708Y38082738D01*
X46059194Y38076522D01*
X45980588Y37922249D01*
X45927084Y37757580D01*
X45900000Y37586576D01*
X36332804Y37586576D01*
X36354840Y37654394D01*
X36383401Y37742294D01*
X36383402Y37742298D01*
X36410500Y37913386D01*
X36410500Y38086615D01*
X36383402Y38257703D01*
X36383401Y38257707D01*
X36329876Y38422439D01*
X36329874Y38422442D01*
X36329873Y38422443D01*
X36329873Y38422445D01*
X36251232Y38576788D01*
X36149414Y38716928D01*
X36026928Y38839414D01*
X35886788Y38941232D01*
X35886787Y38941233D01*
X35886785Y38941234D01*
X35732441Y39019875D01*
X35732438Y39019877D01*
X35567706Y39073402D01*
X35567702Y39073403D01*
X35396614Y39100500D01*
X35396611Y39100500D01*
X35223389Y39100500D01*
X35223386Y39100500D01*
X35052297Y39073403D01*
X35052293Y39073402D01*
X34887561Y39019877D01*
X34887558Y39019875D01*
X34733214Y38941234D01*
X34593073Y38839415D01*
X34470585Y38716927D01*
X34368766Y38576786D01*
X34290125Y38422442D01*
X34290123Y38422439D01*
X34236598Y38257707D01*
X34236597Y38257703D01*
X34209500Y38086615D01*
X28790500Y38086615D01*
X28763402Y38257703D01*
X28763401Y38257707D01*
X28709876Y38422439D01*
X28709874Y38422442D01*
X28709873Y38422443D01*
X28709873Y38422445D01*
X28631232Y38576788D01*
X28529414Y38716928D01*
X28406928Y38839414D01*
X28266788Y38941232D01*
X28266787Y38941233D01*
X28266785Y38941234D01*
X28112441Y39019875D01*
X28112438Y39019877D01*
X27947706Y39073402D01*
X27947702Y39073403D01*
X27776614Y39100500D01*
X27776611Y39100500D01*
X27603389Y39100500D01*
X27603386Y39100500D01*
X27432297Y39073403D01*
X27432293Y39073402D01*
X27267561Y39019877D01*
X27267558Y39019875D01*
X27113214Y38941234D01*
X26973073Y38839415D01*
X26850585Y38716927D01*
X26748766Y38576786D01*
X26670125Y38422442D01*
X26670123Y38422439D01*
X26616598Y38257707D01*
X26616597Y38257703D01*
X26589500Y38086615D01*
X12200500Y38086615D01*
X12200500Y38615694D01*
X12197598Y38652569D01*
X12151744Y38810398D01*
X12068081Y38951865D01*
X11951865Y39068081D01*
X11810398Y39151744D01*
X11652569Y39197598D01*
X11652568Y39197599D01*
X11652565Y39197599D01*
X11629140Y39199442D01*
X11615694Y39200500D01*
X10384306Y39200500D01*
X10371773Y39199514D01*
X10347434Y39197599D01*
X10347427Y39197597D01*
X10189602Y39151744D01*
X10048136Y39068082D01*
X9931918Y38951864D01*
X9848256Y38810398D01*
X9802403Y38652573D01*
X9802401Y38652566D01*
X9799500Y38615689D01*
X5000499Y38615689D01*
X5000499Y38617638D01*
X5000499Y38755690D01*
X5000499Y38755695D01*
X4997598Y38792570D01*
X4951744Y38950399D01*
X4891710Y39051910D01*
X4868083Y39091862D01*
X4868082Y39091863D01*
X4868081Y39091865D01*
X4751865Y39208081D01*
X4751862Y39208083D01*
X4751861Y39208084D01*
X4610402Y39291743D01*
X4610399Y39291744D01*
X4452570Y39337598D01*
X4452569Y39337599D01*
X4452566Y39337599D01*
X4430733Y39339317D01*
X4415695Y39340500D01*
X4415689Y39340500D01*
X2584310Y39340500D01*
X2547430Y39337598D01*
X2547425Y39337597D01*
X2389599Y39291744D01*
X2389597Y39291743D01*
X2248138Y39208084D01*
X2131916Y39091862D01*
X2048257Y38950403D01*
X2048256Y38950399D01*
X2002403Y38792574D01*
X2002401Y38792567D01*
X1999500Y38755690D01*
X500500Y38755690D01*
X500500Y40586576D01*
X9900000Y40586576D01*
X9900000Y40413425D01*
X9927084Y40242421D01*
X9980588Y40077752D01*
X10059196Y39923476D01*
X10063708Y39917265D01*
X10600000Y40453557D01*
X10600000Y40447339D01*
X10627259Y40345606D01*
X10679920Y40254394D01*
X10754394Y40179920D01*
X10845606Y40127259D01*
X10947339Y40100000D01*
X10953552Y40100000D01*
X10417262Y39563711D01*
X10417262Y39563710D01*
X10423469Y39559200D01*
X10423475Y39559196D01*
X10577751Y39480589D01*
X10742420Y39427085D01*
X10913425Y39400000D01*
X11086575Y39400000D01*
X11257579Y39427085D01*
X11422248Y39480589D01*
X11576523Y39559196D01*
X11576530Y39559200D01*
X11582736Y39563710D01*
X11046446Y40100000D01*
X11052661Y40100000D01*
X11154394Y40127259D01*
X11245606Y40179920D01*
X11320080Y40254394D01*
X11372741Y40345606D01*
X11400000Y40447339D01*
X11400000Y40453554D01*
X11936290Y39917264D01*
X11940800Y39923470D01*
X11940804Y39923477D01*
X12019411Y40077752D01*
X12072915Y40242421D01*
X12100000Y40413425D01*
X12100000Y40586576D01*
X12099994Y40586615D01*
X26589500Y40586615D01*
X26589500Y40413386D01*
X26616597Y40242298D01*
X26616598Y40242294D01*
X26670123Y40077562D01*
X26670125Y40077559D01*
X26748636Y39923470D01*
X26748768Y39923212D01*
X26850586Y39783072D01*
X26973072Y39660586D01*
X27113212Y39558768D01*
X27267555Y39480127D01*
X27267557Y39480127D01*
X27267558Y39480126D01*
X27267561Y39480124D01*
X27432293Y39426599D01*
X27432297Y39426598D01*
X27603386Y39399500D01*
X27603389Y39399500D01*
X27776614Y39399500D01*
X27947702Y39426598D01*
X27947706Y39426599D01*
X28112438Y39480124D01*
X28112440Y39480126D01*
X28112445Y39480127D01*
X28266788Y39558768D01*
X28406928Y39660586D01*
X28529414Y39783072D01*
X28631232Y39923212D01*
X28709873Y40077555D01*
X28709874Y40077560D01*
X28709876Y40077562D01*
X28763401Y40242294D01*
X28763402Y40242298D01*
X28790500Y40413386D01*
X28790500Y40586615D01*
X34209500Y40586615D01*
X34209500Y40413386D01*
X34236597Y40242298D01*
X34236598Y40242294D01*
X34290123Y40077562D01*
X34290125Y40077559D01*
X34368636Y39923470D01*
X34368768Y39923212D01*
X34470586Y39783072D01*
X34593072Y39660586D01*
X34733212Y39558768D01*
X34887555Y39480127D01*
X34887557Y39480127D01*
X34887558Y39480126D01*
X34887561Y39480124D01*
X35052293Y39426599D01*
X35052297Y39426598D01*
X35223386Y39399500D01*
X35223389Y39399500D01*
X35396614Y39399500D01*
X35567702Y39426598D01*
X35567706Y39426599D01*
X35732438Y39480124D01*
X35732440Y39480126D01*
X35732445Y39480127D01*
X35886788Y39558768D01*
X36026928Y39660586D01*
X36149414Y39783072D01*
X36251232Y39923212D01*
X36329873Y40077555D01*
X36342264Y40115689D01*
X37299500Y40115689D01*
X37299500Y38884312D01*
X37302401Y38847435D01*
X37302401Y38847432D01*
X37302402Y38847431D01*
X37348256Y38689602D01*
X37431919Y38548135D01*
X37548135Y38431919D01*
X37689602Y38348256D01*
X37847431Y38302402D01*
X37884306Y38299500D01*
X37884311Y38299500D01*
X39115689Y38299500D01*
X39115694Y38299500D01*
X39152569Y38302402D01*
X39310398Y38348256D01*
X39451865Y38431919D01*
X39568081Y38548135D01*
X39651744Y38689602D01*
X39697598Y38847431D01*
X39700500Y38884306D01*
X39700500Y38993719D01*
X39719407Y39051910D01*
X39768907Y39087874D01*
X39830093Y39087874D01*
X39879593Y39051910D01*
X39887710Y39038664D01*
X39966358Y38884306D01*
X39973240Y38870801D01*
X40084310Y38717927D01*
X40217927Y38584310D01*
X40370801Y38473240D01*
X40539168Y38387453D01*
X40718882Y38329060D01*
X40718883Y38329060D01*
X40718886Y38329059D01*
X40905516Y38299500D01*
X40905519Y38299500D01*
X41094484Y38299500D01*
X41281113Y38329059D01*
X41281114Y38329060D01*
X41281118Y38329060D01*
X41460832Y38387453D01*
X41629199Y38473240D01*
X41782073Y38584310D01*
X41915690Y38717927D01*
X42026760Y38870801D01*
X42112547Y39039168D01*
X42170940Y39218882D01*
X42182480Y39291744D01*
X42200500Y39405516D01*
X42200500Y39594485D01*
X42170941Y39781114D01*
X42126703Y39917264D01*
X42112547Y39960832D01*
X42026760Y40129199D01*
X41915690Y40282073D01*
X41782073Y40415690D01*
X41629199Y40526760D01*
X41629198Y40526761D01*
X41629196Y40526762D01*
X41460832Y40612547D01*
X41281113Y40670942D01*
X41094484Y40700500D01*
X41094481Y40700500D01*
X40905519Y40700500D01*
X40905516Y40700500D01*
X40718886Y40670942D01*
X40539167Y40612547D01*
X40370803Y40526762D01*
X40217928Y40415691D01*
X40084309Y40282072D01*
X39973238Y40129197D01*
X39887710Y39961337D01*
X39844445Y39918072D01*
X39784013Y39908501D01*
X39729496Y39936278D01*
X39701719Y39990795D01*
X39700500Y40006282D01*
X39700500Y40115689D01*
X39697598Y40152566D01*
X39697598Y40152569D01*
X39651744Y40310398D01*
X39568081Y40451865D01*
X39451865Y40568081D01*
X39310398Y40651744D01*
X39152569Y40697598D01*
X39152568Y40697599D01*
X39152565Y40697599D01*
X39129140Y40699442D01*
X39115694Y40700500D01*
X37884306Y40700500D01*
X37871773Y40699514D01*
X37847434Y40697599D01*
X37847427Y40697597D01*
X37689602Y40651744D01*
X37548136Y40568082D01*
X37431918Y40451864D01*
X37348256Y40310398D01*
X37302403Y40152573D01*
X37302401Y40152566D01*
X37299500Y40115689D01*
X36342264Y40115689D01*
X36363134Y40179920D01*
X36383401Y40242294D01*
X36383402Y40242298D01*
X36410500Y40413386D01*
X36410500Y40586615D01*
X36383402Y40757703D01*
X36383401Y40757707D01*
X36329876Y40922439D01*
X36329874Y40922442D01*
X36329873Y40922443D01*
X36329873Y40922445D01*
X36251232Y41076788D01*
X36149414Y41216928D01*
X36026928Y41339414D01*
X35886788Y41441232D01*
X35886787Y41441233D01*
X35886785Y41441234D01*
X35732441Y41519875D01*
X35732438Y41519877D01*
X35567706Y41573402D01*
X35567702Y41573403D01*
X35396614Y41600500D01*
X35396611Y41600500D01*
X35223389Y41600500D01*
X35223386Y41600500D01*
X35052297Y41573403D01*
X35052293Y41573402D01*
X34887561Y41519877D01*
X34887558Y41519875D01*
X34733214Y41441234D01*
X34593073Y41339415D01*
X34470585Y41216927D01*
X34368766Y41076786D01*
X34290125Y40922442D01*
X34290123Y40922439D01*
X34236598Y40757707D01*
X34236597Y40757703D01*
X34209500Y40586615D01*
X28790500Y40586615D01*
X28763402Y40757703D01*
X28763401Y40757707D01*
X28709876Y40922439D01*
X28709874Y40922442D01*
X28709873Y40922443D01*
X28709873Y40922445D01*
X28631232Y41076788D01*
X28529414Y41216928D01*
X28406928Y41339414D01*
X28266788Y41441232D01*
X28266787Y41441233D01*
X28266785Y41441234D01*
X28112441Y41519875D01*
X28112438Y41519877D01*
X27947706Y41573402D01*
X27947702Y41573403D01*
X27776614Y41600500D01*
X27776611Y41600500D01*
X27603389Y41600500D01*
X27603386Y41600500D01*
X27432297Y41573403D01*
X27432293Y41573402D01*
X27267561Y41519877D01*
X27267558Y41519875D01*
X27113214Y41441234D01*
X26973073Y41339415D01*
X26850585Y41216927D01*
X26748766Y41076786D01*
X26670125Y40922442D01*
X26670123Y40922439D01*
X26616598Y40757707D01*
X26616597Y40757703D01*
X26589500Y40586615D01*
X12099994Y40586615D01*
X12072915Y40757580D01*
X12019411Y40922249D01*
X11940804Y41076525D01*
X11940800Y41076531D01*
X11936290Y41082738D01*
X11936289Y41082738D01*
X11400000Y40546449D01*
X11400000Y40552661D01*
X11372741Y40654394D01*
X11320080Y40745606D01*
X11245606Y40820080D01*
X11154394Y40872741D01*
X11052661Y40900000D01*
X11046444Y40900000D01*
X11582736Y41436292D01*
X11576524Y41440804D01*
X11422248Y41519412D01*
X11257579Y41572916D01*
X11086575Y41600000D01*
X10913425Y41600000D01*
X10742420Y41572916D01*
X10577751Y41519412D01*
X10423478Y41440806D01*
X10417262Y41436292D01*
X10953554Y40900000D01*
X10947339Y40900000D01*
X10845606Y40872741D01*
X10754394Y40820080D01*
X10679920Y40745606D01*
X10627259Y40654394D01*
X10600000Y40552661D01*
X10600000Y40546446D01*
X10063708Y41082738D01*
X10059194Y41076522D01*
X9980588Y40922249D01*
X9927084Y40757580D01*
X9900000Y40586576D01*
X500500Y40586576D01*
X500500Y45086615D01*
X5399500Y45086615D01*
X5399500Y44913386D01*
X5426597Y44742298D01*
X5426598Y44742294D01*
X5480123Y44577562D01*
X5480125Y44577559D01*
X5480126Y44577556D01*
X5480127Y44577555D01*
X5558768Y44423212D01*
X5660586Y44283072D01*
X5783072Y44160586D01*
X5923212Y44058768D01*
X6077555Y43980127D01*
X6077557Y43980127D01*
X6077558Y43980126D01*
X6077561Y43980124D01*
X6242293Y43926599D01*
X6242297Y43926598D01*
X6413386Y43899500D01*
X6413389Y43899500D01*
X6586614Y43899500D01*
X6757702Y43926598D01*
X6757706Y43926599D01*
X6922438Y43980124D01*
X6922440Y43980126D01*
X6922445Y43980127D01*
X7076788Y44058768D01*
X7216928Y44160586D01*
X7339414Y44283072D01*
X7441232Y44423212D01*
X7519873Y44577555D01*
X7519874Y44577560D01*
X7519876Y44577562D01*
X7573401Y44742294D01*
X7573402Y44742298D01*
X7600500Y44913386D01*
X7600500Y45086615D01*
X7573402Y45257703D01*
X7573401Y45257707D01*
X7519876Y45422439D01*
X7519874Y45422442D01*
X7519873Y45422443D01*
X7519873Y45422445D01*
X7441232Y45576788D01*
X7339414Y45716928D01*
X7216928Y45839414D01*
X7076788Y45941232D01*
X7076787Y45941233D01*
X7076785Y45941234D01*
X6922441Y46019875D01*
X6922438Y46019877D01*
X6757706Y46073402D01*
X6757702Y46073403D01*
X6586614Y46100500D01*
X6586611Y46100500D01*
X6413389Y46100500D01*
X6413386Y46100500D01*
X6242297Y46073403D01*
X6242293Y46073402D01*
X6077561Y46019877D01*
X6077558Y46019875D01*
X5923214Y45941234D01*
X5783073Y45839415D01*
X5660585Y45716927D01*
X5558766Y45576786D01*
X5480125Y45422442D01*
X5480123Y45422439D01*
X5426598Y45257707D01*
X5426597Y45257703D01*
X5399500Y45086615D01*
X500500Y45086615D01*
X500500Y46997016D01*
X500681Y47002993D01*
X501860Y47022490D01*
X518362Y47295312D01*
X519801Y47307163D01*
X572052Y47592285D01*
X574912Y47603886D01*
X585171Y47636808D01*
X661148Y47880630D01*
X665378Y47891782D01*
X784350Y48156125D01*
X789891Y48166685D01*
X939868Y48414779D01*
X946632Y48424576D01*
X1125407Y48652765D01*
X1133319Y48661697D01*
X1338303Y48866681D01*
X1347235Y48874593D01*
X1575424Y49053368D01*
X1585221Y49060132D01*
X1833315Y49210109D01*
X1843875Y49215650D01*
X2108218Y49334622D01*
X2119370Y49338852D01*
X2396121Y49425090D01*
X2407715Y49427948D01*
X2661687Y49474490D01*
X2722330Y49466382D01*
X2766628Y49424176D01*
X2777657Y49363992D01*
X2751205Y49308821D01*
X2724480Y49288905D01*
X2713574Y49283348D01*
X2713570Y49283346D01*
X2522491Y49144518D01*
X2355482Y48977509D01*
X2216655Y48786431D01*
X2109432Y48575993D01*
X2036445Y48351364D01*
X1999500Y48118096D01*
X1999500Y47881905D01*
X2036445Y47648637D01*
X2109432Y47424008D01*
X2171964Y47301281D01*
X2216657Y47213567D01*
X2355483Y47022490D01*
X2522490Y46855483D01*
X2713567Y46716657D01*
X2924008Y46609432D01*
X3148632Y46536447D01*
X3148633Y46536447D01*
X3148636Y46536446D01*
X3381905Y46499500D01*
X3381908Y46499500D01*
X3618095Y46499500D01*
X3851363Y46536446D01*
X3851364Y46536447D01*
X3851368Y46536447D01*
X4075992Y46609432D01*
X4286433Y46716657D01*
X4477510Y46855483D01*
X4644517Y47022490D01*
X4783343Y47213567D01*
X4890568Y47424008D01*
X4963553Y47648632D01*
X4963554Y47648637D01*
X4988556Y47806494D01*
X5000500Y47881905D01*
X5000500Y48118096D01*
X4963554Y48351364D01*
X4942958Y48414752D01*
X4890568Y48575992D01*
X4783343Y48786433D01*
X4704611Y48894798D01*
X18850000Y48894798D01*
X18850000Y48250001D01*
X18850001Y48250000D01*
X19566988Y48250000D01*
X19534075Y48192993D01*
X19500000Y48065826D01*
X19500000Y47934174D01*
X19534075Y47807007D01*
X19566988Y47750000D01*
X18850002Y47750000D01*
X18850001Y47749999D01*
X18850001Y47105209D01*
X18852909Y47080126D01*
X18898213Y46977523D01*
X18977522Y46898214D01*
X19080127Y46852910D01*
X19105203Y46850001D01*
X19749998Y46850001D01*
X19750000Y46850002D01*
X19750000Y47566988D01*
X19807007Y47534075D01*
X19934174Y47500000D01*
X20065826Y47500000D01*
X20192993Y47534075D01*
X20250000Y47566988D01*
X20250000Y46850002D01*
X20250001Y46850001D01*
X20894790Y46850001D01*
X20894791Y46850002D01*
X20919874Y46852910D01*
X21022477Y46898214D01*
X21101786Y46977523D01*
X21147090Y47080128D01*
X21149999Y47105203D01*
X21149999Y47606215D01*
X21168906Y47664406D01*
X21218406Y47700370D01*
X21279591Y47700370D01*
X21329092Y47664406D01*
X21343153Y47636808D01*
X21381112Y47519982D01*
X21381114Y47519979D01*
X21381115Y47519976D01*
X21381116Y47519975D01*
X21470476Y47344595D01*
X21586172Y47185354D01*
X21725354Y47046172D01*
X21884595Y46930476D01*
X22059975Y46841116D01*
X22247174Y46780291D01*
X22247175Y46780291D01*
X22247178Y46780290D01*
X22441580Y46749500D01*
X22441583Y46749500D01*
X22638420Y46749500D01*
X22832821Y46780290D01*
X22832822Y46780291D01*
X22832826Y46780291D01*
X23020025Y46841116D01*
X23195405Y46930476D01*
X23354646Y47046172D01*
X23493828Y47185354D01*
X23609524Y47344595D01*
X23698884Y47519975D01*
X23759709Y47707174D01*
X23782580Y47851578D01*
X23790500Y47901580D01*
X23790500Y48090511D01*
X26310000Y48090511D01*
X26310000Y47909490D01*
X26338316Y47730711D01*
X26394250Y47558560D01*
X26476432Y47397270D01*
X26487911Y47381469D01*
X26977036Y47870594D01*
X26994075Y47807007D01*
X27059901Y47692993D01*
X27152993Y47599901D01*
X27267007Y47534075D01*
X27330591Y47517038D01*
X26841466Y47027913D01*
X26857266Y47016434D01*
X27018559Y46934251D01*
X27190710Y46878317D01*
X27369490Y46850000D01*
X27550510Y46850000D01*
X27729289Y46878317D01*
X27901440Y46934251D01*
X28062730Y47016432D01*
X28062735Y47016436D01*
X28078532Y47027913D01*
X28078532Y47027914D01*
X27589408Y47517038D01*
X27652993Y47534075D01*
X27767007Y47599901D01*
X27860099Y47692993D01*
X27925925Y47807007D01*
X27942962Y47870592D01*
X28432086Y47381468D01*
X28432087Y47381468D01*
X28443564Y47397265D01*
X28443568Y47397270D01*
X28525749Y47558560D01*
X28581683Y47730711D01*
X28593687Y47806494D01*
X28610000Y47909490D01*
X28610000Y48090511D01*
X28581683Y48269290D01*
X28525749Y48441441D01*
X28443566Y48602734D01*
X28432087Y48618534D01*
X27942962Y48129409D01*
X27925925Y48192993D01*
X27860099Y48307007D01*
X27767007Y48400099D01*
X27652993Y48465925D01*
X27589406Y48482964D01*
X28001242Y48894798D01*
X28850000Y48894798D01*
X28850000Y48250001D01*
X28850001Y48250000D01*
X29566988Y48250000D01*
X29534075Y48192993D01*
X29500000Y48065826D01*
X29500000Y47934174D01*
X29534075Y47807007D01*
X29566988Y47750000D01*
X28850002Y47750000D01*
X28850001Y47749999D01*
X28850001Y47105209D01*
X28852909Y47080126D01*
X28898213Y46977523D01*
X28977522Y46898214D01*
X29080127Y46852910D01*
X29105203Y46850001D01*
X29749998Y46850001D01*
X29750000Y46850002D01*
X29750000Y47566988D01*
X29807007Y47534075D01*
X29934174Y47500000D01*
X30065826Y47500000D01*
X30192993Y47534075D01*
X30250000Y47566988D01*
X30250000Y46850002D01*
X30250001Y46850001D01*
X30894790Y46850001D01*
X30894791Y46850002D01*
X30919874Y46852910D01*
X31022477Y46898214D01*
X31101786Y46977523D01*
X31147090Y47080128D01*
X31149999Y47105203D01*
X31150000Y47105205D01*
X31150000Y47749999D01*
X31149999Y47750000D01*
X30433012Y47750000D01*
X30465925Y47807007D01*
X30500000Y47934174D01*
X30500000Y48065826D01*
X30465925Y48192993D01*
X30433012Y48250000D01*
X31149998Y48250000D01*
X31149999Y48250001D01*
X31149999Y48894790D01*
X31149998Y48894792D01*
X31147090Y48919875D01*
X31101786Y49022478D01*
X31022477Y49101787D01*
X30919872Y49147091D01*
X30894797Y49150000D01*
X30250001Y49150000D01*
X30250000Y49149999D01*
X30250000Y48433012D01*
X30192993Y48465925D01*
X30065826Y48500000D01*
X29934174Y48500000D01*
X29807007Y48465925D01*
X29750000Y48433012D01*
X29750000Y49149999D01*
X29749999Y49150000D01*
X29105210Y49150000D01*
X29105207Y49149999D01*
X29080125Y49147091D01*
X28977522Y49101787D01*
X28898213Y49022478D01*
X28852909Y48919873D01*
X28850000Y48894798D01*
X28001242Y48894798D01*
X28074100Y48967656D01*
X28078532Y48972089D01*
X28062730Y48983568D01*
X27901440Y49065750D01*
X27729289Y49121684D01*
X27550510Y49150000D01*
X27369490Y49150000D01*
X27190710Y49121684D01*
X27018559Y49065750D01*
X26857264Y48983566D01*
X26841466Y48972089D01*
X27330592Y48482963D01*
X27267007Y48465925D01*
X27152993Y48400099D01*
X27059901Y48307007D01*
X26994075Y48192993D01*
X26977037Y48129408D01*
X26487911Y48618534D01*
X26476434Y48602736D01*
X26394250Y48441441D01*
X26338316Y48269290D01*
X26310000Y48090511D01*
X23790500Y48090511D01*
X23790500Y48098421D01*
X23759710Y48292822D01*
X23759709Y48292826D01*
X23698884Y48480025D01*
X23609524Y48655405D01*
X23493828Y48814646D01*
X23354646Y48953828D01*
X23195405Y49069524D01*
X23195404Y49069525D01*
X23195402Y49069526D01*
X23020025Y49158884D01*
X22832821Y49219711D01*
X22638420Y49250500D01*
X22638417Y49250500D01*
X22441583Y49250500D01*
X22441580Y49250500D01*
X22247178Y49219711D01*
X22059974Y49158884D01*
X21884597Y49069526D01*
X21725355Y48953829D01*
X21586171Y48814645D01*
X21470474Y48655403D01*
X21381114Y48480022D01*
X21381112Y48480019D01*
X21343153Y48363191D01*
X21307189Y48313691D01*
X21248999Y48294784D01*
X21190808Y48313692D01*
X21154844Y48363192D01*
X21149999Y48393784D01*
X21149999Y48894790D01*
X21149998Y48894792D01*
X21147090Y48919875D01*
X21101786Y49022478D01*
X21022477Y49101787D01*
X20919872Y49147091D01*
X20894797Y49150000D01*
X20250001Y49150000D01*
X20250000Y49149999D01*
X20250000Y48433012D01*
X20192993Y48465925D01*
X20065826Y48500000D01*
X19934174Y48500000D01*
X19807007Y48465925D01*
X19750000Y48433012D01*
X19750000Y49149999D01*
X19749999Y49150000D01*
X19105210Y49150000D01*
X19105207Y49149999D01*
X19080125Y49147091D01*
X18977522Y49101787D01*
X18898213Y49022478D01*
X18852909Y48919873D01*
X18850000Y48894798D01*
X4704611Y48894798D01*
X4644517Y48977510D01*
X4477510Y49144517D01*
X4286433Y49283343D01*
X4286432Y49283344D01*
X4286430Y49283345D01*
X4243170Y49305387D01*
X4229620Y49312291D01*
X4186356Y49355555D01*
X4176785Y49415987D01*
X4204562Y49470503D01*
X4259079Y49498281D01*
X4274566Y49499500D01*
X46934108Y49499500D01*
X46997015Y49499500D01*
X47002992Y49499319D01*
G37*
%TD.AperFunction*%
%TD*%
M02*
