%TF.GenerationSoftware,KiCad,Pcbnew,9.0.7*%
%TF.CreationDate,2026-03-08T23:37:30+01:00*%
%TF.ProjectId,basstortr-bass-distortion,62617373-746f-4727-9472-2d626173732d,B*%
%TF.SameCoordinates,PXdceab0PY5924500*%
%TF.FileFunction,Copper,L1,Top*%
%TF.FilePolarity,Positive*%
%FSLAX46Y46*%
G04 Gerber Fmt 4.6, Leading zero omitted, Abs format (unit mm)*
G04 Created by KiCad (PCBNEW 9.0.7) date 2026-03-08 23:37:30*
%MOMM*%
%LPD*%
G01*
G04 APERTURE LIST*
G04 Aperture macros list*
%AMRoundRect*
0 Rectangle with rounded corners*
0 $1 Rounding radius*
0 $2 $3 $4 $5 $6 $7 $8 $9 X,Y pos of 4 corners*
0 Add a 4 corners polygon primitive as box body*
4,1,4,$2,$3,$4,$5,$6,$7,$8,$9,$2,$3,0*
0 Add four circle primitives for the rounded corners*
1,1,$1+$1,$2,$3*
1,1,$1+$1,$4,$5*
1,1,$1+$1,$6,$7*
1,1,$1+$1,$8,$9*
0 Add four rect primitives between the rounded corners*
20,1,$1+$1,$2,$3,$4,$5,0*
20,1,$1+$1,$4,$5,$6,$7,0*
20,1,$1+$1,$6,$7,$8,$9,0*
20,1,$1+$1,$8,$9,$2,$3,0*%
G04 Aperture macros list end*
%TA.AperFunction,ComponentPad*%
%ADD10R,1.800000X1.800000*%
%TD*%
%TA.AperFunction,ComponentPad*%
%ADD11C,1.800000*%
%TD*%
%TA.AperFunction,ComponentPad*%
%ADD12RoundRect,0.250000X1.000000X1.000000X-1.000000X1.000000X-1.000000X-1.000000X1.000000X-1.000000X0*%
%TD*%
%TA.AperFunction,ComponentPad*%
%ADD13C,2.500000*%
%TD*%
%TA.AperFunction,ComponentPad*%
%ADD14RoundRect,0.250000X-0.550000X0.550000X-0.550000X-0.550000X0.550000X-0.550000X0.550000X0.550000X0*%
%TD*%
%TA.AperFunction,ComponentPad*%
%ADD15C,1.600000*%
%TD*%
%TA.AperFunction,ComponentPad*%
%ADD16C,1.400000*%
%TD*%
%TA.AperFunction,ComponentPad*%
%ADD17RoundRect,0.249999X0.850001X-0.850001X0.850001X0.850001X-0.850001X0.850001X-0.850001X-0.850001X0*%
%TD*%
%TA.AperFunction,ComponentPad*%
%ADD18C,2.200000*%
%TD*%
%TA.AperFunction,SMDPad,CuDef*%
%ADD19C,1.000000*%
%TD*%
%TA.AperFunction,ComponentPad*%
%ADD20R,1.500000X1.500000*%
%TD*%
%TA.AperFunction,ComponentPad*%
%ADD21C,1.500000*%
%TD*%
%TA.AperFunction,ComponentPad*%
%ADD22R,1.700000X1.700000*%
%TD*%
%TA.AperFunction,ComponentPad*%
%ADD23C,1.700000*%
%TD*%
%TA.AperFunction,ViaPad*%
%ADD24C,0.700000*%
%TD*%
%TA.AperFunction,ViaPad*%
%ADD25C,0.600000*%
%TD*%
%TA.AperFunction,Conductor*%
%ADD26C,0.300000*%
%TD*%
%TA.AperFunction,Conductor*%
%ADD27C,0.500000*%
%TD*%
G04 APERTURE END LIST*
D10*
%TO.P,LED1,1,K*%
%TO.N,Net-(LED1-K)*%
X26162000Y25472000D03*
D11*
%TO.P,LED1,2,A*%
%TO.N,/+*%
X23622000Y25472000D03*
%TD*%
D12*
%TO.P,DRIVE,1,1*%
%TO.N,GND*%
X14932000Y76972000D03*
D13*
%TO.P,DRIVE,2,2*%
X9852000Y76972000D03*
%TO.P,DRIVE,3,3*%
%TO.N,Net-(D1-A)*%
X4772000Y76972000D03*
%TD*%
D14*
%TO.P,C5,1*%
%TO.N,Net-(Q3-D)*%
X42418000Y41337112D03*
D15*
%TO.P,C5,2*%
%TO.N,Net-(C5-Pad2)*%
X42418000Y38837112D03*
%TD*%
D16*
%TO.P,R15,1*%
%TO.N,Net-(C6-Pad1)*%
X21042000Y28956000D03*
%TO.P,R15,2*%
%TO.N,GND*%
X28662000Y28956000D03*
%TD*%
%TO.P,R16,1*%
%TO.N,Net-(R16-Pad1)*%
X47752000Y52578000D03*
%TO.P,R16,2*%
%TO.N,Net-(C8-Pad1)*%
X47752000Y60198000D03*
%TD*%
%TO.P,R11,1*%
%TO.N,Net-(D3-K)*%
X34290000Y10912000D03*
%TO.P,R11,2*%
%TO.N,Net-(Q3-D)*%
X34290000Y18532000D03*
%TD*%
D15*
%TO.P,C6,1*%
%TO.N,Net-(C6-Pad1)*%
X22432000Y33020000D03*
%TO.P,C6,2*%
%TO.N,Net-(C5-Pad2)*%
X27432000Y33020000D03*
%TD*%
D17*
%TO.P,D100,1,K*%
%TO.N,Net-(D100-K)*%
X8782909Y51054000D03*
D18*
%TO.P,D100,2,A*%
%TO.N,/+*%
X8782909Y61214000D03*
%TD*%
D16*
%TO.P,R5,1*%
%TO.N,Net-(C2-Pad2)*%
X38687636Y52578000D03*
%TO.P,R5,2*%
%TO.N,Net-(D2-K)*%
X38687636Y60198000D03*
%TD*%
%TO.P,R13,1*%
%TO.N,Net-(D3-A)*%
X2540000Y59944000D03*
%TO.P,R13,2*%
%TO.N,GND*%
X2540000Y52324000D03*
%TD*%
D14*
%TO.P,D1,1,K*%
%TO.N,Net-(D1-K)*%
X9144000Y18542000D03*
D15*
%TO.P,D1,2,A*%
%TO.N,Net-(D1-A)*%
X9144000Y10922000D03*
%TD*%
%TO.P,C2,1*%
%TO.N,Net-(Q1-D)*%
X6350000Y21844000D03*
%TO.P,C2,2*%
%TO.N,Net-(C2-Pad2)*%
X11350000Y21844000D03*
%TD*%
D16*
%TO.P,R4,1*%
%TO.N,VCC*%
X3268000Y10912000D03*
%TO.P,R4,2*%
%TO.N,Net-(Q1-D)*%
X3268000Y18532000D03*
%TD*%
D15*
%TO.P,C3,1*%
%TO.N,Net-(C2-Pad2)*%
X12086000Y64516000D03*
%TO.P,C3,2*%
%TO.N,Net-(D2-K)*%
X17086000Y64516000D03*
%TD*%
D19*
%TO.P,FID2,*%
%TO.N,*%
X2286000Y73406000D03*
%TD*%
%TO.P,FID1,*%
%TO.N,*%
X2286000Y2794000D03*
%TD*%
D20*
%TO.P,Q1,1,D*%
%TO.N,Net-(Q1-D)*%
X6350000Y25908000D03*
D21*
%TO.P,Q1,2,G*%
%TO.N,Net-(D1-K)*%
X8890000Y25908000D03*
%TO.P,Q1,3,S*%
%TO.N,Net-(D1-A)*%
X11430000Y25908000D03*
%TD*%
D15*
%TO.P,C8,1*%
%TO.N,Net-(C8-Pad1)*%
X42418000Y46482000D03*
%TO.P,C8,2*%
%TO.N,GND*%
X37418000Y46482000D03*
%TD*%
D16*
%TO.P,R8,1*%
%TO.N,VCC*%
X12192000Y59944000D03*
%TO.P,R8,2*%
%TO.N,Net-(Q2-D)*%
X12192000Y52324000D03*
%TD*%
D15*
%TO.P,C7,1*%
%TO.N,GND*%
X5882000Y46482000D03*
%TO.P,C7,2*%
%TO.N,Net-(C7-Pad2)*%
X10882000Y46482000D03*
%TD*%
D14*
%TO.P,D2,1,K*%
%TO.N,Net-(D2-K)*%
X35800727Y70866000D03*
D15*
%TO.P,D2,2,A*%
%TO.N,Net-(D2-A)*%
X35800727Y63246000D03*
%TD*%
D12*
%TO.P,TONE,1,1*%
%TO.N,Net-(C7-Pad2)*%
X29972000Y41972000D03*
D13*
%TO.P,TONE,2,2*%
%TO.N,Net-(R16-Pad1)*%
X24892000Y41972000D03*
%TO.P,TONE,3,3*%
%TO.N,Net-(C6-Pad1)*%
X19812000Y41972000D03*
%TD*%
D16*
%TO.P,R100,1*%
%TO.N,Net-(D100-K)*%
X5561455Y52324000D03*
%TO.P,R100,2*%
%TO.N,VCC*%
X5561455Y59944000D03*
%TD*%
D12*
%TO.P,VOLUME,1,1*%
%TO.N,GND*%
X44932000Y76972000D03*
D13*
%TO.P,VOLUME,2,2*%
%TO.N,/OUT*%
X39852000Y76972000D03*
%TO.P,VOLUME,3,3*%
%TO.N,Net-(C9-Pad1)*%
X34772000Y76972000D03*
%TD*%
D16*
%TO.P,R1,1*%
%TO.N,/IN*%
X14986000Y10912000D03*
%TO.P,R1,2*%
%TO.N,GND*%
X14986000Y18532000D03*
%TD*%
D20*
%TO.P,Q2,1,D*%
%TO.N,Net-(Q2-D)*%
X22860000Y68072000D03*
D21*
%TO.P,Q2,2,G*%
%TO.N,Net-(D2-K)*%
X25400000Y68072000D03*
%TO.P,Q2,3,S*%
%TO.N,Net-(D2-A)*%
X27940000Y68072000D03*
%TD*%
D16*
%TO.P,R12,1*%
%TO.N,VCC*%
X37338000Y10912000D03*
%TO.P,R12,2*%
%TO.N,Net-(Q3-D)*%
X37338000Y18532000D03*
%TD*%
%TO.P,R17,1*%
%TO.N,Net-(C8-Pad1)*%
X44730545Y52578000D03*
%TO.P,R17,2*%
%TO.N,Net-(C9-Pad1)*%
X44730545Y60198000D03*
%TD*%
%TO.P,R9,1*%
%TO.N,Net-(D2-A)*%
X35814000Y60198000D03*
%TO.P,R9,2*%
%TO.N,GND*%
X35814000Y52578000D03*
%TD*%
D22*
%TO.P,J2,1,Pin_1*%
%TO.N,GND*%
X19558000Y76997000D03*
D23*
%TO.P,J2,2,Pin_2*%
%TO.N,/+*%
X22098000Y76997000D03*
%TD*%
D22*
%TO.P,J3,1,Pin_1*%
%TO.N,GND*%
X27482000Y76997000D03*
D23*
%TO.P,J3,2,Pin_2*%
X30022000Y76997000D03*
%TD*%
D16*
%TO.P,R7,1*%
%TO.N,Net-(D2-K)*%
X15240000Y52324000D03*
%TO.P,R7,2*%
%TO.N,Net-(Q2-D)*%
X15240000Y59944000D03*
%TD*%
%TO.P,R2,1*%
%TO.N,Net-(D1-K)*%
X12268000Y18532000D03*
%TO.P,R2,2*%
%TO.N,GND*%
X12268000Y10912000D03*
%TD*%
D14*
%TO.P,D3,1,K*%
%TO.N,Net-(D3-K)*%
X43434000Y18542000D03*
D15*
%TO.P,D3,2,A*%
%TO.N,Net-(D3-A)*%
X43434000Y10922000D03*
%TD*%
%TO.P,C1,1*%
%TO.N,/IN*%
X18288000Y12232000D03*
%TO.P,C1,2*%
%TO.N,Net-(D1-K)*%
X18288000Y17232000D03*
%TD*%
D16*
%TO.P,R10,1*%
%TO.N,Net-(D3-K)*%
X40386000Y18532000D03*
%TO.P,R10,2*%
%TO.N,GND*%
X40386000Y10912000D03*
%TD*%
D14*
%TO.P,C100,1*%
%TO.N,VCC*%
X8636000Y41337112D03*
D15*
%TO.P,C100,2*%
%TO.N,GND*%
X8636000Y38837112D03*
%TD*%
D22*
%TO.P,J1,1,Pin_1*%
%TO.N,/IN*%
X20712000Y3302000D03*
D23*
%TO.P,J1,2,Pin_2*%
%TO.N,GND*%
X23252000Y3302000D03*
%TO.P,J1,3,Pin_3*%
%TO.N,/SW*%
X25792000Y3302000D03*
%TO.P,J1,4,Pin_4*%
%TO.N,/OUT*%
X28332000Y3302000D03*
%TD*%
D16*
%TO.P,R6,1*%
%TO.N,Net-(D2-K)*%
X32512000Y70866000D03*
%TO.P,R6,2*%
%TO.N,GND*%
X32512000Y63246000D03*
%TD*%
%TO.P,R3,1*%
%TO.N,Net-(D1-K)*%
X6268000Y10912000D03*
%TO.P,R3,2*%
%TO.N,Net-(Q1-D)*%
X6268000Y18532000D03*
%TD*%
%TO.P,CLR1,1*%
%TO.N,Net-(LED1-K)*%
X46482000Y18532000D03*
%TO.P,CLR1,2*%
%TO.N,/SW*%
X46482000Y10912000D03*
%TD*%
D20*
%TO.P,Q3,1,D*%
%TO.N,Net-(Q3-D)*%
X37846000Y25908000D03*
D21*
%TO.P,Q3,2,G*%
%TO.N,Net-(D3-K)*%
X40386000Y25908000D03*
%TO.P,Q3,3,S*%
%TO.N,Net-(D3-A)*%
X42926000Y25908000D03*
%TD*%
D19*
%TO.P,FID3,*%
%TO.N,*%
X47498000Y73406000D03*
%TD*%
D15*
%TO.P,C9,1*%
%TO.N,Net-(C9-Pad1)*%
X44664000Y66802000D03*
%TO.P,C9,2*%
%TO.N,GND*%
X39664000Y66802000D03*
%TD*%
D16*
%TO.P,R14,1*%
%TO.N,Net-(C5-Pad2)*%
X41709091Y60198000D03*
%TO.P,R14,2*%
%TO.N,Net-(C7-Pad2)*%
X41709091Y52578000D03*
%TD*%
D15*
%TO.P,C4,1*%
%TO.N,Net-(Q2-D)*%
X22392000Y37592000D03*
%TO.P,C4,2*%
%TO.N,Net-(D3-K)*%
X27392000Y37592000D03*
%TD*%
D24*
%TO.N,GND*%
X25400000Y53340000D03*
X38100000Y38100000D03*
X30480000Y48260000D03*
X33020000Y58420000D03*
X2540000Y68580000D03*
X2540000Y63500000D03*
X12700000Y43180000D03*
X40640000Y7620000D03*
X15240000Y5080000D03*
X10160000Y5080000D03*
X5080000Y5080000D03*
X22860000Y10160000D03*
X27940000Y10160000D03*
X27940000Y15240000D03*
X22860000Y15240000D03*
X22860000Y20320000D03*
X17780000Y20320000D03*
X45720000Y22860000D03*
X45720000Y27940000D03*
X35560000Y22860000D03*
X30480000Y22860000D03*
X35560000Y27940000D03*
X30480000Y27940000D03*
X10160000Y30480000D03*
X5080000Y30480000D03*
X10160000Y35560000D03*
X5080000Y35560000D03*
X45720000Y63500000D03*
X40640000Y63500000D03*
X27940000Y55880000D03*
X22860000Y55880000D03*
X17780000Y55880000D03*
X27940000Y63500000D03*
X20320000Y63500000D03*
X43180000Y73660000D03*
X30480000Y73660000D03*
X25400000Y73660000D03*
X12700000Y68580000D03*
X7620000Y68580000D03*
X17780000Y73660000D03*
X12700000Y73660000D03*
X7620000Y73660000D03*
D25*
%TO.N,Net-(C2-Pad2)*%
X14986000Y21844000D03*
X17526000Y28448000D03*
%TO.N,Net-(R16-Pad1)*%
X34798000Y39116000D03*
D24*
%TO.N,Net-(Q2-D)*%
X12192000Y49276000D03*
%TO.N,Net-(C7-Pad2)*%
X20320000Y46482000D03*
%TD*%
D26*
%TO.N,Net-(C5-Pad2)*%
X41402000Y33020000D02*
X42418000Y34036000D01*
X42418000Y34036000D02*
X42418000Y38837112D01*
X27432000Y33020000D02*
X41402000Y33020000D01*
%TO.N,Net-(C6-Pad1)*%
X21042000Y32806000D02*
X21042000Y28956000D01*
X20828000Y33020000D02*
X21042000Y32806000D01*
X20828000Y33020000D02*
X22432000Y33020000D01*
X19812000Y34036000D02*
X20828000Y33020000D01*
%TO.N,Net-(C2-Pad2)*%
X14986000Y21844000D02*
X11350000Y21844000D01*
X17526000Y49022000D02*
X17526000Y29210000D01*
X18542000Y50038000D02*
X17526000Y49022000D01*
X37846000Y50038000D02*
X18542000Y50038000D01*
X17526000Y29210000D02*
X17526000Y28448000D01*
X38687636Y50879636D02*
X37846000Y50038000D01*
X38687636Y52578000D02*
X38687636Y50879636D01*
%TO.N,Net-(D1-A)*%
X11430000Y31242000D02*
X11430000Y25908000D01*
X10414000Y32258000D02*
X11430000Y31242000D01*
X3556000Y32258000D02*
X10414000Y32258000D01*
X2286000Y33528000D02*
X3556000Y32258000D01*
X2286000Y50038000D02*
X2286000Y33528000D01*
X4064000Y59182000D02*
X2540000Y57658000D01*
X2540000Y55118000D02*
X1016000Y53594000D01*
X1016000Y53594000D02*
X1016000Y51308000D01*
X2540000Y57658000D02*
X2540000Y55118000D01*
X1016000Y51308000D02*
X2286000Y50038000D01*
X4772000Y62176000D02*
X4064000Y61468000D01*
X4772000Y76972000D02*
X4772000Y62176000D01*
X4064000Y61468000D02*
X4064000Y59182000D01*
%TO.N,Net-(D100-K)*%
X5842000Y51054000D02*
X8782909Y51054000D01*
X5561455Y51334545D02*
X5842000Y51054000D01*
X5561455Y52324000D02*
X5561455Y51334545D01*
%TO.N,Net-(Q3-D)*%
X37846000Y28956000D02*
X37846000Y25908000D01*
X38354000Y29464000D02*
X37846000Y28956000D01*
X45466000Y30226000D02*
X44704000Y29464000D01*
X44768888Y41337112D02*
X45466000Y40640000D01*
X44704000Y29464000D02*
X38354000Y29464000D01*
X45466000Y40640000D02*
X45466000Y30226000D01*
X42418000Y41337112D02*
X44768888Y41337112D01*
%TO.N,Net-(R16-Pad1)*%
X24892000Y39878000D02*
X24892000Y41972000D01*
X25654000Y39116000D02*
X24892000Y39878000D01*
X34798000Y39116000D02*
X25654000Y39116000D01*
%TO.N,Net-(D1-K)*%
X18288000Y17232000D02*
X18288000Y14986000D01*
X12192000Y18456000D02*
X12268000Y18532000D01*
X12192000Y14478000D02*
X6858000Y14478000D01*
X12268000Y18532000D02*
X9154000Y18532000D01*
X6350000Y13970000D02*
X6350000Y10994000D01*
X6858000Y14478000D02*
X6350000Y13970000D01*
X9154000Y18532000D02*
X9144000Y18542000D01*
X9144000Y25654000D02*
X8890000Y25908000D01*
X9144000Y18542000D02*
X9144000Y25654000D01*
X12192000Y14478000D02*
X12192000Y18456000D01*
X6350000Y10994000D02*
X6268000Y10912000D01*
X17780000Y14478000D02*
X12192000Y14478000D01*
X18288000Y14986000D02*
X17780000Y14478000D01*
%TO.N,Net-(Q1-D)*%
X6268000Y21762000D02*
X6350000Y21844000D01*
X6268000Y18532000D02*
X6268000Y21762000D01*
X3268000Y18532000D02*
X6268000Y18532000D01*
X6350000Y21844000D02*
X6350000Y25908000D01*
%TO.N,Net-(D2-K)*%
X16510000Y52324000D02*
X15240000Y52324000D01*
X35800727Y69101273D02*
X37592000Y67310000D01*
X25400000Y59436000D02*
X24638000Y58674000D01*
X24638000Y58674000D02*
X17272000Y58674000D01*
X38687636Y63420364D02*
X38687636Y60198000D01*
X37592000Y67310000D02*
X37592000Y64516000D01*
X35800727Y70866000D02*
X35800727Y69101273D01*
X37592000Y64516000D02*
X38687636Y63420364D01*
X16764000Y58166000D02*
X16764000Y52578000D01*
X25400000Y68072000D02*
X25400000Y59436000D01*
X17272000Y58674000D02*
X16764000Y58166000D01*
X16764000Y52578000D02*
X16510000Y52324000D01*
%TO.N,Net-(Q2-D)*%
X12192000Y49276000D02*
X12192000Y52324000D01*
X22860000Y68072000D02*
X22860000Y60452000D01*
X22352000Y59944000D02*
X15240000Y59944000D01*
X22860000Y60452000D02*
X22352000Y59944000D01*
%TO.N,Net-(D3-K)*%
X40386000Y18532000D02*
X43424000Y18532000D01*
X43424000Y18532000D02*
X43434000Y18542000D01*
X40386000Y25908000D02*
X40386000Y18532000D01*
%TO.N,Net-(Q3-D)*%
X37846000Y20574000D02*
X37338000Y20066000D01*
X37846000Y25908000D02*
X37846000Y20574000D01*
X37338000Y20066000D02*
X37338000Y18532000D01*
%TO.N,Net-(C6-Pad1)*%
X19812000Y34036000D02*
X19812000Y41972000D01*
%TO.N,Net-(C7-Pad2)*%
X41656000Y52524909D02*
X41709091Y52578000D01*
X29972000Y45974000D02*
X29972000Y41972000D01*
X29464000Y46482000D02*
X29972000Y45974000D01*
X39432000Y41972000D02*
X39878000Y42418000D01*
X41148000Y48768000D02*
X41656000Y49276000D01*
X29972000Y41972000D02*
X39432000Y41972000D01*
X39878000Y48260000D02*
X40386000Y48768000D01*
X41656000Y49276000D02*
X41656000Y52524909D01*
X39878000Y42418000D02*
X39878000Y48260000D01*
X20320000Y46482000D02*
X29464000Y46482000D01*
X40386000Y48768000D02*
X41148000Y48768000D01*
%TO.N,Net-(C8-Pad1)*%
X47752000Y57912000D02*
X47752000Y60198000D01*
X44730545Y54890545D02*
X47752000Y57912000D01*
X44704000Y47244000D02*
X44704000Y52551455D01*
X44730545Y52578000D02*
X44730545Y54890545D01*
X44704000Y52551455D02*
X44730545Y52578000D01*
X43942000Y46482000D02*
X44704000Y47244000D01*
X42418000Y46482000D02*
X43942000Y46482000D01*
%TO.N,Net-(C9-Pad1)*%
X37084000Y72644000D02*
X37592000Y72136000D01*
X44704000Y68326000D02*
X44704000Y68072000D01*
X44196000Y68834000D02*
X44704000Y68326000D01*
X44704000Y68072000D02*
X44704000Y66842000D01*
X37592000Y69342000D02*
X38100000Y68834000D01*
X34772000Y76972000D02*
X34772000Y72924000D01*
X44730545Y60198000D02*
X44730545Y66735455D01*
X35052000Y72644000D02*
X37084000Y72644000D01*
X44730545Y66735455D02*
X44664000Y66802000D01*
X37592000Y72136000D02*
X37592000Y69342000D01*
X34772000Y72924000D02*
X35052000Y72644000D01*
X38100000Y68834000D02*
X44196000Y68834000D01*
D27*
%TO.N,VCC*%
X3268000Y9178000D02*
X4064000Y8382000D01*
X5588000Y58166000D02*
X5561455Y58192545D01*
X12192000Y59944000D02*
X12192000Y58420000D01*
X37338000Y9144000D02*
X37338000Y10912000D01*
X4064000Y42418000D02*
X5144888Y41337112D01*
X5561455Y58192545D02*
X5561455Y59944000D01*
X4064000Y57658000D02*
X4064000Y42418000D01*
X36576000Y8382000D02*
X37338000Y9144000D01*
X3268000Y10912000D02*
X3268000Y9178000D01*
X12192000Y58420000D02*
X11938000Y58166000D01*
X5588000Y58166000D02*
X4572000Y58166000D01*
X4572000Y58166000D02*
X4064000Y57658000D01*
X5144888Y41337112D02*
X8636000Y41337112D01*
X11938000Y58166000D02*
X5588000Y58166000D01*
X4064000Y8382000D02*
X36576000Y8382000D01*
D26*
%TO.N,Net-(D2-A)*%
X35800727Y67550727D02*
X35800727Y63246000D01*
D27*
X35800727Y60211273D02*
X35814000Y60198000D01*
X35800727Y63246000D02*
X35800727Y60211273D01*
D26*
X27940000Y68072000D02*
X35306000Y68072000D01*
X35306000Y68072000D02*
X35814000Y67564000D01*
X35814000Y67564000D02*
X35800727Y67550727D01*
%TO.N,Net-(D3-A)*%
X42926000Y22606000D02*
X42926000Y25908000D01*
X43434000Y10922000D02*
X43434000Y12446000D01*
X43180000Y22352000D02*
X42926000Y22606000D01*
X44958000Y21844000D02*
X44450000Y22352000D01*
X44450000Y22352000D02*
X43180000Y22352000D01*
X43434000Y12446000D02*
X44958000Y13970000D01*
X44958000Y13970000D02*
X44958000Y21844000D01*
D27*
%TO.N,/+*%
X15240000Y67564000D02*
X20320000Y67564000D01*
X13716000Y61976000D02*
X14478000Y62738000D01*
X9652000Y61214000D02*
X10414000Y61976000D01*
X13716000Y61722000D02*
X13716000Y49784000D01*
X13462000Y61976000D02*
X13716000Y61722000D01*
X20320000Y67564000D02*
X21082000Y68326000D01*
X8782909Y61214000D02*
X9652000Y61214000D01*
X14986000Y48514000D02*
X14986000Y26416000D01*
X14986000Y26416000D02*
X16002000Y25400000D01*
X14478000Y66802000D02*
X15240000Y67564000D01*
X10414000Y61976000D02*
X13462000Y61976000D01*
X22098000Y72898000D02*
X22098000Y76997000D01*
X16002000Y25400000D02*
X23550000Y25400000D01*
X13462000Y61976000D02*
X13716000Y61976000D01*
X23550000Y25400000D02*
X23622000Y25472000D01*
X13716000Y49784000D02*
X14986000Y48514000D01*
X21082000Y71882000D02*
X22098000Y72898000D01*
X21082000Y68326000D02*
X21082000Y71882000D01*
X14478000Y62738000D02*
X14478000Y66802000D01*
D26*
%TO.N,/OUT*%
X48514000Y70104000D02*
X49276000Y69342000D01*
X39852000Y76972000D02*
X39852000Y70638000D01*
X48514000Y3302000D02*
X28332000Y3302000D01*
X39852000Y70638000D02*
X40386000Y70104000D01*
X49276000Y4064000D02*
X48514000Y3302000D01*
X40386000Y70104000D02*
X48514000Y70104000D01*
X49276000Y69342000D02*
X49276000Y4064000D01*
%TD*%
%TA.AperFunction,Conductor*%
%TO.N,GND*%
G36*
X48260231Y69433815D02*
G01*
X48280873Y69417181D01*
X48589181Y69108873D01*
X48622666Y69047550D01*
X48625500Y69021192D01*
X48625500Y61290629D01*
X48605815Y61223590D01*
X48553011Y61177835D01*
X48483853Y61167891D01*
X48428615Y61190311D01*
X48381202Y61224758D01*
X48381201Y61224759D01*
X48381199Y61224760D01*
X48328620Y61251550D01*
X48212836Y61310546D01*
X48033118Y61368941D01*
X47846486Y61398500D01*
X47846481Y61398500D01*
X47657519Y61398500D01*
X47657514Y61398500D01*
X47470881Y61368941D01*
X47291163Y61310546D01*
X47122800Y61224760D01*
X47044528Y61167891D01*
X46969927Y61113690D01*
X46969925Y61113688D01*
X46969924Y61113688D01*
X46836312Y60980076D01*
X46836312Y60980075D01*
X46836310Y60980073D01*
X46809463Y60943121D01*
X46725240Y60827200D01*
X46639454Y60658837D01*
X46581059Y60479119D01*
X46551500Y60292487D01*
X46551500Y60103514D01*
X46581059Y59916882D01*
X46639454Y59737164D01*
X46682384Y59652910D01*
X46725240Y59568801D01*
X46836310Y59415927D01*
X46836312Y59415925D01*
X46969930Y59282307D01*
X47050384Y59223855D01*
X47093051Y59168525D01*
X47101500Y59123536D01*
X47101500Y58232809D01*
X47081815Y58165770D01*
X47065181Y58145128D01*
X44225272Y55305220D01*
X44225271Y55305219D01*
X44154079Y55198671D01*
X44105044Y55080290D01*
X44105042Y55080284D01*
X44080045Y54954617D01*
X44080045Y53652466D01*
X44060360Y53585427D01*
X44028932Y53552149D01*
X43948472Y53493691D01*
X43948472Y53493690D01*
X43814857Y53360076D01*
X43814857Y53360075D01*
X43814855Y53360073D01*
X43807239Y53349590D01*
X43703785Y53207200D01*
X43617999Y53038837D01*
X43559604Y52859119D01*
X43530045Y52672487D01*
X43530045Y52483514D01*
X43559604Y52296882D01*
X43617999Y52117164D01*
X43703649Y51949067D01*
X43703785Y51948801D01*
X43814855Y51795927D01*
X43814857Y51795925D01*
X43948475Y51662307D01*
X44002384Y51623141D01*
X44045051Y51567812D01*
X44053500Y51522822D01*
X44053500Y47564808D01*
X44033815Y47497769D01*
X44017181Y47477127D01*
X43708873Y47168819D01*
X43681945Y47154116D01*
X43656127Y47137523D01*
X43649926Y47136632D01*
X43647550Y47135334D01*
X43621192Y47132500D01*
X43616071Y47132500D01*
X43549032Y47152185D01*
X43515754Y47183614D01*
X43409966Y47329219D01*
X43265219Y47473966D01*
X43265213Y47473972D01*
X43099613Y47594285D01*
X43099612Y47594286D01*
X43099610Y47594287D01*
X43042653Y47623309D01*
X42917223Y47687219D01*
X42722534Y47750478D01*
X42547995Y47778122D01*
X42520352Y47782500D01*
X42315648Y47782500D01*
X42291329Y47778649D01*
X42113465Y47750478D01*
X41918776Y47687219D01*
X41736386Y47594285D01*
X41570786Y47473972D01*
X41426028Y47329214D01*
X41305715Y47163614D01*
X41212781Y46981224D01*
X41149522Y46786535D01*
X41117500Y46584352D01*
X41117500Y46379649D01*
X41149522Y46177466D01*
X41212781Y45982777D01*
X41276691Y45857347D01*
X41305585Y45800641D01*
X41305715Y45800387D01*
X41426028Y45634787D01*
X41570786Y45490029D01*
X41691226Y45402526D01*
X41736390Y45369713D01*
X41852607Y45310497D01*
X41918776Y45276782D01*
X41918778Y45276782D01*
X41918781Y45276780D01*
X42023137Y45242873D01*
X42113465Y45213523D01*
X42214557Y45197512D01*
X42315648Y45181500D01*
X42315649Y45181500D01*
X42520351Y45181500D01*
X42520352Y45181500D01*
X42722534Y45213523D01*
X42917219Y45276780D01*
X43099610Y45369713D01*
X43192590Y45437268D01*
X43265213Y45490029D01*
X43265215Y45490032D01*
X43265219Y45490034D01*
X43409966Y45634781D01*
X43515753Y45780387D01*
X43571082Y45823051D01*
X43616071Y45831500D01*
X44006071Y45831500D01*
X44090615Y45848318D01*
X44131744Y45856499D01*
X44250127Y45905535D01*
X44256708Y45909932D01*
X44356669Y45976723D01*
X45209277Y46829331D01*
X45280465Y46935873D01*
X45301757Y46987277D01*
X45329501Y47054256D01*
X45346064Y47137523D01*
X45354500Y47179929D01*
X45354500Y51484250D01*
X45374185Y51551289D01*
X45405613Y51584567D01*
X45512618Y51662310D01*
X45646235Y51795927D01*
X45757305Y51948801D01*
X45843092Y52117168D01*
X45901485Y52296882D01*
X45915957Y52388256D01*
X45931045Y52483514D01*
X45931045Y52672487D01*
X45901485Y52859119D01*
X45843090Y53038837D01*
X45787334Y53148263D01*
X45757305Y53207199D01*
X45646235Y53360073D01*
X45512618Y53493690D01*
X45512617Y53493691D01*
X45432158Y53552149D01*
X45389493Y53607479D01*
X45381045Y53652466D01*
X45381045Y54569737D01*
X45400730Y54636776D01*
X45417364Y54657418D01*
X48257272Y57497326D01*
X48257277Y57497331D01*
X48328466Y57603874D01*
X48367595Y57698342D01*
X48377501Y57722256D01*
X48381332Y57741518D01*
X48383643Y57748582D01*
X48399380Y57771504D01*
X48412267Y57796139D01*
X48418881Y57799906D01*
X48423191Y57806182D01*
X48448826Y57816958D01*
X48472983Y57830713D01*
X48480583Y57830306D01*
X48487602Y57833256D01*
X48514991Y57828462D01*
X48542752Y57826974D01*
X48548926Y57822522D01*
X48556426Y57821209D01*
X48576873Y57802370D01*
X48599425Y57786108D01*
X48602212Y57779024D01*
X48607810Y57773866D01*
X48614825Y57746966D01*
X48625006Y57721090D01*
X48625500Y57710037D01*
X48625500Y53670629D01*
X48605815Y53603590D01*
X48553011Y53557835D01*
X48483853Y53547891D01*
X48428615Y53570311D01*
X48381202Y53604758D01*
X48381201Y53604759D01*
X48381199Y53604760D01*
X48328620Y53631550D01*
X48212836Y53690546D01*
X48033118Y53748941D01*
X47846486Y53778500D01*
X47846481Y53778500D01*
X47657519Y53778500D01*
X47657514Y53778500D01*
X47470881Y53748941D01*
X47291163Y53690546D01*
X47122800Y53604760D01*
X46969924Y53493688D01*
X46836312Y53360076D01*
X46836312Y53360075D01*
X46836310Y53360073D01*
X46828694Y53349590D01*
X46725240Y53207200D01*
X46639454Y53038837D01*
X46581059Y52859119D01*
X46551500Y52672487D01*
X46551500Y52483514D01*
X46581059Y52296882D01*
X46639454Y52117164D01*
X46725104Y51949067D01*
X46725240Y51948801D01*
X46836310Y51795927D01*
X46969927Y51662310D01*
X47122801Y51551240D01*
X47154590Y51535043D01*
X47291163Y51465455D01*
X47291165Y51465455D01*
X47291168Y51465453D01*
X47387497Y51434154D01*
X47470881Y51407060D01*
X47657514Y51377500D01*
X47657519Y51377500D01*
X47846486Y51377500D01*
X48033118Y51407060D01*
X48036974Y51408313D01*
X48212832Y51465453D01*
X48381199Y51551240D01*
X48428614Y51585690D01*
X48494419Y51609170D01*
X48562474Y51593345D01*
X48611169Y51543240D01*
X48625500Y51485372D01*
X48625500Y4384808D01*
X48605815Y4317769D01*
X48589181Y4297127D01*
X48280873Y3988819D01*
X48219550Y3955334D01*
X48193192Y3952500D01*
X29591618Y3952500D01*
X29524579Y3972185D01*
X29490900Y4006592D01*
X29489915Y4005875D01*
X29362109Y4181787D01*
X29211786Y4332110D01*
X29039820Y4457049D01*
X28850414Y4553556D01*
X28850413Y4553557D01*
X28850412Y4553557D01*
X28648243Y4619246D01*
X28648241Y4619247D01*
X28648240Y4619247D01*
X28486957Y4644792D01*
X28438287Y4652500D01*
X28225713Y4652500D01*
X28177042Y4644792D01*
X28015760Y4619247D01*
X27813585Y4553556D01*
X27624179Y4457049D01*
X27452213Y4332110D01*
X27301890Y4181787D01*
X27176949Y4009818D01*
X27172484Y4001054D01*
X27124509Y3950258D01*
X27056688Y3933464D01*
X26990553Y3956002D01*
X26951516Y4001054D01*
X26947050Y4009818D01*
X26822109Y4181787D01*
X26671786Y4332110D01*
X26499820Y4457049D01*
X26310414Y4553556D01*
X26310413Y4553557D01*
X26310412Y4553557D01*
X26108243Y4619246D01*
X26108241Y4619247D01*
X26108240Y4619247D01*
X25946957Y4644792D01*
X25898287Y4652500D01*
X25685713Y4652500D01*
X25637042Y4644792D01*
X25475760Y4619247D01*
X25273585Y4553556D01*
X25084179Y4457049D01*
X24912213Y4332110D01*
X24761890Y4181787D01*
X24636949Y4009818D01*
X24632202Y4000501D01*
X24584227Y3949707D01*
X24516405Y3932913D01*
X24450271Y3955452D01*
X24411234Y4000505D01*
X24406626Y4009548D01*
X24367270Y4063718D01*
X24367269Y4063718D01*
X23734962Y3431410D01*
X23717925Y3494993D01*
X23652099Y3609007D01*
X23559007Y3702099D01*
X23444993Y3767925D01*
X23381409Y3784963D01*
X24013716Y4417272D01*
X23959550Y4456625D01*
X23770217Y4553096D01*
X23568129Y4618758D01*
X23358246Y4652000D01*
X23145754Y4652000D01*
X22935872Y4618758D01*
X22935869Y4618758D01*
X22733782Y4553096D01*
X22544439Y4456620D01*
X22490282Y4417273D01*
X22490282Y4417272D01*
X23122591Y3784963D01*
X23059007Y3767925D01*
X22944993Y3702099D01*
X22851901Y3609007D01*
X22786075Y3494993D01*
X22769037Y3431409D01*
X22098818Y4101628D01*
X22065333Y4162951D01*
X22065330Y4162964D01*
X22062499Y4175985D01*
X22062499Y4199872D01*
X22056091Y4259483D01*
X22009348Y4384808D01*
X22005798Y4394327D01*
X22005793Y4394336D01*
X21919547Y4509545D01*
X21919544Y4509548D01*
X21804335Y4595794D01*
X21804328Y4595798D01*
X21669482Y4646092D01*
X21669483Y4646092D01*
X21609883Y4652499D01*
X21609881Y4652500D01*
X21609873Y4652500D01*
X21609864Y4652500D01*
X19814129Y4652500D01*
X19814123Y4652499D01*
X19754516Y4646092D01*
X19619671Y4595798D01*
X19619664Y4595794D01*
X19504455Y4509548D01*
X19504452Y4509545D01*
X19418206Y4394336D01*
X19418202Y4394329D01*
X19367908Y4259483D01*
X19361501Y4199884D01*
X19361500Y4199865D01*
X19361500Y2404130D01*
X19361501Y2404124D01*
X19367908Y2344517D01*
X19418202Y2209672D01*
X19418206Y2209665D01*
X19504452Y2094456D01*
X19504455Y2094453D01*
X19619664Y2008207D01*
X19619671Y2008203D01*
X19754517Y1957909D01*
X19754516Y1957909D01*
X19761444Y1957165D01*
X19814127Y1951500D01*
X21609872Y1951501D01*
X21669483Y1957909D01*
X21804331Y2008204D01*
X21919546Y2094454D01*
X22005796Y2209669D01*
X22056091Y2344517D01*
X22062500Y2404127D01*
X22062499Y2428021D01*
X22065330Y2441037D01*
X22075940Y2460475D01*
X22082179Y2481725D01*
X22098803Y2502357D01*
X22098808Y2502364D01*
X22098811Y2502366D01*
X22098818Y2502374D01*
X22769037Y3172592D01*
X22786075Y3109007D01*
X22851901Y2994993D01*
X22944993Y2901901D01*
X23059007Y2836075D01*
X23122590Y2819038D01*
X22490282Y2186731D01*
X22490282Y2186730D01*
X22544449Y2147376D01*
X22733782Y2050905D01*
X22935870Y1985243D01*
X23145754Y1952000D01*
X23358246Y1952000D01*
X23568127Y1985243D01*
X23568130Y1985243D01*
X23770217Y2050905D01*
X23959554Y2147378D01*
X24013716Y2186730D01*
X24013717Y2186730D01*
X23381408Y2819038D01*
X23444993Y2836075D01*
X23559007Y2901901D01*
X23652099Y2994993D01*
X23717925Y3109007D01*
X23734962Y3172592D01*
X24367270Y2540283D01*
X24367270Y2540284D01*
X24406622Y2594445D01*
X24411232Y2603493D01*
X24459205Y2654291D01*
X24527025Y2671088D01*
X24593161Y2648553D01*
X24632204Y2603496D01*
X24636949Y2594183D01*
X24761890Y2422214D01*
X24912213Y2271891D01*
X25084179Y2146952D01*
X25084181Y2146951D01*
X25084184Y2146949D01*
X25273588Y2050443D01*
X25475757Y1984754D01*
X25685713Y1951500D01*
X25685714Y1951500D01*
X25898286Y1951500D01*
X25898287Y1951500D01*
X26108243Y1984754D01*
X26310412Y2050443D01*
X26499816Y2146949D01*
X26586138Y2209665D01*
X26671786Y2271891D01*
X26671788Y2271894D01*
X26671792Y2271896D01*
X26822104Y2422208D01*
X26822106Y2422212D01*
X26822109Y2422214D01*
X26947048Y2594180D01*
X26947050Y2594183D01*
X26947051Y2594184D01*
X26951514Y2602946D01*
X26999488Y2653741D01*
X27067308Y2670537D01*
X27133444Y2648001D01*
X27172486Y2602944D01*
X27176951Y2594180D01*
X27301890Y2422214D01*
X27452213Y2271891D01*
X27624179Y2146952D01*
X27624181Y2146951D01*
X27624184Y2146949D01*
X27813588Y2050443D01*
X28015757Y1984754D01*
X28225713Y1951500D01*
X28225714Y1951500D01*
X28438286Y1951500D01*
X28438287Y1951500D01*
X28648243Y1984754D01*
X28850412Y2050443D01*
X29039816Y2146949D01*
X29126138Y2209665D01*
X29211786Y2271891D01*
X29211788Y2271894D01*
X29211792Y2271896D01*
X29362104Y2422208D01*
X29362106Y2422212D01*
X29362109Y2422214D01*
X29489915Y2598125D01*
X29491259Y2597149D01*
X29537705Y2639166D01*
X29591618Y2651500D01*
X29978000Y2651500D01*
X30045039Y2631815D01*
X30090794Y2579011D01*
X30102000Y2527500D01*
X30102000Y596500D01*
X30082315Y529461D01*
X30029511Y483706D01*
X29978000Y472500D01*
X3025751Y472500D01*
X3018264Y472726D01*
X2728205Y490272D01*
X2713340Y492077D01*
X2431201Y543781D01*
X2416663Y547365D01*
X2142832Y632694D01*
X2128831Y638003D01*
X1867263Y755725D01*
X1854004Y762684D01*
X1608540Y911072D01*
X1596217Y919578D01*
X1370426Y1096474D01*
X1359218Y1106404D01*
X1156403Y1309219D01*
X1146473Y1320427D01*
X969573Y1546224D01*
X961075Y1558535D01*
X812680Y1804011D01*
X805727Y1817257D01*
X688000Y2078837D01*
X682693Y2092833D01*
X682188Y2094453D01*
X597363Y2366665D01*
X593780Y2381202D01*
X575358Y2481725D01*
X542075Y2663343D01*
X540271Y2678206D01*
X528186Y2877996D01*
X528028Y2880611D01*
X1185500Y2880611D01*
X1185500Y2707389D01*
X1190393Y2676498D01*
X1212011Y2540000D01*
X1212598Y2536299D01*
X1266127Y2371555D01*
X1344768Y2217212D01*
X1446586Y2077072D01*
X1569072Y1954586D01*
X1709212Y1852768D01*
X1863555Y1774127D01*
X2028299Y1720598D01*
X2199389Y1693500D01*
X2199390Y1693500D01*
X2372610Y1693500D01*
X2372611Y1693500D01*
X2543701Y1720598D01*
X2708445Y1774127D01*
X2862788Y1852768D01*
X3002928Y1954586D01*
X3125414Y2077072D01*
X3227232Y2217212D01*
X3305873Y2371555D01*
X3359402Y2536299D01*
X3386500Y2707389D01*
X3386500Y2880611D01*
X3359402Y3051701D01*
X3305873Y3216445D01*
X3227232Y3370788D01*
X3125414Y3510928D01*
X3002928Y3633414D01*
X2862788Y3735232D01*
X2708445Y3813873D01*
X2543701Y3867402D01*
X2543699Y3867403D01*
X2543698Y3867403D01*
X2412271Y3888219D01*
X2372611Y3894500D01*
X2199389Y3894500D01*
X2159728Y3888219D01*
X2028302Y3867403D01*
X1863552Y3813872D01*
X1709211Y3735232D01*
X1663608Y3702099D01*
X1569072Y3633414D01*
X1569070Y3633412D01*
X1569069Y3633412D01*
X1446588Y3510931D01*
X1446588Y3510930D01*
X1446586Y3510928D01*
X1435009Y3494993D01*
X1344768Y3370789D01*
X1266128Y3216448D01*
X1266127Y3216446D01*
X1266127Y3216445D01*
X1255554Y3183905D01*
X1212597Y3051698D01*
X1199383Y2968264D01*
X1185500Y2880611D01*
X528028Y2880611D01*
X522726Y2968264D01*
X522500Y2975751D01*
X522500Y11006487D01*
X2067500Y11006487D01*
X2067500Y10817514D01*
X2097059Y10630882D01*
X2155454Y10451164D01*
X2241104Y10283067D01*
X2241240Y10282801D01*
X2352310Y10129927D01*
X2352312Y10129925D01*
X2481181Y10001056D01*
X2514666Y9939733D01*
X2517500Y9913375D01*
X2517500Y9104082D01*
X2517500Y9104080D01*
X2517499Y9104080D01*
X2546340Y8959093D01*
X2546343Y8959083D01*
X2602914Y8822508D01*
X2625633Y8788507D01*
X2625634Y8788504D01*
X2685046Y8699586D01*
X2685052Y8699579D01*
X3585584Y7799048D01*
X3585586Y7799046D01*
X3615058Y7779355D01*
X3659270Y7749814D01*
X3708505Y7716916D01*
X3708506Y7716916D01*
X3708507Y7716915D01*
X3708509Y7716914D01*
X3845082Y7660344D01*
X3845087Y7660342D01*
X3845091Y7660342D01*
X3845092Y7660341D01*
X3990079Y7631500D01*
X3990082Y7631500D01*
X36649920Y7631500D01*
X36747462Y7650904D01*
X36794913Y7660342D01*
X36931495Y7716916D01*
X36980729Y7749814D01*
X36980734Y7749817D01*
X37005071Y7766079D01*
X37054416Y7799048D01*
X37920952Y8665584D01*
X37970186Y8739271D01*
X38003084Y8788505D01*
X38026518Y8845080D01*
X38059659Y8925088D01*
X38088500Y9070083D01*
X38088500Y9217918D01*
X38088500Y9904118D01*
X39731669Y9904118D01*
X39731670Y9904117D01*
X39757059Y9885671D01*
X39925362Y9799915D01*
X40104997Y9741549D01*
X40291553Y9712000D01*
X40480447Y9712000D01*
X40667002Y9741549D01*
X40846637Y9799915D01*
X41014937Y9885669D01*
X41040328Y9904117D01*
X41040328Y9904118D01*
X40386001Y10558446D01*
X40386000Y10558446D01*
X39731669Y9904118D01*
X38088500Y9904118D01*
X38088500Y9913375D01*
X38097144Y9942816D01*
X38103668Y9972802D01*
X38107422Y9977818D01*
X38108185Y9980414D01*
X38124819Y10001056D01*
X38162821Y10039058D01*
X38198550Y10074787D01*
X38253690Y10129927D01*
X38364760Y10282801D01*
X38450547Y10451168D01*
X38508940Y10630882D01*
X38519427Y10697095D01*
X38538500Y10817514D01*
X38538500Y11006448D01*
X39186000Y11006448D01*
X39186000Y10817553D01*
X39215548Y10630998D01*
X39273914Y10451363D01*
X39359666Y10283067D01*
X39378116Y10257672D01*
X40032446Y10912000D01*
X40032446Y10912001D01*
X39986369Y10958078D01*
X40036000Y10958078D01*
X40036000Y10865922D01*
X40059852Y10776905D01*
X40105930Y10697095D01*
X40171095Y10631930D01*
X40250905Y10585852D01*
X40339922Y10562000D01*
X40432078Y10562000D01*
X40521095Y10585852D01*
X40600905Y10631930D01*
X40666070Y10697095D01*
X40712148Y10776905D01*
X40736000Y10865922D01*
X40736000Y10912001D01*
X40739554Y10912001D01*
X40739554Y10912000D01*
X41393882Y10257672D01*
X41393883Y10257672D01*
X41412331Y10283063D01*
X41498085Y10451363D01*
X41556451Y10630998D01*
X41586000Y10817553D01*
X41586000Y11006448D01*
X41556451Y11193003D01*
X41498085Y11372638D01*
X41412329Y11540941D01*
X41393883Y11566330D01*
X41393882Y11566331D01*
X40739554Y10912001D01*
X40736000Y10912001D01*
X40736000Y10958078D01*
X40712148Y11047095D01*
X40666070Y11126905D01*
X40600905Y11192070D01*
X40521095Y11238148D01*
X40432078Y11262000D01*
X40339922Y11262000D01*
X40250905Y11238148D01*
X40171095Y11192070D01*
X40105930Y11126905D01*
X40059852Y11047095D01*
X40036000Y10958078D01*
X39986369Y10958078D01*
X39378116Y11566331D01*
X39378116Y11566330D01*
X39359669Y11540940D01*
X39273914Y11372638D01*
X39215548Y11193003D01*
X39186000Y11006448D01*
X38538500Y11006448D01*
X38538500Y11006487D01*
X38508940Y11193119D01*
X38450545Y11372837D01*
X38405290Y11461653D01*
X38364760Y11541199D01*
X38253690Y11694073D01*
X38120073Y11827690D01*
X37993179Y11919884D01*
X39731669Y11919884D01*
X40386000Y11265554D01*
X40386001Y11265554D01*
X41040328Y11919884D01*
X41014933Y11938334D01*
X40846637Y12024086D01*
X40667002Y12082452D01*
X40480447Y12112000D01*
X40291553Y12112000D01*
X40104997Y12082452D01*
X39925362Y12024086D01*
X39757060Y11938331D01*
X39731670Y11919884D01*
X39731669Y11919884D01*
X37993179Y11919884D01*
X37967199Y11938760D01*
X37961062Y11941887D01*
X37798836Y12024546D01*
X37619118Y12082941D01*
X37432486Y12112500D01*
X37432481Y12112500D01*
X37243519Y12112500D01*
X37243514Y12112500D01*
X37056881Y12082941D01*
X36877163Y12024546D01*
X36708800Y11938760D01*
X36674675Y11913966D01*
X36555927Y11827690D01*
X36555925Y11827688D01*
X36555924Y11827688D01*
X36422312Y11694076D01*
X36422312Y11694075D01*
X36422310Y11694073D01*
X36374610Y11628421D01*
X36311240Y11541200D01*
X36225454Y11372837D01*
X36167059Y11193119D01*
X36137500Y11006487D01*
X36137500Y10817514D01*
X36167059Y10630882D01*
X36225454Y10451164D01*
X36311104Y10283067D01*
X36311240Y10282801D01*
X36422310Y10129927D01*
X36422312Y10129925D01*
X36551181Y10001056D01*
X36584666Y9939733D01*
X36587500Y9913375D01*
X36587500Y9506230D01*
X36567815Y9439191D01*
X36551181Y9418549D01*
X36301451Y9168819D01*
X36240128Y9135334D01*
X36213770Y9132500D01*
X4426230Y9132500D01*
X4359191Y9152185D01*
X4338549Y9168819D01*
X4054819Y9452549D01*
X4021334Y9513872D01*
X4018500Y9540230D01*
X4018500Y9913375D01*
X4038185Y9980414D01*
X4054819Y10001056D01*
X4092821Y10039058D01*
X4183690Y10129927D01*
X4294760Y10282801D01*
X4380547Y10451168D01*
X4438940Y10630882D01*
X4449427Y10697095D01*
X4468500Y10817514D01*
X4468500Y11006487D01*
X4438940Y11193119D01*
X4380545Y11372837D01*
X4335290Y11461653D01*
X4294760Y11541199D01*
X4183690Y11694073D01*
X4050073Y11827690D01*
X3897199Y11938760D01*
X3891062Y11941887D01*
X3728836Y12024546D01*
X3549118Y12082941D01*
X3362486Y12112500D01*
X3362481Y12112500D01*
X3173519Y12112500D01*
X3173514Y12112500D01*
X2986881Y12082941D01*
X2807163Y12024546D01*
X2638800Y11938760D01*
X2604675Y11913966D01*
X2485927Y11827690D01*
X2485925Y11827688D01*
X2485924Y11827688D01*
X2352312Y11694076D01*
X2352312Y11694075D01*
X2352310Y11694073D01*
X2304610Y11628421D01*
X2241240Y11541200D01*
X2155454Y11372837D01*
X2097059Y11193119D01*
X2067500Y11006487D01*
X522500Y11006487D01*
X522500Y31372000D01*
X542185Y31439039D01*
X594989Y31484794D01*
X646500Y31496000D01*
X3556000Y31496000D01*
X3561196Y31501197D01*
X3575685Y31550539D01*
X3628489Y31596294D01*
X3680000Y31607500D01*
X10093192Y31607500D01*
X10160231Y31587815D01*
X10180873Y31571181D01*
X10743181Y31008873D01*
X10776666Y30947550D01*
X10779500Y30921192D01*
X10779500Y27044269D01*
X10759815Y26977230D01*
X10728386Y26943951D01*
X10615352Y26861827D01*
X10476174Y26722649D01*
X10476174Y26722648D01*
X10476172Y26722646D01*
X10463980Y26705865D01*
X10360476Y26563406D01*
X10270485Y26386787D01*
X10222511Y26335991D01*
X10154690Y26319196D01*
X10088555Y26341733D01*
X10049515Y26386787D01*
X10002284Y26479483D01*
X9959524Y26563405D01*
X9843828Y26722646D01*
X9704646Y26861828D01*
X9545405Y26977524D01*
X9540498Y26980024D01*
X9370029Y27066883D01*
X9182826Y27127710D01*
X8988422Y27158500D01*
X8988417Y27158500D01*
X8791583Y27158500D01*
X8791578Y27158500D01*
X8597173Y27127710D01*
X8409970Y27066883D01*
X8234594Y26977524D01*
X8143741Y26911515D01*
X8075354Y26861828D01*
X8075352Y26861826D01*
X8075351Y26861826D01*
X7936173Y26722648D01*
X7824817Y26569380D01*
X7769486Y26526715D01*
X7699873Y26520736D01*
X7638078Y26553342D01*
X7603721Y26614181D01*
X7600499Y26642266D01*
X7600499Y26705871D01*
X7600498Y26705877D01*
X7600497Y26705884D01*
X7594091Y26765483D01*
X7592445Y26769895D01*
X7543797Y26900329D01*
X7543793Y26900336D01*
X7457547Y27015545D01*
X7457544Y27015548D01*
X7342335Y27101794D01*
X7342328Y27101798D01*
X7207482Y27152092D01*
X7207483Y27152092D01*
X7147883Y27158499D01*
X7147881Y27158500D01*
X7147873Y27158500D01*
X7147864Y27158500D01*
X5552129Y27158500D01*
X5552123Y27158499D01*
X5492516Y27152092D01*
X5357671Y27101798D01*
X5357664Y27101794D01*
X5242455Y27015548D01*
X5242452Y27015545D01*
X5156206Y26900336D01*
X5156202Y26900329D01*
X5105908Y26765483D01*
X5101303Y26722646D01*
X5099501Y26705877D01*
X5099500Y26705865D01*
X5099500Y25110130D01*
X5099501Y25110124D01*
X5105908Y25050517D01*
X5156202Y24915672D01*
X5156206Y24915665D01*
X5242452Y24800456D01*
X5242455Y24800453D01*
X5357664Y24714207D01*
X5357671Y24714203D01*
X5367841Y24710410D01*
X5492517Y24663909D01*
X5552127Y24657500D01*
X5575497Y24657501D01*
X5642536Y24637819D01*
X5688292Y24585017D01*
X5699500Y24533501D01*
X5699500Y23042072D01*
X5679815Y22975033D01*
X5648385Y22941754D01*
X5502787Y22835972D01*
X5502782Y22835968D01*
X5358028Y22691214D01*
X5237715Y22525614D01*
X5144781Y22343224D01*
X5081522Y22148535D01*
X5049500Y21946352D01*
X5049500Y21741649D01*
X5081522Y21539466D01*
X5144781Y21344777D01*
X5237715Y21162387D01*
X5358028Y20996787D01*
X5502784Y20852031D01*
X5566385Y20805823D01*
X5609051Y20750494D01*
X5617500Y20705505D01*
X5617500Y19606466D01*
X5597815Y19539427D01*
X5566387Y19506149D01*
X5485927Y19447691D01*
X5352311Y19314075D01*
X5293853Y19233614D01*
X5238522Y19190949D01*
X5193535Y19182500D01*
X4342465Y19182500D01*
X4275426Y19202185D01*
X4242147Y19233614D01*
X4217530Y19267496D01*
X4183690Y19314073D01*
X4050073Y19447690D01*
X3897199Y19558760D01*
X3878766Y19568152D01*
X3728836Y19644546D01*
X3549118Y19702941D01*
X3362486Y19732500D01*
X3362481Y19732500D01*
X3173519Y19732500D01*
X3173514Y19732500D01*
X2986881Y19702941D01*
X2807163Y19644546D01*
X2638800Y19558760D01*
X2559069Y19500831D01*
X2485927Y19447690D01*
X2485925Y19447688D01*
X2485924Y19447688D01*
X2352312Y19314076D01*
X2352312Y19314075D01*
X2352310Y19314073D01*
X2318470Y19267496D01*
X2241240Y19161200D01*
X2155454Y18992837D01*
X2097059Y18813119D01*
X2067500Y18626487D01*
X2067500Y18437514D01*
X2097059Y18250882D01*
X2155454Y18071164D01*
X2241104Y17903067D01*
X2241240Y17902801D01*
X2352310Y17749927D01*
X2485927Y17616310D01*
X2638801Y17505240D01*
X2693499Y17477370D01*
X2807163Y17419455D01*
X2807165Y17419455D01*
X2807168Y17419453D01*
X2859904Y17402318D01*
X2986881Y17361060D01*
X3173514Y17331500D01*
X3173519Y17331500D01*
X3362486Y17331500D01*
X3549118Y17361060D01*
X3550623Y17361549D01*
X3728832Y17419453D01*
X3897199Y17505240D01*
X4050073Y17616310D01*
X4183690Y17749927D01*
X4242147Y17830387D01*
X4297478Y17873051D01*
X4342465Y17881500D01*
X5193535Y17881500D01*
X5260574Y17861815D01*
X5293852Y17830387D01*
X5352310Y17749927D01*
X5485927Y17616310D01*
X5638801Y17505240D01*
X5693499Y17477370D01*
X5807163Y17419455D01*
X5807165Y17419455D01*
X5807168Y17419453D01*
X5859904Y17402318D01*
X5986881Y17361060D01*
X6173514Y17331500D01*
X6173519Y17331500D01*
X6362486Y17331500D01*
X6549118Y17361060D01*
X6550623Y17361549D01*
X6728832Y17419453D01*
X6897199Y17505240D01*
X7050073Y17616310D01*
X7183690Y17749927D01*
X7294760Y17902801D01*
X7380547Y18071168D01*
X7438940Y18250882D01*
X7449427Y18317095D01*
X7468500Y18437514D01*
X7468500Y18626487D01*
X7438940Y18813119D01*
X7380545Y18992837D01*
X7335290Y19081653D01*
X7294760Y19161199D01*
X7183690Y19314073D01*
X7050073Y19447690D01*
X7050072Y19447691D01*
X6969613Y19506149D01*
X6926948Y19561479D01*
X6918500Y19606466D01*
X6918500Y20598094D01*
X6938185Y20665133D01*
X6986205Y20708579D01*
X7031610Y20731713D01*
X7197219Y20852034D01*
X7341966Y20996781D01*
X7341968Y20996785D01*
X7341971Y20996787D01*
X7398259Y21074262D01*
X7462287Y21162390D01*
X7555220Y21344781D01*
X7618477Y21539466D01*
X7650500Y21741648D01*
X7650500Y21946352D01*
X7636658Y22033745D01*
X7618477Y22148535D01*
X7555218Y22343224D01*
X7492767Y22465789D01*
X7462287Y22525610D01*
X7442098Y22553398D01*
X7341971Y22691214D01*
X7197217Y22835968D01*
X7197212Y22835972D01*
X7051615Y22941754D01*
X7008949Y22997084D01*
X7000500Y23042072D01*
X7000500Y24533501D01*
X7020185Y24600540D01*
X7072989Y24646295D01*
X7124500Y24657501D01*
X7147871Y24657501D01*
X7147872Y24657501D01*
X7207483Y24663909D01*
X7342331Y24714204D01*
X7457546Y24800454D01*
X7543796Y24915669D01*
X7594091Y25050517D01*
X7600500Y25110127D01*
X7600499Y25173735D01*
X7620183Y25240771D01*
X7672986Y25286527D01*
X7742144Y25296471D01*
X7805700Y25267447D01*
X7824816Y25246619D01*
X7923980Y25110135D01*
X7936172Y25093354D01*
X8075354Y24954172D01*
X8234595Y24838476D01*
X8409975Y24749116D01*
X8409979Y24749115D01*
X8414468Y24747255D01*
X8413824Y24745702D01*
X8465470Y24710410D01*
X8492687Y24646059D01*
X8493500Y24631887D01*
X8493500Y19938870D01*
X8473815Y19871831D01*
X8421011Y19826076D01*
X8408505Y19821164D01*
X8274666Y19776814D01*
X8274663Y19776813D01*
X8125342Y19684711D01*
X8001289Y19560658D01*
X7909187Y19411337D01*
X7909186Y19411334D01*
X7854001Y19244797D01*
X7854001Y19244796D01*
X7854000Y19244796D01*
X7843500Y19142017D01*
X7843500Y17941999D01*
X7843501Y17941982D01*
X7854000Y17839204D01*
X7854001Y17839201D01*
X7909185Y17672669D01*
X7909186Y17672666D01*
X8001288Y17523344D01*
X8125344Y17399288D01*
X8274666Y17307186D01*
X8441203Y17252001D01*
X8543991Y17241500D01*
X9744008Y17241501D01*
X9846797Y17252001D01*
X10013334Y17307186D01*
X10162656Y17399288D01*
X10286712Y17523344D01*
X10378814Y17672666D01*
X10419850Y17796507D01*
X10459621Y17853949D01*
X10524137Y17880772D01*
X10537555Y17881500D01*
X11193535Y17881500D01*
X11260574Y17861815D01*
X11293852Y17830387D01*
X11352310Y17749927D01*
X11485927Y17616310D01*
X11490379Y17613076D01*
X11533048Y17557750D01*
X11541500Y17512753D01*
X11541500Y15252500D01*
X11521815Y15185461D01*
X11469011Y15139706D01*
X11417500Y15128500D01*
X6793929Y15128500D01*
X6668261Y15103503D01*
X6668255Y15103501D01*
X6549870Y15054465D01*
X6443331Y14983278D01*
X6443324Y14983272D01*
X5844724Y14384672D01*
X5811869Y14335501D01*
X5811870Y14335500D01*
X5773534Y14278126D01*
X5724499Y14159745D01*
X5724497Y14159739D01*
X5699500Y14034072D01*
X5699500Y12045400D01*
X5679815Y11978361D01*
X5642551Y11941887D01*
X5642743Y11941624D01*
X5640959Y11940328D01*
X5640289Y11939672D01*
X5638802Y11938762D01*
X5560566Y11881919D01*
X5485927Y11827690D01*
X5485925Y11827688D01*
X5485924Y11827688D01*
X5352312Y11694076D01*
X5352312Y11694075D01*
X5352310Y11694073D01*
X5304610Y11628421D01*
X5241240Y11541200D01*
X5155454Y11372837D01*
X5097059Y11193119D01*
X5067500Y11006487D01*
X5067500Y10817514D01*
X5097059Y10630882D01*
X5155454Y10451164D01*
X5241104Y10283067D01*
X5241240Y10282801D01*
X5352310Y10129927D01*
X5485927Y9996310D01*
X5638801Y9885240D01*
X5718347Y9844710D01*
X5807163Y9799455D01*
X5807165Y9799455D01*
X5807168Y9799453D01*
X5903497Y9768154D01*
X5986881Y9741060D01*
X6173514Y9711500D01*
X6173519Y9711500D01*
X6362486Y9711500D01*
X6549118Y9741060D01*
X6550623Y9741549D01*
X6728832Y9799453D01*
X6897199Y9885240D01*
X7050073Y9996310D01*
X7183690Y10129927D01*
X7294760Y10282801D01*
X7380547Y10451168D01*
X7438940Y10630882D01*
X7449427Y10697095D01*
X7468500Y10817514D01*
X7468500Y11006486D01*
X7467971Y11009825D01*
X7467971Y11009826D01*
X7465670Y11024352D01*
X7843500Y11024352D01*
X7843500Y10819649D01*
X7875522Y10617466D01*
X7938781Y10422777D01*
X8002691Y10297347D01*
X8022907Y10257672D01*
X8031715Y10240387D01*
X8152028Y10074787D01*
X8296786Y9930029D01*
X8451749Y9817444D01*
X8462390Y9809713D01*
X8578607Y9750497D01*
X8644776Y9716782D01*
X8644778Y9716782D01*
X8644781Y9716780D01*
X8749137Y9682873D01*
X8839465Y9653523D01*
X8940557Y9637512D01*
X9041648Y9621500D01*
X9041649Y9621500D01*
X9246351Y9621500D01*
X9246352Y9621500D01*
X9448534Y9653523D01*
X9643219Y9716780D01*
X9825610Y9809713D01*
X9955547Y9904117D01*
X9955548Y9904118D01*
X11613669Y9904118D01*
X11613670Y9904117D01*
X11639059Y9885671D01*
X11807362Y9799915D01*
X11986997Y9741549D01*
X12173553Y9712000D01*
X12362447Y9712000D01*
X12549002Y9741549D01*
X12728637Y9799915D01*
X12896937Y9885669D01*
X12922328Y9904117D01*
X12922328Y9904118D01*
X12268001Y10558446D01*
X12268000Y10558446D01*
X11613669Y9904118D01*
X9955548Y9904118D01*
X9991213Y9930029D01*
X9991215Y9930032D01*
X9991219Y9930034D01*
X10135966Y10074781D01*
X10135968Y10074785D01*
X10135971Y10074787D01*
X10188732Y10147410D01*
X10256287Y10240390D01*
X10349220Y10422781D01*
X10412477Y10617466D01*
X10444500Y10819648D01*
X10444500Y11006448D01*
X11068000Y11006448D01*
X11068000Y10817553D01*
X11097548Y10630998D01*
X11155914Y10451363D01*
X11241666Y10283067D01*
X11260116Y10257672D01*
X11914446Y10912000D01*
X11914446Y10912001D01*
X11868369Y10958078D01*
X11918000Y10958078D01*
X11918000Y10865922D01*
X11941852Y10776905D01*
X11987930Y10697095D01*
X12053095Y10631930D01*
X12132905Y10585852D01*
X12221922Y10562000D01*
X12314078Y10562000D01*
X12403095Y10585852D01*
X12482905Y10631930D01*
X12548070Y10697095D01*
X12594148Y10776905D01*
X12618000Y10865922D01*
X12618000Y10912001D01*
X12621554Y10912001D01*
X12621554Y10912000D01*
X13275882Y10257672D01*
X13275883Y10257672D01*
X13294331Y10283063D01*
X13380085Y10451363D01*
X13438451Y10630998D01*
X13468000Y10817553D01*
X13468000Y11006448D01*
X13467994Y11006487D01*
X13785500Y11006487D01*
X13785500Y10817514D01*
X13815059Y10630882D01*
X13873454Y10451164D01*
X13959104Y10283067D01*
X13959240Y10282801D01*
X14070310Y10129927D01*
X14203927Y9996310D01*
X14356801Y9885240D01*
X14436347Y9844710D01*
X14525163Y9799455D01*
X14525165Y9799455D01*
X14525168Y9799453D01*
X14621497Y9768154D01*
X14704881Y9741060D01*
X14891514Y9711500D01*
X14891519Y9711500D01*
X15080486Y9711500D01*
X15267118Y9741060D01*
X15268623Y9741549D01*
X15446832Y9799453D01*
X15615199Y9885240D01*
X15768073Y9996310D01*
X15901690Y10129927D01*
X16012760Y10282801D01*
X16098547Y10451168D01*
X16156940Y10630882D01*
X16167427Y10697095D01*
X16186500Y10817514D01*
X16186500Y11006487D01*
X16156940Y11193119D01*
X16098545Y11372837D01*
X16053290Y11461653D01*
X16012760Y11541199D01*
X15901690Y11694073D01*
X15768073Y11827690D01*
X15615199Y11938760D01*
X15609062Y11941887D01*
X15446836Y12024546D01*
X15267118Y12082941D01*
X15080486Y12112500D01*
X15080481Y12112500D01*
X14891519Y12112500D01*
X14891514Y12112500D01*
X14704881Y12082941D01*
X14525163Y12024546D01*
X14356800Y11938760D01*
X14322675Y11913966D01*
X14203927Y11827690D01*
X14203925Y11827688D01*
X14203924Y11827688D01*
X14070312Y11694076D01*
X14070312Y11694075D01*
X14070310Y11694073D01*
X14022610Y11628421D01*
X13959240Y11541200D01*
X13873454Y11372837D01*
X13815059Y11193119D01*
X13785500Y11006487D01*
X13467994Y11006487D01*
X13438451Y11193003D01*
X13380085Y11372638D01*
X13294329Y11540941D01*
X13275883Y11566330D01*
X13275882Y11566331D01*
X12621554Y10912001D01*
X12618000Y10912001D01*
X12618000Y10958078D01*
X12594148Y11047095D01*
X12548070Y11126905D01*
X12482905Y11192070D01*
X12403095Y11238148D01*
X12314078Y11262000D01*
X12221922Y11262000D01*
X12132905Y11238148D01*
X12053095Y11192070D01*
X11987930Y11126905D01*
X11941852Y11047095D01*
X11918000Y10958078D01*
X11868369Y10958078D01*
X11260116Y11566331D01*
X11260116Y11566330D01*
X11241669Y11540940D01*
X11155914Y11372638D01*
X11097548Y11193003D01*
X11068000Y11006448D01*
X10444500Y11006448D01*
X10444500Y11024352D01*
X10412477Y11226534D01*
X10408703Y11238148D01*
X10349218Y11421224D01*
X10288087Y11541199D01*
X10256287Y11603610D01*
X10248556Y11614251D01*
X10135971Y11769214D01*
X9991213Y11913972D01*
X9983076Y11919884D01*
X11613669Y11919884D01*
X12268000Y11265554D01*
X12268001Y11265554D01*
X12922328Y11919884D01*
X12896933Y11938334D01*
X12728637Y12024086D01*
X12549002Y12082452D01*
X12362447Y12112000D01*
X12173553Y12112000D01*
X11986997Y12082452D01*
X11807362Y12024086D01*
X11639060Y11938331D01*
X11613670Y11919884D01*
X11613669Y11919884D01*
X9983076Y11919884D01*
X9825613Y12034285D01*
X9825612Y12034286D01*
X9825610Y12034287D01*
X9745542Y12075084D01*
X9643223Y12127219D01*
X9448534Y12190478D01*
X9282649Y12216751D01*
X9246352Y12222500D01*
X9041648Y12222500D01*
X9017329Y12218649D01*
X8839465Y12190478D01*
X8644776Y12127219D01*
X8462386Y12034285D01*
X8296786Y11913972D01*
X8152028Y11769214D01*
X8031715Y11603614D01*
X7938781Y11421224D01*
X7875522Y11226535D01*
X7843500Y11024352D01*
X7465670Y11024352D01*
X7438940Y11193119D01*
X7380545Y11372837D01*
X7335290Y11461653D01*
X7294760Y11541199D01*
X7183690Y11694073D01*
X7050073Y11827690D01*
X7050072Y11827691D01*
X7050069Y11827694D01*
X7046369Y11830854D01*
X7047387Y11832046D01*
X7008942Y11881919D01*
X7000500Y11926889D01*
X7000500Y12334352D01*
X16987500Y12334352D01*
X16987500Y12129649D01*
X17019522Y11927466D01*
X17082781Y11732777D01*
X17175715Y11550387D01*
X17296028Y11384787D01*
X17440786Y11240029D01*
X17595749Y11127444D01*
X17606390Y11119713D01*
X17722607Y11060497D01*
X17788776Y11026782D01*
X17788778Y11026782D01*
X17788781Y11026780D01*
X17893137Y10992873D01*
X17983465Y10963523D01*
X18084557Y10947512D01*
X18185648Y10931500D01*
X18185649Y10931500D01*
X18390351Y10931500D01*
X18390352Y10931500D01*
X18592534Y10963523D01*
X18724764Y11006487D01*
X33089500Y11006487D01*
X33089500Y10817514D01*
X33119059Y10630882D01*
X33177454Y10451164D01*
X33263104Y10283067D01*
X33263240Y10282801D01*
X33374310Y10129927D01*
X33507927Y9996310D01*
X33660801Y9885240D01*
X33740347Y9844710D01*
X33829163Y9799455D01*
X33829165Y9799455D01*
X33829168Y9799453D01*
X33925497Y9768154D01*
X34008881Y9741060D01*
X34195514Y9711500D01*
X34195519Y9711500D01*
X34384486Y9711500D01*
X34571118Y9741060D01*
X34572623Y9741549D01*
X34750832Y9799453D01*
X34919199Y9885240D01*
X35072073Y9996310D01*
X35205690Y10129927D01*
X35316760Y10282801D01*
X35402547Y10451168D01*
X35460940Y10630882D01*
X35471427Y10697095D01*
X35490500Y10817514D01*
X35490500Y11006487D01*
X35460940Y11193119D01*
X35402545Y11372837D01*
X35357290Y11461653D01*
X35316760Y11541199D01*
X35205690Y11694073D01*
X35072073Y11827690D01*
X34919199Y11938760D01*
X34913062Y11941887D01*
X34750836Y12024546D01*
X34571118Y12082941D01*
X34384486Y12112500D01*
X34384481Y12112500D01*
X34195519Y12112500D01*
X34195514Y12112500D01*
X34008881Y12082941D01*
X33829163Y12024546D01*
X33660800Y11938760D01*
X33626675Y11913966D01*
X33507927Y11827690D01*
X33507925Y11827688D01*
X33507924Y11827688D01*
X33374312Y11694076D01*
X33374312Y11694075D01*
X33374310Y11694073D01*
X33326610Y11628421D01*
X33263240Y11541200D01*
X33177454Y11372837D01*
X33119059Y11193119D01*
X33089500Y11006487D01*
X18724764Y11006487D01*
X18787219Y11026780D01*
X18969610Y11119713D01*
X19070486Y11193003D01*
X19135213Y11240029D01*
X19135215Y11240032D01*
X19135219Y11240034D01*
X19279966Y11384781D01*
X19279968Y11384785D01*
X19279971Y11384787D01*
X19332732Y11457410D01*
X19400287Y11550390D01*
X19493220Y11732781D01*
X19556477Y11927466D01*
X19588500Y12129648D01*
X19588500Y12334352D01*
X19556477Y12536534D01*
X19493220Y12731219D01*
X19493218Y12731222D01*
X19493218Y12731224D01*
X19459503Y12797393D01*
X19400287Y12913610D01*
X19392556Y12924251D01*
X19279971Y13079214D01*
X19135213Y13223972D01*
X18969613Y13344285D01*
X18969612Y13344286D01*
X18969610Y13344287D01*
X18912653Y13373309D01*
X18787223Y13437219D01*
X18592534Y13500478D01*
X18417995Y13528122D01*
X18390352Y13532500D01*
X18185648Y13532500D01*
X18161329Y13528649D01*
X17983465Y13500478D01*
X17788776Y13437219D01*
X17606386Y13344285D01*
X17440786Y13223972D01*
X17296028Y13079214D01*
X17175715Y12913614D01*
X17082781Y12731224D01*
X17019522Y12536535D01*
X16987500Y12334352D01*
X7000500Y12334352D01*
X7000500Y13649192D01*
X7009144Y13678633D01*
X7015668Y13708619D01*
X7019422Y13713635D01*
X7020185Y13716231D01*
X7036819Y13736873D01*
X7091127Y13791181D01*
X7152450Y13824666D01*
X7178808Y13827500D01*
X17844071Y13827500D01*
X17928615Y13844318D01*
X17969744Y13852499D01*
X18088127Y13901535D01*
X18094706Y13905931D01*
X18194669Y13972723D01*
X18793276Y14571330D01*
X18864465Y14677873D01*
X18913501Y14796256D01*
X18938500Y14921931D01*
X18938500Y16033930D01*
X18958185Y16100969D01*
X18989613Y16134247D01*
X19135219Y16240034D01*
X19279966Y16384781D01*
X19279968Y16384785D01*
X19279971Y16384787D01*
X19332732Y16457410D01*
X19400287Y16550390D01*
X19493220Y16732781D01*
X19556477Y16927466D01*
X19588500Y17129648D01*
X19588500Y17334352D01*
X19561434Y17505240D01*
X19556477Y17536535D01*
X19527127Y17626863D01*
X19493220Y17731219D01*
X19493218Y17731222D01*
X19493218Y17731224D01*
X19438199Y17839203D01*
X19400287Y17913610D01*
X19379674Y17941982D01*
X19279971Y18079214D01*
X19135213Y18223972D01*
X18969613Y18344285D01*
X18969612Y18344286D01*
X18969610Y18344287D01*
X18866342Y18396905D01*
X18787223Y18437219D01*
X18592534Y18500478D01*
X18539481Y18508880D01*
X18483715Y18517713D01*
X18390352Y18532500D01*
X18185648Y18532500D01*
X18161329Y18528649D01*
X17983465Y18500478D01*
X17788776Y18437219D01*
X17606386Y18344285D01*
X17440786Y18223972D01*
X17296028Y18079214D01*
X17175715Y17913614D01*
X17082781Y17731224D01*
X17019522Y17536535D01*
X16987500Y17334352D01*
X16987500Y17129649D01*
X17019522Y16927466D01*
X17082781Y16732777D01*
X17175715Y16550387D01*
X17296028Y16384787D01*
X17440784Y16240031D01*
X17509863Y16189843D01*
X17586385Y16134247D01*
X17629051Y16078919D01*
X17637500Y16033930D01*
X17637500Y15306808D01*
X17628855Y15277368D01*
X17622332Y15247381D01*
X17618577Y15242366D01*
X17617815Y15239769D01*
X17601181Y15219127D01*
X17546873Y15164819D01*
X17485550Y15131334D01*
X17459192Y15128500D01*
X12966500Y15128500D01*
X12899461Y15148185D01*
X12853706Y15200989D01*
X12842500Y15252500D01*
X12842500Y17402318D01*
X12862185Y17469357D01*
X12893614Y17502636D01*
X12897195Y17505239D01*
X12897199Y17505240D01*
X12923182Y17524118D01*
X14331669Y17524118D01*
X14331670Y17524117D01*
X14357059Y17505671D01*
X14525362Y17419915D01*
X14704997Y17361549D01*
X14891553Y17332000D01*
X15080447Y17332000D01*
X15267002Y17361549D01*
X15446637Y17419915D01*
X15614937Y17505669D01*
X15640328Y17524117D01*
X15640328Y17524118D01*
X14986001Y18178446D01*
X14986000Y18178446D01*
X14331669Y17524118D01*
X12923182Y17524118D01*
X13050073Y17616310D01*
X13183690Y17749927D01*
X13294760Y17902801D01*
X13380547Y18071168D01*
X13438940Y18250882D01*
X13449427Y18317095D01*
X13468500Y18437514D01*
X13468500Y18626448D01*
X13786000Y18626448D01*
X13786000Y18437553D01*
X13815548Y18250998D01*
X13873914Y18071363D01*
X13959666Y17903067D01*
X13978116Y17877672D01*
X14632446Y18532000D01*
X14632446Y18532001D01*
X14586369Y18578078D01*
X14636000Y18578078D01*
X14636000Y18485922D01*
X14659852Y18396905D01*
X14705930Y18317095D01*
X14771095Y18251930D01*
X14850905Y18205852D01*
X14939922Y18182000D01*
X15032078Y18182000D01*
X15121095Y18205852D01*
X15200905Y18251930D01*
X15266070Y18317095D01*
X15312148Y18396905D01*
X15336000Y18485922D01*
X15336000Y18532001D01*
X15339554Y18532001D01*
X15339554Y18532000D01*
X15993882Y17877672D01*
X15993883Y17877672D01*
X16012331Y17903063D01*
X16098085Y18071363D01*
X16156451Y18250998D01*
X16186000Y18437553D01*
X16186000Y18626448D01*
X16185994Y18626487D01*
X33089500Y18626487D01*
X33089500Y18437514D01*
X33119059Y18250882D01*
X33177454Y18071164D01*
X33263104Y17903067D01*
X33263240Y17902801D01*
X33374310Y17749927D01*
X33507927Y17616310D01*
X33660801Y17505240D01*
X33715499Y17477370D01*
X33829163Y17419455D01*
X33829165Y17419455D01*
X33829168Y17419453D01*
X33881904Y17402318D01*
X34008881Y17361060D01*
X34195514Y17331500D01*
X34195519Y17331500D01*
X34384486Y17331500D01*
X34571118Y17361060D01*
X34572623Y17361549D01*
X34750832Y17419453D01*
X34919199Y17505240D01*
X35072073Y17616310D01*
X35205690Y17749927D01*
X35316760Y17902801D01*
X35402547Y18071168D01*
X35460940Y18250882D01*
X35471427Y18317095D01*
X35490500Y18437514D01*
X35490500Y18626487D01*
X35460940Y18813119D01*
X35402545Y18992837D01*
X35357290Y19081653D01*
X35316760Y19161199D01*
X35205690Y19314073D01*
X35072073Y19447690D01*
X34919199Y19558760D01*
X34900766Y19568152D01*
X34750836Y19644546D01*
X34571118Y19702941D01*
X34384486Y19732500D01*
X34384481Y19732500D01*
X34195519Y19732500D01*
X34195514Y19732500D01*
X34008881Y19702941D01*
X33829163Y19644546D01*
X33660800Y19558760D01*
X33581069Y19500831D01*
X33507927Y19447690D01*
X33507925Y19447688D01*
X33507924Y19447688D01*
X33374312Y19314076D01*
X33374312Y19314075D01*
X33374310Y19314073D01*
X33340470Y19267496D01*
X33263240Y19161200D01*
X33177454Y18992837D01*
X33119059Y18813119D01*
X33089500Y18626487D01*
X16185994Y18626487D01*
X16156451Y18813003D01*
X16098085Y18992638D01*
X16012329Y19160941D01*
X15993883Y19186330D01*
X15993882Y19186331D01*
X15339554Y18532001D01*
X15336000Y18532001D01*
X15336000Y18578078D01*
X15312148Y18667095D01*
X15266070Y18746905D01*
X15200905Y18812070D01*
X15121095Y18858148D01*
X15032078Y18882000D01*
X14939922Y18882000D01*
X14850905Y18858148D01*
X14771095Y18812070D01*
X14705930Y18746905D01*
X14659852Y18667095D01*
X14636000Y18578078D01*
X14586369Y18578078D01*
X13978116Y19186331D01*
X13978116Y19186330D01*
X13959669Y19160940D01*
X13873914Y18992638D01*
X13815548Y18813003D01*
X13786000Y18626448D01*
X13468500Y18626448D01*
X13468500Y18626487D01*
X13438940Y18813119D01*
X13380545Y18992837D01*
X13335290Y19081653D01*
X13294760Y19161199D01*
X13183690Y19314073D01*
X13050073Y19447690D01*
X12923179Y19539884D01*
X14331669Y19539884D01*
X14986000Y18885554D01*
X14986001Y18885554D01*
X15640328Y19539884D01*
X15614933Y19558334D01*
X15446637Y19644086D01*
X15267002Y19702452D01*
X15080447Y19732000D01*
X14891553Y19732000D01*
X14704997Y19702452D01*
X14525362Y19644086D01*
X14357060Y19558331D01*
X14331670Y19539884D01*
X14331669Y19539884D01*
X12923179Y19539884D01*
X12897199Y19558760D01*
X12878766Y19568152D01*
X12728836Y19644546D01*
X12549118Y19702941D01*
X12362486Y19732500D01*
X12362481Y19732500D01*
X12173519Y19732500D01*
X12173514Y19732500D01*
X11986881Y19702941D01*
X11807163Y19644546D01*
X11638800Y19558760D01*
X11559069Y19500831D01*
X11485927Y19447690D01*
X11485925Y19447688D01*
X11485924Y19447688D01*
X11352311Y19314075D01*
X11293853Y19233614D01*
X11238522Y19190949D01*
X11193535Y19182500D01*
X10544183Y19182500D01*
X10477144Y19202185D01*
X10431389Y19254989D01*
X10426477Y19267496D01*
X10411043Y19314073D01*
X10378814Y19411334D01*
X10286712Y19560656D01*
X10162656Y19684712D01*
X10013334Y19776814D01*
X9879495Y19821164D01*
X9822051Y19860937D01*
X9795228Y19925453D01*
X9794500Y19938870D01*
X9794500Y21946352D01*
X10049500Y21946352D01*
X10049500Y21741649D01*
X10081522Y21539466D01*
X10144781Y21344777D01*
X10237715Y21162387D01*
X10358028Y20996787D01*
X10502786Y20852029D01*
X10617499Y20768687D01*
X10668390Y20731713D01*
X10781499Y20674081D01*
X10850776Y20638782D01*
X10850778Y20638782D01*
X10850781Y20638780D01*
X10955137Y20604873D01*
X11045465Y20575523D01*
X11146557Y20559512D01*
X11247648Y20543500D01*
X11247649Y20543500D01*
X11452351Y20543500D01*
X11452352Y20543500D01*
X11654534Y20575523D01*
X11849219Y20638780D01*
X12031610Y20731713D01*
X12124590Y20799268D01*
X12197213Y20852029D01*
X12197215Y20852032D01*
X12197219Y20852034D01*
X12341966Y20996781D01*
X12447753Y21142387D01*
X12503082Y21185051D01*
X12548071Y21193500D01*
X14481065Y21193500D01*
X14548104Y21173815D01*
X14549909Y21172634D01*
X14606821Y21134606D01*
X14606823Y21134605D01*
X14606827Y21134603D01*
X14752498Y21074265D01*
X14752503Y21074263D01*
X14907153Y21043501D01*
X14907156Y21043500D01*
X14907158Y21043500D01*
X15064844Y21043500D01*
X15064845Y21043501D01*
X15219497Y21074263D01*
X15365179Y21134606D01*
X15496289Y21222211D01*
X15607789Y21333711D01*
X15695394Y21464821D01*
X15755737Y21610503D01*
X15786500Y21765158D01*
X15786500Y21922842D01*
X15786500Y21922845D01*
X15786499Y21922847D01*
X15755737Y22077497D01*
X15726313Y22148534D01*
X15695397Y22223173D01*
X15695390Y22223186D01*
X15607789Y22354289D01*
X15607786Y22354293D01*
X15496292Y22465787D01*
X15496288Y22465790D01*
X15365185Y22553391D01*
X15365172Y22553398D01*
X15219501Y22613736D01*
X15219489Y22613739D01*
X15064845Y22644500D01*
X15064842Y22644500D01*
X14907158Y22644500D01*
X14907155Y22644500D01*
X14752510Y22613739D01*
X14752498Y22613736D01*
X14606827Y22553398D01*
X14606820Y22553394D01*
X14589665Y22541931D01*
X14549955Y22515398D01*
X14483279Y22494520D01*
X14481065Y22494500D01*
X12548071Y22494500D01*
X12481032Y22514185D01*
X12447754Y22545614D01*
X12341966Y22691219D01*
X12197219Y22835966D01*
X12197213Y22835972D01*
X12031613Y22956285D01*
X12031612Y22956286D01*
X12031610Y22956287D01*
X11951542Y22997084D01*
X11849223Y23049219D01*
X11654534Y23112478D01*
X11479995Y23140122D01*
X11452352Y23144500D01*
X11247648Y23144500D01*
X11223329Y23140649D01*
X11045465Y23112478D01*
X10850776Y23049219D01*
X10668386Y22956285D01*
X10502786Y22835972D01*
X10358028Y22691214D01*
X10237715Y22525614D01*
X10144781Y22343224D01*
X10081522Y22148535D01*
X10049500Y21946352D01*
X9794500Y21946352D01*
X9794500Y24992664D01*
X9814185Y25059703D01*
X9830819Y25080345D01*
X9843828Y25093354D01*
X9959524Y25252595D01*
X10048884Y25427975D01*
X10049515Y25429213D01*
X10097489Y25480010D01*
X10165310Y25496805D01*
X10231445Y25474268D01*
X10270485Y25429213D01*
X10360474Y25252597D01*
X10395234Y25204754D01*
X10476172Y25093354D01*
X10615354Y24954172D01*
X10774595Y24838476D01*
X10816654Y24817046D01*
X10949970Y24749118D01*
X10949972Y24749118D01*
X10949975Y24749116D01*
X11033500Y24721977D01*
X11137173Y24688291D01*
X11331578Y24657500D01*
X11331583Y24657500D01*
X11528422Y24657500D01*
X11722826Y24688291D01*
X11910025Y24749116D01*
X12085405Y24838476D01*
X12244646Y24954172D01*
X12383828Y25093354D01*
X12499524Y25252595D01*
X12588884Y25427975D01*
X12649709Y25615174D01*
X12680500Y25809578D01*
X12680500Y26006423D01*
X12649709Y26200827D01*
X12603925Y26341733D01*
X12588884Y26388025D01*
X12588882Y26388028D01*
X12588882Y26388030D01*
X12499523Y26563406D01*
X12495183Y26569380D01*
X12383828Y26722646D01*
X12244646Y26861828D01*
X12131613Y26943952D01*
X12088949Y26999282D01*
X12080500Y27044269D01*
X12080500Y31306072D01*
X12055502Y31431739D01*
X12055501Y31431740D01*
X12055501Y31431744D01*
X12006465Y31550127D01*
X11968130Y31607500D01*
X11968130Y31607501D01*
X11935275Y31656672D01*
X10828673Y32763274D01*
X10828669Y32763277D01*
X10722127Y32834465D01*
X10603744Y32883501D01*
X10603738Y32883503D01*
X10478071Y32908500D01*
X10478069Y32908500D01*
X3876807Y32908500D01*
X3809768Y32928185D01*
X3789126Y32944819D01*
X2972819Y33761127D01*
X2939334Y33822450D01*
X2936500Y33848808D01*
X2936500Y40516000D01*
X2956185Y40583039D01*
X3008989Y40628794D01*
X3060500Y40640000D01*
X4842051Y40640000D01*
X4889503Y40630562D01*
X4925975Y40615454D01*
X4925979Y40615454D01*
X4925980Y40615453D01*
X5070967Y40586612D01*
X5070970Y40586612D01*
X7272267Y40586612D01*
X7339306Y40566927D01*
X7385061Y40514123D01*
X7389972Y40501618D01*
X7401186Y40467778D01*
X7493288Y40318456D01*
X7617344Y40194400D01*
X7766666Y40102298D01*
X7828440Y40081828D01*
X7885884Y40042057D01*
X7912707Y39977541D01*
X7913053Y39954393D01*
X7910077Y39916588D01*
X8589554Y39237112D01*
X8583339Y39237112D01*
X8481606Y39209853D01*
X8390394Y39157192D01*
X8315920Y39082718D01*
X8263259Y38991506D01*
X8236000Y38889773D01*
X8236000Y38883559D01*
X7556524Y39563035D01*
X7556523Y39563035D01*
X7524143Y39518468D01*
X7431244Y39336144D01*
X7368009Y39141530D01*
X7336000Y38939430D01*
X7336000Y38734795D01*
X7368009Y38532695D01*
X7431244Y38338081D01*
X7524141Y38155762D01*
X7524147Y38155753D01*
X7556523Y38111191D01*
X7556524Y38111190D01*
X8236000Y38790666D01*
X8236000Y38784451D01*
X8263259Y38682718D01*
X8315920Y38591506D01*
X8390394Y38517032D01*
X8481606Y38464371D01*
X8583339Y38437112D01*
X8589553Y38437112D01*
X7910076Y37757638D01*
X7954650Y37725253D01*
X8136968Y37632357D01*
X8331582Y37569122D01*
X8533683Y37537112D01*
X8738317Y37537112D01*
X8940417Y37569122D01*
X9135031Y37632357D01*
X9317349Y37725253D01*
X9361921Y37757638D01*
X8682447Y38437112D01*
X8688661Y38437112D01*
X8790394Y38464371D01*
X8881606Y38517032D01*
X8956080Y38591506D01*
X9008741Y38682718D01*
X9036000Y38784451D01*
X9036000Y38790665D01*
X9715474Y38111191D01*
X9747859Y38155763D01*
X9840755Y38338081D01*
X9903990Y38532695D01*
X9936000Y38734795D01*
X9936000Y38939430D01*
X9903990Y39141530D01*
X9840755Y39336144D01*
X9747859Y39518462D01*
X9715474Y39563035D01*
X9715474Y39563036D01*
X9036000Y38883561D01*
X9036000Y38889773D01*
X9008741Y38991506D01*
X8956080Y39082718D01*
X8881606Y39157192D01*
X8790394Y39209853D01*
X8688661Y39237112D01*
X8682446Y39237112D01*
X9361921Y39916587D01*
X9358946Y39954393D01*
X9373310Y40022771D01*
X9422361Y40072528D01*
X9443555Y40081827D01*
X9505334Y40102298D01*
X9654656Y40194400D01*
X9778712Y40318456D01*
X9870814Y40467778D01*
X9925999Y40634315D01*
X9936500Y40737103D01*
X9936499Y41937120D01*
X9925999Y42039909D01*
X9870814Y42206446D01*
X9778712Y42355768D01*
X9654656Y42479824D01*
X9505334Y42571926D01*
X9338797Y42627111D01*
X9338795Y42627112D01*
X9236010Y42637612D01*
X8035998Y42637612D01*
X8035981Y42637611D01*
X7933203Y42627112D01*
X7933200Y42627111D01*
X7766668Y42571927D01*
X7766663Y42571925D01*
X7617342Y42479823D01*
X7493289Y42355770D01*
X7401187Y42206449D01*
X7401184Y42206441D01*
X7389972Y42172606D01*
X7350199Y42115162D01*
X7285683Y42088340D01*
X7272267Y42087612D01*
X5507117Y42087612D01*
X5440078Y42107297D01*
X5419436Y42123931D01*
X4850819Y42692549D01*
X4817334Y42753872D01*
X4814500Y42780230D01*
X4814500Y45716692D01*
X4834185Y45783731D01*
X4850819Y45804373D01*
X5482000Y46435554D01*
X5482000Y46429339D01*
X5509259Y46327606D01*
X5561920Y46236394D01*
X5636394Y46161920D01*
X5727606Y46109259D01*
X5829339Y46082000D01*
X5835553Y46082000D01*
X5156076Y45402526D01*
X5200650Y45370141D01*
X5382968Y45277245D01*
X5577582Y45214010D01*
X5779683Y45182000D01*
X5984317Y45182000D01*
X6186417Y45214010D01*
X6381031Y45277245D01*
X6563349Y45370141D01*
X6607921Y45402526D01*
X5928447Y46082000D01*
X5934661Y46082000D01*
X6036394Y46109259D01*
X6127606Y46161920D01*
X6202080Y46236394D01*
X6254741Y46327606D01*
X6282000Y46429339D01*
X6282000Y46435553D01*
X6961474Y45756079D01*
X6993859Y45800651D01*
X7086755Y45982969D01*
X7149990Y46177583D01*
X7182000Y46379683D01*
X7182000Y46584318D01*
X7181995Y46584352D01*
X9581500Y46584352D01*
X9581500Y46379649D01*
X9613522Y46177466D01*
X9676781Y45982777D01*
X9740691Y45857347D01*
X9769585Y45800641D01*
X9769715Y45800387D01*
X9890028Y45634787D01*
X10034786Y45490029D01*
X10155226Y45402526D01*
X10200390Y45369713D01*
X10316607Y45310497D01*
X10382776Y45276782D01*
X10382778Y45276782D01*
X10382781Y45276780D01*
X10487137Y45242873D01*
X10577465Y45213523D01*
X10678557Y45197512D01*
X10779648Y45181500D01*
X10779649Y45181500D01*
X10984351Y45181500D01*
X10984352Y45181500D01*
X11186534Y45213523D01*
X11381219Y45276780D01*
X11563610Y45369713D01*
X11656590Y45437268D01*
X11729213Y45490029D01*
X11729215Y45490032D01*
X11729219Y45490034D01*
X11873966Y45634781D01*
X11873968Y45634785D01*
X11873971Y45634787D01*
X11941909Y45728297D01*
X11994287Y45800390D01*
X12087220Y45982781D01*
X12150477Y46177466D01*
X12182500Y46379648D01*
X12182500Y46584352D01*
X12174257Y46636394D01*
X12150477Y46786535D01*
X12101954Y46935873D01*
X12087220Y46981219D01*
X12087218Y46981222D01*
X12087218Y46981224D01*
X12022876Y47107501D01*
X11994287Y47163610D01*
X11962092Y47207923D01*
X11873971Y47329214D01*
X11729213Y47473972D01*
X11563613Y47594285D01*
X11563612Y47594286D01*
X11563610Y47594287D01*
X11506653Y47623309D01*
X11381223Y47687219D01*
X11186534Y47750478D01*
X11011995Y47778122D01*
X10984352Y47782500D01*
X10779648Y47782500D01*
X10755329Y47778649D01*
X10577465Y47750478D01*
X10382776Y47687219D01*
X10200386Y47594285D01*
X10034786Y47473972D01*
X9890028Y47329214D01*
X9769715Y47163614D01*
X9676781Y46981224D01*
X9613522Y46786535D01*
X9581500Y46584352D01*
X7181995Y46584352D01*
X7149990Y46786418D01*
X7086755Y46981032D01*
X6993859Y47163350D01*
X6961474Y47207923D01*
X6961474Y47207924D01*
X6282000Y46528449D01*
X6282000Y46534661D01*
X6254741Y46636394D01*
X6202080Y46727606D01*
X6127606Y46802080D01*
X6036394Y46854741D01*
X5934661Y46882000D01*
X5928446Y46882000D01*
X6607922Y47561476D01*
X6607921Y47561477D01*
X6563359Y47593853D01*
X6563350Y47593859D01*
X6381031Y47686756D01*
X6186417Y47749991D01*
X5984317Y47782000D01*
X5779683Y47782000D01*
X5577582Y47749991D01*
X5382968Y47686756D01*
X5200644Y47593857D01*
X5156077Y47561477D01*
X5156077Y47561476D01*
X5835554Y46882000D01*
X5829339Y46882000D01*
X5727606Y46854741D01*
X5636394Y46802080D01*
X5561920Y46727606D01*
X5509259Y46636394D01*
X5482000Y46534661D01*
X5482000Y46528447D01*
X4850819Y47159628D01*
X4817334Y47220951D01*
X4814500Y47247309D01*
X4814500Y50872801D01*
X4834185Y50939840D01*
X4886989Y50985595D01*
X4956147Y50995539D01*
X5019703Y50966514D01*
X5041603Y50941690D01*
X5056178Y50919876D01*
X5056182Y50919871D01*
X5427325Y50548728D01*
X5427332Y50548722D01*
X5533863Y50477541D01*
X5533867Y50477539D01*
X5533874Y50477534D01*
X5602560Y50449084D01*
X5652256Y50428499D01*
X5652260Y50428499D01*
X5652261Y50428498D01*
X5777928Y50403500D01*
X5777931Y50403500D01*
X5906069Y50403500D01*
X7058409Y50403500D01*
X7125448Y50383815D01*
X7171203Y50331011D01*
X7182409Y50279500D01*
X7182409Y50153983D01*
X7192909Y50051204D01*
X7248094Y49884668D01*
X7248096Y49884663D01*
X7282869Y49828288D01*
X7340197Y49735344D01*
X7464253Y49611288D01*
X7613574Y49519186D01*
X7780111Y49464001D01*
X7882899Y49453500D01*
X7882904Y49453500D01*
X9682914Y49453500D01*
X9682919Y49453500D01*
X9785707Y49464001D01*
X9952244Y49519186D01*
X10101565Y49611288D01*
X10225621Y49735344D01*
X10317723Y49884665D01*
X10372908Y50051202D01*
X10383409Y50153990D01*
X10383409Y51250000D01*
X10403094Y51317039D01*
X10455898Y51362794D01*
X10507409Y51374000D01*
X11416860Y51374000D01*
X11437281Y51368004D01*
X11458532Y51366788D01*
X11480001Y51355460D01*
X11483899Y51354315D01*
X11489747Y51350317D01*
X11490387Y51349852D01*
X11533052Y51294522D01*
X11541500Y51249535D01*
X11541500Y49870932D01*
X11521815Y49803893D01*
X11520602Y49802041D01*
X11438295Y49678861D01*
X11374184Y49524083D01*
X11374182Y49524075D01*
X11341500Y49359772D01*
X11341500Y49192229D01*
X11374182Y49027926D01*
X11374184Y49027918D01*
X11438295Y48873140D01*
X11531373Y48733838D01*
X11649837Y48615374D01*
X11720548Y48568127D01*
X11789137Y48522297D01*
X11943918Y48458184D01*
X12108228Y48425501D01*
X12108232Y48425500D01*
X12108233Y48425500D01*
X12275768Y48425500D01*
X12275769Y48425501D01*
X12440082Y48458184D01*
X12594863Y48522297D01*
X12734162Y48615374D01*
X12852626Y48733838D01*
X12945703Y48873137D01*
X13009816Y49027918D01*
X13031071Y49134777D01*
X13063454Y49196683D01*
X13124169Y49231258D01*
X13193939Y49227519D01*
X13240368Y49198263D01*
X14199181Y48239452D01*
X14232666Y48178129D01*
X14235500Y48151771D01*
X14235500Y26342082D01*
X14235500Y26342080D01*
X14235499Y26342080D01*
X14264340Y26197093D01*
X14264343Y26197083D01*
X14320914Y26060508D01*
X14353812Y26011273D01*
X14353813Y26011270D01*
X14403046Y25937586D01*
X14403052Y25937579D01*
X15523584Y24817048D01*
X15523586Y24817046D01*
X15548416Y24800456D01*
X15597270Y24767814D01*
X15646505Y24734916D01*
X15646506Y24734916D01*
X15646507Y24734915D01*
X15646509Y24734914D01*
X15759068Y24688291D01*
X15783087Y24678342D01*
X15783091Y24678342D01*
X15783092Y24678341D01*
X15928079Y24649500D01*
X15928082Y24649500D01*
X15928083Y24649500D01*
X16075917Y24649500D01*
X22425286Y24649500D01*
X22492325Y24629815D01*
X22525604Y24598386D01*
X22553759Y24559634D01*
X22709636Y24403757D01*
X22709641Y24403753D01*
X22811606Y24329672D01*
X22887978Y24274185D01*
X23016375Y24208763D01*
X23084393Y24174105D01*
X23084396Y24174104D01*
X23189221Y24140045D01*
X23294049Y24105985D01*
X23511778Y24071500D01*
X23511779Y24071500D01*
X23732221Y24071500D01*
X23732222Y24071500D01*
X23949951Y24105985D01*
X24159606Y24174105D01*
X24356022Y24274185D01*
X24534365Y24403758D01*
X24584536Y24453930D01*
X24645857Y24487414D01*
X24715548Y24482430D01*
X24771482Y24440559D01*
X24788398Y24409581D01*
X24818202Y24329672D01*
X24818206Y24329665D01*
X24904452Y24214456D01*
X24904455Y24214453D01*
X25019664Y24128207D01*
X25019671Y24128203D01*
X25154517Y24077909D01*
X25154516Y24077909D01*
X25161444Y24077165D01*
X25214127Y24071500D01*
X27109872Y24071501D01*
X27169483Y24077909D01*
X27304331Y24128204D01*
X27419546Y24214454D01*
X27505796Y24329669D01*
X27556091Y24464517D01*
X27562500Y24524127D01*
X27562499Y26419872D01*
X27556091Y26479483D01*
X27535601Y26534419D01*
X27505797Y26614329D01*
X27505793Y26614336D01*
X27419547Y26729545D01*
X27419544Y26729548D01*
X27304335Y26815794D01*
X27304328Y26815798D01*
X27169482Y26866092D01*
X27169483Y26866092D01*
X27109883Y26872499D01*
X27109881Y26872500D01*
X27109873Y26872500D01*
X27109864Y26872500D01*
X25214129Y26872500D01*
X25214123Y26872499D01*
X25154516Y26866092D01*
X25019671Y26815798D01*
X25019664Y26815794D01*
X24904455Y26729548D01*
X24904452Y26729545D01*
X24818206Y26614336D01*
X24818203Y26614331D01*
X24788398Y26534419D01*
X24746526Y26478486D01*
X24681062Y26454069D01*
X24612789Y26468921D01*
X24584535Y26490072D01*
X24534363Y26540244D01*
X24534358Y26540248D01*
X24356025Y26669813D01*
X24356024Y26669814D01*
X24356022Y26669815D01*
X24285233Y26705884D01*
X24159606Y26769896D01*
X24159603Y26769897D01*
X23949952Y26838015D01*
X23841086Y26855258D01*
X23732222Y26872500D01*
X23511778Y26872500D01*
X23444398Y26861828D01*
X23294047Y26838015D01*
X23084396Y26769897D01*
X23084393Y26769896D01*
X22887974Y26669813D01*
X22709641Y26540248D01*
X22709636Y26540244D01*
X22553756Y26384364D01*
X22553752Y26384359D01*
X22421321Y26202081D01*
X22419499Y26203405D01*
X22374557Y26162798D01*
X22320717Y26150500D01*
X16364230Y26150500D01*
X16297191Y26170185D01*
X16276549Y26186819D01*
X15772819Y26690549D01*
X15739334Y26751872D01*
X15736500Y26778230D01*
X15736500Y28526847D01*
X16725500Y28526847D01*
X16725500Y28369154D01*
X16756261Y28214511D01*
X16756264Y28214499D01*
X16816602Y28068828D01*
X16816609Y28068815D01*
X16904210Y27937712D01*
X16904213Y27937708D01*
X17015707Y27826214D01*
X17015711Y27826211D01*
X17146814Y27738610D01*
X17146827Y27738603D01*
X17292498Y27678265D01*
X17292503Y27678263D01*
X17447153Y27647501D01*
X17447156Y27647500D01*
X17447158Y27647500D01*
X17604844Y27647500D01*
X17604845Y27647501D01*
X17759497Y27678263D01*
X17905179Y27738606D01*
X18036289Y27826211D01*
X18147789Y27937711D01*
X18235394Y28068821D01*
X18295737Y28214503D01*
X18326500Y28369158D01*
X18326500Y28526842D01*
X18326500Y28526845D01*
X18326499Y28526847D01*
X18306010Y28629852D01*
X18295737Y28681497D01*
X18235394Y28827179D01*
X18197396Y28884047D01*
X18176520Y28950724D01*
X18176500Y28952936D01*
X18176500Y40862623D01*
X18196185Y40929662D01*
X18248989Y40975417D01*
X18318147Y40985361D01*
X18381703Y40956336D01*
X18398870Y40938117D01*
X18493081Y40815339D01*
X18493085Y40815335D01*
X18493089Y40815330D01*
X18655330Y40653089D01*
X18655338Y40653082D01*
X18655339Y40653081D01*
X18686990Y40628794D01*
X18837382Y40513393D01*
X18837385Y40513392D01*
X18837388Y40513389D01*
X19036112Y40398656D01*
X19084952Y40378426D01*
X19139355Y40334587D01*
X19161421Y40268293D01*
X19161500Y40263865D01*
X19161500Y33971931D01*
X19182329Y33867219D01*
X19186499Y33846256D01*
X19235535Y33727873D01*
X19273870Y33670500D01*
X19306726Y33621327D01*
X19306727Y33621326D01*
X20322723Y32605331D01*
X20355181Y32572873D01*
X20388666Y32511550D01*
X20391500Y32485192D01*
X20391500Y30030466D01*
X20371815Y29963427D01*
X20340387Y29930149D01*
X20259927Y29871691D01*
X20126312Y29738076D01*
X20126312Y29738075D01*
X20126310Y29738073D01*
X20078610Y29672421D01*
X20015240Y29585200D01*
X19929454Y29416837D01*
X19871059Y29237119D01*
X19841500Y29050487D01*
X19841500Y28861514D01*
X19871059Y28674882D01*
X19929454Y28495164D01*
X19993658Y28369158D01*
X20015240Y28326801D01*
X20126310Y28173927D01*
X20259927Y28040310D01*
X20412801Y27929240D01*
X20492347Y27888710D01*
X20581163Y27843455D01*
X20581165Y27843455D01*
X20581168Y27843453D01*
X20677497Y27812154D01*
X20760881Y27785060D01*
X20947514Y27755500D01*
X20947519Y27755500D01*
X21136486Y27755500D01*
X21323118Y27785060D01*
X21324623Y27785549D01*
X21502832Y27843453D01*
X21671199Y27929240D01*
X21697182Y27948118D01*
X28007669Y27948118D01*
X28007670Y27948117D01*
X28033059Y27929671D01*
X28201362Y27843915D01*
X28380997Y27785549D01*
X28567553Y27756000D01*
X28756447Y27756000D01*
X28943002Y27785549D01*
X29122637Y27843915D01*
X29290937Y27929669D01*
X29316328Y27948117D01*
X29316328Y27948118D01*
X28662001Y28602446D01*
X28662000Y28602446D01*
X28007669Y27948118D01*
X21697182Y27948118D01*
X21824073Y28040310D01*
X21957690Y28173927D01*
X22068760Y28326801D01*
X22154547Y28495168D01*
X22212940Y28674882D01*
X22213988Y28681497D01*
X22242500Y28861514D01*
X22242500Y29050448D01*
X27462000Y29050448D01*
X27462000Y28861553D01*
X27491548Y28674998D01*
X27549914Y28495363D01*
X27635666Y28327067D01*
X27654116Y28301672D01*
X28308446Y28956000D01*
X28308446Y28956001D01*
X28262369Y29002078D01*
X28312000Y29002078D01*
X28312000Y28909922D01*
X28335852Y28820905D01*
X28381930Y28741095D01*
X28447095Y28675930D01*
X28526905Y28629852D01*
X28615922Y28606000D01*
X28708078Y28606000D01*
X28797095Y28629852D01*
X28876905Y28675930D01*
X28942070Y28741095D01*
X28988148Y28820905D01*
X29012000Y28909922D01*
X29012000Y28956001D01*
X29015554Y28956001D01*
X29015554Y28956000D01*
X29669882Y28301672D01*
X29669883Y28301672D01*
X29688331Y28327063D01*
X29774085Y28495363D01*
X29832451Y28674998D01*
X29862000Y28861553D01*
X29862000Y29050448D01*
X29832451Y29237003D01*
X29774085Y29416638D01*
X29688329Y29584941D01*
X29669883Y29610330D01*
X29669882Y29610331D01*
X29015554Y28956001D01*
X29012000Y28956001D01*
X29012000Y29002078D01*
X28988148Y29091095D01*
X28942070Y29170905D01*
X28876905Y29236070D01*
X28797095Y29282148D01*
X28708078Y29306000D01*
X28615922Y29306000D01*
X28526905Y29282148D01*
X28447095Y29236070D01*
X28381930Y29170905D01*
X28335852Y29091095D01*
X28312000Y29002078D01*
X28262369Y29002078D01*
X27654116Y29610331D01*
X27654116Y29610330D01*
X27635669Y29584940D01*
X27549914Y29416638D01*
X27491548Y29237003D01*
X27462000Y29050448D01*
X22242500Y29050448D01*
X22242500Y29050487D01*
X22212940Y29237119D01*
X22154545Y29416837D01*
X22109290Y29505653D01*
X22068760Y29585199D01*
X21957690Y29738073D01*
X21824073Y29871690D01*
X21740544Y29932378D01*
X21737592Y29934813D01*
X21720049Y29960708D01*
X21717600Y29963884D01*
X28007669Y29963884D01*
X28662000Y29309554D01*
X28662001Y29309554D01*
X29316328Y29963884D01*
X29290933Y29982334D01*
X29122637Y30068086D01*
X28943002Y30126452D01*
X28756447Y30156000D01*
X28567553Y30156000D01*
X28380997Y30126452D01*
X28201362Y30068086D01*
X28033060Y29982331D01*
X28007670Y29963884D01*
X28007669Y29963884D01*
X21717600Y29963884D01*
X21700948Y29985479D01*
X21700058Y29990216D01*
X21698404Y29992658D01*
X21698226Y29999970D01*
X21692500Y30030466D01*
X21692500Y31734860D01*
X21712185Y31801899D01*
X21764989Y31847654D01*
X21834147Y31857598D01*
X21872796Y31845344D01*
X21932774Y31814783D01*
X21932777Y31814783D01*
X21932781Y31814780D01*
X22067245Y31771090D01*
X22127465Y31751523D01*
X22228557Y31735512D01*
X22329648Y31719500D01*
X22329649Y31719500D01*
X22534351Y31719500D01*
X22534352Y31719500D01*
X22736534Y31751523D01*
X22931219Y31814780D01*
X23113610Y31907713D01*
X23246574Y32004316D01*
X23279213Y32028029D01*
X23279215Y32028032D01*
X23279219Y32028034D01*
X23423966Y32172781D01*
X23423968Y32172785D01*
X23423971Y32172787D01*
X23476732Y32245410D01*
X23544287Y32338390D01*
X23637220Y32520781D01*
X23700477Y32715466D01*
X23732500Y32917648D01*
X23732500Y33122352D01*
X26131500Y33122352D01*
X26131500Y32917649D01*
X26163522Y32715466D01*
X26226781Y32520777D01*
X26319715Y32338387D01*
X26440028Y32172787D01*
X26584786Y32028029D01*
X26739749Y31915444D01*
X26750390Y31907713D01*
X26848746Y31857598D01*
X26932776Y31814782D01*
X26932778Y31814782D01*
X26932781Y31814780D01*
X26972425Y31801899D01*
X27127465Y31751523D01*
X27228557Y31735512D01*
X27329648Y31719500D01*
X27329649Y31719500D01*
X27534351Y31719500D01*
X27534352Y31719500D01*
X27736534Y31751523D01*
X27931219Y31814780D01*
X28113610Y31907713D01*
X28246574Y32004316D01*
X28279213Y32028029D01*
X28279215Y32028032D01*
X28279219Y32028034D01*
X28423966Y32172781D01*
X28529753Y32318387D01*
X28585082Y32361051D01*
X28630071Y32369500D01*
X41466071Y32369500D01*
X41550615Y32386318D01*
X41591744Y32394499D01*
X41710127Y32443535D01*
X41716418Y32447739D01*
X41716427Y32447742D01*
X41716426Y32447743D01*
X41811920Y32511550D01*
X41816669Y32514723D01*
X42923277Y33621331D01*
X42994465Y33727873D01*
X43043501Y33846256D01*
X43047671Y33867219D01*
X43068500Y33971931D01*
X43068500Y37639042D01*
X43088185Y37706081D01*
X43119613Y37739359D01*
X43265219Y37845146D01*
X43409966Y37989893D01*
X43409968Y37989897D01*
X43409971Y37989899D01*
X43483583Y38091219D01*
X43530287Y38155502D01*
X43623220Y38337893D01*
X43686477Y38532578D01*
X43718500Y38734760D01*
X43718500Y38939464D01*
X43703027Y39037158D01*
X43686477Y39141647D01*
X43655458Y39237112D01*
X43623220Y39336331D01*
X43623218Y39336334D01*
X43623218Y39336336D01*
X43558510Y39463331D01*
X43530287Y39518722D01*
X43498092Y39563035D01*
X43409971Y39684326D01*
X43265217Y39829080D01*
X43209358Y39869664D01*
X43166693Y39924994D01*
X43160714Y39994608D01*
X43193320Y40056403D01*
X43243236Y40087686D01*
X43287334Y40102298D01*
X43436656Y40194400D01*
X43560712Y40318456D01*
X43652814Y40467778D01*
X43697164Y40601618D01*
X43736936Y40659061D01*
X43801451Y40685884D01*
X43814869Y40686612D01*
X44448080Y40686612D01*
X44515119Y40666927D01*
X44535761Y40650293D01*
X44779181Y40406873D01*
X44812666Y40345550D01*
X44815500Y40319192D01*
X44815500Y30546808D01*
X44795815Y30479769D01*
X44779181Y30459127D01*
X44470873Y30150819D01*
X44409550Y30117334D01*
X44383192Y30114500D01*
X38289929Y30114500D01*
X38164261Y30089503D01*
X38164255Y30089501D01*
X38045870Y30040465D01*
X37939331Y29969278D01*
X37939324Y29969272D01*
X37340723Y29370670D01*
X37332838Y29358867D01*
X37332835Y29358863D01*
X37269534Y29264126D01*
X37220499Y29145745D01*
X37220497Y29145739D01*
X37195500Y29020072D01*
X37195500Y27282500D01*
X37175815Y27215461D01*
X37123011Y27169706D01*
X37071505Y27158500D01*
X37048132Y27158500D01*
X37048123Y27158499D01*
X36988516Y27152092D01*
X36853671Y27101798D01*
X36853664Y27101794D01*
X36738455Y27015548D01*
X36738452Y27015545D01*
X36652206Y26900336D01*
X36652202Y26900329D01*
X36601908Y26765483D01*
X36597303Y26722646D01*
X36595501Y26705877D01*
X36595500Y26705865D01*
X36595500Y25110130D01*
X36595501Y25110124D01*
X36601908Y25050517D01*
X36652202Y24915672D01*
X36652206Y24915665D01*
X36738452Y24800456D01*
X36738455Y24800453D01*
X36853664Y24714207D01*
X36853671Y24714203D01*
X36863841Y24710410D01*
X36988517Y24663909D01*
X37048127Y24657500D01*
X37071497Y24657501D01*
X37138536Y24637819D01*
X37184292Y24585017D01*
X37195500Y24533501D01*
X37195500Y20894809D01*
X37175815Y20827770D01*
X37159181Y20807128D01*
X36832727Y20480675D01*
X36832726Y20480674D01*
X36768304Y20384257D01*
X36768301Y20384253D01*
X36761537Y20374132D01*
X36761533Y20374125D01*
X36712499Y20255745D01*
X36712497Y20255739D01*
X36687500Y20130072D01*
X36687500Y19606466D01*
X36667815Y19539427D01*
X36636387Y19506149D01*
X36555927Y19447691D01*
X36422312Y19314076D01*
X36422312Y19314075D01*
X36422310Y19314073D01*
X36388470Y19267496D01*
X36311240Y19161200D01*
X36225454Y18992837D01*
X36167059Y18813119D01*
X36137500Y18626487D01*
X36137500Y18437514D01*
X36167059Y18250882D01*
X36225454Y18071164D01*
X36311104Y17903067D01*
X36311240Y17902801D01*
X36422310Y17749927D01*
X36555927Y17616310D01*
X36708801Y17505240D01*
X36763499Y17477370D01*
X36877163Y17419455D01*
X36877165Y17419455D01*
X36877168Y17419453D01*
X36929904Y17402318D01*
X37056881Y17361060D01*
X37243514Y17331500D01*
X37243519Y17331500D01*
X37432486Y17331500D01*
X37619118Y17361060D01*
X37620623Y17361549D01*
X37798832Y17419453D01*
X37967199Y17505240D01*
X38120073Y17616310D01*
X38247444Y17743681D01*
X38308767Y17777166D01*
X38335125Y17780000D01*
X39388875Y17780000D01*
X39455914Y17760315D01*
X39476556Y17743681D01*
X39603927Y17616310D01*
X39756801Y17505240D01*
X39811499Y17477370D01*
X39925163Y17419455D01*
X39925165Y17419455D01*
X39925168Y17419453D01*
X39977904Y17402318D01*
X40104881Y17361060D01*
X40291514Y17331500D01*
X40291519Y17331500D01*
X40480486Y17331500D01*
X40667118Y17361060D01*
X40668623Y17361549D01*
X40846832Y17419453D01*
X41015199Y17505240D01*
X41168073Y17616310D01*
X41301690Y17749927D01*
X41360147Y17830387D01*
X41415478Y17873051D01*
X41460465Y17881500D01*
X42040445Y17881500D01*
X42107484Y17861815D01*
X42153239Y17809011D01*
X42158145Y17796520D01*
X42199186Y17672666D01*
X42291288Y17523344D01*
X42415344Y17399288D01*
X42564666Y17307186D01*
X42731203Y17252001D01*
X42833991Y17241500D01*
X44034008Y17241501D01*
X44136797Y17252001D01*
X44144495Y17254553D01*
X44214324Y17256954D01*
X44274366Y17221223D01*
X44305559Y17158702D01*
X44307500Y17136846D01*
X44307500Y14290809D01*
X44287815Y14223770D01*
X44271181Y14203128D01*
X42928727Y12860675D01*
X42928726Y12860674D01*
X42857534Y12754126D01*
X42808499Y12635745D01*
X42808497Y12635739D01*
X42783500Y12510072D01*
X42783500Y12120072D01*
X42763815Y12053033D01*
X42732385Y12019754D01*
X42586787Y11913972D01*
X42586782Y11913968D01*
X42442028Y11769214D01*
X42321715Y11603614D01*
X42228781Y11421224D01*
X42165522Y11226535D01*
X42133500Y11024352D01*
X42133500Y10819649D01*
X42165522Y10617466D01*
X42228781Y10422777D01*
X42292691Y10297347D01*
X42312907Y10257672D01*
X42321715Y10240387D01*
X42442028Y10074787D01*
X42586786Y9930029D01*
X42741749Y9817444D01*
X42752390Y9809713D01*
X42868607Y9750497D01*
X42934776Y9716782D01*
X42934778Y9716782D01*
X42934781Y9716780D01*
X43039137Y9682873D01*
X43129465Y9653523D01*
X43230557Y9637512D01*
X43331648Y9621500D01*
X43331649Y9621500D01*
X43536351Y9621500D01*
X43536352Y9621500D01*
X43738534Y9653523D01*
X43933219Y9716780D01*
X44115610Y9809713D01*
X44245547Y9904117D01*
X44281213Y9930029D01*
X44281215Y9930032D01*
X44281219Y9930034D01*
X44425966Y10074781D01*
X44425968Y10074785D01*
X44425971Y10074787D01*
X44478732Y10147410D01*
X44546287Y10240390D01*
X44639220Y10422781D01*
X44702477Y10617466D01*
X44734500Y10819648D01*
X44734500Y11006487D01*
X45281500Y11006487D01*
X45281500Y10817514D01*
X45311059Y10630882D01*
X45369454Y10451164D01*
X45455104Y10283067D01*
X45455240Y10282801D01*
X45566310Y10129927D01*
X45699927Y9996310D01*
X45852801Y9885240D01*
X45932347Y9844710D01*
X46021163Y9799455D01*
X46021165Y9799455D01*
X46021168Y9799453D01*
X46117497Y9768154D01*
X46200881Y9741060D01*
X46387514Y9711500D01*
X46387519Y9711500D01*
X46576486Y9711500D01*
X46763118Y9741060D01*
X46764623Y9741549D01*
X46942832Y9799453D01*
X47111199Y9885240D01*
X47264073Y9996310D01*
X47397690Y10129927D01*
X47508760Y10282801D01*
X47594547Y10451168D01*
X47652940Y10630882D01*
X47663427Y10697095D01*
X47682500Y10817514D01*
X47682500Y11006487D01*
X47652940Y11193119D01*
X47594545Y11372837D01*
X47549290Y11461653D01*
X47508760Y11541199D01*
X47397690Y11694073D01*
X47264073Y11827690D01*
X47111199Y11938760D01*
X47105062Y11941887D01*
X46942836Y12024546D01*
X46763118Y12082941D01*
X46576486Y12112500D01*
X46576481Y12112500D01*
X46387519Y12112500D01*
X46387514Y12112500D01*
X46200881Y12082941D01*
X46021163Y12024546D01*
X45852800Y11938760D01*
X45818675Y11913966D01*
X45699927Y11827690D01*
X45699925Y11827688D01*
X45699924Y11827688D01*
X45566312Y11694076D01*
X45566312Y11694075D01*
X45566310Y11694073D01*
X45518610Y11628421D01*
X45455240Y11541200D01*
X45369454Y11372837D01*
X45311059Y11193119D01*
X45281500Y11006487D01*
X44734500Y11006487D01*
X44734500Y11024352D01*
X44702477Y11226534D01*
X44698703Y11238148D01*
X44639218Y11421224D01*
X44578087Y11541199D01*
X44546287Y11603610D01*
X44538556Y11614251D01*
X44425971Y11769214D01*
X44281217Y11913968D01*
X44281212Y11913972D01*
X44135615Y12019754D01*
X44132274Y12024086D01*
X44127297Y12026359D01*
X44111164Y12051462D01*
X44092949Y12075084D01*
X44091696Y12081756D01*
X44089523Y12085137D01*
X44084500Y12120072D01*
X44084500Y12125192D01*
X44104185Y12192231D01*
X44120819Y12212873D01*
X45463271Y13555325D01*
X45463276Y13555330D01*
X45534465Y13661873D01*
X45583501Y13780256D01*
X45597872Y13852500D01*
X45608500Y13905930D01*
X45608500Y17439372D01*
X45628185Y17506411D01*
X45680989Y17552166D01*
X45750147Y17562110D01*
X45805385Y17539690D01*
X45831294Y17520866D01*
X45852799Y17505241D01*
X46021163Y17419455D01*
X46021165Y17419455D01*
X46021168Y17419453D01*
X46073904Y17402318D01*
X46200881Y17361060D01*
X46387514Y17331500D01*
X46387519Y17331500D01*
X46576486Y17331500D01*
X46763118Y17361060D01*
X46764623Y17361549D01*
X46942832Y17419453D01*
X47111199Y17505240D01*
X47264073Y17616310D01*
X47397690Y17749927D01*
X47508760Y17902801D01*
X47594547Y18071168D01*
X47652940Y18250882D01*
X47663427Y18317095D01*
X47682500Y18437514D01*
X47682500Y18626487D01*
X47652940Y18813119D01*
X47594545Y18992837D01*
X47549290Y19081653D01*
X47508760Y19161199D01*
X47397690Y19314073D01*
X47264073Y19447690D01*
X47111199Y19558760D01*
X47092766Y19568152D01*
X46942836Y19644546D01*
X46763118Y19702941D01*
X46576486Y19732500D01*
X46576481Y19732500D01*
X46387519Y19732500D01*
X46387514Y19732500D01*
X46200881Y19702941D01*
X46021163Y19644546D01*
X45852797Y19558758D01*
X45805385Y19524311D01*
X45739579Y19500831D01*
X45671525Y19516657D01*
X45622830Y19566762D01*
X45608500Y19624629D01*
X45608500Y21908072D01*
X45583502Y22033739D01*
X45583501Y22033740D01*
X45583501Y22033744D01*
X45534465Y22152127D01*
X45486990Y22223179D01*
X45486990Y22223180D01*
X45463274Y22258673D01*
X44864673Y22857274D01*
X44864669Y22857277D01*
X44758127Y22928465D01*
X44639744Y22977501D01*
X44639738Y22977503D01*
X44514071Y23002500D01*
X44514069Y23002500D01*
X43700500Y23002500D01*
X43633461Y23022185D01*
X43587706Y23074989D01*
X43576500Y23126500D01*
X43576500Y24771732D01*
X43596185Y24838771D01*
X43627615Y24872050D01*
X43740646Y24954172D01*
X43879828Y25093354D01*
X43995524Y25252595D01*
X44084884Y25427975D01*
X44145709Y25615174D01*
X44176500Y25809578D01*
X44176500Y26006423D01*
X44145709Y26200827D01*
X44099925Y26341733D01*
X44084884Y26388025D01*
X44084882Y26388028D01*
X44084882Y26388030D01*
X43995523Y26563406D01*
X43991183Y26569380D01*
X43879828Y26722646D01*
X43740646Y26861828D01*
X43581405Y26977524D01*
X43576498Y26980024D01*
X43406029Y27066883D01*
X43218826Y27127710D01*
X43024422Y27158500D01*
X43024417Y27158500D01*
X42827583Y27158500D01*
X42827578Y27158500D01*
X42633173Y27127710D01*
X42445970Y27066883D01*
X42270594Y26977524D01*
X42179741Y26911515D01*
X42111354Y26861828D01*
X42111352Y26861826D01*
X42111351Y26861826D01*
X41972174Y26722649D01*
X41972174Y26722648D01*
X41972172Y26722646D01*
X41959980Y26705865D01*
X41856476Y26563406D01*
X41766485Y26386787D01*
X41718511Y26335991D01*
X41650690Y26319196D01*
X41584555Y26341733D01*
X41545515Y26386787D01*
X41498284Y26479483D01*
X41455524Y26563405D01*
X41339828Y26722646D01*
X41200646Y26861828D01*
X41041405Y26977524D01*
X41036498Y26980024D01*
X40866029Y27066883D01*
X40678826Y27127710D01*
X40484422Y27158500D01*
X40484417Y27158500D01*
X40287583Y27158500D01*
X40287578Y27158500D01*
X40093173Y27127710D01*
X39905970Y27066883D01*
X39730594Y26977524D01*
X39639741Y26911515D01*
X39571354Y26861828D01*
X39571352Y26861826D01*
X39571351Y26861826D01*
X39432173Y26722648D01*
X39320817Y26569380D01*
X39265486Y26526715D01*
X39195873Y26520736D01*
X39134078Y26553342D01*
X39099721Y26614181D01*
X39096499Y26642266D01*
X39096499Y26705871D01*
X39096498Y26705877D01*
X39096497Y26705884D01*
X39090091Y26765483D01*
X39088445Y26769895D01*
X39039797Y26900329D01*
X39039793Y26900336D01*
X38953547Y27015545D01*
X38953544Y27015548D01*
X38838335Y27101794D01*
X38838328Y27101798D01*
X38703482Y27152092D01*
X38703483Y27152092D01*
X38643883Y27158499D01*
X38643881Y27158500D01*
X38643873Y27158500D01*
X38643865Y27158500D01*
X38620500Y27158500D01*
X38553461Y27178185D01*
X38507706Y27230989D01*
X38496500Y27282500D01*
X38496500Y28635192D01*
X38505144Y28664633D01*
X38511668Y28694619D01*
X38515422Y28699635D01*
X38516185Y28702231D01*
X38532819Y28722873D01*
X38587127Y28777181D01*
X38648450Y28810666D01*
X38674808Y28813500D01*
X44768071Y28813500D01*
X44852615Y28830318D01*
X44893744Y28838499D01*
X45012127Y28887535D01*
X45018706Y28891931D01*
X45118669Y28958723D01*
X45971277Y29811331D01*
X46042465Y29917873D01*
X46091501Y30036257D01*
X46114290Y30150819D01*
X46116500Y30161929D01*
X46116500Y40704072D01*
X46091502Y40829739D01*
X46091501Y40829740D01*
X46091501Y40829744D01*
X46053288Y40921999D01*
X46042466Y40948125D01*
X46042461Y40948133D01*
X46001157Y41009949D01*
X46001157Y41009950D01*
X45971277Y41054669D01*
X45971271Y41054676D01*
X45183561Y41842386D01*
X45161302Y41857259D01*
X45077015Y41913577D01*
X45020177Y41937120D01*
X44958632Y41962613D01*
X44958626Y41962615D01*
X44832959Y41987612D01*
X44832957Y41987612D01*
X43814870Y41987612D01*
X43747831Y42007297D01*
X43702076Y42060101D01*
X43697164Y42072607D01*
X43692192Y42087612D01*
X43652814Y42206446D01*
X43560712Y42355768D01*
X43436656Y42479824D01*
X43287334Y42571926D01*
X43120797Y42627111D01*
X43120795Y42627112D01*
X43018010Y42637612D01*
X41817998Y42637612D01*
X41817981Y42637611D01*
X41715203Y42627112D01*
X41715200Y42627111D01*
X41548668Y42571927D01*
X41548663Y42571925D01*
X41399342Y42479823D01*
X41275289Y42355770D01*
X41183187Y42206449D01*
X41183185Y42206444D01*
X41155843Y42123931D01*
X41128001Y42039909D01*
X41128001Y42039908D01*
X41128000Y42039908D01*
X41117500Y41937129D01*
X41117500Y40737111D01*
X41117501Y40737094D01*
X41128000Y40634316D01*
X41128001Y40634313D01*
X41183184Y40467784D01*
X41183186Y40467778D01*
X41275288Y40318456D01*
X41399344Y40194400D01*
X41548666Y40102298D01*
X41592759Y40087687D01*
X41650203Y40047916D01*
X41677027Y39983401D01*
X41664713Y39914625D01*
X41626642Y39869665D01*
X41570784Y39829081D01*
X41570782Y39829080D01*
X41426028Y39684326D01*
X41305715Y39518726D01*
X41212781Y39336336D01*
X41149522Y39141647D01*
X41117500Y38939464D01*
X41117500Y38734761D01*
X41149522Y38532578D01*
X41212781Y38337889D01*
X41276691Y38212459D01*
X41305585Y38155753D01*
X41305715Y38155499D01*
X41426028Y37989899D01*
X41570784Y37845143D01*
X41639863Y37794955D01*
X41716385Y37739359D01*
X41759051Y37684031D01*
X41767500Y37639042D01*
X41767500Y34356808D01*
X41747815Y34289769D01*
X41731181Y34269127D01*
X41168873Y33706819D01*
X41107550Y33673334D01*
X41081192Y33670500D01*
X28630071Y33670500D01*
X28563032Y33690185D01*
X28529754Y33721614D01*
X28423966Y33867219D01*
X28279219Y34011966D01*
X28279213Y34011972D01*
X28113613Y34132285D01*
X28113612Y34132286D01*
X28113610Y34132287D01*
X28056653Y34161309D01*
X27931223Y34225219D01*
X27736534Y34288478D01*
X27561995Y34316122D01*
X27534352Y34320500D01*
X27329648Y34320500D01*
X27305329Y34316649D01*
X27127465Y34288478D01*
X26932776Y34225219D01*
X26750386Y34132285D01*
X26584786Y34011972D01*
X26584782Y34011968D01*
X26440034Y33867219D01*
X26440032Y33867217D01*
X26319715Y33701614D01*
X26226781Y33519224D01*
X26163522Y33324535D01*
X26131500Y33122352D01*
X23732500Y33122352D01*
X23700477Y33324534D01*
X23696018Y33338256D01*
X23637218Y33519224D01*
X23558694Y33673334D01*
X23544287Y33701610D01*
X23474659Y33797446D01*
X23423968Y33867217D01*
X23279213Y34011972D01*
X23113613Y34132285D01*
X23113612Y34132286D01*
X23113610Y34132287D01*
X23056653Y34161309D01*
X22931223Y34225219D01*
X22736534Y34288478D01*
X22561995Y34316122D01*
X22534352Y34320500D01*
X22329648Y34320500D01*
X22305329Y34316649D01*
X22127465Y34288478D01*
X21932776Y34225219D01*
X21750386Y34132285D01*
X21584786Y34011972D01*
X21440034Y33867220D01*
X21389341Y33797446D01*
X21334246Y33721614D01*
X21329914Y33718274D01*
X21327642Y33713297D01*
X21302545Y33697169D01*
X21278918Y33678949D01*
X21272244Y33677696D01*
X21268864Y33675523D01*
X21233929Y33670500D01*
X21148808Y33670500D01*
X21081769Y33690185D01*
X21061127Y33706819D01*
X20498819Y34269127D01*
X20465334Y34330450D01*
X20462500Y34356808D01*
X20462500Y37694352D01*
X21091500Y37694352D01*
X21091500Y37489649D01*
X21123522Y37287466D01*
X21186781Y37092777D01*
X21279715Y36910387D01*
X21400028Y36744787D01*
X21544786Y36600029D01*
X21699749Y36487444D01*
X21710390Y36479713D01*
X21826607Y36420497D01*
X21892776Y36386782D01*
X21892778Y36386782D01*
X21892781Y36386780D01*
X21997137Y36352873D01*
X22087465Y36323523D01*
X22188557Y36307512D01*
X22289648Y36291500D01*
X22289649Y36291500D01*
X22494351Y36291500D01*
X22494352Y36291500D01*
X22696534Y36323523D01*
X22891219Y36386780D01*
X23073610Y36479713D01*
X23166590Y36547268D01*
X23239213Y36600029D01*
X23239215Y36600032D01*
X23239219Y36600034D01*
X23383966Y36744781D01*
X23383968Y36744785D01*
X23383971Y36744787D01*
X23436732Y36817410D01*
X23504287Y36910390D01*
X23597220Y37092781D01*
X23660477Y37287466D01*
X23692500Y37489648D01*
X23692500Y37694352D01*
X23660477Y37896534D01*
X23597220Y38091219D01*
X23597218Y38091222D01*
X23597218Y38091224D01*
X23563503Y38157393D01*
X23504287Y38273610D01*
X23496556Y38284251D01*
X23383971Y38439214D01*
X23239213Y38583972D01*
X23073613Y38704285D01*
X23073612Y38704286D01*
X23073610Y38704287D01*
X23016653Y38733309D01*
X22891223Y38797219D01*
X22696534Y38860478D01*
X22511569Y38889773D01*
X22494352Y38892500D01*
X22289648Y38892500D01*
X22272431Y38889773D01*
X22087465Y38860478D01*
X21892776Y38797219D01*
X21710386Y38704285D01*
X21544786Y38583972D01*
X21400028Y38439214D01*
X21279715Y38273614D01*
X21186781Y38091224D01*
X21123522Y37896535D01*
X21091500Y37694352D01*
X20462500Y37694352D01*
X20462500Y40263865D01*
X20482185Y40330904D01*
X20534989Y40376659D01*
X20539020Y40378415D01*
X20587888Y40398656D01*
X20786612Y40513389D01*
X20968661Y40653081D01*
X20968665Y40653086D01*
X20968670Y40653089D01*
X21130911Y40815330D01*
X21130914Y40815335D01*
X21130919Y40815339D01*
X21270611Y40997388D01*
X21385344Y41196112D01*
X21473158Y41408113D01*
X21532548Y41629762D01*
X21562500Y41857266D01*
X21562500Y42086734D01*
X21562499Y42086742D01*
X23141500Y42086742D01*
X23141500Y41857259D01*
X23166446Y41667785D01*
X23171452Y41629762D01*
X23171453Y41629760D01*
X23230842Y41408113D01*
X23318650Y41196124D01*
X23318657Y41196110D01*
X23433392Y40997383D01*
X23573081Y40815339D01*
X23573089Y40815330D01*
X23735330Y40653089D01*
X23735338Y40653082D01*
X23735339Y40653081D01*
X23766990Y40628794D01*
X23917382Y40513393D01*
X23917385Y40513392D01*
X23917388Y40513389D01*
X24116112Y40398656D01*
X24164952Y40378426D01*
X24219355Y40334587D01*
X24241421Y40268293D01*
X24241500Y40263865D01*
X24241500Y39813931D01*
X24263565Y39703006D01*
X24266499Y39688256D01*
X24315535Y39569873D01*
X24386723Y39463331D01*
X24386726Y39463327D01*
X25239326Y38610727D01*
X25239329Y38610725D01*
X25239331Y38610723D01*
X25345873Y38539535D01*
X25464256Y38490499D01*
X25464260Y38490499D01*
X25464261Y38490498D01*
X25589928Y38465500D01*
X25589931Y38465500D01*
X26175885Y38465500D01*
X26242924Y38445815D01*
X26288679Y38393011D01*
X26298623Y38323853D01*
X26281614Y38276713D01*
X26279715Y38273616D01*
X26186781Y38091224D01*
X26123522Y37896535D01*
X26091500Y37694352D01*
X26091500Y37489649D01*
X26123522Y37287466D01*
X26186781Y37092777D01*
X26279715Y36910387D01*
X26400028Y36744787D01*
X26544786Y36600029D01*
X26699749Y36487444D01*
X26710390Y36479713D01*
X26826607Y36420497D01*
X26892776Y36386782D01*
X26892778Y36386782D01*
X26892781Y36386780D01*
X26997137Y36352873D01*
X27087465Y36323523D01*
X27188557Y36307512D01*
X27289648Y36291500D01*
X27289649Y36291500D01*
X27494351Y36291500D01*
X27494352Y36291500D01*
X27696534Y36323523D01*
X27891219Y36386780D01*
X28073610Y36479713D01*
X28166590Y36547268D01*
X28239213Y36600029D01*
X28239215Y36600032D01*
X28239219Y36600034D01*
X28383966Y36744781D01*
X28383968Y36744785D01*
X28383971Y36744787D01*
X28436732Y36817410D01*
X28504287Y36910390D01*
X28597220Y37092781D01*
X28660477Y37287466D01*
X28692500Y37489648D01*
X28692500Y37694352D01*
X28660477Y37896534D01*
X28597220Y38091219D01*
X28597218Y38091222D01*
X28597218Y38091224D01*
X28504284Y38273616D01*
X28502386Y38276713D01*
X28484144Y38344159D01*
X28505261Y38410761D01*
X28559034Y38455373D01*
X28608115Y38465500D01*
X34293065Y38465500D01*
X34360104Y38445815D01*
X34361909Y38444634D01*
X34418821Y38406606D01*
X34418823Y38406605D01*
X34418827Y38406603D01*
X34564498Y38346265D01*
X34564503Y38346263D01*
X34677165Y38323853D01*
X34719153Y38315501D01*
X34719156Y38315500D01*
X34719158Y38315500D01*
X34876844Y38315500D01*
X34876845Y38315501D01*
X35031497Y38346263D01*
X35177179Y38406606D01*
X35308289Y38494211D01*
X35419789Y38605711D01*
X35507394Y38736821D01*
X35567737Y38882503D01*
X35598500Y39037158D01*
X35598500Y39194842D01*
X35598500Y39194845D01*
X35598499Y39194847D01*
X35567738Y39349490D01*
X35567737Y39349497D01*
X35567735Y39349502D01*
X35507397Y39495173D01*
X35507390Y39495186D01*
X35419789Y39626289D01*
X35419786Y39626293D01*
X35308292Y39737787D01*
X35308288Y39737790D01*
X35177185Y39825391D01*
X35177172Y39825398D01*
X35031501Y39885736D01*
X35031489Y39885739D01*
X34876845Y39916500D01*
X34876842Y39916500D01*
X34719158Y39916500D01*
X34719155Y39916500D01*
X34564510Y39885739D01*
X34564498Y39885736D01*
X34418827Y39825398D01*
X34418820Y39825394D01*
X34401665Y39813931D01*
X34361955Y39787398D01*
X34295279Y39766520D01*
X34293065Y39766500D01*
X25974808Y39766500D01*
X25907769Y39786185D01*
X25887127Y39802819D01*
X25578819Y40111127D01*
X25564115Y40138055D01*
X25547523Y40163873D01*
X25546631Y40170074D01*
X25545334Y40172450D01*
X25542500Y40198808D01*
X25542500Y40263865D01*
X25562185Y40330904D01*
X25614989Y40376659D01*
X25619020Y40378415D01*
X25667888Y40398656D01*
X25866612Y40513389D01*
X26048661Y40653081D01*
X26048665Y40653086D01*
X26048670Y40653089D01*
X26210911Y40815330D01*
X26210914Y40815335D01*
X26210919Y40815339D01*
X26350611Y40997388D01*
X26465344Y41196112D01*
X26553158Y41408113D01*
X26612548Y41629762D01*
X26642500Y41857266D01*
X26642500Y42086734D01*
X26612548Y42314238D01*
X26553158Y42535887D01*
X26503190Y42656520D01*
X26465349Y42747877D01*
X26465346Y42747883D01*
X26465344Y42747888D01*
X26350611Y42946612D01*
X26350608Y42946615D01*
X26350607Y42946618D01*
X26213884Y43124797D01*
X26210919Y43128661D01*
X26210918Y43128662D01*
X26210911Y43128670D01*
X26048670Y43290911D01*
X26048661Y43290919D01*
X25866617Y43430608D01*
X25667890Y43545343D01*
X25667876Y43545350D01*
X25455887Y43633158D01*
X25367604Y43656813D01*
X25234238Y43692548D01*
X25196215Y43697554D01*
X25006741Y43722500D01*
X25006734Y43722500D01*
X24777266Y43722500D01*
X24777258Y43722500D01*
X24560715Y43693991D01*
X24549762Y43692548D01*
X24456076Y43667446D01*
X24328112Y43633158D01*
X24116123Y43545350D01*
X24116109Y43545343D01*
X23917382Y43430608D01*
X23735338Y43290919D01*
X23573081Y43128662D01*
X23433392Y42946618D01*
X23318657Y42747891D01*
X23318650Y42747877D01*
X23245769Y42571925D01*
X23230842Y42535887D01*
X23171453Y42314239D01*
X23171452Y42314236D01*
X23141500Y42086742D01*
X21562499Y42086742D01*
X21532548Y42314238D01*
X21473158Y42535887D01*
X21423190Y42656520D01*
X21385349Y42747877D01*
X21385346Y42747883D01*
X21385344Y42747888D01*
X21270611Y42946612D01*
X21270608Y42946615D01*
X21270607Y42946618D01*
X21133884Y43124797D01*
X21130919Y43128661D01*
X21130918Y43128662D01*
X21130911Y43128670D01*
X20968670Y43290911D01*
X20968661Y43290919D01*
X20786617Y43430608D01*
X20587890Y43545343D01*
X20587876Y43545350D01*
X20375887Y43633158D01*
X20287604Y43656813D01*
X20154238Y43692548D01*
X20116215Y43697554D01*
X19926741Y43722500D01*
X19926734Y43722500D01*
X19697266Y43722500D01*
X19697258Y43722500D01*
X19480715Y43693991D01*
X19469762Y43692548D01*
X19376076Y43667446D01*
X19248112Y43633158D01*
X19036123Y43545350D01*
X19036109Y43545343D01*
X18837382Y43430608D01*
X18655338Y43290919D01*
X18493081Y43128662D01*
X18398875Y43005891D01*
X18342447Y42964688D01*
X18272701Y42960534D01*
X18211781Y42994747D01*
X18179029Y43056465D01*
X18176500Y43081378D01*
X18176500Y46565772D01*
X19469500Y46565772D01*
X19469500Y46398229D01*
X19502182Y46233926D01*
X19502184Y46233918D01*
X19566295Y46079140D01*
X19659373Y45939838D01*
X19777837Y45821374D01*
X19817038Y45795181D01*
X19917137Y45728297D01*
X20071918Y45664184D01*
X20219708Y45634787D01*
X20236228Y45631501D01*
X20236232Y45631500D01*
X20236233Y45631500D01*
X20403768Y45631500D01*
X20403769Y45631501D01*
X20568082Y45664184D01*
X20722863Y45728297D01*
X20831133Y45800641D01*
X20846041Y45810602D01*
X20912719Y45831480D01*
X20914932Y45831500D01*
X29143192Y45831500D01*
X29172632Y45822856D01*
X29202619Y45816332D01*
X29207634Y45812578D01*
X29210231Y45811815D01*
X29230873Y45795181D01*
X29285181Y45740873D01*
X29318666Y45679550D01*
X29321500Y45653192D01*
X29321500Y43846500D01*
X29301815Y43779461D01*
X29249011Y43733706D01*
X29197500Y43722500D01*
X28921999Y43722500D01*
X28921980Y43722499D01*
X28819203Y43712000D01*
X28819200Y43711999D01*
X28652668Y43656815D01*
X28652663Y43656813D01*
X28503342Y43564711D01*
X28379289Y43440658D01*
X28287187Y43291337D01*
X28287185Y43291332D01*
X28259349Y43207330D01*
X28232001Y43124797D01*
X28232001Y43124796D01*
X28232000Y43124796D01*
X28221500Y43022017D01*
X28221500Y40921999D01*
X28221501Y40921982D01*
X28232000Y40819204D01*
X28232001Y40819201D01*
X28287185Y40652669D01*
X28287187Y40652664D01*
X28294998Y40640000D01*
X28379288Y40503344D01*
X28503344Y40379288D01*
X28652666Y40287186D01*
X28819203Y40232001D01*
X28921991Y40221500D01*
X31022008Y40221501D01*
X31124797Y40232001D01*
X31291334Y40287186D01*
X31440656Y40379288D01*
X31564712Y40503344D01*
X31656814Y40652666D01*
X31711999Y40819203D01*
X31722500Y40921991D01*
X31722500Y41197500D01*
X31742185Y41264539D01*
X31794989Y41310294D01*
X31846500Y41321500D01*
X39496071Y41321500D01*
X39580615Y41338318D01*
X39621744Y41346499D01*
X39740127Y41395535D01*
X39745748Y41399292D01*
X39748579Y41401182D01*
X39797623Y41433952D01*
X39846669Y41466723D01*
X40383276Y42003330D01*
X40454465Y42109873D01*
X40503501Y42228256D01*
X40520604Y42314238D01*
X40528500Y42353931D01*
X40528500Y47939192D01*
X40537144Y47968633D01*
X40543668Y47998619D01*
X40547422Y48003635D01*
X40548185Y48006231D01*
X40564819Y48026873D01*
X40619127Y48081181D01*
X40680450Y48114666D01*
X40706808Y48117500D01*
X41212071Y48117500D01*
X41296615Y48134318D01*
X41337744Y48142499D01*
X41456127Y48191535D01*
X41462706Y48195931D01*
X41562669Y48262723D01*
X42161276Y48861330D01*
X42232465Y48967873D01*
X42281501Y49086256D01*
X42283627Y49096948D01*
X42283628Y49096948D01*
X42283628Y49096951D01*
X42306500Y49211931D01*
X42306500Y51464962D01*
X42326185Y51532001D01*
X42357614Y51565280D01*
X42361099Y51567812D01*
X42491164Y51662310D01*
X42624781Y51795927D01*
X42735851Y51948801D01*
X42821638Y52117168D01*
X42880031Y52296882D01*
X42894503Y52388256D01*
X42909591Y52483514D01*
X42909591Y52672487D01*
X42880031Y52859119D01*
X42821636Y53038837D01*
X42765880Y53148263D01*
X42735851Y53207199D01*
X42624781Y53360073D01*
X42491164Y53493690D01*
X42338290Y53604760D01*
X42332954Y53607479D01*
X42169927Y53690546D01*
X41990209Y53748941D01*
X41803577Y53778500D01*
X41803572Y53778500D01*
X41614610Y53778500D01*
X41614605Y53778500D01*
X41427972Y53748941D01*
X41248254Y53690546D01*
X41079891Y53604760D01*
X40927015Y53493688D01*
X40793403Y53360076D01*
X40793403Y53360075D01*
X40793401Y53360073D01*
X40785785Y53349590D01*
X40682331Y53207200D01*
X40596545Y53038837D01*
X40538150Y52859119D01*
X40508591Y52672487D01*
X40508591Y52483514D01*
X40538150Y52296882D01*
X40596545Y52117164D01*
X40682195Y51949067D01*
X40682331Y51948801D01*
X40793401Y51795927D01*
X40793403Y51795925D01*
X40927019Y51662309D01*
X40927022Y51662307D01*
X40954384Y51642428D01*
X40997050Y51587100D01*
X41005500Y51542109D01*
X41005500Y49596808D01*
X40996855Y49567368D01*
X40990332Y49537381D01*
X40986577Y49532366D01*
X40985815Y49529769D01*
X40969181Y49509127D01*
X40914873Y49454819D01*
X40853550Y49421334D01*
X40827192Y49418500D01*
X40321929Y49418500D01*
X40196261Y49393503D01*
X40196255Y49393501D01*
X40077870Y49344465D01*
X39971331Y49273278D01*
X39971324Y49273272D01*
X39372724Y48674672D01*
X39339869Y48625501D01*
X39339870Y48625500D01*
X39301534Y48568126D01*
X39252499Y48449745D01*
X39252497Y48449739D01*
X39227500Y48324072D01*
X39227500Y42746500D01*
X39207815Y42679461D01*
X39155011Y42633706D01*
X39103500Y42622500D01*
X31846499Y42622500D01*
X31779460Y42642185D01*
X31733705Y42694989D01*
X31722499Y42746500D01*
X31722499Y43022002D01*
X31722498Y43022019D01*
X31711999Y43124797D01*
X31711998Y43124800D01*
X31656954Y43290911D01*
X31656814Y43291334D01*
X31564712Y43440656D01*
X31440656Y43564712D01*
X31291334Y43656814D01*
X31124797Y43711999D01*
X31124795Y43712000D01*
X31022016Y43722500D01*
X31022009Y43722500D01*
X30746500Y43722500D01*
X30679461Y43742185D01*
X30633706Y43794989D01*
X30622500Y43846500D01*
X30622500Y46038072D01*
X30597502Y46163739D01*
X30597501Y46163740D01*
X30597501Y46163744D01*
X30548465Y46282127D01*
X30483304Y46379648D01*
X30477276Y46388670D01*
X30281628Y46584318D01*
X36118000Y46584318D01*
X36118000Y46379683D01*
X36150009Y46177583D01*
X36213244Y45982969D01*
X36306141Y45800650D01*
X36306147Y45800641D01*
X36338523Y45756079D01*
X36338524Y45756078D01*
X37018000Y46435554D01*
X37018000Y46429339D01*
X37045259Y46327606D01*
X37097920Y46236394D01*
X37172394Y46161920D01*
X37263606Y46109259D01*
X37365339Y46082000D01*
X37371553Y46082000D01*
X36692076Y45402526D01*
X36736650Y45370141D01*
X36918968Y45277245D01*
X37113582Y45214010D01*
X37315683Y45182000D01*
X37520317Y45182000D01*
X37722417Y45214010D01*
X37917031Y45277245D01*
X38099349Y45370141D01*
X38143921Y45402526D01*
X37464447Y46082000D01*
X37470661Y46082000D01*
X37572394Y46109259D01*
X37663606Y46161920D01*
X37738080Y46236394D01*
X37790741Y46327606D01*
X37818000Y46429339D01*
X37818000Y46435553D01*
X38497474Y45756079D01*
X38529859Y45800651D01*
X38622755Y45982969D01*
X38685990Y46177583D01*
X38718000Y46379683D01*
X38718000Y46584318D01*
X38685990Y46786418D01*
X38622755Y46981032D01*
X38529859Y47163350D01*
X38497474Y47207923D01*
X38497474Y47207924D01*
X37818000Y46528449D01*
X37818000Y46534661D01*
X37790741Y46636394D01*
X37738080Y46727606D01*
X37663606Y46802080D01*
X37572394Y46854741D01*
X37470661Y46882000D01*
X37464446Y46882000D01*
X38143922Y47561476D01*
X38143921Y47561477D01*
X38099359Y47593853D01*
X38099350Y47593859D01*
X37917031Y47686756D01*
X37722417Y47749991D01*
X37520317Y47782000D01*
X37315683Y47782000D01*
X37113582Y47749991D01*
X36918968Y47686756D01*
X36736644Y47593857D01*
X36692077Y47561477D01*
X36692077Y47561476D01*
X37371554Y46882000D01*
X37365339Y46882000D01*
X37263606Y46854741D01*
X37172394Y46802080D01*
X37097920Y46727606D01*
X37045259Y46636394D01*
X37018000Y46534661D01*
X37018000Y46528447D01*
X36338524Y47207923D01*
X36338523Y47207923D01*
X36306143Y47163356D01*
X36213244Y46981032D01*
X36150009Y46786418D01*
X36118000Y46584318D01*
X30281628Y46584318D01*
X30135863Y46730083D01*
X29878674Y46987273D01*
X29878673Y46987274D01*
X29878669Y46987277D01*
X29772127Y47058465D01*
X29653744Y47107501D01*
X29653738Y47107503D01*
X29528071Y47132500D01*
X29528069Y47132500D01*
X20914932Y47132500D01*
X20847893Y47152185D01*
X20846041Y47153398D01*
X20722860Y47235705D01*
X20568082Y47299816D01*
X20568074Y47299818D01*
X20403771Y47332500D01*
X20403767Y47332500D01*
X20236233Y47332500D01*
X20236228Y47332500D01*
X20071925Y47299818D01*
X20071917Y47299816D01*
X19917139Y47235705D01*
X19777837Y47142627D01*
X19659373Y47024163D01*
X19566295Y46884861D01*
X19502184Y46730083D01*
X19502182Y46730075D01*
X19469500Y46565772D01*
X18176500Y46565772D01*
X18176500Y48701192D01*
X18196185Y48768231D01*
X18212819Y48788873D01*
X18775127Y49351181D01*
X18836450Y49384666D01*
X18862808Y49387500D01*
X37910071Y49387500D01*
X37994615Y49404318D01*
X38035744Y49412499D01*
X38154127Y49461535D01*
X38160418Y49465739D01*
X38160427Y49465742D01*
X38160426Y49465743D01*
X38247726Y49524075D01*
X38260669Y49532723D01*
X39192913Y50464967D01*
X39264101Y50571509D01*
X39313137Y50689892D01*
X39316947Y50709044D01*
X39338136Y50815567D01*
X39338136Y51503536D01*
X39357821Y51570575D01*
X39389252Y51603855D01*
X39469705Y51662307D01*
X39469705Y51662308D01*
X39469709Y51662310D01*
X39603326Y51795927D01*
X39714396Y51948801D01*
X39800183Y52117168D01*
X39858576Y52296882D01*
X39873048Y52388256D01*
X39888136Y52483514D01*
X39888136Y52672487D01*
X39858576Y52859119D01*
X39800181Y53038837D01*
X39744425Y53148263D01*
X39714396Y53207199D01*
X39603326Y53360073D01*
X39469709Y53493690D01*
X39316835Y53604760D01*
X39311499Y53607479D01*
X39148472Y53690546D01*
X38968754Y53748941D01*
X38782122Y53778500D01*
X38782117Y53778500D01*
X38593155Y53778500D01*
X38593150Y53778500D01*
X38406517Y53748941D01*
X38226799Y53690546D01*
X38058436Y53604760D01*
X37905560Y53493688D01*
X37771948Y53360076D01*
X37771948Y53360075D01*
X37771946Y53360073D01*
X37764330Y53349590D01*
X37660876Y53207200D01*
X37575090Y53038837D01*
X37516695Y52859119D01*
X37487136Y52672487D01*
X37487136Y52483514D01*
X37516695Y52296882D01*
X37575090Y52117164D01*
X37660740Y51949067D01*
X37660876Y51948801D01*
X37771946Y51795927D01*
X37771948Y51795925D01*
X37905566Y51662307D01*
X37986020Y51603855D01*
X38028687Y51548525D01*
X38037136Y51503536D01*
X38037136Y51200444D01*
X38017451Y51133405D01*
X38000817Y51112763D01*
X37612873Y50724819D01*
X37551550Y50691334D01*
X37525192Y50688500D01*
X18477929Y50688500D01*
X18352261Y50663503D01*
X18352255Y50663501D01*
X18233874Y50614466D01*
X18233873Y50614465D01*
X18127331Y50543277D01*
X18127330Y50543276D01*
X18127329Y50543275D01*
X18127325Y50543273D01*
X17020724Y49436672D01*
X16987869Y49387501D01*
X16987870Y49387500D01*
X16949534Y49330126D01*
X16900499Y49211745D01*
X16900497Y49211739D01*
X16875500Y49086072D01*
X16875500Y28952936D01*
X16855815Y28885897D01*
X16854603Y28884046D01*
X16816608Y28827183D01*
X16816602Y28827172D01*
X16756264Y28681502D01*
X16756261Y28681490D01*
X16725500Y28526847D01*
X15736500Y28526847D01*
X15736500Y48587921D01*
X15707659Y48732908D01*
X15707658Y48732909D01*
X15707658Y48732913D01*
X15707275Y48733838D01*
X15651087Y48869489D01*
X15651080Y48869502D01*
X15568952Y48992415D01*
X15533441Y49027926D01*
X15464416Y49096951D01*
X14502819Y50058549D01*
X14469334Y50119872D01*
X14466500Y50146230D01*
X14466500Y51168416D01*
X14486185Y51235455D01*
X14538989Y51281210D01*
X14608147Y51291154D01*
X14646790Y51278903D01*
X14703515Y51250000D01*
X14779163Y51211455D01*
X14779165Y51211455D01*
X14779168Y51211453D01*
X14875497Y51180154D01*
X14958881Y51153060D01*
X15145514Y51123500D01*
X15145519Y51123500D01*
X15334486Y51123500D01*
X15521118Y51153060D01*
X15522623Y51153549D01*
X15700832Y51211453D01*
X15869199Y51297240D01*
X16022073Y51408310D01*
X16155690Y51541927D01*
X16176172Y51570118D01*
X35159669Y51570118D01*
X35159670Y51570117D01*
X35185059Y51551671D01*
X35353362Y51465915D01*
X35532997Y51407549D01*
X35719553Y51378000D01*
X35908447Y51378000D01*
X36095002Y51407549D01*
X36274637Y51465915D01*
X36442937Y51551669D01*
X36468328Y51570117D01*
X36468328Y51570118D01*
X35814001Y52224446D01*
X35814000Y52224446D01*
X35159669Y51570118D01*
X16176172Y51570118D01*
X16214147Y51622387D01*
X16269478Y51665051D01*
X16314465Y51673500D01*
X16574071Y51673500D01*
X16658615Y51690318D01*
X16699744Y51698499D01*
X16818127Y51747535D01*
X16837058Y51760184D01*
X16924669Y51818723D01*
X17269276Y52163330D01*
X17340465Y52269873D01*
X17389501Y52388256D01*
X17403939Y52460840D01*
X17414500Y52513931D01*
X17414500Y52672448D01*
X34614000Y52672448D01*
X34614000Y52483553D01*
X34643548Y52296998D01*
X34701914Y52117363D01*
X34787666Y51949067D01*
X34806116Y51923672D01*
X35460446Y52578000D01*
X35460446Y52578001D01*
X35414369Y52624078D01*
X35464000Y52624078D01*
X35464000Y52531922D01*
X35487852Y52442905D01*
X35533930Y52363095D01*
X35599095Y52297930D01*
X35678905Y52251852D01*
X35767922Y52228000D01*
X35860078Y52228000D01*
X35949095Y52251852D01*
X36028905Y52297930D01*
X36094070Y52363095D01*
X36140148Y52442905D01*
X36164000Y52531922D01*
X36164000Y52578001D01*
X36167554Y52578001D01*
X36167554Y52578000D01*
X36821882Y51923672D01*
X36821883Y51923672D01*
X36840331Y51949063D01*
X36926085Y52117363D01*
X36984451Y52296998D01*
X37014000Y52483553D01*
X37014000Y52672448D01*
X36984451Y52859003D01*
X36926085Y53038638D01*
X36840329Y53206941D01*
X36821883Y53232330D01*
X36821882Y53232331D01*
X36167554Y52578001D01*
X36164000Y52578001D01*
X36164000Y52624078D01*
X36140148Y52713095D01*
X36094070Y52792905D01*
X36028905Y52858070D01*
X35949095Y52904148D01*
X35860078Y52928000D01*
X35767922Y52928000D01*
X35678905Y52904148D01*
X35599095Y52858070D01*
X35533930Y52792905D01*
X35487852Y52713095D01*
X35464000Y52624078D01*
X35414369Y52624078D01*
X34806116Y53232331D01*
X34806116Y53232330D01*
X34787669Y53206940D01*
X34701914Y53038638D01*
X34643548Y52859003D01*
X34614000Y52672448D01*
X17414500Y52672448D01*
X17414500Y53585884D01*
X35159669Y53585884D01*
X35814000Y52931554D01*
X35814001Y52931554D01*
X36468328Y53585884D01*
X36442933Y53604334D01*
X36274637Y53690086D01*
X36095002Y53748452D01*
X35908447Y53778000D01*
X35719553Y53778000D01*
X35532997Y53748452D01*
X35353362Y53690086D01*
X35185060Y53604331D01*
X35159670Y53585884D01*
X35159669Y53585884D01*
X17414500Y53585884D01*
X17414500Y57845192D01*
X17423144Y57874633D01*
X17429668Y57904619D01*
X17433422Y57909635D01*
X17434185Y57912231D01*
X17450819Y57932873D01*
X17505127Y57987181D01*
X17566450Y58020666D01*
X17592808Y58023500D01*
X24702071Y58023500D01*
X24786615Y58040318D01*
X24827744Y58048499D01*
X24946127Y58097535D01*
X24952706Y58101931D01*
X25052669Y58168723D01*
X25905277Y59021331D01*
X25976465Y59127873D01*
X26025501Y59246257D01*
X26050500Y59371931D01*
X26050500Y59500069D01*
X26050500Y62238118D01*
X31857669Y62238118D01*
X31857670Y62238117D01*
X31883059Y62219671D01*
X32051362Y62133915D01*
X32230997Y62075549D01*
X32417553Y62046000D01*
X32606447Y62046000D01*
X32793002Y62075549D01*
X32972637Y62133915D01*
X33140937Y62219669D01*
X33166328Y62238117D01*
X33166328Y62238118D01*
X32512001Y62892446D01*
X32512000Y62892446D01*
X31857669Y62238118D01*
X26050500Y62238118D01*
X26050500Y63340448D01*
X31312000Y63340448D01*
X31312000Y63151553D01*
X31341548Y62964998D01*
X31399914Y62785363D01*
X31485666Y62617067D01*
X31504116Y62591672D01*
X32158446Y63246000D01*
X32158446Y63246001D01*
X32112369Y63292078D01*
X32162000Y63292078D01*
X32162000Y63199922D01*
X32185852Y63110905D01*
X32231930Y63031095D01*
X32297095Y62965930D01*
X32376905Y62919852D01*
X32465922Y62896000D01*
X32558078Y62896000D01*
X32647095Y62919852D01*
X32726905Y62965930D01*
X32792070Y63031095D01*
X32838148Y63110905D01*
X32862000Y63199922D01*
X32862000Y63246001D01*
X32865554Y63246001D01*
X32865554Y63246000D01*
X33519882Y62591672D01*
X33519883Y62591672D01*
X33538331Y62617063D01*
X33624085Y62785363D01*
X33682451Y62964998D01*
X33712000Y63151553D01*
X33712000Y63340448D01*
X33682451Y63527003D01*
X33624085Y63706638D01*
X33538329Y63874941D01*
X33519883Y63900330D01*
X33519882Y63900331D01*
X32865554Y63246001D01*
X32862000Y63246001D01*
X32862000Y63292078D01*
X32838148Y63381095D01*
X32792070Y63460905D01*
X32726905Y63526070D01*
X32647095Y63572148D01*
X32558078Y63596000D01*
X32465922Y63596000D01*
X32376905Y63572148D01*
X32297095Y63526070D01*
X32231930Y63460905D01*
X32185852Y63381095D01*
X32162000Y63292078D01*
X32112369Y63292078D01*
X31504116Y63900331D01*
X31504116Y63900330D01*
X31485669Y63874940D01*
X31399914Y63706638D01*
X31341548Y63527003D01*
X31312000Y63340448D01*
X26050500Y63340448D01*
X26050500Y64253884D01*
X31857669Y64253884D01*
X32512000Y63599554D01*
X32512001Y63599554D01*
X33166328Y64253884D01*
X33140933Y64272334D01*
X32972637Y64358086D01*
X32793002Y64416452D01*
X32606447Y64446000D01*
X32417553Y64446000D01*
X32230997Y64416452D01*
X32051362Y64358086D01*
X31883060Y64272331D01*
X31857670Y64253884D01*
X31857669Y64253884D01*
X26050500Y64253884D01*
X26050500Y66935732D01*
X26070185Y67002771D01*
X26101615Y67036050D01*
X26214646Y67118172D01*
X26353828Y67257354D01*
X26469524Y67416595D01*
X26553013Y67580453D01*
X26559515Y67593213D01*
X26607489Y67644010D01*
X26675310Y67660805D01*
X26741445Y67638268D01*
X26780485Y67593213D01*
X26870474Y67416597D01*
X26880660Y67402578D01*
X26986172Y67257354D01*
X27125354Y67118172D01*
X27284595Y67002476D01*
X27327294Y66980720D01*
X27459970Y66913118D01*
X27459972Y66913118D01*
X27459975Y66913116D01*
X27560317Y66880513D01*
X27647173Y66852291D01*
X27841578Y66821500D01*
X27841583Y66821500D01*
X28038422Y66821500D01*
X28232826Y66852291D01*
X28240120Y66854661D01*
X28420025Y66913116D01*
X28595405Y67002476D01*
X28754646Y67118172D01*
X28893828Y67257354D01*
X28975950Y67370386D01*
X29031280Y67413051D01*
X29076268Y67421500D01*
X34985192Y67421500D01*
X35014632Y67412856D01*
X35044619Y67406332D01*
X35049634Y67402578D01*
X35052231Y67401815D01*
X35072873Y67385181D01*
X35113908Y67344146D01*
X35147393Y67282823D01*
X35150227Y67256465D01*
X35150227Y64444072D01*
X35130542Y64377033D01*
X35099112Y64343754D01*
X34953514Y64237972D01*
X34953509Y64237968D01*
X34808755Y64093214D01*
X34688442Y63927614D01*
X34595508Y63745224D01*
X34532249Y63550535D01*
X34500227Y63348352D01*
X34500227Y63143649D01*
X34532249Y62941466D01*
X34595508Y62746777D01*
X34688442Y62564387D01*
X34808755Y62398787D01*
X34808761Y62398781D01*
X34953508Y62254034D01*
X34999111Y62220902D01*
X35041777Y62165575D01*
X35050227Y62120584D01*
X35050227Y61183352D01*
X35030542Y61116313D01*
X35013908Y61095671D01*
X34898312Y60980076D01*
X34898312Y60980075D01*
X34898310Y60980073D01*
X34871463Y60943121D01*
X34787240Y60827200D01*
X34701454Y60658837D01*
X34643059Y60479119D01*
X34613500Y60292487D01*
X34613500Y60103514D01*
X34643059Y59916882D01*
X34701454Y59737164D01*
X34744384Y59652910D01*
X34787240Y59568801D01*
X34898310Y59415927D01*
X35031927Y59282310D01*
X35184801Y59171240D01*
X35264347Y59130710D01*
X35353163Y59085455D01*
X35353165Y59085455D01*
X35353168Y59085453D01*
X35437207Y59058147D01*
X35532881Y59027060D01*
X35719514Y58997500D01*
X35719519Y58997500D01*
X35908486Y58997500D01*
X36095118Y59027060D01*
X36098974Y59028313D01*
X36274832Y59085453D01*
X36443199Y59171240D01*
X36596073Y59282310D01*
X36729690Y59415927D01*
X36840760Y59568801D01*
X36926547Y59737168D01*
X36984940Y59916882D01*
X36997028Y59993202D01*
X37014500Y60103514D01*
X37014500Y60292487D01*
X36984940Y60479119D01*
X36945787Y60599617D01*
X36926547Y60658832D01*
X36926545Y60658835D01*
X36926545Y60658837D01*
X36870789Y60768263D01*
X36840760Y60827199D01*
X36729690Y60980073D01*
X36596073Y61113690D01*
X36596071Y61113691D01*
X36594689Y61114872D01*
X36594309Y61115454D01*
X36592628Y61117135D01*
X36592981Y61117489D01*
X36556500Y61173381D01*
X36551227Y61209157D01*
X36551227Y62120584D01*
X36570912Y62187623D01*
X36602340Y62220901D01*
X36647946Y62254034D01*
X36792693Y62398781D01*
X36792695Y62398785D01*
X36792698Y62398787D01*
X36853260Y62482145D01*
X36913014Y62564390D01*
X37005947Y62746781D01*
X37069204Y62941466D01*
X37101227Y63143648D01*
X37101227Y63348352D01*
X37069204Y63550534D01*
X37053276Y63599554D01*
X37030781Y63668787D01*
X37005947Y63745219D01*
X37005945Y63745222D01*
X37005945Y63745224D01*
X36913052Y63927536D01*
X36913051Y63927538D01*
X36913014Y63927610D01*
X36816242Y64060807D01*
X36808864Y64070963D01*
X36808862Y64070965D01*
X36792694Y64093218D01*
X36647944Y64237968D01*
X36647939Y64237972D01*
X36502342Y64343754D01*
X36459676Y64399084D01*
X36451227Y64444072D01*
X36451227Y67231465D01*
X36470912Y67298504D01*
X36523716Y67344259D01*
X36592874Y67354203D01*
X36656430Y67325178D01*
X36662908Y67319146D01*
X36905181Y67076873D01*
X36938666Y67015550D01*
X36941500Y66989192D01*
X36941500Y64451931D01*
X36941500Y64451929D01*
X36941499Y64451929D01*
X36966497Y64326262D01*
X36966499Y64326256D01*
X37015535Y64207873D01*
X37086723Y64101331D01*
X37110872Y64077182D01*
X37110875Y64077178D01*
X38000817Y63187237D01*
X38034302Y63125914D01*
X38037136Y63099556D01*
X38037136Y61272466D01*
X38017451Y61205427D01*
X37986023Y61172149D01*
X37905563Y61113691D01*
X37771948Y60980076D01*
X37771948Y60980075D01*
X37771946Y60980073D01*
X37745099Y60943121D01*
X37660876Y60827200D01*
X37575090Y60658837D01*
X37516695Y60479119D01*
X37487136Y60292487D01*
X37487136Y60103514D01*
X37516695Y59916882D01*
X37575090Y59737164D01*
X37618020Y59652910D01*
X37660876Y59568801D01*
X37771946Y59415927D01*
X37905563Y59282310D01*
X38058437Y59171240D01*
X38137983Y59130710D01*
X38226799Y59085455D01*
X38226801Y59085455D01*
X38226804Y59085453D01*
X38310843Y59058147D01*
X38406517Y59027060D01*
X38593150Y58997500D01*
X38593155Y58997500D01*
X38782122Y58997500D01*
X38968754Y59027060D01*
X38972610Y59028313D01*
X39148468Y59085453D01*
X39316835Y59171240D01*
X39469709Y59282310D01*
X39603326Y59415927D01*
X39714396Y59568801D01*
X39800183Y59737168D01*
X39858576Y59916882D01*
X39870664Y59993202D01*
X39888136Y60103514D01*
X39888136Y60292487D01*
X40508591Y60292487D01*
X40508591Y60103514D01*
X40538150Y59916882D01*
X40596545Y59737164D01*
X40639475Y59652910D01*
X40682331Y59568801D01*
X40793401Y59415927D01*
X40927018Y59282310D01*
X41079892Y59171240D01*
X41159438Y59130710D01*
X41248254Y59085455D01*
X41248256Y59085455D01*
X41248259Y59085453D01*
X41332298Y59058147D01*
X41427972Y59027060D01*
X41614605Y58997500D01*
X41614610Y58997500D01*
X41803577Y58997500D01*
X41990209Y59027060D01*
X41994065Y59028313D01*
X42169923Y59085453D01*
X42338290Y59171240D01*
X42491164Y59282310D01*
X42624781Y59415927D01*
X42735851Y59568801D01*
X42821638Y59737168D01*
X42880031Y59916882D01*
X42892119Y59993202D01*
X42909591Y60103514D01*
X42909591Y60292487D01*
X42880031Y60479119D01*
X42840878Y60599617D01*
X42821638Y60658832D01*
X42821636Y60658835D01*
X42821636Y60658837D01*
X42765880Y60768263D01*
X42735851Y60827199D01*
X42624781Y60980073D01*
X42491164Y61113690D01*
X42338290Y61224760D01*
X42318440Y61234874D01*
X42169927Y61310546D01*
X41990209Y61368941D01*
X41803577Y61398500D01*
X41803572Y61398500D01*
X41614610Y61398500D01*
X41614605Y61398500D01*
X41427972Y61368941D01*
X41248254Y61310546D01*
X41079891Y61224760D01*
X41001619Y61167891D01*
X40927018Y61113690D01*
X40927016Y61113688D01*
X40927015Y61113688D01*
X40793403Y60980076D01*
X40793403Y60980075D01*
X40793401Y60980073D01*
X40766554Y60943121D01*
X40682331Y60827200D01*
X40596545Y60658837D01*
X40538150Y60479119D01*
X40508591Y60292487D01*
X39888136Y60292487D01*
X39858576Y60479119D01*
X39819423Y60599617D01*
X39800183Y60658832D01*
X39800181Y60658835D01*
X39800181Y60658837D01*
X39744425Y60768263D01*
X39714396Y60827199D01*
X39603326Y60980073D01*
X39469709Y61113690D01*
X39469708Y61113691D01*
X39389249Y61172149D01*
X39346584Y61227479D01*
X39338136Y61272466D01*
X39338136Y63484436D01*
X39313138Y63610103D01*
X39313137Y63610104D01*
X39313137Y63610108D01*
X39264101Y63728491D01*
X39252924Y63745219D01*
X39193344Y63834387D01*
X39192915Y63835030D01*
X39192909Y63835038D01*
X38278819Y64749128D01*
X38245334Y64810451D01*
X38242500Y64836809D01*
X38242500Y66211858D01*
X38262185Y66278897D01*
X38314989Y66324652D01*
X38384147Y66334596D01*
X38447703Y66305571D01*
X38476985Y66268153D01*
X38552141Y66120650D01*
X38552147Y66120641D01*
X38584523Y66076079D01*
X38584524Y66076078D01*
X39264000Y66755554D01*
X39264000Y66749339D01*
X39291259Y66647606D01*
X39343920Y66556394D01*
X39418394Y66481920D01*
X39509606Y66429259D01*
X39611339Y66402000D01*
X39617553Y66402000D01*
X38938076Y65722526D01*
X38982650Y65690141D01*
X39164968Y65597245D01*
X39359582Y65534010D01*
X39561683Y65502000D01*
X39766317Y65502000D01*
X39968417Y65534010D01*
X40163031Y65597245D01*
X40345349Y65690141D01*
X40389921Y65722526D01*
X39710447Y66402000D01*
X39716661Y66402000D01*
X39818394Y66429259D01*
X39909606Y66481920D01*
X39984080Y66556394D01*
X40036741Y66647606D01*
X40064000Y66749339D01*
X40064000Y66755553D01*
X40743474Y66076079D01*
X40775859Y66120651D01*
X40868755Y66302969D01*
X40931990Y66497583D01*
X40964000Y66699683D01*
X40964000Y66904318D01*
X40931990Y67106418D01*
X40868755Y67301032D01*
X40775859Y67483350D01*
X40743474Y67527923D01*
X40743474Y67527924D01*
X40064000Y66848449D01*
X40064000Y66854661D01*
X40036741Y66956394D01*
X39984080Y67047606D01*
X39909606Y67122080D01*
X39818394Y67174741D01*
X39716661Y67202000D01*
X39710446Y67202000D01*
X40389922Y67881476D01*
X40389921Y67881477D01*
X40345359Y67913853D01*
X40345350Y67913859D01*
X40276352Y67949015D01*
X40225556Y67996989D01*
X40208761Y68064810D01*
X40231298Y68130945D01*
X40286013Y68174397D01*
X40332647Y68183500D01*
X43875192Y68183500D01*
X43904632Y68174856D01*
X43934619Y68168332D01*
X43939634Y68164578D01*
X43942231Y68163815D01*
X43962873Y68147181D01*
X44003468Y68106586D01*
X44036953Y68045263D01*
X44031969Y67975571D01*
X43990097Y67919638D01*
X43984857Y67916081D01*
X43816786Y67793972D01*
X43672028Y67649214D01*
X43551715Y67483614D01*
X43458781Y67301224D01*
X43395522Y67106535D01*
X43363500Y66904352D01*
X43363500Y66699649D01*
X43395522Y66497466D01*
X43458781Y66302777D01*
X43522691Y66177347D01*
X43551585Y66120641D01*
X43551715Y66120387D01*
X43672028Y65954787D01*
X43672034Y65954781D01*
X43816781Y65810034D01*
X43982390Y65689713D01*
X44012340Y65674453D01*
X44063135Y65626481D01*
X44080045Y65563969D01*
X44080045Y61272466D01*
X44060360Y61205427D01*
X44028932Y61172149D01*
X43948472Y61113691D01*
X43814857Y60980076D01*
X43814857Y60980075D01*
X43814855Y60980073D01*
X43788008Y60943121D01*
X43703785Y60827200D01*
X43617999Y60658837D01*
X43559604Y60479119D01*
X43530045Y60292487D01*
X43530045Y60103514D01*
X43559604Y59916882D01*
X43617999Y59737164D01*
X43660929Y59652910D01*
X43703785Y59568801D01*
X43814855Y59415927D01*
X43948472Y59282310D01*
X44101346Y59171240D01*
X44180892Y59130710D01*
X44269708Y59085455D01*
X44269710Y59085455D01*
X44269713Y59085453D01*
X44353752Y59058147D01*
X44449426Y59027060D01*
X44636059Y58997500D01*
X44636064Y58997500D01*
X44825031Y58997500D01*
X45011663Y59027060D01*
X45015519Y59028313D01*
X45191377Y59085453D01*
X45359744Y59171240D01*
X45512618Y59282310D01*
X45646235Y59415927D01*
X45757305Y59568801D01*
X45843092Y59737168D01*
X45901485Y59916882D01*
X45913573Y59993202D01*
X45931045Y60103514D01*
X45931045Y60292487D01*
X45901485Y60479119D01*
X45862332Y60599617D01*
X45843092Y60658832D01*
X45843090Y60658835D01*
X45843090Y60658837D01*
X45787334Y60768263D01*
X45757305Y60827199D01*
X45646235Y60980073D01*
X45512618Y61113690D01*
X45512617Y61113691D01*
X45432158Y61172149D01*
X45389493Y61227479D01*
X45381045Y61272466D01*
X45381045Y65652277D01*
X45400730Y65719316D01*
X45432159Y65752595D01*
X45511219Y65810034D01*
X45655966Y65954781D01*
X45655968Y65954785D01*
X45655971Y65954787D01*
X45708732Y66027410D01*
X45776287Y66120390D01*
X45869220Y66302781D01*
X45932477Y66497466D01*
X45964500Y66699648D01*
X45964500Y66904352D01*
X45952352Y66981048D01*
X45932477Y67106535D01*
X45883473Y67257353D01*
X45869220Y67301219D01*
X45869218Y67301222D01*
X45869218Y67301224D01*
X45818247Y67401259D01*
X45776287Y67483610D01*
X45744092Y67527923D01*
X45655971Y67649214D01*
X45511221Y67793964D01*
X45511215Y67793969D01*
X45405615Y67870692D01*
X45362949Y67926022D01*
X45354500Y67971010D01*
X45354500Y68390072D01*
X45329502Y68515739D01*
X45329501Y68515740D01*
X45329501Y68515744D01*
X45280465Y68634127D01*
X45221417Y68722499D01*
X45209276Y68740670D01*
X44973915Y68976031D01*
X44708128Y69241819D01*
X44674643Y69303142D01*
X44679627Y69372834D01*
X44721499Y69428767D01*
X44786963Y69453184D01*
X44795809Y69453500D01*
X48193192Y69453500D01*
X48260231Y69433815D01*
G37*
%TD.AperFunction*%
%TA.AperFunction,Conductor*%
G36*
X21528833Y67608954D02*
G01*
X21584767Y67567083D01*
X21609184Y67501618D01*
X21609500Y67492773D01*
X21609500Y67274131D01*
X21609501Y67274124D01*
X21615908Y67214517D01*
X21666202Y67079672D01*
X21666206Y67079665D01*
X21752452Y66964456D01*
X21752455Y66964453D01*
X21867664Y66878207D01*
X21867671Y66878203D01*
X21873798Y66875918D01*
X22002517Y66827909D01*
X22062127Y66821500D01*
X22085497Y66821501D01*
X22152536Y66801819D01*
X22198292Y66749017D01*
X22209500Y66697501D01*
X22209500Y60772808D01*
X22200855Y60743368D01*
X22194332Y60713381D01*
X22190577Y60708366D01*
X22189815Y60705769D01*
X22173181Y60685127D01*
X22118873Y60630819D01*
X22057550Y60597334D01*
X22031192Y60594500D01*
X16314465Y60594500D01*
X16247426Y60614185D01*
X16214147Y60645614D01*
X16155690Y60726073D01*
X16022073Y60859690D01*
X15869199Y60970760D01*
X15850915Y60980076D01*
X15700836Y61056546D01*
X15521118Y61114941D01*
X15334486Y61144500D01*
X15334481Y61144500D01*
X15145519Y61144500D01*
X15145514Y61144500D01*
X14958881Y61114941D01*
X14779163Y61056546D01*
X14646795Y60989100D01*
X14578125Y60976204D01*
X14513385Y61002480D01*
X14473128Y61059587D01*
X14466500Y61099585D01*
X14466500Y61613770D01*
X14486185Y61680809D01*
X14502819Y61701451D01*
X15060947Y62259579D01*
X15060952Y62259584D01*
X15131884Y62365743D01*
X15143084Y62382505D01*
X15168414Y62443658D01*
X15199659Y62519088D01*
X15228500Y62664083D01*
X15228500Y62811918D01*
X15228500Y64618352D01*
X15785500Y64618352D01*
X15785500Y64413649D01*
X15817522Y64211466D01*
X15880781Y64016777D01*
X15973715Y63834387D01*
X16094028Y63668787D01*
X16238786Y63524029D01*
X16393749Y63411444D01*
X16404390Y63403713D01*
X16513042Y63348352D01*
X16586776Y63310782D01*
X16586778Y63310782D01*
X16586781Y63310780D01*
X16644340Y63292078D01*
X16781465Y63247523D01*
X16882557Y63231512D01*
X16983648Y63215500D01*
X16983649Y63215500D01*
X17188351Y63215500D01*
X17188352Y63215500D01*
X17390534Y63247523D01*
X17585219Y63310780D01*
X17767610Y63403713D01*
X17860590Y63471268D01*
X17933213Y63524029D01*
X17933215Y63524032D01*
X17933219Y63524034D01*
X18077966Y63668781D01*
X18077968Y63668785D01*
X18077971Y63668787D01*
X18133505Y63745224D01*
X18198287Y63834390D01*
X18291220Y64016781D01*
X18354477Y64211466D01*
X18386500Y64413648D01*
X18386500Y64618352D01*
X18365787Y64749128D01*
X18354477Y64820535D01*
X18291218Y65015224D01*
X18257503Y65081393D01*
X18198287Y65197610D01*
X18190556Y65208251D01*
X18077971Y65363214D01*
X17933213Y65507972D01*
X17767613Y65628285D01*
X17767612Y65628286D01*
X17767610Y65628287D01*
X17710653Y65657309D01*
X17585223Y65721219D01*
X17390534Y65784478D01*
X17215995Y65812122D01*
X17188352Y65816500D01*
X16983648Y65816500D01*
X16959329Y65812649D01*
X16781465Y65784478D01*
X16586776Y65721219D01*
X16404386Y65628285D01*
X16238786Y65507972D01*
X16094028Y65363214D01*
X15973715Y65197614D01*
X15880781Y65015224D01*
X15817522Y64820535D01*
X15785500Y64618352D01*
X15228500Y64618352D01*
X15228500Y66439770D01*
X15248185Y66506809D01*
X15264819Y66527451D01*
X15514549Y66777181D01*
X15575872Y66810666D01*
X15602230Y66813500D01*
X20393920Y66813500D01*
X20491462Y66832904D01*
X20538913Y66842342D01*
X20675495Y66898916D01*
X20734735Y66938499D01*
X20798416Y66981048D01*
X21397821Y67580455D01*
X21459142Y67613938D01*
X21528833Y67608954D01*
G37*
%TD.AperFunction*%
%TA.AperFunction,Conductor*%
G36*
X47025736Y79471274D02*
G01*
X47315796Y79453729D01*
X47330659Y79451924D01*
X47612798Y79400220D01*
X47627335Y79396637D01*
X47901172Y79311305D01*
X47915163Y79306000D01*
X48176743Y79188273D01*
X48189989Y79181320D01*
X48435465Y79032925D01*
X48447776Y79024427D01*
X48673573Y78847527D01*
X48684781Y78837597D01*
X48887596Y78634782D01*
X48897526Y78623574D01*
X49049025Y78430199D01*
X49074422Y78397783D01*
X49082926Y78385463D01*
X49224030Y78152049D01*
X49231316Y78139996D01*
X49238275Y78126737D01*
X49355997Y77865169D01*
X49361306Y77851168D01*
X49446635Y77577337D01*
X49450219Y77562799D01*
X49501923Y77280660D01*
X49503728Y77265795D01*
X49521274Y76975737D01*
X49521500Y76968250D01*
X49521500Y70315809D01*
X49501815Y70248770D01*
X49449011Y70203015D01*
X49379853Y70193071D01*
X49316297Y70222096D01*
X49309819Y70228128D01*
X48928673Y70609274D01*
X48928669Y70609277D01*
X48822127Y70680465D01*
X48703744Y70729501D01*
X48703738Y70729503D01*
X48578071Y70754500D01*
X48578069Y70754500D01*
X40706808Y70754500D01*
X40677367Y70763145D01*
X40647381Y70769668D01*
X40642365Y70773423D01*
X40639769Y70774185D01*
X40619127Y70790819D01*
X40538819Y70871127D01*
X40505334Y70932450D01*
X40502500Y70958808D01*
X40502500Y73492611D01*
X46397500Y73492611D01*
X46397500Y73319390D01*
X46424011Y73152000D01*
X46424598Y73148299D01*
X46478127Y72983555D01*
X46556768Y72829212D01*
X46658586Y72689072D01*
X46781072Y72566586D01*
X46921212Y72464768D01*
X47075555Y72386127D01*
X47240299Y72332598D01*
X47411389Y72305500D01*
X47411390Y72305500D01*
X47584610Y72305500D01*
X47584611Y72305500D01*
X47755701Y72332598D01*
X47920445Y72386127D01*
X48074788Y72464768D01*
X48214928Y72566586D01*
X48337414Y72689072D01*
X48439232Y72829212D01*
X48517873Y72983555D01*
X48571402Y73148299D01*
X48598500Y73319389D01*
X48598500Y73492611D01*
X48571402Y73663701D01*
X48517873Y73828445D01*
X48439232Y73982788D01*
X48337414Y74122928D01*
X48214928Y74245414D01*
X48074788Y74347232D01*
X47920445Y74425873D01*
X47755701Y74479402D01*
X47755699Y74479403D01*
X47755698Y74479403D01*
X47624271Y74500219D01*
X47584611Y74506500D01*
X47411389Y74506500D01*
X47371728Y74500219D01*
X47240302Y74479403D01*
X47075552Y74425872D01*
X46921211Y74347232D01*
X46841256Y74289141D01*
X46781072Y74245414D01*
X46781070Y74245412D01*
X46781069Y74245412D01*
X46658588Y74122931D01*
X46658588Y74122930D01*
X46658586Y74122928D01*
X46614859Y74062744D01*
X46556768Y73982789D01*
X46478128Y73828448D01*
X46424597Y73663698D01*
X46397500Y73492611D01*
X40502500Y73492611D01*
X40502500Y75263865D01*
X40522185Y75330904D01*
X40574989Y75376659D01*
X40579020Y75378415D01*
X40627888Y75398656D01*
X40826612Y75513389D01*
X41008661Y75653081D01*
X41008665Y75653086D01*
X41008670Y75653089D01*
X41170911Y75815330D01*
X41170914Y75815335D01*
X41170919Y75815339D01*
X41310611Y75997388D01*
X41425344Y76196112D01*
X41513158Y76408113D01*
X41572548Y76629762D01*
X41592197Y76779007D01*
X41593585Y76789548D01*
X41593585Y76789549D01*
X41597299Y76817760D01*
X41602500Y76857266D01*
X41602500Y77086734D01*
X41572548Y77314238D01*
X41513158Y77535887D01*
X41443183Y77704821D01*
X41425349Y77747877D01*
X41425346Y77747883D01*
X41425344Y77747888D01*
X41310611Y77946612D01*
X41310608Y77946615D01*
X41310607Y77946618D01*
X41308281Y77949649D01*
X41252773Y78021987D01*
X43182000Y78021987D01*
X43182000Y77222000D01*
X44498988Y77222000D01*
X44466075Y77164993D01*
X44432000Y77037826D01*
X44432000Y76906174D01*
X44466075Y76779007D01*
X44498988Y76722000D01*
X43182001Y76722000D01*
X43182001Y75922014D01*
X43192494Y75819303D01*
X43247641Y75652881D01*
X43247643Y75652876D01*
X43339684Y75503655D01*
X43463654Y75379685D01*
X43612875Y75287644D01*
X43612880Y75287642D01*
X43779302Y75232495D01*
X43779309Y75232494D01*
X43882019Y75222001D01*
X44681999Y75222001D01*
X44682000Y75222002D01*
X44682000Y76538988D01*
X44739007Y76506075D01*
X44866174Y76472000D01*
X44997826Y76472000D01*
X45124993Y76506075D01*
X45182000Y76538988D01*
X45182000Y75222001D01*
X45981972Y75222001D01*
X45981986Y75222002D01*
X46084697Y75232495D01*
X46251119Y75287642D01*
X46251124Y75287644D01*
X46400345Y75379685D01*
X46524315Y75503655D01*
X46616356Y75652876D01*
X46616358Y75652881D01*
X46671505Y75819303D01*
X46671506Y75819310D01*
X46681999Y75922014D01*
X46682000Y75922027D01*
X46682000Y76722000D01*
X45365012Y76722000D01*
X45397925Y76779007D01*
X45432000Y76906174D01*
X45432000Y77037826D01*
X45397925Y77164993D01*
X45365012Y77222000D01*
X46681999Y77222000D01*
X46681999Y78021972D01*
X46681998Y78021987D01*
X46671505Y78124698D01*
X46616358Y78291120D01*
X46616356Y78291125D01*
X46524315Y78440346D01*
X46400345Y78564316D01*
X46251124Y78656357D01*
X46251119Y78656359D01*
X46084697Y78711506D01*
X46084690Y78711507D01*
X45981986Y78722000D01*
X45182000Y78722000D01*
X45182000Y77405012D01*
X45124993Y77437925D01*
X44997826Y77472000D01*
X44866174Y77472000D01*
X44739007Y77437925D01*
X44682000Y77405012D01*
X44682000Y78722000D01*
X43882028Y78722000D01*
X43882012Y78721999D01*
X43779302Y78711506D01*
X43612880Y78656359D01*
X43612875Y78656357D01*
X43463654Y78564316D01*
X43339684Y78440346D01*
X43247643Y78291125D01*
X43247641Y78291120D01*
X43192494Y78124698D01*
X43192493Y78124691D01*
X43182000Y78021987D01*
X41252773Y78021987D01*
X41170918Y78128662D01*
X41170911Y78128670D01*
X41008670Y78290911D01*
X41008661Y78290919D01*
X40826617Y78430608D01*
X40627890Y78545343D01*
X40627876Y78545350D01*
X40415887Y78633158D01*
X40409826Y78634782D01*
X40194238Y78692548D01*
X40156215Y78697554D01*
X39966741Y78722500D01*
X39966734Y78722500D01*
X39737266Y78722500D01*
X39737258Y78722500D01*
X39520715Y78693991D01*
X39509762Y78692548D01*
X39416076Y78667446D01*
X39288112Y78633158D01*
X39076123Y78545350D01*
X39076109Y78545343D01*
X38877382Y78430608D01*
X38695338Y78290919D01*
X38533081Y78128662D01*
X38393392Y77946618D01*
X38278657Y77747891D01*
X38278650Y77747877D01*
X38190842Y77535888D01*
X38185356Y77515412D01*
X38131452Y77314238D01*
X38131306Y77313128D01*
X38101500Y77086742D01*
X38101500Y76857259D01*
X38111803Y76779007D01*
X38131452Y76629762D01*
X38171959Y76478586D01*
X38190842Y76408113D01*
X38278650Y76196124D01*
X38278656Y76196112D01*
X38393228Y75997666D01*
X38393392Y75997383D01*
X38533081Y75815339D01*
X38533089Y75815330D01*
X38695330Y75653089D01*
X38695338Y75653082D01*
X38877382Y75513393D01*
X38877385Y75513392D01*
X38877388Y75513389D01*
X39076112Y75398656D01*
X39124952Y75378426D01*
X39179355Y75334587D01*
X39201421Y75268293D01*
X39201500Y75263865D01*
X39201500Y73276000D01*
X39181815Y73208961D01*
X39129011Y73163206D01*
X39077500Y73152000D01*
X37532208Y73152000D01*
X37465169Y73171685D01*
X37463349Y73172877D01*
X37392127Y73220465D01*
X37273744Y73269501D01*
X37273738Y73269503D01*
X37148071Y73294500D01*
X37148069Y73294500D01*
X35546500Y73294500D01*
X35479461Y73314185D01*
X35433706Y73366989D01*
X35422500Y73418500D01*
X35422500Y75263865D01*
X35442185Y75330904D01*
X35494989Y75376659D01*
X35499020Y75378415D01*
X35547888Y75398656D01*
X35746612Y75513389D01*
X35928661Y75653081D01*
X35928665Y75653086D01*
X35928670Y75653089D01*
X36090911Y75815330D01*
X36090914Y75815335D01*
X36090919Y75815339D01*
X36230611Y75997388D01*
X36345344Y76196112D01*
X36433158Y76408113D01*
X36492548Y76629762D01*
X36522500Y76857266D01*
X36522500Y77086734D01*
X36492548Y77314238D01*
X36433158Y77535887D01*
X36363183Y77704821D01*
X36345349Y77747877D01*
X36345346Y77747883D01*
X36345344Y77747888D01*
X36230611Y77946612D01*
X36230608Y77946615D01*
X36230607Y77946618D01*
X36090918Y78128662D01*
X36090911Y78128670D01*
X35928670Y78290911D01*
X35928661Y78290919D01*
X35746617Y78430608D01*
X35547890Y78545343D01*
X35547876Y78545350D01*
X35335887Y78633158D01*
X35329826Y78634782D01*
X35114238Y78692548D01*
X35076215Y78697554D01*
X34886741Y78722500D01*
X34886734Y78722500D01*
X34657266Y78722500D01*
X34657258Y78722500D01*
X34440715Y78693991D01*
X34429762Y78692548D01*
X34336076Y78667446D01*
X34208112Y78633158D01*
X33996123Y78545350D01*
X33996109Y78545343D01*
X33797382Y78430608D01*
X33615338Y78290919D01*
X33453081Y78128662D01*
X33313392Y77946618D01*
X33198657Y77747891D01*
X33198650Y77747877D01*
X33110842Y77535888D01*
X33105356Y77515412D01*
X33051452Y77314238D01*
X33051306Y77313128D01*
X33021500Y77086742D01*
X33021500Y76857259D01*
X33031803Y76779007D01*
X33051452Y76629762D01*
X33091959Y76478586D01*
X33110842Y76408113D01*
X33198650Y76196124D01*
X33198656Y76196112D01*
X33313228Y75997666D01*
X33313392Y75997383D01*
X33453081Y75815339D01*
X33453089Y75815330D01*
X33615330Y75653089D01*
X33615338Y75653082D01*
X33797382Y75513393D01*
X33797385Y75513392D01*
X33797388Y75513389D01*
X33996112Y75398656D01*
X34044952Y75378426D01*
X34099355Y75334587D01*
X34121421Y75268293D01*
X34121500Y75263865D01*
X34121500Y72859931D01*
X34121500Y72859929D01*
X34121499Y72859929D01*
X34146497Y72734262D01*
X34146499Y72734256D01*
X34195535Y72615873D01*
X34266723Y72509331D01*
X34266726Y72509327D01*
X34637328Y72138725D01*
X34676402Y72112617D01*
X34721207Y72059005D01*
X34729914Y71989680D01*
X34699760Y71926653D01*
X34695193Y71921835D01*
X34658016Y71884658D01*
X34565914Y71735337D01*
X34565913Y71735334D01*
X34510728Y71568797D01*
X34510728Y71568796D01*
X34510727Y71568796D01*
X34500227Y71466017D01*
X34500227Y70265999D01*
X34500228Y70265982D01*
X34510727Y70163204D01*
X34510728Y70163201D01*
X34565912Y69996669D01*
X34565913Y69996666D01*
X34658015Y69847344D01*
X34782071Y69723288D01*
X34931393Y69631186D01*
X35065232Y69586836D01*
X35122676Y69547064D01*
X35149499Y69482549D01*
X35150227Y69469131D01*
X35150227Y69037203D01*
X35162395Y68976031D01*
X35162397Y68976022D01*
X35163098Y68972500D01*
X35175226Y68911529D01*
X35185794Y68886014D01*
X35187957Y68877696D01*
X35187121Y68851017D01*
X35189974Y68824482D01*
X35186045Y68816635D01*
X35185771Y68807860D01*
X35170645Y68785870D01*
X35158699Y68762003D01*
X35151149Y68757524D01*
X35146176Y68750293D01*
X35121565Y68739972D01*
X35098609Y68726351D01*
X35085021Y68724645D01*
X35081744Y68723270D01*
X35078549Y68723832D01*
X35067945Y68722500D01*
X29076268Y68722500D01*
X29009229Y68742185D01*
X28975950Y68773615D01*
X28951069Y68807860D01*
X28893828Y68886646D01*
X28754646Y69025828D01*
X28595405Y69141524D01*
X28574342Y69152256D01*
X28420029Y69230883D01*
X28232826Y69291710D01*
X28038422Y69322500D01*
X28038417Y69322500D01*
X27841583Y69322500D01*
X27841578Y69322500D01*
X27647173Y69291710D01*
X27459970Y69230883D01*
X27284594Y69141524D01*
X27206808Y69085008D01*
X27125354Y69025828D01*
X27125352Y69025826D01*
X27125351Y69025826D01*
X26986174Y68886649D01*
X26986174Y68886648D01*
X26986172Y68886646D01*
X26960286Y68851017D01*
X26870476Y68727406D01*
X26780485Y68550787D01*
X26732511Y68499991D01*
X26664690Y68483196D01*
X26598555Y68505733D01*
X26559515Y68550787D01*
X26517051Y68634127D01*
X26469524Y68727405D01*
X26353828Y68886646D01*
X26214646Y69025828D01*
X26055405Y69141524D01*
X26034342Y69152256D01*
X25880029Y69230883D01*
X25692826Y69291710D01*
X25498422Y69322500D01*
X25498417Y69322500D01*
X25301583Y69322500D01*
X25301578Y69322500D01*
X25107173Y69291710D01*
X24919970Y69230883D01*
X24744594Y69141524D01*
X24666808Y69085008D01*
X24585354Y69025828D01*
X24585352Y69025826D01*
X24585351Y69025826D01*
X24446173Y68886648D01*
X24334817Y68733380D01*
X24279486Y68690715D01*
X24209873Y68684736D01*
X24148078Y68717342D01*
X24113721Y68778181D01*
X24110499Y68806266D01*
X24110499Y68869871D01*
X24110498Y68869877D01*
X24108695Y68886648D01*
X24104091Y68929483D01*
X24068157Y69025826D01*
X24053797Y69064329D01*
X24053793Y69064336D01*
X23967547Y69179545D01*
X23967544Y69179548D01*
X23852335Y69265794D01*
X23852328Y69265798D01*
X23717482Y69316092D01*
X23717483Y69316092D01*
X23657883Y69322499D01*
X23657881Y69322500D01*
X23657873Y69322500D01*
X23657864Y69322500D01*
X22062129Y69322500D01*
X22062123Y69322499D01*
X22002512Y69316091D01*
X21999824Y69315088D01*
X21997596Y69314929D01*
X21994969Y69314308D01*
X21994868Y69314734D01*
X21930132Y69310109D01*
X21868812Y69343599D01*
X21835332Y69404925D01*
X21832500Y69431273D01*
X21832500Y70960487D01*
X31311500Y70960487D01*
X31311500Y70771514D01*
X31341059Y70584882D01*
X31399454Y70405164D01*
X31485240Y70236801D01*
X31596310Y70083927D01*
X31729927Y69950310D01*
X31882801Y69839240D01*
X31962347Y69798710D01*
X32051163Y69753455D01*
X32051165Y69753455D01*
X32051168Y69753453D01*
X32144000Y69723290D01*
X32230881Y69695060D01*
X32417514Y69665500D01*
X32417519Y69665500D01*
X32606486Y69665500D01*
X32793118Y69695060D01*
X32809602Y69700416D01*
X32972832Y69753453D01*
X33141199Y69839240D01*
X33294073Y69950310D01*
X33427690Y70083927D01*
X33538760Y70236801D01*
X33624547Y70405168D01*
X33682940Y70584882D01*
X33698079Y70680466D01*
X33712500Y70771514D01*
X33712500Y70960487D01*
X33682940Y71147119D01*
X33624545Y71326837D01*
X33538759Y71495200D01*
X33485288Y71568796D01*
X33427690Y71648073D01*
X33294073Y71781690D01*
X33141199Y71892760D01*
X32972836Y71978546D01*
X32793118Y72036941D01*
X32606486Y72066500D01*
X32606481Y72066500D01*
X32417519Y72066500D01*
X32417514Y72066500D01*
X32230881Y72036941D01*
X32051163Y71978546D01*
X31882800Y71892760D01*
X31795579Y71829390D01*
X31729927Y71781690D01*
X31729925Y71781688D01*
X31729924Y71781688D01*
X31596312Y71648076D01*
X31596312Y71648075D01*
X31596310Y71648073D01*
X31566796Y71607451D01*
X31485240Y71495200D01*
X31399454Y71326837D01*
X31341059Y71147119D01*
X31311500Y70960487D01*
X21832500Y70960487D01*
X21832500Y71519770D01*
X21852185Y71586809D01*
X21868819Y71607451D01*
X22680947Y72419579D01*
X22680952Y72419584D01*
X22702017Y72451111D01*
X22740910Y72509318D01*
X22740915Y72509327D01*
X22740918Y72509331D01*
X22763084Y72542505D01*
X22819658Y72679087D01*
X22848500Y72824082D01*
X22848500Y75809780D01*
X22868185Y75876819D01*
X22899614Y75910098D01*
X22977792Y75966896D01*
X23128104Y76117208D01*
X23128106Y76117212D01*
X23128109Y76117214D01*
X23253048Y76289180D01*
X23253047Y76289180D01*
X23253051Y76289184D01*
X23349557Y76478588D01*
X23415246Y76680757D01*
X23448500Y76890713D01*
X23448500Y77103287D01*
X23415246Y77313243D01*
X23349557Y77515412D01*
X23253051Y77704816D01*
X23253049Y77704819D01*
X23253048Y77704821D01*
X23165542Y77825264D01*
X23128109Y77876786D01*
X23128105Y77876791D01*
X23110051Y77894845D01*
X26132000Y77894845D01*
X26132000Y77247000D01*
X27048988Y77247000D01*
X27016075Y77189993D01*
X26982000Y77062826D01*
X26982000Y76931174D01*
X27016075Y76804007D01*
X27048988Y76747000D01*
X26132000Y76747000D01*
X26132000Y76099156D01*
X26138401Y76039628D01*
X26138403Y76039621D01*
X26188645Y75904914D01*
X26188649Y75904907D01*
X26274809Y75789813D01*
X26274812Y75789810D01*
X26389906Y75703650D01*
X26389913Y75703646D01*
X26524620Y75653404D01*
X26524627Y75653402D01*
X26584155Y75647001D01*
X26584172Y75647000D01*
X27232000Y75647000D01*
X27232000Y76563988D01*
X27289007Y76531075D01*
X27416174Y76497000D01*
X27547826Y76497000D01*
X27674993Y76531075D01*
X27732000Y76563988D01*
X27732000Y75647000D01*
X28379828Y75647000D01*
X28379844Y75647001D01*
X28439372Y75653402D01*
X28439379Y75653404D01*
X28574086Y75703646D01*
X28574093Y75703650D01*
X28689187Y75789810D01*
X28689190Y75789813D01*
X28775350Y75904907D01*
X28775354Y75904914D01*
X28797529Y75964368D01*
X28836319Y76137610D01*
X28836682Y76138266D01*
X28836642Y76139016D01*
X28869642Y76198198D01*
X29539037Y76867592D01*
X29556075Y76804007D01*
X29621901Y76689993D01*
X29714993Y76596901D01*
X29829007Y76531075D01*
X29892590Y76514038D01*
X29260282Y75881731D01*
X29260282Y75881730D01*
X29314449Y75842376D01*
X29503782Y75745905D01*
X29705870Y75680243D01*
X29915754Y75647000D01*
X30128246Y75647000D01*
X30338127Y75680243D01*
X30338130Y75680243D01*
X30540217Y75745905D01*
X30729554Y75842378D01*
X30783716Y75881730D01*
X30783717Y75881730D01*
X30151408Y76514038D01*
X30214993Y76531075D01*
X30329007Y76596901D01*
X30422099Y76689993D01*
X30487925Y76804007D01*
X30504962Y76867591D01*
X31137270Y76235283D01*
X31137270Y76235284D01*
X31176622Y76289446D01*
X31273095Y76478783D01*
X31338757Y76680870D01*
X31338757Y76680873D01*
X31372000Y76890754D01*
X31372000Y77103247D01*
X31338757Y77313128D01*
X31338757Y77313131D01*
X31273095Y77515218D01*
X31176624Y77704551D01*
X31137270Y77758718D01*
X31137269Y77758718D01*
X30504962Y77126410D01*
X30487925Y77189993D01*
X30422099Y77304007D01*
X30329007Y77397099D01*
X30214993Y77462925D01*
X30151409Y77479963D01*
X30783716Y78112272D01*
X30729550Y78151625D01*
X30540217Y78248096D01*
X30338129Y78313758D01*
X30128246Y78347000D01*
X29915754Y78347000D01*
X29705872Y78313758D01*
X29705869Y78313758D01*
X29503782Y78248096D01*
X29314439Y78151620D01*
X29260282Y78112273D01*
X29260282Y78112272D01*
X29892591Y77479963D01*
X29829007Y77462925D01*
X29714993Y77397099D01*
X29621901Y77304007D01*
X29556075Y77189993D01*
X29539037Y77126409D01*
X28869642Y77795804D01*
X28836319Y77856391D01*
X28797527Y78029636D01*
X28775354Y78089087D01*
X28775350Y78089094D01*
X28689190Y78204188D01*
X28689187Y78204191D01*
X28574093Y78290351D01*
X28574086Y78290355D01*
X28439379Y78340597D01*
X28439372Y78340599D01*
X28379844Y78347000D01*
X27732000Y78347000D01*
X27732000Y77430012D01*
X27674993Y77462925D01*
X27547826Y77497000D01*
X27416174Y77497000D01*
X27289007Y77462925D01*
X27232000Y77430012D01*
X27232000Y78347000D01*
X26584155Y78347000D01*
X26524627Y78340599D01*
X26524620Y78340597D01*
X26389913Y78290355D01*
X26389906Y78290351D01*
X26274812Y78204191D01*
X26274809Y78204188D01*
X26188649Y78089094D01*
X26188645Y78089087D01*
X26138403Y77954380D01*
X26138401Y77954373D01*
X26132000Y77894845D01*
X23110051Y77894845D01*
X22977786Y78027110D01*
X22805820Y78152049D01*
X22616414Y78248556D01*
X22616413Y78248557D01*
X22616412Y78248557D01*
X22414243Y78314246D01*
X22414241Y78314247D01*
X22414240Y78314247D01*
X22252957Y78339792D01*
X22204287Y78347500D01*
X21991713Y78347500D01*
X21943042Y78339792D01*
X21781760Y78314247D01*
X21579585Y78248556D01*
X21390179Y78152049D01*
X21218215Y78027111D01*
X21104285Y77913181D01*
X21042962Y77879697D01*
X20973270Y77884681D01*
X20917337Y77926553D01*
X20900422Y77957530D01*
X20851354Y78089087D01*
X20851350Y78089094D01*
X20765190Y78204188D01*
X20765187Y78204191D01*
X20650093Y78290351D01*
X20650086Y78290355D01*
X20515379Y78340597D01*
X20515372Y78340599D01*
X20455844Y78347000D01*
X19808000Y78347000D01*
X19808000Y77430012D01*
X19750993Y77462925D01*
X19623826Y77497000D01*
X19492174Y77497000D01*
X19365007Y77462925D01*
X19308000Y77430012D01*
X19308000Y78347000D01*
X18660155Y78347000D01*
X18600627Y78340599D01*
X18600620Y78340597D01*
X18465913Y78290355D01*
X18465906Y78290351D01*
X18350812Y78204191D01*
X18350809Y78204188D01*
X18264649Y78089094D01*
X18264645Y78089087D01*
X18214403Y77954380D01*
X18214401Y77954373D01*
X18208000Y77894845D01*
X18208000Y77247000D01*
X19124988Y77247000D01*
X19092075Y77189993D01*
X19058000Y77062826D01*
X19058000Y76931174D01*
X19092075Y76804007D01*
X19124988Y76747000D01*
X18208000Y76747000D01*
X18208000Y76099156D01*
X18214401Y76039628D01*
X18214403Y76039621D01*
X18264645Y75904914D01*
X18264649Y75904907D01*
X18350809Y75789813D01*
X18350812Y75789810D01*
X18465906Y75703650D01*
X18465913Y75703646D01*
X18600620Y75653404D01*
X18600627Y75653402D01*
X18660155Y75647001D01*
X18660172Y75647000D01*
X19308000Y75647000D01*
X19308000Y76563988D01*
X19365007Y76531075D01*
X19492174Y76497000D01*
X19623826Y76497000D01*
X19750993Y76531075D01*
X19808000Y76563988D01*
X19808000Y75647000D01*
X20455828Y75647000D01*
X20455844Y75647001D01*
X20515372Y75653402D01*
X20515379Y75653404D01*
X20650086Y75703646D01*
X20650093Y75703650D01*
X20765187Y75789810D01*
X20765190Y75789813D01*
X20851350Y75904907D01*
X20851354Y75904914D01*
X20900422Y76036471D01*
X20942293Y76092405D01*
X21007757Y76116822D01*
X21076030Y76101970D01*
X21104285Y76080819D01*
X21218208Y75966896D01*
X21296384Y75910098D01*
X21339051Y75854769D01*
X21347500Y75809780D01*
X21347500Y73260231D01*
X21327815Y73193192D01*
X21311181Y73172550D01*
X20499052Y72360422D01*
X20499049Y72360419D01*
X20462354Y72305501D01*
X20462355Y72305500D01*
X20416914Y72237492D01*
X20360343Y72100918D01*
X20360340Y72100908D01*
X20331500Y71955921D01*
X20331500Y68688230D01*
X20311815Y68621191D01*
X20295181Y68600549D01*
X20045451Y68350819D01*
X19984128Y68317334D01*
X19957770Y68314500D01*
X15166076Y68314500D01*
X15137242Y68308766D01*
X15137243Y68308765D01*
X15021093Y68285661D01*
X15021089Y68285660D01*
X14968179Y68263744D01*
X14968167Y68263739D01*
X14963807Y68261932D01*
X14884505Y68229084D01*
X14842814Y68201227D01*
X14836618Y68197088D01*
X14836610Y68197083D01*
X14761585Y68146954D01*
X14761578Y68146948D01*
X13895047Y67280416D01*
X13882387Y67261468D01*
X13869781Y67242600D01*
X13851017Y67214517D01*
X13812914Y67157493D01*
X13756343Y67020918D01*
X13756340Y67020908D01*
X13727500Y66875921D01*
X13727500Y63100230D01*
X13707815Y63033191D01*
X13691181Y63012549D01*
X13441451Y62762819D01*
X13380128Y62729334D01*
X13353770Y62726500D01*
X10340076Y62726500D01*
X10311242Y62720766D01*
X10311243Y62720765D01*
X10195092Y62697661D01*
X10195086Y62697659D01*
X10155536Y62681276D01*
X10058509Y62641086D01*
X10058496Y62641079D01*
X10009270Y62608189D01*
X10009271Y62608188D01*
X9935585Y62558953D01*
X9935580Y62558949D01*
X9892259Y62515629D01*
X9830936Y62482145D01*
X9761244Y62487131D01*
X9731695Y62502994D01*
X9621757Y62582868D01*
X9621756Y62582869D01*
X9621754Y62582870D01*
X9516521Y62636489D01*
X9397292Y62697240D01*
X9157694Y62775090D01*
X9092833Y62785363D01*
X8908871Y62814500D01*
X8656947Y62814500D01*
X8532535Y62794795D01*
X8408123Y62775090D01*
X8168525Y62697240D01*
X7944060Y62582868D01*
X7740259Y62434799D01*
X7740254Y62434795D01*
X7562114Y62256655D01*
X7562110Y62256650D01*
X7414040Y62052849D01*
X7412634Y62050553D01*
X7411872Y62049865D01*
X7411175Y62048904D01*
X7410973Y62049051D01*
X7360820Y62003680D01*
X7291890Y61992260D01*
X7227728Y62019919D01*
X7188706Y62077876D01*
X7182909Y62115347D01*
X7182909Y62564000D01*
X5546500Y62564000D01*
X5479461Y62583685D01*
X5433706Y62636489D01*
X5422500Y62688000D01*
X5422500Y64618352D01*
X10785500Y64618352D01*
X10785500Y64413649D01*
X10817522Y64211466D01*
X10880781Y64016777D01*
X10973715Y63834387D01*
X11094028Y63668787D01*
X11238786Y63524029D01*
X11393749Y63411444D01*
X11404390Y63403713D01*
X11513042Y63348352D01*
X11586776Y63310782D01*
X11586778Y63310782D01*
X11586781Y63310780D01*
X11644340Y63292078D01*
X11781465Y63247523D01*
X11882557Y63231512D01*
X11983648Y63215500D01*
X11983649Y63215500D01*
X12188351Y63215500D01*
X12188352Y63215500D01*
X12390534Y63247523D01*
X12585219Y63310780D01*
X12767610Y63403713D01*
X12860590Y63471268D01*
X12933213Y63524029D01*
X12933215Y63524032D01*
X12933219Y63524034D01*
X13077966Y63668781D01*
X13077968Y63668785D01*
X13077971Y63668787D01*
X13133505Y63745224D01*
X13198287Y63834390D01*
X13291220Y64016781D01*
X13354477Y64211466D01*
X13386500Y64413648D01*
X13386500Y64618352D01*
X13365787Y64749128D01*
X13354477Y64820535D01*
X13291218Y65015224D01*
X13257503Y65081393D01*
X13198287Y65197610D01*
X13190556Y65208251D01*
X13077971Y65363214D01*
X12933213Y65507972D01*
X12767613Y65628285D01*
X12767612Y65628286D01*
X12767610Y65628287D01*
X12710653Y65657309D01*
X12585223Y65721219D01*
X12390534Y65784478D01*
X12215995Y65812122D01*
X12188352Y65816500D01*
X11983648Y65816500D01*
X11959329Y65812649D01*
X11781465Y65784478D01*
X11586776Y65721219D01*
X11404386Y65628285D01*
X11238786Y65507972D01*
X11094028Y65363214D01*
X10973715Y65197614D01*
X10880781Y65015224D01*
X10817522Y64820535D01*
X10785500Y64618352D01*
X5422500Y64618352D01*
X5422500Y75263865D01*
X5442185Y75330904D01*
X5494989Y75376659D01*
X5499020Y75378415D01*
X5547888Y75398656D01*
X5746612Y75513389D01*
X5928661Y75653081D01*
X5928665Y75653086D01*
X5928670Y75653089D01*
X6090911Y75815330D01*
X6090914Y75815335D01*
X6090919Y75815339D01*
X6230611Y75997388D01*
X6345344Y76196112D01*
X6433158Y76408113D01*
X6492548Y76629762D01*
X6522500Y76857266D01*
X6522500Y77086695D01*
X8102000Y77086695D01*
X8102000Y76857306D01*
X8102001Y76857290D01*
X8131942Y76629863D01*
X8191318Y76408270D01*
X8279102Y76196341D01*
X8279106Y76196331D01*
X8393799Y75997676D01*
X8393805Y75997669D01*
X8450381Y75923936D01*
X9369037Y76842592D01*
X9386075Y76779007D01*
X9451901Y76664993D01*
X9544993Y76571901D01*
X9659007Y76506075D01*
X9722590Y76489038D01*
X8803934Y75570383D01*
X8803934Y75570382D01*
X8877666Y75513806D01*
X9076330Y75399107D01*
X9076340Y75399103D01*
X9288269Y75311319D01*
X9509862Y75251943D01*
X9737289Y75222002D01*
X9737306Y75222000D01*
X9966694Y75222000D01*
X9966710Y75222002D01*
X10194137Y75251943D01*
X10415730Y75311319D01*
X10627659Y75399103D01*
X10627668Y75399107D01*
X10826327Y75513803D01*
X10826334Y75513808D01*
X10900064Y75570383D01*
X9981409Y76489038D01*
X10044993Y76506075D01*
X10159007Y76571901D01*
X10252099Y76664993D01*
X10317925Y76779007D01*
X10334962Y76842591D01*
X11253617Y75923936D01*
X11310192Y75997666D01*
X11310197Y75997673D01*
X11424893Y76196332D01*
X11424897Y76196341D01*
X11512681Y76408270D01*
X11572057Y76629863D01*
X11593080Y76789547D01*
X11593080Y76789548D01*
X11601999Y76857292D01*
X11602000Y76857306D01*
X11602000Y77086695D01*
X11601998Y77086711D01*
X11572057Y77314138D01*
X11512681Y77535731D01*
X11424897Y77747660D01*
X11424893Y77747670D01*
X11310195Y77946332D01*
X11307648Y77949652D01*
X11307647Y77949654D01*
X11253618Y78020066D01*
X11253617Y78020066D01*
X10334962Y77101411D01*
X10317925Y77164993D01*
X10252099Y77279007D01*
X10159007Y77372099D01*
X10044993Y77437925D01*
X9981407Y77454963D01*
X10548432Y78021987D01*
X13182000Y78021987D01*
X13182000Y77222000D01*
X14498988Y77222000D01*
X14466075Y77164993D01*
X14432000Y77037826D01*
X14432000Y76906174D01*
X14466075Y76779007D01*
X14498988Y76722000D01*
X13182001Y76722000D01*
X13182001Y75922014D01*
X13192494Y75819303D01*
X13247641Y75652881D01*
X13247643Y75652876D01*
X13339684Y75503655D01*
X13463654Y75379685D01*
X13612875Y75287644D01*
X13612880Y75287642D01*
X13779302Y75232495D01*
X13779309Y75232494D01*
X13882019Y75222001D01*
X14681999Y75222001D01*
X14682000Y75222002D01*
X14682000Y76538988D01*
X14739007Y76506075D01*
X14866174Y76472000D01*
X14997826Y76472000D01*
X15124993Y76506075D01*
X15182000Y76538988D01*
X15182000Y75222001D01*
X15981972Y75222001D01*
X15981986Y75222002D01*
X16084697Y75232495D01*
X16251119Y75287642D01*
X16251124Y75287644D01*
X16400345Y75379685D01*
X16524315Y75503655D01*
X16616356Y75652876D01*
X16616358Y75652881D01*
X16671505Y75819303D01*
X16671506Y75819310D01*
X16681999Y75922014D01*
X16682000Y75922027D01*
X16682000Y76722000D01*
X15365012Y76722000D01*
X15397925Y76779007D01*
X15432000Y76906174D01*
X15432000Y77037826D01*
X15397925Y77164993D01*
X15365012Y77222000D01*
X16681999Y77222000D01*
X16681999Y78021972D01*
X16681998Y78021987D01*
X16671505Y78124698D01*
X16616358Y78291120D01*
X16616356Y78291125D01*
X16524315Y78440346D01*
X16400345Y78564316D01*
X16251124Y78656357D01*
X16251119Y78656359D01*
X16084697Y78711506D01*
X16084690Y78711507D01*
X15981986Y78722000D01*
X15182000Y78722000D01*
X15182000Y77405012D01*
X15124993Y77437925D01*
X14997826Y77472000D01*
X14866174Y77472000D01*
X14739007Y77437925D01*
X14682000Y77405012D01*
X14682000Y78722000D01*
X13882028Y78722000D01*
X13882012Y78721999D01*
X13779302Y78711506D01*
X13612880Y78656359D01*
X13612875Y78656357D01*
X13463654Y78564316D01*
X13339684Y78440346D01*
X13247643Y78291125D01*
X13247641Y78291120D01*
X13192494Y78124698D01*
X13192493Y78124691D01*
X13182000Y78021987D01*
X10548432Y78021987D01*
X10900064Y78373619D01*
X10900064Y78373620D01*
X10826331Y78430195D01*
X10826324Y78430201D01*
X10627669Y78544894D01*
X10627659Y78544898D01*
X10415730Y78632682D01*
X10194137Y78692058D01*
X9966710Y78721999D01*
X9966694Y78722000D01*
X9737306Y78722000D01*
X9737289Y78721999D01*
X9509862Y78692058D01*
X9288269Y78632682D01*
X9076340Y78544898D01*
X9076330Y78544894D01*
X8877673Y78430199D01*
X8877659Y78430190D01*
X8803934Y78373620D01*
X9722590Y77454963D01*
X9659007Y77437925D01*
X9544993Y77372099D01*
X9451901Y77279007D01*
X9386075Y77164993D01*
X9369037Y77101410D01*
X8450380Y78020066D01*
X8393810Y77946341D01*
X8393801Y77946327D01*
X8279106Y77747670D01*
X8279102Y77747660D01*
X8191318Y77535731D01*
X8131942Y77314138D01*
X8102001Y77086711D01*
X8102000Y77086695D01*
X6522500Y77086695D01*
X6522500Y77086734D01*
X6492548Y77314238D01*
X6433158Y77535887D01*
X6363183Y77704821D01*
X6345349Y77747877D01*
X6345346Y77747883D01*
X6345344Y77747888D01*
X6230611Y77946612D01*
X6230608Y77946615D01*
X6230607Y77946618D01*
X6090918Y78128662D01*
X6090911Y78128670D01*
X5928670Y78290911D01*
X5928661Y78290919D01*
X5746617Y78430608D01*
X5547890Y78545343D01*
X5547876Y78545350D01*
X5335887Y78633158D01*
X5329826Y78634782D01*
X5114238Y78692548D01*
X5076215Y78697554D01*
X4886741Y78722500D01*
X4886734Y78722500D01*
X4657266Y78722500D01*
X4657258Y78722500D01*
X4440715Y78693991D01*
X4429762Y78692548D01*
X4336076Y78667446D01*
X4208112Y78633158D01*
X3996123Y78545350D01*
X3996109Y78545343D01*
X3797382Y78430608D01*
X3615338Y78290919D01*
X3453081Y78128662D01*
X3313392Y77946618D01*
X3198657Y77747891D01*
X3198650Y77747877D01*
X3110842Y77535888D01*
X3105356Y77515412D01*
X3051452Y77314238D01*
X3051306Y77313128D01*
X3021500Y77086742D01*
X3021500Y76857259D01*
X3031803Y76779007D01*
X3051452Y76629762D01*
X3091959Y76478586D01*
X3110842Y76408113D01*
X3198650Y76196124D01*
X3198656Y76196112D01*
X3313228Y75997666D01*
X3313392Y75997383D01*
X3453081Y75815339D01*
X3453089Y75815330D01*
X3615330Y75653089D01*
X3615338Y75653082D01*
X3797382Y75513393D01*
X3797385Y75513392D01*
X3797388Y75513389D01*
X3996112Y75398656D01*
X4044952Y75378426D01*
X4099355Y75334587D01*
X4121421Y75268293D01*
X4121500Y75263865D01*
X4121500Y62688000D01*
X4101815Y62620961D01*
X4049011Y62575206D01*
X3997500Y62564000D01*
X646500Y62564000D01*
X579461Y62583685D01*
X533706Y62636489D01*
X522500Y62688000D01*
X522500Y73492611D01*
X1185500Y73492611D01*
X1185500Y73319390D01*
X1212011Y73152000D01*
X1212598Y73148299D01*
X1266127Y72983555D01*
X1344768Y72829212D01*
X1446586Y72689072D01*
X1569072Y72566586D01*
X1709212Y72464768D01*
X1863555Y72386127D01*
X2028299Y72332598D01*
X2199389Y72305500D01*
X2199390Y72305500D01*
X2372610Y72305500D01*
X2372611Y72305500D01*
X2543701Y72332598D01*
X2708445Y72386127D01*
X2862788Y72464768D01*
X3002928Y72566586D01*
X3125414Y72689072D01*
X3227232Y72829212D01*
X3305873Y72983555D01*
X3359402Y73148299D01*
X3386500Y73319389D01*
X3386500Y73492611D01*
X3359402Y73663701D01*
X3305873Y73828445D01*
X3227232Y73982788D01*
X3125414Y74122928D01*
X3002928Y74245414D01*
X2862788Y74347232D01*
X2708445Y74425873D01*
X2543701Y74479402D01*
X2543699Y74479403D01*
X2543698Y74479403D01*
X2412271Y74500219D01*
X2372611Y74506500D01*
X2199389Y74506500D01*
X2159728Y74500219D01*
X2028302Y74479403D01*
X1863552Y74425872D01*
X1709211Y74347232D01*
X1629256Y74289141D01*
X1569072Y74245414D01*
X1569070Y74245412D01*
X1569069Y74245412D01*
X1446588Y74122931D01*
X1446588Y74122930D01*
X1446586Y74122928D01*
X1402859Y74062744D01*
X1344768Y73982789D01*
X1266128Y73828448D01*
X1212597Y73663698D01*
X1185500Y73492611D01*
X522500Y73492611D01*
X522500Y76968250D01*
X522726Y76975737D01*
X529440Y77086734D01*
X540271Y77265799D01*
X542076Y77280660D01*
X548230Y77314238D01*
X593780Y77562803D01*
X597364Y77577337D01*
X682696Y77851178D01*
X687998Y77865159D01*
X805731Y78126751D01*
X812676Y78139984D01*
X961080Y78385474D01*
X969567Y78397770D01*
X1146480Y78623583D01*
X1156395Y78634774D01*
X1359226Y78837605D01*
X1370417Y78847520D01*
X1596230Y79024433D01*
X1608526Y79032920D01*
X1854016Y79181324D01*
X1867249Y79188269D01*
X2128841Y79306002D01*
X2142822Y79311304D01*
X2416668Y79396638D01*
X2431197Y79400220D01*
X2713344Y79451925D01*
X2728201Y79453729D01*
X3018264Y79471274D01*
X3025751Y79471500D01*
X3087892Y79471500D01*
X46956108Y79471500D01*
X47018249Y79471500D01*
X47025736Y79471274D01*
G37*
%TD.AperFunction*%
%TA.AperFunction,Conductor*%
G36*
X37940668Y68202449D02*
G01*
X38035928Y68183500D01*
X38035931Y68183500D01*
X38995353Y68183500D01*
X39062392Y68163815D01*
X39108147Y68111011D01*
X39118091Y68041853D01*
X39089066Y67978297D01*
X39051648Y67949015D01*
X38982644Y67913857D01*
X38938077Y67881477D01*
X38938077Y67881476D01*
X39617554Y67202000D01*
X39611339Y67202000D01*
X39509606Y67174741D01*
X39418394Y67122080D01*
X39343920Y67047606D01*
X39291259Y66956394D01*
X39264000Y66854661D01*
X39264000Y66848447D01*
X38584524Y67527923D01*
X38584523Y67527923D01*
X38552143Y67483356D01*
X38475996Y67333908D01*
X38428021Y67283112D01*
X38360200Y67266317D01*
X38294065Y67288855D01*
X38250614Y67343570D01*
X38244523Y67368261D01*
X38243689Y67368094D01*
X38217502Y67499739D01*
X38217501Y67499740D01*
X38217501Y67499744D01*
X38179298Y67591975D01*
X38170201Y67613938D01*
X38168469Y67618120D01*
X38168467Y67618123D01*
X38168466Y67618126D01*
X38097277Y67724669D01*
X38097272Y67724675D01*
X37828795Y67993151D01*
X37795310Y68054474D01*
X37800294Y68124165D01*
X37842165Y68180099D01*
X37907630Y68204516D01*
X37940668Y68202449D01*
G37*
%TD.AperFunction*%
%TD*%
M02*
