%TF.GenerationSoftware,KiCad,Pcbnew,10.0.1*%
%TF.CreationDate,2026-05-11T07:37:28+02:00*%
%TF.ProjectId,basstortr-bass-distortion,62617373-746f-4727-9472-2d626173732d,C*%
%TF.SameCoordinates,PX1c9c380PY4c4b400*%
%TF.FileFunction,Legend,Top*%
%TF.FilePolarity,Positive*%
%FSLAX46Y46*%
G04 Gerber Fmt 4.6, Leading zero omitted, Abs format (unit mm)*
G04 Created by KiCad (PCBNEW 10.0.1) date 2026-05-11 07:37:28*
%MOMM*%
%LPD*%
G01*
G04 APERTURE LIST*
%ADD10C,0.150000*%
%ADD11C,0.250000*%
%ADD12C,0.120000*%
%ADD13C,0.000000*%
G04 APERTURE END LIST*
D10*
X19976191Y4045181D02*
X19976191Y5045181D01*
X20452381Y4045181D02*
X20452381Y5045181D01*
X20452381Y5045181D02*
X21023809Y4045181D01*
X21023809Y4045181D02*
X21023809Y5045181D01*
X22738095Y4997562D02*
X22642857Y5045181D01*
X22642857Y5045181D02*
X22500000Y5045181D01*
X22500000Y5045181D02*
X22357143Y4997562D01*
X22357143Y4997562D02*
X22261905Y4902324D01*
X22261905Y4902324D02*
X22214286Y4807086D01*
X22214286Y4807086D02*
X22166667Y4616610D01*
X22166667Y4616610D02*
X22166667Y4473753D01*
X22166667Y4473753D02*
X22214286Y4283277D01*
X22214286Y4283277D02*
X22261905Y4188039D01*
X22261905Y4188039D02*
X22357143Y4092800D01*
X22357143Y4092800D02*
X22500000Y4045181D01*
X22500000Y4045181D02*
X22595238Y4045181D01*
X22595238Y4045181D02*
X22738095Y4092800D01*
X22738095Y4092800D02*
X22785714Y4140420D01*
X22785714Y4140420D02*
X22785714Y4473753D01*
X22785714Y4473753D02*
X22595238Y4473753D01*
X23214286Y4045181D02*
X23214286Y5045181D01*
X23214286Y5045181D02*
X23785714Y4045181D01*
X23785714Y4045181D02*
X23785714Y5045181D01*
X24261905Y4045181D02*
X24261905Y5045181D01*
X24261905Y5045181D02*
X24500000Y5045181D01*
X24500000Y5045181D02*
X24642857Y4997562D01*
X24642857Y4997562D02*
X24738095Y4902324D01*
X24738095Y4902324D02*
X24785714Y4807086D01*
X24785714Y4807086D02*
X24833333Y4616610D01*
X24833333Y4616610D02*
X24833333Y4473753D01*
X24833333Y4473753D02*
X24785714Y4283277D01*
X24785714Y4283277D02*
X24738095Y4188039D01*
X24738095Y4188039D02*
X24642857Y4092800D01*
X24642857Y4092800D02*
X24500000Y4045181D01*
X24500000Y4045181D02*
X24261905Y4045181D01*
X26142857Y4092800D02*
X26285714Y4045181D01*
X26285714Y4045181D02*
X26523809Y4045181D01*
X26523809Y4045181D02*
X26619047Y4092800D01*
X26619047Y4092800D02*
X26666666Y4140420D01*
X26666666Y4140420D02*
X26714285Y4235658D01*
X26714285Y4235658D02*
X26714285Y4330896D01*
X26714285Y4330896D02*
X26666666Y4426134D01*
X26666666Y4426134D02*
X26619047Y4473753D01*
X26619047Y4473753D02*
X26523809Y4521372D01*
X26523809Y4521372D02*
X26333333Y4568991D01*
X26333333Y4568991D02*
X26238095Y4616610D01*
X26238095Y4616610D02*
X26190476Y4664229D01*
X26190476Y4664229D02*
X26142857Y4759467D01*
X26142857Y4759467D02*
X26142857Y4854705D01*
X26142857Y4854705D02*
X26190476Y4949943D01*
X26190476Y4949943D02*
X26238095Y4997562D01*
X26238095Y4997562D02*
X26333333Y5045181D01*
X26333333Y5045181D02*
X26571428Y5045181D01*
X26571428Y5045181D02*
X26714285Y4997562D01*
X27047619Y5045181D02*
X27285714Y4045181D01*
X27285714Y4045181D02*
X27476190Y4759467D01*
X27476190Y4759467D02*
X27666666Y4045181D01*
X27666666Y4045181D02*
X27904762Y5045181D01*
X29000000Y5045181D02*
X29190476Y5045181D01*
X29190476Y5045181D02*
X29285714Y4997562D01*
X29285714Y4997562D02*
X29380952Y4902324D01*
X29380952Y4902324D02*
X29428571Y4711848D01*
X29428571Y4711848D02*
X29428571Y4378515D01*
X29428571Y4378515D02*
X29380952Y4188039D01*
X29380952Y4188039D02*
X29285714Y4092800D01*
X29285714Y4092800D02*
X29190476Y4045181D01*
X29190476Y4045181D02*
X29000000Y4045181D01*
X29000000Y4045181D02*
X28904762Y4092800D01*
X28904762Y4092800D02*
X28809524Y4188039D01*
X28809524Y4188039D02*
X28761905Y4378515D01*
X28761905Y4378515D02*
X28761905Y4711848D01*
X28761905Y4711848D02*
X28809524Y4902324D01*
X28809524Y4902324D02*
X28904762Y4997562D01*
X28904762Y4997562D02*
X29000000Y5045181D01*
X29857143Y5045181D02*
X29857143Y4235658D01*
X29857143Y4235658D02*
X29904762Y4140420D01*
X29904762Y4140420D02*
X29952381Y4092800D01*
X29952381Y4092800D02*
X30047619Y4045181D01*
X30047619Y4045181D02*
X30238095Y4045181D01*
X30238095Y4045181D02*
X30333333Y4092800D01*
X30333333Y4092800D02*
X30380952Y4140420D01*
X30380952Y4140420D02*
X30428571Y4235658D01*
X30428571Y4235658D02*
X30428571Y5045181D01*
X30761905Y5045181D02*
X31333333Y5045181D01*
X31047619Y4045181D02*
X31047619Y5045181D01*
D11*
X32235901Y45659191D02*
X32378758Y45611572D01*
X32378758Y45611572D02*
X32426377Y45563953D01*
X32426377Y45563953D02*
X32473996Y45468715D01*
X32473996Y45468715D02*
X32473996Y45325858D01*
X32473996Y45325858D02*
X32426377Y45230620D01*
X32426377Y45230620D02*
X32378758Y45183000D01*
X32378758Y45183000D02*
X32283520Y45135381D01*
X32283520Y45135381D02*
X31902568Y45135381D01*
X31902568Y45135381D02*
X31902568Y46135381D01*
X31902568Y46135381D02*
X32235901Y46135381D01*
X32235901Y46135381D02*
X32331139Y46087762D01*
X32331139Y46087762D02*
X32378758Y46040143D01*
X32378758Y46040143D02*
X32426377Y45944905D01*
X32426377Y45944905D02*
X32426377Y45849667D01*
X32426377Y45849667D02*
X32378758Y45754429D01*
X32378758Y45754429D02*
X32331139Y45706810D01*
X32331139Y45706810D02*
X32235901Y45659191D01*
X32235901Y45659191D02*
X31902568Y45659191D01*
X33331139Y45135381D02*
X33331139Y45659191D01*
X33331139Y45659191D02*
X33283520Y45754429D01*
X33283520Y45754429D02*
X33188282Y45802048D01*
X33188282Y45802048D02*
X32997806Y45802048D01*
X32997806Y45802048D02*
X32902568Y45754429D01*
X33331139Y45183000D02*
X33235901Y45135381D01*
X33235901Y45135381D02*
X32997806Y45135381D01*
X32997806Y45135381D02*
X32902568Y45183000D01*
X32902568Y45183000D02*
X32854949Y45278239D01*
X32854949Y45278239D02*
X32854949Y45373477D01*
X32854949Y45373477D02*
X32902568Y45468715D01*
X32902568Y45468715D02*
X32997806Y45516334D01*
X32997806Y45516334D02*
X33235901Y45516334D01*
X33235901Y45516334D02*
X33331139Y45563953D01*
X33759711Y45183000D02*
X33854949Y45135381D01*
X33854949Y45135381D02*
X34045425Y45135381D01*
X34045425Y45135381D02*
X34140663Y45183000D01*
X34140663Y45183000D02*
X34188282Y45278239D01*
X34188282Y45278239D02*
X34188282Y45325858D01*
X34188282Y45325858D02*
X34140663Y45421096D01*
X34140663Y45421096D02*
X34045425Y45468715D01*
X34045425Y45468715D02*
X33902568Y45468715D01*
X33902568Y45468715D02*
X33807330Y45516334D01*
X33807330Y45516334D02*
X33759711Y45611572D01*
X33759711Y45611572D02*
X33759711Y45659191D01*
X33759711Y45659191D02*
X33807330Y45754429D01*
X33807330Y45754429D02*
X33902568Y45802048D01*
X33902568Y45802048D02*
X34045425Y45802048D01*
X34045425Y45802048D02*
X34140663Y45754429D01*
X34569235Y45183000D02*
X34664473Y45135381D01*
X34664473Y45135381D02*
X34854949Y45135381D01*
X34854949Y45135381D02*
X34950187Y45183000D01*
X34950187Y45183000D02*
X34997806Y45278239D01*
X34997806Y45278239D02*
X34997806Y45325858D01*
X34997806Y45325858D02*
X34950187Y45421096D01*
X34950187Y45421096D02*
X34854949Y45468715D01*
X34854949Y45468715D02*
X34712092Y45468715D01*
X34712092Y45468715D02*
X34616854Y45516334D01*
X34616854Y45516334D02*
X34569235Y45611572D01*
X34569235Y45611572D02*
X34569235Y45659191D01*
X34569235Y45659191D02*
X34616854Y45754429D01*
X34616854Y45754429D02*
X34712092Y45802048D01*
X34712092Y45802048D02*
X34854949Y45802048D01*
X34854949Y45802048D02*
X34950187Y45754429D01*
X35283521Y45802048D02*
X35664473Y45802048D01*
X35426378Y46135381D02*
X35426378Y45278239D01*
X35426378Y45278239D02*
X35473997Y45183000D01*
X35473997Y45183000D02*
X35569235Y45135381D01*
X35569235Y45135381D02*
X35664473Y45135381D01*
X36140664Y45135381D02*
X36045426Y45183000D01*
X36045426Y45183000D02*
X35997807Y45230620D01*
X35997807Y45230620D02*
X35950188Y45325858D01*
X35950188Y45325858D02*
X35950188Y45611572D01*
X35950188Y45611572D02*
X35997807Y45706810D01*
X35997807Y45706810D02*
X36045426Y45754429D01*
X36045426Y45754429D02*
X36140664Y45802048D01*
X36140664Y45802048D02*
X36283521Y45802048D01*
X36283521Y45802048D02*
X36378759Y45754429D01*
X36378759Y45754429D02*
X36426378Y45706810D01*
X36426378Y45706810D02*
X36473997Y45611572D01*
X36473997Y45611572D02*
X36473997Y45325858D01*
X36473997Y45325858D02*
X36426378Y45230620D01*
X36426378Y45230620D02*
X36378759Y45183000D01*
X36378759Y45183000D02*
X36283521Y45135381D01*
X36283521Y45135381D02*
X36140664Y45135381D01*
X36902569Y45135381D02*
X36902569Y45802048D01*
X36902569Y45611572D02*
X36950188Y45706810D01*
X36950188Y45706810D02*
X36997807Y45754429D01*
X36997807Y45754429D02*
X37093045Y45802048D01*
X37093045Y45802048D02*
X37188283Y45802048D01*
X37378760Y45802048D02*
X37759712Y45802048D01*
X37521617Y46135381D02*
X37521617Y45278239D01*
X37521617Y45278239D02*
X37569236Y45183000D01*
X37569236Y45183000D02*
X37664474Y45135381D01*
X37664474Y45135381D02*
X37759712Y45135381D01*
X38093046Y45135381D02*
X38093046Y45802048D01*
X38093046Y45611572D02*
X38140665Y45706810D01*
X38140665Y45706810D02*
X38188284Y45754429D01*
X38188284Y45754429D02*
X38283522Y45802048D01*
X38283522Y45802048D02*
X38378760Y45802048D01*
X39473999Y45135381D02*
X39473999Y46135381D01*
X39473999Y46135381D02*
X39712094Y46135381D01*
X39712094Y46135381D02*
X39854951Y46087762D01*
X39854951Y46087762D02*
X39950189Y45992524D01*
X39950189Y45992524D02*
X39997808Y45897286D01*
X39997808Y45897286D02*
X40045427Y45706810D01*
X40045427Y45706810D02*
X40045427Y45563953D01*
X40045427Y45563953D02*
X39997808Y45373477D01*
X39997808Y45373477D02*
X39950189Y45278239D01*
X39950189Y45278239D02*
X39854951Y45183000D01*
X39854951Y45183000D02*
X39712094Y45135381D01*
X39712094Y45135381D02*
X39473999Y45135381D01*
X40473999Y45135381D02*
X40473999Y45802048D01*
X40473999Y46135381D02*
X40426380Y46087762D01*
X40426380Y46087762D02*
X40473999Y46040143D01*
X40473999Y46040143D02*
X40521618Y46087762D01*
X40521618Y46087762D02*
X40473999Y46135381D01*
X40473999Y46135381D02*
X40473999Y46040143D01*
X40902570Y45183000D02*
X40997808Y45135381D01*
X40997808Y45135381D02*
X41188284Y45135381D01*
X41188284Y45135381D02*
X41283522Y45183000D01*
X41283522Y45183000D02*
X41331141Y45278239D01*
X41331141Y45278239D02*
X41331141Y45325858D01*
X41331141Y45325858D02*
X41283522Y45421096D01*
X41283522Y45421096D02*
X41188284Y45468715D01*
X41188284Y45468715D02*
X41045427Y45468715D01*
X41045427Y45468715D02*
X40950189Y45516334D01*
X40950189Y45516334D02*
X40902570Y45611572D01*
X40902570Y45611572D02*
X40902570Y45659191D01*
X40902570Y45659191D02*
X40950189Y45754429D01*
X40950189Y45754429D02*
X41045427Y45802048D01*
X41045427Y45802048D02*
X41188284Y45802048D01*
X41188284Y45802048D02*
X41283522Y45754429D01*
X41616856Y45802048D02*
X41997808Y45802048D01*
X41759713Y46135381D02*
X41759713Y45278239D01*
X41759713Y45278239D02*
X41807332Y45183000D01*
X41807332Y45183000D02*
X41902570Y45135381D01*
X41902570Y45135381D02*
X41997808Y45135381D01*
X42473999Y45135381D02*
X42378761Y45183000D01*
X42378761Y45183000D02*
X42331142Y45230620D01*
X42331142Y45230620D02*
X42283523Y45325858D01*
X42283523Y45325858D02*
X42283523Y45611572D01*
X42283523Y45611572D02*
X42331142Y45706810D01*
X42331142Y45706810D02*
X42378761Y45754429D01*
X42378761Y45754429D02*
X42473999Y45802048D01*
X42473999Y45802048D02*
X42616856Y45802048D01*
X42616856Y45802048D02*
X42712094Y45754429D01*
X42712094Y45754429D02*
X42759713Y45706810D01*
X42759713Y45706810D02*
X42807332Y45611572D01*
X42807332Y45611572D02*
X42807332Y45325858D01*
X42807332Y45325858D02*
X42759713Y45230620D01*
X42759713Y45230620D02*
X42712094Y45183000D01*
X42712094Y45183000D02*
X42616856Y45135381D01*
X42616856Y45135381D02*
X42473999Y45135381D01*
X43235904Y45135381D02*
X43235904Y45802048D01*
X43235904Y45611572D02*
X43283523Y45706810D01*
X43283523Y45706810D02*
X43331142Y45754429D01*
X43331142Y45754429D02*
X43426380Y45802048D01*
X43426380Y45802048D02*
X43521618Y45802048D01*
X43712095Y45802048D02*
X44093047Y45802048D01*
X43854952Y46135381D02*
X43854952Y45278239D01*
X43854952Y45278239D02*
X43902571Y45183000D01*
X43902571Y45183000D02*
X43997809Y45135381D01*
X43997809Y45135381D02*
X44093047Y45135381D01*
X44426381Y45135381D02*
X44426381Y45802048D01*
X44426381Y46135381D02*
X44378762Y46087762D01*
X44378762Y46087762D02*
X44426381Y46040143D01*
X44426381Y46040143D02*
X44474000Y46087762D01*
X44474000Y46087762D02*
X44426381Y46135381D01*
X44426381Y46135381D02*
X44426381Y46040143D01*
X45045428Y45135381D02*
X44950190Y45183000D01*
X44950190Y45183000D02*
X44902571Y45230620D01*
X44902571Y45230620D02*
X44854952Y45325858D01*
X44854952Y45325858D02*
X44854952Y45611572D01*
X44854952Y45611572D02*
X44902571Y45706810D01*
X44902571Y45706810D02*
X44950190Y45754429D01*
X44950190Y45754429D02*
X45045428Y45802048D01*
X45045428Y45802048D02*
X45188285Y45802048D01*
X45188285Y45802048D02*
X45283523Y45754429D01*
X45283523Y45754429D02*
X45331142Y45706810D01*
X45331142Y45706810D02*
X45378761Y45611572D01*
X45378761Y45611572D02*
X45378761Y45325858D01*
X45378761Y45325858D02*
X45331142Y45230620D01*
X45331142Y45230620D02*
X45283523Y45183000D01*
X45283523Y45183000D02*
X45188285Y45135381D01*
X45188285Y45135381D02*
X45045428Y45135381D01*
X45807333Y45802048D02*
X45807333Y45135381D01*
X45807333Y45706810D02*
X45854952Y45754429D01*
X45854952Y45754429D02*
X45950190Y45802048D01*
X45950190Y45802048D02*
X46093047Y45802048D01*
X46093047Y45802048D02*
X46188285Y45754429D01*
X46188285Y45754429D02*
X46235904Y45659191D01*
X46235904Y45659191D02*
X46235904Y45135381D01*
X31902568Y43635381D02*
X31902568Y44635381D01*
X31902568Y44635381D02*
X32235901Y43921096D01*
X32235901Y43921096D02*
X32569234Y44635381D01*
X32569234Y44635381D02*
X32569234Y43635381D01*
X33569234Y44587762D02*
X33473996Y44635381D01*
X33473996Y44635381D02*
X33331139Y44635381D01*
X33331139Y44635381D02*
X33188282Y44587762D01*
X33188282Y44587762D02*
X33093044Y44492524D01*
X33093044Y44492524D02*
X33045425Y44397286D01*
X33045425Y44397286D02*
X32997806Y44206810D01*
X32997806Y44206810D02*
X32997806Y44063953D01*
X32997806Y44063953D02*
X33045425Y43873477D01*
X33045425Y43873477D02*
X33093044Y43778239D01*
X33093044Y43778239D02*
X33188282Y43683000D01*
X33188282Y43683000D02*
X33331139Y43635381D01*
X33331139Y43635381D02*
X33426377Y43635381D01*
X33426377Y43635381D02*
X33569234Y43683000D01*
X33569234Y43683000D02*
X33616853Y43730620D01*
X33616853Y43730620D02*
X33616853Y44063953D01*
X33616853Y44063953D02*
X33426377Y44063953D01*
X34331139Y44635381D02*
X34331139Y43921096D01*
X34331139Y43921096D02*
X34283520Y43778239D01*
X34283520Y43778239D02*
X34188282Y43683000D01*
X34188282Y43683000D02*
X34045425Y43635381D01*
X34045425Y43635381D02*
X33950187Y43635381D01*
X35759711Y44635381D02*
X35854949Y44635381D01*
X35854949Y44635381D02*
X35950187Y44587762D01*
X35950187Y44587762D02*
X35997806Y44540143D01*
X35997806Y44540143D02*
X36045425Y44444905D01*
X36045425Y44444905D02*
X36093044Y44254429D01*
X36093044Y44254429D02*
X36093044Y44016334D01*
X36093044Y44016334D02*
X36045425Y43825858D01*
X36045425Y43825858D02*
X35997806Y43730620D01*
X35997806Y43730620D02*
X35950187Y43683000D01*
X35950187Y43683000D02*
X35854949Y43635381D01*
X35854949Y43635381D02*
X35759711Y43635381D01*
X35759711Y43635381D02*
X35664473Y43683000D01*
X35664473Y43683000D02*
X35616854Y43730620D01*
X35616854Y43730620D02*
X35569235Y43825858D01*
X35569235Y43825858D02*
X35521616Y44016334D01*
X35521616Y44016334D02*
X35521616Y44254429D01*
X35521616Y44254429D02*
X35569235Y44444905D01*
X35569235Y44444905D02*
X35616854Y44540143D01*
X35616854Y44540143D02*
X35664473Y44587762D01*
X35664473Y44587762D02*
X35759711Y44635381D01*
X36997806Y44635381D02*
X36521616Y44635381D01*
X36521616Y44635381D02*
X36473997Y44159191D01*
X36473997Y44159191D02*
X36521616Y44206810D01*
X36521616Y44206810D02*
X36616854Y44254429D01*
X36616854Y44254429D02*
X36854949Y44254429D01*
X36854949Y44254429D02*
X36950187Y44206810D01*
X36950187Y44206810D02*
X36997806Y44159191D01*
X36997806Y44159191D02*
X37045425Y44063953D01*
X37045425Y44063953D02*
X37045425Y43825858D01*
X37045425Y43825858D02*
X36997806Y43730620D01*
X36997806Y43730620D02*
X36950187Y43683000D01*
X36950187Y43683000D02*
X36854949Y43635381D01*
X36854949Y43635381D02*
X36616854Y43635381D01*
X36616854Y43635381D02*
X36521616Y43683000D01*
X36521616Y43683000D02*
X36473997Y43730620D01*
X37426378Y44540143D02*
X37473997Y44587762D01*
X37473997Y44587762D02*
X37569235Y44635381D01*
X37569235Y44635381D02*
X37807330Y44635381D01*
X37807330Y44635381D02*
X37902568Y44587762D01*
X37902568Y44587762D02*
X37950187Y44540143D01*
X37950187Y44540143D02*
X37997806Y44444905D01*
X37997806Y44444905D02*
X37997806Y44349667D01*
X37997806Y44349667D02*
X37950187Y44206810D01*
X37950187Y44206810D02*
X37378759Y43635381D01*
X37378759Y43635381D02*
X37997806Y43635381D01*
X38854949Y44635381D02*
X38664473Y44635381D01*
X38664473Y44635381D02*
X38569235Y44587762D01*
X38569235Y44587762D02*
X38521616Y44540143D01*
X38521616Y44540143D02*
X38426378Y44397286D01*
X38426378Y44397286D02*
X38378759Y44206810D01*
X38378759Y44206810D02*
X38378759Y43825858D01*
X38378759Y43825858D02*
X38426378Y43730620D01*
X38426378Y43730620D02*
X38473997Y43683000D01*
X38473997Y43683000D02*
X38569235Y43635381D01*
X38569235Y43635381D02*
X38759711Y43635381D01*
X38759711Y43635381D02*
X38854949Y43683000D01*
X38854949Y43683000D02*
X38902568Y43730620D01*
X38902568Y43730620D02*
X38950187Y43825858D01*
X38950187Y43825858D02*
X38950187Y44063953D01*
X38950187Y44063953D02*
X38902568Y44159191D01*
X38902568Y44159191D02*
X38854949Y44206810D01*
X38854949Y44206810D02*
X38759711Y44254429D01*
X38759711Y44254429D02*
X38569235Y44254429D01*
X38569235Y44254429D02*
X38473997Y44206810D01*
X38473997Y44206810D02*
X38426378Y44159191D01*
X38426378Y44159191D02*
X38378759Y44063953D01*
X32473996Y42135381D02*
X32140663Y42611572D01*
X31902568Y42135381D02*
X31902568Y43135381D01*
X31902568Y43135381D02*
X32283520Y43135381D01*
X32283520Y43135381D02*
X32378758Y43087762D01*
X32378758Y43087762D02*
X32426377Y43040143D01*
X32426377Y43040143D02*
X32473996Y42944905D01*
X32473996Y42944905D02*
X32473996Y42802048D01*
X32473996Y42802048D02*
X32426377Y42706810D01*
X32426377Y42706810D02*
X32378758Y42659191D01*
X32378758Y42659191D02*
X32283520Y42611572D01*
X32283520Y42611572D02*
X31902568Y42611572D01*
X32902568Y42659191D02*
X33235901Y42659191D01*
X33378758Y42135381D02*
X32902568Y42135381D01*
X32902568Y42135381D02*
X32902568Y43135381D01*
X32902568Y43135381D02*
X33378758Y43135381D01*
X33664473Y43135381D02*
X33997806Y42135381D01*
X33997806Y42135381D02*
X34331139Y43135381D01*
X35997806Y42230620D02*
X35950187Y42183000D01*
X35950187Y42183000D02*
X35807330Y42135381D01*
X35807330Y42135381D02*
X35712092Y42135381D01*
X35712092Y42135381D02*
X35569235Y42183000D01*
X35569235Y42183000D02*
X35473997Y42278239D01*
X35473997Y42278239D02*
X35426378Y42373477D01*
X35426378Y42373477D02*
X35378759Y42563953D01*
X35378759Y42563953D02*
X35378759Y42706810D01*
X35378759Y42706810D02*
X35426378Y42897286D01*
X35426378Y42897286D02*
X35473997Y42992524D01*
X35473997Y42992524D02*
X35569235Y43087762D01*
X35569235Y43087762D02*
X35712092Y43135381D01*
X35712092Y43135381D02*
X35807330Y43135381D01*
X35807330Y43135381D02*
X35950187Y43087762D01*
X35950187Y43087762D02*
X35997806Y43040143D01*
D10*
X22238095Y42594467D02*
X23761905Y42594467D01*
X23000000Y41832562D02*
X23000000Y43356372D01*
X26238095Y42594467D02*
X27761905Y42594467D01*
X48431009Y21142858D02*
X48478628Y21285715D01*
X48478628Y21285715D02*
X48526247Y21333334D01*
X48526247Y21333334D02*
X48621485Y21380953D01*
X48621485Y21380953D02*
X48764342Y21380953D01*
X48764342Y21380953D02*
X48859580Y21333334D01*
X48859580Y21333334D02*
X48907200Y21285715D01*
X48907200Y21285715D02*
X48954819Y21190477D01*
X48954819Y21190477D02*
X48954819Y20809525D01*
X48954819Y20809525D02*
X47954819Y20809525D01*
X47954819Y20809525D02*
X47954819Y21142858D01*
X47954819Y21142858D02*
X48002438Y21238096D01*
X48002438Y21238096D02*
X48050057Y21285715D01*
X48050057Y21285715D02*
X48145295Y21333334D01*
X48145295Y21333334D02*
X48240533Y21333334D01*
X48240533Y21333334D02*
X48335771Y21285715D01*
X48335771Y21285715D02*
X48383390Y21238096D01*
X48383390Y21238096D02*
X48431009Y21142858D01*
X48431009Y21142858D02*
X48431009Y20809525D01*
X48954819Y22333334D02*
X48954819Y21761906D01*
X48954819Y22047620D02*
X47954819Y22047620D01*
X47954819Y22047620D02*
X48097676Y21952382D01*
X48097676Y21952382D02*
X48192914Y21857144D01*
X48192914Y21857144D02*
X48240533Y21761906D01*
X47954819Y22952382D02*
X47954819Y23047620D01*
X47954819Y23047620D02*
X48002438Y23142858D01*
X48002438Y23142858D02*
X48050057Y23190477D01*
X48050057Y23190477D02*
X48145295Y23238096D01*
X48145295Y23238096D02*
X48335771Y23285715D01*
X48335771Y23285715D02*
X48573866Y23285715D01*
X48573866Y23285715D02*
X48764342Y23238096D01*
X48764342Y23238096D02*
X48859580Y23190477D01*
X48859580Y23190477D02*
X48907200Y23142858D01*
X48907200Y23142858D02*
X48954819Y23047620D01*
X48954819Y23047620D02*
X48954819Y22952382D01*
X48954819Y22952382D02*
X48907200Y22857144D01*
X48907200Y22857144D02*
X48859580Y22809525D01*
X48859580Y22809525D02*
X48764342Y22761906D01*
X48764342Y22761906D02*
X48573866Y22714287D01*
X48573866Y22714287D02*
X48335771Y22714287D01*
X48335771Y22714287D02*
X48145295Y22761906D01*
X48145295Y22761906D02*
X48050057Y22809525D01*
X48050057Y22809525D02*
X48002438Y22857144D01*
X48002438Y22857144D02*
X47954819Y22952382D01*
X47954819Y23904763D02*
X47954819Y24000001D01*
X47954819Y24000001D02*
X48002438Y24095239D01*
X48002438Y24095239D02*
X48050057Y24142858D01*
X48050057Y24142858D02*
X48145295Y24190477D01*
X48145295Y24190477D02*
X48335771Y24238096D01*
X48335771Y24238096D02*
X48573866Y24238096D01*
X48573866Y24238096D02*
X48764342Y24190477D01*
X48764342Y24190477D02*
X48859580Y24142858D01*
X48859580Y24142858D02*
X48907200Y24095239D01*
X48907200Y24095239D02*
X48954819Y24000001D01*
X48954819Y24000001D02*
X48954819Y23904763D01*
X48954819Y23904763D02*
X48907200Y23809525D01*
X48907200Y23809525D02*
X48859580Y23761906D01*
X48859580Y23761906D02*
X48764342Y23714287D01*
X48764342Y23714287D02*
X48573866Y23666668D01*
X48573866Y23666668D02*
X48335771Y23666668D01*
X48335771Y23666668D02*
X48145295Y23714287D01*
X48145295Y23714287D02*
X48050057Y23761906D01*
X48050057Y23761906D02*
X48002438Y23809525D01*
X48002438Y23809525D02*
X47954819Y23904763D01*
X48954819Y24666668D02*
X47954819Y24666668D01*
X48954819Y25238096D02*
X48383390Y24809525D01*
X47954819Y25238096D02*
X48526247Y24666668D01*
X48573866Y25666668D02*
X48573866Y26428572D01*
X47954819Y26761906D02*
X47954819Y27333334D01*
X48954819Y27047620D02*
X47954819Y27047620D01*
X47954819Y27857144D02*
X47954819Y28047620D01*
X47954819Y28047620D02*
X48002438Y28142858D01*
X48002438Y28142858D02*
X48097676Y28238096D01*
X48097676Y28238096D02*
X48288152Y28285715D01*
X48288152Y28285715D02*
X48621485Y28285715D01*
X48621485Y28285715D02*
X48811961Y28238096D01*
X48811961Y28238096D02*
X48907200Y28142858D01*
X48907200Y28142858D02*
X48954819Y28047620D01*
X48954819Y28047620D02*
X48954819Y27857144D01*
X48954819Y27857144D02*
X48907200Y27761906D01*
X48907200Y27761906D02*
X48811961Y27666668D01*
X48811961Y27666668D02*
X48621485Y27619049D01*
X48621485Y27619049D02*
X48288152Y27619049D01*
X48288152Y27619049D02*
X48097676Y27666668D01*
X48097676Y27666668D02*
X48002438Y27761906D01*
X48002438Y27761906D02*
X47954819Y27857144D01*
X48954819Y28714287D02*
X47954819Y28714287D01*
X47954819Y28714287D02*
X48954819Y29285715D01*
X48954819Y29285715D02*
X47954819Y29285715D01*
X48431009Y29761906D02*
X48431009Y30095239D01*
X48954819Y30238096D02*
X48954819Y29761906D01*
X48954819Y29761906D02*
X47954819Y29761906D01*
X47954819Y29761906D02*
X47954819Y30238096D01*
X25870057Y25364762D02*
X25822438Y25269524D01*
X25822438Y25269524D02*
X25727200Y25174286D01*
X25727200Y25174286D02*
X25584342Y25031429D01*
X25584342Y25031429D02*
X25536723Y24936191D01*
X25536723Y24936191D02*
X25536723Y24840953D01*
X25774819Y24888572D02*
X25727200Y24793334D01*
X25727200Y24793334D02*
X25631961Y24698096D01*
X25631961Y24698096D02*
X25441485Y24650477D01*
X25441485Y24650477D02*
X25108152Y24650477D01*
X25108152Y24650477D02*
X24917676Y24698096D01*
X24917676Y24698096D02*
X24822438Y24793334D01*
X24822438Y24793334D02*
X24774819Y24888572D01*
X24774819Y24888572D02*
X24774819Y25079048D01*
X24774819Y25079048D02*
X24822438Y25174286D01*
X24822438Y25174286D02*
X24917676Y25269524D01*
X24917676Y25269524D02*
X25108152Y25317143D01*
X25108152Y25317143D02*
X25441485Y25317143D01*
X25441485Y25317143D02*
X25631961Y25269524D01*
X25631961Y25269524D02*
X25727200Y25174286D01*
X25727200Y25174286D02*
X25774819Y25079048D01*
X25774819Y25079048D02*
X25774819Y24888572D01*
X24870057Y25698096D02*
X24822438Y25745715D01*
X24822438Y25745715D02*
X24774819Y25840953D01*
X24774819Y25840953D02*
X24774819Y26079048D01*
X24774819Y26079048D02*
X24822438Y26174286D01*
X24822438Y26174286D02*
X24870057Y26221905D01*
X24870057Y26221905D02*
X24965295Y26269524D01*
X24965295Y26269524D02*
X25060533Y26269524D01*
X25060533Y26269524D02*
X25203390Y26221905D01*
X25203390Y26221905D02*
X25774819Y25650477D01*
X25774819Y25650477D02*
X25774819Y26269524D01*
X24454819Y13523334D02*
X23978628Y13190001D01*
X24454819Y12951906D02*
X23454819Y12951906D01*
X23454819Y12951906D02*
X23454819Y13332858D01*
X23454819Y13332858D02*
X23502438Y13428096D01*
X23502438Y13428096D02*
X23550057Y13475715D01*
X23550057Y13475715D02*
X23645295Y13523334D01*
X23645295Y13523334D02*
X23788152Y13523334D01*
X23788152Y13523334D02*
X23883390Y13475715D01*
X23883390Y13475715D02*
X23931009Y13428096D01*
X23931009Y13428096D02*
X23978628Y13332858D01*
X23978628Y13332858D02*
X23978628Y12951906D01*
X24454819Y13999525D02*
X24454819Y14190001D01*
X24454819Y14190001D02*
X24407200Y14285239D01*
X24407200Y14285239D02*
X24359580Y14332858D01*
X24359580Y14332858D02*
X24216723Y14428096D01*
X24216723Y14428096D02*
X24026247Y14475715D01*
X24026247Y14475715D02*
X23645295Y14475715D01*
X23645295Y14475715D02*
X23550057Y14428096D01*
X23550057Y14428096D02*
X23502438Y14380477D01*
X23502438Y14380477D02*
X23454819Y14285239D01*
X23454819Y14285239D02*
X23454819Y14094763D01*
X23454819Y14094763D02*
X23502438Y13999525D01*
X23502438Y13999525D02*
X23550057Y13951906D01*
X23550057Y13951906D02*
X23645295Y13904287D01*
X23645295Y13904287D02*
X23883390Y13904287D01*
X23883390Y13904287D02*
X23978628Y13951906D01*
X23978628Y13951906D02*
X24026247Y13999525D01*
X24026247Y13999525D02*
X24073866Y14094763D01*
X24073866Y14094763D02*
X24073866Y14285239D01*
X24073866Y14285239D02*
X24026247Y14380477D01*
X24026247Y14380477D02*
X23978628Y14428096D01*
X23978628Y14428096D02*
X23883390Y14475715D01*
X43333333Y39140420D02*
X43285714Y39092800D01*
X43285714Y39092800D02*
X43142857Y39045181D01*
X43142857Y39045181D02*
X43047619Y39045181D01*
X43047619Y39045181D02*
X42904762Y39092800D01*
X42904762Y39092800D02*
X42809524Y39188039D01*
X42809524Y39188039D02*
X42761905Y39283277D01*
X42761905Y39283277D02*
X42714286Y39473753D01*
X42714286Y39473753D02*
X42714286Y39616610D01*
X42714286Y39616610D02*
X42761905Y39807086D01*
X42761905Y39807086D02*
X42809524Y39902324D01*
X42809524Y39902324D02*
X42904762Y39997562D01*
X42904762Y39997562D02*
X43047619Y40045181D01*
X43047619Y40045181D02*
X43142857Y40045181D01*
X43142857Y40045181D02*
X43285714Y39997562D01*
X43285714Y39997562D02*
X43333333Y39949943D01*
X44238095Y40045181D02*
X43761905Y40045181D01*
X43761905Y40045181D02*
X43714286Y39568991D01*
X43714286Y39568991D02*
X43761905Y39616610D01*
X43761905Y39616610D02*
X43857143Y39664229D01*
X43857143Y39664229D02*
X44095238Y39664229D01*
X44095238Y39664229D02*
X44190476Y39616610D01*
X44190476Y39616610D02*
X44238095Y39568991D01*
X44238095Y39568991D02*
X44285714Y39473753D01*
X44285714Y39473753D02*
X44285714Y39235658D01*
X44285714Y39235658D02*
X44238095Y39140420D01*
X44238095Y39140420D02*
X44190476Y39092800D01*
X44190476Y39092800D02*
X44095238Y39045181D01*
X44095238Y39045181D02*
X43857143Y39045181D01*
X43857143Y39045181D02*
X43761905Y39092800D01*
X43761905Y39092800D02*
X43714286Y39140420D01*
X6859580Y10333334D02*
X6907200Y10285715D01*
X6907200Y10285715D02*
X6954819Y10142858D01*
X6954819Y10142858D02*
X6954819Y10047620D01*
X6954819Y10047620D02*
X6907200Y9904763D01*
X6907200Y9904763D02*
X6811961Y9809525D01*
X6811961Y9809525D02*
X6716723Y9761906D01*
X6716723Y9761906D02*
X6526247Y9714287D01*
X6526247Y9714287D02*
X6383390Y9714287D01*
X6383390Y9714287D02*
X6192914Y9761906D01*
X6192914Y9761906D02*
X6097676Y9809525D01*
X6097676Y9809525D02*
X6002438Y9904763D01*
X6002438Y9904763D02*
X5954819Y10047620D01*
X5954819Y10047620D02*
X5954819Y10142858D01*
X5954819Y10142858D02*
X6002438Y10285715D01*
X6002438Y10285715D02*
X6050057Y10333334D01*
X6954819Y11285715D02*
X6954819Y10714287D01*
X6954819Y11000001D02*
X5954819Y11000001D01*
X5954819Y11000001D02*
X6097676Y10904763D01*
X6097676Y10904763D02*
X6192914Y10809525D01*
X6192914Y10809525D02*
X6240533Y10714287D01*
X37859580Y20333334D02*
X37907200Y20285715D01*
X37907200Y20285715D02*
X37954819Y20142858D01*
X37954819Y20142858D02*
X37954819Y20047620D01*
X37954819Y20047620D02*
X37907200Y19904763D01*
X37907200Y19904763D02*
X37811961Y19809525D01*
X37811961Y19809525D02*
X37716723Y19761906D01*
X37716723Y19761906D02*
X37526247Y19714287D01*
X37526247Y19714287D02*
X37383390Y19714287D01*
X37383390Y19714287D02*
X37192914Y19761906D01*
X37192914Y19761906D02*
X37097676Y19809525D01*
X37097676Y19809525D02*
X37002438Y19904763D01*
X37002438Y19904763D02*
X36954819Y20047620D01*
X36954819Y20047620D02*
X36954819Y20142858D01*
X36954819Y20142858D02*
X37002438Y20285715D01*
X37002438Y20285715D02*
X37050057Y20333334D01*
X37954819Y20809525D02*
X37954819Y21000001D01*
X37954819Y21000001D02*
X37907200Y21095239D01*
X37907200Y21095239D02*
X37859580Y21142858D01*
X37859580Y21142858D02*
X37716723Y21238096D01*
X37716723Y21238096D02*
X37526247Y21285715D01*
X37526247Y21285715D02*
X37145295Y21285715D01*
X37145295Y21285715D02*
X37050057Y21238096D01*
X37050057Y21238096D02*
X37002438Y21190477D01*
X37002438Y21190477D02*
X36954819Y21095239D01*
X36954819Y21095239D02*
X36954819Y20904763D01*
X36954819Y20904763D02*
X37002438Y20809525D01*
X37002438Y20809525D02*
X37050057Y20761906D01*
X37050057Y20761906D02*
X37145295Y20714287D01*
X37145295Y20714287D02*
X37383390Y20714287D01*
X37383390Y20714287D02*
X37478628Y20761906D01*
X37478628Y20761906D02*
X37526247Y20809525D01*
X37526247Y20809525D02*
X37573866Y20904763D01*
X37573866Y20904763D02*
X37573866Y21095239D01*
X37573866Y21095239D02*
X37526247Y21190477D01*
X37526247Y21190477D02*
X37478628Y21238096D01*
X37478628Y21238096D02*
X37383390Y21285715D01*
X9393333Y15045181D02*
X9060000Y15521372D01*
X8821905Y15045181D02*
X8821905Y16045181D01*
X8821905Y16045181D02*
X9202857Y16045181D01*
X9202857Y16045181D02*
X9298095Y15997562D01*
X9298095Y15997562D02*
X9345714Y15949943D01*
X9345714Y15949943D02*
X9393333Y15854705D01*
X9393333Y15854705D02*
X9393333Y15711848D01*
X9393333Y15711848D02*
X9345714Y15616610D01*
X9345714Y15616610D02*
X9298095Y15568991D01*
X9298095Y15568991D02*
X9202857Y15521372D01*
X9202857Y15521372D02*
X8821905Y15521372D01*
X9726667Y16045181D02*
X10345714Y16045181D01*
X10345714Y16045181D02*
X10012381Y15664229D01*
X10012381Y15664229D02*
X10155238Y15664229D01*
X10155238Y15664229D02*
X10250476Y15616610D01*
X10250476Y15616610D02*
X10298095Y15568991D01*
X10298095Y15568991D02*
X10345714Y15473753D01*
X10345714Y15473753D02*
X10345714Y15235658D01*
X10345714Y15235658D02*
X10298095Y15140420D01*
X10298095Y15140420D02*
X10250476Y15092800D01*
X10250476Y15092800D02*
X10155238Y15045181D01*
X10155238Y15045181D02*
X9869524Y15045181D01*
X9869524Y15045181D02*
X9774286Y15092800D01*
X9774286Y15092800D02*
X9726667Y15140420D01*
X29954819Y20547143D02*
X29478628Y20213810D01*
X29954819Y19975715D02*
X28954819Y19975715D01*
X28954819Y19975715D02*
X28954819Y20356667D01*
X28954819Y20356667D02*
X29002438Y20451905D01*
X29002438Y20451905D02*
X29050057Y20499524D01*
X29050057Y20499524D02*
X29145295Y20547143D01*
X29145295Y20547143D02*
X29288152Y20547143D01*
X29288152Y20547143D02*
X29383390Y20499524D01*
X29383390Y20499524D02*
X29431009Y20451905D01*
X29431009Y20451905D02*
X29478628Y20356667D01*
X29478628Y20356667D02*
X29478628Y19975715D01*
X29954819Y21499524D02*
X29954819Y20928096D01*
X29954819Y21213810D02*
X28954819Y21213810D01*
X28954819Y21213810D02*
X29097676Y21118572D01*
X29097676Y21118572D02*
X29192914Y21023334D01*
X29192914Y21023334D02*
X29240533Y20928096D01*
X28954819Y21832858D02*
X28954819Y22451905D01*
X28954819Y22451905D02*
X29335771Y22118572D01*
X29335771Y22118572D02*
X29335771Y22261429D01*
X29335771Y22261429D02*
X29383390Y22356667D01*
X29383390Y22356667D02*
X29431009Y22404286D01*
X29431009Y22404286D02*
X29526247Y22451905D01*
X29526247Y22451905D02*
X29764342Y22451905D01*
X29764342Y22451905D02*
X29859580Y22404286D01*
X29859580Y22404286D02*
X29907200Y22356667D01*
X29907200Y22356667D02*
X29954819Y22261429D01*
X29954819Y22261429D02*
X29954819Y21975715D01*
X29954819Y21975715D02*
X29907200Y21880477D01*
X29907200Y21880477D02*
X29859580Y21832858D01*
X22359580Y7095239D02*
X22407200Y7047620D01*
X22407200Y7047620D02*
X22454819Y6904763D01*
X22454819Y6904763D02*
X22454819Y6809525D01*
X22454819Y6809525D02*
X22407200Y6666668D01*
X22407200Y6666668D02*
X22311961Y6571430D01*
X22311961Y6571430D02*
X22216723Y6523811D01*
X22216723Y6523811D02*
X22026247Y6476192D01*
X22026247Y6476192D02*
X21883390Y6476192D01*
X21883390Y6476192D02*
X21692914Y6523811D01*
X21692914Y6523811D02*
X21597676Y6571430D01*
X21597676Y6571430D02*
X21502438Y6666668D01*
X21502438Y6666668D02*
X21454819Y6809525D01*
X21454819Y6809525D02*
X21454819Y6904763D01*
X21454819Y6904763D02*
X21502438Y7047620D01*
X21502438Y7047620D02*
X21550057Y7095239D01*
X21454819Y8000001D02*
X21454819Y7523811D01*
X21454819Y7523811D02*
X21931009Y7476192D01*
X21931009Y7476192D02*
X21883390Y7523811D01*
X21883390Y7523811D02*
X21835771Y7619049D01*
X21835771Y7619049D02*
X21835771Y7857144D01*
X21835771Y7857144D02*
X21883390Y7952382D01*
X21883390Y7952382D02*
X21931009Y8000001D01*
X21931009Y8000001D02*
X22026247Y8047620D01*
X22026247Y8047620D02*
X22264342Y8047620D01*
X22264342Y8047620D02*
X22359580Y8000001D01*
X22359580Y8000001D02*
X22407200Y7952382D01*
X22407200Y7952382D02*
X22454819Y7857144D01*
X22454819Y7857144D02*
X22454819Y7619049D01*
X22454819Y7619049D02*
X22407200Y7523811D01*
X22407200Y7523811D02*
X22359580Y7476192D01*
X22454819Y8476192D02*
X21454819Y8476192D01*
X22454819Y9047620D02*
X21883390Y8619049D01*
X21454819Y9047620D02*
X22026247Y8476192D01*
X22073866Y9476192D02*
X22073866Y10238096D01*
X22454819Y10714287D02*
X21454819Y10714287D01*
X21454819Y10714287D02*
X21454819Y10952382D01*
X21454819Y10952382D02*
X21502438Y11095239D01*
X21502438Y11095239D02*
X21597676Y11190477D01*
X21597676Y11190477D02*
X21692914Y11238096D01*
X21692914Y11238096D02*
X21883390Y11285715D01*
X21883390Y11285715D02*
X22026247Y11285715D01*
X22026247Y11285715D02*
X22216723Y11238096D01*
X22216723Y11238096D02*
X22311961Y11190477D01*
X22311961Y11190477D02*
X22407200Y11095239D01*
X22407200Y11095239D02*
X22454819Y10952382D01*
X22454819Y10952382D02*
X22454819Y10714287D01*
X22454819Y12285715D02*
X21978628Y11952382D01*
X22454819Y11714287D02*
X21454819Y11714287D01*
X21454819Y11714287D02*
X21454819Y12095239D01*
X21454819Y12095239D02*
X21502438Y12190477D01*
X21502438Y12190477D02*
X21550057Y12238096D01*
X21550057Y12238096D02*
X21645295Y12285715D01*
X21645295Y12285715D02*
X21788152Y12285715D01*
X21788152Y12285715D02*
X21883390Y12238096D01*
X21883390Y12238096D02*
X21931009Y12190477D01*
X21931009Y12190477D02*
X21978628Y12095239D01*
X21978628Y12095239D02*
X21978628Y11714287D01*
X22454819Y12714287D02*
X21454819Y12714287D01*
X21454819Y13047620D02*
X22454819Y13380953D01*
X22454819Y13380953D02*
X21454819Y13714286D01*
X21931009Y14047620D02*
X21931009Y14380953D01*
X22454819Y14523810D02*
X22454819Y14047620D01*
X22454819Y14047620D02*
X21454819Y14047620D01*
X21454819Y14047620D02*
X21454819Y14523810D01*
X43454819Y21547143D02*
X42978628Y21213810D01*
X43454819Y20975715D02*
X42454819Y20975715D01*
X42454819Y20975715D02*
X42454819Y21356667D01*
X42454819Y21356667D02*
X42502438Y21451905D01*
X42502438Y21451905D02*
X42550057Y21499524D01*
X42550057Y21499524D02*
X42645295Y21547143D01*
X42645295Y21547143D02*
X42788152Y21547143D01*
X42788152Y21547143D02*
X42883390Y21499524D01*
X42883390Y21499524D02*
X42931009Y21451905D01*
X42931009Y21451905D02*
X42978628Y21356667D01*
X42978628Y21356667D02*
X42978628Y20975715D01*
X43454819Y22499524D02*
X43454819Y21928096D01*
X43454819Y22213810D02*
X42454819Y22213810D01*
X42454819Y22213810D02*
X42597676Y22118572D01*
X42597676Y22118572D02*
X42692914Y22023334D01*
X42692914Y22023334D02*
X42740533Y21928096D01*
X42454819Y23356667D02*
X42454819Y23166191D01*
X42454819Y23166191D02*
X42502438Y23070953D01*
X42502438Y23070953D02*
X42550057Y23023334D01*
X42550057Y23023334D02*
X42692914Y22928096D01*
X42692914Y22928096D02*
X42883390Y22880477D01*
X42883390Y22880477D02*
X43264342Y22880477D01*
X43264342Y22880477D02*
X43359580Y22928096D01*
X43359580Y22928096D02*
X43407200Y22975715D01*
X43407200Y22975715D02*
X43454819Y23070953D01*
X43454819Y23070953D02*
X43454819Y23261429D01*
X43454819Y23261429D02*
X43407200Y23356667D01*
X43407200Y23356667D02*
X43359580Y23404286D01*
X43359580Y23404286D02*
X43264342Y23451905D01*
X43264342Y23451905D02*
X43026247Y23451905D01*
X43026247Y23451905D02*
X42931009Y23404286D01*
X42931009Y23404286D02*
X42883390Y23356667D01*
X42883390Y23356667D02*
X42835771Y23261429D01*
X42835771Y23261429D02*
X42835771Y23070953D01*
X42835771Y23070953D02*
X42883390Y22975715D01*
X42883390Y22975715D02*
X42931009Y22928096D01*
X42931009Y22928096D02*
X43026247Y22880477D01*
X26954819Y13523334D02*
X26478628Y13190001D01*
X26954819Y12951906D02*
X25954819Y12951906D01*
X25954819Y12951906D02*
X25954819Y13332858D01*
X25954819Y13332858D02*
X26002438Y13428096D01*
X26002438Y13428096D02*
X26050057Y13475715D01*
X26050057Y13475715D02*
X26145295Y13523334D01*
X26145295Y13523334D02*
X26288152Y13523334D01*
X26288152Y13523334D02*
X26383390Y13475715D01*
X26383390Y13475715D02*
X26431009Y13428096D01*
X26431009Y13428096D02*
X26478628Y13332858D01*
X26478628Y13332858D02*
X26478628Y12951906D01*
X25954819Y14380477D02*
X25954819Y14190001D01*
X25954819Y14190001D02*
X26002438Y14094763D01*
X26002438Y14094763D02*
X26050057Y14047144D01*
X26050057Y14047144D02*
X26192914Y13951906D01*
X26192914Y13951906D02*
X26383390Y13904287D01*
X26383390Y13904287D02*
X26764342Y13904287D01*
X26764342Y13904287D02*
X26859580Y13951906D01*
X26859580Y13951906D02*
X26907200Y13999525D01*
X26907200Y13999525D02*
X26954819Y14094763D01*
X26954819Y14094763D02*
X26954819Y14285239D01*
X26954819Y14285239D02*
X26907200Y14380477D01*
X26907200Y14380477D02*
X26859580Y14428096D01*
X26859580Y14428096D02*
X26764342Y14475715D01*
X26764342Y14475715D02*
X26526247Y14475715D01*
X26526247Y14475715D02*
X26431009Y14428096D01*
X26431009Y14428096D02*
X26383390Y14380477D01*
X26383390Y14380477D02*
X26335771Y14285239D01*
X26335771Y14285239D02*
X26335771Y14094763D01*
X26335771Y14094763D02*
X26383390Y13999525D01*
X26383390Y13999525D02*
X26431009Y13951906D01*
X26431009Y13951906D02*
X26526247Y13904287D01*
X30857142Y37545181D02*
X30523809Y38021372D01*
X30285714Y37545181D02*
X30285714Y38545181D01*
X30285714Y38545181D02*
X30666666Y38545181D01*
X30666666Y38545181D02*
X30761904Y38497562D01*
X30761904Y38497562D02*
X30809523Y38449943D01*
X30809523Y38449943D02*
X30857142Y38354705D01*
X30857142Y38354705D02*
X30857142Y38211848D01*
X30857142Y38211848D02*
X30809523Y38116610D01*
X30809523Y38116610D02*
X30761904Y38068991D01*
X30761904Y38068991D02*
X30666666Y38021372D01*
X30666666Y38021372D02*
X30285714Y38021372D01*
X31809523Y37545181D02*
X31238095Y37545181D01*
X31523809Y37545181D02*
X31523809Y38545181D01*
X31523809Y38545181D02*
X31428571Y38402324D01*
X31428571Y38402324D02*
X31333333Y38307086D01*
X31333333Y38307086D02*
X31238095Y38259467D01*
X32761904Y37545181D02*
X32190476Y37545181D01*
X32476190Y37545181D02*
X32476190Y38545181D01*
X32476190Y38545181D02*
X32380952Y38402324D01*
X32380952Y38402324D02*
X32285714Y38307086D01*
X32285714Y38307086D02*
X32190476Y38259467D01*
X9880952Y34640420D02*
X9833333Y34592800D01*
X9833333Y34592800D02*
X9690476Y34545181D01*
X9690476Y34545181D02*
X9595238Y34545181D01*
X9595238Y34545181D02*
X9452381Y34592800D01*
X9452381Y34592800D02*
X9357143Y34688039D01*
X9357143Y34688039D02*
X9309524Y34783277D01*
X9309524Y34783277D02*
X9261905Y34973753D01*
X9261905Y34973753D02*
X9261905Y35116610D01*
X9261905Y35116610D02*
X9309524Y35307086D01*
X9309524Y35307086D02*
X9357143Y35402324D01*
X9357143Y35402324D02*
X9452381Y35497562D01*
X9452381Y35497562D02*
X9595238Y35545181D01*
X9595238Y35545181D02*
X9690476Y35545181D01*
X9690476Y35545181D02*
X9833333Y35497562D01*
X9833333Y35497562D02*
X9880952Y35449943D01*
X10833333Y34545181D02*
X10261905Y34545181D01*
X10547619Y34545181D02*
X10547619Y35545181D01*
X10547619Y35545181D02*
X10452381Y35402324D01*
X10452381Y35402324D02*
X10357143Y35307086D01*
X10357143Y35307086D02*
X10261905Y35259467D01*
X11452381Y35545181D02*
X11547619Y35545181D01*
X11547619Y35545181D02*
X11642857Y35497562D01*
X11642857Y35497562D02*
X11690476Y35449943D01*
X11690476Y35449943D02*
X11738095Y35354705D01*
X11738095Y35354705D02*
X11785714Y35164229D01*
X11785714Y35164229D02*
X11785714Y34926134D01*
X11785714Y34926134D02*
X11738095Y34735658D01*
X11738095Y34735658D02*
X11690476Y34640420D01*
X11690476Y34640420D02*
X11642857Y34592800D01*
X11642857Y34592800D02*
X11547619Y34545181D01*
X11547619Y34545181D02*
X11452381Y34545181D01*
X11452381Y34545181D02*
X11357143Y34592800D01*
X11357143Y34592800D02*
X11309524Y34640420D01*
X11309524Y34640420D02*
X11261905Y34735658D01*
X11261905Y34735658D02*
X11214286Y34926134D01*
X11214286Y34926134D02*
X11214286Y35164229D01*
X11214286Y35164229D02*
X11261905Y35354705D01*
X11261905Y35354705D02*
X11309524Y35449943D01*
X11309524Y35449943D02*
X11357143Y35497562D01*
X11357143Y35497562D02*
X11452381Y35545181D01*
X12404762Y35545181D02*
X12500000Y35545181D01*
X12500000Y35545181D02*
X12595238Y35497562D01*
X12595238Y35497562D02*
X12642857Y35449943D01*
X12642857Y35449943D02*
X12690476Y35354705D01*
X12690476Y35354705D02*
X12738095Y35164229D01*
X12738095Y35164229D02*
X12738095Y34926134D01*
X12738095Y34926134D02*
X12690476Y34735658D01*
X12690476Y34735658D02*
X12642857Y34640420D01*
X12642857Y34640420D02*
X12595238Y34592800D01*
X12595238Y34592800D02*
X12500000Y34545181D01*
X12500000Y34545181D02*
X12404762Y34545181D01*
X12404762Y34545181D02*
X12309524Y34592800D01*
X12309524Y34592800D02*
X12261905Y34640420D01*
X12261905Y34640420D02*
X12214286Y34735658D01*
X12214286Y34735658D02*
X12166667Y34926134D01*
X12166667Y34926134D02*
X12166667Y35164229D01*
X12166667Y35164229D02*
X12214286Y35354705D01*
X12214286Y35354705D02*
X12261905Y35449943D01*
X12261905Y35449943D02*
X12309524Y35497562D01*
X12309524Y35497562D02*
X12404762Y35545181D01*
X6451191Y5170181D02*
X6451191Y6170181D01*
X6927381Y5170181D02*
X6927381Y6170181D01*
X6927381Y6170181D02*
X7498809Y5170181D01*
X7498809Y5170181D02*
X7498809Y6170181D01*
X35500000Y5545181D02*
X35690476Y5545181D01*
X35690476Y5545181D02*
X35785714Y5497562D01*
X35785714Y5497562D02*
X35880952Y5402324D01*
X35880952Y5402324D02*
X35928571Y5211848D01*
X35928571Y5211848D02*
X35928571Y4878515D01*
X35928571Y4878515D02*
X35880952Y4688039D01*
X35880952Y4688039D02*
X35785714Y4592800D01*
X35785714Y4592800D02*
X35690476Y4545181D01*
X35690476Y4545181D02*
X35500000Y4545181D01*
X35500000Y4545181D02*
X35404762Y4592800D01*
X35404762Y4592800D02*
X35309524Y4688039D01*
X35309524Y4688039D02*
X35261905Y4878515D01*
X35261905Y4878515D02*
X35261905Y5211848D01*
X35261905Y5211848D02*
X35309524Y5402324D01*
X35309524Y5402324D02*
X35404762Y5497562D01*
X35404762Y5497562D02*
X35500000Y5545181D01*
X36357143Y5545181D02*
X36357143Y4735658D01*
X36357143Y4735658D02*
X36404762Y4640420D01*
X36404762Y4640420D02*
X36452381Y4592800D01*
X36452381Y4592800D02*
X36547619Y4545181D01*
X36547619Y4545181D02*
X36738095Y4545181D01*
X36738095Y4545181D02*
X36833333Y4592800D01*
X36833333Y4592800D02*
X36880952Y4640420D01*
X36880952Y4640420D02*
X36928571Y4735658D01*
X36928571Y4735658D02*
X36928571Y5545181D01*
X37261905Y5545181D02*
X37833333Y5545181D01*
X37547619Y4545181D02*
X37547619Y5545181D01*
X26738571Y6140420D02*
X26690952Y6092800D01*
X26690952Y6092800D02*
X26548095Y6045181D01*
X26548095Y6045181D02*
X26452857Y6045181D01*
X26452857Y6045181D02*
X26310000Y6092800D01*
X26310000Y6092800D02*
X26214762Y6188039D01*
X26214762Y6188039D02*
X26167143Y6283277D01*
X26167143Y6283277D02*
X26119524Y6473753D01*
X26119524Y6473753D02*
X26119524Y6616610D01*
X26119524Y6616610D02*
X26167143Y6807086D01*
X26167143Y6807086D02*
X26214762Y6902324D01*
X26214762Y6902324D02*
X26310000Y6997562D01*
X26310000Y6997562D02*
X26452857Y7045181D01*
X26452857Y7045181D02*
X26548095Y7045181D01*
X26548095Y7045181D02*
X26690952Y6997562D01*
X26690952Y6997562D02*
X26738571Y6949943D01*
X27643333Y6045181D02*
X27167143Y6045181D01*
X27167143Y6045181D02*
X27167143Y7045181D01*
X28548095Y6045181D02*
X28214762Y6521372D01*
X27976667Y6045181D02*
X27976667Y7045181D01*
X27976667Y7045181D02*
X28357619Y7045181D01*
X28357619Y7045181D02*
X28452857Y6997562D01*
X28452857Y6997562D02*
X28500476Y6949943D01*
X28500476Y6949943D02*
X28548095Y6854705D01*
X28548095Y6854705D02*
X28548095Y6711848D01*
X28548095Y6711848D02*
X28500476Y6616610D01*
X28500476Y6616610D02*
X28452857Y6568991D01*
X28452857Y6568991D02*
X28357619Y6521372D01*
X28357619Y6521372D02*
X27976667Y6521372D01*
X29500476Y6045181D02*
X28929048Y6045181D01*
X29214762Y6045181D02*
X29214762Y7045181D01*
X29214762Y7045181D02*
X29119524Y6902324D01*
X29119524Y6902324D02*
X29024286Y6807086D01*
X29024286Y6807086D02*
X28929048Y6759467D01*
X32261905Y26925181D02*
X32261905Y27925181D01*
X32261905Y27925181D02*
X32500000Y27925181D01*
X32500000Y27925181D02*
X32642857Y27877562D01*
X32642857Y27877562D02*
X32738095Y27782324D01*
X32738095Y27782324D02*
X32785714Y27687086D01*
X32785714Y27687086D02*
X32833333Y27496610D01*
X32833333Y27496610D02*
X32833333Y27353753D01*
X32833333Y27353753D02*
X32785714Y27163277D01*
X32785714Y27163277D02*
X32738095Y27068039D01*
X32738095Y27068039D02*
X32642857Y26972800D01*
X32642857Y26972800D02*
X32500000Y26925181D01*
X32500000Y26925181D02*
X32261905Y26925181D01*
X33166667Y27925181D02*
X33785714Y27925181D01*
X33785714Y27925181D02*
X33452381Y27544229D01*
X33452381Y27544229D02*
X33595238Y27544229D01*
X33595238Y27544229D02*
X33690476Y27496610D01*
X33690476Y27496610D02*
X33738095Y27448991D01*
X33738095Y27448991D02*
X33785714Y27353753D01*
X33785714Y27353753D02*
X33785714Y27115658D01*
X33785714Y27115658D02*
X33738095Y27020420D01*
X33738095Y27020420D02*
X33690476Y26972800D01*
X33690476Y26972800D02*
X33595238Y26925181D01*
X33595238Y26925181D02*
X33309524Y26925181D01*
X33309524Y26925181D02*
X33214286Y26972800D01*
X33214286Y26972800D02*
X33166667Y27020420D01*
X36238095Y29045181D02*
X36238095Y30045181D01*
X36809523Y29045181D02*
X36380952Y29616610D01*
X36809523Y30045181D02*
X36238095Y29473753D01*
X16574819Y10571906D02*
X15574819Y10571906D01*
X15574819Y10571906D02*
X15574819Y10810001D01*
X15574819Y10810001D02*
X15622438Y10952858D01*
X15622438Y10952858D02*
X15717676Y11048096D01*
X15717676Y11048096D02*
X15812914Y11095715D01*
X15812914Y11095715D02*
X16003390Y11143334D01*
X16003390Y11143334D02*
X16146247Y11143334D01*
X16146247Y11143334D02*
X16336723Y11095715D01*
X16336723Y11095715D02*
X16431961Y11048096D01*
X16431961Y11048096D02*
X16527200Y10952858D01*
X16527200Y10952858D02*
X16574819Y10810001D01*
X16574819Y10810001D02*
X16574819Y10571906D01*
X16574819Y12095715D02*
X16574819Y11524287D01*
X16574819Y11810001D02*
X15574819Y11810001D01*
X15574819Y11810001D02*
X15717676Y11714763D01*
X15717676Y11714763D02*
X15812914Y11619525D01*
X15812914Y11619525D02*
X15860533Y11524287D01*
X15238095Y16665181D02*
X15238095Y17665181D01*
X15809523Y16665181D02*
X15380952Y17236610D01*
X15809523Y17665181D02*
X15238095Y17093753D01*
X47359580Y34833334D02*
X47407200Y34785715D01*
X47407200Y34785715D02*
X47454819Y34642858D01*
X47454819Y34642858D02*
X47454819Y34547620D01*
X47454819Y34547620D02*
X47407200Y34404763D01*
X47407200Y34404763D02*
X47311961Y34309525D01*
X47311961Y34309525D02*
X47216723Y34261906D01*
X47216723Y34261906D02*
X47026247Y34214287D01*
X47026247Y34214287D02*
X46883390Y34214287D01*
X46883390Y34214287D02*
X46692914Y34261906D01*
X46692914Y34261906D02*
X46597676Y34309525D01*
X46597676Y34309525D02*
X46502438Y34404763D01*
X46502438Y34404763D02*
X46454819Y34547620D01*
X46454819Y34547620D02*
X46454819Y34642858D01*
X46454819Y34642858D02*
X46502438Y34785715D01*
X46502438Y34785715D02*
X46550057Y34833334D01*
X46454819Y35166668D02*
X46454819Y35833334D01*
X46454819Y35833334D02*
X47454819Y35404763D01*
X12680057Y9944762D02*
X12632438Y9849524D01*
X12632438Y9849524D02*
X12537200Y9754286D01*
X12537200Y9754286D02*
X12394342Y9611429D01*
X12394342Y9611429D02*
X12346723Y9516191D01*
X12346723Y9516191D02*
X12346723Y9420953D01*
X12584819Y9468572D02*
X12537200Y9373334D01*
X12537200Y9373334D02*
X12441961Y9278096D01*
X12441961Y9278096D02*
X12251485Y9230477D01*
X12251485Y9230477D02*
X11918152Y9230477D01*
X11918152Y9230477D02*
X11727676Y9278096D01*
X11727676Y9278096D02*
X11632438Y9373334D01*
X11632438Y9373334D02*
X11584819Y9468572D01*
X11584819Y9468572D02*
X11584819Y9659048D01*
X11584819Y9659048D02*
X11632438Y9754286D01*
X11632438Y9754286D02*
X11727676Y9849524D01*
X11727676Y9849524D02*
X11918152Y9897143D01*
X11918152Y9897143D02*
X12251485Y9897143D01*
X12251485Y9897143D02*
X12441961Y9849524D01*
X12441961Y9849524D02*
X12537200Y9754286D01*
X12537200Y9754286D02*
X12584819Y9659048D01*
X12584819Y9659048D02*
X12584819Y9468572D01*
X12584819Y10849524D02*
X12584819Y10278096D01*
X12584819Y10563810D02*
X11584819Y10563810D01*
X11584819Y10563810D02*
X11727676Y10468572D01*
X11727676Y10468572D02*
X11822914Y10373334D01*
X11822914Y10373334D02*
X11870533Y10278096D01*
X21643333Y32545181D02*
X21310000Y33021372D01*
X21071905Y32545181D02*
X21071905Y33545181D01*
X21071905Y33545181D02*
X21452857Y33545181D01*
X21452857Y33545181D02*
X21548095Y33497562D01*
X21548095Y33497562D02*
X21595714Y33449943D01*
X21595714Y33449943D02*
X21643333Y33354705D01*
X21643333Y33354705D02*
X21643333Y33211848D01*
X21643333Y33211848D02*
X21595714Y33116610D01*
X21595714Y33116610D02*
X21548095Y33068991D01*
X21548095Y33068991D02*
X21452857Y33021372D01*
X21452857Y33021372D02*
X21071905Y33021372D01*
X22214762Y33116610D02*
X22119524Y33164229D01*
X22119524Y33164229D02*
X22071905Y33211848D01*
X22071905Y33211848D02*
X22024286Y33307086D01*
X22024286Y33307086D02*
X22024286Y33354705D01*
X22024286Y33354705D02*
X22071905Y33449943D01*
X22071905Y33449943D02*
X22119524Y33497562D01*
X22119524Y33497562D02*
X22214762Y33545181D01*
X22214762Y33545181D02*
X22405238Y33545181D01*
X22405238Y33545181D02*
X22500476Y33497562D01*
X22500476Y33497562D02*
X22548095Y33449943D01*
X22548095Y33449943D02*
X22595714Y33354705D01*
X22595714Y33354705D02*
X22595714Y33307086D01*
X22595714Y33307086D02*
X22548095Y33211848D01*
X22548095Y33211848D02*
X22500476Y33164229D01*
X22500476Y33164229D02*
X22405238Y33116610D01*
X22405238Y33116610D02*
X22214762Y33116610D01*
X22214762Y33116610D02*
X22119524Y33068991D01*
X22119524Y33068991D02*
X22071905Y33021372D01*
X22071905Y33021372D02*
X22024286Y32926134D01*
X22024286Y32926134D02*
X22024286Y32735658D01*
X22024286Y32735658D02*
X22071905Y32640420D01*
X22071905Y32640420D02*
X22119524Y32592800D01*
X22119524Y32592800D02*
X22214762Y32545181D01*
X22214762Y32545181D02*
X22405238Y32545181D01*
X22405238Y32545181D02*
X22500476Y32592800D01*
X22500476Y32592800D02*
X22548095Y32640420D01*
X22548095Y32640420D02*
X22595714Y32735658D01*
X22595714Y32735658D02*
X22595714Y32926134D01*
X22595714Y32926134D02*
X22548095Y33021372D01*
X22548095Y33021372D02*
X22500476Y33068991D01*
X22500476Y33068991D02*
X22405238Y33116610D01*
X34954819Y20547143D02*
X34478628Y20213810D01*
X34954819Y19975715D02*
X33954819Y19975715D01*
X33954819Y19975715D02*
X33954819Y20356667D01*
X33954819Y20356667D02*
X34002438Y20451905D01*
X34002438Y20451905D02*
X34050057Y20499524D01*
X34050057Y20499524D02*
X34145295Y20547143D01*
X34145295Y20547143D02*
X34288152Y20547143D01*
X34288152Y20547143D02*
X34383390Y20499524D01*
X34383390Y20499524D02*
X34431009Y20451905D01*
X34431009Y20451905D02*
X34478628Y20356667D01*
X34478628Y20356667D02*
X34478628Y19975715D01*
X34954819Y21499524D02*
X34954819Y20928096D01*
X34954819Y21213810D02*
X33954819Y21213810D01*
X33954819Y21213810D02*
X34097676Y21118572D01*
X34097676Y21118572D02*
X34192914Y21023334D01*
X34192914Y21023334D02*
X34240533Y20928096D01*
X33954819Y22404286D02*
X33954819Y21928096D01*
X33954819Y21928096D02*
X34431009Y21880477D01*
X34431009Y21880477D02*
X34383390Y21928096D01*
X34383390Y21928096D02*
X34335771Y22023334D01*
X34335771Y22023334D02*
X34335771Y22261429D01*
X34335771Y22261429D02*
X34383390Y22356667D01*
X34383390Y22356667D02*
X34431009Y22404286D01*
X34431009Y22404286D02*
X34526247Y22451905D01*
X34526247Y22451905D02*
X34764342Y22451905D01*
X34764342Y22451905D02*
X34859580Y22404286D01*
X34859580Y22404286D02*
X34907200Y22356667D01*
X34907200Y22356667D02*
X34954819Y22261429D01*
X34954819Y22261429D02*
X34954819Y22023334D01*
X34954819Y22023334D02*
X34907200Y21928096D01*
X34907200Y21928096D02*
X34859580Y21880477D01*
X28859580Y32833334D02*
X28907200Y32785715D01*
X28907200Y32785715D02*
X28954819Y32642858D01*
X28954819Y32642858D02*
X28954819Y32547620D01*
X28954819Y32547620D02*
X28907200Y32404763D01*
X28907200Y32404763D02*
X28811961Y32309525D01*
X28811961Y32309525D02*
X28716723Y32261906D01*
X28716723Y32261906D02*
X28526247Y32214287D01*
X28526247Y32214287D02*
X28383390Y32214287D01*
X28383390Y32214287D02*
X28192914Y32261906D01*
X28192914Y32261906D02*
X28097676Y32309525D01*
X28097676Y32309525D02*
X28002438Y32404763D01*
X28002438Y32404763D02*
X27954819Y32547620D01*
X27954819Y32547620D02*
X27954819Y32642858D01*
X27954819Y32642858D02*
X28002438Y32785715D01*
X28002438Y32785715D02*
X28050057Y32833334D01*
X28288152Y33690477D02*
X28954819Y33690477D01*
X27907200Y33452382D02*
X28621485Y33214287D01*
X28621485Y33214287D02*
X28621485Y33833334D01*
X22261905Y19425181D02*
X22261905Y20425181D01*
X22261905Y20425181D02*
X22500000Y20425181D01*
X22500000Y20425181D02*
X22642857Y20377562D01*
X22642857Y20377562D02*
X22738095Y20282324D01*
X22738095Y20282324D02*
X22785714Y20187086D01*
X22785714Y20187086D02*
X22833333Y19996610D01*
X22833333Y19996610D02*
X22833333Y19853753D01*
X22833333Y19853753D02*
X22785714Y19663277D01*
X22785714Y19663277D02*
X22738095Y19568039D01*
X22738095Y19568039D02*
X22642857Y19472800D01*
X22642857Y19472800D02*
X22500000Y19425181D01*
X22500000Y19425181D02*
X22261905Y19425181D01*
X23214286Y20329943D02*
X23261905Y20377562D01*
X23261905Y20377562D02*
X23357143Y20425181D01*
X23357143Y20425181D02*
X23595238Y20425181D01*
X23595238Y20425181D02*
X23690476Y20377562D01*
X23690476Y20377562D02*
X23738095Y20329943D01*
X23738095Y20329943D02*
X23785714Y20234705D01*
X23785714Y20234705D02*
X23785714Y20139467D01*
X23785714Y20139467D02*
X23738095Y19996610D01*
X23738095Y19996610D02*
X23166667Y19425181D01*
X23166667Y19425181D02*
X23785714Y19425181D01*
X26738095Y21545181D02*
X26738095Y22545181D01*
X27309523Y21545181D02*
X26880952Y22116610D01*
X27309523Y22545181D02*
X26738095Y21973753D01*
X32454819Y20547143D02*
X31978628Y20213810D01*
X32454819Y19975715D02*
X31454819Y19975715D01*
X31454819Y19975715D02*
X31454819Y20356667D01*
X31454819Y20356667D02*
X31502438Y20451905D01*
X31502438Y20451905D02*
X31550057Y20499524D01*
X31550057Y20499524D02*
X31645295Y20547143D01*
X31645295Y20547143D02*
X31788152Y20547143D01*
X31788152Y20547143D02*
X31883390Y20499524D01*
X31883390Y20499524D02*
X31931009Y20451905D01*
X31931009Y20451905D02*
X31978628Y20356667D01*
X31978628Y20356667D02*
X31978628Y19975715D01*
X32454819Y21499524D02*
X32454819Y20928096D01*
X32454819Y21213810D02*
X31454819Y21213810D01*
X31454819Y21213810D02*
X31597676Y21118572D01*
X31597676Y21118572D02*
X31692914Y21023334D01*
X31692914Y21023334D02*
X31740533Y20928096D01*
X31454819Y22118572D02*
X31454819Y22213810D01*
X31454819Y22213810D02*
X31502438Y22309048D01*
X31502438Y22309048D02*
X31550057Y22356667D01*
X31550057Y22356667D02*
X31645295Y22404286D01*
X31645295Y22404286D02*
X31835771Y22451905D01*
X31835771Y22451905D02*
X32073866Y22451905D01*
X32073866Y22451905D02*
X32264342Y22404286D01*
X32264342Y22404286D02*
X32359580Y22356667D01*
X32359580Y22356667D02*
X32407200Y22309048D01*
X32407200Y22309048D02*
X32454819Y22213810D01*
X32454819Y22213810D02*
X32454819Y22118572D01*
X32454819Y22118572D02*
X32407200Y22023334D01*
X32407200Y22023334D02*
X32359580Y21975715D01*
X32359580Y21975715D02*
X32264342Y21928096D01*
X32264342Y21928096D02*
X32073866Y21880477D01*
X32073866Y21880477D02*
X31835771Y21880477D01*
X31835771Y21880477D02*
X31645295Y21928096D01*
X31645295Y21928096D02*
X31550057Y21975715D01*
X31550057Y21975715D02*
X31502438Y22023334D01*
X31502438Y22023334D02*
X31454819Y22118572D01*
X46359580Y22833334D02*
X46407200Y22785715D01*
X46407200Y22785715D02*
X46454819Y22642858D01*
X46454819Y22642858D02*
X46454819Y22547620D01*
X46454819Y22547620D02*
X46407200Y22404763D01*
X46407200Y22404763D02*
X46311961Y22309525D01*
X46311961Y22309525D02*
X46216723Y22261906D01*
X46216723Y22261906D02*
X46026247Y22214287D01*
X46026247Y22214287D02*
X45883390Y22214287D01*
X45883390Y22214287D02*
X45692914Y22261906D01*
X45692914Y22261906D02*
X45597676Y22309525D01*
X45597676Y22309525D02*
X45502438Y22404763D01*
X45502438Y22404763D02*
X45454819Y22547620D01*
X45454819Y22547620D02*
X45454819Y22642858D01*
X45454819Y22642858D02*
X45502438Y22785715D01*
X45502438Y22785715D02*
X45550057Y22833334D01*
X45883390Y23404763D02*
X45835771Y23309525D01*
X45835771Y23309525D02*
X45788152Y23261906D01*
X45788152Y23261906D02*
X45692914Y23214287D01*
X45692914Y23214287D02*
X45645295Y23214287D01*
X45645295Y23214287D02*
X45550057Y23261906D01*
X45550057Y23261906D02*
X45502438Y23309525D01*
X45502438Y23309525D02*
X45454819Y23404763D01*
X45454819Y23404763D02*
X45454819Y23595239D01*
X45454819Y23595239D02*
X45502438Y23690477D01*
X45502438Y23690477D02*
X45550057Y23738096D01*
X45550057Y23738096D02*
X45645295Y23785715D01*
X45645295Y23785715D02*
X45692914Y23785715D01*
X45692914Y23785715D02*
X45788152Y23738096D01*
X45788152Y23738096D02*
X45835771Y23690477D01*
X45835771Y23690477D02*
X45883390Y23595239D01*
X45883390Y23595239D02*
X45883390Y23404763D01*
X45883390Y23404763D02*
X45931009Y23309525D01*
X45931009Y23309525D02*
X45978628Y23261906D01*
X45978628Y23261906D02*
X46073866Y23214287D01*
X46073866Y23214287D02*
X46264342Y23214287D01*
X46264342Y23214287D02*
X46359580Y23261906D01*
X46359580Y23261906D02*
X46407200Y23309525D01*
X46407200Y23309525D02*
X46454819Y23404763D01*
X46454819Y23404763D02*
X46454819Y23595239D01*
X46454819Y23595239D02*
X46407200Y23690477D01*
X46407200Y23690477D02*
X46359580Y23738096D01*
X46359580Y23738096D02*
X46264342Y23785715D01*
X46264342Y23785715D02*
X46073866Y23785715D01*
X46073866Y23785715D02*
X45978628Y23738096D01*
X45978628Y23738096D02*
X45931009Y23690477D01*
X45931009Y23690477D02*
X45883390Y23595239D01*
X9393333Y17545181D02*
X9060000Y18021372D01*
X8821905Y17545181D02*
X8821905Y18545181D01*
X8821905Y18545181D02*
X9202857Y18545181D01*
X9202857Y18545181D02*
X9298095Y18497562D01*
X9298095Y18497562D02*
X9345714Y18449943D01*
X9345714Y18449943D02*
X9393333Y18354705D01*
X9393333Y18354705D02*
X9393333Y18211848D01*
X9393333Y18211848D02*
X9345714Y18116610D01*
X9345714Y18116610D02*
X9298095Y18068991D01*
X9298095Y18068991D02*
X9202857Y18021372D01*
X9202857Y18021372D02*
X8821905Y18021372D01*
X10250476Y18211848D02*
X10250476Y17545181D01*
X10012381Y18592800D02*
X9774286Y17878515D01*
X9774286Y17878515D02*
X10393333Y17878515D01*
X40954819Y18547143D02*
X40478628Y18213810D01*
X40954819Y17975715D02*
X39954819Y17975715D01*
X39954819Y17975715D02*
X39954819Y18356667D01*
X39954819Y18356667D02*
X40002438Y18451905D01*
X40002438Y18451905D02*
X40050057Y18499524D01*
X40050057Y18499524D02*
X40145295Y18547143D01*
X40145295Y18547143D02*
X40288152Y18547143D01*
X40288152Y18547143D02*
X40383390Y18499524D01*
X40383390Y18499524D02*
X40431009Y18451905D01*
X40431009Y18451905D02*
X40478628Y18356667D01*
X40478628Y18356667D02*
X40478628Y17975715D01*
X40954819Y19499524D02*
X40954819Y18928096D01*
X40954819Y19213810D02*
X39954819Y19213810D01*
X39954819Y19213810D02*
X40097676Y19118572D01*
X40097676Y19118572D02*
X40192914Y19023334D01*
X40192914Y19023334D02*
X40240533Y18928096D01*
X39954819Y19832858D02*
X39954819Y20499524D01*
X39954819Y20499524D02*
X40954819Y20070953D01*
X9666667Y44045181D02*
X10000000Y43045181D01*
X10000000Y43045181D02*
X10333333Y44045181D01*
X11238095Y43140420D02*
X11190476Y43092800D01*
X11190476Y43092800D02*
X11047619Y43045181D01*
X11047619Y43045181D02*
X10952381Y43045181D01*
X10952381Y43045181D02*
X10809524Y43092800D01*
X10809524Y43092800D02*
X10714286Y43188039D01*
X10714286Y43188039D02*
X10666667Y43283277D01*
X10666667Y43283277D02*
X10619048Y43473753D01*
X10619048Y43473753D02*
X10619048Y43616610D01*
X10619048Y43616610D02*
X10666667Y43807086D01*
X10666667Y43807086D02*
X10714286Y43902324D01*
X10714286Y43902324D02*
X10809524Y43997562D01*
X10809524Y43997562D02*
X10952381Y44045181D01*
X10952381Y44045181D02*
X11047619Y44045181D01*
X11047619Y44045181D02*
X11190476Y43997562D01*
X11190476Y43997562D02*
X11238095Y43949943D01*
X12238095Y43140420D02*
X12190476Y43092800D01*
X12190476Y43092800D02*
X12047619Y43045181D01*
X12047619Y43045181D02*
X11952381Y43045181D01*
X11952381Y43045181D02*
X11809524Y43092800D01*
X11809524Y43092800D02*
X11714286Y43188039D01*
X11714286Y43188039D02*
X11666667Y43283277D01*
X11666667Y43283277D02*
X11619048Y43473753D01*
X11619048Y43473753D02*
X11619048Y43616610D01*
X11619048Y43616610D02*
X11666667Y43807086D01*
X11666667Y43807086D02*
X11714286Y43902324D01*
X11714286Y43902324D02*
X11809524Y43997562D01*
X11809524Y43997562D02*
X11952381Y44045181D01*
X11952381Y44045181D02*
X12047619Y44045181D01*
X12047619Y44045181D02*
X12190476Y43997562D01*
X12190476Y43997562D02*
X12238095Y43949943D01*
X39333333Y32140420D02*
X39285714Y32092800D01*
X39285714Y32092800D02*
X39142857Y32045181D01*
X39142857Y32045181D02*
X39047619Y32045181D01*
X39047619Y32045181D02*
X38904762Y32092800D01*
X38904762Y32092800D02*
X38809524Y32188039D01*
X38809524Y32188039D02*
X38761905Y32283277D01*
X38761905Y32283277D02*
X38714286Y32473753D01*
X38714286Y32473753D02*
X38714286Y32616610D01*
X38714286Y32616610D02*
X38761905Y32807086D01*
X38761905Y32807086D02*
X38809524Y32902324D01*
X38809524Y32902324D02*
X38904762Y32997562D01*
X38904762Y32997562D02*
X39047619Y33045181D01*
X39047619Y33045181D02*
X39142857Y33045181D01*
X39142857Y33045181D02*
X39285714Y32997562D01*
X39285714Y32997562D02*
X39333333Y32949943D01*
X40190476Y33045181D02*
X40000000Y33045181D01*
X40000000Y33045181D02*
X39904762Y32997562D01*
X39904762Y32997562D02*
X39857143Y32949943D01*
X39857143Y32949943D02*
X39761905Y32807086D01*
X39761905Y32807086D02*
X39714286Y32616610D01*
X39714286Y32616610D02*
X39714286Y32235658D01*
X39714286Y32235658D02*
X39761905Y32140420D01*
X39761905Y32140420D02*
X39809524Y32092800D01*
X39809524Y32092800D02*
X39904762Y32045181D01*
X39904762Y32045181D02*
X40095238Y32045181D01*
X40095238Y32045181D02*
X40190476Y32092800D01*
X40190476Y32092800D02*
X40238095Y32140420D01*
X40238095Y32140420D02*
X40285714Y32235658D01*
X40285714Y32235658D02*
X40285714Y32473753D01*
X40285714Y32473753D02*
X40238095Y32568991D01*
X40238095Y32568991D02*
X40190476Y32616610D01*
X40190476Y32616610D02*
X40095238Y32664229D01*
X40095238Y32664229D02*
X39904762Y32664229D01*
X39904762Y32664229D02*
X39809524Y32616610D01*
X39809524Y32616610D02*
X39761905Y32568991D01*
X39761905Y32568991D02*
X39714286Y32473753D01*
X14333333Y4545181D02*
X14000000Y5021372D01*
X13761905Y4545181D02*
X13761905Y5545181D01*
X13761905Y5545181D02*
X14142857Y5545181D01*
X14142857Y5545181D02*
X14238095Y5497562D01*
X14238095Y5497562D02*
X14285714Y5449943D01*
X14285714Y5449943D02*
X14333333Y5354705D01*
X14333333Y5354705D02*
X14333333Y5211848D01*
X14333333Y5211848D02*
X14285714Y5116610D01*
X14285714Y5116610D02*
X14238095Y5068991D01*
X14238095Y5068991D02*
X14142857Y5021372D01*
X14142857Y5021372D02*
X13761905Y5021372D01*
X14714286Y5449943D02*
X14761905Y5497562D01*
X14761905Y5497562D02*
X14857143Y5545181D01*
X14857143Y5545181D02*
X15095238Y5545181D01*
X15095238Y5545181D02*
X15190476Y5497562D01*
X15190476Y5497562D02*
X15238095Y5449943D01*
X15238095Y5449943D02*
X15285714Y5354705D01*
X15285714Y5354705D02*
X15285714Y5259467D01*
X15285714Y5259467D02*
X15238095Y5116610D01*
X15238095Y5116610D02*
X14666667Y4545181D01*
X14666667Y4545181D02*
X15285714Y4545181D01*
X39547142Y35045181D02*
X39213809Y35521372D01*
X38975714Y35045181D02*
X38975714Y36045181D01*
X38975714Y36045181D02*
X39356666Y36045181D01*
X39356666Y36045181D02*
X39451904Y35997562D01*
X39451904Y35997562D02*
X39499523Y35949943D01*
X39499523Y35949943D02*
X39547142Y35854705D01*
X39547142Y35854705D02*
X39547142Y35711848D01*
X39547142Y35711848D02*
X39499523Y35616610D01*
X39499523Y35616610D02*
X39451904Y35568991D01*
X39451904Y35568991D02*
X39356666Y35521372D01*
X39356666Y35521372D02*
X38975714Y35521372D01*
X40499523Y35045181D02*
X39928095Y35045181D01*
X40213809Y35045181D02*
X40213809Y36045181D01*
X40213809Y36045181D02*
X40118571Y35902324D01*
X40118571Y35902324D02*
X40023333Y35807086D01*
X40023333Y35807086D02*
X39928095Y35759467D01*
X41356666Y35711848D02*
X41356666Y35045181D01*
X41118571Y36092800D02*
X40880476Y35378515D01*
X40880476Y35378515D02*
X41499523Y35378515D01*
X14833333Y25640420D02*
X14785714Y25592800D01*
X14785714Y25592800D02*
X14642857Y25545181D01*
X14642857Y25545181D02*
X14547619Y25545181D01*
X14547619Y25545181D02*
X14404762Y25592800D01*
X14404762Y25592800D02*
X14309524Y25688039D01*
X14309524Y25688039D02*
X14261905Y25783277D01*
X14261905Y25783277D02*
X14214286Y25973753D01*
X14214286Y25973753D02*
X14214286Y26116610D01*
X14214286Y26116610D02*
X14261905Y26307086D01*
X14261905Y26307086D02*
X14309524Y26402324D01*
X14309524Y26402324D02*
X14404762Y26497562D01*
X14404762Y26497562D02*
X14547619Y26545181D01*
X14547619Y26545181D02*
X14642857Y26545181D01*
X14642857Y26545181D02*
X14785714Y26497562D01*
X14785714Y26497562D02*
X14833333Y26449943D01*
X15166667Y26545181D02*
X15785714Y26545181D01*
X15785714Y26545181D02*
X15452381Y26164229D01*
X15452381Y26164229D02*
X15595238Y26164229D01*
X15595238Y26164229D02*
X15690476Y26116610D01*
X15690476Y26116610D02*
X15738095Y26068991D01*
X15738095Y26068991D02*
X15785714Y25973753D01*
X15785714Y25973753D02*
X15785714Y25735658D01*
X15785714Y25735658D02*
X15738095Y25640420D01*
X15738095Y25640420D02*
X15690476Y25592800D01*
X15690476Y25592800D02*
X15595238Y25545181D01*
X15595238Y25545181D02*
X15309524Y25545181D01*
X15309524Y25545181D02*
X15214286Y25592800D01*
X15214286Y25592800D02*
X15166667Y25640420D01*
X9359580Y23333334D02*
X9407200Y23285715D01*
X9407200Y23285715D02*
X9454819Y23142858D01*
X9454819Y23142858D02*
X9454819Y23047620D01*
X9454819Y23047620D02*
X9407200Y22904763D01*
X9407200Y22904763D02*
X9311961Y22809525D01*
X9311961Y22809525D02*
X9216723Y22761906D01*
X9216723Y22761906D02*
X9026247Y22714287D01*
X9026247Y22714287D02*
X8883390Y22714287D01*
X8883390Y22714287D02*
X8692914Y22761906D01*
X8692914Y22761906D02*
X8597676Y22809525D01*
X8597676Y22809525D02*
X8502438Y22904763D01*
X8502438Y22904763D02*
X8454819Y23047620D01*
X8454819Y23047620D02*
X8454819Y23142858D01*
X8454819Y23142858D02*
X8502438Y23285715D01*
X8502438Y23285715D02*
X8550057Y23333334D01*
X8550057Y23714287D02*
X8502438Y23761906D01*
X8502438Y23761906D02*
X8454819Y23857144D01*
X8454819Y23857144D02*
X8454819Y24095239D01*
X8454819Y24095239D02*
X8502438Y24190477D01*
X8502438Y24190477D02*
X8550057Y24238096D01*
X8550057Y24238096D02*
X8645295Y24285715D01*
X8645295Y24285715D02*
X8740533Y24285715D01*
X8740533Y24285715D02*
X8883390Y24238096D01*
X8883390Y24238096D02*
X9454819Y23666668D01*
X9454819Y23666668D02*
X9454819Y24285715D01*
X6954819Y40070953D02*
X6478628Y39737620D01*
X6954819Y39499525D02*
X5954819Y39499525D01*
X5954819Y39499525D02*
X5954819Y39880477D01*
X5954819Y39880477D02*
X6002438Y39975715D01*
X6002438Y39975715D02*
X6050057Y40023334D01*
X6050057Y40023334D02*
X6145295Y40070953D01*
X6145295Y40070953D02*
X6288152Y40070953D01*
X6288152Y40070953D02*
X6383390Y40023334D01*
X6383390Y40023334D02*
X6431009Y39975715D01*
X6431009Y39975715D02*
X6478628Y39880477D01*
X6478628Y39880477D02*
X6478628Y39499525D01*
X6954819Y41023334D02*
X6954819Y40451906D01*
X6954819Y40737620D02*
X5954819Y40737620D01*
X5954819Y40737620D02*
X6097676Y40642382D01*
X6097676Y40642382D02*
X6192914Y40547144D01*
X6192914Y40547144D02*
X6240533Y40451906D01*
X5954819Y41642382D02*
X5954819Y41737620D01*
X5954819Y41737620D02*
X6002438Y41832858D01*
X6002438Y41832858D02*
X6050057Y41880477D01*
X6050057Y41880477D02*
X6145295Y41928096D01*
X6145295Y41928096D02*
X6335771Y41975715D01*
X6335771Y41975715D02*
X6573866Y41975715D01*
X6573866Y41975715D02*
X6764342Y41928096D01*
X6764342Y41928096D02*
X6859580Y41880477D01*
X6859580Y41880477D02*
X6907200Y41832858D01*
X6907200Y41832858D02*
X6954819Y41737620D01*
X6954819Y41737620D02*
X6954819Y41642382D01*
X6954819Y41642382D02*
X6907200Y41547144D01*
X6907200Y41547144D02*
X6859580Y41499525D01*
X6859580Y41499525D02*
X6764342Y41451906D01*
X6764342Y41451906D02*
X6573866Y41404287D01*
X6573866Y41404287D02*
X6335771Y41404287D01*
X6335771Y41404287D02*
X6145295Y41451906D01*
X6145295Y41451906D02*
X6050057Y41499525D01*
X6050057Y41499525D02*
X6002438Y41547144D01*
X6002438Y41547144D02*
X5954819Y41642382D01*
X5954819Y42594763D02*
X5954819Y42690001D01*
X5954819Y42690001D02*
X6002438Y42785239D01*
X6002438Y42785239D02*
X6050057Y42832858D01*
X6050057Y42832858D02*
X6145295Y42880477D01*
X6145295Y42880477D02*
X6335771Y42928096D01*
X6335771Y42928096D02*
X6573866Y42928096D01*
X6573866Y42928096D02*
X6764342Y42880477D01*
X6764342Y42880477D02*
X6859580Y42832858D01*
X6859580Y42832858D02*
X6907200Y42785239D01*
X6907200Y42785239D02*
X6954819Y42690001D01*
X6954819Y42690001D02*
X6954819Y42594763D01*
X6954819Y42594763D02*
X6907200Y42499525D01*
X6907200Y42499525D02*
X6859580Y42451906D01*
X6859580Y42451906D02*
X6764342Y42404287D01*
X6764342Y42404287D02*
X6573866Y42356668D01*
X6573866Y42356668D02*
X6335771Y42356668D01*
X6335771Y42356668D02*
X6145295Y42404287D01*
X6145295Y42404287D02*
X6050057Y42451906D01*
X6050057Y42451906D02*
X6002438Y42499525D01*
X6002438Y42499525D02*
X5954819Y42594763D01*
X30357143Y10830896D02*
X30833333Y10830896D01*
X30261905Y10545181D02*
X30595238Y11545181D01*
X30595238Y11545181D02*
X30928571Y10545181D01*
X31785714Y10545181D02*
X31214286Y10545181D01*
X31500000Y10545181D02*
X31500000Y11545181D01*
X31500000Y11545181D02*
X31404762Y11402324D01*
X31404762Y11402324D02*
X31309524Y11307086D01*
X31309524Y11307086D02*
X31214286Y11259467D01*
X32404762Y11545181D02*
X32500000Y11545181D01*
X32500000Y11545181D02*
X32595238Y11497562D01*
X32595238Y11497562D02*
X32642857Y11449943D01*
X32642857Y11449943D02*
X32690476Y11354705D01*
X32690476Y11354705D02*
X32738095Y11164229D01*
X32738095Y11164229D02*
X32738095Y10926134D01*
X32738095Y10926134D02*
X32690476Y10735658D01*
X32690476Y10735658D02*
X32642857Y10640420D01*
X32642857Y10640420D02*
X32595238Y10592800D01*
X32595238Y10592800D02*
X32500000Y10545181D01*
X32500000Y10545181D02*
X32404762Y10545181D01*
X32404762Y10545181D02*
X32309524Y10592800D01*
X32309524Y10592800D02*
X32261905Y10640420D01*
X32261905Y10640420D02*
X32214286Y10735658D01*
X32214286Y10735658D02*
X32166667Y10926134D01*
X32166667Y10926134D02*
X32166667Y11164229D01*
X32166667Y11164229D02*
X32214286Y11354705D01*
X32214286Y11354705D02*
X32261905Y11449943D01*
X32261905Y11449943D02*
X32309524Y11497562D01*
X32309524Y11497562D02*
X32404762Y11545181D01*
X33357143Y11545181D02*
X33452381Y11545181D01*
X33452381Y11545181D02*
X33547619Y11497562D01*
X33547619Y11497562D02*
X33595238Y11449943D01*
X33595238Y11449943D02*
X33642857Y11354705D01*
X33642857Y11354705D02*
X33690476Y11164229D01*
X33690476Y11164229D02*
X33690476Y10926134D01*
X33690476Y10926134D02*
X33642857Y10735658D01*
X33642857Y10735658D02*
X33595238Y10640420D01*
X33595238Y10640420D02*
X33547619Y10592800D01*
X33547619Y10592800D02*
X33452381Y10545181D01*
X33452381Y10545181D02*
X33357143Y10545181D01*
X33357143Y10545181D02*
X33261905Y10592800D01*
X33261905Y10592800D02*
X33214286Y10640420D01*
X33214286Y10640420D02*
X33166667Y10735658D01*
X33166667Y10735658D02*
X33119048Y10926134D01*
X33119048Y10926134D02*
X33119048Y11164229D01*
X33119048Y11164229D02*
X33166667Y11354705D01*
X33166667Y11354705D02*
X33214286Y11449943D01*
X33214286Y11449943D02*
X33261905Y11497562D01*
X33261905Y11497562D02*
X33357143Y11545181D01*
X34119048Y10545181D02*
X34119048Y11545181D01*
X34690476Y10545181D02*
X34261905Y11116610D01*
X34690476Y11545181D02*
X34119048Y10973753D01*
X35119048Y10926134D02*
X35880953Y10926134D01*
X36214286Y11545181D02*
X36547619Y10545181D01*
X36547619Y10545181D02*
X36880952Y11545181D01*
X37404762Y11545181D02*
X37595238Y11545181D01*
X37595238Y11545181D02*
X37690476Y11497562D01*
X37690476Y11497562D02*
X37785714Y11402324D01*
X37785714Y11402324D02*
X37833333Y11211848D01*
X37833333Y11211848D02*
X37833333Y10878515D01*
X37833333Y10878515D02*
X37785714Y10688039D01*
X37785714Y10688039D02*
X37690476Y10592800D01*
X37690476Y10592800D02*
X37595238Y10545181D01*
X37595238Y10545181D02*
X37404762Y10545181D01*
X37404762Y10545181D02*
X37309524Y10592800D01*
X37309524Y10592800D02*
X37214286Y10688039D01*
X37214286Y10688039D02*
X37166667Y10878515D01*
X37166667Y10878515D02*
X37166667Y11211848D01*
X37166667Y11211848D02*
X37214286Y11402324D01*
X37214286Y11402324D02*
X37309524Y11497562D01*
X37309524Y11497562D02*
X37404762Y11545181D01*
X38738095Y10545181D02*
X38261905Y10545181D01*
X38261905Y10545181D02*
X38261905Y11545181D01*
X16143333Y22545181D02*
X15810000Y23021372D01*
X15571905Y22545181D02*
X15571905Y23545181D01*
X15571905Y23545181D02*
X15952857Y23545181D01*
X15952857Y23545181D02*
X16048095Y23497562D01*
X16048095Y23497562D02*
X16095714Y23449943D01*
X16095714Y23449943D02*
X16143333Y23354705D01*
X16143333Y23354705D02*
X16143333Y23211848D01*
X16143333Y23211848D02*
X16095714Y23116610D01*
X16095714Y23116610D02*
X16048095Y23068991D01*
X16048095Y23068991D02*
X15952857Y23021372D01*
X15952857Y23021372D02*
X15571905Y23021372D01*
X17048095Y23545181D02*
X16571905Y23545181D01*
X16571905Y23545181D02*
X16524286Y23068991D01*
X16524286Y23068991D02*
X16571905Y23116610D01*
X16571905Y23116610D02*
X16667143Y23164229D01*
X16667143Y23164229D02*
X16905238Y23164229D01*
X16905238Y23164229D02*
X17000476Y23116610D01*
X17000476Y23116610D02*
X17048095Y23068991D01*
X17048095Y23068991D02*
X17095714Y22973753D01*
X17095714Y22973753D02*
X17095714Y22735658D01*
X17095714Y22735658D02*
X17048095Y22640420D01*
X17048095Y22640420D02*
X17000476Y22592800D01*
X17000476Y22592800D02*
X16905238Y22545181D01*
X16905238Y22545181D02*
X16667143Y22545181D01*
X16667143Y22545181D02*
X16571905Y22592800D01*
X16571905Y22592800D02*
X16524286Y22640420D01*
X34680057Y32864762D02*
X34632438Y32769524D01*
X34632438Y32769524D02*
X34537200Y32674286D01*
X34537200Y32674286D02*
X34394342Y32531429D01*
X34394342Y32531429D02*
X34346723Y32436191D01*
X34346723Y32436191D02*
X34346723Y32340953D01*
X34584819Y32388572D02*
X34537200Y32293334D01*
X34537200Y32293334D02*
X34441961Y32198096D01*
X34441961Y32198096D02*
X34251485Y32150477D01*
X34251485Y32150477D02*
X33918152Y32150477D01*
X33918152Y32150477D02*
X33727676Y32198096D01*
X33727676Y32198096D02*
X33632438Y32293334D01*
X33632438Y32293334D02*
X33584819Y32388572D01*
X33584819Y32388572D02*
X33584819Y32579048D01*
X33584819Y32579048D02*
X33632438Y32674286D01*
X33632438Y32674286D02*
X33727676Y32769524D01*
X33727676Y32769524D02*
X33918152Y32817143D01*
X33918152Y32817143D02*
X34251485Y32817143D01*
X34251485Y32817143D02*
X34441961Y32769524D01*
X34441961Y32769524D02*
X34537200Y32674286D01*
X34537200Y32674286D02*
X34584819Y32579048D01*
X34584819Y32579048D02*
X34584819Y32388572D01*
X33584819Y33150477D02*
X33584819Y33769524D01*
X33584819Y33769524D02*
X33965771Y33436191D01*
X33965771Y33436191D02*
X33965771Y33579048D01*
X33965771Y33579048D02*
X34013390Y33674286D01*
X34013390Y33674286D02*
X34061009Y33721905D01*
X34061009Y33721905D02*
X34156247Y33769524D01*
X34156247Y33769524D02*
X34394342Y33769524D01*
X34394342Y33769524D02*
X34489580Y33721905D01*
X34489580Y33721905D02*
X34537200Y33674286D01*
X34537200Y33674286D02*
X34584819Y33579048D01*
X34584819Y33579048D02*
X34584819Y33293334D01*
X34584819Y33293334D02*
X34537200Y33198096D01*
X34537200Y33198096D02*
X34489580Y33150477D01*
X3834819Y41859525D02*
X2834819Y41859525D01*
X2834819Y41859525D02*
X2834819Y42097620D01*
X2834819Y42097620D02*
X2882438Y42240477D01*
X2882438Y42240477D02*
X2977676Y42335715D01*
X2977676Y42335715D02*
X3072914Y42383334D01*
X3072914Y42383334D02*
X3263390Y42430953D01*
X3263390Y42430953D02*
X3406247Y42430953D01*
X3406247Y42430953D02*
X3596723Y42383334D01*
X3596723Y42383334D02*
X3691961Y42335715D01*
X3691961Y42335715D02*
X3787200Y42240477D01*
X3787200Y42240477D02*
X3834819Y42097620D01*
X3834819Y42097620D02*
X3834819Y41859525D01*
X3834819Y43383334D02*
X3834819Y42811906D01*
X3834819Y43097620D02*
X2834819Y43097620D01*
X2834819Y43097620D02*
X2977676Y43002382D01*
X2977676Y43002382D02*
X3072914Y42907144D01*
X3072914Y42907144D02*
X3120533Y42811906D01*
X2834819Y44002382D02*
X2834819Y44097620D01*
X2834819Y44097620D02*
X2882438Y44192858D01*
X2882438Y44192858D02*
X2930057Y44240477D01*
X2930057Y44240477D02*
X3025295Y44288096D01*
X3025295Y44288096D02*
X3215771Y44335715D01*
X3215771Y44335715D02*
X3453866Y44335715D01*
X3453866Y44335715D02*
X3644342Y44288096D01*
X3644342Y44288096D02*
X3739580Y44240477D01*
X3739580Y44240477D02*
X3787200Y44192858D01*
X3787200Y44192858D02*
X3834819Y44097620D01*
X3834819Y44097620D02*
X3834819Y44002382D01*
X3834819Y44002382D02*
X3787200Y43907144D01*
X3787200Y43907144D02*
X3739580Y43859525D01*
X3739580Y43859525D02*
X3644342Y43811906D01*
X3644342Y43811906D02*
X3453866Y43764287D01*
X3453866Y43764287D02*
X3215771Y43764287D01*
X3215771Y43764287D02*
X3025295Y43811906D01*
X3025295Y43811906D02*
X2930057Y43859525D01*
X2930057Y43859525D02*
X2882438Y43907144D01*
X2882438Y43907144D02*
X2834819Y44002382D01*
X2834819Y44954763D02*
X2834819Y45050001D01*
X2834819Y45050001D02*
X2882438Y45145239D01*
X2882438Y45145239D02*
X2930057Y45192858D01*
X2930057Y45192858D02*
X3025295Y45240477D01*
X3025295Y45240477D02*
X3215771Y45288096D01*
X3215771Y45288096D02*
X3453866Y45288096D01*
X3453866Y45288096D02*
X3644342Y45240477D01*
X3644342Y45240477D02*
X3739580Y45192858D01*
X3739580Y45192858D02*
X3787200Y45145239D01*
X3787200Y45145239D02*
X3834819Y45050001D01*
X3834819Y45050001D02*
X3834819Y44954763D01*
X3834819Y44954763D02*
X3787200Y44859525D01*
X3787200Y44859525D02*
X3739580Y44811906D01*
X3739580Y44811906D02*
X3644342Y44764287D01*
X3644342Y44764287D02*
X3453866Y44716668D01*
X3453866Y44716668D02*
X3215771Y44716668D01*
X3215771Y44716668D02*
X3025295Y44764287D01*
X3025295Y44764287D02*
X2930057Y44811906D01*
X2930057Y44811906D02*
X2882438Y44859525D01*
X2882438Y44859525D02*
X2834819Y44954763D01*
X738095Y37385181D02*
X738095Y38385181D01*
X1309523Y37385181D02*
X880952Y37956610D01*
X1309523Y38385181D02*
X738095Y37813753D01*
X3954819Y11023334D02*
X3478628Y10690001D01*
X3954819Y10451906D02*
X2954819Y10451906D01*
X2954819Y10451906D02*
X2954819Y10832858D01*
X2954819Y10832858D02*
X3002438Y10928096D01*
X3002438Y10928096D02*
X3050057Y10975715D01*
X3050057Y10975715D02*
X3145295Y11023334D01*
X3145295Y11023334D02*
X3288152Y11023334D01*
X3288152Y11023334D02*
X3383390Y10975715D01*
X3383390Y10975715D02*
X3431009Y10928096D01*
X3431009Y10928096D02*
X3478628Y10832858D01*
X3478628Y10832858D02*
X3478628Y10451906D01*
X3954819Y11975715D02*
X3954819Y11404287D01*
X3954819Y11690001D02*
X2954819Y11690001D01*
X2954819Y11690001D02*
X3097676Y11594763D01*
X3097676Y11594763D02*
X3192914Y11499525D01*
X3192914Y11499525D02*
X3240533Y11404287D01*
X30857142Y40045181D02*
X30523809Y40521372D01*
X30285714Y40045181D02*
X30285714Y41045181D01*
X30285714Y41045181D02*
X30666666Y41045181D01*
X30666666Y41045181D02*
X30761904Y40997562D01*
X30761904Y40997562D02*
X30809523Y40949943D01*
X30809523Y40949943D02*
X30857142Y40854705D01*
X30857142Y40854705D02*
X30857142Y40711848D01*
X30857142Y40711848D02*
X30809523Y40616610D01*
X30809523Y40616610D02*
X30761904Y40568991D01*
X30761904Y40568991D02*
X30666666Y40521372D01*
X30666666Y40521372D02*
X30285714Y40521372D01*
X31809523Y40045181D02*
X31238095Y40045181D01*
X31523809Y40045181D02*
X31523809Y41045181D01*
X31523809Y41045181D02*
X31428571Y40902324D01*
X31428571Y40902324D02*
X31333333Y40807086D01*
X31333333Y40807086D02*
X31238095Y40759467D01*
X32190476Y40949943D02*
X32238095Y40997562D01*
X32238095Y40997562D02*
X32333333Y41045181D01*
X32333333Y41045181D02*
X32571428Y41045181D01*
X32571428Y41045181D02*
X32666666Y40997562D01*
X32666666Y40997562D02*
X32714285Y40949943D01*
X32714285Y40949943D02*
X32761904Y40854705D01*
X32761904Y40854705D02*
X32761904Y40759467D01*
X32761904Y40759467D02*
X32714285Y40616610D01*
X32714285Y40616610D02*
X32142857Y40045181D01*
X32142857Y40045181D02*
X32761904Y40045181D01*
X21643333Y30045181D02*
X21310000Y30521372D01*
X21071905Y30045181D02*
X21071905Y31045181D01*
X21071905Y31045181D02*
X21452857Y31045181D01*
X21452857Y31045181D02*
X21548095Y30997562D01*
X21548095Y30997562D02*
X21595714Y30949943D01*
X21595714Y30949943D02*
X21643333Y30854705D01*
X21643333Y30854705D02*
X21643333Y30711848D01*
X21643333Y30711848D02*
X21595714Y30616610D01*
X21595714Y30616610D02*
X21548095Y30568991D01*
X21548095Y30568991D02*
X21452857Y30521372D01*
X21452857Y30521372D02*
X21071905Y30521372D01*
X21976667Y31045181D02*
X22643333Y31045181D01*
X22643333Y31045181D02*
X22214762Y30045181D01*
X4357143Y31545181D02*
X4690476Y30545181D01*
X4690476Y30545181D02*
X5023809Y31545181D01*
X5928571Y30640420D02*
X5880952Y30592800D01*
X5880952Y30592800D02*
X5738095Y30545181D01*
X5738095Y30545181D02*
X5642857Y30545181D01*
X5642857Y30545181D02*
X5500000Y30592800D01*
X5500000Y30592800D02*
X5404762Y30688039D01*
X5404762Y30688039D02*
X5357143Y30783277D01*
X5357143Y30783277D02*
X5309524Y30973753D01*
X5309524Y30973753D02*
X5309524Y31116610D01*
X5309524Y31116610D02*
X5357143Y31307086D01*
X5357143Y31307086D02*
X5404762Y31402324D01*
X5404762Y31402324D02*
X5500000Y31497562D01*
X5500000Y31497562D02*
X5642857Y31545181D01*
X5642857Y31545181D02*
X5738095Y31545181D01*
X5738095Y31545181D02*
X5880952Y31497562D01*
X5880952Y31497562D02*
X5928571Y31449943D01*
X6928571Y30640420D02*
X6880952Y30592800D01*
X6880952Y30592800D02*
X6738095Y30545181D01*
X6738095Y30545181D02*
X6642857Y30545181D01*
X6642857Y30545181D02*
X6500000Y30592800D01*
X6500000Y30592800D02*
X6404762Y30688039D01*
X6404762Y30688039D02*
X6357143Y30783277D01*
X6357143Y30783277D02*
X6309524Y30973753D01*
X6309524Y30973753D02*
X6309524Y31116610D01*
X6309524Y31116610D02*
X6357143Y31307086D01*
X6357143Y31307086D02*
X6404762Y31402324D01*
X6404762Y31402324D02*
X6500000Y31497562D01*
X6500000Y31497562D02*
X6642857Y31545181D01*
X6642857Y31545181D02*
X6738095Y31545181D01*
X6738095Y31545181D02*
X6880952Y31497562D01*
X6880952Y31497562D02*
X6928571Y31449943D01*
X7119048Y30449943D02*
X7880952Y30449943D01*
X8452381Y31068991D02*
X8119048Y31068991D01*
X8119048Y30545181D02*
X8119048Y31545181D01*
X8119048Y31545181D02*
X8595238Y31545181D01*
X28738095Y44997562D02*
X28642857Y45045181D01*
X28642857Y45045181D02*
X28500000Y45045181D01*
X28500000Y45045181D02*
X28357143Y44997562D01*
X28357143Y44997562D02*
X28261905Y44902324D01*
X28261905Y44902324D02*
X28214286Y44807086D01*
X28214286Y44807086D02*
X28166667Y44616610D01*
X28166667Y44616610D02*
X28166667Y44473753D01*
X28166667Y44473753D02*
X28214286Y44283277D01*
X28214286Y44283277D02*
X28261905Y44188039D01*
X28261905Y44188039D02*
X28357143Y44092800D01*
X28357143Y44092800D02*
X28500000Y44045181D01*
X28500000Y44045181D02*
X28595238Y44045181D01*
X28595238Y44045181D02*
X28738095Y44092800D01*
X28738095Y44092800D02*
X28785714Y44140420D01*
X28785714Y44140420D02*
X28785714Y44473753D01*
X28785714Y44473753D02*
X28595238Y44473753D01*
X29214286Y44045181D02*
X29214286Y45045181D01*
X29214286Y45045181D02*
X29785714Y44045181D01*
X29785714Y44045181D02*
X29785714Y45045181D01*
X30261905Y44045181D02*
X30261905Y45045181D01*
X30261905Y45045181D02*
X30500000Y45045181D01*
X30500000Y45045181D02*
X30642857Y44997562D01*
X30642857Y44997562D02*
X30738095Y44902324D01*
X30738095Y44902324D02*
X30785714Y44807086D01*
X30785714Y44807086D02*
X30833333Y44616610D01*
X30833333Y44616610D02*
X30833333Y44473753D01*
X30833333Y44473753D02*
X30785714Y44283277D01*
X30785714Y44283277D02*
X30738095Y44188039D01*
X30738095Y44188039D02*
X30642857Y44092800D01*
X30642857Y44092800D02*
X30500000Y44045181D01*
X30500000Y44045181D02*
X30261905Y44045181D01*
%TO.C,POT2*%
D12*
X38580000Y30380000D02*
X38580000Y27620000D01*
X43770000Y30380000D02*
X38580000Y30380000D01*
X43770000Y30380000D02*
X43770000Y27620000D01*
X43770000Y27620000D02*
X38580000Y27620000D01*
X45040000Y30380000D02*
X46420000Y30380000D01*
X46420000Y30380000D02*
X46420000Y29000000D01*
%TO.C,Q2*%
X21840000Y27260000D02*
X21840000Y23660000D01*
X21840000Y27260000D02*
G75*
G02*
X22567205Y27784184I1850000J-1800000D01*
G01*
X22567205Y23135816D02*
G75*
G02*
X21840000Y23660000I1122795J2324184D01*
G01*
X24788807Y27816400D02*
G75*
G02*
X26290000Y25460000I-1098807J-2356400D01*
G01*
X26290000Y25460000D02*
G75*
G02*
X24788807Y23103600I-2600000J0D01*
G01*
%TO.C,R9*%
X24000000Y16560000D02*
X24000000Y15610000D01*
X24000000Y10820000D02*
X24000000Y11770000D01*
X23080000Y15610000D02*
X24920000Y15610000D01*
X24920000Y11770000D01*
X23080000Y11770000D01*
X23080000Y15610000D01*
%TO.C,C5*%
X36945225Y40975000D02*
X37445225Y40975000D01*
X37195225Y41225000D02*
X37195225Y40725000D01*
X39750000Y42080000D02*
X39750000Y36920000D01*
X39790000Y42080000D02*
X39790000Y36920000D01*
X39830000Y42079000D02*
X39830000Y36921000D01*
X39870000Y42077000D02*
X39870000Y36923000D01*
X39910000Y42075000D02*
X39910000Y36925000D01*
X39950000Y42072000D02*
X39950000Y36928000D01*
X39990000Y42069000D02*
X39990000Y40540000D01*
X39990000Y38460000D02*
X39990000Y36931000D01*
X40030000Y42065000D02*
X40030000Y40540000D01*
X40030000Y38460000D02*
X40030000Y36935000D01*
X40070000Y42060000D02*
X40070000Y40540000D01*
X40070000Y38460000D02*
X40070000Y36940000D01*
X40110000Y42055000D02*
X40110000Y40540000D01*
X40110000Y38460000D02*
X40110000Y36945000D01*
X40150000Y42049000D02*
X40150000Y40540000D01*
X40150000Y38460000D02*
X40150000Y36951000D01*
X40190000Y42043000D02*
X40190000Y40540000D01*
X40190000Y38460000D02*
X40190000Y36957000D01*
X40230000Y42036000D02*
X40230000Y40540000D01*
X40230000Y38460000D02*
X40230000Y36964000D01*
X40270000Y42028000D02*
X40270000Y40540000D01*
X40270000Y38460000D02*
X40270000Y36972000D01*
X40310000Y42019000D02*
X40310000Y40540000D01*
X40310000Y38460000D02*
X40310000Y36981000D01*
X40350000Y42010000D02*
X40350000Y40540000D01*
X40350000Y38460000D02*
X40350000Y36990000D01*
X40390000Y42001000D02*
X40390000Y40540000D01*
X40390000Y38460000D02*
X40390000Y36999000D01*
X40430000Y41990000D02*
X40430000Y40540000D01*
X40430000Y38460000D02*
X40430000Y37010000D01*
X40470000Y41979000D02*
X40470000Y40540000D01*
X40470000Y38460000D02*
X40470000Y37021000D01*
X40510000Y41967000D02*
X40510000Y40540000D01*
X40510000Y38460000D02*
X40510000Y37033000D01*
X40550000Y41955000D02*
X40550000Y40540000D01*
X40550000Y38460000D02*
X40550000Y37045000D01*
X40590000Y41942000D02*
X40590000Y40540000D01*
X40590000Y38460000D02*
X40590000Y37058000D01*
X40630000Y41928000D02*
X40630000Y40540000D01*
X40630000Y38460000D02*
X40630000Y37072000D01*
X40670000Y41913000D02*
X40670000Y40540000D01*
X40670000Y38460000D02*
X40670000Y37087000D01*
X40710000Y41898000D02*
X40710000Y40540000D01*
X40710000Y38460000D02*
X40710000Y37102000D01*
X40750000Y41882000D02*
X40750000Y40540000D01*
X40750000Y38460000D02*
X40750000Y37118000D01*
X40790000Y41865000D02*
X40790000Y40540000D01*
X40790000Y38460000D02*
X40790000Y37135000D01*
X40830000Y41847000D02*
X40830000Y40540000D01*
X40830000Y38460000D02*
X40830000Y37153000D01*
X40870000Y41829000D02*
X40870000Y40540000D01*
X40870000Y38460000D02*
X40870000Y37171000D01*
X40910000Y41809000D02*
X40910000Y40540000D01*
X40910000Y38460000D02*
X40910000Y37191000D01*
X40950000Y41789000D02*
X40950000Y40540000D01*
X40950000Y38460000D02*
X40950000Y37211000D01*
X40990000Y41768000D02*
X40990000Y40540000D01*
X40990000Y38460000D02*
X40990000Y37232000D01*
X41030000Y41746000D02*
X41030000Y40540000D01*
X41030000Y38460000D02*
X41030000Y37254000D01*
X41070000Y41723000D02*
X41070000Y40540000D01*
X41070000Y38460000D02*
X41070000Y37277000D01*
X41110000Y41699000D02*
X41110000Y40540000D01*
X41110000Y38460000D02*
X41110000Y37301000D01*
X41150000Y41675000D02*
X41150000Y40540000D01*
X41150000Y38460000D02*
X41150000Y37325000D01*
X41190000Y41649000D02*
X41190000Y40540000D01*
X41190000Y38460000D02*
X41190000Y37351000D01*
X41230000Y41622000D02*
X41230000Y40540000D01*
X41230000Y38460000D02*
X41230000Y37378000D01*
X41270000Y41594000D02*
X41270000Y40540000D01*
X41270000Y38460000D02*
X41270000Y37406000D01*
X41310000Y41565000D02*
X41310000Y40540000D01*
X41310000Y38460000D02*
X41310000Y37435000D01*
X41350000Y41535000D02*
X41350000Y40540000D01*
X41350000Y38460000D02*
X41350000Y37465000D01*
X41390000Y41503000D02*
X41390000Y40540000D01*
X41390000Y38460000D02*
X41390000Y37497000D01*
X41430000Y41470000D02*
X41430000Y40540000D01*
X41430000Y38460000D02*
X41430000Y37530000D01*
X41470000Y41436000D02*
X41470000Y40540000D01*
X41470000Y38460000D02*
X41470000Y37564000D01*
X41510000Y41401000D02*
X41510000Y40540000D01*
X41510000Y38460000D02*
X41510000Y37599000D01*
X41550000Y41364000D02*
X41550000Y40540000D01*
X41550000Y38460000D02*
X41550000Y37636000D01*
X41590000Y41325000D02*
X41590000Y40540000D01*
X41590000Y38460000D02*
X41590000Y37675000D01*
X41630000Y41285000D02*
X41630000Y40540000D01*
X41630000Y38460000D02*
X41630000Y37715000D01*
X41670000Y41243000D02*
X41670000Y40540000D01*
X41670000Y38460000D02*
X41670000Y37757000D01*
X41710000Y41199000D02*
X41710000Y40540000D01*
X41710000Y38460000D02*
X41710000Y37801000D01*
X41750000Y41152000D02*
X41750000Y40540000D01*
X41750000Y38460000D02*
X41750000Y37848000D01*
X41790000Y41104000D02*
X41790000Y40540000D01*
X41790000Y38460000D02*
X41790000Y37896000D01*
X41830000Y41053000D02*
X41830000Y40540000D01*
X41830000Y38460000D02*
X41830000Y37947000D01*
X41870000Y40999000D02*
X41870000Y40540000D01*
X41870000Y38460000D02*
X41870000Y38001000D01*
X41910000Y40943000D02*
X41910000Y40540000D01*
X41910000Y38460000D02*
X41910000Y38057000D01*
X41950000Y40883000D02*
X41950000Y40540000D01*
X41950000Y38460000D02*
X41950000Y38117000D01*
X41990000Y40819000D02*
X41990000Y40540000D01*
X41990000Y38460000D02*
X41990000Y38181000D01*
X42030000Y40751000D02*
X42030000Y40540000D01*
X42030000Y38460000D02*
X42030000Y38249000D01*
X42070000Y40677000D02*
X42070000Y38323000D01*
X42110000Y40598000D02*
X42110000Y38402000D01*
X42150000Y40511000D02*
X42150000Y38489000D01*
X42190000Y40414000D02*
X42190000Y38586000D01*
X42230000Y40305000D02*
X42230000Y38695000D01*
X42270000Y40177000D02*
X42270000Y38823000D01*
X42310000Y40017000D02*
X42310000Y38983000D01*
X42350000Y39783000D02*
X42350000Y39217000D01*
X42370000Y39500000D02*
G75*
G02*
X37130000Y39500000I-2620000J0D01*
G01*
X37130000Y39500000D02*
G75*
G02*
X42370000Y39500000I2620000J0D01*
G01*
%TO.C,C1*%
X5130000Y14220000D02*
X7870000Y14220000D01*
X5130000Y6780000D02*
X5130000Y14220000D01*
X7870000Y14220000D02*
X7870000Y6780000D01*
X7870000Y6780000D02*
X5130000Y6780000D01*
%TO.C,C9*%
X36130000Y24220000D02*
X38870000Y24220000D01*
X36130000Y16780000D02*
X36130000Y24220000D01*
X38870000Y24220000D02*
X38870000Y16780000D01*
X38870000Y16780000D02*
X36130000Y16780000D01*
%TO.C,R3*%
X6690000Y15500000D02*
X7640000Y15500000D01*
X12430000Y15500000D02*
X11480000Y15500000D01*
X7640000Y16420000D02*
X11480000Y16420000D01*
X11480000Y14580000D01*
X7640000Y14580000D01*
X7640000Y16420000D01*
%TO.C,R13*%
X29500000Y24060000D02*
X29500000Y23110000D01*
X29500000Y18320000D02*
X29500000Y19270000D01*
X28580000Y23110000D02*
X30420000Y23110000D01*
X30420000Y19270000D01*
X28580000Y19270000D01*
X28580000Y23110000D01*
%TO.C,POT1*%
X18120000Y14460000D02*
X19500000Y14460000D01*
X18120000Y13080000D02*
X18120000Y14460000D01*
X18120000Y11810000D02*
X18120000Y6620000D01*
X18120000Y11810000D02*
X20880000Y11810000D01*
X18120000Y6620000D02*
X20880000Y6620000D01*
X20880000Y11810000D02*
X20880000Y6620000D01*
%TO.C,R16*%
X43000000Y25060000D02*
X43000000Y24110000D01*
X43000000Y19320000D02*
X43000000Y20270000D01*
X42080000Y24110000D02*
X43920000Y24110000D01*
X43920000Y20270000D01*
X42080000Y20270000D01*
X42080000Y24110000D01*
%TO.C,R6*%
X26500000Y16560000D02*
X26500000Y15610000D01*
X26500000Y10820000D02*
X26500000Y11770000D01*
X25580000Y15610000D02*
X27420000Y15610000D01*
X27420000Y11770000D01*
X25580000Y11770000D01*
X25580000Y15610000D01*
%TO.C,R11*%
X28630000Y38000000D02*
X29580000Y38000000D01*
X34370000Y38000000D02*
X33420000Y38000000D01*
X29580000Y38920000D02*
X33420000Y38920000D01*
X33420000Y37080000D01*
X29580000Y37080000D01*
X29580000Y38920000D01*
%TO.C,C100*%
X8420000Y39290000D02*
X13580000Y39290000D01*
X8420000Y39250000D02*
X13580000Y39250000D01*
X8421000Y39330000D02*
X13579000Y39330000D01*
X8423000Y39370000D02*
X13577000Y39370000D01*
X8425000Y39410000D02*
X13575000Y39410000D01*
X8428000Y39450000D02*
X13572000Y39450000D01*
X8431000Y39490000D02*
X9960000Y39490000D01*
X8435000Y39530000D02*
X9960000Y39530000D01*
X8440000Y39570000D02*
X9960000Y39570000D01*
X8445000Y39610000D02*
X9960000Y39610000D01*
X8451000Y39650000D02*
X9960000Y39650000D01*
X8457000Y39690000D02*
X9960000Y39690000D01*
X8464000Y39730000D02*
X9960000Y39730000D01*
X8472000Y39770000D02*
X9960000Y39770000D01*
X8481000Y39810000D02*
X9960000Y39810000D01*
X8490000Y39850000D02*
X9960000Y39850000D01*
X8499000Y39890000D02*
X9960000Y39890000D01*
X8510000Y39930000D02*
X9960000Y39930000D01*
X8521000Y39970000D02*
X9960000Y39970000D01*
X8533000Y40010000D02*
X9960000Y40010000D01*
X8545000Y40050000D02*
X9960000Y40050000D01*
X8558000Y40090000D02*
X9960000Y40090000D01*
X8572000Y40130000D02*
X9960000Y40130000D01*
X8587000Y40170000D02*
X9960000Y40170000D01*
X8602000Y40210000D02*
X9960000Y40210000D01*
X8618000Y40250000D02*
X9960000Y40250000D01*
X8635000Y40290000D02*
X9960000Y40290000D01*
X8653000Y40330000D02*
X9960000Y40330000D01*
X8671000Y40370000D02*
X9960000Y40370000D01*
X8691000Y40410000D02*
X9960000Y40410000D01*
X8711000Y40450000D02*
X9960000Y40450000D01*
X8732000Y40490000D02*
X9960000Y40490000D01*
X8754000Y40530000D02*
X9960000Y40530000D01*
X8777000Y40570000D02*
X9960000Y40570000D01*
X8801000Y40610000D02*
X9960000Y40610000D01*
X8825000Y40650000D02*
X9960000Y40650000D01*
X8851000Y40690000D02*
X9960000Y40690000D01*
X8878000Y40730000D02*
X9960000Y40730000D01*
X8906000Y40770000D02*
X9960000Y40770000D01*
X8935000Y40810000D02*
X9960000Y40810000D01*
X8965000Y40850000D02*
X9960000Y40850000D01*
X8997000Y40890000D02*
X9960000Y40890000D01*
X9030000Y40930000D02*
X9960000Y40930000D01*
X9064000Y40970000D02*
X9960000Y40970000D01*
X9099000Y41010000D02*
X9960000Y41010000D01*
X9136000Y41050000D02*
X9960000Y41050000D01*
X9175000Y41090000D02*
X9960000Y41090000D01*
X9215000Y41130000D02*
X9960000Y41130000D01*
X9257000Y41170000D02*
X9960000Y41170000D01*
X9275000Y36695225D02*
X9775000Y36695225D01*
X9301000Y41210000D02*
X9960000Y41210000D01*
X9348000Y41250000D02*
X9960000Y41250000D01*
X9396000Y41290000D02*
X9960000Y41290000D01*
X9447000Y41330000D02*
X9960000Y41330000D01*
X9501000Y41370000D02*
X9960000Y41370000D01*
X9525000Y36445225D02*
X9525000Y36945225D01*
X9557000Y41410000D02*
X9960000Y41410000D01*
X9617000Y41450000D02*
X9960000Y41450000D01*
X9681000Y41490000D02*
X9960000Y41490000D01*
X9749000Y41530000D02*
X9960000Y41530000D01*
X9823000Y41570000D02*
X12177000Y41570000D01*
X9902000Y41610000D02*
X12098000Y41610000D01*
X9989000Y41650000D02*
X12011000Y41650000D01*
X10086000Y41690000D02*
X11914000Y41690000D01*
X10195000Y41730000D02*
X11805000Y41730000D01*
X10323000Y41770000D02*
X11677000Y41770000D01*
X10483000Y41810000D02*
X11517000Y41810000D01*
X10717000Y41850000D02*
X11283000Y41850000D01*
X12040000Y41530000D02*
X12251000Y41530000D01*
X12040000Y41490000D02*
X12319000Y41490000D01*
X12040000Y41450000D02*
X12383000Y41450000D01*
X12040000Y41410000D02*
X12443000Y41410000D01*
X12040000Y41370000D02*
X12499000Y41370000D01*
X12040000Y41330000D02*
X12553000Y41330000D01*
X12040000Y41290000D02*
X12604000Y41290000D01*
X12040000Y41250000D02*
X12652000Y41250000D01*
X12040000Y41210000D02*
X12699000Y41210000D01*
X12040000Y41170000D02*
X12743000Y41170000D01*
X12040000Y41130000D02*
X12785000Y41130000D01*
X12040000Y41090000D02*
X12825000Y41090000D01*
X12040000Y41050000D02*
X12864000Y41050000D01*
X12040000Y41010000D02*
X12901000Y41010000D01*
X12040000Y40970000D02*
X12936000Y40970000D01*
X12040000Y40930000D02*
X12970000Y40930000D01*
X12040000Y40890000D02*
X13003000Y40890000D01*
X12040000Y40850000D02*
X13035000Y40850000D01*
X12040000Y40810000D02*
X13065000Y40810000D01*
X12040000Y40770000D02*
X13094000Y40770000D01*
X12040000Y40730000D02*
X13122000Y40730000D01*
X12040000Y40690000D02*
X13149000Y40690000D01*
X12040000Y40650000D02*
X13175000Y40650000D01*
X12040000Y40610000D02*
X13199000Y40610000D01*
X12040000Y40570000D02*
X13223000Y40570000D01*
X12040000Y40530000D02*
X13246000Y40530000D01*
X12040000Y40490000D02*
X13268000Y40490000D01*
X12040000Y40450000D02*
X13289000Y40450000D01*
X12040000Y40410000D02*
X13309000Y40410000D01*
X12040000Y40370000D02*
X13329000Y40370000D01*
X12040000Y40330000D02*
X13347000Y40330000D01*
X12040000Y40290000D02*
X13365000Y40290000D01*
X12040000Y40250000D02*
X13382000Y40250000D01*
X12040000Y40210000D02*
X13398000Y40210000D01*
X12040000Y40170000D02*
X13413000Y40170000D01*
X12040000Y40130000D02*
X13428000Y40130000D01*
X12040000Y40090000D02*
X13442000Y40090000D01*
X12040000Y40050000D02*
X13455000Y40050000D01*
X12040000Y40010000D02*
X13467000Y40010000D01*
X12040000Y39970000D02*
X13479000Y39970000D01*
X12040000Y39930000D02*
X13490000Y39930000D01*
X12040000Y39890000D02*
X13501000Y39890000D01*
X12040000Y39850000D02*
X13510000Y39850000D01*
X12040000Y39810000D02*
X13519000Y39810000D01*
X12040000Y39770000D02*
X13528000Y39770000D01*
X12040000Y39730000D02*
X13536000Y39730000D01*
X12040000Y39690000D02*
X13543000Y39690000D01*
X12040000Y39650000D02*
X13549000Y39650000D01*
X12040000Y39610000D02*
X13555000Y39610000D01*
X12040000Y39570000D02*
X13560000Y39570000D01*
X12040000Y39530000D02*
X13565000Y39530000D01*
X12040000Y39490000D02*
X13569000Y39490000D01*
X13620000Y39250000D02*
G75*
G02*
X8380000Y39250000I-2620000J0D01*
G01*
X8380000Y39250000D02*
G75*
G02*
X13620000Y39250000I2620000J0D01*
G01*
%TO.C,TP3*%
X6300000Y4700000D02*
X7700000Y4700000D01*
X6300000Y3300000D02*
X6300000Y4700000D01*
X7700000Y4700000D02*
X7700000Y3300000D01*
X7700000Y3300000D02*
X6300000Y3300000D01*
%TO.C,TP4*%
X35800000Y7700000D02*
X37200000Y7700000D01*
X35800000Y6300000D02*
X35800000Y7700000D01*
X37200000Y7700000D02*
X37200000Y6300000D01*
X37200000Y6300000D02*
X35800000Y6300000D01*
%TO.C,J3*%
X26130000Y49330000D02*
X26130000Y46670000D01*
X28730000Y49330000D02*
X26130000Y49330000D01*
X28730000Y49330000D02*
X28730000Y46670000D01*
X28730000Y46670000D02*
X26130000Y46670000D01*
X31330000Y48000000D02*
X31330000Y46670000D01*
X31330000Y46670000D02*
X30000000Y46670000D01*
%TO.C,CLR1*%
X24940000Y6500000D02*
X25890000Y6500000D01*
X30680000Y6500000D02*
X29730000Y6500000D01*
X25890000Y7420000D02*
X29730000Y7420000D01*
X29730000Y5580000D01*
X25890000Y5580000D01*
X25890000Y7420000D01*
%TO.C,D3*%
X30230000Y27500000D02*
X30880000Y27500000D01*
X34280000Y26380000D02*
X34280000Y28620000D01*
X34400000Y26380000D02*
X34400000Y28620000D01*
X34520000Y26380000D02*
X34520000Y28620000D01*
X35770000Y27500000D02*
X35120000Y27500000D01*
X30880000Y28620000D02*
X35120000Y28620000D01*
X35120000Y26380000D01*
X30880000Y26380000D01*
X30880000Y28620000D01*
%TO.C,D1*%
X16000000Y14080000D02*
X16000000Y13430000D01*
X16000000Y8540000D02*
X16000000Y9190000D01*
X17120000Y12830000D02*
X14880000Y12830000D01*
X17120000Y12710000D02*
X14880000Y12710000D01*
X17120000Y12590000D02*
X14880000Y12590000D01*
X14880000Y13430000D02*
X17120000Y13430000D01*
X17120000Y9190000D01*
X14880000Y9190000D01*
X14880000Y13430000D01*
%TO.C,C7*%
X45630000Y38720000D02*
X48370000Y38720000D01*
X45630000Y31280000D02*
X45630000Y38720000D01*
X48370000Y38720000D02*
X48370000Y31280000D01*
X48370000Y31280000D02*
X45630000Y31280000D01*
%TO.C,Q1*%
X8650000Y11840000D02*
X8650000Y8240000D01*
X8650000Y11840000D02*
G75*
G02*
X9377205Y12364184I1850000J-1800000D01*
G01*
X9377205Y7715816D02*
G75*
G02*
X8650000Y8240000I1122795J2324184D01*
G01*
X11598807Y12396400D02*
G75*
G02*
X13100000Y10040000I-1098807J-2356400D01*
G01*
X13100000Y10040000D02*
G75*
G02*
X11598807Y7683600I-2600000J0D01*
G01*
%TO.C,R8*%
X18940000Y33000000D02*
X19890000Y33000000D01*
X24680000Y33000000D02*
X23730000Y33000000D01*
X19890000Y33920000D02*
X23730000Y33920000D01*
X23730000Y32080000D01*
X19890000Y32080000D01*
X19890000Y33920000D01*
%TO.C,R15*%
X34500000Y24060000D02*
X34500000Y23110000D01*
X34500000Y18320000D02*
X34500000Y19270000D01*
X33580000Y23110000D02*
X35420000Y23110000D01*
X35420000Y19270000D01*
X33580000Y19270000D01*
X33580000Y23110000D01*
%TO.C,C4*%
X27130000Y36720000D02*
X29870000Y36720000D01*
X27130000Y29280000D02*
X27130000Y36720000D01*
X29870000Y36720000D02*
X29870000Y29280000D01*
X29870000Y29280000D02*
X27130000Y29280000D01*
%TO.C,D2*%
X20230000Y20000000D02*
X20880000Y20000000D01*
X24280000Y18880000D02*
X24280000Y21120000D01*
X24400000Y18880000D02*
X24400000Y21120000D01*
X24520000Y18880000D02*
X24520000Y21120000D01*
X25770000Y20000000D02*
X25120000Y20000000D01*
X20880000Y21120000D02*
X25120000Y21120000D01*
X25120000Y18880000D01*
X20880000Y18880000D01*
X20880000Y21120000D01*
%TO.C,R10*%
X32000000Y24060000D02*
X32000000Y23110000D01*
X32000000Y18320000D02*
X32000000Y19270000D01*
X31080000Y23110000D02*
X32920000Y23110000D01*
X32920000Y19270000D01*
X31080000Y19270000D01*
X31080000Y23110000D01*
%TO.C,C8*%
X44630000Y26620000D02*
X47370000Y26620000D01*
X44630000Y19380000D02*
X44630000Y26620000D01*
X47370000Y26620000D02*
X47370000Y19380000D01*
X47370000Y19380000D02*
X44630000Y19380000D01*
%TO.C,R4*%
X6690000Y18000000D02*
X7640000Y18000000D01*
X12430000Y18000000D02*
X11480000Y18000000D01*
X7640000Y18920000D02*
X11480000Y18920000D01*
X11480000Y17080000D01*
X7640000Y17080000D01*
X7640000Y18920000D01*
%TO.C,R17*%
X40500000Y22060000D02*
X40500000Y21110000D01*
X40500000Y16320000D02*
X40500000Y17270000D01*
X39580000Y21110000D02*
X41420000Y21110000D01*
X41420000Y17270000D01*
X39580000Y17270000D01*
X39580000Y21110000D01*
%TO.C,TP1*%
X10300000Y46200000D02*
X11700000Y46200000D01*
X10300000Y44800000D02*
X10300000Y46200000D01*
X11700000Y46200000D02*
X11700000Y44800000D01*
X11700000Y44800000D02*
X10300000Y44800000D01*
%TO.C,C6*%
X35780000Y33870000D02*
X43220000Y33870000D01*
X35780000Y31130000D02*
X35780000Y33870000D01*
X43220000Y33870000D02*
X43220000Y31130000D01*
X43220000Y31130000D02*
X35780000Y31130000D01*
%TO.C,J1*%
X19810000Y620000D02*
X19810000Y2000000D01*
X21190000Y620000D02*
X19810000Y620000D01*
X22460000Y3380000D02*
X30190000Y3380000D01*
X22460000Y620000D02*
X22460000Y3380000D01*
X22460000Y620000D02*
X30190000Y620000D01*
X30190000Y620000D02*
X30190000Y3380000D01*
%TO.C,R2*%
X11630000Y5000000D02*
X12580000Y5000000D01*
X17370000Y5000000D02*
X16420000Y5000000D01*
X12580000Y5920000D02*
X16420000Y5920000D01*
X16420000Y4080000D01*
X12580000Y4080000D01*
X12580000Y5920000D01*
%TO.C,R14*%
X37320000Y35500000D02*
X38270000Y35500000D01*
X43060000Y35500000D02*
X42110000Y35500000D01*
X38270000Y36420000D02*
X42110000Y36420000D01*
X42110000Y34580000D01*
X38270000Y34580000D01*
X38270000Y36420000D01*
%TO.C,C3*%
X11280000Y27370000D02*
X18720000Y27370000D01*
X11280000Y24630000D02*
X11280000Y27370000D01*
X18720000Y27370000D02*
X18720000Y24630000D01*
X18720000Y24630000D02*
X11280000Y24630000D01*
%TO.C,C2*%
X7630000Y27220000D02*
X10370000Y27220000D01*
X7630000Y19780000D02*
X7630000Y27220000D01*
X10370000Y27220000D02*
X10370000Y19780000D01*
X10370000Y19780000D02*
X7630000Y19780000D01*
D13*
%TO.C,G\u002A\u002A\u002A*%
G36*
X40199101Y8617309D02*
G01*
X40254635Y8587740D01*
X40299114Y8543677D01*
X40310587Y8525908D01*
X40332734Y8466422D01*
X40334660Y8408085D01*
X40319266Y8353734D01*
X40289451Y8306208D01*
X40248115Y8268343D01*
X40198157Y8242978D01*
X40142479Y8232950D01*
X40083979Y8241098D01*
X40039820Y8260949D01*
X39989685Y8302395D01*
X39957886Y8352641D01*
X39943377Y8407834D01*
X39945111Y8464122D01*
X39962039Y8517654D01*
X39993114Y8564577D01*
X40037289Y8601039D01*
X40093517Y8623188D01*
X40139655Y8628114D01*
X40199101Y8617309D01*
G37*
G36*
X41911816Y8605541D02*
G01*
X41922728Y8602940D01*
X41976243Y8578028D01*
X42023178Y8538330D01*
X42058871Y8489453D01*
X42078657Y8437004D01*
X42081135Y8412503D01*
X42073740Y8372394D01*
X42054826Y8326832D01*
X42029301Y8285527D01*
X42003716Y8259295D01*
X41970393Y8240085D01*
X41931775Y8223343D01*
X41896968Y8212614D01*
X41878781Y8210652D01*
X41859962Y8214710D01*
X41829893Y8223162D01*
X41823289Y8225190D01*
X41767121Y8253519D01*
X41724839Y8296297D01*
X41697522Y8348946D01*
X41686250Y8406885D01*
X41692100Y8465535D01*
X41716151Y8520317D01*
X41745603Y8555034D01*
X41796457Y8588745D01*
X41854498Y8606294D01*
X41911816Y8605541D01*
G37*
G36*
X41077926Y8572026D02*
G01*
X41102369Y8542600D01*
X41120541Y8492233D01*
X41128745Y8451347D01*
X41137837Y8407080D01*
X41149317Y8367233D01*
X41157349Y8347441D01*
X41172207Y8325646D01*
X41192494Y8315955D01*
X41223718Y8313716D01*
X41274432Y8305467D01*
X41308170Y8282155D01*
X41324025Y8244543D01*
X41325182Y8228190D01*
X41316233Y8188849D01*
X41288993Y8162653D01*
X41242878Y8149220D01*
X41201321Y8147167D01*
X41151862Y8152149D01*
X41112001Y8167894D01*
X41094904Y8178749D01*
X41066830Y8197054D01*
X41046795Y8208030D01*
X41042280Y8209433D01*
X41028221Y8203624D01*
X41002633Y8188995D01*
X40990569Y8181398D01*
X40943333Y8159131D01*
X40890146Y8146481D01*
X40841607Y8145683D01*
X40830906Y8147731D01*
X40795402Y8165766D01*
X40767941Y8195800D01*
X40755470Y8229917D01*
X40755311Y8233876D01*
X40765945Y8268489D01*
X40794381Y8295714D01*
X40835415Y8311613D01*
X40861281Y8314103D01*
X40890312Y8317258D01*
X40912027Y8329113D01*
X40928927Y8353259D01*
X40943511Y8393284D01*
X40958281Y8452779D01*
X40958469Y8453622D01*
X40974130Y8512537D01*
X40991412Y8551357D01*
X41012487Y8573241D01*
X41039530Y8581346D01*
X41046526Y8581594D01*
X41077926Y8572026D01*
G37*
G36*
X40362966Y10404816D02*
G01*
X40473225Y10390439D01*
X40528525Y10377618D01*
X40599491Y10357858D01*
X40651213Y10343300D01*
X40686866Y10332958D01*
X40709627Y10325844D01*
X40722673Y10320971D01*
X40729181Y10317353D01*
X40732051Y10314383D01*
X40746529Y10306825D01*
X40773301Y10299615D01*
X40773718Y10299533D01*
X40805675Y10289964D01*
X40848604Y10272527D01*
X40898123Y10249557D01*
X40949851Y10223388D01*
X40999406Y10196353D01*
X41042408Y10170786D01*
X41074474Y10149020D01*
X41091223Y10133390D01*
X41092661Y10129650D01*
X41101426Y10119347D01*
X41123315Y10101971D01*
X41133366Y10094907D01*
X41158534Y10075395D01*
X41172788Y10059744D01*
X41173992Y10056279D01*
X41184155Y10035094D01*
X41208877Y10018372D01*
X41237655Y10012089D01*
X41267726Y10020060D01*
X41295174Y10038256D01*
X41334246Y10073825D01*
X41364827Y10095563D01*
X41393186Y10107619D01*
X41404184Y10110415D01*
X41437863Y10120949D01*
X41476293Y10137134D01*
X41483511Y10140694D01*
X41519633Y10155240D01*
X41553509Y10162921D01*
X41559898Y10163279D01*
X41588065Y10168097D01*
X41626869Y10180515D01*
X41655549Y10192354D01*
X41693490Y10208115D01*
X41725583Y10218674D01*
X41740792Y10221429D01*
X41765330Y10227226D01*
X41774091Y10233049D01*
X41794965Y10242156D01*
X41838104Y10250590D01*
X41902522Y10258252D01*
X41987230Y10265046D01*
X42091243Y10270873D01*
X42201579Y10275246D01*
X42283331Y10277772D01*
X42345711Y10279066D01*
X42392584Y10278945D01*
X42427815Y10277226D01*
X42455267Y10273726D01*
X42478806Y10268263D01*
X42501057Y10261090D01*
X42536187Y10247915D01*
X42561411Y10236890D01*
X42569596Y10231862D01*
X42583631Y10226041D01*
X42612585Y10219497D01*
X42629800Y10216644D01*
X42670106Y10206954D01*
X42718674Y10190081D01*
X42755008Y10174325D01*
X42792500Y10156933D01*
X42822146Y10144590D01*
X42837272Y10140019D01*
X42848418Y10131634D01*
X42848717Y10129173D01*
X42858316Y10117362D01*
X42871977Y10110944D01*
X42890825Y10098533D01*
X42895237Y10088096D01*
X42902422Y10070492D01*
X42919822Y10045601D01*
X42941203Y10020904D01*
X42960332Y10003880D01*
X42968262Y10000459D01*
X42980772Y9992849D01*
X43004579Y9972823D01*
X43034707Y9944588D01*
X43037031Y9942308D01*
X43067359Y9913648D01*
X43091647Y9892879D01*
X43104957Y9884204D01*
X43105373Y9884158D01*
X43116246Y9874696D01*
X43121209Y9863806D01*
X43133037Y9842861D01*
X43154622Y9815229D01*
X43162698Y9806286D01*
X43184106Y9780910D01*
X43196436Y9761276D01*
X43197618Y9756859D01*
X43206092Y9745060D01*
X43209248Y9744598D01*
X43220027Y9735399D01*
X43220878Y9729888D01*
X43226058Y9710800D01*
X43238913Y9681788D01*
X43243040Y9673829D01*
X43257265Y9637997D01*
X43269147Y9592096D01*
X43273519Y9565914D01*
X43282444Y9519523D01*
X43297848Y9486651D01*
X43316217Y9464968D01*
X43346194Y9443241D01*
X43379172Y9431217D01*
X43407781Y9430569D01*
X43423420Y9440625D01*
X43436749Y9445031D01*
X43468721Y9449872D01*
X43514740Y9454597D01*
X43570208Y9458658D01*
X43578171Y9459126D01*
X43634697Y9463198D01*
X43682523Y9468250D01*
X43717002Y9473674D01*
X43733493Y9478865D01*
X43734077Y9479497D01*
X43747846Y9483889D01*
X43781988Y9488419D01*
X43833621Y9492836D01*
X43899861Y9496891D01*
X43972527Y9500137D01*
X44048520Y9503645D01*
X44117389Y9508028D01*
X44175088Y9512943D01*
X44217573Y9518045D01*
X44240648Y9522934D01*
X44268404Y9528211D01*
X44314973Y9531305D01*
X44376022Y9532376D01*
X44447221Y9531583D01*
X44524241Y9529085D01*
X44602750Y9525040D01*
X44678418Y9519610D01*
X44746914Y9512951D01*
X44803909Y9505224D01*
X44824503Y9501471D01*
X44875317Y9493753D01*
X44929943Y9489230D01*
X44949526Y9488737D01*
X44984061Y9487060D01*
X45006713Y9482744D01*
X45011904Y9478777D01*
X45022531Y9472884D01*
X45050503Y9466728D01*
X45089952Y9461572D01*
X45093319Y9461250D01*
X45155803Y9452132D01*
X45224445Y9436833D01*
X45290610Y9417676D01*
X45345660Y9396984D01*
X45362600Y9388815D01*
X45396139Y9376503D01*
X45423657Y9372437D01*
X45446125Y9369544D01*
X45454026Y9363714D01*
X45463761Y9354415D01*
X45488773Y9339331D01*
X45515073Y9325917D01*
X45559009Y9304022D01*
X45588225Y9286602D01*
X45609516Y9269289D01*
X45620130Y9258426D01*
X45668041Y9207437D01*
X45705372Y9170356D01*
X45736489Y9143269D01*
X45765757Y9122261D01*
X45785301Y9110334D01*
X45820038Y9089203D01*
X45847800Y9070518D01*
X45858820Y9061726D01*
X45877558Y9048905D01*
X45885516Y9046796D01*
X45900995Y9039310D01*
X45922672Y9021241D01*
X45923295Y9020628D01*
X45952681Y8994639D01*
X45983387Y8971200D01*
X46010361Y8949614D01*
X46046600Y8916781D01*
X46087040Y8877749D01*
X46126616Y8837569D01*
X46160263Y8801287D01*
X46182916Y8773954D01*
X46186538Y8768690D01*
X46224793Y8715958D01*
X46280863Y8650145D01*
X46311364Y8616872D01*
X46337365Y8586856D01*
X46355282Y8562027D01*
X46360791Y8549612D01*
X46367763Y8536087D01*
X46371694Y8535074D01*
X46381328Y8525034D01*
X46389933Y8500742D01*
X46390230Y8499423D01*
X46400356Y8469207D01*
X46417989Y8429734D01*
X46431675Y8403476D01*
X46449550Y8369892D01*
X46474509Y8321001D01*
X46503716Y8262534D01*
X46534339Y8200223D01*
X46563543Y8139800D01*
X46588495Y8086998D01*
X46593723Y8075688D01*
X46602173Y8050666D01*
X46611436Y8013679D01*
X46615430Y7994277D01*
X46625111Y7953237D01*
X46639875Y7901667D01*
X46656427Y7851024D01*
X46671540Y7803001D01*
X46680980Y7757540D01*
X46686061Y7705957D01*
X46688067Y7642211D01*
X46690492Y7573708D01*
X46695642Y7528011D01*
X46703553Y7504824D01*
X46704585Y7503644D01*
X46720301Y7482714D01*
X46724360Y7474041D01*
X46737429Y7467732D01*
X46767695Y7463705D01*
X46809211Y7461924D01*
X46856029Y7462357D01*
X46902202Y7464970D01*
X46941783Y7469728D01*
X46965750Y7475416D01*
X46995172Y7485043D01*
X47033847Y7496802D01*
X47047160Y7500674D01*
X47080826Y7511624D01*
X47105125Y7521872D01*
X47110544Y7525283D01*
X47131874Y7534454D01*
X47136943Y7534891D01*
X47155693Y7540728D01*
X47181695Y7553996D01*
X47513850Y7553996D01*
X47514815Y7522391D01*
X47515837Y7513331D01*
X47525944Y7460315D01*
X47543991Y7394867D01*
X47567287Y7325242D01*
X47593144Y7259698D01*
X47610951Y7221406D01*
X47628465Y7189883D01*
X47645136Y7171864D01*
X47665444Y7167136D01*
X47693873Y7175488D01*
X47734904Y7196707D01*
X47765029Y7214116D01*
X47819563Y7249055D01*
X47853782Y7278605D01*
X47869465Y7304652D01*
X47869659Y7325033D01*
X47861089Y7343841D01*
X47842601Y7376676D01*
X47816842Y7419435D01*
X47786462Y7468015D01*
X47754108Y7518313D01*
X47722431Y7566227D01*
X47694079Y7607653D01*
X47671699Y7638489D01*
X47657943Y7654631D01*
X47656022Y7655950D01*
X47635489Y7653805D01*
X47603888Y7639471D01*
X47567483Y7616267D01*
X47540460Y7594741D01*
X47521404Y7574826D01*
X47513850Y7553996D01*
X47181695Y7553996D01*
X47184392Y7555372D01*
X47195675Y7562159D01*
X47233503Y7582375D01*
X47279264Y7602127D01*
X47299219Y7609316D01*
X47335571Y7623388D01*
X47363401Y7637850D01*
X47372710Y7645266D01*
X47393410Y7659447D01*
X47419935Y7668771D01*
X47453586Y7682482D01*
X47495268Y7711443D01*
X47547641Y7757510D01*
X47548975Y7758769D01*
X47568497Y7774256D01*
X47579390Y7779122D01*
X47593008Y7785167D01*
X47619595Y7800908D01*
X47648711Y7819827D01*
X47682233Y7841183D01*
X47708828Y7855922D01*
X47721244Y7860532D01*
X47732910Y7868731D01*
X47733333Y7871635D01*
X47743549Y7880600D01*
X47768901Y7888968D01*
X47776945Y7890611D01*
X47811347Y7898570D01*
X47838279Y7907716D01*
X47840710Y7908885D01*
X47861013Y7910632D01*
X47894425Y7906007D01*
X47932379Y7897078D01*
X47966308Y7885912D01*
X47987647Y7874579D01*
X47989193Y7873038D01*
X48002813Y7863359D01*
X48026445Y7850118D01*
X48055484Y7823841D01*
X48081825Y7779047D01*
X48104311Y7720425D01*
X48121789Y7652667D01*
X48133102Y7580464D01*
X48137096Y7508506D01*
X48132616Y7441484D01*
X48130394Y7427955D01*
X48121123Y7389181D01*
X48106997Y7355720D01*
X48084602Y7322302D01*
X48050523Y7283660D01*
X48011240Y7244161D01*
X47972084Y7206559D01*
X47944170Y7182210D01*
X47922568Y7167648D01*
X47902348Y7159408D01*
X47884752Y7155216D01*
X47860220Y7147528D01*
X47849642Y7138697D01*
X47849633Y7138469D01*
X47839349Y7119397D01*
X47810992Y7095010D01*
X47768304Y7068064D01*
X47721703Y7044348D01*
X47679212Y7024451D01*
X47641360Y7006220D01*
X47617032Y6993961D01*
X47566621Y6968242D01*
X47502234Y6937085D01*
X47431362Y6904010D01*
X47361497Y6872537D01*
X47322390Y6855550D01*
X47284863Y6843479D01*
X47237406Y6833315D01*
X47208997Y6829336D01*
X47172526Y6824217D01*
X47147583Y6818218D01*
X47140201Y6813612D01*
X47129742Y6807597D01*
X47102870Y6801279D01*
X47079143Y6797761D01*
X47012317Y6789527D01*
X46965016Y6783042D01*
X46933629Y6777660D01*
X46914545Y6772734D01*
X46904153Y6767618D01*
X46902366Y6766117D01*
X46883202Y6758213D01*
X46860340Y6755678D01*
X46823344Y6747364D01*
X46794762Y6721376D01*
X46773577Y6676144D01*
X46758776Y6610098D01*
X46756635Y6595317D01*
X46749367Y6547300D01*
X46741808Y6506808D01*
X46735237Y6480411D01*
X46733308Y6475522D01*
X46726565Y6454124D01*
X46719478Y6418724D01*
X46715416Y6391051D01*
X46709258Y6354084D01*
X46701956Y6327453D01*
X46696900Y6318712D01*
X46688909Y6303371D01*
X46686629Y6284523D01*
X46685482Y6267217D01*
X46680899Y6247301D01*
X46671167Y6219654D01*
X46654572Y6179155D01*
X46639979Y6145102D01*
X46625217Y6108495D01*
X46613671Y6075726D01*
X46611820Y6069506D01*
X46603542Y6042146D01*
X46593060Y6013792D01*
X46577757Y5977958D01*
X46555015Y5928159D01*
X46553146Y5924131D01*
X46529749Y5873147D01*
X46514005Y5836948D01*
X46503409Y5809389D01*
X46495457Y5784331D01*
X46493873Y5778755D01*
X46484884Y5753261D01*
X46469427Y5715326D01*
X46452437Y5676701D01*
X46435591Y5637407D01*
X46423615Y5604944D01*
X46419138Y5586569D01*
X46413463Y5571270D01*
X46408803Y5569415D01*
X46400083Y5559253D01*
X46391965Y5534246D01*
X46390831Y5528710D01*
X46383022Y5501869D01*
X46373668Y5488380D01*
X46372091Y5488004D01*
X46361953Y5478712D01*
X46360988Y5472343D01*
X46353627Y5455032D01*
X46334962Y5428993D01*
X46323191Y5415333D01*
X46296588Y5385865D01*
X46277013Y5362421D01*
X46259841Y5338549D01*
X46240449Y5307795D01*
X46214211Y5263705D01*
X46212666Y5261086D01*
X46185233Y5217222D01*
X46157248Y5176790D01*
X46134264Y5147760D01*
X46132030Y5145341D01*
X46107853Y5117365D01*
X46089878Y5092239D01*
X46087682Y5088333D01*
X46067724Y5063680D01*
X46053511Y5053020D01*
X46033416Y5039685D01*
X46005944Y5017754D01*
X45968398Y4984916D01*
X45918079Y4938863D01*
X45895080Y4917448D01*
X45857532Y4884961D01*
X45820099Y4856785D01*
X45791116Y4839146D01*
X45754702Y4817064D01*
X45725797Y4790729D01*
X45710616Y4766095D01*
X45709706Y4761127D01*
X45702182Y4744300D01*
X45685930Y4722179D01*
X45668189Y4703591D01*
X45657264Y4697162D01*
X45642369Y4692597D01*
X45616029Y4681358D01*
X45610637Y4678836D01*
X45583048Y4667643D01*
X45563906Y4668141D01*
X45542006Y4680173D01*
X45520863Y4697033D01*
X45511996Y4710076D01*
X45511996Y4710130D01*
X45502858Y4719816D01*
X45498208Y4720422D01*
X45480352Y4727780D01*
X45459565Y4743772D01*
X45442338Y4757036D01*
X45423229Y4761795D01*
X45393977Y4759158D01*
X45372910Y4755402D01*
X45321432Y4748407D01*
X45262920Y4744735D01*
X45204060Y4744340D01*
X45151538Y4747172D01*
X45112040Y4753183D01*
X45099269Y4757365D01*
X45075784Y4764119D01*
X45045096Y4764078D01*
X45000293Y4757107D01*
X44991144Y4755298D01*
X44905364Y4743109D01*
X44811402Y4738286D01*
X44717856Y4740762D01*
X44633326Y4750467D01*
X44595350Y4758459D01*
X44551366Y4769244D01*
X44523226Y4773982D01*
X44504341Y4772758D01*
X44488119Y4765662D01*
X44479050Y4760007D01*
X44447649Y4735510D01*
X44422755Y4710958D01*
X44408843Y4696617D01*
X44394174Y4688683D01*
X44372588Y4686064D01*
X44337927Y4687672D01*
X44306454Y4690378D01*
X44252736Y4697006D01*
X44216778Y4706246D01*
X44193104Y4719614D01*
X44189538Y4722751D01*
X44167745Y4738316D01*
X44143244Y4741153D01*
X44119758Y4737098D01*
X44095899Y4734363D01*
X44052609Y4731941D01*
X43993715Y4729942D01*
X43923044Y4728478D01*
X43844426Y4727661D01*
X43790750Y4727530D01*
X43693884Y4727918D01*
X43616570Y4729062D01*
X43555105Y4731169D01*
X43505788Y4734445D01*
X43464916Y4739098D01*
X43428789Y4745334D01*
X43413668Y4748581D01*
X43368837Y4757470D01*
X43325142Y4762855D01*
X43276108Y4765087D01*
X43215262Y4764517D01*
X43157807Y4762456D01*
X43034507Y4757029D01*
X42913187Y4751354D01*
X42797364Y4745615D01*
X42690554Y4739999D01*
X42596275Y4734689D01*
X42518043Y4729872D01*
X42459375Y4725733D01*
X42457180Y4725560D01*
X42397715Y4722125D01*
X42353334Y4723201D01*
X42316210Y4729292D01*
X42292175Y4736209D01*
X42255316Y4747160D01*
X42225560Y4754071D01*
X42215193Y4755312D01*
X42192211Y4749250D01*
X42165986Y4734905D01*
X42145502Y4718039D01*
X42139285Y4706624D01*
X42131899Y4689616D01*
X42124507Y4680723D01*
X42078786Y4650349D01*
X42025788Y4640240D01*
X41971194Y4651341D01*
X41964834Y4654130D01*
X41937009Y4669821D01*
X41920391Y4682418D01*
X41901419Y4695115D01*
X41893393Y4697162D01*
X41876680Y4704624D01*
X41862905Y4716019D01*
X41846929Y4726408D01*
X41822250Y4730738D01*
X41782662Y4729841D01*
X41767788Y4728744D01*
X41727950Y4727166D01*
X41670865Y4727133D01*
X41600177Y4728456D01*
X41519526Y4730947D01*
X41432555Y4734419D01*
X41342905Y4738682D01*
X41254219Y4743549D01*
X41170136Y4748833D01*
X41094301Y4754344D01*
X41030353Y4759895D01*
X40981935Y4765298D01*
X40952689Y4770364D01*
X40950627Y4770945D01*
X40915669Y4779213D01*
X40878170Y4782082D01*
X40830341Y4779808D01*
X40793621Y4776100D01*
X40744055Y4770041D01*
X40710566Y4763413D01*
X40686092Y4753283D01*
X40663570Y4736720D01*
X40635938Y4710791D01*
X40635659Y4710520D01*
X40603429Y4680891D01*
X40578885Y4664599D01*
X40554081Y4657754D01*
X40525174Y4656457D01*
X40469100Y4664960D01*
X40425109Y4691755D01*
X40390330Y4738766D01*
X40384064Y4751103D01*
X40357018Y4792941D01*
X40319737Y4832383D01*
X40279126Y4863160D01*
X40243589Y4878695D01*
X40202554Y4893037D01*
X40151707Y4918516D01*
X40098493Y4950674D01*
X40050354Y4985053D01*
X40017727Y5013991D01*
X39989950Y5037697D01*
X39955797Y5060472D01*
X39952345Y5062418D01*
X39920536Y5081900D01*
X39894975Y5100764D01*
X39892339Y5103123D01*
X39857662Y5133901D01*
X39836059Y5149225D01*
X39831302Y5150733D01*
X39815987Y5158694D01*
X39789703Y5179696D01*
X39756960Y5209422D01*
X39722271Y5243552D01*
X39690147Y5277767D01*
X39665098Y5307750D01*
X39660058Y5314667D01*
X39643507Y5337958D01*
X39618462Y5372671D01*
X39590205Y5411488D01*
X39588876Y5413305D01*
X39558479Y5456779D01*
X39529570Y5501331D01*
X39509495Y5535387D01*
X39492182Y5566170D01*
X39478812Y5587496D01*
X39474667Y5592642D01*
X39466149Y5607161D01*
X39458562Y5627565D01*
X39449311Y5651564D01*
X39442456Y5662455D01*
X39434032Y5675436D01*
X39419441Y5703037D01*
X39401948Y5738615D01*
X39384816Y5775526D01*
X39371310Y5807128D01*
X39371032Y5807830D01*
X39363568Y5828904D01*
X39351290Y5865799D01*
X39336305Y5912131D01*
X39328797Y5935761D01*
X39313599Y5981523D01*
X39300072Y6018016D01*
X39290182Y6040130D01*
X39287018Y6044308D01*
X39279750Y6057615D01*
X39278296Y6070633D01*
X39272919Y6100820D01*
X39267962Y6113277D01*
X39258443Y6139344D01*
X39246559Y6182808D01*
X39233522Y6238083D01*
X39220540Y6299580D01*
X39208822Y6361715D01*
X39199578Y6418899D01*
X39196102Y6445236D01*
X39184595Y6546947D01*
X39175965Y6635000D01*
X39169823Y6716200D01*
X39165779Y6797353D01*
X39163442Y6885265D01*
X39162424Y6986740D01*
X39162350Y7014812D01*
X39301644Y7014812D01*
X39302248Y6934895D01*
X39303886Y6857881D01*
X39306373Y6788572D01*
X39309530Y6731766D01*
X39313174Y6692267D01*
X39314100Y6685898D01*
X39320743Y6642049D01*
X39328838Y6583795D01*
X39337203Y6519840D01*
X39342559Y6476558D01*
X39350990Y6413733D01*
X39360946Y6350553D01*
X39370983Y6295738D01*
X39377233Y6267217D01*
X39389047Y6217990D01*
X39400367Y6168911D01*
X39406879Y6139287D01*
X39417548Y6094993D01*
X39431254Y6045706D01*
X39436439Y6028801D01*
X39454106Y5981760D01*
X39481243Y5919855D01*
X39515264Y5848114D01*
X39553579Y5771564D01*
X39593602Y5695231D01*
X39632744Y5624143D01*
X39668418Y5563326D01*
X39698035Y5517808D01*
X39703062Y5510904D01*
X39731106Y5472496D01*
X39752851Y5440957D01*
X39765142Y5420951D01*
X39766757Y5416784D01*
X39775130Y5402632D01*
X39797909Y5376886D01*
X39831590Y5342791D01*
X39872668Y5303591D01*
X39917636Y5262530D01*
X39962990Y5222853D01*
X40005224Y5187805D01*
X40040833Y5160628D01*
X40051306Y5153429D01*
X40089416Y5127939D01*
X40119585Y5107045D01*
X40136864Y5094200D01*
X40138919Y5092286D01*
X40153610Y5081828D01*
X40187819Y5063036D01*
X40242119Y5035612D01*
X40317086Y4999258D01*
X40330814Y4992699D01*
X40390951Y4962468D01*
X40433112Y4936825D01*
X40461233Y4912557D01*
X40479250Y4886452D01*
X40488384Y4864087D01*
X40504088Y4836286D01*
X40523997Y4824873D01*
X40542448Y4831354D01*
X40551455Y4847312D01*
X40565959Y4869488D01*
X40589132Y4889598D01*
X40606628Y4898782D01*
X40628030Y4903886D01*
X40658765Y4905345D01*
X40704258Y4903597D01*
X40736961Y4901465D01*
X40773819Y4899382D01*
X40830811Y4896808D01*
X40904818Y4893857D01*
X40992722Y4890639D01*
X41091404Y4887268D01*
X41197745Y4883856D01*
X41308628Y4880513D01*
X41365888Y4878872D01*
X41501899Y4874754D01*
X41620061Y4870568D01*
X41719433Y4866362D01*
X41799076Y4862184D01*
X41858053Y4858081D01*
X41895424Y4854102D01*
X41908811Y4851185D01*
X41937133Y4832569D01*
X41964209Y4805086D01*
X41966241Y4802417D01*
X41993877Y4774610D01*
X42018365Y4769238D01*
X42038609Y4786340D01*
X42045327Y4799616D01*
X42065203Y4828934D01*
X42093010Y4852462D01*
X42100243Y4856028D01*
X42110077Y4859142D01*
X42124006Y4861833D01*
X42143528Y4864127D01*
X42170139Y4866052D01*
X42205334Y4867633D01*
X42250611Y4868898D01*
X42307466Y4869874D01*
X42377394Y4870588D01*
X42461894Y4871067D01*
X42562459Y4871338D01*
X42680588Y4871428D01*
X42817776Y4871363D01*
X42975520Y4871171D01*
X43118867Y4870941D01*
X43270330Y4870664D01*
X43416246Y4870360D01*
X43554780Y4870037D01*
X43684097Y4869699D01*
X43802362Y4869352D01*
X43907739Y4869003D01*
X43998393Y4868658D01*
X44072489Y4868322D01*
X44128191Y4868002D01*
X44163664Y4867703D01*
X44175020Y4867523D01*
X44237905Y4858297D01*
X44285543Y4835144D01*
X44313540Y4802881D01*
X44329292Y4789909D01*
X44350848Y4786505D01*
X44368112Y4792768D01*
X44372252Y4802296D01*
X44379128Y4816366D01*
X44396287Y4840016D01*
X44402982Y4848198D01*
X44433712Y4884719D01*
X44562895Y4877445D01*
X44604411Y4876201D01*
X44664279Y4875900D01*
X44738749Y4876439D01*
X44824070Y4877712D01*
X44916492Y4879616D01*
X45012265Y4882045D01*
X45107639Y4884896D01*
X45198864Y4888064D01*
X45282189Y4891444D01*
X45353866Y4894933D01*
X45410143Y4898426D01*
X45447270Y4901818D01*
X45449685Y4902134D01*
X45480358Y4904299D01*
X45503604Y4898195D01*
X45528925Y4880292D01*
X45543819Y4867185D01*
X45589778Y4825663D01*
X45641020Y4884191D01*
X45680486Y4923850D01*
X45727698Y4963827D01*
X45758341Y4985971D01*
X45816146Y5029049D01*
X45881163Y5086283D01*
X45950194Y5154007D01*
X46020040Y5228550D01*
X46087500Y5306247D01*
X46149375Y5383428D01*
X46202466Y5456426D01*
X46243574Y5521573D01*
X46267263Y5569415D01*
X46288429Y5621542D01*
X46306801Y5665146D01*
X46326039Y5708594D01*
X46349805Y5760252D01*
X46365258Y5793326D01*
X46384609Y5836634D01*
X46399299Y5873338D01*
X46406940Y5897327D01*
X46407508Y5901482D01*
X46412619Y5924509D01*
X46423671Y5950876D01*
X46434963Y5976963D01*
X46450687Y6018818D01*
X46469341Y6071816D01*
X46489421Y6131333D01*
X46509424Y6192741D01*
X46527848Y6251417D01*
X46543190Y6302734D01*
X46553947Y6342068D01*
X46558616Y6364792D01*
X46558699Y6366443D01*
X46562967Y6397890D01*
X46571298Y6426373D01*
X46583247Y6465751D01*
X46596070Y6521852D01*
X46608558Y6588232D01*
X46619499Y6658449D01*
X46627685Y6726058D01*
X46627825Y6727465D01*
X46633810Y6774984D01*
X46641275Y6815935D01*
X46648794Y6842787D01*
X46650235Y6845908D01*
X46655374Y6868120D01*
X46659277Y6912752D01*
X46661905Y6978998D01*
X46663218Y7066048D01*
X46663369Y7114025D01*
X46663280Y7147472D01*
X47000640Y7147472D01*
X47001148Y7083096D01*
X47002550Y7026955D01*
X47004670Y6983137D01*
X47007328Y6955731D01*
X47009336Y6948570D01*
X47028386Y6943564D01*
X47065799Y6945528D01*
X47117889Y6954009D01*
X47180976Y6968556D01*
X47188962Y6970648D01*
X47229981Y6983717D01*
X47260285Y6997551D01*
X47273580Y7008964D01*
X47274153Y7030360D01*
X47267407Y7062598D01*
X47263666Y7074330D01*
X47251035Y7112932D01*
X47236476Y7160998D01*
X47227686Y7191805D01*
X47208844Y7256401D01*
X47190927Y7311230D01*
X47175377Y7352217D01*
X47163632Y7375284D01*
X47162281Y7376955D01*
X47145131Y7380293D01*
X47111278Y7374880D01*
X47065159Y7361669D01*
X47026808Y7347849D01*
X47017118Y7343292D01*
X47010174Y7336004D01*
X47005519Y7322483D01*
X47002695Y7299227D01*
X47001246Y7262736D01*
X47000713Y7209506D01*
X47000640Y7147472D01*
X46663280Y7147472D01*
X46663142Y7199512D01*
X46662106Y7265776D01*
X46659727Y7316853D01*
X46655472Y7356778D01*
X46648808Y7389588D01*
X46639201Y7419318D01*
X46626117Y7450003D01*
X46616195Y7470926D01*
X46603717Y7503743D01*
X46589284Y7552478D01*
X46574754Y7610105D01*
X46561983Y7669597D01*
X46558011Y7691047D01*
X46550499Y7729618D01*
X46543444Y7758935D01*
X46539343Y7770583D01*
X46532248Y7788379D01*
X46521283Y7823063D01*
X46508117Y7868935D01*
X46494417Y7920292D01*
X46487517Y7947757D01*
X46476929Y7978916D01*
X46457218Y8025966D01*
X46430322Y8085077D01*
X46398183Y8152420D01*
X46362738Y8224168D01*
X46325928Y8296491D01*
X46289693Y8365559D01*
X46255972Y8427546D01*
X46226704Y8478620D01*
X46203830Y8514954D01*
X46192943Y8529259D01*
X46162965Y8563141D01*
X46135129Y8596097D01*
X46124966Y8608766D01*
X46104362Y8634878D01*
X46088620Y8654186D01*
X46087682Y8655286D01*
X46074222Y8672322D01*
X46053330Y8700111D01*
X46042139Y8715340D01*
X46006887Y8758239D01*
X45959948Y8807429D01*
X45904468Y8860354D01*
X45843591Y8914463D01*
X45780462Y8967201D01*
X45718226Y9016016D01*
X45660028Y9058354D01*
X45609012Y9091661D01*
X45568323Y9113386D01*
X45542555Y9120954D01*
X45522329Y9119990D01*
X45510070Y9111236D01*
X45501279Y9089152D01*
X45494564Y9061863D01*
X45465839Y8987602D01*
X45415803Y8918773D01*
X45346181Y8857590D01*
X45323239Y8842019D01*
X45297208Y8827635D01*
X45269827Y8819174D01*
X45233755Y8815180D01*
X45183048Y8814195D01*
X45132599Y8815066D01*
X45097559Y8818842D01*
X45070106Y8827264D01*
X45042417Y8842075D01*
X45033831Y8847430D01*
X44982007Y8890102D01*
X44933470Y8947368D01*
X44894618Y9010773D01*
X44876115Y9055859D01*
X44867113Y9100105D01*
X44861224Y9162210D01*
X44858937Y9236922D01*
X44858926Y9241022D01*
X44858743Y9371283D01*
X44816116Y9385753D01*
X44785140Y9391960D01*
X44735152Y9396755D01*
X44670374Y9399832D01*
X44607394Y9400868D01*
X44539538Y9400709D01*
X44491452Y9399401D01*
X44459663Y9396614D01*
X44440693Y9392019D01*
X44431069Y9385286D01*
X44430214Y9384067D01*
X44425287Y9365183D01*
X44421443Y9329339D01*
X44419249Y9282831D01*
X44418950Y9259299D01*
X44418049Y9205203D01*
X44414308Y9165395D01*
X44405850Y9130923D01*
X44390801Y9092835D01*
X44378381Y9065705D01*
X44344491Y9000104D01*
X44310518Y8952727D01*
X44271400Y8920003D01*
X44222072Y8898361D01*
X44157472Y8884230D01*
X44112598Y8878250D01*
X44033673Y8876121D01*
X43967595Y8890725D01*
X43909657Y8923537D01*
X43877605Y8951815D01*
X43836240Y8997754D01*
X43807878Y9042506D01*
X43790351Y9092132D01*
X43781489Y9152696D01*
X43779120Y9227056D01*
X43777910Y9286746D01*
X43774422Y9328189D01*
X43768870Y9349272D01*
X43766531Y9351435D01*
X43747520Y9352826D01*
X43711394Y9351701D01*
X43664099Y9348584D01*
X43611580Y9343998D01*
X43559783Y9338467D01*
X43514654Y9332514D01*
X43482139Y9326663D01*
X43480312Y9326228D01*
X43439027Y9318379D01*
X43399474Y9314273D01*
X43393086Y9314108D01*
X43357436Y9311390D01*
X43335807Y9300745D01*
X43325199Y9277830D01*
X43322615Y9238301D01*
X43323307Y9213051D01*
X43322780Y9142318D01*
X43316651Y9064500D01*
X43305999Y8988435D01*
X43291904Y8922965D01*
X43285153Y8900567D01*
X43247399Y8818436D01*
X43190865Y8735893D01*
X43160861Y8700820D01*
X43132070Y8666213D01*
X43098074Y8620888D01*
X43065722Y8574020D01*
X43062475Y8569037D01*
X43035217Y8524728D01*
X43020178Y8493656D01*
X43015307Y8470692D01*
X43017110Y8455626D01*
X43024876Y8408628D01*
X43018407Y8373609D01*
X42995633Y8342723D01*
X42984615Y8332476D01*
X42964982Y8312061D01*
X42947678Y8285901D01*
X42931428Y8250692D01*
X42914958Y8203127D01*
X42896994Y8139899D01*
X42876260Y8057702D01*
X42872174Y8040798D01*
X42859706Y7989883D01*
X42848006Y7943710D01*
X42838979Y7909736D01*
X42836544Y7901237D01*
X42828259Y7872874D01*
X42816201Y7830758D01*
X42802846Y7783543D01*
X42801604Y7779122D01*
X42788430Y7734223D01*
X42771065Y7677871D01*
X42751353Y7615748D01*
X42731141Y7553534D01*
X42712270Y7496911D01*
X42696587Y7451560D01*
X42686448Y7424406D01*
X42643691Y7329718D01*
X42599376Y7252882D01*
X42550256Y7188551D01*
X42529824Y7166446D01*
X42492455Y7129470D01*
X42463706Y7106077D01*
X42437126Y7092132D01*
X42406261Y7083505D01*
X42397642Y7081793D01*
X42358325Y7072932D01*
X42325797Y7063177D01*
X42314187Y7058301D01*
X42295599Y7054623D01*
X42257229Y7051661D01*
X42202544Y7049417D01*
X42135010Y7047893D01*
X42058095Y7047089D01*
X41975266Y7047008D01*
X41889989Y7047650D01*
X41805732Y7049017D01*
X41725961Y7051111D01*
X41654144Y7053932D01*
X41593747Y7057483D01*
X41586858Y7058003D01*
X41484764Y7066547D01*
X41359695Y7078077D01*
X41211744Y7092584D01*
X41041002Y7110058D01*
X40987911Y7115609D01*
X40924253Y7120948D01*
X40850153Y7125144D01*
X40778422Y7127524D01*
X40755311Y7127809D01*
X40697730Y7129268D01*
X40642819Y7132701D01*
X40598552Y7137518D01*
X40580860Y7140721D01*
X40553701Y7145723D01*
X40511488Y7151378D01*
X40453017Y7157795D01*
X40377087Y7165087D01*
X40282492Y7173364D01*
X40168029Y7182737D01*
X40032495Y7193318D01*
X39910782Y7202524D01*
X39786942Y7212412D01*
X39682789Y7222193D01*
X39594755Y7232305D01*
X39519274Y7243188D01*
X39452779Y7255278D01*
X39414962Y7263467D01*
X39372931Y7271663D01*
X39338416Y7275738D01*
X39319015Y7274830D01*
X39313184Y7269563D01*
X39308782Y7256974D01*
X39305621Y7234276D01*
X39303515Y7198681D01*
X39302278Y7147399D01*
X39301725Y7077644D01*
X39301644Y7014812D01*
X39162350Y7014812D01*
X39162296Y7035388D01*
X39161676Y7137073D01*
X39160022Y7216870D01*
X39157268Y7276129D01*
X39153351Y7316204D01*
X39148205Y7338445D01*
X39147742Y7339487D01*
X39129509Y7364269D01*
X39100115Y7391607D01*
X39086140Y7401975D01*
X39052003Y7430737D01*
X39016610Y7468896D01*
X38999090Y7491847D01*
X38975511Y7530160D01*
X38962393Y7565466D01*
X38956017Y7609065D01*
X38954801Y7626481D01*
X38950973Y7667518D01*
X38945452Y7699406D01*
X38939805Y7714575D01*
X38935085Y7726811D01*
X39080585Y7726811D01*
X39086371Y7647505D01*
X39104974Y7583638D01*
X39138266Y7533340D01*
X39188118Y7494738D01*
X39256401Y7465960D01*
X39344984Y7445136D01*
X39365521Y7441726D01*
X39414789Y7433447D01*
X39462103Y7424580D01*
X39493452Y7417896D01*
X39530514Y7410952D01*
X39586374Y7403370D01*
X39661955Y7395055D01*
X39758178Y7385912D01*
X39875967Y7375846D01*
X39987728Y7366957D01*
X40165693Y7352563D01*
X40326697Y7338195D01*
X40477029Y7323263D01*
X40615750Y7308009D01*
X40685928Y7301016D01*
X40768890Y7294417D01*
X40854163Y7288964D01*
X40929761Y7285462D01*
X40996397Y7282480D01*
X41060589Y7278395D01*
X41115901Y7273695D01*
X41155899Y7268870D01*
X41162362Y7267774D01*
X41207477Y7261028D01*
X41274635Y7253370D01*
X41362641Y7244913D01*
X41470299Y7235766D01*
X41596415Y7226041D01*
X41668268Y7220837D01*
X41719486Y7218204D01*
X41788155Y7216130D01*
X41868471Y7214712D01*
X41954629Y7214044D01*
X42040825Y7214225D01*
X42057939Y7214375D01*
X42319678Y7216998D01*
X42369441Y7248412D01*
X42395346Y7269588D01*
X42425552Y7301210D01*
X42455523Y7337537D01*
X42480725Y7372833D01*
X42496621Y7401359D01*
X42499816Y7413367D01*
X42504264Y7428067D01*
X42515132Y7454020D01*
X42516741Y7457538D01*
X42529249Y7488138D01*
X42546956Y7536139D01*
X42568242Y7596702D01*
X42591489Y7664990D01*
X42615079Y7736166D01*
X42637393Y7805390D01*
X42656812Y7867825D01*
X42671718Y7918633D01*
X42674915Y7930312D01*
X42691272Y7992917D01*
X42708357Y8060784D01*
X42725017Y8129060D01*
X42740099Y8192889D01*
X42752452Y8247418D01*
X42760921Y8287791D01*
X42763970Y8305381D01*
X42769750Y8348993D01*
X42695841Y8349061D01*
X42641255Y8351153D01*
X42582509Y8356431D01*
X42552151Y8360592D01*
X42502642Y8367094D01*
X42465294Y8366026D01*
X42435885Y8354621D01*
X42410192Y8330110D01*
X42383993Y8289726D01*
X42353064Y8230700D01*
X42352610Y8229794D01*
X42324294Y8171570D01*
X42296160Y8110893D01*
X42272207Y8056518D01*
X42260957Y8029167D01*
X42232457Y7965117D01*
X42199783Y7905384D01*
X42166197Y7855143D01*
X42134964Y7819571D01*
X42122621Y7809778D01*
X42089468Y7793066D01*
X42061994Y7783859D01*
X42033306Y7774692D01*
X42015790Y7765732D01*
X41998795Y7757970D01*
X41965866Y7746828D01*
X41923647Y7734525D01*
X41916935Y7732720D01*
X41824344Y7715917D01*
X41723514Y7710700D01*
X41626466Y7717468D01*
X41598488Y7722168D01*
X41525956Y7735083D01*
X41469554Y7741187D01*
X41423120Y7740303D01*
X41380490Y7732252D01*
X41335501Y7716857D01*
X41329359Y7714389D01*
X41242028Y7687536D01*
X41153685Y7676152D01*
X41071576Y7680976D01*
X41048887Y7685785D01*
X40986974Y7699070D01*
X40912903Y7710228D01*
X40824571Y7719433D01*
X40719870Y7726858D01*
X40596696Y7732674D01*
X40452943Y7737055D01*
X40412225Y7737974D01*
X40292956Y7740913D01*
X40193839Y7744485D01*
X40111766Y7749101D01*
X40043630Y7755173D01*
X39986323Y7763111D01*
X39936737Y7773327D01*
X39891766Y7786231D01*
X39848301Y7802235D01*
X39813278Y7817210D01*
X39762592Y7837433D01*
X39702167Y7858019D01*
X39645020Y7874537D01*
X39644642Y7874633D01*
X39565765Y7897490D01*
X39506117Y7922187D01*
X39461674Y7951239D01*
X39428416Y7987161D01*
X39406745Y8023352D01*
X39387152Y8068315D01*
X39378243Y8108886D01*
X39378402Y8122197D01*
X39536190Y8122197D01*
X39540635Y8093028D01*
X39552006Y8074333D01*
X39576380Y8058336D01*
X39592307Y8050381D01*
X39637979Y8032732D01*
X39688428Y8019419D01*
X39702792Y8016954D01*
X39745495Y8007234D01*
X39795878Y7990480D01*
X39831967Y7975332D01*
X39871431Y7957039D01*
X39906375Y7942193D01*
X39939881Y7930349D01*
X39975027Y7921064D01*
X40014896Y7913893D01*
X40062567Y7908391D01*
X40121120Y7904114D01*
X40193638Y7900617D01*
X40283199Y7897457D01*
X40392885Y7894188D01*
X40394779Y7894133D01*
X40541773Y7889099D01*
X40674301Y7882911D01*
X40790908Y7875687D01*
X40890138Y7867549D01*
X40970536Y7858616D01*
X41030648Y7849008D01*
X41069017Y7838846D01*
X41070092Y7838425D01*
X41128026Y7827072D01*
X41197728Y7834827D01*
X41276960Y7860572D01*
X41366549Y7886980D01*
X41459957Y7896511D01*
X41549258Y7888575D01*
X41574353Y7882619D01*
X41606590Y7876786D01*
X41653898Y7871981D01*
X41708093Y7868947D01*
X41731359Y7868373D01*
X41818152Y7871311D01*
X41894157Y7884359D01*
X41970491Y7909808D01*
X42005540Y7924842D01*
X42035594Y7943061D01*
X42062514Y7966810D01*
X42079224Y7989341D01*
X42081529Y7997318D01*
X42086442Y8012218D01*
X42098342Y8039609D01*
X42104395Y8052428D01*
X42118334Y8084612D01*
X42126454Y8109768D01*
X42127260Y8115303D01*
X42132321Y8131840D01*
X42145750Y8164238D01*
X42165419Y8207603D01*
X42185956Y8250446D01*
X42213381Y8308565D01*
X42230776Y8351886D01*
X42239877Y8385673D01*
X42242422Y8415192D01*
X42242290Y8421250D01*
X42243378Y8464141D01*
X42252527Y8490558D01*
X42272530Y8506680D01*
X42282912Y8511149D01*
X42305272Y8531451D01*
X42317542Y8556785D01*
X42489973Y8556785D01*
X42491571Y8531398D01*
X42500100Y8524920D01*
X42521800Y8520185D01*
X42559409Y8516917D01*
X42615661Y8514846D01*
X42666201Y8513978D01*
X42834937Y8511916D01*
X42888782Y8603763D01*
X42919066Y8652558D01*
X42951566Y8700401D01*
X42980381Y8738703D01*
X42986663Y8746179D01*
X43012412Y8777853D01*
X43031873Y8805611D01*
X43038692Y8818390D01*
X43041314Y8832051D01*
X43031704Y8836443D01*
X43004722Y8833733D01*
X43002944Y8833468D01*
X42970934Y8828951D01*
X42924422Y8822729D01*
X42871992Y8815946D01*
X42856608Y8813999D01*
X42775291Y8801811D01*
X42701743Y8787044D01*
X42639019Y8770624D01*
X42590176Y8753475D01*
X42558269Y8736522D01*
X42546354Y8720689D01*
X42546336Y8720107D01*
X42541826Y8703093D01*
X42530432Y8673849D01*
X42523926Y8659055D01*
X42500654Y8600854D01*
X42489973Y8556785D01*
X42317542Y8556785D01*
X42326178Y8574615D01*
X42329561Y8584171D01*
X42341334Y8621318D01*
X42345121Y8645423D01*
X42341120Y8665218D01*
X42331840Y8684990D01*
X42320516Y8715318D01*
X42318402Y8740016D01*
X42318927Y8742088D01*
X42329609Y8759383D01*
X42352339Y8787838D01*
X42382771Y8822112D01*
X42392214Y8832164D01*
X42447406Y8902637D01*
X42492282Y8984636D01*
X42523896Y9071210D01*
X42539301Y9155403D01*
X42540325Y9181673D01*
X42539641Y9206178D01*
X42536873Y9229211D01*
X42530728Y9254173D01*
X42519912Y9284467D01*
X42503132Y9323496D01*
X42479095Y9374664D01*
X42446507Y9441372D01*
X42425394Y9484054D01*
X42375859Y9581685D01*
X42334187Y9658731D01*
X42299758Y9716265D01*
X42271954Y9755361D01*
X42262770Y9765845D01*
X42225836Y9802961D01*
X42198755Y9824062D01*
X42176505Y9831015D01*
X42154063Y9825687D01*
X42133002Y9814089D01*
X42107756Y9796761D01*
X42093735Y9783788D01*
X42092725Y9781447D01*
X42085573Y9769790D01*
X42066442Y9745053D01*
X42038761Y9711576D01*
X42022896Y9693044D01*
X41982833Y9644668D01*
X41940930Y9590731D01*
X41905313Y9541744D01*
X41900726Y9535046D01*
X41868330Y9490002D01*
X41840376Y9459888D01*
X41810306Y9439138D01*
X41771558Y9422188D01*
X41764676Y9419659D01*
X41743795Y9407345D01*
X41728508Y9384371D01*
X41714853Y9345305D01*
X41696722Y9299736D01*
X41671468Y9255508D01*
X41658412Y9238234D01*
X41632412Y9211174D01*
X41609188Y9198180D01*
X41578179Y9194262D01*
X41565020Y9194109D01*
X41526112Y9197028D01*
X41498252Y9208880D01*
X41473950Y9229931D01*
X41452755Y9254859D01*
X41440294Y9282101D01*
X41433111Y9320479D01*
X41431083Y9339448D01*
X41424038Y9413142D01*
X41374664Y9416715D01*
X41346756Y9417182D01*
X41327723Y9410971D01*
X41314045Y9393949D01*
X41302202Y9361980D01*
X41290374Y9317688D01*
X41273769Y9277496D01*
X41247182Y9236938D01*
X41237769Y9226063D01*
X41212129Y9200838D01*
X41191030Y9189115D01*
X41164098Y9187039D01*
X41138194Y9189072D01*
X41087126Y9199228D01*
X41051730Y9220477D01*
X41029023Y9256248D01*
X41016021Y9309975D01*
X41013298Y9332777D01*
X41005356Y9413142D01*
X40939185Y9416609D01*
X40873013Y9420076D01*
X40861470Y9378270D01*
X40843179Y9329778D01*
X40816851Y9281283D01*
X40787285Y9240563D01*
X40762011Y9217081D01*
X40715981Y9199723D01*
X40666804Y9201957D01*
X40622730Y9223260D01*
X40619306Y9226086D01*
X40604006Y9240477D01*
X40594431Y9255335D01*
X40589244Y9276268D01*
X40587105Y9308883D01*
X40586676Y9358787D01*
X40586675Y9362739D01*
X40586185Y9414754D01*
X40583657Y9450424D01*
X40577500Y9476663D01*
X40566126Y9500383D01*
X40548877Y9527118D01*
X40528499Y9558126D01*
X40514776Y9580747D01*
X40511080Y9588666D01*
X40504539Y9601352D01*
X40498997Y9608436D01*
X40487557Y9622970D01*
X40465542Y9651920D01*
X40436197Y9690989D01*
X40405129Y9732697D01*
X40355586Y9796461D01*
X40315070Y9841513D01*
X40281637Y9869650D01*
X40253343Y9882672D01*
X40241460Y9884082D01*
X40225751Y9875850D01*
X40201924Y9855205D01*
X40175827Y9828334D01*
X40153306Y9801427D01*
X40140210Y9780670D01*
X40138919Y9775557D01*
X40132927Y9760963D01*
X40117271Y9732812D01*
X40095428Y9696742D01*
X40070879Y9658387D01*
X40047101Y9623383D01*
X40033661Y9605037D01*
X40016545Y9579150D01*
X39993227Y9538978D01*
X39965854Y9488779D01*
X39936571Y9432810D01*
X39907525Y9375330D01*
X39880863Y9320595D01*
X39858730Y9272863D01*
X39843274Y9236392D01*
X39836640Y9215439D01*
X39836538Y9214026D01*
X39832283Y9199825D01*
X39821893Y9174052D01*
X39820417Y9170669D01*
X39808143Y9140215D01*
X39792330Y9097625D01*
X39778576Y9058426D01*
X39763981Y9016297D01*
X39751067Y8980348D01*
X39743113Y8959570D01*
X39732982Y8935497D01*
X39718054Y8900145D01*
X39709359Y8879589D01*
X39695679Y8844441D01*
X39686983Y8816655D01*
X39685347Y8807077D01*
X39682152Y8789435D01*
X39673602Y8755556D01*
X39661251Y8711412D01*
X39654734Y8689348D01*
X39638650Y8634272D01*
X39623184Y8578743D01*
X39611106Y8532767D01*
X39608822Y8523444D01*
X39597743Y8477296D01*
X39586767Y8431849D01*
X39582176Y8412959D01*
X39565508Y8339090D01*
X39551784Y8267444D01*
X39541837Y8203276D01*
X39536496Y8151844D01*
X39536190Y8122197D01*
X39378402Y8122197D01*
X39378792Y8154715D01*
X39384603Y8197894D01*
X39396444Y8275046D01*
X39404904Y8339647D01*
X39409665Y8388746D01*
X39410410Y8419390D01*
X39409245Y8426684D01*
X39395983Y8438838D01*
X39369918Y8452180D01*
X39340836Y8462355D01*
X39322437Y8465294D01*
X39312648Y8455477D01*
X39297604Y8429890D01*
X39282540Y8398421D01*
X39265206Y8358960D01*
X39250382Y8325253D01*
X39242907Y8308288D01*
X39195245Y8192680D01*
X39154362Y8077975D01*
X39121380Y7968198D01*
X39097423Y7867372D01*
X39083614Y7779521D01*
X39080585Y7726811D01*
X38935085Y7726811D01*
X38932420Y7733718D01*
X38929692Y7763745D01*
X38931505Y7794604D01*
X38937743Y7816244D01*
X38941025Y7819827D01*
X38948231Y7834961D01*
X38952311Y7864241D01*
X38952655Y7876337D01*
X38954896Y7909568D01*
X38960500Y7932869D01*
X38962829Y7936709D01*
X38969589Y7951899D01*
X38980174Y7984684D01*
X38993058Y8030025D01*
X39004929Y8075688D01*
X39018438Y8127900D01*
X39030746Y8172016D01*
X39040383Y8202972D01*
X39045443Y8215248D01*
X39053920Y8232469D01*
X39065870Y8263260D01*
X39072522Y8282431D01*
X39088617Y8322290D01*
X39107543Y8357739D01*
X39114875Y8368317D01*
X39133226Y8403526D01*
X39137860Y8440035D01*
X39128236Y8469623D01*
X39121972Y8476359D01*
X39102313Y8483606D01*
X39065581Y8485387D01*
X39013632Y8482283D01*
X38955375Y8479867D01*
X38916343Y8485570D01*
X38893490Y8500788D01*
X38883773Y8526919D01*
X38882875Y8542313D01*
X38894077Y8568884D01*
X38927362Y8589613D01*
X38982247Y8604297D01*
X39050161Y8612210D01*
X39107584Y8616575D01*
X39146696Y8621802D01*
X39172392Y8630284D01*
X39189573Y8644416D01*
X39203113Y8666555D01*
X39366596Y8666555D01*
X39367877Y8641559D01*
X39372886Y8632062D01*
X39395359Y8619776D01*
X39426334Y8617235D01*
X39453749Y8624580D01*
X39461610Y8631022D01*
X39472100Y8652079D01*
X39481313Y8682935D01*
X39481574Y8684138D01*
X39480784Y8723981D01*
X39461988Y8753138D01*
X39428581Y8767091D01*
X39418806Y8767675D01*
X39400355Y8765078D01*
X39388534Y8753534D01*
X39379163Y8727416D01*
X39374214Y8707657D01*
X39366596Y8666555D01*
X39203113Y8666555D01*
X39203134Y8666590D01*
X39215161Y8692841D01*
X39238518Y8761596D01*
X39242296Y8818361D01*
X39226487Y8863718D01*
X39212281Y8881268D01*
X39196012Y8895774D01*
X39178443Y8905243D01*
X39153978Y8911051D01*
X39117022Y8914571D01*
X39066905Y8916982D01*
X39018557Y8919895D01*
X38980343Y8924047D01*
X38957229Y8928790D01*
X38952655Y8931848D01*
X38942870Y8940110D01*
X38928611Y8942125D01*
X38911571Y8946220D01*
X38910927Y8962756D01*
X38912473Y8968293D01*
X38922616Y8993655D01*
X38938289Y9009097D01*
X38966396Y9019759D01*
X38989047Y9025309D01*
X39024214Y9030279D01*
X39064590Y9029005D01*
X39117399Y9021078D01*
X39139531Y9016783D01*
X39201362Y9005654D01*
X39244936Y9002209D01*
X39274326Y9007627D01*
X39293607Y9023085D01*
X39306852Y9049760D01*
X39312205Y9066699D01*
X39323320Y9101563D01*
X39333547Y9127408D01*
X39337436Y9134368D01*
X39339817Y9148736D01*
X39341885Y9183242D01*
X39343563Y9234765D01*
X39344775Y9300185D01*
X39345445Y9376380D01*
X39345499Y9460230D01*
X39345479Y9465824D01*
X39345468Y9528682D01*
X39449867Y9528682D01*
X39452638Y9428822D01*
X39460243Y9349167D01*
X39468969Y9303864D01*
X39484015Y9227873D01*
X39485925Y9164424D01*
X39474769Y9106914D01*
X39471221Y9096233D01*
X39452247Y9010306D01*
X39451514Y8962511D01*
X39462197Y8945850D01*
X39486987Y8927880D01*
X39517607Y8913612D01*
X39541300Y8908184D01*
X39550460Y8917972D01*
X39565505Y8945260D01*
X39584260Y8985730D01*
X39602357Y9029455D01*
X39621688Y9079986D01*
X39637310Y9123510D01*
X39647456Y9154927D01*
X39650457Y9168329D01*
X39656750Y9187536D01*
X39660799Y9191375D01*
X39670879Y9206414D01*
X39678865Y9229859D01*
X39690371Y9264721D01*
X39711057Y9315136D01*
X39738611Y9376433D01*
X39770720Y9443943D01*
X39805071Y9512996D01*
X39839354Y9578920D01*
X39871253Y9637048D01*
X39898458Y9682708D01*
X39915034Y9706794D01*
X39937035Y9736610D01*
X39953060Y9761092D01*
X39956647Y9767858D01*
X39977764Y9807883D01*
X40008192Y9855827D01*
X40043401Y9905473D01*
X40078859Y9950602D01*
X40110037Y9984998D01*
X40123616Y9997009D01*
X40152455Y10016058D01*
X40180729Y10025645D01*
X40218396Y10028532D01*
X40236943Y10028452D01*
X40317215Y10016414D01*
X40389454Y9983939D01*
X40418329Y9962923D01*
X40435381Y9944971D01*
X40462555Y9912160D01*
X40496660Y9868699D01*
X40534501Y9818800D01*
X40572886Y9766675D01*
X40608623Y9716535D01*
X40638517Y9672590D01*
X40638916Y9671983D01*
X40667582Y9630603D01*
X40690061Y9605162D01*
X40711184Y9591113D01*
X40731561Y9584758D01*
X40751963Y9582894D01*
X40792177Y9581344D01*
X40849152Y9580103D01*
X40919835Y9579162D01*
X41001176Y9578516D01*
X41090122Y9578157D01*
X41183623Y9578079D01*
X41278627Y9578275D01*
X41372083Y9578738D01*
X41460938Y9579462D01*
X41542142Y9580439D01*
X41612643Y9581663D01*
X41669390Y9583127D01*
X41709330Y9584824D01*
X41729413Y9586747D01*
X41730310Y9586982D01*
X41744851Y9598296D01*
X41770247Y9624803D01*
X41803445Y9663054D01*
X41841387Y9709601D01*
X41859748Y9733050D01*
X41914246Y9802656D01*
X41957968Y9856089D01*
X41993598Y9896147D01*
X42023816Y9925629D01*
X42051305Y9947333D01*
X42078748Y9964057D01*
X42083579Y9966595D01*
X42147344Y9988270D01*
X42210474Y9987164D01*
X42273081Y9963195D01*
X42335274Y9916284D01*
X42397163Y9846348D01*
X42458859Y9753306D01*
X42514804Y9648740D01*
X42568545Y9537926D01*
X42611991Y9445022D01*
X42645826Y9367430D01*
X42670736Y9302556D01*
X42687405Y9247804D01*
X42696520Y9200576D01*
X42698765Y9158279D01*
X42694826Y9118315D01*
X42685387Y9078089D01*
X42674388Y9044120D01*
X42660436Y8993962D01*
X42659174Y8960024D01*
X42670546Y8943711D01*
X42678418Y8942431D01*
X42694744Y8945205D01*
X42728180Y8952442D01*
X42773280Y8962930D01*
X42808012Y8971341D01*
X42938478Y8995051D01*
X43025666Y9000110D01*
X43068240Y9000385D01*
X43100398Y9002960D01*
X43123604Y9010698D01*
X43139324Y9026463D01*
X43149021Y9053117D01*
X43154162Y9093524D01*
X43156210Y9150545D01*
X43156630Y9227045D01*
X43156660Y9256136D01*
X43155317Y9364700D01*
X43149786Y9454599D01*
X43138258Y9530307D01*
X43118924Y9596298D01*
X43089975Y9657045D01*
X43049602Y9717023D01*
X42995996Y9780704D01*
X42927348Y9852562D01*
X42907423Y9872528D01*
X42849233Y9929659D01*
X42802278Y9973096D01*
X42761961Y10006187D01*
X42723684Y10032277D01*
X42682848Y10054713D01*
X42634856Y10076839D01*
X42614920Y10085383D01*
X42563143Y10102108D01*
X42495368Y10116618D01*
X42418825Y10127956D01*
X42340742Y10135161D01*
X42268349Y10137276D01*
X42233763Y10135935D01*
X42120724Y10127653D01*
X42028573Y10120338D01*
X41954971Y10113739D01*
X41897579Y10107602D01*
X41854057Y10101675D01*
X41822066Y10095706D01*
X41799266Y10089443D01*
X41797646Y10088878D01*
X41758816Y10076104D01*
X41710566Y10061607D01*
X41679899Y10053025D01*
X41603301Y10031589D01*
X41543853Y10012656D01*
X41495939Y9993967D01*
X41453940Y9973263D01*
X41412242Y9948283D01*
X41400421Y9940589D01*
X41323777Y9896255D01*
X41257214Y9870755D01*
X41201745Y9864436D01*
X41185748Y9866686D01*
X41161272Y9878873D01*
X41126845Y9905015D01*
X41087450Y9941234D01*
X41079143Y9949623D01*
X41012063Y10009878D01*
X40933078Y10067020D01*
X40848520Y10117328D01*
X40764721Y10157078D01*
X40688015Y10182548D01*
X40679715Y10184440D01*
X40639939Y10194429D01*
X40588490Y10209277D01*
X40535596Y10226011D01*
X40528525Y10228380D01*
X40459867Y10246487D01*
X40380260Y10259375D01*
X40296225Y10266717D01*
X40214280Y10268185D01*
X40140946Y10263455D01*
X40082743Y10252199D01*
X40078598Y10250897D01*
X40029265Y10236829D01*
X39976097Y10224646D01*
X39957241Y10221200D01*
X39887295Y10202572D01*
X39811172Y10170426D01*
X39737559Y10129138D01*
X39675141Y10083082D01*
X39665197Y10074091D01*
X39619405Y10022306D01*
X39572487Y9953794D01*
X39528021Y9874605D01*
X39489587Y9790791D01*
X39474927Y9752376D01*
X39463819Y9717312D01*
X39456440Y9682370D01*
X39452113Y9641507D01*
X39450161Y9588680D01*
X39449867Y9528682D01*
X39345468Y9528682D01*
X39345464Y9551159D01*
X39346027Y9630036D01*
X39347097Y9699116D01*
X39348606Y9755055D01*
X39350484Y9794513D01*
X39352662Y9814146D01*
X39352726Y9814378D01*
X39368964Y9861221D01*
X39388491Y9905228D01*
X39396018Y9919048D01*
X39410038Y9944775D01*
X39414278Y9953424D01*
X39427930Y9975776D01*
X39440371Y9992201D01*
X39462307Y10018991D01*
X39478566Y10039236D01*
X39525015Y10095707D01*
X39570925Y10147916D01*
X39613457Y10192962D01*
X39649772Y10227945D01*
X39677033Y10249963D01*
X39690987Y10256319D01*
X39706582Y10262149D01*
X39708607Y10267197D01*
X39718441Y10277823D01*
X39742745Y10290276D01*
X39749312Y10292793D01*
X39775728Y10304360D01*
X39789466Y10314309D01*
X39790018Y10315882D01*
X39800082Y10323706D01*
X39824633Y10331623D01*
X39827815Y10332334D01*
X39857442Y10340551D01*
X39876883Y10349258D01*
X39877243Y10349530D01*
X39892985Y10355658D01*
X39926087Y10364866D01*
X39971089Y10375717D01*
X40004647Y10383077D01*
X40121462Y10401210D01*
X40243306Y10408432D01*
X40362966Y10404816D01*
G37*
%TO.C,R100*%
D12*
X6500000Y44060000D02*
X6500000Y43110000D01*
X6500000Y38320000D02*
X6500000Y39270000D01*
X5580000Y43110000D02*
X7420000Y43110000D01*
X7420000Y39270000D01*
X5580000Y39270000D01*
X5580000Y43110000D01*
%TO.C,POT3*%
X30580000Y12620000D02*
X30580000Y14000000D01*
X31960000Y12620000D02*
X30580000Y12620000D01*
X33230000Y15380000D02*
X38420000Y15380000D01*
X33230000Y12620000D02*
X33230000Y15380000D01*
X33230000Y12620000D02*
X38420000Y12620000D01*
X38420000Y12620000D02*
X38420000Y15380000D01*
%TO.C,R5*%
X13440000Y23000000D02*
X14390000Y23000000D01*
X19180000Y23000000D02*
X18230000Y23000000D01*
X14390000Y23920000D02*
X18230000Y23920000D01*
X18230000Y22080000D01*
X14390000Y22080000D01*
X14390000Y23920000D01*
%TO.C,Q3*%
X30650000Y34760000D02*
X30650000Y31160000D01*
X30650000Y34760000D02*
G75*
G02*
X31377205Y35284184I1850000J-1800000D01*
G01*
X31377205Y30635816D02*
G75*
G02*
X30650000Y31160000I1122795J2324184D01*
G01*
X33598807Y35316400D02*
G75*
G02*
X35100000Y32960000I-1098807J-2356400D01*
G01*
X35100000Y32960000D02*
G75*
G02*
X33598807Y30603600I-2600000J0D01*
G01*
%TO.C,J2*%
X18670000Y49330000D02*
X20000000Y49330000D01*
X18670000Y48000000D02*
X18670000Y49330000D01*
X21270000Y49330000D02*
X23870000Y49330000D01*
X21270000Y46670000D02*
X21270000Y49330000D01*
X21270000Y46670000D02*
X23870000Y46670000D01*
X23870000Y46670000D02*
X23870000Y49330000D01*
%TO.C,D100*%
X2030000Y41220000D02*
X4970000Y41220000D01*
X2030000Y41100000D02*
X4970000Y41100000D01*
X2030000Y40980000D02*
X4970000Y40980000D01*
X3500000Y46660000D02*
X3500000Y45640000D01*
X3500000Y39180000D02*
X3500000Y40200000D01*
X2030000Y45640000D02*
X4970000Y45640000D01*
X4970000Y40200000D01*
X2030000Y40200000D01*
X2030000Y45640000D01*
%TO.C,R1*%
X3500000Y14060000D02*
X3500000Y13110000D01*
X3500000Y8320000D02*
X3500000Y9270000D01*
X2580000Y13110000D02*
X4420000Y13110000D01*
X4420000Y9270000D01*
X2580000Y9270000D01*
X2580000Y13110000D01*
%TO.C,R12*%
X28630000Y40500000D02*
X29580000Y40500000D01*
X34370000Y40500000D02*
X33420000Y40500000D01*
X29580000Y41420000D02*
X33420000Y41420000D01*
X33420000Y39580000D01*
X29580000Y39580000D01*
X29580000Y41420000D01*
%TO.C,R7*%
X18940000Y30500000D02*
X19890000Y30500000D01*
X24680000Y30500000D02*
X23730000Y30500000D01*
X19890000Y31420000D02*
X23730000Y31420000D01*
X23730000Y29580000D01*
X19890000Y29580000D01*
X19890000Y31420000D01*
%TO.C,TP2*%
X5800000Y33700000D02*
X7200000Y33700000D01*
X5800000Y32300000D02*
X5800000Y33700000D01*
X7200000Y33700000D02*
X7200000Y32300000D01*
X7200000Y32300000D02*
X5800000Y32300000D01*
%TO.C,TP5*%
X26300000Y45200000D02*
X27700000Y45200000D01*
X26300000Y43800000D02*
X26300000Y45200000D01*
X27700000Y45200000D02*
X27700000Y43800000D01*
X27700000Y43800000D02*
X26300000Y43800000D01*
%TD*%
M02*
