M48
; DRILL file KiCad 10.0.1 date 2026-05-11T07:37:34
; FORMAT={-:-/ absolute / metric / decimal}
; #@! TF.CreationDate,2026-05-11T07:37:34+02:00
; #@! TF.GenerationSoftware,Kicad,Pcbnew,10.0.1
; #@! TF.FileFunction,Plated,1,2,PTH
FMAT,2
METRIC
; #@! TA.AperFunction,Plated,PTH,ViaDrill
T1C0.300
; #@! TA.AperFunction,Plated,PTH,ComponentDrill
T2C0.700
; #@! TA.AperFunction,Plated,PTH,ComponentDrill
T3C0.800
; #@! TA.AperFunction,Plated,PTH,ComponentDrill
T4C1.000
; #@! TA.AperFunction,Plated,PTH,ComponentDrill
T5C1.100
%
G90
G05
T1
X2.5Y45.0
X2.5Y42.5
X2.5Y35.0
X2.5Y32.5
X2.5Y30.0
X2.5Y27.5
X2.5Y25.0
X2.5Y22.5
X2.5Y20.0
X2.5Y17.5
X2.5Y12.5
X2.5Y10.0
X5.0Y35.0
X5.0Y32.5
X5.0Y30.0
X5.0Y10.0
X7.5Y35.0
X7.5Y30.0
X7.5Y25.0
X7.5Y22.5
X7.5Y17.5
X7.5Y15.0
X7.5Y10.0
X10.0Y42.5
X10.0Y22.5
X10.0Y17.5
X10.0Y15.0
X12.5Y45.0
X12.5Y42.5
X12.5Y35.0
X12.5Y30.0
X12.5Y5.0
X14.0Y31.5
X15.0Y45.0
X15.0Y42.5
X15.0Y40.0
X15.0Y37.5
X15.0Y35.0
X15.0Y30.0
X15.0Y5.0
X17.5Y42.5
X17.5Y40.0
X17.5Y37.5
X17.5Y35.0
X17.5Y22.5
X17.5Y20.0
X20.0Y42.5
X20.0Y40.0
X20.0Y37.5
X20.0Y35.0
X20.0Y30.0
X20.0Y5.0
X22.5Y42.5
X22.5Y30.0
X22.5Y5.0
X25.0Y45.0
X25.0Y42.5
X25.0Y37.5
X25.0Y15.0
X25.0Y12.5
X25.0Y5.0
X27.5Y42.5
X27.5Y32.5
X27.5Y27.5
X27.5Y15.0
X27.5Y12.5
X27.5Y7.5
X30.0Y45.0
X30.0Y42.5
X30.0Y40.0
X30.0Y22.5
X30.0Y20.0
X30.0Y15.0
X30.0Y12.5
X30.0Y10.0
X30.0Y7.5
X32.5Y47.5
X32.5Y45.0
X32.5Y42.5
X32.5Y40.0
X32.5Y22.5
X32.5Y20.0
X32.5Y10.0
X35.0Y47.5
X35.0Y45.0
X35.0Y42.5
X35.0Y22.5
X35.0Y20.0
X37.5Y47.5
X37.5Y45.0
X37.5Y42.5
X37.5Y30.0
X37.5Y20.0
X37.5Y10.0
X37.5Y5.0
X37.5Y2.5
X40.0Y47.5
X40.0Y45.0
X40.0Y42.5
X40.0Y20.0
X40.0Y12.5
X40.0Y10.0
X40.0Y7.5
X40.0Y5.0
X40.0Y2.5
X42.5Y47.5
X42.5Y45.0
X42.5Y42.5
X42.5Y37.5
X42.5Y15.0
X42.5Y12.5
X42.5Y10.0
X42.5Y7.5
X42.5Y5.0
X42.5Y2.5
X45.0Y47.5
X45.0Y45.0
X45.0Y42.5
X45.0Y40.0
X45.0Y37.5
X45.0Y32.5
X45.0Y22.5
X45.0Y17.5
X45.0Y15.0
X45.0Y12.5
X45.0Y10.0
X45.0Y7.5
X45.0Y5.0
X45.0Y2.5
X47.5Y45.0
X47.5Y42.5
X47.5Y40.0
X47.5Y27.5
X47.5Y22.5
X47.5Y17.5
X47.5Y15.0
X47.5Y12.5
X47.5Y10.0
X47.5Y7.5
X47.5Y5.0
T2
X3.5Y15.0
X3.5Y7.38
X5.75Y18.0
X5.75Y15.5
X6.5Y45.0
X6.5Y37.38
X10.69Y5.0
X12.5Y23.0
X13.37Y18.0
X13.37Y15.5
X18.0Y33.0
X18.0Y30.5
X18.31Y5.0
X20.12Y23.0
X24.0Y17.5
X24.0Y9.88
X24.0Y6.5
X25.62Y33.0
X25.62Y30.5
X26.5Y17.5
X26.5Y9.88
X27.69Y40.5
X27.69Y38.0
X29.5Y25.0
X29.5Y17.38
X31.62Y6.5
X32.0Y25.0
X32.0Y17.38
X34.5Y25.0
X34.5Y17.38
X35.31Y40.5
X35.31Y38.0
X36.38Y35.5
X40.5Y23.0
X40.5Y15.38
X43.0Y26.0
X43.0Y18.38
X44.0Y35.5
T3
X6.5Y13.0
X6.5Y8.0
X9.0Y26.0
X9.0Y21.0
X10.5Y12.58
X10.5Y10.04
X10.5Y7.5
X11.0Y40.5
X11.0Y38.0
X12.5Y26.0
X16.0Y15.12
X16.0Y7.5
X17.5Y26.0
X19.19Y20.0
X23.69Y28.0
X23.69Y25.46
X23.69Y22.92
X26.81Y20.0
X28.5Y35.5
X28.5Y30.5
X29.19Y27.5
X32.5Y35.5
X32.5Y32.96
X32.5Y30.42
X36.81Y27.5
X37.0Y32.5
X37.5Y23.0
X37.5Y18.0
X38.5Y39.5
X41.0Y39.5
X42.0Y32.5
X46.0Y25.5
X46.0Y20.5
X47.0Y37.5
X47.0Y32.5
T4
X19.5Y13.08
X19.5Y10.54
X19.5Y8.0
X20.0Y48.0
X21.19Y2.0
X22.54Y48.0
X23.73Y2.0
X26.27Y2.0
X27.46Y48.0
X28.81Y2.0
X30.0Y48.0
X31.96Y14.0
X34.5Y14.0
X37.04Y14.0
X39.96Y29.0
X42.5Y29.0
X45.04Y29.0
T5
X3.5Y48.0
X3.5Y37.84
M30
