%TF.GenerationSoftware,KiCad,Pcbnew,9.0.7*%
%TF.CreationDate,2026-02-01T21:13:21+01:00*%
%TF.ProjectId,basstortr-bass-distortion,62617373-746f-4727-9472-2d626173732d,0.1V*%
%TF.SameCoordinates,PXdceab0PY5924500*%
%TF.FileFunction,Soldermask,Bot*%
%TF.FilePolarity,Negative*%
%FSLAX46Y46*%
G04 Gerber Fmt 4.6, Leading zero omitted, Abs format (unit mm)*
G04 Created by KiCad (PCBNEW 9.0.7) date 2026-02-01 21:13:21*
%MOMM*%
%LPD*%
G01*
G04 APERTURE LIST*
G04 APERTURE END LIST*
G36*
X21600268Y4244388D02*
G01*
X21632711Y4222711D01*
X21654388Y4190268D01*
X21662000Y4152000D01*
X21662000Y2452000D01*
X21654388Y2413732D01*
X21632711Y2381289D01*
X21600268Y2359612D01*
X21562000Y2352000D01*
X19862000Y2352000D01*
X19823732Y2359612D01*
X19791289Y2381289D01*
X19769612Y2413732D01*
X19762000Y2452000D01*
X19762000Y4152000D01*
X19769612Y4190268D01*
X19791289Y4222711D01*
X19823732Y4244388D01*
X19862000Y4252000D01*
X21562000Y4252000D01*
X21600268Y4244388D01*
G37*
G36*
X23527770Y4211093D02*
G01*
X23699827Y4139825D01*
X23854674Y4036360D01*
X23986360Y3904674D01*
X24089825Y3749827D01*
X24161093Y3577770D01*
X24197425Y3395116D01*
X24197425Y3208884D01*
X24161093Y3026230D01*
X24089825Y2854173D01*
X23986360Y2699326D01*
X23854674Y2567640D01*
X23699827Y2464175D01*
X23527770Y2392907D01*
X23345116Y2356575D01*
X23158884Y2356575D01*
X22976230Y2392907D01*
X22804173Y2464175D01*
X22649326Y2567640D01*
X22517640Y2699326D01*
X22414175Y2854173D01*
X22342907Y3026230D01*
X22306575Y3208884D01*
X22306575Y3395116D01*
X22342907Y3577770D01*
X22414175Y3749827D01*
X22517640Y3904674D01*
X22649326Y4036360D01*
X22804173Y4139825D01*
X22976230Y4211093D01*
X23158884Y4247425D01*
X23345116Y4247425D01*
X23527770Y4211093D01*
G37*
G36*
X26067770Y4211093D02*
G01*
X26239827Y4139825D01*
X26394674Y4036360D01*
X26526360Y3904674D01*
X26629825Y3749827D01*
X26701093Y3577770D01*
X26737425Y3395116D01*
X26737425Y3208884D01*
X26701093Y3026230D01*
X26629825Y2854173D01*
X26526360Y2699326D01*
X26394674Y2567640D01*
X26239827Y2464175D01*
X26067770Y2392907D01*
X25885116Y2356575D01*
X25698884Y2356575D01*
X25516230Y2392907D01*
X25344173Y2464175D01*
X25189326Y2567640D01*
X25057640Y2699326D01*
X24954175Y2854173D01*
X24882907Y3026230D01*
X24846575Y3208884D01*
X24846575Y3395116D01*
X24882907Y3577770D01*
X24954175Y3749827D01*
X25057640Y3904674D01*
X25189326Y4036360D01*
X25344173Y4139825D01*
X25516230Y4211093D01*
X25698884Y4247425D01*
X25885116Y4247425D01*
X26067770Y4211093D01*
G37*
G36*
X28607770Y4211093D02*
G01*
X28779827Y4139825D01*
X28934674Y4036360D01*
X29066360Y3904674D01*
X29169825Y3749827D01*
X29241093Y3577770D01*
X29277425Y3395116D01*
X29277425Y3208884D01*
X29241093Y3026230D01*
X29169825Y2854173D01*
X29066360Y2699326D01*
X28934674Y2567640D01*
X28779827Y2464175D01*
X28607770Y2392907D01*
X28425116Y2356575D01*
X28238884Y2356575D01*
X28056230Y2392907D01*
X27884173Y2464175D01*
X27729326Y2567640D01*
X27597640Y2699326D01*
X27494175Y2854173D01*
X27422907Y3026230D01*
X27386575Y3208884D01*
X27386575Y3395116D01*
X27422907Y3577770D01*
X27494175Y3749827D01*
X27597640Y3904674D01*
X27729326Y4036360D01*
X27884173Y4139825D01*
X28056230Y4211093D01*
X28238884Y4247425D01*
X28425116Y4247425D01*
X28607770Y4211093D01*
G37*
G36*
X43695256Y10259246D02*
G01*
X43858257Y10191729D01*
X44004954Y10093709D01*
X44129709Y9968954D01*
X44227729Y9822257D01*
X44295246Y9659256D01*
X44329666Y9486215D01*
X44329666Y9309785D01*
X44295246Y9136744D01*
X44227729Y8973743D01*
X44129709Y8827046D01*
X44004954Y8702291D01*
X43858257Y8604271D01*
X43695256Y8536754D01*
X43522215Y8502334D01*
X43345785Y8502334D01*
X43172744Y8536754D01*
X43009743Y8604271D01*
X42863046Y8702291D01*
X42738291Y8827046D01*
X42640271Y8973743D01*
X42572754Y9136744D01*
X42538334Y9309785D01*
X42538334Y9486215D01*
X42572754Y9659256D01*
X42640271Y9822257D01*
X42738291Y9968954D01*
X42863046Y10093709D01*
X43009743Y10191729D01*
X43172744Y10259246D01*
X43345785Y10293666D01*
X43522215Y10293666D01*
X43695256Y10259246D01*
G37*
G36*
X9405256Y11011246D02*
G01*
X9568257Y10943729D01*
X9714954Y10845709D01*
X9839709Y10720954D01*
X9937729Y10574257D01*
X10005246Y10411256D01*
X10039666Y10238215D01*
X10039666Y10061785D01*
X10005246Y9888744D01*
X9937729Y9725743D01*
X9839709Y9579046D01*
X9714954Y9454291D01*
X9568257Y9356271D01*
X9405256Y9288754D01*
X9232215Y9254334D01*
X9055785Y9254334D01*
X8882744Y9288754D01*
X8719743Y9356271D01*
X8573046Y9454291D01*
X8448291Y9579046D01*
X8350271Y9725743D01*
X8282754Y9888744D01*
X8248334Y10061785D01*
X8248334Y10238215D01*
X8282754Y10411256D01*
X8350271Y10574257D01*
X8448291Y10720954D01*
X8573046Y10845709D01*
X8719743Y10943729D01*
X8882744Y11011246D01*
X9055785Y11045666D01*
X9232215Y11045666D01*
X9405256Y11011246D01*
G37*
G36*
X34522228Y11433552D02*
G01*
X34667117Y11373537D01*
X34797515Y11286408D01*
X34908408Y11175515D01*
X34995537Y11045117D01*
X35055552Y10900228D01*
X35086148Y10746414D01*
X35086148Y10589586D01*
X35055552Y10435772D01*
X34995537Y10290883D01*
X34908408Y10160485D01*
X34797515Y10049592D01*
X34667117Y9962463D01*
X34522228Y9902448D01*
X34368414Y9871852D01*
X34211586Y9871852D01*
X34057772Y9902448D01*
X33912883Y9962463D01*
X33782485Y10049592D01*
X33671592Y10160485D01*
X33584463Y10290883D01*
X33524448Y10435772D01*
X33493852Y10589586D01*
X33493852Y10746414D01*
X33524448Y10900228D01*
X33584463Y11045117D01*
X33671592Y11175515D01*
X33782485Y11286408D01*
X33912883Y11373537D01*
X34057772Y11433552D01*
X34211586Y11464148D01*
X34368414Y11464148D01*
X34522228Y11433552D01*
G37*
G36*
X37570228Y11433552D02*
G01*
X37715117Y11373537D01*
X37845515Y11286408D01*
X37956408Y11175515D01*
X38043537Y11045117D01*
X38103552Y10900228D01*
X38134148Y10746414D01*
X38134148Y10589586D01*
X38103552Y10435772D01*
X38043537Y10290883D01*
X37956408Y10160485D01*
X37845515Y10049592D01*
X37715117Y9962463D01*
X37570228Y9902448D01*
X37416414Y9871852D01*
X37259586Y9871852D01*
X37105772Y9902448D01*
X36960883Y9962463D01*
X36830485Y10049592D01*
X36719592Y10160485D01*
X36632463Y10290883D01*
X36572448Y10435772D01*
X36541852Y10589586D01*
X36541852Y10746414D01*
X36572448Y10900228D01*
X36632463Y11045117D01*
X36719592Y11175515D01*
X36830485Y11286408D01*
X36960883Y11373537D01*
X37105772Y11433552D01*
X37259586Y11464148D01*
X37416414Y11464148D01*
X37570228Y11433552D01*
G37*
G36*
X40618228Y11433552D02*
G01*
X40763117Y11373537D01*
X40893515Y11286408D01*
X41004408Y11175515D01*
X41091537Y11045117D01*
X41151552Y10900228D01*
X41182148Y10746414D01*
X41182148Y10589586D01*
X41151552Y10435772D01*
X41091537Y10290883D01*
X41004408Y10160485D01*
X40893515Y10049592D01*
X40763117Y9962463D01*
X40618228Y9902448D01*
X40464414Y9871852D01*
X40307586Y9871852D01*
X40153772Y9902448D01*
X40008883Y9962463D01*
X39878485Y10049592D01*
X39767592Y10160485D01*
X39680463Y10290883D01*
X39620448Y10435772D01*
X39589852Y10589586D01*
X39589852Y10746414D01*
X39620448Y10900228D01*
X39680463Y11045117D01*
X39767592Y11175515D01*
X39878485Y11286408D01*
X40008883Y11373537D01*
X40153772Y11433552D01*
X40307586Y11464148D01*
X40464414Y11464148D01*
X40618228Y11433552D01*
G37*
G36*
X46714228Y11433552D02*
G01*
X46859117Y11373537D01*
X46989515Y11286408D01*
X47100408Y11175515D01*
X47187537Y11045117D01*
X47247552Y10900228D01*
X47278148Y10746414D01*
X47278148Y10589586D01*
X47247552Y10435772D01*
X47187537Y10290883D01*
X47100408Y10160485D01*
X46989515Y10049592D01*
X46859117Y9962463D01*
X46714228Y9902448D01*
X46560414Y9871852D01*
X46403586Y9871852D01*
X46249772Y9902448D01*
X46104883Y9962463D01*
X45974485Y10049592D01*
X45863592Y10160485D01*
X45776463Y10290883D01*
X45716448Y10435772D01*
X45685852Y10589586D01*
X45685852Y10746414D01*
X45716448Y10900228D01*
X45776463Y11045117D01*
X45863592Y11175515D01*
X45974485Y11286408D01*
X46104883Y11373537D01*
X46249772Y11433552D01*
X46403586Y11464148D01*
X46560414Y11464148D01*
X46714228Y11433552D01*
G37*
G36*
X18549256Y11823246D02*
G01*
X18712257Y11755729D01*
X18858954Y11657709D01*
X18983709Y11532954D01*
X19081729Y11386257D01*
X19149246Y11223256D01*
X19183666Y11050215D01*
X19183666Y10873785D01*
X19149246Y10700744D01*
X19081729Y10537743D01*
X18983709Y10391046D01*
X18858954Y10266291D01*
X18712257Y10168271D01*
X18549256Y10100754D01*
X18376215Y10066334D01*
X18199785Y10066334D01*
X18026744Y10100754D01*
X17863743Y10168271D01*
X17717046Y10266291D01*
X17592291Y10391046D01*
X17494271Y10537743D01*
X17426754Y10700744D01*
X17392334Y10873785D01*
X17392334Y11050215D01*
X17426754Y11223256D01*
X17494271Y11386257D01*
X17592291Y11532954D01*
X17717046Y11657709D01*
X17863743Y11755729D01*
X18026744Y11823246D01*
X18199785Y11857666D01*
X18376215Y11857666D01*
X18549256Y11823246D01*
G37*
G36*
X6500228Y11647552D02*
G01*
X6645117Y11587537D01*
X6775515Y11500408D01*
X6886408Y11389515D01*
X6973537Y11259117D01*
X7033552Y11114228D01*
X7064148Y10960414D01*
X7064148Y10803586D01*
X7033552Y10649772D01*
X6973537Y10504883D01*
X6886408Y10374485D01*
X6775515Y10263592D01*
X6645117Y10176463D01*
X6500228Y10116448D01*
X6346414Y10085852D01*
X6189586Y10085852D01*
X6035772Y10116448D01*
X5890883Y10176463D01*
X5760485Y10263592D01*
X5649592Y10374485D01*
X5562463Y10504883D01*
X5502448Y10649772D01*
X5471852Y10803586D01*
X5471852Y10960414D01*
X5502448Y11114228D01*
X5562463Y11259117D01*
X5649592Y11389515D01*
X5760485Y11500408D01*
X5890883Y11587537D01*
X6035772Y11647552D01*
X6189586Y11678148D01*
X6346414Y11678148D01*
X6500228Y11647552D01*
G37*
G36*
X12500228Y11677552D02*
G01*
X12645117Y11617537D01*
X12775515Y11530408D01*
X12886408Y11419515D01*
X12973537Y11289117D01*
X13033552Y11144228D01*
X13064148Y10990414D01*
X13064148Y10833586D01*
X13033552Y10679772D01*
X12973537Y10534883D01*
X12886408Y10404485D01*
X12775515Y10293592D01*
X12645117Y10206463D01*
X12500228Y10146448D01*
X12346414Y10115852D01*
X12189586Y10115852D01*
X12035772Y10146448D01*
X11890883Y10206463D01*
X11760485Y10293592D01*
X11649592Y10404485D01*
X11562463Y10534883D01*
X11502448Y10679772D01*
X11471852Y10833586D01*
X11471852Y10990414D01*
X11502448Y11144228D01*
X11562463Y11289117D01*
X11649592Y11419515D01*
X11760485Y11530408D01*
X11890883Y11617537D01*
X12035772Y11677552D01*
X12189586Y11708148D01*
X12346414Y11708148D01*
X12500228Y11677552D01*
G37*
G36*
X15218228Y11677552D02*
G01*
X15363117Y11617537D01*
X15493515Y11530408D01*
X15604408Y11419515D01*
X15691537Y11289117D01*
X15751552Y11144228D01*
X15782148Y10990414D01*
X15782148Y10833586D01*
X15751552Y10679772D01*
X15691537Y10534883D01*
X15604408Y10404485D01*
X15493515Y10293592D01*
X15363117Y10206463D01*
X15218228Y10146448D01*
X15064414Y10115852D01*
X14907586Y10115852D01*
X14753772Y10146448D01*
X14608883Y10206463D01*
X14478485Y10293592D01*
X14367592Y10404485D01*
X14280463Y10534883D01*
X14220448Y10679772D01*
X14189852Y10833586D01*
X14189852Y10990414D01*
X14220448Y11144228D01*
X14280463Y11289117D01*
X14367592Y11419515D01*
X14478485Y11530408D01*
X14608883Y11617537D01*
X14753772Y11677552D01*
X14907586Y11708148D01*
X15064414Y11708148D01*
X15218228Y11677552D01*
G37*
G36*
X3500228Y11687552D02*
G01*
X3645117Y11627537D01*
X3775515Y11540408D01*
X3886408Y11429515D01*
X3973537Y11299117D01*
X4033552Y11154228D01*
X4064148Y11000414D01*
X4064148Y10843586D01*
X4033552Y10689772D01*
X3973537Y10544883D01*
X3886408Y10414485D01*
X3775515Y10303592D01*
X3645117Y10216463D01*
X3500228Y10156448D01*
X3346414Y10125852D01*
X3189586Y10125852D01*
X3035772Y10156448D01*
X2890883Y10216463D01*
X2760485Y10303592D01*
X2649592Y10414485D01*
X2562463Y10544883D01*
X2502448Y10689772D01*
X2471852Y10843586D01*
X2471852Y11000414D01*
X2502448Y11154228D01*
X2562463Y11299117D01*
X2649592Y11429515D01*
X2760485Y11540408D01*
X2890883Y11627537D01*
X3035772Y11687552D01*
X3189586Y11718148D01*
X3346414Y11718148D01*
X3500228Y11687552D01*
G37*
G36*
X27100268Y12964388D02*
G01*
X27132711Y12942711D01*
X27154388Y12910268D01*
X27162000Y12872000D01*
X27162000Y11072000D01*
X27154388Y11033732D01*
X27132711Y11001289D01*
X27100268Y10979612D01*
X27062000Y10972000D01*
X25262000Y10972000D01*
X25223732Y10979612D01*
X25191289Y11001289D01*
X25169612Y11033732D01*
X25162000Y11072000D01*
X25162000Y12872000D01*
X25169612Y12910268D01*
X25191289Y12942711D01*
X25223732Y12964388D01*
X25262000Y12972000D01*
X27062000Y12972000D01*
X27100268Y12964388D01*
G37*
G36*
X23912285Y12928940D02*
G01*
X24093397Y12853921D01*
X24256393Y12745010D01*
X24395010Y12606393D01*
X24503921Y12443397D01*
X24578940Y12262285D01*
X24617185Y12070017D01*
X24617185Y11873983D01*
X24578940Y11681715D01*
X24503921Y11500603D01*
X24395010Y11337607D01*
X24256393Y11198990D01*
X24093397Y11090079D01*
X23912285Y11015060D01*
X23720017Y10976815D01*
X23523983Y10976815D01*
X23331715Y11015060D01*
X23150603Y11090079D01*
X22987607Y11198990D01*
X22848990Y11337607D01*
X22740079Y11500603D01*
X22665060Y11681715D01*
X22626815Y11873983D01*
X22626815Y12070017D01*
X22665060Y12262285D01*
X22740079Y12443397D01*
X22848990Y12606393D01*
X22987607Y12745010D01*
X23150603Y12853921D01*
X23331715Y12928940D01*
X23523983Y12967185D01*
X23720017Y12967185D01*
X23912285Y12928940D01*
G37*
G36*
X34522228Y16513552D02*
G01*
X34667117Y16453537D01*
X34797515Y16366408D01*
X34908408Y16255515D01*
X34995537Y16125117D01*
X35055552Y15980228D01*
X35086148Y15826414D01*
X35086148Y15669586D01*
X35055552Y15515772D01*
X34995537Y15370883D01*
X34908408Y15240485D01*
X34797515Y15129592D01*
X34667117Y15042463D01*
X34522228Y14982448D01*
X34368414Y14951852D01*
X34211586Y14951852D01*
X34057772Y14982448D01*
X33912883Y15042463D01*
X33782485Y15129592D01*
X33671592Y15240485D01*
X33584463Y15370883D01*
X33524448Y15515772D01*
X33493852Y15669586D01*
X33493852Y15826414D01*
X33524448Y15980228D01*
X33584463Y16125117D01*
X33671592Y16255515D01*
X33782485Y16366408D01*
X33912883Y16453537D01*
X34057772Y16513552D01*
X34211586Y16544148D01*
X34368414Y16544148D01*
X34522228Y16513552D01*
G37*
G36*
X37570228Y16513552D02*
G01*
X37715117Y16453537D01*
X37845515Y16366408D01*
X37956408Y16255515D01*
X38043537Y16125117D01*
X38103552Y15980228D01*
X38134148Y15826414D01*
X38134148Y15669586D01*
X38103552Y15515772D01*
X38043537Y15370883D01*
X37956408Y15240485D01*
X37845515Y15129592D01*
X37715117Y15042463D01*
X37570228Y14982448D01*
X37416414Y14951852D01*
X37259586Y14951852D01*
X37105772Y14982448D01*
X36960883Y15042463D01*
X36830485Y15129592D01*
X36719592Y15240485D01*
X36632463Y15370883D01*
X36572448Y15515772D01*
X36541852Y15669586D01*
X36541852Y15826414D01*
X36572448Y15980228D01*
X36632463Y16125117D01*
X36719592Y16255515D01*
X36830485Y16366408D01*
X36960883Y16453537D01*
X37105772Y16513552D01*
X37259586Y16544148D01*
X37416414Y16544148D01*
X37570228Y16513552D01*
G37*
G36*
X40618228Y16513552D02*
G01*
X40763117Y16453537D01*
X40893515Y16366408D01*
X41004408Y16255515D01*
X41091537Y16125117D01*
X41151552Y15980228D01*
X41182148Y15826414D01*
X41182148Y15669586D01*
X41151552Y15515772D01*
X41091537Y15370883D01*
X41004408Y15240485D01*
X40893515Y15129592D01*
X40763117Y15042463D01*
X40618228Y14982448D01*
X40464414Y14951852D01*
X40307586Y14951852D01*
X40153772Y14982448D01*
X40008883Y15042463D01*
X39878485Y15129592D01*
X39767592Y15240485D01*
X39680463Y15370883D01*
X39620448Y15515772D01*
X39589852Y15669586D01*
X39589852Y15826414D01*
X39620448Y15980228D01*
X39680463Y16125117D01*
X39767592Y16255515D01*
X39878485Y16366408D01*
X40008883Y16453537D01*
X40153772Y16513552D01*
X40307586Y16544148D01*
X40464414Y16544148D01*
X40618228Y16513552D01*
G37*
G36*
X46714228Y16513552D02*
G01*
X46859117Y16453537D01*
X46989515Y16366408D01*
X47100408Y16255515D01*
X47187537Y16125117D01*
X47247552Y15980228D01*
X47278148Y15826414D01*
X47278148Y15669586D01*
X47247552Y15515772D01*
X47187537Y15370883D01*
X47100408Y15240485D01*
X46989515Y15129592D01*
X46859117Y15042463D01*
X46714228Y14982448D01*
X46560414Y14951852D01*
X46403586Y14951852D01*
X46249772Y14982448D01*
X46104883Y15042463D01*
X45974485Y15129592D01*
X45863592Y15240485D01*
X45776463Y15370883D01*
X45716448Y15515772D01*
X45685852Y15669586D01*
X45685852Y15826414D01*
X45716448Y15980228D01*
X45776463Y16125117D01*
X45863592Y16255515D01*
X45974485Y16366408D01*
X46104883Y16453537D01*
X46249772Y16513552D01*
X46403586Y16544148D01*
X46560414Y16544148D01*
X46714228Y16513552D01*
G37*
G36*
X18549256Y16823246D02*
G01*
X18712257Y16755729D01*
X18858954Y16657709D01*
X18983709Y16532954D01*
X19081729Y16386257D01*
X19149246Y16223256D01*
X19183666Y16050215D01*
X19183666Y15873785D01*
X19149246Y15700744D01*
X19081729Y15537743D01*
X18983709Y15391046D01*
X18858954Y15266291D01*
X18712257Y15168271D01*
X18549256Y15100754D01*
X18376215Y15066334D01*
X18199785Y15066334D01*
X18026744Y15100754D01*
X17863743Y15168271D01*
X17717046Y15266291D01*
X17592291Y15391046D01*
X17494271Y15537743D01*
X17426754Y15700744D01*
X17392334Y15873785D01*
X17392334Y16050215D01*
X17426754Y16223256D01*
X17494271Y16386257D01*
X17592291Y16532954D01*
X17717046Y16657709D01*
X17863743Y16755729D01*
X18026744Y16823246D01*
X18199785Y16857666D01*
X18376215Y16857666D01*
X18549256Y16823246D01*
G37*
G36*
X6500228Y16727552D02*
G01*
X6645117Y16667537D01*
X6775515Y16580408D01*
X6886408Y16469515D01*
X6973537Y16339117D01*
X7033552Y16194228D01*
X7064148Y16040414D01*
X7064148Y15883586D01*
X7033552Y15729772D01*
X6973537Y15584883D01*
X6886408Y15454485D01*
X6775515Y15343592D01*
X6645117Y15256463D01*
X6500228Y15196448D01*
X6346414Y15165852D01*
X6189586Y15165852D01*
X6035772Y15196448D01*
X5890883Y15256463D01*
X5760485Y15343592D01*
X5649592Y15454485D01*
X5562463Y15584883D01*
X5502448Y15729772D01*
X5471852Y15883586D01*
X5471852Y16040414D01*
X5502448Y16194228D01*
X5562463Y16339117D01*
X5649592Y16469515D01*
X5760485Y16580408D01*
X5890883Y16667537D01*
X6035772Y16727552D01*
X6189586Y16758148D01*
X6346414Y16758148D01*
X6500228Y16727552D01*
G37*
G36*
X12500228Y16757552D02*
G01*
X12645117Y16697537D01*
X12775515Y16610408D01*
X12886408Y16499515D01*
X12973537Y16369117D01*
X13033552Y16224228D01*
X13064148Y16070414D01*
X13064148Y15913586D01*
X13033552Y15759772D01*
X12973537Y15614883D01*
X12886408Y15484485D01*
X12775515Y15373592D01*
X12645117Y15286463D01*
X12500228Y15226448D01*
X12346414Y15195852D01*
X12189586Y15195852D01*
X12035772Y15226448D01*
X11890883Y15286463D01*
X11760485Y15373592D01*
X11649592Y15484485D01*
X11562463Y15614883D01*
X11502448Y15759772D01*
X11471852Y15913586D01*
X11471852Y16070414D01*
X11502448Y16224228D01*
X11562463Y16369117D01*
X11649592Y16499515D01*
X11760485Y16610408D01*
X11890883Y16697537D01*
X12035772Y16757552D01*
X12189586Y16788148D01*
X12346414Y16788148D01*
X12500228Y16757552D01*
G37*
G36*
X15218228Y16757552D02*
G01*
X15363117Y16697537D01*
X15493515Y16610408D01*
X15604408Y16499515D01*
X15691537Y16369117D01*
X15751552Y16224228D01*
X15782148Y16070414D01*
X15782148Y15913586D01*
X15751552Y15759772D01*
X15691537Y15614883D01*
X15604408Y15484485D01*
X15493515Y15373592D01*
X15363117Y15286463D01*
X15218228Y15226448D01*
X15064414Y15195852D01*
X14907586Y15195852D01*
X14753772Y15226448D01*
X14608883Y15286463D01*
X14478485Y15373592D01*
X14367592Y15484485D01*
X14280463Y15614883D01*
X14220448Y15759772D01*
X14189852Y15913586D01*
X14189852Y16070414D01*
X14220448Y16224228D01*
X14280463Y16369117D01*
X14367592Y16499515D01*
X14478485Y16610408D01*
X14608883Y16697537D01*
X14753772Y16757552D01*
X14907586Y16788148D01*
X15064414Y16788148D01*
X15218228Y16757552D01*
G37*
G36*
X3500228Y16767552D02*
G01*
X3645117Y16707537D01*
X3775515Y16620408D01*
X3886408Y16509515D01*
X3973537Y16379117D01*
X4033552Y16234228D01*
X4064148Y16080414D01*
X4064148Y15923586D01*
X4033552Y15769772D01*
X3973537Y15624883D01*
X3886408Y15494485D01*
X3775515Y15383592D01*
X3645117Y15296463D01*
X3500228Y15236448D01*
X3346414Y15205852D01*
X3189586Y15205852D01*
X3035772Y15236448D01*
X2890883Y15296463D01*
X2760485Y15383592D01*
X2649592Y15494485D01*
X2562463Y15624883D01*
X2502448Y15769772D01*
X2471852Y15923586D01*
X2471852Y16080414D01*
X2502448Y16234228D01*
X2562463Y16379117D01*
X2649592Y16509515D01*
X2760485Y16620408D01*
X2890883Y16707537D01*
X3035772Y16767552D01*
X3189586Y16798148D01*
X3346414Y16798148D01*
X3500228Y16767552D01*
G37*
G36*
X44083868Y17903450D02*
G01*
X44089586Y17900655D01*
X44091962Y17900278D01*
X44129987Y17880904D01*
X44187377Y17852847D01*
X44268847Y17771377D01*
X44296907Y17713980D01*
X44316276Y17675966D01*
X44316652Y17673592D01*
X44319450Y17667868D01*
X44334000Y17568000D01*
X44334000Y16468000D01*
X44319450Y16368132D01*
X44316652Y16362411D01*
X44316277Y16360038D01*
X44296926Y16322061D01*
X44268847Y16264623D01*
X44187377Y16183153D01*
X44129955Y16155081D01*
X44091965Y16135724D01*
X44089591Y16135349D01*
X44083868Y16132550D01*
X43984000Y16118000D01*
X42884000Y16118000D01*
X42784132Y16132550D01*
X42778410Y16135348D01*
X42776037Y16135723D01*
X42738035Y16155086D01*
X42680623Y16183153D01*
X42599153Y16264623D01*
X42571104Y16321997D01*
X42551723Y16360035D01*
X42551346Y16362412D01*
X42548550Y16368132D01*
X42534000Y16468000D01*
X42534000Y17568000D01*
X42548550Y17667868D01*
X42551345Y17673587D01*
X42551722Y17675963D01*
X42571108Y17714013D01*
X42599153Y17771377D01*
X42680623Y17852847D01*
X42737971Y17880884D01*
X42776034Y17900277D01*
X42778411Y17900654D01*
X42784132Y17903450D01*
X42884000Y17918000D01*
X43984000Y17918000D01*
X44083868Y17903450D01*
G37*
G36*
X9793868Y18655450D02*
G01*
X9799586Y18652655D01*
X9801962Y18652278D01*
X9839987Y18632904D01*
X9897377Y18604847D01*
X9978847Y18523377D01*
X10006907Y18465980D01*
X10026276Y18427966D01*
X10026652Y18425592D01*
X10029450Y18419868D01*
X10044000Y18320000D01*
X10044000Y17220000D01*
X10029450Y17120132D01*
X10026652Y17114411D01*
X10026277Y17112038D01*
X10006926Y17074061D01*
X9978847Y17016623D01*
X9897377Y16935153D01*
X9839955Y16907081D01*
X9801965Y16887724D01*
X9799591Y16887349D01*
X9793868Y16884550D01*
X9694000Y16870000D01*
X8594000Y16870000D01*
X8494132Y16884550D01*
X8488410Y16887348D01*
X8486037Y16887723D01*
X8448035Y16907086D01*
X8390623Y16935153D01*
X8309153Y17016623D01*
X8281104Y17073997D01*
X8261723Y17112035D01*
X8261346Y17114412D01*
X8258550Y17120132D01*
X8244000Y17220000D01*
X8244000Y18320000D01*
X8258550Y18419868D01*
X8261345Y18425587D01*
X8261722Y18427963D01*
X8281108Y18466013D01*
X8309153Y18523377D01*
X8390623Y18604847D01*
X8447971Y18632884D01*
X8486034Y18652277D01*
X8488411Y18652654D01*
X8494132Y18655450D01*
X8594000Y18670000D01*
X9694000Y18670000D01*
X9793868Y18655450D01*
G37*
G36*
X6691256Y22705246D02*
G01*
X6854257Y22637729D01*
X7000954Y22539709D01*
X7125709Y22414954D01*
X7223729Y22268257D01*
X7291246Y22105256D01*
X7325666Y21932215D01*
X7325666Y21755785D01*
X7291246Y21582744D01*
X7223729Y21419743D01*
X7125709Y21273046D01*
X7000954Y21148291D01*
X6854257Y21050271D01*
X6691256Y20982754D01*
X6518215Y20948334D01*
X6341785Y20948334D01*
X6168744Y20982754D01*
X6005743Y21050271D01*
X5859046Y21148291D01*
X5734291Y21273046D01*
X5636271Y21419743D01*
X5568754Y21582744D01*
X5534334Y21755785D01*
X5534334Y21932215D01*
X5568754Y22105256D01*
X5636271Y22268257D01*
X5734291Y22414954D01*
X5859046Y22539709D01*
X6005743Y22637729D01*
X6168744Y22705246D01*
X6341785Y22739666D01*
X6518215Y22739666D01*
X6691256Y22705246D01*
G37*
G36*
X11691256Y22705246D02*
G01*
X11854257Y22637729D01*
X12000954Y22539709D01*
X12125709Y22414954D01*
X12223729Y22268257D01*
X12291246Y22105256D01*
X12325666Y21932215D01*
X12325666Y21755785D01*
X12291246Y21582744D01*
X12223729Y21419743D01*
X12125709Y21273046D01*
X12000954Y21148291D01*
X11854257Y21050271D01*
X11691256Y20982754D01*
X11518215Y20948334D01*
X11341785Y20948334D01*
X11168744Y20982754D01*
X11005743Y21050271D01*
X10859046Y21148291D01*
X10734291Y21273046D01*
X10636271Y21419743D01*
X10568754Y21582744D01*
X10534334Y21755785D01*
X10534334Y21932215D01*
X10568754Y22105256D01*
X10636271Y22268257D01*
X10734291Y22414954D01*
X10859046Y22539709D01*
X11005743Y22637729D01*
X11168744Y22705246D01*
X11341785Y22739666D01*
X11518215Y22739666D01*
X11691256Y22705246D01*
G37*
G36*
X22437228Y22609552D02*
G01*
X22582117Y22549537D01*
X22712515Y22462408D01*
X22823408Y22351515D01*
X22910537Y22221117D01*
X22970552Y22076228D01*
X23001148Y21922414D01*
X23001148Y21765586D01*
X22970552Y21611772D01*
X22910537Y21466883D01*
X22823408Y21336485D01*
X22712515Y21225592D01*
X22582117Y21138463D01*
X22437228Y21078448D01*
X22283414Y21047852D01*
X22126586Y21047852D01*
X21972772Y21078448D01*
X21827883Y21138463D01*
X21697485Y21225592D01*
X21586592Y21336485D01*
X21499463Y21466883D01*
X21439448Y21611772D01*
X21408852Y21765586D01*
X21408852Y21922414D01*
X21439448Y22076228D01*
X21499463Y22221117D01*
X21586592Y22351515D01*
X21697485Y22462408D01*
X21827883Y22549537D01*
X21972772Y22609552D01*
X22126586Y22640148D01*
X22283414Y22640148D01*
X22437228Y22609552D01*
G37*
G36*
X27517228Y22609552D02*
G01*
X27662117Y22549537D01*
X27792515Y22462408D01*
X27903408Y22351515D01*
X27990537Y22221117D01*
X28050552Y22076228D01*
X28081148Y21922414D01*
X28081148Y21765586D01*
X28050552Y21611772D01*
X27990537Y21466883D01*
X27903408Y21336485D01*
X27792515Y21225592D01*
X27662117Y21138463D01*
X27517228Y21078448D01*
X27363414Y21047852D01*
X27206586Y21047852D01*
X27052772Y21078448D01*
X26907883Y21138463D01*
X26777485Y21225592D01*
X26666592Y21336485D01*
X26579463Y21466883D01*
X26519448Y21611772D01*
X26488852Y21765586D01*
X26488852Y21922414D01*
X26519448Y22076228D01*
X26579463Y22221117D01*
X26666592Y22351515D01*
X26777485Y22462408D01*
X26907883Y22549537D01*
X27052772Y22609552D01*
X27206586Y22640148D01*
X27363414Y22640148D01*
X27517228Y22609552D01*
G37*
G36*
X22399256Y29309246D02*
G01*
X22562257Y29241729D01*
X22708954Y29143709D01*
X22833709Y29018954D01*
X22931729Y28872257D01*
X22999246Y28709256D01*
X23033666Y28536215D01*
X23033666Y28359785D01*
X22999246Y28186744D01*
X22931729Y28023743D01*
X22833709Y27877046D01*
X22708954Y27752291D01*
X22562257Y27654271D01*
X22399256Y27586754D01*
X22226215Y27552334D01*
X22049785Y27552334D01*
X21876744Y27586754D01*
X21713743Y27654271D01*
X21567046Y27752291D01*
X21442291Y27877046D01*
X21344271Y28023743D01*
X21276754Y28186744D01*
X21242334Y28359785D01*
X21242334Y28536215D01*
X21276754Y28709256D01*
X21344271Y28872257D01*
X21442291Y29018954D01*
X21567046Y29143709D01*
X21713743Y29241729D01*
X21876744Y29309246D01*
X22049785Y29343666D01*
X22226215Y29343666D01*
X22399256Y29309246D01*
G37*
G36*
X27399256Y29309246D02*
G01*
X27562257Y29241729D01*
X27708954Y29143709D01*
X27833709Y29018954D01*
X27931729Y28872257D01*
X27999246Y28709256D01*
X28033666Y28536215D01*
X28033666Y28359785D01*
X27999246Y28186744D01*
X27931729Y28023743D01*
X27833709Y27877046D01*
X27708954Y27752291D01*
X27562257Y27654271D01*
X27399256Y27586754D01*
X27226215Y27552334D01*
X27049785Y27552334D01*
X26876744Y27586754D01*
X26713743Y27654271D01*
X26567046Y27752291D01*
X26442291Y27877046D01*
X26344271Y28023743D01*
X26276754Y28186744D01*
X26242334Y28359785D01*
X26242334Y28536215D01*
X26276754Y28709256D01*
X26344271Y28872257D01*
X26442291Y29018954D01*
X26567046Y29143709D01*
X26713743Y29241729D01*
X26876744Y29309246D01*
X27049785Y29343666D01*
X27226215Y29343666D01*
X27399256Y29309246D01*
G37*
G36*
X7138268Y35894388D02*
G01*
X7170711Y35872711D01*
X7192388Y35840268D01*
X7200000Y35802000D01*
X7200000Y34302000D01*
X7192388Y34263732D01*
X7170711Y34231289D01*
X7138268Y34209612D01*
X7100000Y34202000D01*
X5600000Y34202000D01*
X5561732Y34209612D01*
X5529289Y34231289D01*
X5507612Y34263732D01*
X5500000Y34302000D01*
X5500000Y35802000D01*
X5507612Y35840268D01*
X5529289Y35872711D01*
X5561732Y35894388D01*
X5600000Y35902000D01*
X7100000Y35902000D01*
X7138268Y35894388D01*
G37*
G36*
X35840268Y35894388D02*
G01*
X35872711Y35872711D01*
X35894388Y35840268D01*
X35902000Y35802000D01*
X35902000Y34302000D01*
X35894388Y34263732D01*
X35872711Y34231289D01*
X35840268Y34209612D01*
X35802000Y34202000D01*
X34302000Y34202000D01*
X34263732Y34209612D01*
X34231289Y34231289D01*
X34209612Y34263732D01*
X34202000Y34302000D01*
X34202000Y35802000D01*
X34209612Y35840268D01*
X34231289Y35872711D01*
X34263732Y35894388D01*
X34302000Y35902000D01*
X35802000Y35902000D01*
X35840268Y35894388D01*
G37*
G36*
X9136742Y35865399D02*
G01*
X9290687Y35801633D01*
X9429234Y35709059D01*
X9547059Y35591234D01*
X9639633Y35452687D01*
X9703399Y35298742D01*
X9735907Y35135315D01*
X9735907Y34968685D01*
X9703399Y34805258D01*
X9639633Y34651313D01*
X9547059Y34512766D01*
X9429234Y34394941D01*
X9290687Y34302367D01*
X9136742Y34238601D01*
X8973315Y34206093D01*
X8806685Y34206093D01*
X8643258Y34238601D01*
X8489313Y34302367D01*
X8350766Y34394941D01*
X8232941Y34512766D01*
X8140367Y34651313D01*
X8076601Y34805258D01*
X8044093Y34968685D01*
X8044093Y35135315D01*
X8076601Y35298742D01*
X8140367Y35452687D01*
X8232941Y35591234D01*
X8350766Y35709059D01*
X8489313Y35801633D01*
X8643258Y35865399D01*
X8806685Y35897907D01*
X8973315Y35897907D01*
X9136742Y35865399D01*
G37*
G36*
X11676742Y35865399D02*
G01*
X11830687Y35801633D01*
X11969234Y35709059D01*
X12087059Y35591234D01*
X12179633Y35452687D01*
X12243399Y35298742D01*
X12275907Y35135315D01*
X12275907Y34968685D01*
X12243399Y34805258D01*
X12179633Y34651313D01*
X12087059Y34512766D01*
X11969234Y34394941D01*
X11830687Y34302367D01*
X11676742Y34238601D01*
X11513315Y34206093D01*
X11346685Y34206093D01*
X11183258Y34238601D01*
X11029313Y34302367D01*
X10890766Y34394941D01*
X10772941Y34512766D01*
X10680367Y34651313D01*
X10616601Y34805258D01*
X10584093Y34968685D01*
X10584093Y35135315D01*
X10616601Y35298742D01*
X10680367Y35452687D01*
X10772941Y35591234D01*
X10890766Y35709059D01*
X11029313Y35801633D01*
X11183258Y35865399D01*
X11346685Y35897907D01*
X11513315Y35897907D01*
X11676742Y35865399D01*
G37*
G36*
X37838742Y35865399D02*
G01*
X37992687Y35801633D01*
X38131234Y35709059D01*
X38249059Y35591234D01*
X38341633Y35452687D01*
X38405399Y35298742D01*
X38437907Y35135315D01*
X38437907Y34968685D01*
X38405399Y34805258D01*
X38341633Y34651313D01*
X38249059Y34512766D01*
X38131234Y34394941D01*
X37992687Y34302367D01*
X37838742Y34238601D01*
X37675315Y34206093D01*
X37508685Y34206093D01*
X37345258Y34238601D01*
X37191313Y34302367D01*
X37052766Y34394941D01*
X36934941Y34512766D01*
X36842367Y34651313D01*
X36778601Y34805258D01*
X36746093Y34968685D01*
X36746093Y35135315D01*
X36778601Y35298742D01*
X36842367Y35452687D01*
X36934941Y35591234D01*
X37052766Y35709059D01*
X37191313Y35801633D01*
X37345258Y35865399D01*
X37508685Y35897907D01*
X37675315Y35897907D01*
X37838742Y35865399D01*
G37*
G36*
X40378742Y35865399D02*
G01*
X40532687Y35801633D01*
X40671234Y35709059D01*
X40789059Y35591234D01*
X40881633Y35452687D01*
X40945399Y35298742D01*
X40977907Y35135315D01*
X40977907Y34968685D01*
X40945399Y34805258D01*
X40881633Y34651313D01*
X40789059Y34512766D01*
X40671234Y34394941D01*
X40532687Y34302367D01*
X40378742Y34238601D01*
X40215315Y34206093D01*
X40048685Y34206093D01*
X39885258Y34238601D01*
X39731313Y34302367D01*
X39592766Y34394941D01*
X39474941Y34512766D01*
X39382367Y34651313D01*
X39318601Y34805258D01*
X39286093Y34968685D01*
X39286093Y35135315D01*
X39318601Y35298742D01*
X39382367Y35452687D01*
X39474941Y35591234D01*
X39592766Y35709059D01*
X39731313Y35801633D01*
X39885258Y35865399D01*
X40048685Y35897907D01*
X40215315Y35897907D01*
X40378742Y35865399D01*
G37*
G36*
X20787969Y43311145D02*
G01*
X20794409Y43308743D01*
X20798946Y43308198D01*
X20852629Y43287029D01*
X20914643Y43263898D01*
X20918384Y43261098D01*
X20919572Y43260629D01*
X20962811Y43227840D01*
X21022876Y43182876D01*
X21067857Y43122788D01*
X21100628Y43079573D01*
X21101096Y43078386D01*
X21103898Y43074643D01*
X21127038Y43012601D01*
X21148197Y42958947D01*
X21148741Y42954414D01*
X21151145Y42947969D01*
X21162000Y42847000D01*
X21162000Y41097000D01*
X21151145Y40996031D01*
X21148741Y40989587D01*
X21148197Y40985054D01*
X21127045Y40931418D01*
X21103898Y40869357D01*
X21101095Y40865614D01*
X21100628Y40864428D01*
X21067916Y40821291D01*
X21022876Y40761124D01*
X20962709Y40716084D01*
X20919572Y40683372D01*
X20918386Y40682905D01*
X20914643Y40680102D01*
X20852582Y40656955D01*
X20798946Y40635803D01*
X20794413Y40635259D01*
X20787969Y40632855D01*
X20687000Y40622000D01*
X18937000Y40622000D01*
X18836031Y40632855D01*
X18829586Y40635259D01*
X18825053Y40635803D01*
X18771399Y40656962D01*
X18709357Y40680102D01*
X18705614Y40682904D01*
X18704427Y40683372D01*
X18661212Y40716143D01*
X18601124Y40761124D01*
X18556160Y40821189D01*
X18523371Y40864428D01*
X18522902Y40865616D01*
X18520102Y40869357D01*
X18496971Y40931371D01*
X18475802Y40985054D01*
X18475257Y40989591D01*
X18472855Y40996031D01*
X18462000Y41097000D01*
X18462000Y42847000D01*
X18472855Y42947969D01*
X18475257Y42954410D01*
X18475802Y42958947D01*
X18496978Y43012648D01*
X18520102Y43074643D01*
X18522901Y43078384D01*
X18523371Y43079573D01*
X18556219Y43122890D01*
X18601124Y43182876D01*
X18661110Y43227781D01*
X18704427Y43260629D01*
X18705616Y43261099D01*
X18709357Y43263898D01*
X18771352Y43287022D01*
X18825053Y43308198D01*
X18829590Y43308743D01*
X18836031Y43311145D01*
X18937000Y43322000D01*
X20687000Y43322000D01*
X20787969Y43311145D01*
G37*
G36*
X25207151Y43284699D02*
G01*
X25408623Y43219237D01*
X25597373Y43123064D01*
X25768755Y42998548D01*
X25918548Y42848755D01*
X26043064Y42677373D01*
X26139237Y42488623D01*
X26204699Y42287151D01*
X26237838Y42077920D01*
X26237838Y41866080D01*
X26204699Y41656849D01*
X26139237Y41455377D01*
X26043064Y41266627D01*
X25918548Y41095245D01*
X25768755Y40945452D01*
X25597373Y40820936D01*
X25408623Y40724763D01*
X25207151Y40659301D01*
X24997920Y40626162D01*
X24786080Y40626162D01*
X24576849Y40659301D01*
X24375377Y40724763D01*
X24186627Y40820936D01*
X24015245Y40945452D01*
X23865452Y41095245D01*
X23740936Y41266627D01*
X23644763Y41455377D01*
X23579301Y41656849D01*
X23546162Y41866080D01*
X23546162Y42077920D01*
X23579301Y42287151D01*
X23644763Y42488623D01*
X23740936Y42677373D01*
X23865452Y42848755D01*
X24015245Y42998548D01*
X24186627Y43123064D01*
X24375377Y43219237D01*
X24576849Y43284699D01*
X24786080Y43317838D01*
X24997920Y43317838D01*
X25207151Y43284699D01*
G37*
G36*
X30287151Y43284699D02*
G01*
X30488623Y43219237D01*
X30677373Y43123064D01*
X30848755Y42998548D01*
X30998548Y42848755D01*
X31123064Y42677373D01*
X31219237Y42488623D01*
X31284699Y42287151D01*
X31317838Y42077920D01*
X31317838Y41866080D01*
X31284699Y41656849D01*
X31219237Y41455377D01*
X31123064Y41266627D01*
X30998548Y41095245D01*
X30848755Y40945452D01*
X30677373Y40820936D01*
X30488623Y40724763D01*
X30287151Y40659301D01*
X30077920Y40626162D01*
X29866080Y40626162D01*
X29656849Y40659301D01*
X29455377Y40724763D01*
X29266627Y40820936D01*
X29095245Y40945452D01*
X28945452Y41095245D01*
X28820936Y41266627D01*
X28724763Y41455377D01*
X28659301Y41656849D01*
X28626162Y41866080D01*
X28626162Y42077920D01*
X28659301Y42287151D01*
X28724763Y42488623D01*
X28820936Y42677373D01*
X28945452Y42848755D01*
X29095245Y42998548D01*
X29266627Y43123064D01*
X29455377Y43219237D01*
X29656849Y43284699D01*
X29866080Y43317838D01*
X30077920Y43317838D01*
X30287151Y43284699D01*
G37*
G36*
X5849256Y46327246D02*
G01*
X6012257Y46259729D01*
X6158954Y46161709D01*
X6283709Y46036954D01*
X6381729Y45890257D01*
X6449246Y45727256D01*
X6483666Y45554215D01*
X6483666Y45377785D01*
X6449246Y45204744D01*
X6381729Y45041743D01*
X6283709Y44895046D01*
X6158954Y44770291D01*
X6012257Y44672271D01*
X5849256Y44604754D01*
X5676215Y44570334D01*
X5499785Y44570334D01*
X5326744Y44604754D01*
X5163743Y44672271D01*
X5017046Y44770291D01*
X4892291Y44895046D01*
X4794271Y45041743D01*
X4726754Y45204744D01*
X4692334Y45377785D01*
X4692334Y45554215D01*
X4726754Y45727256D01*
X4794271Y45890257D01*
X4892291Y46036954D01*
X5017046Y46161709D01*
X5163743Y46259729D01*
X5326744Y46327246D01*
X5499785Y46361666D01*
X5676215Y46361666D01*
X5849256Y46327246D01*
G37*
G36*
X45727256Y46327246D02*
G01*
X45890257Y46259729D01*
X46036954Y46161709D01*
X46161709Y46036954D01*
X46259729Y45890257D01*
X46327246Y45727256D01*
X46361666Y45554215D01*
X46361666Y45377785D01*
X46327246Y45204744D01*
X46259729Y45041743D01*
X46161709Y44895046D01*
X46036954Y44770291D01*
X45890257Y44672271D01*
X45727256Y44604754D01*
X45554215Y44570334D01*
X45377785Y44570334D01*
X45204744Y44604754D01*
X45041743Y44672271D01*
X44895046Y44770291D01*
X44770291Y44895046D01*
X44672271Y45041743D01*
X44604754Y45204744D01*
X44570334Y45377785D01*
X44570334Y45554215D01*
X44604754Y45727256D01*
X44672271Y45890257D01*
X44770291Y46036954D01*
X44895046Y46161709D01*
X45041743Y46259729D01*
X45204744Y46327246D01*
X45377785Y46361666D01*
X45554215Y46361666D01*
X45727256Y46327246D01*
G37*
G36*
X12239256Y48105246D02*
G01*
X12402257Y48037729D01*
X12548954Y47939709D01*
X12673709Y47814954D01*
X12771729Y47668257D01*
X12839246Y47505256D01*
X12873666Y47332215D01*
X12873666Y47155785D01*
X12839246Y46982744D01*
X12771729Y46819743D01*
X12673709Y46673046D01*
X12548954Y46548291D01*
X12402257Y46450271D01*
X12239256Y46382754D01*
X12066215Y46348334D01*
X11889785Y46348334D01*
X11716744Y46382754D01*
X11553743Y46450271D01*
X11407046Y46548291D01*
X11282291Y46673046D01*
X11184271Y46819743D01*
X11116754Y46982744D01*
X11082334Y47155785D01*
X11082334Y47332215D01*
X11116754Y47505256D01*
X11184271Y47668257D01*
X11282291Y47814954D01*
X11407046Y47939709D01*
X11553743Y48037729D01*
X11716744Y48105246D01*
X11889785Y48139666D01*
X12066215Y48139666D01*
X12239256Y48105246D01*
G37*
G36*
X17239256Y48105246D02*
G01*
X17402257Y48037729D01*
X17548954Y47939709D01*
X17673709Y47814954D01*
X17771729Y47668257D01*
X17839246Y47505256D01*
X17873666Y47332215D01*
X17873666Y47155785D01*
X17839246Y46982744D01*
X17771729Y46819743D01*
X17673709Y46673046D01*
X17548954Y46548291D01*
X17402257Y46450271D01*
X17239256Y46382754D01*
X17066215Y46348334D01*
X16889785Y46348334D01*
X16716744Y46382754D01*
X16553743Y46450271D01*
X16407046Y46548291D01*
X16282291Y46673046D01*
X16184271Y46819743D01*
X16116754Y46982744D01*
X16082334Y47155785D01*
X16082334Y47332215D01*
X16116754Y47505256D01*
X16184271Y47668257D01*
X16282291Y47814954D01*
X16407046Y47939709D01*
X16553743Y48037729D01*
X16716744Y48105246D01*
X16889785Y48139666D01*
X17066215Y48139666D01*
X17239256Y48105246D01*
G37*
G36*
X23669256Y48105246D02*
G01*
X23832257Y48037729D01*
X23978954Y47939709D01*
X24103709Y47814954D01*
X24201729Y47668257D01*
X24269246Y47505256D01*
X24303666Y47332215D01*
X24303666Y47155785D01*
X24269246Y46982744D01*
X24201729Y46819743D01*
X24103709Y46673046D01*
X23978954Y46548291D01*
X23832257Y46450271D01*
X23669256Y46382754D01*
X23496215Y46348334D01*
X23319785Y46348334D01*
X23146744Y46382754D01*
X22983743Y46450271D01*
X22837046Y46548291D01*
X22712291Y46673046D01*
X22614271Y46819743D01*
X22546754Y46982744D01*
X22512334Y47155785D01*
X22512334Y47332215D01*
X22546754Y47505256D01*
X22614271Y47668257D01*
X22712291Y47814954D01*
X22837046Y47939709D01*
X22983743Y48037729D01*
X23146744Y48105246D01*
X23319785Y48139666D01*
X23496215Y48139666D01*
X23669256Y48105246D01*
G37*
G36*
X28669256Y48105246D02*
G01*
X28832257Y48037729D01*
X28978954Y47939709D01*
X29103709Y47814954D01*
X29201729Y47668257D01*
X29269246Y47505256D01*
X29303666Y47332215D01*
X29303666Y47155785D01*
X29269246Y46982744D01*
X29201729Y46819743D01*
X29103709Y46673046D01*
X28978954Y46548291D01*
X28832257Y46450271D01*
X28669256Y46382754D01*
X28496215Y46348334D01*
X28319785Y46348334D01*
X28146744Y46382754D01*
X27983743Y46450271D01*
X27837046Y46548291D01*
X27712291Y46673046D01*
X27614271Y46819743D01*
X27546754Y46982744D01*
X27512334Y47155785D01*
X27512334Y47332215D01*
X27546754Y47505256D01*
X27614271Y47668257D01*
X27712291Y47814954D01*
X27837046Y47939709D01*
X27983743Y48037729D01*
X28146744Y48105246D01*
X28319785Y48139666D01*
X28496215Y48139666D01*
X28669256Y48105246D01*
G37*
G36*
X34631256Y48105246D02*
G01*
X34794257Y48037729D01*
X34940954Y47939709D01*
X35065709Y47814954D01*
X35163729Y47668257D01*
X35231246Y47505256D01*
X35265666Y47332215D01*
X35265666Y47155785D01*
X35231246Y46982744D01*
X35163729Y46819743D01*
X35065709Y46673046D01*
X34940954Y46548291D01*
X34794257Y46450271D01*
X34631256Y46382754D01*
X34458215Y46348334D01*
X34281785Y46348334D01*
X34108744Y46382754D01*
X33945743Y46450271D01*
X33799046Y46548291D01*
X33674291Y46673046D01*
X33576271Y46819743D01*
X33508754Y46982744D01*
X33474334Y47155785D01*
X33474334Y47332215D01*
X33508754Y47505256D01*
X33576271Y47668257D01*
X33674291Y47814954D01*
X33799046Y47939709D01*
X33945743Y48037729D01*
X34108744Y48105246D01*
X34281785Y48139666D01*
X34458215Y48139666D01*
X34631256Y48105246D01*
G37*
G36*
X39631256Y48105246D02*
G01*
X39794257Y48037729D01*
X39940954Y47939709D01*
X40065709Y47814954D01*
X40163729Y47668257D01*
X40231246Y47505256D01*
X40265666Y47332215D01*
X40265666Y47155785D01*
X40231246Y46982744D01*
X40163729Y46819743D01*
X40065709Y46673046D01*
X39940954Y46548291D01*
X39794257Y46450271D01*
X39631256Y46382754D01*
X39458215Y46348334D01*
X39281785Y46348334D01*
X39108744Y46382754D01*
X38945743Y46450271D01*
X38799046Y46548291D01*
X38674291Y46673046D01*
X38576271Y46819743D01*
X38508754Y46982744D01*
X38474334Y47155785D01*
X38474334Y47332215D01*
X38508754Y47505256D01*
X38576271Y47668257D01*
X38674291Y47814954D01*
X38799046Y47939709D01*
X38945743Y48037729D01*
X39108744Y48105246D01*
X39281785Y48139666D01*
X39458215Y48139666D01*
X39631256Y48105246D01*
G37*
G36*
X6237868Y48851450D02*
G01*
X6243586Y48848655D01*
X6245962Y48848278D01*
X6283987Y48828904D01*
X6341377Y48800847D01*
X6422847Y48719377D01*
X6450907Y48661980D01*
X6470276Y48623966D01*
X6470652Y48621592D01*
X6473450Y48615868D01*
X6488000Y48516000D01*
X6488000Y47416000D01*
X6473450Y47316132D01*
X6470652Y47310411D01*
X6470277Y47308038D01*
X6450926Y47270061D01*
X6422847Y47212623D01*
X6341377Y47131153D01*
X6283955Y47103081D01*
X6245965Y47083724D01*
X6243591Y47083349D01*
X6237868Y47080550D01*
X6138000Y47066000D01*
X5038000Y47066000D01*
X4938132Y47080550D01*
X4932410Y47083348D01*
X4930037Y47083723D01*
X4892035Y47103086D01*
X4834623Y47131153D01*
X4753153Y47212623D01*
X4725104Y47269997D01*
X4705723Y47308035D01*
X4705346Y47310412D01*
X4702550Y47316132D01*
X4688000Y47416000D01*
X4688000Y48516000D01*
X4702550Y48615868D01*
X4705345Y48621587D01*
X4705722Y48623963D01*
X4725108Y48662013D01*
X4753153Y48719377D01*
X4834623Y48800847D01*
X4891971Y48828884D01*
X4930034Y48848277D01*
X4932411Y48848654D01*
X4938132Y48851450D01*
X5038000Y48866000D01*
X6138000Y48866000D01*
X6237868Y48851450D01*
G37*
G36*
X46115868Y48851450D02*
G01*
X46121586Y48848655D01*
X46123962Y48848278D01*
X46161987Y48828904D01*
X46219377Y48800847D01*
X46300847Y48719377D01*
X46328907Y48661980D01*
X46348276Y48623966D01*
X46348652Y48621592D01*
X46351450Y48615868D01*
X46366000Y48516000D01*
X46366000Y47416000D01*
X46351450Y47316132D01*
X46348652Y47310411D01*
X46348277Y47308038D01*
X46328926Y47270061D01*
X46300847Y47212623D01*
X46219377Y47131153D01*
X46161955Y47103081D01*
X46123965Y47083724D01*
X46121591Y47083349D01*
X46115868Y47080550D01*
X46016000Y47066000D01*
X44916000Y47066000D01*
X44816132Y47080550D01*
X44810410Y47083348D01*
X44808037Y47083723D01*
X44770035Y47103086D01*
X44712623Y47131153D01*
X44631153Y47212623D01*
X44603104Y47269997D01*
X44583723Y47308035D01*
X44583346Y47310412D01*
X44580550Y47316132D01*
X44566000Y47416000D01*
X44566000Y48516000D01*
X44580550Y48615868D01*
X44583345Y48621587D01*
X44583722Y48623963D01*
X44603108Y48662013D01*
X44631153Y48719377D01*
X44712623Y48800847D01*
X44769971Y48828884D01*
X44808034Y48848277D01*
X44810411Y48848654D01*
X44816132Y48851450D01*
X44916000Y48866000D01*
X46016000Y48866000D01*
X46115868Y48851450D01*
G37*
G36*
X15574777Y52493450D02*
G01*
X15580495Y52490655D01*
X15582872Y52490278D01*
X15620911Y52470896D01*
X15678286Y52442847D01*
X15759756Y52361377D01*
X15787816Y52303980D01*
X15807186Y52265964D01*
X15807562Y52263589D01*
X15810359Y52257868D01*
X15824908Y52158000D01*
X15824908Y52154077D01*
X15824909Y52154070D01*
X15824909Y51219807D01*
X15824909Y50457999D01*
X15810359Y50358132D01*
X15807561Y50352411D01*
X15807186Y50350037D01*
X15787828Y50312046D01*
X15759756Y50254623D01*
X15678286Y50173153D01*
X15620863Y50145081D01*
X15582872Y50125723D01*
X15580498Y50125348D01*
X15574777Y50122550D01*
X15474909Y50108001D01*
X15470984Y50108001D01*
X15470978Y50108000D01*
X13778840Y50108000D01*
X13778839Y50108001D01*
X13774908Y50108000D01*
X13675041Y50122550D01*
X13669320Y50125347D01*
X13666945Y50125723D01*
X13628929Y50145093D01*
X13571532Y50173153D01*
X13490062Y50254623D01*
X13462013Y50311998D01*
X13442631Y50350037D01*
X13442254Y50352414D01*
X13439459Y50358132D01*
X13424910Y50458000D01*
X13424909Y50461925D01*
X13424909Y50461931D01*
X13424909Y52154070D01*
X13424909Y52154071D01*
X13424909Y52158001D01*
X13439459Y52257868D01*
X13442254Y52263586D01*
X13442631Y52265964D01*
X13462025Y52304028D01*
X13490062Y52361377D01*
X13571532Y52442847D01*
X13628881Y52470884D01*
X13666945Y52490278D01*
X13669323Y52490655D01*
X13675041Y52493450D01*
X13774909Y52507999D01*
X13778833Y52508000D01*
X13778840Y52508000D01*
X15470978Y52508000D01*
X15474910Y52508000D01*
X15574777Y52493450D01*
G37*
G36*
X27439256Y52169246D02*
G01*
X27602257Y52101729D01*
X27748954Y52003709D01*
X27873709Y51878954D01*
X27971729Y51732257D01*
X28039246Y51569256D01*
X28073666Y51396215D01*
X28073666Y51219785D01*
X28039246Y51046744D01*
X27971729Y50883743D01*
X27873709Y50737046D01*
X27748954Y50612291D01*
X27602257Y50514271D01*
X27439256Y50446754D01*
X27266215Y50412334D01*
X27089785Y50412334D01*
X26916744Y50446754D01*
X26753743Y50514271D01*
X26607046Y50612291D01*
X26482291Y50737046D01*
X26384271Y50883743D01*
X26316754Y51046744D01*
X26282334Y51219785D01*
X26282334Y51396215D01*
X26316754Y51569256D01*
X26384271Y51732257D01*
X26482291Y51878954D01*
X26607046Y52003709D01*
X26753743Y52101729D01*
X26916744Y52169246D01*
X27089785Y52203666D01*
X27266215Y52203666D01*
X27439256Y52169246D01*
G37*
G36*
X8614228Y53343552D02*
G01*
X8759117Y53283537D01*
X8889515Y53196408D01*
X9000408Y53085515D01*
X9087537Y52955117D01*
X9147552Y52810228D01*
X9178148Y52656414D01*
X9178148Y52499586D01*
X9147552Y52345772D01*
X9087537Y52200883D01*
X9000408Y52070485D01*
X8889515Y51959592D01*
X8759117Y51872463D01*
X8614228Y51812448D01*
X8460414Y51781852D01*
X8303586Y51781852D01*
X8149772Y51812448D01*
X8004883Y51872463D01*
X7874485Y51959592D01*
X7763592Y52070485D01*
X7676463Y52200883D01*
X7616448Y52345772D01*
X7585852Y52499586D01*
X7585852Y52656414D01*
X7616448Y52810228D01*
X7676463Y52955117D01*
X7763592Y53085515D01*
X7874485Y53196408D01*
X8004883Y53283537D01*
X8149772Y53343552D01*
X8303586Y53374148D01*
X8460414Y53374148D01*
X8614228Y53343552D01*
G37*
G36*
X11635683Y53343552D02*
G01*
X11780572Y53283537D01*
X11910970Y53196408D01*
X12021863Y53085515D01*
X12108992Y52955117D01*
X12169007Y52810228D01*
X12199603Y52656414D01*
X12199603Y52499586D01*
X12169007Y52345772D01*
X12108992Y52200883D01*
X12021863Y52070485D01*
X11910970Y51959592D01*
X11780572Y51872463D01*
X11635683Y51812448D01*
X11481869Y51781852D01*
X11325041Y51781852D01*
X11171227Y51812448D01*
X11026338Y51872463D01*
X10895940Y51959592D01*
X10785047Y52070485D01*
X10697918Y52200883D01*
X10637903Y52345772D01*
X10607307Y52499586D01*
X10607307Y52656414D01*
X10637903Y52810228D01*
X10697918Y52955117D01*
X10785047Y53085515D01*
X10895940Y53196408D01*
X11026338Y53283537D01*
X11171227Y53343552D01*
X11325041Y53374148D01*
X11481869Y53374148D01*
X11635683Y53343552D01*
G37*
G36*
X18266228Y53343552D02*
G01*
X18411117Y53283537D01*
X18541515Y53196408D01*
X18652408Y53085515D01*
X18739537Y52955117D01*
X18799552Y52810228D01*
X18830148Y52656414D01*
X18830148Y52499586D01*
X18799552Y52345772D01*
X18739537Y52200883D01*
X18652408Y52070485D01*
X18541515Y51959592D01*
X18411117Y51872463D01*
X18266228Y51812448D01*
X18112414Y51781852D01*
X17955586Y51781852D01*
X17801772Y51812448D01*
X17656883Y51872463D01*
X17526485Y51959592D01*
X17415592Y52070485D01*
X17328463Y52200883D01*
X17268448Y52345772D01*
X17237852Y52499586D01*
X17237852Y52656414D01*
X17268448Y52810228D01*
X17328463Y52955117D01*
X17415592Y53085515D01*
X17526485Y53196408D01*
X17656883Y53283537D01*
X17801772Y53343552D01*
X17955586Y53374148D01*
X18112414Y53374148D01*
X18266228Y53343552D01*
G37*
G36*
X21100046Y53343552D02*
G01*
X21244935Y53283537D01*
X21375333Y53196408D01*
X21486226Y53085515D01*
X21573355Y52955117D01*
X21633370Y52810228D01*
X21663966Y52656414D01*
X21663966Y52499586D01*
X21633370Y52345772D01*
X21573355Y52200883D01*
X21486226Y52070485D01*
X21375333Y51959592D01*
X21244935Y51872463D01*
X21100046Y51812448D01*
X20946232Y51781852D01*
X20789404Y51781852D01*
X20635590Y51812448D01*
X20490701Y51872463D01*
X20360303Y51959592D01*
X20249410Y52070485D01*
X20162281Y52200883D01*
X20102266Y52345772D01*
X20071670Y52499586D01*
X20071670Y52656414D01*
X20102266Y52810228D01*
X20162281Y52955117D01*
X20249410Y53085515D01*
X20360303Y53196408D01*
X20490701Y53283537D01*
X20635590Y53343552D01*
X20789404Y53374148D01*
X20946232Y53374148D01*
X21100046Y53343552D01*
G37*
G36*
X24121501Y53343552D02*
G01*
X24266390Y53283537D01*
X24396788Y53196408D01*
X24507681Y53085515D01*
X24594810Y52955117D01*
X24654825Y52810228D01*
X24685421Y52656414D01*
X24685421Y52499586D01*
X24654825Y52345772D01*
X24594810Y52200883D01*
X24507681Y52070485D01*
X24396788Y51959592D01*
X24266390Y51872463D01*
X24121501Y51812448D01*
X23967687Y51781852D01*
X23810859Y51781852D01*
X23657045Y51812448D01*
X23512156Y51872463D01*
X23381758Y51959592D01*
X23270865Y52070485D01*
X23183736Y52200883D01*
X23123721Y52345772D01*
X23093125Y52499586D01*
X23093125Y52656414D01*
X23123721Y52810228D01*
X23183736Y52955117D01*
X23270865Y53085515D01*
X23381758Y53196408D01*
X23512156Y53283537D01*
X23657045Y53343552D01*
X23810859Y53374148D01*
X23967687Y53374148D01*
X24121501Y53343552D01*
G37*
G36*
X30712228Y53343552D02*
G01*
X30857117Y53283537D01*
X30987515Y53196408D01*
X31098408Y53085515D01*
X31185537Y52955117D01*
X31245552Y52810228D01*
X31276148Y52656414D01*
X31276148Y52499586D01*
X31245552Y52345772D01*
X31185537Y52200883D01*
X31098408Y52070485D01*
X30987515Y51959592D01*
X30857117Y51872463D01*
X30712228Y51812448D01*
X30558414Y51781852D01*
X30401586Y51781852D01*
X30247772Y51812448D01*
X30102883Y51872463D01*
X29972485Y51959592D01*
X29861592Y52070485D01*
X29774463Y52200883D01*
X29714448Y52345772D01*
X29683852Y52499586D01*
X29683852Y52656414D01*
X29714448Y52810228D01*
X29774463Y52955117D01*
X29861592Y53085515D01*
X29972485Y53196408D01*
X30102883Y53283537D01*
X30247772Y53343552D01*
X30401586Y53374148D01*
X30558414Y53374148D01*
X30712228Y53343552D01*
G37*
G36*
X33585864Y53343552D02*
G01*
X33730753Y53283537D01*
X33861151Y53196408D01*
X33972044Y53085515D01*
X34059173Y52955117D01*
X34119188Y52810228D01*
X34149784Y52656414D01*
X34149784Y52499586D01*
X34119188Y52345772D01*
X34059173Y52200883D01*
X33972044Y52070485D01*
X33861151Y51959592D01*
X33730753Y51872463D01*
X33585864Y51812448D01*
X33432050Y51781852D01*
X33275222Y51781852D01*
X33121408Y51812448D01*
X32976519Y51872463D01*
X32846121Y51959592D01*
X32735228Y52070485D01*
X32648099Y52200883D01*
X32588084Y52345772D01*
X32557488Y52499586D01*
X32557488Y52656414D01*
X32588084Y52810228D01*
X32648099Y52955117D01*
X32735228Y53085515D01*
X32846121Y53196408D01*
X32976519Y53283537D01*
X33121408Y53343552D01*
X33275222Y53374148D01*
X33432050Y53374148D01*
X33585864Y53343552D01*
G37*
G36*
X36607319Y53343552D02*
G01*
X36752208Y53283537D01*
X36882606Y53196408D01*
X36993499Y53085515D01*
X37080628Y52955117D01*
X37140643Y52810228D01*
X37171239Y52656414D01*
X37171239Y52499586D01*
X37140643Y52345772D01*
X37080628Y52200883D01*
X36993499Y52070485D01*
X36882606Y51959592D01*
X36752208Y51872463D01*
X36607319Y51812448D01*
X36453505Y51781852D01*
X36296677Y51781852D01*
X36142863Y51812448D01*
X35997974Y51872463D01*
X35867576Y51959592D01*
X35756683Y52070485D01*
X35669554Y52200883D01*
X35609539Y52345772D01*
X35578943Y52499586D01*
X35578943Y52656414D01*
X35609539Y52810228D01*
X35669554Y52955117D01*
X35756683Y53085515D01*
X35867576Y53196408D01*
X35997974Y53283537D01*
X36142863Y53343552D01*
X36296677Y53374148D01*
X36453505Y53374148D01*
X36607319Y53343552D01*
G37*
G36*
X39628773Y53343552D02*
G01*
X39773662Y53283537D01*
X39904060Y53196408D01*
X40014953Y53085515D01*
X40102082Y52955117D01*
X40162097Y52810228D01*
X40192693Y52656414D01*
X40192693Y52499586D01*
X40162097Y52345772D01*
X40102082Y52200883D01*
X40014953Y52070485D01*
X39904060Y51959592D01*
X39773662Y51872463D01*
X39628773Y51812448D01*
X39474959Y51781852D01*
X39318131Y51781852D01*
X39164317Y51812448D01*
X39019428Y51872463D01*
X38889030Y51959592D01*
X38778137Y52070485D01*
X38691008Y52200883D01*
X38630993Y52345772D01*
X38600397Y52499586D01*
X38600397Y52656414D01*
X38630993Y52810228D01*
X38691008Y52955117D01*
X38778137Y53085515D01*
X38889030Y53196408D01*
X39019428Y53283537D01*
X39164317Y53343552D01*
X39318131Y53374148D01*
X39474959Y53374148D01*
X39628773Y53343552D01*
G37*
G36*
X42650228Y53343552D02*
G01*
X42795117Y53283537D01*
X42925515Y53196408D01*
X43036408Y53085515D01*
X43123537Y52955117D01*
X43183552Y52810228D01*
X43214148Y52656414D01*
X43214148Y52499586D01*
X43183552Y52345772D01*
X43123537Y52200883D01*
X43036408Y52070485D01*
X42925515Y51959592D01*
X42795117Y51872463D01*
X42650228Y51812448D01*
X42496414Y51781852D01*
X42339586Y51781852D01*
X42185772Y51812448D01*
X42040883Y51872463D01*
X41910485Y51959592D01*
X41799592Y52070485D01*
X41712463Y52200883D01*
X41652448Y52345772D01*
X41621852Y52499586D01*
X41621852Y52656414D01*
X41652448Y52810228D01*
X41712463Y52955117D01*
X41799592Y53085515D01*
X41910485Y53196408D01*
X42040883Y53283537D01*
X42185772Y53343552D01*
X42339586Y53374148D01*
X42496414Y53374148D01*
X42650228Y53343552D01*
G37*
G36*
X8614228Y58423552D02*
G01*
X8759117Y58363537D01*
X8889515Y58276408D01*
X9000408Y58165515D01*
X9087537Y58035117D01*
X9147552Y57890228D01*
X9178148Y57736414D01*
X9178148Y57579586D01*
X9147552Y57425772D01*
X9087537Y57280883D01*
X9000408Y57150485D01*
X8889515Y57039592D01*
X8759117Y56952463D01*
X8614228Y56892448D01*
X8460414Y56861852D01*
X8303586Y56861852D01*
X8149772Y56892448D01*
X8004883Y56952463D01*
X7874485Y57039592D01*
X7763592Y57150485D01*
X7676463Y57280883D01*
X7616448Y57425772D01*
X7585852Y57579586D01*
X7585852Y57736414D01*
X7616448Y57890228D01*
X7676463Y58035117D01*
X7763592Y58165515D01*
X7874485Y58276408D01*
X8004883Y58363537D01*
X8149772Y58423552D01*
X8303586Y58454148D01*
X8460414Y58454148D01*
X8614228Y58423552D01*
G37*
G36*
X11635683Y58423552D02*
G01*
X11780572Y58363537D01*
X11910970Y58276408D01*
X12021863Y58165515D01*
X12108992Y58035117D01*
X12169007Y57890228D01*
X12199603Y57736414D01*
X12199603Y57579586D01*
X12169007Y57425772D01*
X12108992Y57280883D01*
X12021863Y57150485D01*
X11910970Y57039592D01*
X11780572Y56952463D01*
X11635683Y56892448D01*
X11481869Y56861852D01*
X11325041Y56861852D01*
X11171227Y56892448D01*
X11026338Y56952463D01*
X10895940Y57039592D01*
X10785047Y57150485D01*
X10697918Y57280883D01*
X10637903Y57425772D01*
X10607307Y57579586D01*
X10607307Y57736414D01*
X10637903Y57890228D01*
X10697918Y58035117D01*
X10785047Y58165515D01*
X10895940Y58276408D01*
X11026338Y58363537D01*
X11171227Y58423552D01*
X11325041Y58454148D01*
X11481869Y58454148D01*
X11635683Y58423552D01*
G37*
G36*
X18266228Y58423552D02*
G01*
X18411117Y58363537D01*
X18541515Y58276408D01*
X18652408Y58165515D01*
X18739537Y58035117D01*
X18799552Y57890228D01*
X18830148Y57736414D01*
X18830148Y57579586D01*
X18799552Y57425772D01*
X18739537Y57280883D01*
X18652408Y57150485D01*
X18541515Y57039592D01*
X18411117Y56952463D01*
X18266228Y56892448D01*
X18112414Y56861852D01*
X17955586Y56861852D01*
X17801772Y56892448D01*
X17656883Y56952463D01*
X17526485Y57039592D01*
X17415592Y57150485D01*
X17328463Y57280883D01*
X17268448Y57425772D01*
X17237852Y57579586D01*
X17237852Y57736414D01*
X17268448Y57890228D01*
X17328463Y58035117D01*
X17415592Y58165515D01*
X17526485Y58276408D01*
X17656883Y58363537D01*
X17801772Y58423552D01*
X17955586Y58454148D01*
X18112414Y58454148D01*
X18266228Y58423552D01*
G37*
G36*
X21100046Y58423552D02*
G01*
X21244935Y58363537D01*
X21375333Y58276408D01*
X21486226Y58165515D01*
X21573355Y58035117D01*
X21633370Y57890228D01*
X21663966Y57736414D01*
X21663966Y57579586D01*
X21633370Y57425772D01*
X21573355Y57280883D01*
X21486226Y57150485D01*
X21375333Y57039592D01*
X21244935Y56952463D01*
X21100046Y56892448D01*
X20946232Y56861852D01*
X20789404Y56861852D01*
X20635590Y56892448D01*
X20490701Y56952463D01*
X20360303Y57039592D01*
X20249410Y57150485D01*
X20162281Y57280883D01*
X20102266Y57425772D01*
X20071670Y57579586D01*
X20071670Y57736414D01*
X20102266Y57890228D01*
X20162281Y58035117D01*
X20249410Y58165515D01*
X20360303Y58276408D01*
X20490701Y58363537D01*
X20635590Y58423552D01*
X20789404Y58454148D01*
X20946232Y58454148D01*
X21100046Y58423552D01*
G37*
G36*
X24121501Y58423552D02*
G01*
X24266390Y58363537D01*
X24396788Y58276408D01*
X24507681Y58165515D01*
X24594810Y58035117D01*
X24654825Y57890228D01*
X24685421Y57736414D01*
X24685421Y57579586D01*
X24654825Y57425772D01*
X24594810Y57280883D01*
X24507681Y57150485D01*
X24396788Y57039592D01*
X24266390Y56952463D01*
X24121501Y56892448D01*
X23967687Y56861852D01*
X23810859Y56861852D01*
X23657045Y56892448D01*
X23512156Y56952463D01*
X23381758Y57039592D01*
X23270865Y57150485D01*
X23183736Y57280883D01*
X23123721Y57425772D01*
X23093125Y57579586D01*
X23093125Y57736414D01*
X23123721Y57890228D01*
X23183736Y58035117D01*
X23270865Y58165515D01*
X23381758Y58276408D01*
X23512156Y58363537D01*
X23657045Y58423552D01*
X23810859Y58454148D01*
X23967687Y58454148D01*
X24121501Y58423552D01*
G37*
G36*
X30712228Y58423552D02*
G01*
X30857117Y58363537D01*
X30987515Y58276408D01*
X31098408Y58165515D01*
X31185537Y58035117D01*
X31245552Y57890228D01*
X31276148Y57736414D01*
X31276148Y57579586D01*
X31245552Y57425772D01*
X31185537Y57280883D01*
X31098408Y57150485D01*
X30987515Y57039592D01*
X30857117Y56952463D01*
X30712228Y56892448D01*
X30558414Y56861852D01*
X30401586Y56861852D01*
X30247772Y56892448D01*
X30102883Y56952463D01*
X29972485Y57039592D01*
X29861592Y57150485D01*
X29774463Y57280883D01*
X29714448Y57425772D01*
X29683852Y57579586D01*
X29683852Y57736414D01*
X29714448Y57890228D01*
X29774463Y58035117D01*
X29861592Y58165515D01*
X29972485Y58276408D01*
X30102883Y58363537D01*
X30247772Y58423552D01*
X30401586Y58454148D01*
X30558414Y58454148D01*
X30712228Y58423552D01*
G37*
G36*
X33585864Y58423552D02*
G01*
X33730753Y58363537D01*
X33861151Y58276408D01*
X33972044Y58165515D01*
X34059173Y58035117D01*
X34119188Y57890228D01*
X34149784Y57736414D01*
X34149784Y57579586D01*
X34119188Y57425772D01*
X34059173Y57280883D01*
X33972044Y57150485D01*
X33861151Y57039592D01*
X33730753Y56952463D01*
X33585864Y56892448D01*
X33432050Y56861852D01*
X33275222Y56861852D01*
X33121408Y56892448D01*
X32976519Y56952463D01*
X32846121Y57039592D01*
X32735228Y57150485D01*
X32648099Y57280883D01*
X32588084Y57425772D01*
X32557488Y57579586D01*
X32557488Y57736414D01*
X32588084Y57890228D01*
X32648099Y58035117D01*
X32735228Y58165515D01*
X32846121Y58276408D01*
X32976519Y58363537D01*
X33121408Y58423552D01*
X33275222Y58454148D01*
X33432050Y58454148D01*
X33585864Y58423552D01*
G37*
G36*
X36607319Y58423552D02*
G01*
X36752208Y58363537D01*
X36882606Y58276408D01*
X36993499Y58165515D01*
X37080628Y58035117D01*
X37140643Y57890228D01*
X37171239Y57736414D01*
X37171239Y57579586D01*
X37140643Y57425772D01*
X37080628Y57280883D01*
X36993499Y57150485D01*
X36882606Y57039592D01*
X36752208Y56952463D01*
X36607319Y56892448D01*
X36453505Y56861852D01*
X36296677Y56861852D01*
X36142863Y56892448D01*
X35997974Y56952463D01*
X35867576Y57039592D01*
X35756683Y57150485D01*
X35669554Y57280883D01*
X35609539Y57425772D01*
X35578943Y57579586D01*
X35578943Y57736414D01*
X35609539Y57890228D01*
X35669554Y58035117D01*
X35756683Y58165515D01*
X35867576Y58276408D01*
X35997974Y58363537D01*
X36142863Y58423552D01*
X36296677Y58454148D01*
X36453505Y58454148D01*
X36607319Y58423552D01*
G37*
G36*
X39628773Y58423552D02*
G01*
X39773662Y58363537D01*
X39904060Y58276408D01*
X40014953Y58165515D01*
X40102082Y58035117D01*
X40162097Y57890228D01*
X40192693Y57736414D01*
X40192693Y57579586D01*
X40162097Y57425772D01*
X40102082Y57280883D01*
X40014953Y57150485D01*
X39904060Y57039592D01*
X39773662Y56952463D01*
X39628773Y56892448D01*
X39474959Y56861852D01*
X39318131Y56861852D01*
X39164317Y56892448D01*
X39019428Y56952463D01*
X38889030Y57039592D01*
X38778137Y57150485D01*
X38691008Y57280883D01*
X38630993Y57425772D01*
X38600397Y57579586D01*
X38600397Y57736414D01*
X38630993Y57890228D01*
X38691008Y58035117D01*
X38778137Y58165515D01*
X38889030Y58276408D01*
X39019428Y58363537D01*
X39164317Y58423552D01*
X39318131Y58454148D01*
X39474959Y58454148D01*
X39628773Y58423552D01*
G37*
G36*
X42650228Y58423552D02*
G01*
X42795117Y58363537D01*
X42925515Y58276408D01*
X43036408Y58165515D01*
X43123537Y58035117D01*
X43183552Y57890228D01*
X43214148Y57736414D01*
X43214148Y57579586D01*
X43183552Y57425772D01*
X43123537Y57280883D01*
X43036408Y57150485D01*
X42925515Y57039592D01*
X42795117Y56952463D01*
X42650228Y56892448D01*
X42496414Y56861852D01*
X42339586Y56861852D01*
X42185772Y56892448D01*
X42040883Y56952463D01*
X41910485Y57039592D01*
X41799592Y57150485D01*
X41712463Y57280883D01*
X41652448Y57425772D01*
X41621852Y57579586D01*
X41621852Y57736414D01*
X41652448Y57890228D01*
X41712463Y58035117D01*
X41799592Y58165515D01*
X41910485Y58276408D01*
X42040883Y58363537D01*
X42185772Y58423552D01*
X42339586Y58454148D01*
X42496414Y58454148D01*
X42650228Y58423552D01*
G37*
G36*
X27827868Y59813450D02*
G01*
X27833586Y59810655D01*
X27835962Y59810278D01*
X27873987Y59790904D01*
X27931377Y59762847D01*
X28012847Y59681377D01*
X28040907Y59623980D01*
X28060276Y59585966D01*
X28060652Y59583592D01*
X28063450Y59577868D01*
X28078000Y59478000D01*
X28078000Y58378000D01*
X28063450Y58278132D01*
X28060652Y58272411D01*
X28060277Y58270038D01*
X28040926Y58232061D01*
X28012847Y58174623D01*
X27931377Y58093153D01*
X27873955Y58065081D01*
X27835965Y58045724D01*
X27833591Y58045349D01*
X27827868Y58042550D01*
X27728000Y58028000D01*
X26628000Y58028000D01*
X26528132Y58042550D01*
X26522410Y58045348D01*
X26520037Y58045723D01*
X26482035Y58065086D01*
X26424623Y58093153D01*
X26343153Y58174623D01*
X26315104Y58231997D01*
X26295723Y58270035D01*
X26295346Y58272412D01*
X26292550Y58278132D01*
X26278000Y58378000D01*
X26278000Y59478000D01*
X26292550Y59577868D01*
X26295345Y59583587D01*
X26295722Y59585963D01*
X26315108Y59624013D01*
X26343153Y59681377D01*
X26424623Y59762847D01*
X26481971Y59790884D01*
X26520034Y59810277D01*
X26522411Y59810654D01*
X26528132Y59813450D01*
X26628000Y59828000D01*
X27728000Y59828000D01*
X27827868Y59813450D01*
G37*
G36*
X14905043Y62634844D02*
G01*
X15084129Y62576655D01*
X15251907Y62491168D01*
X15404247Y62380487D01*
X15537396Y62247338D01*
X15648077Y62094998D01*
X15733564Y61927220D01*
X15791753Y61748134D01*
X15821210Y61562151D01*
X15821210Y61373849D01*
X15791753Y61187866D01*
X15733564Y61008780D01*
X15648077Y60841002D01*
X15537396Y60688662D01*
X15404247Y60555513D01*
X15251907Y60444832D01*
X15084129Y60359345D01*
X14905043Y60301156D01*
X14719060Y60271699D01*
X14530758Y60271699D01*
X14344775Y60301156D01*
X14165689Y60359345D01*
X13997911Y60444832D01*
X13845571Y60555513D01*
X13712422Y60688662D01*
X13601741Y60841002D01*
X13516254Y61008780D01*
X13458065Y61187866D01*
X13428608Y61373849D01*
X13428608Y61562151D01*
X13458065Y61748134D01*
X13516254Y61927220D01*
X13601741Y62094998D01*
X13712422Y62247338D01*
X13845571Y62380487D01*
X13997911Y62491168D01*
X14165689Y62576655D01*
X14344775Y62634844D01*
X14530758Y62664301D01*
X14719060Y62664301D01*
X14905043Y62634844D01*
G37*
G36*
X25172268Y64998388D02*
G01*
X25204711Y64976711D01*
X25226388Y64944268D01*
X25234000Y64906000D01*
X25234000Y63406000D01*
X25226388Y63367732D01*
X25204711Y63335289D01*
X25172268Y63313612D01*
X25134000Y63306000D01*
X23634000Y63306000D01*
X23595732Y63313612D01*
X23563289Y63335289D01*
X23541612Y63367732D01*
X23534000Y63406000D01*
X23534000Y64906000D01*
X23541612Y64944268D01*
X23563289Y64976711D01*
X23595732Y64998388D01*
X23634000Y65006000D01*
X25134000Y65006000D01*
X25172268Y64998388D01*
G37*
G36*
X27170742Y64969399D02*
G01*
X27324687Y64905633D01*
X27463234Y64813059D01*
X27581059Y64695234D01*
X27673633Y64556687D01*
X27737399Y64402742D01*
X27769907Y64239315D01*
X27769907Y64072685D01*
X27737399Y63909258D01*
X27673633Y63755313D01*
X27581059Y63616766D01*
X27463234Y63498941D01*
X27324687Y63406367D01*
X27170742Y63342601D01*
X27007315Y63310093D01*
X26840685Y63310093D01*
X26677258Y63342601D01*
X26523313Y63406367D01*
X26384766Y63498941D01*
X26266941Y63616766D01*
X26174367Y63755313D01*
X26110601Y63909258D01*
X26078093Y64072685D01*
X26078093Y64239315D01*
X26110601Y64402742D01*
X26174367Y64556687D01*
X26266941Y64695234D01*
X26384766Y64813059D01*
X26523313Y64905633D01*
X26677258Y64969399D01*
X26840685Y65001907D01*
X27007315Y65001907D01*
X27170742Y64969399D01*
G37*
G36*
X29710742Y64969399D02*
G01*
X29864687Y64905633D01*
X30003234Y64813059D01*
X30121059Y64695234D01*
X30213633Y64556687D01*
X30277399Y64402742D01*
X30309907Y64239315D01*
X30309907Y64072685D01*
X30277399Y63909258D01*
X30213633Y63755313D01*
X30121059Y63616766D01*
X30003234Y63498941D01*
X29864687Y63406367D01*
X29710742Y63342601D01*
X29547315Y63310093D01*
X29380685Y63310093D01*
X29217258Y63342601D01*
X29063313Y63406367D01*
X28924766Y63498941D01*
X28806941Y63616766D01*
X28714367Y63755313D01*
X28650601Y63909258D01*
X28618093Y64072685D01*
X28618093Y64239315D01*
X28650601Y64402742D01*
X28714367Y64556687D01*
X28806941Y64695234D01*
X28924766Y64813059D01*
X29063313Y64905633D01*
X29217258Y64969399D01*
X29380685Y65001907D01*
X29547315Y65001907D01*
X29710742Y64969399D01*
G37*
G36*
X12347256Y65377246D02*
G01*
X12510257Y65309729D01*
X12656954Y65211709D01*
X12781709Y65086954D01*
X12879729Y64940257D01*
X12947246Y64777256D01*
X12981666Y64604215D01*
X12981666Y64427785D01*
X12947246Y64254744D01*
X12879729Y64091743D01*
X12781709Y63945046D01*
X12656954Y63820291D01*
X12510257Y63722271D01*
X12347256Y63654754D01*
X12174215Y63620334D01*
X11997785Y63620334D01*
X11824744Y63654754D01*
X11661743Y63722271D01*
X11515046Y63820291D01*
X11390291Y63945046D01*
X11292271Y64091743D01*
X11224754Y64254744D01*
X11190334Y64427785D01*
X11190334Y64604215D01*
X11224754Y64777256D01*
X11292271Y64940257D01*
X11390291Y65086954D01*
X11515046Y65211709D01*
X11661743Y65309729D01*
X11824744Y65377246D01*
X11997785Y65411666D01*
X12174215Y65411666D01*
X12347256Y65377246D01*
G37*
G36*
X17347256Y65377246D02*
G01*
X17510257Y65309729D01*
X17656954Y65211709D01*
X17781709Y65086954D01*
X17879729Y64940257D01*
X17947246Y64777256D01*
X17981666Y64604215D01*
X17981666Y64427785D01*
X17947246Y64254744D01*
X17879729Y64091743D01*
X17781709Y63945046D01*
X17656954Y63820291D01*
X17510257Y63722271D01*
X17347256Y63654754D01*
X17174215Y63620334D01*
X16997785Y63620334D01*
X16824744Y63654754D01*
X16661743Y63722271D01*
X16515046Y63820291D01*
X16390291Y63945046D01*
X16292271Y64091743D01*
X16224754Y64254744D01*
X16190334Y64427785D01*
X16190334Y64604215D01*
X16224754Y64777256D01*
X16292271Y64940257D01*
X16390291Y65086954D01*
X16515046Y65211709D01*
X16661743Y65309729D01*
X16824744Y65377246D01*
X16997785Y65411666D01*
X17174215Y65411666D01*
X17347256Y65377246D01*
G37*
G36*
X34631256Y65377246D02*
G01*
X34794257Y65309729D01*
X34940954Y65211709D01*
X35065709Y65086954D01*
X35163729Y64940257D01*
X35231246Y64777256D01*
X35265666Y64604215D01*
X35265666Y64427785D01*
X35231246Y64254744D01*
X35163729Y64091743D01*
X35065709Y63945046D01*
X34940954Y63820291D01*
X34794257Y63722271D01*
X34631256Y63654754D01*
X34458215Y63620334D01*
X34281785Y63620334D01*
X34108744Y63654754D01*
X33945743Y63722271D01*
X33799046Y63820291D01*
X33674291Y63945046D01*
X33576271Y64091743D01*
X33508754Y64254744D01*
X33474334Y64427785D01*
X33474334Y64604215D01*
X33508754Y64777256D01*
X33576271Y64940257D01*
X33674291Y65086954D01*
X33799046Y65211709D01*
X33945743Y65309729D01*
X34108744Y65377246D01*
X34281785Y65411666D01*
X34458215Y65411666D01*
X34631256Y65377246D01*
G37*
G36*
X39631256Y65377246D02*
G01*
X39794257Y65309729D01*
X39940954Y65211709D01*
X40065709Y65086954D01*
X40163729Y64940257D01*
X40231246Y64777256D01*
X40265666Y64604215D01*
X40265666Y64427785D01*
X40231246Y64254744D01*
X40163729Y64091743D01*
X40065709Y63945046D01*
X39940954Y63820291D01*
X39794257Y63722271D01*
X39631256Y63654754D01*
X39458215Y63620334D01*
X39281785Y63620334D01*
X39108744Y63654754D01*
X38945743Y63722271D01*
X38799046Y63820291D01*
X38674291Y63945046D01*
X38576271Y64091743D01*
X38508754Y64254744D01*
X38474334Y64427785D01*
X38474334Y64604215D01*
X38508754Y64777256D01*
X38576271Y64940257D01*
X38674291Y65086954D01*
X38799046Y65211709D01*
X38945743Y65309729D01*
X39108744Y65377246D01*
X39281785Y65411666D01*
X39458215Y65411666D01*
X39631256Y65377246D01*
G37*
G36*
X5747969Y78311145D02*
G01*
X5754409Y78308743D01*
X5758946Y78308198D01*
X5812629Y78287029D01*
X5874643Y78263898D01*
X5878384Y78261098D01*
X5879572Y78260629D01*
X5922811Y78227840D01*
X5982876Y78182876D01*
X6027857Y78122788D01*
X6060628Y78079573D01*
X6061096Y78078386D01*
X6063898Y78074643D01*
X6087038Y78012601D01*
X6108197Y77958947D01*
X6108741Y77954414D01*
X6111145Y77947969D01*
X6122000Y77847000D01*
X6122000Y76097000D01*
X6111145Y75996031D01*
X6108741Y75989587D01*
X6108197Y75985054D01*
X6087045Y75931418D01*
X6063898Y75869357D01*
X6061095Y75865614D01*
X6060628Y75864428D01*
X6027916Y75821291D01*
X5982876Y75761124D01*
X5922709Y75716084D01*
X5879572Y75683372D01*
X5878386Y75682905D01*
X5874643Y75680102D01*
X5812582Y75656955D01*
X5758946Y75635803D01*
X5754413Y75635259D01*
X5747969Y75632855D01*
X5647000Y75622000D01*
X3897000Y75622000D01*
X3796031Y75632855D01*
X3789586Y75635259D01*
X3785053Y75635803D01*
X3731399Y75656962D01*
X3669357Y75680102D01*
X3665614Y75682904D01*
X3664427Y75683372D01*
X3621212Y75716143D01*
X3561124Y75761124D01*
X3516160Y75821189D01*
X3483371Y75864428D01*
X3482902Y75865616D01*
X3480102Y75869357D01*
X3456971Y75931371D01*
X3435802Y75985054D01*
X3435257Y75989591D01*
X3432855Y75996031D01*
X3422000Y76097000D01*
X3422000Y77847000D01*
X3432855Y77947969D01*
X3435257Y77954410D01*
X3435802Y77958947D01*
X3456978Y78012648D01*
X3480102Y78074643D01*
X3482901Y78078384D01*
X3483371Y78079573D01*
X3516219Y78122890D01*
X3561124Y78182876D01*
X3621110Y78227781D01*
X3664427Y78260629D01*
X3665616Y78261099D01*
X3669357Y78263898D01*
X3731352Y78287022D01*
X3785053Y78308198D01*
X3789590Y78308743D01*
X3796031Y78311145D01*
X3897000Y78322000D01*
X5647000Y78322000D01*
X5747969Y78311145D01*
G37*
G36*
X35747969Y78311145D02*
G01*
X35754409Y78308743D01*
X35758946Y78308198D01*
X35812629Y78287029D01*
X35874643Y78263898D01*
X35878384Y78261098D01*
X35879572Y78260629D01*
X35922811Y78227840D01*
X35982876Y78182876D01*
X36027857Y78122788D01*
X36060628Y78079573D01*
X36061096Y78078386D01*
X36063898Y78074643D01*
X36087038Y78012601D01*
X36108197Y77958947D01*
X36108741Y77954414D01*
X36111145Y77947969D01*
X36122000Y77847000D01*
X36122000Y76097000D01*
X36111145Y75996031D01*
X36108741Y75989587D01*
X36108197Y75985054D01*
X36087045Y75931418D01*
X36063898Y75869357D01*
X36061095Y75865614D01*
X36060628Y75864428D01*
X36027916Y75821291D01*
X35982876Y75761124D01*
X35922709Y75716084D01*
X35879572Y75683372D01*
X35878386Y75682905D01*
X35874643Y75680102D01*
X35812582Y75656955D01*
X35758946Y75635803D01*
X35754413Y75635259D01*
X35747969Y75632855D01*
X35647000Y75622000D01*
X33897000Y75622000D01*
X33796031Y75632855D01*
X33789586Y75635259D01*
X33785053Y75635803D01*
X33731399Y75656962D01*
X33669357Y75680102D01*
X33665614Y75682904D01*
X33664427Y75683372D01*
X33621212Y75716143D01*
X33561124Y75761124D01*
X33516160Y75821189D01*
X33483371Y75864428D01*
X33482902Y75865616D01*
X33480102Y75869357D01*
X33456971Y75931371D01*
X33435802Y75985054D01*
X33435257Y75989591D01*
X33432855Y75996031D01*
X33422000Y76097000D01*
X33422000Y77847000D01*
X33432855Y77947969D01*
X33435257Y77954410D01*
X33435802Y77958947D01*
X33456978Y78012648D01*
X33480102Y78074643D01*
X33482901Y78078384D01*
X33483371Y78079573D01*
X33516219Y78122890D01*
X33561124Y78182876D01*
X33621110Y78227781D01*
X33664427Y78260629D01*
X33665616Y78261099D01*
X33669357Y78263898D01*
X33731352Y78287022D01*
X33785053Y78308198D01*
X33789590Y78308743D01*
X33796031Y78311145D01*
X33897000Y78322000D01*
X35647000Y78322000D01*
X35747969Y78311145D01*
G37*
G36*
X10167151Y78284699D02*
G01*
X10368623Y78219237D01*
X10557373Y78123064D01*
X10728755Y77998548D01*
X10878548Y77848755D01*
X11003064Y77677373D01*
X11099237Y77488623D01*
X11164699Y77287151D01*
X11197838Y77077920D01*
X11197838Y76866080D01*
X11164699Y76656849D01*
X11099237Y76455377D01*
X11003064Y76266627D01*
X10878548Y76095245D01*
X10728755Y75945452D01*
X10557373Y75820936D01*
X10368623Y75724763D01*
X10167151Y75659301D01*
X9957920Y75626162D01*
X9746080Y75626162D01*
X9536849Y75659301D01*
X9335377Y75724763D01*
X9146627Y75820936D01*
X8975245Y75945452D01*
X8825452Y76095245D01*
X8700936Y76266627D01*
X8604763Y76455377D01*
X8539301Y76656849D01*
X8506162Y76866080D01*
X8506162Y77077920D01*
X8539301Y77287151D01*
X8604763Y77488623D01*
X8700936Y77677373D01*
X8825452Y77848755D01*
X8975245Y77998548D01*
X9146627Y78123064D01*
X9335377Y78219237D01*
X9536849Y78284699D01*
X9746080Y78317838D01*
X9957920Y78317838D01*
X10167151Y78284699D01*
G37*
G36*
X15247151Y78284699D02*
G01*
X15448623Y78219237D01*
X15637373Y78123064D01*
X15808755Y77998548D01*
X15958548Y77848755D01*
X16083064Y77677373D01*
X16179237Y77488623D01*
X16244699Y77287151D01*
X16277838Y77077920D01*
X16277838Y76866080D01*
X16244699Y76656849D01*
X16179237Y76455377D01*
X16083064Y76266627D01*
X15958548Y76095245D01*
X15808755Y75945452D01*
X15637373Y75820936D01*
X15448623Y75724763D01*
X15247151Y75659301D01*
X15037920Y75626162D01*
X14826080Y75626162D01*
X14616849Y75659301D01*
X14415377Y75724763D01*
X14226627Y75820936D01*
X14055245Y75945452D01*
X13905452Y76095245D01*
X13780936Y76266627D01*
X13684763Y76455377D01*
X13619301Y76656849D01*
X13586162Y76866080D01*
X13586162Y77077920D01*
X13619301Y77287151D01*
X13684763Y77488623D01*
X13780936Y77677373D01*
X13905452Y77848755D01*
X14055245Y77998548D01*
X14226627Y78123064D01*
X14415377Y78219237D01*
X14616849Y78284699D01*
X14826080Y78317838D01*
X15037920Y78317838D01*
X15247151Y78284699D01*
G37*
G36*
X40167151Y78284699D02*
G01*
X40368623Y78219237D01*
X40557373Y78123064D01*
X40728755Y77998548D01*
X40878548Y77848755D01*
X41003064Y77677373D01*
X41099237Y77488623D01*
X41164699Y77287151D01*
X41197838Y77077920D01*
X41197838Y76866080D01*
X41164699Y76656849D01*
X41099237Y76455377D01*
X41003064Y76266627D01*
X40878548Y76095245D01*
X40728755Y75945452D01*
X40557373Y75820936D01*
X40368623Y75724763D01*
X40167151Y75659301D01*
X39957920Y75626162D01*
X39746080Y75626162D01*
X39536849Y75659301D01*
X39335377Y75724763D01*
X39146627Y75820936D01*
X38975245Y75945452D01*
X38825452Y76095245D01*
X38700936Y76266627D01*
X38604763Y76455377D01*
X38539301Y76656849D01*
X38506162Y76866080D01*
X38506162Y77077920D01*
X38539301Y77287151D01*
X38604763Y77488623D01*
X38700936Y77677373D01*
X38825452Y77848755D01*
X38975245Y77998548D01*
X39146627Y78123064D01*
X39335377Y78219237D01*
X39536849Y78284699D01*
X39746080Y78317838D01*
X39957920Y78317838D01*
X40167151Y78284699D01*
G37*
G36*
X45247151Y78284699D02*
G01*
X45448623Y78219237D01*
X45637373Y78123064D01*
X45808755Y77998548D01*
X45958548Y77848755D01*
X46083064Y77677373D01*
X46179237Y77488623D01*
X46244699Y77287151D01*
X46277838Y77077920D01*
X46277838Y76866080D01*
X46244699Y76656849D01*
X46179237Y76455377D01*
X46083064Y76266627D01*
X45958548Y76095245D01*
X45808755Y75945452D01*
X45637373Y75820936D01*
X45448623Y75724763D01*
X45247151Y75659301D01*
X45037920Y75626162D01*
X44826080Y75626162D01*
X44616849Y75659301D01*
X44415377Y75724763D01*
X44226627Y75820936D01*
X44055245Y75945452D01*
X43905452Y76095245D01*
X43780936Y76266627D01*
X43684763Y76455377D01*
X43619301Y76656849D01*
X43586162Y76866080D01*
X43586162Y77077920D01*
X43619301Y77287151D01*
X43684763Y77488623D01*
X43780936Y77677373D01*
X43905452Y77848755D01*
X44055245Y77998548D01*
X44226627Y78123064D01*
X44415377Y78219237D01*
X44616849Y78284699D01*
X44826080Y78317838D01*
X45037920Y78317838D01*
X45247151Y78284699D01*
G37*
G36*
X20446268Y77939388D02*
G01*
X20478711Y77917711D01*
X20500388Y77885268D01*
X20508000Y77847000D01*
X20508000Y76147000D01*
X20500388Y76108732D01*
X20478711Y76076289D01*
X20446268Y76054612D01*
X20408000Y76047000D01*
X18708000Y76047000D01*
X18669732Y76054612D01*
X18637289Y76076289D01*
X18615612Y76108732D01*
X18608000Y76147000D01*
X18608000Y77847000D01*
X18615612Y77885268D01*
X18637289Y77917711D01*
X18669732Y77939388D01*
X18708000Y77947000D01*
X20408000Y77947000D01*
X20446268Y77939388D01*
G37*
G36*
X28370268Y77939388D02*
G01*
X28402711Y77917711D01*
X28424388Y77885268D01*
X28432000Y77847000D01*
X28432000Y76147000D01*
X28424388Y76108732D01*
X28402711Y76076289D01*
X28370268Y76054612D01*
X28332000Y76047000D01*
X26632000Y76047000D01*
X26593732Y76054612D01*
X26561289Y76076289D01*
X26539612Y76108732D01*
X26532000Y76147000D01*
X26532000Y77847000D01*
X26539612Y77885268D01*
X26561289Y77917711D01*
X26593732Y77939388D01*
X26632000Y77947000D01*
X28332000Y77947000D01*
X28370268Y77939388D01*
G37*
G36*
X22373770Y77906093D02*
G01*
X22545827Y77834825D01*
X22700674Y77731360D01*
X22832360Y77599674D01*
X22935825Y77444827D01*
X23007093Y77272770D01*
X23043425Y77090116D01*
X23043425Y76903884D01*
X23007093Y76721230D01*
X22935825Y76549173D01*
X22832360Y76394326D01*
X22700674Y76262640D01*
X22545827Y76159175D01*
X22373770Y76087907D01*
X22191116Y76051575D01*
X22004884Y76051575D01*
X21822230Y76087907D01*
X21650173Y76159175D01*
X21495326Y76262640D01*
X21363640Y76394326D01*
X21260175Y76549173D01*
X21188907Y76721230D01*
X21152575Y76903884D01*
X21152575Y77090116D01*
X21188907Y77272770D01*
X21260175Y77444827D01*
X21363640Y77599674D01*
X21495326Y77731360D01*
X21650173Y77834825D01*
X21822230Y77906093D01*
X22004884Y77942425D01*
X22191116Y77942425D01*
X22373770Y77906093D01*
G37*
G36*
X30297770Y77906093D02*
G01*
X30469827Y77834825D01*
X30624674Y77731360D01*
X30756360Y77599674D01*
X30859825Y77444827D01*
X30931093Y77272770D01*
X30967425Y77090116D01*
X30967425Y76903884D01*
X30931093Y76721230D01*
X30859825Y76549173D01*
X30756360Y76394326D01*
X30624674Y76262640D01*
X30469827Y76159175D01*
X30297770Y76087907D01*
X30115116Y76051575D01*
X29928884Y76051575D01*
X29746230Y76087907D01*
X29574173Y76159175D01*
X29419326Y76262640D01*
X29287640Y76394326D01*
X29184175Y76549173D01*
X29112907Y76721230D01*
X29076575Y76903884D01*
X29076575Y77090116D01*
X29112907Y77272770D01*
X29184175Y77444827D01*
X29287640Y77599674D01*
X29419326Y77731360D01*
X29574173Y77834825D01*
X29746230Y77906093D01*
X29928884Y77942425D01*
X30115116Y77942425D01*
X30297770Y77906093D01*
G37*
M02*
