%TF.GenerationSoftware,KiCad,Pcbnew,10.0.1*%
%TF.CreationDate,2026-05-11T07:37:28+02:00*%
%TF.ProjectId,basstortr-bass-distortion,62617373-746f-4727-9472-2d626173732d,C*%
%TF.SameCoordinates,PX1c9c380PY4c4b400*%
%TF.FileFunction,Soldermask,Top*%
%TF.FilePolarity,Negative*%
%FSLAX46Y46*%
G04 Gerber Fmt 4.6, Leading zero omitted, Abs format (unit mm)*
G04 Created by KiCad (PCBNEW 10.0.1) date 2026-05-11 07:37:28*
%MOMM*%
%LPD*%
G01*
G04 APERTURE LIST*
G04 APERTURE END LIST*
G36*
X22078268Y2942388D02*
G01*
X22110711Y2920711D01*
X22132388Y2888268D01*
X22140000Y2850000D01*
X22140000Y1150000D01*
X22132388Y1111732D01*
X22110711Y1079289D01*
X22078268Y1057612D01*
X22040000Y1050000D01*
X20340000Y1050000D01*
X20301732Y1057612D01*
X20269289Y1079289D01*
X20247612Y1111732D01*
X20240000Y1150000D01*
X20240000Y2850000D01*
X20247612Y2888268D01*
X20269289Y2920711D01*
X20301732Y2942388D01*
X20340000Y2950000D01*
X22040000Y2950000D01*
X22078268Y2942388D01*
G37*
G36*
X24005770Y2909093D02*
G01*
X24177827Y2837825D01*
X24332674Y2734360D01*
X24464360Y2602674D01*
X24567825Y2447827D01*
X24639093Y2275770D01*
X24675425Y2093116D01*
X24675425Y1906884D01*
X24639093Y1724230D01*
X24567825Y1552173D01*
X24464360Y1397326D01*
X24332674Y1265640D01*
X24177827Y1162175D01*
X24005770Y1090907D01*
X23823116Y1054575D01*
X23636884Y1054575D01*
X23454230Y1090907D01*
X23282173Y1162175D01*
X23127326Y1265640D01*
X22995640Y1397326D01*
X22892175Y1552173D01*
X22820907Y1724230D01*
X22784575Y1906884D01*
X22784575Y2093116D01*
X22820907Y2275770D01*
X22892175Y2447827D01*
X22995640Y2602674D01*
X23127326Y2734360D01*
X23282173Y2837825D01*
X23454230Y2909093D01*
X23636884Y2945425D01*
X23823116Y2945425D01*
X24005770Y2909093D01*
G37*
G36*
X26545770Y2909093D02*
G01*
X26717827Y2837825D01*
X26872674Y2734360D01*
X27004360Y2602674D01*
X27107825Y2447827D01*
X27179093Y2275770D01*
X27215425Y2093116D01*
X27215425Y1906884D01*
X27179093Y1724230D01*
X27107825Y1552173D01*
X27004360Y1397326D01*
X26872674Y1265640D01*
X26717827Y1162175D01*
X26545770Y1090907D01*
X26363116Y1054575D01*
X26176884Y1054575D01*
X25994230Y1090907D01*
X25822173Y1162175D01*
X25667326Y1265640D01*
X25535640Y1397326D01*
X25432175Y1552173D01*
X25360907Y1724230D01*
X25324575Y1906884D01*
X25324575Y2093116D01*
X25360907Y2275770D01*
X25432175Y2447827D01*
X25535640Y2602674D01*
X25667326Y2734360D01*
X25822173Y2837825D01*
X25994230Y2909093D01*
X26176884Y2945425D01*
X26363116Y2945425D01*
X26545770Y2909093D01*
G37*
G36*
X29085770Y2909093D02*
G01*
X29257827Y2837825D01*
X29412674Y2734360D01*
X29544360Y2602674D01*
X29647825Y2447827D01*
X29719093Y2275770D01*
X29755425Y2093116D01*
X29755425Y1906884D01*
X29719093Y1724230D01*
X29647825Y1552173D01*
X29544360Y1397326D01*
X29412674Y1265640D01*
X29257827Y1162175D01*
X29085770Y1090907D01*
X28903116Y1054575D01*
X28716884Y1054575D01*
X28534230Y1090907D01*
X28362173Y1162175D01*
X28207326Y1265640D01*
X28075640Y1397326D01*
X27972175Y1552173D01*
X27900907Y1724230D01*
X27864575Y1906884D01*
X27864575Y2093116D01*
X27900907Y2275770D01*
X27972175Y2447827D01*
X28075640Y2602674D01*
X28207326Y2734360D01*
X28362173Y2837825D01*
X28534230Y2909093D01*
X28716884Y2945425D01*
X28903116Y2945425D01*
X29085770Y2909093D01*
G37*
G36*
X3290285Y3956940D02*
G01*
X3471397Y3881921D01*
X3634393Y3773010D01*
X3773010Y3634393D01*
X3881921Y3471397D01*
X3956940Y3290285D01*
X3995185Y3098017D01*
X3995185Y2901983D01*
X3956940Y2709715D01*
X3881921Y2528603D01*
X3773010Y2365607D01*
X3634393Y2226990D01*
X3471397Y2118079D01*
X3290285Y2043060D01*
X3098017Y2004815D01*
X2901983Y2004815D01*
X2709715Y2043060D01*
X2528603Y2118079D01*
X2365607Y2226990D01*
X2226990Y2365607D01*
X2118079Y2528603D01*
X2043060Y2709715D01*
X2004815Y2901983D01*
X2004815Y3098017D01*
X2043060Y3290285D01*
X2118079Y3471397D01*
X2226990Y3634393D01*
X2365607Y3773010D01*
X2528603Y3881921D01*
X2709715Y3956940D01*
X2901983Y3995185D01*
X3098017Y3995185D01*
X3290285Y3956940D01*
G37*
G36*
X47290285Y3956940D02*
G01*
X47471397Y3881921D01*
X47634393Y3773010D01*
X47773010Y3634393D01*
X47881921Y3471397D01*
X47956940Y3290285D01*
X47995185Y3098017D01*
X47995185Y2901983D01*
X47956940Y2709715D01*
X47881921Y2528603D01*
X47773010Y2365607D01*
X47634393Y2226990D01*
X47471397Y2118079D01*
X47290285Y2043060D01*
X47098017Y2004815D01*
X46901983Y2004815D01*
X46709715Y2043060D01*
X46528603Y2118079D01*
X46365607Y2226990D01*
X46226990Y2365607D01*
X46118079Y2528603D01*
X46043060Y2709715D01*
X46004815Y2901983D01*
X46004815Y3098017D01*
X46043060Y3290285D01*
X46118079Y3471397D01*
X46226990Y3634393D01*
X46365607Y3773010D01*
X46528603Y3881921D01*
X46709715Y3956940D01*
X46901983Y3995185D01*
X47098017Y3995185D01*
X47290285Y3956940D01*
G37*
G36*
X7538268Y4592388D02*
G01*
X7570711Y4570711D01*
X7592388Y4538268D01*
X7600000Y4500000D01*
X7600000Y3500000D01*
X7592388Y3461732D01*
X7570711Y3429289D01*
X7538268Y3407612D01*
X7500000Y3400000D01*
X6500000Y3400000D01*
X6461732Y3407612D01*
X6429289Y3429289D01*
X6407612Y3461732D01*
X6400000Y3500000D01*
X6400000Y4500000D01*
X6407612Y4538268D01*
X6429289Y4570711D01*
X6461732Y4592388D01*
X6500000Y4600000D01*
X7500000Y4600000D01*
X7538268Y4592388D01*
G37*
G36*
X10922228Y5765552D02*
G01*
X11067117Y5705537D01*
X11197515Y5618408D01*
X11308408Y5507515D01*
X11395537Y5377117D01*
X11455552Y5232228D01*
X11486148Y5078414D01*
X11486148Y4921586D01*
X11455552Y4767772D01*
X11395537Y4622883D01*
X11308408Y4492485D01*
X11197515Y4381592D01*
X11067117Y4294463D01*
X10922228Y4234448D01*
X10768414Y4203852D01*
X10611586Y4203852D01*
X10457772Y4234448D01*
X10312883Y4294463D01*
X10182485Y4381592D01*
X10071592Y4492485D01*
X9984463Y4622883D01*
X9924448Y4767772D01*
X9893852Y4921586D01*
X9893852Y5078414D01*
X9924448Y5232228D01*
X9984463Y5377117D01*
X10071592Y5507515D01*
X10182485Y5618408D01*
X10312883Y5705537D01*
X10457772Y5765552D01*
X10611586Y5796148D01*
X10768414Y5796148D01*
X10922228Y5765552D01*
G37*
G36*
X18542228Y5765552D02*
G01*
X18687117Y5705537D01*
X18817515Y5618408D01*
X18928408Y5507515D01*
X19015537Y5377117D01*
X19075552Y5232228D01*
X19106148Y5078414D01*
X19106148Y4921586D01*
X19075552Y4767772D01*
X19015537Y4622883D01*
X18928408Y4492485D01*
X18817515Y4381592D01*
X18687117Y4294463D01*
X18542228Y4234448D01*
X18388414Y4203852D01*
X18231586Y4203852D01*
X18077772Y4234448D01*
X17932883Y4294463D01*
X17802485Y4381592D01*
X17691592Y4492485D01*
X17604463Y4622883D01*
X17544448Y4767772D01*
X17513852Y4921586D01*
X17513852Y5078414D01*
X17544448Y5232228D01*
X17604463Y5377117D01*
X17691592Y5507515D01*
X17802485Y5618408D01*
X17932883Y5705537D01*
X18077772Y5765552D01*
X18231586Y5796148D01*
X18388414Y5796148D01*
X18542228Y5765552D01*
G37*
G36*
X24232228Y7265552D02*
G01*
X24377117Y7205537D01*
X24507515Y7118408D01*
X24618408Y7007515D01*
X24705537Y6877117D01*
X24765552Y6732228D01*
X24796148Y6578414D01*
X24796148Y6421586D01*
X24765552Y6267772D01*
X24705537Y6122883D01*
X24618408Y5992485D01*
X24507515Y5881592D01*
X24377117Y5794463D01*
X24232228Y5734448D01*
X24078414Y5703852D01*
X23921586Y5703852D01*
X23767772Y5734448D01*
X23622883Y5794463D01*
X23492485Y5881592D01*
X23381592Y5992485D01*
X23294463Y6122883D01*
X23234448Y6267772D01*
X23203852Y6421586D01*
X23203852Y6578414D01*
X23234448Y6732228D01*
X23294463Y6877117D01*
X23381592Y7007515D01*
X23492485Y7118408D01*
X23622883Y7205537D01*
X23767772Y7265552D01*
X23921586Y7296148D01*
X24078414Y7296148D01*
X24232228Y7265552D01*
G37*
G36*
X31852228Y7265552D02*
G01*
X31997117Y7205537D01*
X32127515Y7118408D01*
X32238408Y7007515D01*
X32325537Y6877117D01*
X32385552Y6732228D01*
X32416148Y6578414D01*
X32416148Y6421586D01*
X32385552Y6267772D01*
X32325537Y6122883D01*
X32238408Y5992485D01*
X32127515Y5881592D01*
X31997117Y5794463D01*
X31852228Y5734448D01*
X31698414Y5703852D01*
X31541586Y5703852D01*
X31387772Y5734448D01*
X31242883Y5794463D01*
X31112485Y5881592D01*
X31001592Y5992485D01*
X30914463Y6122883D01*
X30854448Y6267772D01*
X30823852Y6421586D01*
X30823852Y6578414D01*
X30854448Y6732228D01*
X30914463Y6877117D01*
X31001592Y7007515D01*
X31112485Y7118408D01*
X31242883Y7205537D01*
X31387772Y7265552D01*
X31541586Y7296148D01*
X31698414Y7296148D01*
X31852228Y7265552D01*
G37*
G36*
X37038268Y7592388D02*
G01*
X37070711Y7570711D01*
X37092388Y7538268D01*
X37100000Y7500000D01*
X37100000Y6500000D01*
X37092388Y6461732D01*
X37070711Y6429289D01*
X37038268Y6407612D01*
X37000000Y6400000D01*
X36000000Y6400000D01*
X35961732Y6407612D01*
X35929289Y6429289D01*
X35907612Y6461732D01*
X35900000Y6500000D01*
X35900000Y7500000D01*
X35907612Y7538268D01*
X35929289Y7570711D01*
X35961732Y7592388D01*
X36000000Y7600000D01*
X37000000Y7600000D01*
X37038268Y7592388D01*
G37*
G36*
X3732228Y8145552D02*
G01*
X3877117Y8085537D01*
X4007515Y7998408D01*
X4118408Y7887515D01*
X4205537Y7757117D01*
X4265552Y7612228D01*
X4296148Y7458414D01*
X4296148Y7301586D01*
X4265552Y7147772D01*
X4205537Y7002883D01*
X4118408Y6872485D01*
X4007515Y6761592D01*
X3877117Y6674463D01*
X3732228Y6614448D01*
X3578414Y6583852D01*
X3421586Y6583852D01*
X3267772Y6614448D01*
X3122883Y6674463D01*
X2992485Y6761592D01*
X2881592Y6872485D01*
X2794463Y7002883D01*
X2734448Y7147772D01*
X2703852Y7301586D01*
X2703852Y7458414D01*
X2734448Y7612228D01*
X2794463Y7757117D01*
X2881592Y7887515D01*
X2992485Y7998408D01*
X3122883Y8085537D01*
X3267772Y8145552D01*
X3421586Y8176148D01*
X3578414Y8176148D01*
X3732228Y8145552D01*
G37*
G36*
X16261256Y8361246D02*
G01*
X16424257Y8293729D01*
X16570954Y8195709D01*
X16695709Y8070954D01*
X16793729Y7924257D01*
X16861246Y7761256D01*
X16895666Y7588215D01*
X16895666Y7411785D01*
X16861246Y7238744D01*
X16793729Y7075743D01*
X16695709Y6929046D01*
X16570954Y6804291D01*
X16424257Y6706271D01*
X16261256Y6638754D01*
X16088215Y6604334D01*
X15911785Y6604334D01*
X15738744Y6638754D01*
X15575743Y6706271D01*
X15429046Y6804291D01*
X15304291Y6929046D01*
X15206271Y7075743D01*
X15138754Y7238744D01*
X15104334Y7411785D01*
X15104334Y7588215D01*
X15138754Y7761256D01*
X15206271Y7924257D01*
X15304291Y8070954D01*
X15429046Y8195709D01*
X15575743Y8293729D01*
X15738744Y8361246D01*
X15911785Y8395666D01*
X16088215Y8395666D01*
X16261256Y8361246D01*
G37*
G36*
X10746742Y8313399D02*
G01*
X10900687Y8249633D01*
X11039234Y8157059D01*
X11157059Y8039234D01*
X11249633Y7900687D01*
X11313399Y7746742D01*
X11345907Y7583315D01*
X11345907Y7416685D01*
X11313399Y7253258D01*
X11249633Y7099313D01*
X11157059Y6960766D01*
X11039234Y6842941D01*
X10900687Y6750367D01*
X10746742Y6686601D01*
X10583315Y6654093D01*
X10416685Y6654093D01*
X10253258Y6686601D01*
X10099313Y6750367D01*
X9960766Y6842941D01*
X9842941Y6960766D01*
X9750367Y7099313D01*
X9686601Y7253258D01*
X9654093Y7416685D01*
X9654093Y7583315D01*
X9686601Y7746742D01*
X9750367Y7900687D01*
X9842941Y8039234D01*
X9960766Y8157059D01*
X10099313Y8249633D01*
X10253258Y8313399D01*
X10416685Y8345907D01*
X10583315Y8345907D01*
X10746742Y8313399D01*
G37*
G36*
X19775770Y8909093D02*
G01*
X19947827Y8837825D01*
X20102674Y8734360D01*
X20234360Y8602674D01*
X20337825Y8447827D01*
X20409093Y8275770D01*
X20445425Y8093116D01*
X20445425Y7906884D01*
X20409093Y7724230D01*
X20337825Y7552173D01*
X20234360Y7397326D01*
X20102674Y7265640D01*
X19947827Y7162175D01*
X19775770Y7090907D01*
X19593116Y7054575D01*
X19406884Y7054575D01*
X19224230Y7090907D01*
X19052173Y7162175D01*
X18897326Y7265640D01*
X18765640Y7397326D01*
X18662175Y7552173D01*
X18590907Y7724230D01*
X18554575Y7906884D01*
X18554575Y8093116D01*
X18590907Y8275770D01*
X18662175Y8447827D01*
X18765640Y8602674D01*
X18897326Y8734360D01*
X19052173Y8837825D01*
X19224230Y8909093D01*
X19406884Y8945425D01*
X19593116Y8945425D01*
X19775770Y8909093D01*
G37*
G36*
X6761256Y8861246D02*
G01*
X6924257Y8793729D01*
X7070954Y8695709D01*
X7195709Y8570954D01*
X7293729Y8424257D01*
X7361246Y8261256D01*
X7395666Y8088215D01*
X7395666Y7911785D01*
X7361246Y7738744D01*
X7293729Y7575743D01*
X7195709Y7429046D01*
X7070954Y7304291D01*
X6924257Y7206271D01*
X6761256Y7138754D01*
X6588215Y7104334D01*
X6411785Y7104334D01*
X6238744Y7138754D01*
X6075743Y7206271D01*
X5929046Y7304291D01*
X5804291Y7429046D01*
X5706271Y7575743D01*
X5638754Y7738744D01*
X5604334Y7911785D01*
X5604334Y8088215D01*
X5638754Y8261256D01*
X5706271Y8424257D01*
X5804291Y8570954D01*
X5929046Y8695709D01*
X6075743Y8793729D01*
X6238744Y8861246D01*
X6411785Y8895666D01*
X6588215Y8895666D01*
X6761256Y8861246D01*
G37*
G36*
X24232228Y10645552D02*
G01*
X24377117Y10585537D01*
X24507515Y10498408D01*
X24618408Y10387515D01*
X24705537Y10257117D01*
X24765552Y10112228D01*
X24796148Y9958414D01*
X24796148Y9801586D01*
X24765552Y9647772D01*
X24705537Y9502883D01*
X24618408Y9372485D01*
X24507515Y9261592D01*
X24377117Y9174463D01*
X24232228Y9114448D01*
X24078414Y9083852D01*
X23921586Y9083852D01*
X23767772Y9114448D01*
X23622883Y9174463D01*
X23492485Y9261592D01*
X23381592Y9372485D01*
X23294463Y9502883D01*
X23234448Y9647772D01*
X23203852Y9801586D01*
X23203852Y9958414D01*
X23234448Y10112228D01*
X23294463Y10257117D01*
X23381592Y10387515D01*
X23492485Y10498408D01*
X23622883Y10585537D01*
X23767772Y10645552D01*
X23921586Y10676148D01*
X24078414Y10676148D01*
X24232228Y10645552D01*
G37*
G36*
X26732228Y10645552D02*
G01*
X26877117Y10585537D01*
X27007515Y10498408D01*
X27118408Y10387515D01*
X27205537Y10257117D01*
X27265552Y10112228D01*
X27296148Y9958414D01*
X27296148Y9801586D01*
X27265552Y9647772D01*
X27205537Y9502883D01*
X27118408Y9372485D01*
X27007515Y9261592D01*
X26877117Y9174463D01*
X26732228Y9114448D01*
X26578414Y9083852D01*
X26421586Y9083852D01*
X26267772Y9114448D01*
X26122883Y9174463D01*
X25992485Y9261592D01*
X25881592Y9372485D01*
X25794463Y9502883D01*
X25734448Y9647772D01*
X25703852Y9801586D01*
X25703852Y9958414D01*
X25734448Y10112228D01*
X25794463Y10257117D01*
X25881592Y10387515D01*
X25992485Y10498408D01*
X26122883Y10585537D01*
X26267772Y10645552D01*
X26421586Y10676148D01*
X26578414Y10676148D01*
X26732228Y10645552D01*
G37*
G36*
X10746742Y10853399D02*
G01*
X10900687Y10789633D01*
X11039234Y10697059D01*
X11157059Y10579234D01*
X11249633Y10440687D01*
X11313399Y10286742D01*
X11345907Y10123315D01*
X11345907Y9956685D01*
X11313399Y9793258D01*
X11249633Y9639313D01*
X11157059Y9500766D01*
X11039234Y9382941D01*
X10900687Y9290367D01*
X10746742Y9226601D01*
X10583315Y9194093D01*
X10416685Y9194093D01*
X10253258Y9226601D01*
X10099313Y9290367D01*
X9960766Y9382941D01*
X9842941Y9500766D01*
X9750367Y9639313D01*
X9686601Y9793258D01*
X9654093Y9956685D01*
X9654093Y10123315D01*
X9686601Y10286742D01*
X9750367Y10440687D01*
X9842941Y10579234D01*
X9960766Y10697059D01*
X10099313Y10789633D01*
X10253258Y10853399D01*
X10416685Y10885907D01*
X10583315Y10885907D01*
X10746742Y10853399D01*
G37*
G36*
X19775770Y11449093D02*
G01*
X19947827Y11377825D01*
X20102674Y11274360D01*
X20234360Y11142674D01*
X20337825Y10987827D01*
X20409093Y10815770D01*
X20445425Y10633116D01*
X20445425Y10446884D01*
X20409093Y10264230D01*
X20337825Y10092173D01*
X20234360Y9937326D01*
X20102674Y9805640D01*
X19947827Y9702175D01*
X19775770Y9630907D01*
X19593116Y9594575D01*
X19406884Y9594575D01*
X19224230Y9630907D01*
X19052173Y9702175D01*
X18897326Y9805640D01*
X18765640Y9937326D01*
X18662175Y10092173D01*
X18590907Y10264230D01*
X18554575Y10446884D01*
X18554575Y10633116D01*
X18590907Y10815770D01*
X18662175Y10987827D01*
X18765640Y11142674D01*
X18897326Y11274360D01*
X19052173Y11377825D01*
X19224230Y11449093D01*
X19406884Y11485425D01*
X19593116Y11485425D01*
X19775770Y11449093D01*
G37*
G36*
X11288268Y13422388D02*
G01*
X11320711Y13400711D01*
X11342388Y13368268D01*
X11350000Y13330000D01*
X11350000Y11830000D01*
X11342388Y11791732D01*
X11320711Y11759289D01*
X11288268Y11737612D01*
X11250000Y11730000D01*
X9750000Y11730000D01*
X9711732Y11737612D01*
X9679289Y11759289D01*
X9657612Y11791732D01*
X9650000Y11830000D01*
X9650000Y13330000D01*
X9657612Y13368268D01*
X9679289Y13400711D01*
X9711732Y13422388D01*
X9750000Y13430000D01*
X11250000Y13430000D01*
X11288268Y13422388D01*
G37*
G36*
X6761256Y13861246D02*
G01*
X6924257Y13793729D01*
X7070954Y13695709D01*
X7195709Y13570954D01*
X7293729Y13424257D01*
X7361246Y13261256D01*
X7395666Y13088215D01*
X7395666Y12911785D01*
X7361246Y12738744D01*
X7293729Y12575743D01*
X7195709Y12429046D01*
X7070954Y12304291D01*
X6924257Y12206271D01*
X6761256Y12138754D01*
X6588215Y12104334D01*
X6411785Y12104334D01*
X6238744Y12138754D01*
X6075743Y12206271D01*
X5929046Y12304291D01*
X5804291Y12429046D01*
X5706271Y12575743D01*
X5638754Y12738744D01*
X5604334Y12911785D01*
X5604334Y13088215D01*
X5638754Y13261256D01*
X5706271Y13424257D01*
X5804291Y13570954D01*
X5929046Y13695709D01*
X6075743Y13793729D01*
X6238744Y13861246D01*
X6411785Y13895666D01*
X6588215Y13895666D01*
X6761256Y13861246D01*
G37*
G36*
X20388268Y14022388D02*
G01*
X20420711Y14000711D01*
X20442388Y13968268D01*
X20450000Y13930000D01*
X20450000Y12230000D01*
X20442388Y12191732D01*
X20420711Y12159289D01*
X20388268Y12137612D01*
X20350000Y12130000D01*
X18650000Y12130000D01*
X18611732Y12137612D01*
X18579289Y12159289D01*
X18557612Y12191732D01*
X18550000Y12230000D01*
X18550000Y13930000D01*
X18557612Y13968268D01*
X18579289Y14000711D01*
X18611732Y14022388D01*
X18650000Y14030000D01*
X20350000Y14030000D01*
X20388268Y14022388D01*
G37*
G36*
X32848268Y14942388D02*
G01*
X32880711Y14920711D01*
X32902388Y14888268D01*
X32910000Y14850000D01*
X32910000Y13150000D01*
X32902388Y13111732D01*
X32880711Y13079289D01*
X32848268Y13057612D01*
X32810000Y13050000D01*
X31110000Y13050000D01*
X31071732Y13057612D01*
X31039289Y13079289D01*
X31017612Y13111732D01*
X31010000Y13150000D01*
X31010000Y14850000D01*
X31017612Y14888268D01*
X31039289Y14920711D01*
X31071732Y14942388D01*
X31110000Y14950000D01*
X32810000Y14950000D01*
X32848268Y14942388D01*
G37*
G36*
X34775770Y14909093D02*
G01*
X34947827Y14837825D01*
X35102674Y14734360D01*
X35234360Y14602674D01*
X35337825Y14447827D01*
X35409093Y14275770D01*
X35445425Y14093116D01*
X35445425Y13906884D01*
X35409093Y13724230D01*
X35337825Y13552173D01*
X35234360Y13397326D01*
X35102674Y13265640D01*
X34947827Y13162175D01*
X34775770Y13090907D01*
X34593116Y13054575D01*
X34406884Y13054575D01*
X34224230Y13090907D01*
X34052173Y13162175D01*
X33897326Y13265640D01*
X33765640Y13397326D01*
X33662175Y13552173D01*
X33590907Y13724230D01*
X33554575Y13906884D01*
X33554575Y14093116D01*
X33590907Y14275770D01*
X33662175Y14447827D01*
X33765640Y14602674D01*
X33897326Y14734360D01*
X34052173Y14837825D01*
X34224230Y14909093D01*
X34406884Y14945425D01*
X34593116Y14945425D01*
X34775770Y14909093D01*
G37*
G36*
X37315770Y14909093D02*
G01*
X37487827Y14837825D01*
X37642674Y14734360D01*
X37774360Y14602674D01*
X37877825Y14447827D01*
X37949093Y14275770D01*
X37985425Y14093116D01*
X37985425Y13906884D01*
X37949093Y13724230D01*
X37877825Y13552173D01*
X37774360Y13397326D01*
X37642674Y13265640D01*
X37487827Y13162175D01*
X37315770Y13090907D01*
X37133116Y13054575D01*
X36946884Y13054575D01*
X36764230Y13090907D01*
X36592173Y13162175D01*
X36437326Y13265640D01*
X36305640Y13397326D01*
X36202175Y13552173D01*
X36130907Y13724230D01*
X36094575Y13906884D01*
X36094575Y14093116D01*
X36130907Y14275770D01*
X36202175Y14447827D01*
X36305640Y14602674D01*
X36437326Y14734360D01*
X36592173Y14837825D01*
X36764230Y14909093D01*
X36946884Y14945425D01*
X37133116Y14945425D01*
X37315770Y14909093D01*
G37*
G36*
X3732228Y15765552D02*
G01*
X3877117Y15705537D01*
X4007515Y15618408D01*
X4118408Y15507515D01*
X4205537Y15377117D01*
X4265552Y15232228D01*
X4296148Y15078414D01*
X4296148Y14921586D01*
X4265552Y14767772D01*
X4205537Y14622883D01*
X4118408Y14492485D01*
X4007515Y14381592D01*
X3877117Y14294463D01*
X3732228Y14234448D01*
X3578414Y14203852D01*
X3421586Y14203852D01*
X3267772Y14234448D01*
X3122883Y14294463D01*
X2992485Y14381592D01*
X2881592Y14492485D01*
X2794463Y14622883D01*
X2734448Y14767772D01*
X2703852Y14921586D01*
X2703852Y15078414D01*
X2734448Y15232228D01*
X2794463Y15377117D01*
X2881592Y15507515D01*
X2992485Y15618408D01*
X3122883Y15705537D01*
X3267772Y15765552D01*
X3421586Y15796148D01*
X3578414Y15796148D01*
X3732228Y15765552D01*
G37*
G36*
X16649868Y16005450D02*
G01*
X16655586Y16002655D01*
X16657962Y16002278D01*
X16695987Y15982904D01*
X16753377Y15954847D01*
X16834847Y15873377D01*
X16862907Y15815980D01*
X16882276Y15777966D01*
X16882652Y15775592D01*
X16885450Y15769868D01*
X16900000Y15670000D01*
X16900000Y14570000D01*
X16885450Y14470132D01*
X16882652Y14464411D01*
X16882277Y14462038D01*
X16862926Y14424061D01*
X16834847Y14366623D01*
X16753377Y14285153D01*
X16695955Y14257081D01*
X16657965Y14237724D01*
X16655591Y14237349D01*
X16649868Y14234550D01*
X16550000Y14220000D01*
X15450000Y14220000D01*
X15350132Y14234550D01*
X15344410Y14237348D01*
X15342037Y14237723D01*
X15304035Y14257086D01*
X15246623Y14285153D01*
X15165153Y14366623D01*
X15137104Y14423997D01*
X15117723Y14462035D01*
X15117346Y14464412D01*
X15114550Y14470132D01*
X15100000Y14570000D01*
X15100000Y15670000D01*
X15114550Y15769868D01*
X15117345Y15775587D01*
X15117722Y15777963D01*
X15137108Y15816013D01*
X15165153Y15873377D01*
X15246623Y15954847D01*
X15303971Y15982884D01*
X15342034Y16002277D01*
X15344411Y16002654D01*
X15350132Y16005450D01*
X15450000Y16020000D01*
X16550000Y16020000D01*
X16649868Y16005450D01*
G37*
G36*
X40732228Y16145552D02*
G01*
X40877117Y16085537D01*
X41007515Y15998408D01*
X41118408Y15887515D01*
X41205537Y15757117D01*
X41265552Y15612228D01*
X41296148Y15458414D01*
X41296148Y15301586D01*
X41265552Y15147772D01*
X41205537Y15002883D01*
X41118408Y14872485D01*
X41007515Y14761592D01*
X40877117Y14674463D01*
X40732228Y14614448D01*
X40578414Y14583852D01*
X40421586Y14583852D01*
X40267772Y14614448D01*
X40122883Y14674463D01*
X39992485Y14761592D01*
X39881592Y14872485D01*
X39794463Y15002883D01*
X39734448Y15147772D01*
X39703852Y15301586D01*
X39703852Y15458414D01*
X39734448Y15612228D01*
X39794463Y15757117D01*
X39881592Y15887515D01*
X39992485Y15998408D01*
X40122883Y16085537D01*
X40267772Y16145552D01*
X40421586Y16176148D01*
X40578414Y16176148D01*
X40732228Y16145552D01*
G37*
G36*
X5982228Y16265552D02*
G01*
X6127117Y16205537D01*
X6257515Y16118408D01*
X6368408Y16007515D01*
X6455537Y15877117D01*
X6515552Y15732228D01*
X6546148Y15578414D01*
X6546148Y15421586D01*
X6515552Y15267772D01*
X6455537Y15122883D01*
X6368408Y14992485D01*
X6257515Y14881592D01*
X6127117Y14794463D01*
X5982228Y14734448D01*
X5828414Y14703852D01*
X5671586Y14703852D01*
X5517772Y14734448D01*
X5372883Y14794463D01*
X5242485Y14881592D01*
X5131592Y14992485D01*
X5044463Y15122883D01*
X4984448Y15267772D01*
X4953852Y15421586D01*
X4953852Y15578414D01*
X4984448Y15732228D01*
X5044463Y15877117D01*
X5131592Y16007515D01*
X5242485Y16118408D01*
X5372883Y16205537D01*
X5517772Y16265552D01*
X5671586Y16296148D01*
X5828414Y16296148D01*
X5982228Y16265552D01*
G37*
G36*
X13602228Y16265552D02*
G01*
X13747117Y16205537D01*
X13877515Y16118408D01*
X13988408Y16007515D01*
X14075537Y15877117D01*
X14135552Y15732228D01*
X14166148Y15578414D01*
X14166148Y15421586D01*
X14135552Y15267772D01*
X14075537Y15122883D01*
X13988408Y14992485D01*
X13877515Y14881592D01*
X13747117Y14794463D01*
X13602228Y14734448D01*
X13448414Y14703852D01*
X13291586Y14703852D01*
X13137772Y14734448D01*
X12992883Y14794463D01*
X12862485Y14881592D01*
X12751592Y14992485D01*
X12664463Y15122883D01*
X12604448Y15267772D01*
X12573852Y15421586D01*
X12573852Y15578414D01*
X12604448Y15732228D01*
X12664463Y15877117D01*
X12751592Y16007515D01*
X12862485Y16118408D01*
X12992883Y16205537D01*
X13137772Y16265552D01*
X13291586Y16296148D01*
X13448414Y16296148D01*
X13602228Y16265552D01*
G37*
G36*
X29732228Y18145552D02*
G01*
X29877117Y18085537D01*
X30007515Y17998408D01*
X30118408Y17887515D01*
X30205537Y17757117D01*
X30265552Y17612228D01*
X30296148Y17458414D01*
X30296148Y17301586D01*
X30265552Y17147772D01*
X30205537Y17002883D01*
X30118408Y16872485D01*
X30007515Y16761592D01*
X29877117Y16674463D01*
X29732228Y16614448D01*
X29578414Y16583852D01*
X29421586Y16583852D01*
X29267772Y16614448D01*
X29122883Y16674463D01*
X28992485Y16761592D01*
X28881592Y16872485D01*
X28794463Y17002883D01*
X28734448Y17147772D01*
X28703852Y17301586D01*
X28703852Y17458414D01*
X28734448Y17612228D01*
X28794463Y17757117D01*
X28881592Y17887515D01*
X28992485Y17998408D01*
X29122883Y18085537D01*
X29267772Y18145552D01*
X29421586Y18176148D01*
X29578414Y18176148D01*
X29732228Y18145552D01*
G37*
G36*
X32232228Y18145552D02*
G01*
X32377117Y18085537D01*
X32507515Y17998408D01*
X32618408Y17887515D01*
X32705537Y17757117D01*
X32765552Y17612228D01*
X32796148Y17458414D01*
X32796148Y17301586D01*
X32765552Y17147772D01*
X32705537Y17002883D01*
X32618408Y16872485D01*
X32507515Y16761592D01*
X32377117Y16674463D01*
X32232228Y16614448D01*
X32078414Y16583852D01*
X31921586Y16583852D01*
X31767772Y16614448D01*
X31622883Y16674463D01*
X31492485Y16761592D01*
X31381592Y16872485D01*
X31294463Y17002883D01*
X31234448Y17147772D01*
X31203852Y17301586D01*
X31203852Y17458414D01*
X31234448Y17612228D01*
X31294463Y17757117D01*
X31381592Y17887515D01*
X31492485Y17998408D01*
X31622883Y18085537D01*
X31767772Y18145552D01*
X31921586Y18176148D01*
X32078414Y18176148D01*
X32232228Y18145552D01*
G37*
G36*
X34732228Y18145552D02*
G01*
X34877117Y18085537D01*
X35007515Y17998408D01*
X35118408Y17887515D01*
X35205537Y17757117D01*
X35265552Y17612228D01*
X35296148Y17458414D01*
X35296148Y17301586D01*
X35265552Y17147772D01*
X35205537Y17002883D01*
X35118408Y16872485D01*
X35007515Y16761592D01*
X34877117Y16674463D01*
X34732228Y16614448D01*
X34578414Y16583852D01*
X34421586Y16583852D01*
X34267772Y16614448D01*
X34122883Y16674463D01*
X33992485Y16761592D01*
X33881592Y16872485D01*
X33794463Y17002883D01*
X33734448Y17147772D01*
X33703852Y17301586D01*
X33703852Y17458414D01*
X33734448Y17612228D01*
X33794463Y17757117D01*
X33881592Y17887515D01*
X33992485Y17998408D01*
X34122883Y18085537D01*
X34267772Y18145552D01*
X34421586Y18176148D01*
X34578414Y18176148D01*
X34732228Y18145552D01*
G37*
G36*
X24232228Y18265552D02*
G01*
X24377117Y18205537D01*
X24507515Y18118408D01*
X24618408Y18007515D01*
X24705537Y17877117D01*
X24765552Y17732228D01*
X24796148Y17578414D01*
X24796148Y17421586D01*
X24765552Y17267772D01*
X24705537Y17122883D01*
X24618408Y16992485D01*
X24507515Y16881592D01*
X24377117Y16794463D01*
X24232228Y16734448D01*
X24078414Y16703852D01*
X23921586Y16703852D01*
X23767772Y16734448D01*
X23622883Y16794463D01*
X23492485Y16881592D01*
X23381592Y16992485D01*
X23294463Y17122883D01*
X23234448Y17267772D01*
X23203852Y17421586D01*
X23203852Y17578414D01*
X23234448Y17732228D01*
X23294463Y17877117D01*
X23381592Y18007515D01*
X23492485Y18118408D01*
X23622883Y18205537D01*
X23767772Y18265552D01*
X23921586Y18296148D01*
X24078414Y18296148D01*
X24232228Y18265552D01*
G37*
G36*
X26732228Y18265552D02*
G01*
X26877117Y18205537D01*
X27007515Y18118408D01*
X27118408Y18007515D01*
X27205537Y17877117D01*
X27265552Y17732228D01*
X27296148Y17578414D01*
X27296148Y17421586D01*
X27265552Y17267772D01*
X27205537Y17122883D01*
X27118408Y16992485D01*
X27007515Y16881592D01*
X26877117Y16794463D01*
X26732228Y16734448D01*
X26578414Y16703852D01*
X26421586Y16703852D01*
X26267772Y16734448D01*
X26122883Y16794463D01*
X25992485Y16881592D01*
X25881592Y16992485D01*
X25794463Y17122883D01*
X25734448Y17267772D01*
X25703852Y17421586D01*
X25703852Y17578414D01*
X25734448Y17732228D01*
X25794463Y17877117D01*
X25881592Y18007515D01*
X25992485Y18118408D01*
X26122883Y18205537D01*
X26267772Y18265552D01*
X26421586Y18296148D01*
X26578414Y18296148D01*
X26732228Y18265552D01*
G37*
G36*
X37761256Y18861246D02*
G01*
X37924257Y18793729D01*
X38070954Y18695709D01*
X38195709Y18570954D01*
X38293729Y18424257D01*
X38361246Y18261256D01*
X38395666Y18088215D01*
X38395666Y17911785D01*
X38361246Y17738744D01*
X38293729Y17575743D01*
X38195709Y17429046D01*
X38070954Y17304291D01*
X37924257Y17206271D01*
X37761256Y17138754D01*
X37588215Y17104334D01*
X37411785Y17104334D01*
X37238744Y17138754D01*
X37075743Y17206271D01*
X36929046Y17304291D01*
X36804291Y17429046D01*
X36706271Y17575743D01*
X36638754Y17738744D01*
X36604334Y17911785D01*
X36604334Y18088215D01*
X36638754Y18261256D01*
X36706271Y18424257D01*
X36804291Y18570954D01*
X36929046Y18695709D01*
X37075743Y18793729D01*
X37238744Y18861246D01*
X37411785Y18895666D01*
X37588215Y18895666D01*
X37761256Y18861246D01*
G37*
G36*
X5982228Y18765552D02*
G01*
X6127117Y18705537D01*
X6257515Y18618408D01*
X6368408Y18507515D01*
X6455537Y18377117D01*
X6515552Y18232228D01*
X6546148Y18078414D01*
X6546148Y17921586D01*
X6515552Y17767772D01*
X6455537Y17622883D01*
X6368408Y17492485D01*
X6257515Y17381592D01*
X6127117Y17294463D01*
X5982228Y17234448D01*
X5828414Y17203852D01*
X5671586Y17203852D01*
X5517772Y17234448D01*
X5372883Y17294463D01*
X5242485Y17381592D01*
X5131592Y17492485D01*
X5044463Y17622883D01*
X4984448Y17767772D01*
X4953852Y17921586D01*
X4953852Y18078414D01*
X4984448Y18232228D01*
X5044463Y18377117D01*
X5131592Y18507515D01*
X5242485Y18618408D01*
X5372883Y18705537D01*
X5517772Y18765552D01*
X5671586Y18796148D01*
X5828414Y18796148D01*
X5982228Y18765552D01*
G37*
G36*
X13602228Y18765552D02*
G01*
X13747117Y18705537D01*
X13877515Y18618408D01*
X13988408Y18507515D01*
X14075537Y18377117D01*
X14135552Y18232228D01*
X14166148Y18078414D01*
X14166148Y17921586D01*
X14135552Y17767772D01*
X14075537Y17622883D01*
X13988408Y17492485D01*
X13877515Y17381592D01*
X13747117Y17294463D01*
X13602228Y17234448D01*
X13448414Y17203852D01*
X13291586Y17203852D01*
X13137772Y17234448D01*
X12992883Y17294463D01*
X12862485Y17381592D01*
X12751592Y17492485D01*
X12664463Y17622883D01*
X12604448Y17767772D01*
X12573852Y17921586D01*
X12573852Y18078414D01*
X12604448Y18232228D01*
X12664463Y18377117D01*
X12751592Y18507515D01*
X12862485Y18618408D01*
X12992883Y18705537D01*
X13137772Y18765552D01*
X13291586Y18796148D01*
X13448414Y18796148D01*
X13602228Y18765552D01*
G37*
G36*
X43232228Y19145552D02*
G01*
X43377117Y19085537D01*
X43507515Y18998408D01*
X43618408Y18887515D01*
X43705537Y18757117D01*
X43765552Y18612228D01*
X43796148Y18458414D01*
X43796148Y18301586D01*
X43765552Y18147772D01*
X43705537Y18002883D01*
X43618408Y17872485D01*
X43507515Y17761592D01*
X43377117Y17674463D01*
X43232228Y17614448D01*
X43078414Y17583852D01*
X42921586Y17583852D01*
X42767772Y17614448D01*
X42622883Y17674463D01*
X42492485Y17761592D01*
X42381592Y17872485D01*
X42294463Y18002883D01*
X42234448Y18147772D01*
X42203852Y18301586D01*
X42203852Y18458414D01*
X42234448Y18612228D01*
X42294463Y18757117D01*
X42381592Y18887515D01*
X42492485Y18998408D01*
X42622883Y19085537D01*
X42767772Y19145552D01*
X42921586Y19176148D01*
X43078414Y19176148D01*
X43232228Y19145552D01*
G37*
G36*
X27459868Y20885450D02*
G01*
X27465586Y20882655D01*
X27467962Y20882278D01*
X27505987Y20862904D01*
X27563377Y20834847D01*
X27644847Y20753377D01*
X27672907Y20695980D01*
X27692276Y20657966D01*
X27692652Y20655592D01*
X27695450Y20649868D01*
X27710000Y20550000D01*
X27710000Y19450000D01*
X27695450Y19350132D01*
X27692652Y19344411D01*
X27692277Y19342038D01*
X27672926Y19304061D01*
X27644847Y19246623D01*
X27563377Y19165153D01*
X27505955Y19137081D01*
X27467965Y19117724D01*
X27465591Y19117349D01*
X27459868Y19114550D01*
X27360000Y19100000D01*
X26260000Y19100000D01*
X26160132Y19114550D01*
X26154410Y19117348D01*
X26152037Y19117723D01*
X26114035Y19137086D01*
X26056623Y19165153D01*
X25975153Y19246623D01*
X25947104Y19303997D01*
X25927723Y19342035D01*
X25927346Y19344412D01*
X25924550Y19350132D01*
X25910000Y19450000D01*
X25910000Y20550000D01*
X25924550Y20649868D01*
X25927345Y20655587D01*
X25927722Y20657963D01*
X25947108Y20696013D01*
X25975153Y20753377D01*
X26056623Y20834847D01*
X26113971Y20862884D01*
X26152034Y20882277D01*
X26154411Y20882654D01*
X26160132Y20885450D01*
X26260000Y20900000D01*
X27360000Y20900000D01*
X27459868Y20885450D01*
G37*
G36*
X19451256Y20861246D02*
G01*
X19614257Y20793729D01*
X19760954Y20695709D01*
X19885709Y20570954D01*
X19983729Y20424257D01*
X20051246Y20261256D01*
X20085666Y20088215D01*
X20085666Y19911785D01*
X20051246Y19738744D01*
X19983729Y19575743D01*
X19885709Y19429046D01*
X19760954Y19304291D01*
X19614257Y19206271D01*
X19451256Y19138754D01*
X19278215Y19104334D01*
X19101785Y19104334D01*
X18928744Y19138754D01*
X18765743Y19206271D01*
X18619046Y19304291D01*
X18494291Y19429046D01*
X18396271Y19575743D01*
X18328754Y19738744D01*
X18294334Y19911785D01*
X18294334Y20088215D01*
X18328754Y20261256D01*
X18396271Y20424257D01*
X18494291Y20570954D01*
X18619046Y20695709D01*
X18765743Y20793729D01*
X18928744Y20861246D01*
X19101785Y20895666D01*
X19278215Y20895666D01*
X19451256Y20861246D01*
G37*
G36*
X46261256Y21361246D02*
G01*
X46424257Y21293729D01*
X46570954Y21195709D01*
X46695709Y21070954D01*
X46793729Y20924257D01*
X46861246Y20761256D01*
X46895666Y20588215D01*
X46895666Y20411785D01*
X46861246Y20238744D01*
X46793729Y20075743D01*
X46695709Y19929046D01*
X46570954Y19804291D01*
X46424257Y19706271D01*
X46261256Y19638754D01*
X46088215Y19604334D01*
X45911785Y19604334D01*
X45738744Y19638754D01*
X45575743Y19706271D01*
X45429046Y19804291D01*
X45304291Y19929046D01*
X45206271Y20075743D01*
X45138754Y20238744D01*
X45104334Y20411785D01*
X45104334Y20588215D01*
X45138754Y20761256D01*
X45206271Y20924257D01*
X45304291Y21070954D01*
X45429046Y21195709D01*
X45575743Y21293729D01*
X45738744Y21361246D01*
X45911785Y21395666D01*
X46088215Y21395666D01*
X46261256Y21361246D01*
G37*
G36*
X9261256Y21861246D02*
G01*
X9424257Y21793729D01*
X9570954Y21695709D01*
X9695709Y21570954D01*
X9793729Y21424257D01*
X9861246Y21261256D01*
X9895666Y21088215D01*
X9895666Y20911785D01*
X9861246Y20738744D01*
X9793729Y20575743D01*
X9695709Y20429046D01*
X9570954Y20304291D01*
X9424257Y20206271D01*
X9261256Y20138754D01*
X9088215Y20104334D01*
X8911785Y20104334D01*
X8738744Y20138754D01*
X8575743Y20206271D01*
X8429046Y20304291D01*
X8304291Y20429046D01*
X8206271Y20575743D01*
X8138754Y20738744D01*
X8104334Y20911785D01*
X8104334Y21088215D01*
X8138754Y21261256D01*
X8206271Y21424257D01*
X8304291Y21570954D01*
X8429046Y21695709D01*
X8575743Y21793729D01*
X8738744Y21861246D01*
X8911785Y21895666D01*
X9088215Y21895666D01*
X9261256Y21861246D01*
G37*
G36*
X23936742Y23733399D02*
G01*
X24090687Y23669633D01*
X24229234Y23577059D01*
X24347059Y23459234D01*
X24439633Y23320687D01*
X24503399Y23166742D01*
X24535907Y23003315D01*
X24535907Y22836685D01*
X24503399Y22673258D01*
X24439633Y22519313D01*
X24347059Y22380766D01*
X24229234Y22262941D01*
X24090687Y22170367D01*
X23936742Y22106601D01*
X23773315Y22074093D01*
X23606685Y22074093D01*
X23443258Y22106601D01*
X23289313Y22170367D01*
X23150766Y22262941D01*
X23032941Y22380766D01*
X22940367Y22519313D01*
X22876601Y22673258D01*
X22844093Y22836685D01*
X22844093Y23003315D01*
X22876601Y23166742D01*
X22940367Y23320687D01*
X23032941Y23459234D01*
X23150766Y23577059D01*
X23289313Y23669633D01*
X23443258Y23733399D01*
X23606685Y23765907D01*
X23773315Y23765907D01*
X23936742Y23733399D01*
G37*
G36*
X37761256Y23861246D02*
G01*
X37924257Y23793729D01*
X38070954Y23695709D01*
X38195709Y23570954D01*
X38293729Y23424257D01*
X38361246Y23261256D01*
X38395666Y23088215D01*
X38395666Y22911785D01*
X38361246Y22738744D01*
X38293729Y22575743D01*
X38195709Y22429046D01*
X38070954Y22304291D01*
X37924257Y22206271D01*
X37761256Y22138754D01*
X37588215Y22104334D01*
X37411785Y22104334D01*
X37238744Y22138754D01*
X37075743Y22206271D01*
X36929046Y22304291D01*
X36804291Y22429046D01*
X36706271Y22575743D01*
X36638754Y22738744D01*
X36604334Y22911785D01*
X36604334Y23088215D01*
X36638754Y23261256D01*
X36706271Y23424257D01*
X36804291Y23570954D01*
X36929046Y23695709D01*
X37075743Y23793729D01*
X37238744Y23861246D01*
X37411785Y23895666D01*
X37588215Y23895666D01*
X37761256Y23861246D01*
G37*
G36*
X12732228Y23765552D02*
G01*
X12877117Y23705537D01*
X13007515Y23618408D01*
X13118408Y23507515D01*
X13205537Y23377117D01*
X13265552Y23232228D01*
X13296148Y23078414D01*
X13296148Y22921586D01*
X13265552Y22767772D01*
X13205537Y22622883D01*
X13118408Y22492485D01*
X13007515Y22381592D01*
X12877117Y22294463D01*
X12732228Y22234448D01*
X12578414Y22203852D01*
X12421586Y22203852D01*
X12267772Y22234448D01*
X12122883Y22294463D01*
X11992485Y22381592D01*
X11881592Y22492485D01*
X11794463Y22622883D01*
X11734448Y22767772D01*
X11703852Y22921586D01*
X11703852Y23078414D01*
X11734448Y23232228D01*
X11794463Y23377117D01*
X11881592Y23507515D01*
X11992485Y23618408D01*
X12122883Y23705537D01*
X12267772Y23765552D01*
X12421586Y23796148D01*
X12578414Y23796148D01*
X12732228Y23765552D01*
G37*
G36*
X20352228Y23765552D02*
G01*
X20497117Y23705537D01*
X20627515Y23618408D01*
X20738408Y23507515D01*
X20825537Y23377117D01*
X20885552Y23232228D01*
X20916148Y23078414D01*
X20916148Y22921586D01*
X20885552Y22767772D01*
X20825537Y22622883D01*
X20738408Y22492485D01*
X20627515Y22381592D01*
X20497117Y22294463D01*
X20352228Y22234448D01*
X20198414Y22203852D01*
X20041586Y22203852D01*
X19887772Y22234448D01*
X19742883Y22294463D01*
X19612485Y22381592D01*
X19501592Y22492485D01*
X19414463Y22622883D01*
X19354448Y22767772D01*
X19323852Y22921586D01*
X19323852Y23078414D01*
X19354448Y23232228D01*
X19414463Y23377117D01*
X19501592Y23507515D01*
X19612485Y23618408D01*
X19742883Y23705537D01*
X19887772Y23765552D01*
X20041586Y23796148D01*
X20198414Y23796148D01*
X20352228Y23765552D01*
G37*
G36*
X40732228Y23765552D02*
G01*
X40877117Y23705537D01*
X41007515Y23618408D01*
X41118408Y23507515D01*
X41205537Y23377117D01*
X41265552Y23232228D01*
X41296148Y23078414D01*
X41296148Y22921586D01*
X41265552Y22767772D01*
X41205537Y22622883D01*
X41118408Y22492485D01*
X41007515Y22381592D01*
X40877117Y22294463D01*
X40732228Y22234448D01*
X40578414Y22203852D01*
X40421586Y22203852D01*
X40267772Y22234448D01*
X40122883Y22294463D01*
X39992485Y22381592D01*
X39881592Y22492485D01*
X39794463Y22622883D01*
X39734448Y22767772D01*
X39703852Y22921586D01*
X39703852Y23078414D01*
X39734448Y23232228D01*
X39794463Y23377117D01*
X39881592Y23507515D01*
X39992485Y23618408D01*
X40122883Y23705537D01*
X40267772Y23765552D01*
X40421586Y23796148D01*
X40578414Y23796148D01*
X40732228Y23765552D01*
G37*
G36*
X29732228Y25765552D02*
G01*
X29877117Y25705537D01*
X30007515Y25618408D01*
X30118408Y25507515D01*
X30205537Y25377117D01*
X30265552Y25232228D01*
X30296148Y25078414D01*
X30296148Y24921586D01*
X30265552Y24767772D01*
X30205537Y24622883D01*
X30118408Y24492485D01*
X30007515Y24381592D01*
X29877117Y24294463D01*
X29732228Y24234448D01*
X29578414Y24203852D01*
X29421586Y24203852D01*
X29267772Y24234448D01*
X29122883Y24294463D01*
X28992485Y24381592D01*
X28881592Y24492485D01*
X28794463Y24622883D01*
X28734448Y24767772D01*
X28703852Y24921586D01*
X28703852Y25078414D01*
X28734448Y25232228D01*
X28794463Y25377117D01*
X28881592Y25507515D01*
X28992485Y25618408D01*
X29122883Y25705537D01*
X29267772Y25765552D01*
X29421586Y25796148D01*
X29578414Y25796148D01*
X29732228Y25765552D01*
G37*
G36*
X32232228Y25765552D02*
G01*
X32377117Y25705537D01*
X32507515Y25618408D01*
X32618408Y25507515D01*
X32705537Y25377117D01*
X32765552Y25232228D01*
X32796148Y25078414D01*
X32796148Y24921586D01*
X32765552Y24767772D01*
X32705537Y24622883D01*
X32618408Y24492485D01*
X32507515Y24381592D01*
X32377117Y24294463D01*
X32232228Y24234448D01*
X32078414Y24203852D01*
X31921586Y24203852D01*
X31767772Y24234448D01*
X31622883Y24294463D01*
X31492485Y24381592D01*
X31381592Y24492485D01*
X31294463Y24622883D01*
X31234448Y24767772D01*
X31203852Y24921586D01*
X31203852Y25078414D01*
X31234448Y25232228D01*
X31294463Y25377117D01*
X31381592Y25507515D01*
X31492485Y25618408D01*
X31622883Y25705537D01*
X31767772Y25765552D01*
X31921586Y25796148D01*
X32078414Y25796148D01*
X32232228Y25765552D01*
G37*
G36*
X34732228Y25765552D02*
G01*
X34877117Y25705537D01*
X35007515Y25618408D01*
X35118408Y25507515D01*
X35205537Y25377117D01*
X35265552Y25232228D01*
X35296148Y25078414D01*
X35296148Y24921586D01*
X35265552Y24767772D01*
X35205537Y24622883D01*
X35118408Y24492485D01*
X35007515Y24381592D01*
X34877117Y24294463D01*
X34732228Y24234448D01*
X34578414Y24203852D01*
X34421586Y24203852D01*
X34267772Y24234448D01*
X34122883Y24294463D01*
X33992485Y24381592D01*
X33881592Y24492485D01*
X33794463Y24622883D01*
X33734448Y24767772D01*
X33703852Y24921586D01*
X33703852Y25078414D01*
X33734448Y25232228D01*
X33794463Y25377117D01*
X33881592Y25507515D01*
X33992485Y25618408D01*
X34122883Y25705537D01*
X34267772Y25765552D01*
X34421586Y25796148D01*
X34578414Y25796148D01*
X34732228Y25765552D01*
G37*
G36*
X46261256Y26361246D02*
G01*
X46424257Y26293729D01*
X46570954Y26195709D01*
X46695709Y26070954D01*
X46793729Y25924257D01*
X46861246Y25761256D01*
X46895666Y25588215D01*
X46895666Y25411785D01*
X46861246Y25238744D01*
X46793729Y25075743D01*
X46695709Y24929046D01*
X46570954Y24804291D01*
X46424257Y24706271D01*
X46261256Y24638754D01*
X46088215Y24604334D01*
X45911785Y24604334D01*
X45738744Y24638754D01*
X45575743Y24706271D01*
X45429046Y24804291D01*
X45304291Y24929046D01*
X45206271Y25075743D01*
X45138754Y25238744D01*
X45104334Y25411785D01*
X45104334Y25588215D01*
X45138754Y25761256D01*
X45206271Y25924257D01*
X45304291Y26070954D01*
X45429046Y26195709D01*
X45575743Y26293729D01*
X45738744Y26361246D01*
X45911785Y26395666D01*
X46088215Y26395666D01*
X46261256Y26361246D01*
G37*
G36*
X23936742Y26273399D02*
G01*
X24090687Y26209633D01*
X24229234Y26117059D01*
X24347059Y25999234D01*
X24439633Y25860687D01*
X24503399Y25706742D01*
X24535907Y25543315D01*
X24535907Y25376685D01*
X24503399Y25213258D01*
X24439633Y25059313D01*
X24347059Y24920766D01*
X24229234Y24802941D01*
X24090687Y24710367D01*
X23936742Y24646601D01*
X23773315Y24614093D01*
X23606685Y24614093D01*
X23443258Y24646601D01*
X23289313Y24710367D01*
X23150766Y24802941D01*
X23032941Y24920766D01*
X22940367Y25059313D01*
X22876601Y25213258D01*
X22844093Y25376685D01*
X22844093Y25543315D01*
X22876601Y25706742D01*
X22940367Y25860687D01*
X23032941Y25999234D01*
X23150766Y26117059D01*
X23289313Y26209633D01*
X23443258Y26273399D01*
X23606685Y26305907D01*
X23773315Y26305907D01*
X23936742Y26273399D01*
G37*
G36*
X9261256Y26861246D02*
G01*
X9424257Y26793729D01*
X9570954Y26695709D01*
X9695709Y26570954D01*
X9793729Y26424257D01*
X9861246Y26261256D01*
X9895666Y26088215D01*
X9895666Y25911785D01*
X9861246Y25738744D01*
X9793729Y25575743D01*
X9695709Y25429046D01*
X9570954Y25304291D01*
X9424257Y25206271D01*
X9261256Y25138754D01*
X9088215Y25104334D01*
X8911785Y25104334D01*
X8738744Y25138754D01*
X8575743Y25206271D01*
X8429046Y25304291D01*
X8304291Y25429046D01*
X8206271Y25575743D01*
X8138754Y25738744D01*
X8104334Y25911785D01*
X8104334Y26088215D01*
X8138754Y26261256D01*
X8206271Y26424257D01*
X8304291Y26570954D01*
X8429046Y26695709D01*
X8575743Y26793729D01*
X8738744Y26861246D01*
X8911785Y26895666D01*
X9088215Y26895666D01*
X9261256Y26861246D01*
G37*
G36*
X12761256Y26861246D02*
G01*
X12924257Y26793729D01*
X13070954Y26695709D01*
X13195709Y26570954D01*
X13293729Y26424257D01*
X13361246Y26261256D01*
X13395666Y26088215D01*
X13395666Y25911785D01*
X13361246Y25738744D01*
X13293729Y25575743D01*
X13195709Y25429046D01*
X13070954Y25304291D01*
X12924257Y25206271D01*
X12761256Y25138754D01*
X12588215Y25104334D01*
X12411785Y25104334D01*
X12238744Y25138754D01*
X12075743Y25206271D01*
X11929046Y25304291D01*
X11804291Y25429046D01*
X11706271Y25575743D01*
X11638754Y25738744D01*
X11604334Y25911785D01*
X11604334Y26088215D01*
X11638754Y26261256D01*
X11706271Y26424257D01*
X11804291Y26570954D01*
X11929046Y26695709D01*
X12075743Y26793729D01*
X12238744Y26861246D01*
X12411785Y26895666D01*
X12588215Y26895666D01*
X12761256Y26861246D01*
G37*
G36*
X17761256Y26861246D02*
G01*
X17924257Y26793729D01*
X18070954Y26695709D01*
X18195709Y26570954D01*
X18293729Y26424257D01*
X18361246Y26261256D01*
X18395666Y26088215D01*
X18395666Y25911785D01*
X18361246Y25738744D01*
X18293729Y25575743D01*
X18195709Y25429046D01*
X18070954Y25304291D01*
X17924257Y25206271D01*
X17761256Y25138754D01*
X17588215Y25104334D01*
X17411785Y25104334D01*
X17238744Y25138754D01*
X17075743Y25206271D01*
X16929046Y25304291D01*
X16804291Y25429046D01*
X16706271Y25575743D01*
X16638754Y25738744D01*
X16604334Y25911785D01*
X16604334Y26088215D01*
X16638754Y26261256D01*
X16706271Y26424257D01*
X16804291Y26570954D01*
X16929046Y26695709D01*
X17075743Y26793729D01*
X17238744Y26861246D01*
X17411785Y26895666D01*
X17588215Y26895666D01*
X17761256Y26861246D01*
G37*
G36*
X43232228Y26765552D02*
G01*
X43377117Y26705537D01*
X43507515Y26618408D01*
X43618408Y26507515D01*
X43705537Y26377117D01*
X43765552Y26232228D01*
X43796148Y26078414D01*
X43796148Y25921586D01*
X43765552Y25767772D01*
X43705537Y25622883D01*
X43618408Y25492485D01*
X43507515Y25381592D01*
X43377117Y25294463D01*
X43232228Y25234448D01*
X43078414Y25203852D01*
X42921586Y25203852D01*
X42767772Y25234448D01*
X42622883Y25294463D01*
X42492485Y25381592D01*
X42381592Y25492485D01*
X42294463Y25622883D01*
X42234448Y25767772D01*
X42203852Y25921586D01*
X42203852Y26078414D01*
X42234448Y26232228D01*
X42294463Y26377117D01*
X42381592Y26507515D01*
X42492485Y26618408D01*
X42622883Y26705537D01*
X42767772Y26765552D01*
X42921586Y26796148D01*
X43078414Y26796148D01*
X43232228Y26765552D01*
G37*
G36*
X37459868Y28385450D02*
G01*
X37465586Y28382655D01*
X37467962Y28382278D01*
X37505987Y28362904D01*
X37563377Y28334847D01*
X37644847Y28253377D01*
X37672907Y28195980D01*
X37692276Y28157966D01*
X37692652Y28155592D01*
X37695450Y28149868D01*
X37710000Y28050000D01*
X37710000Y26950000D01*
X37695450Y26850132D01*
X37692652Y26844411D01*
X37692277Y26842038D01*
X37672926Y26804061D01*
X37644847Y26746623D01*
X37563377Y26665153D01*
X37505955Y26637081D01*
X37467965Y26617724D01*
X37465591Y26617349D01*
X37459868Y26614550D01*
X37360000Y26600000D01*
X36260000Y26600000D01*
X36160132Y26614550D01*
X36154410Y26617348D01*
X36152037Y26617723D01*
X36114035Y26637086D01*
X36056623Y26665153D01*
X35975153Y26746623D01*
X35947104Y26803997D01*
X35927723Y26842035D01*
X35927346Y26844412D01*
X35924550Y26850132D01*
X35910000Y26950000D01*
X35910000Y28050000D01*
X35924550Y28149868D01*
X35927345Y28155587D01*
X35927722Y28157963D01*
X35947108Y28196013D01*
X35975153Y28253377D01*
X36056623Y28334847D01*
X36113971Y28362884D01*
X36152034Y28382277D01*
X36154411Y28382654D01*
X36160132Y28385450D01*
X36260000Y28400000D01*
X37360000Y28400000D01*
X37459868Y28385450D01*
G37*
G36*
X29451256Y28361246D02*
G01*
X29614257Y28293729D01*
X29760954Y28195709D01*
X29885709Y28070954D01*
X29983729Y27924257D01*
X30051246Y27761256D01*
X30085666Y27588215D01*
X30085666Y27411785D01*
X30051246Y27238744D01*
X29983729Y27075743D01*
X29885709Y26929046D01*
X29760954Y26804291D01*
X29614257Y26706271D01*
X29451256Y26638754D01*
X29278215Y26604334D01*
X29101785Y26604334D01*
X28928744Y26638754D01*
X28765743Y26706271D01*
X28619046Y26804291D01*
X28494291Y26929046D01*
X28396271Y27075743D01*
X28328754Y27238744D01*
X28294334Y27411785D01*
X28294334Y27588215D01*
X28328754Y27761256D01*
X28396271Y27924257D01*
X28494291Y28070954D01*
X28619046Y28195709D01*
X28765743Y28293729D01*
X28928744Y28361246D01*
X29101785Y28395666D01*
X29278215Y28395666D01*
X29451256Y28361246D01*
G37*
G36*
X24478268Y28842388D02*
G01*
X24510711Y28820711D01*
X24532388Y28788268D01*
X24540000Y28750000D01*
X24540000Y27250000D01*
X24532388Y27211732D01*
X24510711Y27179289D01*
X24478268Y27157612D01*
X24440000Y27150000D01*
X22940000Y27150000D01*
X22901732Y27157612D01*
X22869289Y27179289D01*
X22847612Y27211732D01*
X22840000Y27250000D01*
X22840000Y28750000D01*
X22847612Y28788268D01*
X22869289Y28820711D01*
X22901732Y28842388D01*
X22940000Y28850000D01*
X24440000Y28850000D01*
X24478268Y28842388D01*
G37*
G36*
X45928268Y29942388D02*
G01*
X45960711Y29920711D01*
X45982388Y29888268D01*
X45990000Y29850000D01*
X45990000Y28150000D01*
X45982388Y28111732D01*
X45960711Y28079289D01*
X45928268Y28057612D01*
X45890000Y28050000D01*
X44190000Y28050000D01*
X44151732Y28057612D01*
X44119289Y28079289D01*
X44097612Y28111732D01*
X44090000Y28150000D01*
X44090000Y29850000D01*
X44097612Y29888268D01*
X44119289Y29920711D01*
X44151732Y29942388D01*
X44190000Y29950000D01*
X45890000Y29950000D01*
X45928268Y29942388D01*
G37*
G36*
X40235770Y29909093D02*
G01*
X40407827Y29837825D01*
X40562674Y29734360D01*
X40694360Y29602674D01*
X40797825Y29447827D01*
X40869093Y29275770D01*
X40905425Y29093116D01*
X40905425Y28906884D01*
X40869093Y28724230D01*
X40797825Y28552173D01*
X40694360Y28397326D01*
X40562674Y28265640D01*
X40407827Y28162175D01*
X40235770Y28090907D01*
X40053116Y28054575D01*
X39866884Y28054575D01*
X39684230Y28090907D01*
X39512173Y28162175D01*
X39357326Y28265640D01*
X39225640Y28397326D01*
X39122175Y28552173D01*
X39050907Y28724230D01*
X39014575Y28906884D01*
X39014575Y29093116D01*
X39050907Y29275770D01*
X39122175Y29447827D01*
X39225640Y29602674D01*
X39357326Y29734360D01*
X39512173Y29837825D01*
X39684230Y29909093D01*
X39866884Y29945425D01*
X40053116Y29945425D01*
X40235770Y29909093D01*
G37*
G36*
X42775770Y29909093D02*
G01*
X42947827Y29837825D01*
X43102674Y29734360D01*
X43234360Y29602674D01*
X43337825Y29447827D01*
X43409093Y29275770D01*
X43445425Y29093116D01*
X43445425Y28906884D01*
X43409093Y28724230D01*
X43337825Y28552173D01*
X43234360Y28397326D01*
X43102674Y28265640D01*
X42947827Y28162175D01*
X42775770Y28090907D01*
X42593116Y28054575D01*
X42406884Y28054575D01*
X42224230Y28090907D01*
X42052173Y28162175D01*
X41897326Y28265640D01*
X41765640Y28397326D01*
X41662175Y28552173D01*
X41590907Y28724230D01*
X41554575Y28906884D01*
X41554575Y29093116D01*
X41590907Y29275770D01*
X41662175Y29447827D01*
X41765640Y29602674D01*
X41897326Y29734360D01*
X42052173Y29837825D01*
X42224230Y29909093D01*
X42406884Y29945425D01*
X42593116Y29945425D01*
X42775770Y29909093D01*
G37*
G36*
X32746742Y31233399D02*
G01*
X32900687Y31169633D01*
X33039234Y31077059D01*
X33157059Y30959234D01*
X33249633Y30820687D01*
X33313399Y30666742D01*
X33345907Y30503315D01*
X33345907Y30336685D01*
X33313399Y30173258D01*
X33249633Y30019313D01*
X33157059Y29880766D01*
X33039234Y29762941D01*
X32900687Y29670367D01*
X32746742Y29606601D01*
X32583315Y29574093D01*
X32416685Y29574093D01*
X32253258Y29606601D01*
X32099313Y29670367D01*
X31960766Y29762941D01*
X31842941Y29880766D01*
X31750367Y30019313D01*
X31686601Y30173258D01*
X31654093Y30336685D01*
X31654093Y30503315D01*
X31686601Y30666742D01*
X31750367Y30820687D01*
X31842941Y30959234D01*
X31960766Y31077059D01*
X32099313Y31169633D01*
X32253258Y31233399D01*
X32416685Y31265907D01*
X32583315Y31265907D01*
X32746742Y31233399D01*
G37*
G36*
X28761256Y31361246D02*
G01*
X28924257Y31293729D01*
X29070954Y31195709D01*
X29195709Y31070954D01*
X29293729Y30924257D01*
X29361246Y30761256D01*
X29395666Y30588215D01*
X29395666Y30411785D01*
X29361246Y30238744D01*
X29293729Y30075743D01*
X29195709Y29929046D01*
X29070954Y29804291D01*
X28924257Y29706271D01*
X28761256Y29638754D01*
X28588215Y29604334D01*
X28411785Y29604334D01*
X28238744Y29638754D01*
X28075743Y29706271D01*
X27929046Y29804291D01*
X27804291Y29929046D01*
X27706271Y30075743D01*
X27638754Y30238744D01*
X27604334Y30411785D01*
X27604334Y30588215D01*
X27638754Y30761256D01*
X27706271Y30924257D01*
X27804291Y31070954D01*
X27929046Y31195709D01*
X28075743Y31293729D01*
X28238744Y31361246D01*
X28411785Y31395666D01*
X28588215Y31395666D01*
X28761256Y31361246D01*
G37*
G36*
X18232228Y31265552D02*
G01*
X18377117Y31205537D01*
X18507515Y31118408D01*
X18618408Y31007515D01*
X18705537Y30877117D01*
X18765552Y30732228D01*
X18796148Y30578414D01*
X18796148Y30421586D01*
X18765552Y30267772D01*
X18705537Y30122883D01*
X18618408Y29992485D01*
X18507515Y29881592D01*
X18377117Y29794463D01*
X18232228Y29734448D01*
X18078414Y29703852D01*
X17921586Y29703852D01*
X17767772Y29734448D01*
X17622883Y29794463D01*
X17492485Y29881592D01*
X17381592Y29992485D01*
X17294463Y30122883D01*
X17234448Y30267772D01*
X17203852Y30421586D01*
X17203852Y30578414D01*
X17234448Y30732228D01*
X17294463Y30877117D01*
X17381592Y31007515D01*
X17492485Y31118408D01*
X17622883Y31205537D01*
X17767772Y31265552D01*
X17921586Y31296148D01*
X18078414Y31296148D01*
X18232228Y31265552D01*
G37*
G36*
X25852228Y31265552D02*
G01*
X25997117Y31205537D01*
X26127515Y31118408D01*
X26238408Y31007515D01*
X26325537Y30877117D01*
X26385552Y30732228D01*
X26416148Y30578414D01*
X26416148Y30421586D01*
X26385552Y30267772D01*
X26325537Y30122883D01*
X26238408Y29992485D01*
X26127515Y29881592D01*
X25997117Y29794463D01*
X25852228Y29734448D01*
X25698414Y29703852D01*
X25541586Y29703852D01*
X25387772Y29734448D01*
X25242883Y29794463D01*
X25112485Y29881592D01*
X25001592Y29992485D01*
X24914463Y30122883D01*
X24854448Y30267772D01*
X24823852Y30421586D01*
X24823852Y30578414D01*
X24854448Y30732228D01*
X24914463Y30877117D01*
X25001592Y31007515D01*
X25112485Y31118408D01*
X25242883Y31205537D01*
X25387772Y31265552D01*
X25541586Y31296148D01*
X25698414Y31296148D01*
X25852228Y31265552D01*
G37*
G36*
X37261256Y33361246D02*
G01*
X37424257Y33293729D01*
X37570954Y33195709D01*
X37695709Y33070954D01*
X37793729Y32924257D01*
X37861246Y32761256D01*
X37895666Y32588215D01*
X37895666Y32411785D01*
X37861246Y32238744D01*
X37793729Y32075743D01*
X37695709Y31929046D01*
X37570954Y31804291D01*
X37424257Y31706271D01*
X37261256Y31638754D01*
X37088215Y31604334D01*
X36911785Y31604334D01*
X36738744Y31638754D01*
X36575743Y31706271D01*
X36429046Y31804291D01*
X36304291Y31929046D01*
X36206271Y32075743D01*
X36138754Y32238744D01*
X36104334Y32411785D01*
X36104334Y32588215D01*
X36138754Y32761256D01*
X36206271Y32924257D01*
X36304291Y33070954D01*
X36429046Y33195709D01*
X36575743Y33293729D01*
X36738744Y33361246D01*
X36911785Y33395666D01*
X37088215Y33395666D01*
X37261256Y33361246D01*
G37*
G36*
X42261256Y33361246D02*
G01*
X42424257Y33293729D01*
X42570954Y33195709D01*
X42695709Y33070954D01*
X42793729Y32924257D01*
X42861246Y32761256D01*
X42895666Y32588215D01*
X42895666Y32411785D01*
X42861246Y32238744D01*
X42793729Y32075743D01*
X42695709Y31929046D01*
X42570954Y31804291D01*
X42424257Y31706271D01*
X42261256Y31638754D01*
X42088215Y31604334D01*
X41911785Y31604334D01*
X41738744Y31638754D01*
X41575743Y31706271D01*
X41429046Y31804291D01*
X41304291Y31929046D01*
X41206271Y32075743D01*
X41138754Y32238744D01*
X41104334Y32411785D01*
X41104334Y32588215D01*
X41138754Y32761256D01*
X41206271Y32924257D01*
X41304291Y33070954D01*
X41429046Y33195709D01*
X41575743Y33293729D01*
X41738744Y33361246D01*
X41911785Y33395666D01*
X42088215Y33395666D01*
X42261256Y33361246D01*
G37*
G36*
X47261256Y33361246D02*
G01*
X47424257Y33293729D01*
X47570954Y33195709D01*
X47695709Y33070954D01*
X47793729Y32924257D01*
X47861246Y32761256D01*
X47895666Y32588215D01*
X47895666Y32411785D01*
X47861246Y32238744D01*
X47793729Y32075743D01*
X47695709Y31929046D01*
X47570954Y31804291D01*
X47424257Y31706271D01*
X47261256Y31638754D01*
X47088215Y31604334D01*
X46911785Y31604334D01*
X46738744Y31638754D01*
X46575743Y31706271D01*
X46429046Y31804291D01*
X46304291Y31929046D01*
X46206271Y32075743D01*
X46138754Y32238744D01*
X46104334Y32411785D01*
X46104334Y32588215D01*
X46138754Y32761256D01*
X46206271Y32924257D01*
X46304291Y33070954D01*
X46429046Y33195709D01*
X46575743Y33293729D01*
X46738744Y33361246D01*
X46911785Y33395666D01*
X47088215Y33395666D01*
X47261256Y33361246D01*
G37*
G36*
X32746742Y33773399D02*
G01*
X32900687Y33709633D01*
X33039234Y33617059D01*
X33157059Y33499234D01*
X33249633Y33360687D01*
X33313399Y33206742D01*
X33345907Y33043315D01*
X33345907Y32876685D01*
X33313399Y32713258D01*
X33249633Y32559313D01*
X33157059Y32420766D01*
X33039234Y32302941D01*
X32900687Y32210367D01*
X32746742Y32146601D01*
X32583315Y32114093D01*
X32416685Y32114093D01*
X32253258Y32146601D01*
X32099313Y32210367D01*
X31960766Y32302941D01*
X31842941Y32420766D01*
X31750367Y32559313D01*
X31686601Y32713258D01*
X31654093Y32876685D01*
X31654093Y33043315D01*
X31686601Y33206742D01*
X31750367Y33360687D01*
X31842941Y33499234D01*
X31960766Y33617059D01*
X32099313Y33709633D01*
X32253258Y33773399D01*
X32416685Y33805907D01*
X32583315Y33805907D01*
X32746742Y33773399D01*
G37*
G36*
X18232228Y33765552D02*
G01*
X18377117Y33705537D01*
X18507515Y33618408D01*
X18618408Y33507515D01*
X18705537Y33377117D01*
X18765552Y33232228D01*
X18796148Y33078414D01*
X18796148Y32921586D01*
X18765552Y32767772D01*
X18705537Y32622883D01*
X18618408Y32492485D01*
X18507515Y32381592D01*
X18377117Y32294463D01*
X18232228Y32234448D01*
X18078414Y32203852D01*
X17921586Y32203852D01*
X17767772Y32234448D01*
X17622883Y32294463D01*
X17492485Y32381592D01*
X17381592Y32492485D01*
X17294463Y32622883D01*
X17234448Y32767772D01*
X17203852Y32921586D01*
X17203852Y33078414D01*
X17234448Y33232228D01*
X17294463Y33377117D01*
X17381592Y33507515D01*
X17492485Y33618408D01*
X17622883Y33705537D01*
X17767772Y33765552D01*
X17921586Y33796148D01*
X18078414Y33796148D01*
X18232228Y33765552D01*
G37*
G36*
X25852228Y33765552D02*
G01*
X25997117Y33705537D01*
X26127515Y33618408D01*
X26238408Y33507515D01*
X26325537Y33377117D01*
X26385552Y33232228D01*
X26416148Y33078414D01*
X26416148Y32921586D01*
X26385552Y32767772D01*
X26325537Y32622883D01*
X26238408Y32492485D01*
X26127515Y32381592D01*
X25997117Y32294463D01*
X25852228Y32234448D01*
X25698414Y32203852D01*
X25541586Y32203852D01*
X25387772Y32234448D01*
X25242883Y32294463D01*
X25112485Y32381592D01*
X25001592Y32492485D01*
X24914463Y32622883D01*
X24854448Y32767772D01*
X24823852Y32921586D01*
X24823852Y33078414D01*
X24854448Y33232228D01*
X24914463Y33377117D01*
X25001592Y33507515D01*
X25112485Y33618408D01*
X25242883Y33705537D01*
X25387772Y33765552D01*
X25541586Y33796148D01*
X25698414Y33796148D01*
X25852228Y33765552D01*
G37*
G36*
X7038268Y33592388D02*
G01*
X7070711Y33570711D01*
X7092388Y33538268D01*
X7100000Y33500000D01*
X7100000Y32500000D01*
X7092388Y32461732D01*
X7070711Y32429289D01*
X7038268Y32407612D01*
X7000000Y32400000D01*
X6000000Y32400000D01*
X5961732Y32407612D01*
X5929289Y32429289D01*
X5907612Y32461732D01*
X5900000Y32500000D01*
X5900000Y33500000D01*
X5907612Y33538268D01*
X5929289Y33570711D01*
X5961732Y33592388D01*
X6000000Y33600000D01*
X7000000Y33600000D01*
X7038268Y33592388D01*
G37*
G36*
X28761256Y36361246D02*
G01*
X28924257Y36293729D01*
X29070954Y36195709D01*
X29195709Y36070954D01*
X29293729Y35924257D01*
X29361246Y35761256D01*
X29395666Y35588215D01*
X29395666Y35411785D01*
X29361246Y35238744D01*
X29293729Y35075743D01*
X29195709Y34929046D01*
X29070954Y34804291D01*
X28924257Y34706271D01*
X28761256Y34638754D01*
X28588215Y34604334D01*
X28411785Y34604334D01*
X28238744Y34638754D01*
X28075743Y34706271D01*
X27929046Y34804291D01*
X27804291Y34929046D01*
X27706271Y35075743D01*
X27638754Y35238744D01*
X27604334Y35411785D01*
X27604334Y35588215D01*
X27638754Y35761256D01*
X27706271Y35924257D01*
X27804291Y36070954D01*
X27929046Y36195709D01*
X28075743Y36293729D01*
X28238744Y36361246D01*
X28411785Y36395666D01*
X28588215Y36395666D01*
X28761256Y36361246D01*
G37*
G36*
X33288268Y36342388D02*
G01*
X33320711Y36320711D01*
X33342388Y36288268D01*
X33350000Y36250000D01*
X33350000Y34750000D01*
X33342388Y34711732D01*
X33320711Y34679289D01*
X33288268Y34657612D01*
X33250000Y34650000D01*
X31750000Y34650000D01*
X31711732Y34657612D01*
X31679289Y34679289D01*
X31657612Y34711732D01*
X31650000Y34750000D01*
X31650000Y36250000D01*
X31657612Y36288268D01*
X31679289Y36320711D01*
X31711732Y36342388D01*
X31750000Y36350000D01*
X33250000Y36350000D01*
X33288268Y36342388D01*
G37*
G36*
X36612228Y36265552D02*
G01*
X36757117Y36205537D01*
X36887515Y36118408D01*
X36998408Y36007515D01*
X37085537Y35877117D01*
X37145552Y35732228D01*
X37176148Y35578414D01*
X37176148Y35421586D01*
X37145552Y35267772D01*
X37085537Y35122883D01*
X36998408Y34992485D01*
X36887515Y34881592D01*
X36757117Y34794463D01*
X36612228Y34734448D01*
X36458414Y34703852D01*
X36301586Y34703852D01*
X36147772Y34734448D01*
X36002883Y34794463D01*
X35872485Y34881592D01*
X35761592Y34992485D01*
X35674463Y35122883D01*
X35614448Y35267772D01*
X35583852Y35421586D01*
X35583852Y35578414D01*
X35614448Y35732228D01*
X35674463Y35877117D01*
X35761592Y36007515D01*
X35872485Y36118408D01*
X36002883Y36205537D01*
X36147772Y36265552D01*
X36301586Y36296148D01*
X36458414Y36296148D01*
X36612228Y36265552D01*
G37*
G36*
X44232228Y36265552D02*
G01*
X44377117Y36205537D01*
X44507515Y36118408D01*
X44618408Y36007515D01*
X44705537Y35877117D01*
X44765552Y35732228D01*
X44796148Y35578414D01*
X44796148Y35421586D01*
X44765552Y35267772D01*
X44705537Y35122883D01*
X44618408Y34992485D01*
X44507515Y34881592D01*
X44377117Y34794463D01*
X44232228Y34734448D01*
X44078414Y34703852D01*
X43921586Y34703852D01*
X43767772Y34734448D01*
X43622883Y34794463D01*
X43492485Y34881592D01*
X43381592Y34992485D01*
X43294463Y35122883D01*
X43234448Y35267772D01*
X43203852Y35421586D01*
X43203852Y35578414D01*
X43234448Y35732228D01*
X43294463Y35877117D01*
X43381592Y36007515D01*
X43492485Y36118408D01*
X43622883Y36205537D01*
X43767772Y36265552D01*
X43921586Y36296148D01*
X44078414Y36296148D01*
X44232228Y36265552D01*
G37*
G36*
X6732228Y38145552D02*
G01*
X6877117Y38085537D01*
X7007515Y37998408D01*
X7118408Y37887515D01*
X7205537Y37757117D01*
X7265552Y37612228D01*
X7296148Y37458414D01*
X7296148Y37301586D01*
X7265552Y37147772D01*
X7205537Y37002883D01*
X7118408Y36872485D01*
X7007515Y36761592D01*
X6877117Y36674463D01*
X6732228Y36614448D01*
X6578414Y36583852D01*
X6421586Y36583852D01*
X6267772Y36614448D01*
X6122883Y36674463D01*
X5992485Y36761592D01*
X5881592Y36872485D01*
X5794463Y37002883D01*
X5734448Y37147772D01*
X5703852Y37301586D01*
X5703852Y37458414D01*
X5734448Y37612228D01*
X5794463Y37757117D01*
X5881592Y37887515D01*
X5992485Y37998408D01*
X6122883Y38085537D01*
X6267772Y38145552D01*
X6421586Y38176148D01*
X6578414Y38176148D01*
X6732228Y38145552D01*
G37*
G36*
X47261256Y38361246D02*
G01*
X47424257Y38293729D01*
X47570954Y38195709D01*
X47695709Y38070954D01*
X47793729Y37924257D01*
X47861246Y37761256D01*
X47895666Y37588215D01*
X47895666Y37411785D01*
X47861246Y37238744D01*
X47793729Y37075743D01*
X47695709Y36929046D01*
X47570954Y36804291D01*
X47424257Y36706271D01*
X47261256Y36638754D01*
X47088215Y36604334D01*
X46911785Y36604334D01*
X46738744Y36638754D01*
X46575743Y36706271D01*
X46429046Y36804291D01*
X46304291Y36929046D01*
X46206271Y37075743D01*
X46138754Y37238744D01*
X46104334Y37411785D01*
X46104334Y37588215D01*
X46138754Y37761256D01*
X46206271Y37924257D01*
X46304291Y38070954D01*
X46429046Y38195709D01*
X46575743Y38293729D01*
X46738744Y38361246D01*
X46911785Y38395666D01*
X47088215Y38395666D01*
X47261256Y38361246D01*
G37*
G36*
X4449868Y39025450D02*
G01*
X4455586Y39022655D01*
X4457963Y39022278D01*
X4496002Y39002896D01*
X4553377Y38974847D01*
X4634847Y38893377D01*
X4662907Y38835980D01*
X4682277Y38797964D01*
X4682653Y38795589D01*
X4685450Y38789868D01*
X4699999Y38690000D01*
X4699999Y38686077D01*
X4700000Y38686070D01*
X4700000Y37767844D01*
X4700000Y36989999D01*
X4685450Y36890132D01*
X4682652Y36884411D01*
X4682277Y36882037D01*
X4662919Y36844046D01*
X4634847Y36786623D01*
X4553377Y36705153D01*
X4495954Y36677081D01*
X4457963Y36657723D01*
X4455589Y36657348D01*
X4449868Y36654550D01*
X4350000Y36640001D01*
X4346075Y36640001D01*
X4346069Y36640000D01*
X2653931Y36640000D01*
X2653930Y36640001D01*
X2649999Y36640000D01*
X2550132Y36654550D01*
X2544411Y36657347D01*
X2542036Y36657723D01*
X2504020Y36677093D01*
X2446623Y36705153D01*
X2365153Y36786623D01*
X2337104Y36843998D01*
X2317722Y36882037D01*
X2317345Y36884414D01*
X2314550Y36890132D01*
X2300001Y36990000D01*
X2300000Y36993925D01*
X2300000Y36993931D01*
X2300000Y38686070D01*
X2300000Y38686071D01*
X2300000Y38690001D01*
X2314550Y38789868D01*
X2317345Y38795586D01*
X2317722Y38797964D01*
X2337116Y38836028D01*
X2365153Y38893377D01*
X2446623Y38974847D01*
X2503972Y39002884D01*
X2542036Y39022278D01*
X2544414Y39022655D01*
X2550132Y39025450D01*
X2650000Y39039999D01*
X2653924Y39040000D01*
X2653931Y39040000D01*
X4346069Y39040000D01*
X4350001Y39040000D01*
X4449868Y39025450D01*
G37*
G36*
X11649868Y38885450D02*
G01*
X11655586Y38882655D01*
X11657962Y38882278D01*
X11695987Y38862904D01*
X11753377Y38834847D01*
X11834847Y38753377D01*
X11862907Y38695980D01*
X11882276Y38657966D01*
X11882652Y38655592D01*
X11885450Y38649868D01*
X11900000Y38550000D01*
X11900000Y37450000D01*
X11885450Y37350132D01*
X11882652Y37344411D01*
X11882277Y37342038D01*
X11862926Y37304061D01*
X11834847Y37246623D01*
X11753377Y37165153D01*
X11695955Y37137081D01*
X11657965Y37117724D01*
X11655591Y37117349D01*
X11649868Y37114550D01*
X11550000Y37100000D01*
X10450000Y37100000D01*
X10350132Y37114550D01*
X10344410Y37117348D01*
X10342037Y37117723D01*
X10304035Y37137086D01*
X10246623Y37165153D01*
X10165153Y37246623D01*
X10137104Y37303997D01*
X10117723Y37342035D01*
X10117346Y37344412D01*
X10114550Y37350132D01*
X10100000Y37450000D01*
X10100000Y38550000D01*
X10114550Y38649868D01*
X10117345Y38655587D01*
X10117722Y38657963D01*
X10137108Y38696013D01*
X10165153Y38753377D01*
X10246623Y38834847D01*
X10303971Y38862884D01*
X10342034Y38882277D01*
X10344411Y38882654D01*
X10350132Y38885450D01*
X10450000Y38900000D01*
X11550000Y38900000D01*
X11649868Y38885450D01*
G37*
G36*
X27922228Y38765552D02*
G01*
X28067117Y38705537D01*
X28197515Y38618408D01*
X28308408Y38507515D01*
X28395537Y38377117D01*
X28455552Y38232228D01*
X28486148Y38078414D01*
X28486148Y37921586D01*
X28455552Y37767772D01*
X28395537Y37622883D01*
X28308408Y37492485D01*
X28197515Y37381592D01*
X28067117Y37294463D01*
X27922228Y37234448D01*
X27768414Y37203852D01*
X27611586Y37203852D01*
X27457772Y37234448D01*
X27312883Y37294463D01*
X27182485Y37381592D01*
X27071592Y37492485D01*
X26984463Y37622883D01*
X26924448Y37767772D01*
X26893852Y37921586D01*
X26893852Y38078414D01*
X26924448Y38232228D01*
X26984463Y38377117D01*
X27071592Y38507515D01*
X27182485Y38618408D01*
X27312883Y38705537D01*
X27457772Y38765552D01*
X27611586Y38796148D01*
X27768414Y38796148D01*
X27922228Y38765552D01*
G37*
G36*
X35542228Y38765552D02*
G01*
X35687117Y38705537D01*
X35817515Y38618408D01*
X35928408Y38507515D01*
X36015537Y38377117D01*
X36075552Y38232228D01*
X36106148Y38078414D01*
X36106148Y37921586D01*
X36075552Y37767772D01*
X36015537Y37622883D01*
X35928408Y37492485D01*
X35817515Y37381592D01*
X35687117Y37294463D01*
X35542228Y37234448D01*
X35388414Y37203852D01*
X35231586Y37203852D01*
X35077772Y37234448D01*
X34932883Y37294463D01*
X34802485Y37381592D01*
X34691592Y37492485D01*
X34604463Y37622883D01*
X34544448Y37767772D01*
X34513852Y37921586D01*
X34513852Y38078414D01*
X34544448Y38232228D01*
X34604463Y38377117D01*
X34691592Y38507515D01*
X34802485Y38618408D01*
X34932883Y38705537D01*
X35077772Y38765552D01*
X35231586Y38796148D01*
X35388414Y38796148D01*
X35542228Y38765552D01*
G37*
G36*
X39149868Y40385450D02*
G01*
X39155586Y40382655D01*
X39157962Y40382278D01*
X39195987Y40362904D01*
X39253377Y40334847D01*
X39334847Y40253377D01*
X39362907Y40195980D01*
X39382276Y40157966D01*
X39382652Y40155592D01*
X39385450Y40149868D01*
X39400000Y40050000D01*
X39400000Y38950000D01*
X39385450Y38850132D01*
X39382652Y38844411D01*
X39382277Y38842038D01*
X39362926Y38804061D01*
X39334847Y38746623D01*
X39253377Y38665153D01*
X39195955Y38637081D01*
X39157965Y38617724D01*
X39155591Y38617349D01*
X39149868Y38614550D01*
X39050000Y38600000D01*
X37950000Y38600000D01*
X37850132Y38614550D01*
X37844410Y38617348D01*
X37842037Y38617723D01*
X37804035Y38637086D01*
X37746623Y38665153D01*
X37665153Y38746623D01*
X37637104Y38803997D01*
X37617723Y38842035D01*
X37617346Y38844412D01*
X37614550Y38850132D01*
X37600000Y38950000D01*
X37600000Y40050000D01*
X37614550Y40149868D01*
X37617345Y40155587D01*
X37617722Y40157963D01*
X37637108Y40196013D01*
X37665153Y40253377D01*
X37746623Y40334847D01*
X37803971Y40362884D01*
X37842034Y40382277D01*
X37844411Y40382654D01*
X37850132Y40385450D01*
X37950000Y40400000D01*
X39050000Y40400000D01*
X39149868Y40385450D01*
G37*
G36*
X41261256Y40361246D02*
G01*
X41424257Y40293729D01*
X41570954Y40195709D01*
X41695709Y40070954D01*
X41793729Y39924257D01*
X41861246Y39761256D01*
X41895666Y39588215D01*
X41895666Y39411785D01*
X41861246Y39238744D01*
X41793729Y39075743D01*
X41695709Y38929046D01*
X41570954Y38804291D01*
X41424257Y38706271D01*
X41261256Y38638754D01*
X41088215Y38604334D01*
X40911785Y38604334D01*
X40738744Y38638754D01*
X40575743Y38706271D01*
X40429046Y38804291D01*
X40304291Y38929046D01*
X40206271Y39075743D01*
X40138754Y39238744D01*
X40104334Y39411785D01*
X40104334Y39588215D01*
X40138754Y39761256D01*
X40206271Y39924257D01*
X40304291Y40070954D01*
X40429046Y40195709D01*
X40575743Y40293729D01*
X40738744Y40361246D01*
X40911785Y40395666D01*
X41088215Y40395666D01*
X41261256Y40361246D01*
G37*
G36*
X11261256Y41361246D02*
G01*
X11424257Y41293729D01*
X11570954Y41195709D01*
X11695709Y41070954D01*
X11793729Y40924257D01*
X11861246Y40761256D01*
X11895666Y40588215D01*
X11895666Y40411785D01*
X11861246Y40238744D01*
X11793729Y40075743D01*
X11695709Y39929046D01*
X11570954Y39804291D01*
X11424257Y39706271D01*
X11261256Y39638754D01*
X11088215Y39604334D01*
X10911785Y39604334D01*
X10738744Y39638754D01*
X10575743Y39706271D01*
X10429046Y39804291D01*
X10304291Y39929046D01*
X10206271Y40075743D01*
X10138754Y40238744D01*
X10104334Y40411785D01*
X10104334Y40588215D01*
X10138754Y40761256D01*
X10206271Y40924257D01*
X10304291Y41070954D01*
X10429046Y41195709D01*
X10575743Y41293729D01*
X10738744Y41361246D01*
X10911785Y41395666D01*
X11088215Y41395666D01*
X11261256Y41361246D01*
G37*
G36*
X27922228Y41265552D02*
G01*
X28067117Y41205537D01*
X28197515Y41118408D01*
X28308408Y41007515D01*
X28395537Y40877117D01*
X28455552Y40732228D01*
X28486148Y40578414D01*
X28486148Y40421586D01*
X28455552Y40267772D01*
X28395537Y40122883D01*
X28308408Y39992485D01*
X28197515Y39881592D01*
X28067117Y39794463D01*
X27922228Y39734448D01*
X27768414Y39703852D01*
X27611586Y39703852D01*
X27457772Y39734448D01*
X27312883Y39794463D01*
X27182485Y39881592D01*
X27071592Y39992485D01*
X26984463Y40122883D01*
X26924448Y40267772D01*
X26893852Y40421586D01*
X26893852Y40578414D01*
X26924448Y40732228D01*
X26984463Y40877117D01*
X27071592Y41007515D01*
X27182485Y41118408D01*
X27312883Y41205537D01*
X27457772Y41265552D01*
X27611586Y41296148D01*
X27768414Y41296148D01*
X27922228Y41265552D01*
G37*
G36*
X35542228Y41265552D02*
G01*
X35687117Y41205537D01*
X35817515Y41118408D01*
X35928408Y41007515D01*
X36015537Y40877117D01*
X36075552Y40732228D01*
X36106148Y40578414D01*
X36106148Y40421586D01*
X36075552Y40267772D01*
X36015537Y40122883D01*
X35928408Y39992485D01*
X35817515Y39881592D01*
X35687117Y39794463D01*
X35542228Y39734448D01*
X35388414Y39703852D01*
X35231586Y39703852D01*
X35077772Y39734448D01*
X34932883Y39794463D01*
X34802485Y39881592D01*
X34691592Y39992485D01*
X34604463Y40122883D01*
X34544448Y40267772D01*
X34513852Y40421586D01*
X34513852Y40578414D01*
X34544448Y40732228D01*
X34604463Y40877117D01*
X34691592Y41007515D01*
X34802485Y41118408D01*
X34932883Y41205537D01*
X35077772Y41265552D01*
X35231586Y41296148D01*
X35388414Y41296148D01*
X35542228Y41265552D01*
G37*
G36*
X27538268Y45092388D02*
G01*
X27570711Y45070711D01*
X27592388Y45038268D01*
X27600000Y45000000D01*
X27600000Y44000000D01*
X27592388Y43961732D01*
X27570711Y43929289D01*
X27538268Y43907612D01*
X27500000Y43900000D01*
X26500000Y43900000D01*
X26461732Y43907612D01*
X26429289Y43929289D01*
X26407612Y43961732D01*
X26400000Y44000000D01*
X26400000Y45000000D01*
X26407612Y45038268D01*
X26429289Y45070711D01*
X26461732Y45092388D01*
X26500000Y45100000D01*
X27500000Y45100000D01*
X27538268Y45092388D01*
G37*
G36*
X6732228Y45765552D02*
G01*
X6877117Y45705537D01*
X7007515Y45618408D01*
X7118408Y45507515D01*
X7205537Y45377117D01*
X7265552Y45232228D01*
X7296148Y45078414D01*
X7296148Y44921586D01*
X7265552Y44767772D01*
X7205537Y44622883D01*
X7118408Y44492485D01*
X7007515Y44381592D01*
X6877117Y44294463D01*
X6732228Y44234448D01*
X6578414Y44203852D01*
X6421586Y44203852D01*
X6267772Y44234448D01*
X6122883Y44294463D01*
X5992485Y44381592D01*
X5881592Y44492485D01*
X5794463Y44622883D01*
X5734448Y44767772D01*
X5703852Y44921586D01*
X5703852Y45078414D01*
X5734448Y45232228D01*
X5794463Y45377117D01*
X5881592Y45507515D01*
X5992485Y45618408D01*
X6122883Y45705537D01*
X6267772Y45765552D01*
X6421586Y45796148D01*
X6578414Y45796148D01*
X6732228Y45765552D01*
G37*
G36*
X11538268Y46092388D02*
G01*
X11570711Y46070711D01*
X11592388Y46038268D01*
X11600000Y46000000D01*
X11600000Y45000000D01*
X11592388Y44961732D01*
X11570711Y44929289D01*
X11538268Y44907612D01*
X11500000Y44900000D01*
X10500000Y44900000D01*
X10461732Y44907612D01*
X10429289Y44929289D01*
X10407612Y44961732D01*
X10400000Y45000000D01*
X10400000Y46000000D01*
X10407612Y46038268D01*
X10429289Y46070711D01*
X10461732Y46092388D01*
X10500000Y46100000D01*
X11500000Y46100000D01*
X11538268Y46092388D01*
G37*
G36*
X47290285Y47956940D02*
G01*
X47471397Y47881921D01*
X47634393Y47773010D01*
X47773010Y47634393D01*
X47881921Y47471397D01*
X47956940Y47290285D01*
X47995185Y47098017D01*
X47995185Y46901983D01*
X47956940Y46709715D01*
X47881921Y46528603D01*
X47773010Y46365607D01*
X47634393Y46226990D01*
X47471397Y46118079D01*
X47290285Y46043060D01*
X47098017Y46004815D01*
X46901983Y46004815D01*
X46709715Y46043060D01*
X46528603Y46118079D01*
X46365607Y46226990D01*
X46226990Y46365607D01*
X46118079Y46528603D01*
X46043060Y46709715D01*
X46004815Y46901983D01*
X46004815Y47098017D01*
X46043060Y47290285D01*
X46118079Y47471397D01*
X46226990Y47634393D01*
X46365607Y47773010D01*
X46528603Y47881921D01*
X46709715Y47956940D01*
X46901983Y47995185D01*
X47098017Y47995185D01*
X47290285Y47956940D01*
G37*
G36*
X3780134Y49166844D02*
G01*
X3959220Y49108655D01*
X4126998Y49023168D01*
X4279338Y48912487D01*
X4412487Y48779338D01*
X4523168Y48626998D01*
X4608655Y48459220D01*
X4666844Y48280134D01*
X4696301Y48094151D01*
X4696301Y47905849D01*
X4666844Y47719866D01*
X4608655Y47540780D01*
X4523168Y47373002D01*
X4412487Y47220662D01*
X4279338Y47087513D01*
X4126998Y46976832D01*
X3959220Y46891345D01*
X3780134Y46833156D01*
X3594151Y46803699D01*
X3405849Y46803699D01*
X3219866Y46833156D01*
X3040780Y46891345D01*
X2873002Y46976832D01*
X2720662Y47087513D01*
X2587513Y47220662D01*
X2476832Y47373002D01*
X2391345Y47540780D01*
X2333156Y47719866D01*
X2303699Y47905849D01*
X2303699Y48094151D01*
X2333156Y48280134D01*
X2391345Y48459220D01*
X2476832Y48626998D01*
X2587513Y48779338D01*
X2720662Y48912487D01*
X2873002Y49023168D01*
X3040780Y49108655D01*
X3219866Y49166844D01*
X3405849Y49196301D01*
X3594151Y49196301D01*
X3780134Y49166844D01*
G37*
G36*
X20888268Y48942388D02*
G01*
X20920711Y48920711D01*
X20942388Y48888268D01*
X20950000Y48850000D01*
X20950000Y47150000D01*
X20942388Y47111732D01*
X20920711Y47079289D01*
X20888268Y47057612D01*
X20850000Y47050000D01*
X19150000Y47050000D01*
X19111732Y47057612D01*
X19079289Y47079289D01*
X19057612Y47111732D01*
X19050000Y47150000D01*
X19050000Y48850000D01*
X19057612Y48888268D01*
X19079289Y48920711D01*
X19111732Y48942388D01*
X19150000Y48950000D01*
X20850000Y48950000D01*
X20888268Y48942388D01*
G37*
G36*
X30888268Y48942388D02*
G01*
X30920711Y48920711D01*
X30942388Y48888268D01*
X30950000Y48850000D01*
X30950000Y47150000D01*
X30942388Y47111732D01*
X30920711Y47079289D01*
X30888268Y47057612D01*
X30850000Y47050000D01*
X29150000Y47050000D01*
X29111732Y47057612D01*
X29079289Y47079289D01*
X29057612Y47111732D01*
X29050000Y47150000D01*
X29050000Y48850000D01*
X29057612Y48888268D01*
X29079289Y48920711D01*
X29111732Y48942388D01*
X29150000Y48950000D01*
X30850000Y48950000D01*
X30888268Y48942388D01*
G37*
G36*
X22815770Y48909093D02*
G01*
X22987827Y48837825D01*
X23142674Y48734360D01*
X23274360Y48602674D01*
X23377825Y48447827D01*
X23449093Y48275770D01*
X23485425Y48093116D01*
X23485425Y47906884D01*
X23449093Y47724230D01*
X23377825Y47552173D01*
X23274360Y47397326D01*
X23142674Y47265640D01*
X22987827Y47162175D01*
X22815770Y47090907D01*
X22633116Y47054575D01*
X22446884Y47054575D01*
X22264230Y47090907D01*
X22092173Y47162175D01*
X21937326Y47265640D01*
X21805640Y47397326D01*
X21702175Y47552173D01*
X21630907Y47724230D01*
X21594575Y47906884D01*
X21594575Y48093116D01*
X21630907Y48275770D01*
X21702175Y48447827D01*
X21805640Y48602674D01*
X21937326Y48734360D01*
X22092173Y48837825D01*
X22264230Y48909093D01*
X22446884Y48945425D01*
X22633116Y48945425D01*
X22815770Y48909093D01*
G37*
G36*
X27735770Y48909093D02*
G01*
X27907827Y48837825D01*
X28062674Y48734360D01*
X28194360Y48602674D01*
X28297825Y48447827D01*
X28369093Y48275770D01*
X28405425Y48093116D01*
X28405425Y47906884D01*
X28369093Y47724230D01*
X28297825Y47552173D01*
X28194360Y47397326D01*
X28062674Y47265640D01*
X27907827Y47162175D01*
X27735770Y47090907D01*
X27553116Y47054575D01*
X27366884Y47054575D01*
X27184230Y47090907D01*
X27012173Y47162175D01*
X26857326Y47265640D01*
X26725640Y47397326D01*
X26622175Y47552173D01*
X26550907Y47724230D01*
X26514575Y47906884D01*
X26514575Y48093116D01*
X26550907Y48275770D01*
X26622175Y48447827D01*
X26725640Y48602674D01*
X26857326Y48734360D01*
X27012173Y48837825D01*
X27184230Y48909093D01*
X27366884Y48945425D01*
X27553116Y48945425D01*
X27735770Y48909093D01*
G37*
M02*
